<?xml version="1.0" encoding="utf-8" standalone="no"?>
<!DOCTYPE svg PUBLIC "-//W3C//DTD SVG 1.1//EN"
  "http://www.w3.org/Graphics/SVG/1.1/DTD/svg11.dtd">
<svg xmlns:xlink="http://www.w3.org/1999/xlink" width="684pt" height="568.8pt" viewBox="0 0 684 568.8" xmlns="http://www.w3.org/2000/svg" version="1.1">
 <metadata>
  <rdf:RDF xmlns:dc="http://purl.org/dc/elements/1.1/" xmlns:cc="http://creativecommons.org/ns#" xmlns:rdf="http://www.w3.org/1999/02/22-rdf-syntax-ns#">
   <cc:Work>
    <dc:type rdf:resource="http://purl.org/dc/dcmitype/StillImage"/>
    <dc:date>2024-02-03T14:10:33.340882</dc:date>
    <dc:format>image/svg+xml</dc:format>
    <dc:creator>
     <cc:Agent>
      <dc:title>Matplotlib v3.8.0, https://matplotlib.org/</dc:title>
     </cc:Agent>
    </dc:creator>
   </cc:Work>
  </rdf:RDF>
 </metadata>
 <defs>
  <style type="text/css">*{stroke-linejoin: round; stroke-linecap: butt}</style>
 </defs>
 <g id="figure_1">
  <g id="patch_1">
   <path d="M 0 568.8 
L 684 568.8 
L 684 0 
L 0 0 
z
" style="fill: #ffffff"/>
  </g>
  <g id="axes_1">
   <g id="text_1">
    <g id="patch_2">
     <path d="M 475.974922 141.916059 
L 535.896762 210.20209 
Q 538.271227 212.907994 540.977131 210.53353 
L 549.706491 202.873408 
Q 552.412395 200.498943 550.037931 197.793039 
L 490.116091 129.507008 
Q 487.741626 126.801104 485.035722 129.175568 
L 476.306362 136.83569 
Q 473.600458 139.210155 475.974922 141.916059 
z
" clip-path="url(#pcc222c5d55)" style="fill: #ffffff; stroke: #ffffff; stroke-linejoin: miter"/>
    </g>
    <g clip-path="url(#pcc222c5d55)">
     <!-- St. Marys River -->
     <g style="fill: #ff0000" transform="translate(480.556638 137.895546) rotate(-311.267353) scale(0.12 -0.12)">
      <defs>
       <path id="DejaVuSans-53" d="M 3425 4513 
L 3425 3897 
Q 3066 4069 2747 4153 
Q 2428 4238 2131 4238 
Q 1616 4238 1336 4038 
Q 1056 3838 1056 3469 
Q 1056 3159 1242 3001 
Q 1428 2844 1947 2747 
L 2328 2669 
Q 3034 2534 3370 2195 
Q 3706 1856 3706 1288 
Q 3706 609 3251 259 
Q 2797 -91 1919 -91 
Q 1588 -91 1214 -16 
Q 841 59 441 206 
L 441 856 
Q 825 641 1194 531 
Q 1563 422 1919 422 
Q 2459 422 2753 634 
Q 3047 847 3047 1241 
Q 3047 1584 2836 1778 
Q 2625 1972 2144 2069 
L 1759 2144 
Q 1053 2284 737 2584 
Q 422 2884 422 3419 
Q 422 4038 858 4394 
Q 1294 4750 2059 4750 
Q 2388 4750 2728 4690 
Q 3069 4631 3425 4513 
z
" transform="scale(0.015625)"/>
       <path id="DejaVuSans-74" d="M 1172 4494 
L 1172 3500 
L 2356 3500 
L 2356 3053 
L 1172 3053 
L 1172 1153 
Q 1172 725 1289 603 
Q 1406 481 1766 481 
L 2356 481 
L 2356 0 
L 1766 0 
Q 1100 0 847 248 
Q 594 497 594 1153 
L 594 3053 
L 172 3053 
L 172 3500 
L 594 3500 
L 594 4494 
L 1172 4494 
z
" transform="scale(0.015625)"/>
       <path id="DejaVuSans-2e" d="M 684 794 
L 1344 794 
L 1344 0 
L 684 0 
L 684 794 
z
" transform="scale(0.015625)"/>
       <path id="DejaVuSans-20" transform="scale(0.015625)"/>
       <path id="DejaVuSans-4d" d="M 628 4666 
L 1569 4666 
L 2759 1491 
L 3956 4666 
L 4897 4666 
L 4897 0 
L 4281 0 
L 4281 4097 
L 3078 897 
L 2444 897 
L 1241 4097 
L 1241 0 
L 628 0 
L 628 4666 
z
" transform="scale(0.015625)"/>
       <path id="DejaVuSans-61" d="M 2194 1759 
Q 1497 1759 1228 1600 
Q 959 1441 959 1056 
Q 959 750 1161 570 
Q 1363 391 1709 391 
Q 2188 391 2477 730 
Q 2766 1069 2766 1631 
L 2766 1759 
L 2194 1759 
z
M 3341 1997 
L 3341 0 
L 2766 0 
L 2766 531 
Q 2569 213 2275 61 
Q 1981 -91 1556 -91 
Q 1019 -91 701 211 
Q 384 513 384 1019 
Q 384 1609 779 1909 
Q 1175 2209 1959 2209 
L 2766 2209 
L 2766 2266 
Q 2766 2663 2505 2880 
Q 2244 3097 1772 3097 
Q 1472 3097 1187 3025 
Q 903 2953 641 2809 
L 641 3341 
Q 956 3463 1253 3523 
Q 1550 3584 1831 3584 
Q 2591 3584 2966 3190 
Q 3341 2797 3341 1997 
z
" transform="scale(0.015625)"/>
       <path id="DejaVuSans-72" d="M 2631 2963 
Q 2534 3019 2420 3045 
Q 2306 3072 2169 3072 
Q 1681 3072 1420 2755 
Q 1159 2438 1159 1844 
L 1159 0 
L 581 0 
L 581 3500 
L 1159 3500 
L 1159 2956 
Q 1341 3275 1631 3429 
Q 1922 3584 2338 3584 
Q 2397 3584 2469 3576 
Q 2541 3569 2628 3553 
L 2631 2963 
z
" transform="scale(0.015625)"/>
       <path id="DejaVuSans-79" d="M 2059 -325 
Q 1816 -950 1584 -1140 
Q 1353 -1331 966 -1331 
L 506 -1331 
L 506 -850 
L 844 -850 
Q 1081 -850 1212 -737 
Q 1344 -625 1503 -206 
L 1606 56 
L 191 3500 
L 800 3500 
L 1894 763 
L 2988 3500 
L 3597 3500 
L 2059 -325 
z
" transform="scale(0.015625)"/>
       <path id="DejaVuSans-73" d="M 2834 3397 
L 2834 2853 
Q 2591 2978 2328 3040 
Q 2066 3103 1784 3103 
Q 1356 3103 1142 2972 
Q 928 2841 928 2578 
Q 928 2378 1081 2264 
Q 1234 2150 1697 2047 
L 1894 2003 
Q 2506 1872 2764 1633 
Q 3022 1394 3022 966 
Q 3022 478 2636 193 
Q 2250 -91 1575 -91 
Q 1294 -91 989 -36 
Q 684 19 347 128 
L 347 722 
Q 666 556 975 473 
Q 1284 391 1588 391 
Q 1994 391 2212 530 
Q 2431 669 2431 922 
Q 2431 1156 2273 1281 
Q 2116 1406 1581 1522 
L 1381 1569 
Q 847 1681 609 1914 
Q 372 2147 372 2553 
Q 372 3047 722 3315 
Q 1072 3584 1716 3584 
Q 2034 3584 2315 3537 
Q 2597 3491 2834 3397 
z
" transform="scale(0.015625)"/>
       <path id="DejaVuSans-52" d="M 2841 2188 
Q 3044 2119 3236 1894 
Q 3428 1669 3622 1275 
L 4263 0 
L 3584 0 
L 2988 1197 
Q 2756 1666 2539 1819 
Q 2322 1972 1947 1972 
L 1259 1972 
L 1259 0 
L 628 0 
L 628 4666 
L 2053 4666 
Q 2853 4666 3247 4331 
Q 3641 3997 3641 3322 
Q 3641 2881 3436 2590 
Q 3231 2300 2841 2188 
z
M 1259 4147 
L 1259 2491 
L 2053 2491 
Q 2509 2491 2742 2702 
Q 2975 2913 2975 3322 
Q 2975 3731 2742 3939 
Q 2509 4147 2053 4147 
L 1259 4147 
z
" transform="scale(0.015625)"/>
       <path id="DejaVuSans-69" d="M 603 3500 
L 1178 3500 
L 1178 0 
L 603 0 
L 603 3500 
z
M 603 4863 
L 1178 4863 
L 1178 4134 
L 603 4134 
L 603 4863 
z
" transform="scale(0.015625)"/>
       <path id="DejaVuSans-76" d="M 191 3500 
L 800 3500 
L 1894 563 
L 2988 3500 
L 3597 3500 
L 2284 0 
L 1503 0 
L 191 3500 
z
" transform="scale(0.015625)"/>
       <path id="DejaVuSans-65" d="M 3597 1894 
L 3597 1613 
L 953 1613 
Q 991 1019 1311 708 
Q 1631 397 2203 397 
Q 2534 397 2845 478 
Q 3156 559 3463 722 
L 3463 178 
Q 3153 47 2828 -22 
Q 2503 -91 2169 -91 
Q 1331 -91 842 396 
Q 353 884 353 1716 
Q 353 2575 817 3079 
Q 1281 3584 2069 3584 
Q 2775 3584 3186 3129 
Q 3597 2675 3597 1894 
z
M 3022 2063 
Q 3016 2534 2758 2815 
Q 2500 3097 2075 3097 
Q 1594 3097 1305 2825 
Q 1016 2553 972 2059 
L 3022 2063 
z
" transform="scale(0.015625)"/>
      </defs>
      <use xlink:href="#DejaVuSans-53"/>
      <use xlink:href="#DejaVuSans-74" x="63.476562"/>
      <use xlink:href="#DejaVuSans-2e" x="102.685547"/>
      <use xlink:href="#DejaVuSans-20" x="134.472656"/>
      <use xlink:href="#DejaVuSans-4d" x="166.259766"/>
      <use xlink:href="#DejaVuSans-61" x="252.539062"/>
      <use xlink:href="#DejaVuSans-72" x="313.818359"/>
      <use xlink:href="#DejaVuSans-79" x="354.931641"/>
      <use xlink:href="#DejaVuSans-73" x="414.111328"/>
      <use xlink:href="#DejaVuSans-20" x="466.210938"/>
      <use xlink:href="#DejaVuSans-52" x="497.998047"/>
      <use xlink:href="#DejaVuSans-69" x="567.480469"/>
      <use xlink:href="#DejaVuSans-76" x="595.263672"/>
      <use xlink:href="#DejaVuSans-65" x="654.443359"/>
      <use xlink:href="#DejaVuSans-72" x="715.966797"/>
     </g>
    </g>
   </g>
   <g id="text_2">
    <g id="patch_3">
     <path d="M 199.072481 118.821106 
L 278.43944 97.469841 
Q 281.915841 96.534622 280.980621 93.058221 
L 277.963563 81.843206 
Q 277.028343 78.366805 273.551942 79.302025 
L 194.184983 100.653289 
Q 190.708582 101.588509 191.643802 105.06491 
L 194.66086 116.279925 
Q 195.59608 119.756326 199.072481 118.821106 
z
" clip-path="url(#pcc222c5d55)" style="fill: #ffffff; stroke: #ffffff; stroke-linejoin: miter"/>
    </g>
    <g clip-path="url(#pcc222c5d55)">
     <!-- St. Clair River -->
     <g style="fill: #ff0000" transform="translate(197.48894 112.934762) rotate(-15.057204) scale(0.12 -0.12)">
      <defs>
       <path id="DejaVuSans-43" d="M 4122 4306 
L 4122 3641 
Q 3803 3938 3442 4084 
Q 3081 4231 2675 4231 
Q 1875 4231 1450 3742 
Q 1025 3253 1025 2328 
Q 1025 1406 1450 917 
Q 1875 428 2675 428 
Q 3081 428 3442 575 
Q 3803 722 4122 1019 
L 4122 359 
Q 3791 134 3420 21 
Q 3050 -91 2638 -91 
Q 1578 -91 968 557 
Q 359 1206 359 2328 
Q 359 3453 968 4101 
Q 1578 4750 2638 4750 
Q 3056 4750 3426 4639 
Q 3797 4528 4122 4306 
z
" transform="scale(0.015625)"/>
       <path id="DejaVuSans-6c" d="M 603 4863 
L 1178 4863 
L 1178 0 
L 603 0 
L 603 4863 
z
" transform="scale(0.015625)"/>
      </defs>
      <use xlink:href="#DejaVuSans-53"/>
      <use xlink:href="#DejaVuSans-74" x="63.476562"/>
      <use xlink:href="#DejaVuSans-2e" x="102.685547"/>
      <use xlink:href="#DejaVuSans-20" x="134.472656"/>
      <use xlink:href="#DejaVuSans-43" x="166.259766"/>
      <use xlink:href="#DejaVuSans-6c" x="236.083984"/>
      <use xlink:href="#DejaVuSans-61" x="263.867188"/>
      <use xlink:href="#DejaVuSans-69" x="325.146484"/>
      <use xlink:href="#DejaVuSans-72" x="352.929688"/>
      <use xlink:href="#DejaVuSans-20" x="394.042969"/>
      <use xlink:href="#DejaVuSans-52" x="425.830078"/>
      <use xlink:href="#DejaVuSans-69" x="495.3125"/>
      <use xlink:href="#DejaVuSans-76" x="523.095703"/>
      <use xlink:href="#DejaVuSans-65" x="582.275391"/>
      <use xlink:href="#DejaVuSans-72" x="643.798828"/>
     </g>
    </g>
   </g>
   <g id="text_3">
    <g id="patch_4">
     <path d="M 55.898917 246.261577 
L 55.898922 322.538452 
Q 55.898922 326.138452 59.498922 326.138452 
L 71.112672 326.138452 
Q 74.712672 326.138451 74.712672 322.538451 
L 74.712667 246.261576 
Q 74.712667 242.661576 71.112667 242.661577 
L 59.498917 242.661577 
Q 55.898917 242.661577 55.898917 246.261577 
z
" clip-path="url(#pcc222c5d55)" style="fill: #ffffff; stroke: #ffffff; stroke-linejoin: miter"/>
    </g>
    <g clip-path="url(#pcc222c5d55)">
     <!-- Detroit River -->
     <g style="fill: #ff0000" transform="translate(61.994542 246.261577) rotate(-270.000004) scale(0.12 -0.12)">
      <defs>
       <path id="DejaVuSans-44" d="M 1259 4147 
L 1259 519 
L 2022 519 
Q 2988 519 3436 956 
Q 3884 1394 3884 2338 
Q 3884 3275 3436 3711 
Q 2988 4147 2022 4147 
L 1259 4147 
z
M 628 4666 
L 1925 4666 
Q 3281 4666 3915 4102 
Q 4550 3538 4550 2338 
Q 4550 1131 3912 565 
Q 3275 0 1925 0 
L 628 0 
L 628 4666 
z
" transform="scale(0.015625)"/>
       <path id="DejaVuSans-6f" d="M 1959 3097 
Q 1497 3097 1228 2736 
Q 959 2375 959 1747 
Q 959 1119 1226 758 
Q 1494 397 1959 397 
Q 2419 397 2687 759 
Q 2956 1122 2956 1747 
Q 2956 2369 2687 2733 
Q 2419 3097 1959 3097 
z
M 1959 3584 
Q 2709 3584 3137 3096 
Q 3566 2609 3566 1747 
Q 3566 888 3137 398 
Q 2709 -91 1959 -91 
Q 1206 -91 779 398 
Q 353 888 353 1747 
Q 353 2609 779 3096 
Q 1206 3584 1959 3584 
z
" transform="scale(0.015625)"/>
      </defs>
      <use xlink:href="#DejaVuSans-44"/>
      <use xlink:href="#DejaVuSans-65" x="77.001953"/>
      <use xlink:href="#DejaVuSans-74" x="138.525391"/>
      <use xlink:href="#DejaVuSans-72" x="177.734375"/>
      <use xlink:href="#DejaVuSans-6f" x="216.597656"/>
      <use xlink:href="#DejaVuSans-69" x="277.779297"/>
      <use xlink:href="#DejaVuSans-74" x="305.5625"/>
      <use xlink:href="#DejaVuSans-20" x="344.771484"/>
      <use xlink:href="#DejaVuSans-52" x="376.558594"/>
      <use xlink:href="#DejaVuSans-69" x="446.041016"/>
      <use xlink:href="#DejaVuSans-76" x="473.824219"/>
      <use xlink:href="#DejaVuSans-65" x="533.003906"/>
      <use xlink:href="#DejaVuSans-72" x="594.527344"/>
     </g>
    </g>
   </g>
   <g id="text_4">
    <g id="patch_5">
     <path d="M 194.358835 468.19349 
L 273.378156 489.451225 
Q 276.854557 490.386444 277.789776 486.910043 
L 280.806834 475.695028 
Q 281.742053 472.218627 278.265652 471.283408 
L 199.246331 450.025673 
Q 195.76993 449.090454 194.834711 452.566855 
L 191.817653 463.78187 
Q 190.882434 467.258271 194.358835 468.19349 
z
" clip-path="url(#pcc222c5d55)" style="fill: #ffffff; stroke: #ffffff; stroke-linejoin: miter"/>
    </g>
    <g clip-path="url(#pcc222c5d55)">
     <!-- Niagara River -->
     <g style="fill: #ff0000" transform="translate(195.942376 462.307147) rotate(-344.942802) scale(0.12 -0.12)">
      <defs>
       <path id="DejaVuSans-4e" d="M 628 4666 
L 1478 4666 
L 3547 763 
L 3547 4666 
L 4159 4666 
L 4159 0 
L 3309 0 
L 1241 3903 
L 1241 0 
L 628 0 
L 628 4666 
z
" transform="scale(0.015625)"/>
       <path id="DejaVuSans-67" d="M 2906 1791 
Q 2906 2416 2648 2759 
Q 2391 3103 1925 3103 
Q 1463 3103 1205 2759 
Q 947 2416 947 1791 
Q 947 1169 1205 825 
Q 1463 481 1925 481 
Q 2391 481 2648 825 
Q 2906 1169 2906 1791 
z
M 3481 434 
Q 3481 -459 3084 -895 
Q 2688 -1331 1869 -1331 
Q 1566 -1331 1297 -1286 
Q 1028 -1241 775 -1147 
L 775 -588 
Q 1028 -725 1275 -790 
Q 1522 -856 1778 -856 
Q 2344 -856 2625 -561 
Q 2906 -266 2906 331 
L 2906 616 
Q 2728 306 2450 153 
Q 2172 0 1784 0 
Q 1141 0 747 490 
Q 353 981 353 1791 
Q 353 2603 747 3093 
Q 1141 3584 1784 3584 
Q 2172 3584 2450 3431 
Q 2728 3278 2906 2969 
L 2906 3500 
L 3481 3500 
L 3481 434 
z
" transform="scale(0.015625)"/>
      </defs>
      <use xlink:href="#DejaVuSans-4e"/>
      <use xlink:href="#DejaVuSans-69" x="74.804688"/>
      <use xlink:href="#DejaVuSans-61" x="102.587891"/>
      <use xlink:href="#DejaVuSans-67" x="163.867188"/>
      <use xlink:href="#DejaVuSans-61" x="227.34375"/>
      <use xlink:href="#DejaVuSans-72" x="288.623047"/>
      <use xlink:href="#DejaVuSans-61" x="329.736328"/>
      <use xlink:href="#DejaVuSans-20" x="391.015625"/>
      <use xlink:href="#DejaVuSans-52" x="422.802734"/>
      <use xlink:href="#DejaVuSans-69" x="492.285156"/>
      <use xlink:href="#DejaVuSans-76" x="520.068359"/>
      <use xlink:href="#DejaVuSans-65" x="579.248047"/>
      <use xlink:href="#DejaVuSans-72" x="640.771484"/>
     </g>
    </g>
   </g>
   <g id="patch_6">
    <path d="M 612.820879 278.034429 
Q 513.006356 169.854473 415.466313 64.139621 
" clip-path="url(#pcc222c5d55)" style="fill: none; stroke-dasharray: 11.1,4.8; stroke-dashoffset: 0; stroke: #00008b; stroke-width: 3; stroke-linecap: round"/>
    <path d="M 420.436602 81.323807 
L 415.466313 64.139621 
L 432.195835 70.473902 
" clip-path="url(#pcc222c5d55)" style="fill: none; stroke-dasharray: 11.1,4.8; stroke-dashoffset: 0; stroke: #00008b; stroke-width: 3; stroke-linecap: round"/>
   </g>
   <g id="patch_7">
    <path d="M 398.929575 57.455456 
Q 236.313685 99.061188 76.947229 139.835544 
" clip-path="url(#pcc222c5d55)" style="fill: none; stroke-dasharray: 11.1,4.8; stroke-dashoffset: 0; stroke: #00008b; stroke-width: 3; stroke-linecap: round"/>
    <path d="M 94.430876 143.619996 
L 76.947229 139.835544 
L 90.464979 128.119297 
" clip-path="url(#pcc222c5d55)" style="fill: none; stroke-dasharray: 11.1,4.8; stroke-dashoffset: 0; stroke: #00008b; stroke-width: 3; stroke-linecap: round"/>
   </g>
   <g id="patch_8">
    <path d="M 65.305786 151.477366 
Q 65.305794 284.402688 65.305803 413.973908 
" clip-path="url(#pcc222c5d55)" style="fill: none; stroke-dasharray: 11.1,4.8; stroke-dashoffset: 0; stroke: #00008b; stroke-width: 3; stroke-linecap: round"/>
    <path d="M 73.305802 397.973907 
L 65.305803 413.973908 
L 57.305802 397.973908 
" clip-path="url(#pcc222c5d55)" style="fill: none; stroke-dasharray: 11.1,4.8; stroke-dashoffset: 0; stroke: #00008b; stroke-width: 3; stroke-linecap: round"/>
   </g>
   <g id="patch_9">
    <path d="M 73.694867 428.132354 
Q 236.31077 469.738072 395.677239 510.512414 
" clip-path="url(#pcc222c5d55)" style="fill: none; stroke-dasharray: 11.1,4.8; stroke-dashoffset: 0; stroke: #00008b; stroke-width: 3; stroke-linecap: round"/>
    <path d="M 382.159488 498.796169 
L 395.677239 510.512414 
L 378.193592 514.296868 
" clip-path="url(#pcc222c5d55)" style="fill: none; stroke-dasharray: 11.1,4.8; stroke-dashoffset: 0; stroke: #00008b; stroke-width: 3; stroke-linecap: round"/>
   </g>
   <g id="PathCollection_1">
    <defs>
     <path id="m8ecdd96b95" d="M 0 35.355339 
C 9.376346 35.355339 18.369923 31.630078 25 25 
C 31.630078 18.369923 35.355339 9.376346 35.355339 0 
C 35.355339 -9.376346 31.630078 -18.369923 25 -25 
C 18.369923 -31.630078 9.376346 -35.355339 0 -35.355339 
C -9.376346 -35.355339 -18.369923 -31.630078 -25 -25 
C -31.630078 -18.369923 -35.355339 -9.376346 -35.355339 0 
C -35.355339 9.376346 -31.630078 18.369923 -25 25 
C -18.369923 31.630078 -9.376346 35.355339 0 35.355339 
z
" style="stroke: #87ceeb"/>
    </defs>
    <g clip-path="url(#pcc222c5d55)">
     <use xlink:href="#m8ecdd96b95" x="618.694215" y="284.400007" style="fill: #87ceeb; stroke: #87ceeb"/>
     <use xlink:href="#m8ecdd96b95" x="407.318638" y="55.309091" style="fill: #87ceeb; stroke: #87ceeb"/>
     <use xlink:href="#m8ecdd96b95" x="65.305785" y="142.81404" style="fill: #87ceeb; stroke: #87ceeb"/>
     <use xlink:href="#m8ecdd96b95" x="65.305803" y="425.985989" style="fill: #87ceeb; stroke: #87ceeb"/>
     <use xlink:href="#m8ecdd96b95" x="407.318684" y="513.490909" style="fill: #87ceeb; stroke: #87ceeb"/>
    </g>
   </g>
   <g id="text_5">
    <g clip-path="url(#pcc222c5d55)">
     <!-- Superior -->
     <g transform="translate(582.377809 288.53907) scale(0.15 -0.15)">
      <defs>
       <path id="DejaVuSans-Bold-53" d="M 3834 4519 
L 3834 3531 
Q 3450 3703 3084 3790 
Q 2719 3878 2394 3878 
Q 1963 3878 1756 3759 
Q 1550 3641 1550 3391 
Q 1550 3203 1689 3098 
Q 1828 2994 2194 2919 
L 2706 2816 
Q 3484 2659 3812 2340 
Q 4141 2022 4141 1434 
Q 4141 663 3683 286 
Q 3225 -91 2284 -91 
Q 1841 -91 1394 -6 
Q 947 78 500 244 
L 500 1259 
Q 947 1022 1364 901 
Q 1781 781 2169 781 
Q 2563 781 2772 912 
Q 2981 1044 2981 1288 
Q 2981 1506 2839 1625 
Q 2697 1744 2272 1838 
L 1806 1941 
Q 1106 2091 782 2419 
Q 459 2747 459 3303 
Q 459 4000 909 4375 
Q 1359 4750 2203 4750 
Q 2588 4750 2994 4692 
Q 3400 4634 3834 4519 
z
" transform="scale(0.015625)"/>
       <path id="DejaVuSans-Bold-75" d="M 500 1363 
L 500 3500 
L 1625 3500 
L 1625 3150 
Q 1625 2866 1622 2436 
Q 1619 2006 1619 1863 
Q 1619 1441 1641 1255 
Q 1663 1069 1716 984 
Q 1784 875 1895 815 
Q 2006 756 2150 756 
Q 2500 756 2700 1025 
Q 2900 1294 2900 1772 
L 2900 3500 
L 4019 3500 
L 4019 0 
L 2900 0 
L 2900 506 
Q 2647 200 2364 54 
Q 2081 -91 1741 -91 
Q 1134 -91 817 281 
Q 500 653 500 1363 
z
" transform="scale(0.015625)"/>
       <path id="DejaVuSans-Bold-70" d="M 1656 506 
L 1656 -1331 
L 538 -1331 
L 538 3500 
L 1656 3500 
L 1656 2988 
Q 1888 3294 2169 3439 
Q 2450 3584 2816 3584 
Q 3463 3584 3878 3070 
Q 4294 2556 4294 1747 
Q 4294 938 3878 423 
Q 3463 -91 2816 -91 
Q 2450 -91 2169 54 
Q 1888 200 1656 506 
z
M 2400 2772 
Q 2041 2772 1848 2508 
Q 1656 2244 1656 1747 
Q 1656 1250 1848 986 
Q 2041 722 2400 722 
Q 2759 722 2948 984 
Q 3138 1247 3138 1747 
Q 3138 2247 2948 2509 
Q 2759 2772 2400 2772 
z
" transform="scale(0.015625)"/>
       <path id="DejaVuSans-Bold-65" d="M 4031 1759 
L 4031 1441 
L 1416 1441 
Q 1456 1047 1700 850 
Q 1944 653 2381 653 
Q 2734 653 3104 758 
Q 3475 863 3866 1075 
L 3866 213 
Q 3469 63 3072 -14 
Q 2675 -91 2278 -91 
Q 1328 -91 801 392 
Q 275 875 275 1747 
Q 275 2603 792 3093 
Q 1309 3584 2216 3584 
Q 3041 3584 3536 3087 
Q 4031 2591 4031 1759 
z
M 2881 2131 
Q 2881 2450 2695 2645 
Q 2509 2841 2209 2841 
Q 1884 2841 1681 2658 
Q 1478 2475 1428 2131 
L 2881 2131 
z
" transform="scale(0.015625)"/>
       <path id="DejaVuSans-Bold-72" d="M 3138 2547 
Q 2991 2616 2845 2648 
Q 2700 2681 2553 2681 
Q 2122 2681 1889 2404 
Q 1656 2128 1656 1613 
L 1656 0 
L 538 0 
L 538 3500 
L 1656 3500 
L 1656 2925 
Q 1872 3269 2151 3426 
Q 2431 3584 2822 3584 
Q 2878 3584 2943 3579 
Q 3009 3575 3134 3559 
L 3138 2547 
z
" transform="scale(0.015625)"/>
       <path id="DejaVuSans-Bold-69" d="M 538 3500 
L 1656 3500 
L 1656 0 
L 538 0 
L 538 3500 
z
M 538 4863 
L 1656 4863 
L 1656 3950 
L 538 3950 
L 538 4863 
z
" transform="scale(0.015625)"/>
       <path id="DejaVuSans-Bold-6f" d="M 2203 2784 
Q 1831 2784 1636 2517 
Q 1441 2250 1441 1747 
Q 1441 1244 1636 976 
Q 1831 709 2203 709 
Q 2569 709 2762 976 
Q 2956 1244 2956 1747 
Q 2956 2250 2762 2517 
Q 2569 2784 2203 2784 
z
M 2203 3584 
Q 3106 3584 3614 3096 
Q 4122 2609 4122 1747 
Q 4122 884 3614 396 
Q 3106 -91 2203 -91 
Q 1297 -91 786 396 
Q 275 884 275 1747 
Q 275 2609 786 3096 
Q 1297 3584 2203 3584 
z
" transform="scale(0.015625)"/>
      </defs>
      <use xlink:href="#DejaVuSans-Bold-53"/>
      <use xlink:href="#DejaVuSans-Bold-75" x="72.021484"/>
      <use xlink:href="#DejaVuSans-Bold-70" x="143.212891"/>
      <use xlink:href="#DejaVuSans-Bold-65" x="214.794922"/>
      <use xlink:href="#DejaVuSans-Bold-72" x="282.617188"/>
      <use xlink:href="#DejaVuSans-Bold-69" x="331.933594"/>
      <use xlink:href="#DejaVuSans-Bold-6f" x="366.210938"/>
      <use xlink:href="#DejaVuSans-Bold-72" x="434.912109"/>
     </g>
    </g>
   </g>
   <g id="text_6">
    <g clip-path="url(#pcc222c5d55)">
     <!-- Michigan&amp;Huron -->
     <g transform="translate(336.812779 59.38956) scale(0.15 -0.15)">
      <defs>
       <path id="DejaVuSans-Bold-4d" d="M 588 4666 
L 2119 4666 
L 3181 2169 
L 4250 4666 
L 5778 4666 
L 5778 0 
L 4641 0 
L 4641 3413 
L 3566 897 
L 2803 897 
L 1728 3413 
L 1728 0 
L 588 0 
L 588 4666 
z
" transform="scale(0.015625)"/>
       <path id="DejaVuSans-Bold-63" d="M 3366 3391 
L 3366 2478 
Q 3138 2634 2908 2709 
Q 2678 2784 2431 2784 
Q 1963 2784 1702 2511 
Q 1441 2238 1441 1747 
Q 1441 1256 1702 982 
Q 1963 709 2431 709 
Q 2694 709 2930 787 
Q 3166 866 3366 1019 
L 3366 103 
Q 3103 6 2833 -42 
Q 2563 -91 2291 -91 
Q 1344 -91 809 395 
Q 275 881 275 1747 
Q 275 2613 809 3098 
Q 1344 3584 2291 3584 
Q 2566 3584 2833 3536 
Q 3100 3488 3366 3391 
z
" transform="scale(0.015625)"/>
       <path id="DejaVuSans-Bold-68" d="M 4056 2131 
L 4056 0 
L 2931 0 
L 2931 347 
L 2931 1625 
Q 2931 2084 2911 2256 
Q 2891 2428 2841 2509 
Q 2775 2619 2662 2680 
Q 2550 2741 2406 2741 
Q 2056 2741 1856 2470 
Q 1656 2200 1656 1722 
L 1656 0 
L 538 0 
L 538 4863 
L 1656 4863 
L 1656 2988 
Q 1909 3294 2193 3439 
Q 2478 3584 2822 3584 
Q 3428 3584 3742 3212 
Q 4056 2841 4056 2131 
z
" transform="scale(0.015625)"/>
       <path id="DejaVuSans-Bold-67" d="M 2919 594 
Q 2688 288 2409 144 
Q 2131 0 1766 0 
Q 1125 0 706 504 
Q 288 1009 288 1791 
Q 288 2575 706 3076 
Q 1125 3578 1766 3578 
Q 2131 3578 2409 3434 
Q 2688 3291 2919 2981 
L 2919 3500 
L 4044 3500 
L 4044 353 
Q 4044 -491 3511 -936 
Q 2978 -1381 1966 -1381 
Q 1638 -1381 1331 -1331 
Q 1025 -1281 716 -1178 
L 716 -306 
Q 1009 -475 1290 -558 
Q 1572 -641 1856 -641 
Q 2406 -641 2662 -400 
Q 2919 -159 2919 353 
L 2919 594 
z
M 2181 2772 
Q 1834 2772 1640 2515 
Q 1447 2259 1447 1791 
Q 1447 1309 1634 1061 
Q 1822 813 2181 813 
Q 2531 813 2725 1069 
Q 2919 1325 2919 1791 
Q 2919 2259 2725 2515 
Q 2531 2772 2181 2772 
z
" transform="scale(0.015625)"/>
       <path id="DejaVuSans-Bold-61" d="M 2106 1575 
Q 1756 1575 1579 1456 
Q 1403 1338 1403 1106 
Q 1403 894 1545 773 
Q 1688 653 1941 653 
Q 2256 653 2472 879 
Q 2688 1106 2688 1447 
L 2688 1575 
L 2106 1575 
z
M 3816 1997 
L 3816 0 
L 2688 0 
L 2688 519 
Q 2463 200 2181 54 
Q 1900 -91 1497 -91 
Q 953 -91 614 226 
Q 275 544 275 1050 
Q 275 1666 698 1953 
Q 1122 2241 2028 2241 
L 2688 2241 
L 2688 2328 
Q 2688 2594 2478 2717 
Q 2269 2841 1825 2841 
Q 1466 2841 1156 2769 
Q 847 2697 581 2553 
L 581 3406 
Q 941 3494 1303 3539 
Q 1666 3584 2028 3584 
Q 2975 3584 3395 3211 
Q 3816 2838 3816 1997 
z
" transform="scale(0.015625)"/>
       <path id="DejaVuSans-Bold-6e" d="M 4056 2131 
L 4056 0 
L 2931 0 
L 2931 347 
L 2931 1631 
Q 2931 2084 2911 2256 
Q 2891 2428 2841 2509 
Q 2775 2619 2662 2680 
Q 2550 2741 2406 2741 
Q 2056 2741 1856 2470 
Q 1656 2200 1656 1722 
L 1656 0 
L 538 0 
L 538 3500 
L 1656 3500 
L 1656 2988 
Q 1909 3294 2193 3439 
Q 2478 3584 2822 3584 
Q 3428 3584 3742 3212 
Q 4056 2841 4056 2131 
z
" transform="scale(0.015625)"/>
       <path id="DejaVuSans-Bold-26" d="M 2497 3097 
L 3775 1691 
Q 3941 1909 4027 2181 
Q 4113 2453 4128 2797 
L 5100 2797 
Q 5053 2228 4879 1784 
Q 4706 1341 4397 1006 
L 5313 0 
L 3988 0 
L 3681 341 
Q 3353 122 2990 15 
Q 2628 -91 2222 -91 
Q 1400 -91 892 342 
Q 384 775 384 1459 
Q 384 1916 607 2267 
Q 831 2619 1338 2950 
Q 1206 3116 1143 3281 
Q 1081 3447 1081 3628 
Q 1081 4138 1478 4444 
Q 1875 4750 2534 4750 
Q 2819 4750 3126 4704 
Q 3434 4659 3769 4569 
L 3769 3700 
Q 3475 3850 3212 3922 
Q 2950 3994 2700 3994 
Q 2459 3994 2326 3901 
Q 2194 3809 2194 3641 
Q 2194 3534 2270 3398 
Q 2347 3263 2497 3097 
z
M 1875 2322 
Q 1672 2175 1569 1989 
Q 1466 1803 1466 1581 
Q 1466 1222 1731 969 
Q 1997 716 2369 716 
Q 2578 716 2759 780 
Q 2941 844 3097 972 
L 1875 2322 
z
" transform="scale(0.015625)"/>
       <path id="DejaVuSans-Bold-48" d="M 588 4666 
L 1791 4666 
L 1791 2888 
L 3566 2888 
L 3566 4666 
L 4769 4666 
L 4769 0 
L 3566 0 
L 3566 1978 
L 1791 1978 
L 1791 0 
L 588 0 
L 588 4666 
z
" transform="scale(0.015625)"/>
      </defs>
      <use xlink:href="#DejaVuSans-Bold-4d"/>
      <use xlink:href="#DejaVuSans-Bold-69" x="99.511719"/>
      <use xlink:href="#DejaVuSans-Bold-63" x="133.789062"/>
      <use xlink:href="#DejaVuSans-Bold-68" x="193.066406"/>
      <use xlink:href="#DejaVuSans-Bold-69" x="264.257812"/>
      <use xlink:href="#DejaVuSans-Bold-67" x="298.535156"/>
      <use xlink:href="#DejaVuSans-Bold-61" x="370.117188"/>
      <use xlink:href="#DejaVuSans-Bold-6e" x="437.597656"/>
      <use xlink:href="#DejaVuSans-Bold-26" x="508.789062"/>
      <use xlink:href="#DejaVuSans-Bold-48" x="595.996094"/>
      <use xlink:href="#DejaVuSans-Bold-75" x="679.6875"/>
      <use xlink:href="#DejaVuSans-Bold-72" x="750.878906"/>
      <use xlink:href="#DejaVuSans-Bold-6f" x="800.195312"/>
      <use xlink:href="#DejaVuSans-Bold-6e" x="868.896484"/>
     </g>
    </g>
   </g>
   <g id="text_7">
    <g clip-path="url(#pcc222c5d55)">
     <!-- St. Clair -->
     <g transform="translate(31.453832 146.953102) scale(0.15 -0.15)">
      <defs>
       <path id="DejaVuSans-Bold-74" d="M 1759 4494 
L 1759 3500 
L 2913 3500 
L 2913 2700 
L 1759 2700 
L 1759 1216 
Q 1759 972 1856 886 
Q 1953 800 2241 800 
L 2816 800 
L 2816 0 
L 1856 0 
Q 1194 0 917 276 
Q 641 553 641 1216 
L 641 2700 
L 84 2700 
L 84 3500 
L 641 3500 
L 641 4494 
L 1759 4494 
z
" transform="scale(0.015625)"/>
       <path id="DejaVuSans-Bold-2e" d="M 653 1209 
L 1778 1209 
L 1778 0 
L 653 0 
L 653 1209 
z
" transform="scale(0.015625)"/>
       <path id="DejaVuSans-Bold-20" transform="scale(0.015625)"/>
       <path id="DejaVuSans-Bold-43" d="M 4288 256 
Q 3956 84 3597 -3 
Q 3238 -91 2847 -91 
Q 1681 -91 1000 561 
Q 319 1213 319 2328 
Q 319 3447 1000 4098 
Q 1681 4750 2847 4750 
Q 3238 4750 3597 4662 
Q 3956 4575 4288 4403 
L 4288 3438 
Q 3953 3666 3628 3772 
Q 3303 3878 2944 3878 
Q 2300 3878 1931 3465 
Q 1563 3053 1563 2328 
Q 1563 1606 1931 1193 
Q 2300 781 2944 781 
Q 3303 781 3628 887 
Q 3953 994 4288 1222 
L 4288 256 
z
" transform="scale(0.015625)"/>
       <path id="DejaVuSans-Bold-6c" d="M 538 4863 
L 1656 4863 
L 1656 0 
L 538 0 
L 538 4863 
z
" transform="scale(0.015625)"/>
      </defs>
      <use xlink:href="#DejaVuSans-Bold-53"/>
      <use xlink:href="#DejaVuSans-Bold-74" x="72.021484"/>
      <use xlink:href="#DejaVuSans-Bold-2e" x="119.824219"/>
      <use xlink:href="#DejaVuSans-Bold-20" x="157.8125"/>
      <use xlink:href="#DejaVuSans-Bold-43" x="192.626953"/>
      <use xlink:href="#DejaVuSans-Bold-6c" x="266.015625"/>
      <use xlink:href="#DejaVuSans-Bold-61" x="300.292969"/>
      <use xlink:href="#DejaVuSans-Bold-69" x="367.773438"/>
      <use xlink:href="#DejaVuSans-Bold-72" x="402.050781"/>
     </g>
    </g>
   </g>
   <g id="text_8">
    <g clip-path="url(#pcc222c5d55)">
     <!-- Erie -->
     <g transform="translate(48.825725 430.125051) scale(0.15 -0.15)">
      <defs>
       <path id="DejaVuSans-Bold-45" d="M 588 4666 
L 3834 4666 
L 3834 3756 
L 1791 3756 
L 1791 2888 
L 3713 2888 
L 3713 1978 
L 1791 1978 
L 1791 909 
L 3903 909 
L 3903 0 
L 588 0 
L 588 4666 
z
" transform="scale(0.015625)"/>
      </defs>
      <use xlink:href="#DejaVuSans-Bold-45"/>
      <use xlink:href="#DejaVuSans-Bold-72" x="68.310547"/>
      <use xlink:href="#DejaVuSans-Bold-69" x="117.626953"/>
      <use xlink:href="#DejaVuSans-Bold-65" x="151.904297"/>
     </g>
    </g>
   </g>
   <g id="text_9">
    <g clip-path="url(#pcc222c5d55)">
     <!-- Ontario -->
     <g transform="translate(375.53509 517.629972) scale(0.15 -0.15)">
      <defs>
       <path id="DejaVuSans-Bold-4f" d="M 2719 3878 
Q 2169 3878 1866 3472 
Q 1563 3066 1563 2328 
Q 1563 1594 1866 1187 
Q 2169 781 2719 781 
Q 3272 781 3575 1187 
Q 3878 1594 3878 2328 
Q 3878 3066 3575 3472 
Q 3272 3878 2719 3878 
z
M 2719 4750 
Q 3844 4750 4481 4106 
Q 5119 3463 5119 2328 
Q 5119 1197 4481 553 
Q 3844 -91 2719 -91 
Q 1597 -91 958 553 
Q 319 1197 319 2328 
Q 319 3463 958 4106 
Q 1597 4750 2719 4750 
z
" transform="scale(0.015625)"/>
      </defs>
      <use xlink:href="#DejaVuSans-Bold-4f"/>
      <use xlink:href="#DejaVuSans-Bold-6e" x="85.009766"/>
      <use xlink:href="#DejaVuSans-Bold-74" x="156.201172"/>
      <use xlink:href="#DejaVuSans-Bold-61" x="204.003906"/>
      <use xlink:href="#DejaVuSans-Bold-72" x="271.484375"/>
      <use xlink:href="#DejaVuSans-Bold-69" x="320.800781"/>
      <use xlink:href="#DejaVuSans-Bold-6f" x="355.078125"/>
     </g>
    </g>
   </g>
   <g id="legend_1">
    <g id="patch_10">
     <path d="M 576.44625 34.276875 
L 668.4 34.276875 
Q 670.8 34.276875 670.8 31.876875 
L 670.8 15.6 
Q 670.8 13.2 668.4 13.2 
L 576.44625 13.2 
Q 574.04625 13.2 574.04625 15.6 
L 574.04625 31.876875 
Q 574.04625 34.276875 576.44625 34.276875 
z
" style="fill: #ffffff; opacity: 0.8; stroke: #cccccc; stroke-linejoin: miter"/>
    </g>
    <g id="patch_11">
     <path d="M 578.84625 26.4 
L 602.84625 26.4 
L 602.84625 18 
L 578.84625 18 
z
" style="fill: #00008b; stroke-dasharray: 11.1,4.8; stroke-dashoffset: 0; stroke: #00008b; stroke-width: 3; stroke-linejoin: miter"/>
    </g>
    <g id="text_10">
     <!-- Water Flow -->
     <g transform="translate(612.44625 26.4) scale(0.12 -0.12)">
      <defs>
       <path id="Garamond-57" d="M -59 3875 
L -63 3925 
Q -19 3981 184 3981 
L 475 3978 
L 644 3975 
L 719 3978 
Q 1128 3978 1213 3966 
Q 1216 3928 1216 3909 
Q 1216 3881 1209 3828 
L 906 3816 
Q 884 3813 847 3800 
Q 834 3769 834 3753 
Q 834 3734 853 3694 
Q 878 3641 900 3581 
L 1097 3031 
L 1566 1856 
Q 1647 1641 1675 1578 
Q 1763 1381 1897 1028 
Q 1944 906 2122 500 
Q 2131 475 2159 419 
Q 2300 647 2572 1216 
Q 2784 1653 2838 1819 
L 2813 1881 
L 2275 3100 
Q 2169 3328 2109 3463 
Q 1988 3744 1931 3784 
Q 1875 3825 1600 3841 
L 1534 3856 
Q 1509 3884 1509 3922 
Q 1516 3950 1538 3966 
Q 1638 3969 1678 3969 
L 1875 3963 
L 1975 3966 
L 2147 3966 
L 2300 3969 
L 2463 3969 
L 2756 3984 
Q 2784 3984 2841 3981 
L 2891 3984 
Q 2934 3984 2956 3964 
Q 2978 3944 2978 3919 
Q 2978 3897 2966 3869 
Q 2916 3850 2788 3838 
Q 2603 3816 2573 3797 
Q 2544 3778 2544 3747 
Q 2544 3688 2784 3119 
L 3103 2397 
Q 3250 2684 3503 3303 
Q 3609 3559 3609 3681 
Q 3609 3747 3556 3800 
Q 3516 3838 3375 3850 
L 3309 3859 
L 3253 3884 
L 3250 3909 
Q 3250 3928 3266 3963 
Q 3297 3988 3322 3991 
Q 3369 3997 3756 3975 
L 3969 3975 
L 4100 3972 
L 4319 3975 
Q 4344 3972 4394 3959 
Q 4419 3934 4419 3913 
Q 4419 3878 4392 3856 
Q 4366 3834 4272 3819 
Q 4034 3778 3916 3694 
Q 3838 3634 3775 3525 
L 3547 3019 
Q 3466 2788 3413 2672 
Q 3391 2600 3331 2481 
L 3203 2184 
Q 3238 2103 3319 1922 
L 3641 1175 
Q 3663 1125 3770 897 
Q 3878 669 3950 475 
L 3997 625 
L 4003 641 
L 4194 1138 
Q 4294 1366 4394 1619 
L 4634 2225 
L 4997 3256 
Q 5053 3434 5088 3600 
L 5097 3650 
Q 5106 3684 5106 3700 
Q 5106 3744 5062 3780 
Q 5019 3816 4753 3878 
Q 4728 3888 4703 3906 
Q 4694 3944 4694 3966 
L 4697 3988 
Q 4828 3994 4863 3994 
L 5103 3988 
L 5375 3991 
L 5609 3991 
L 5703 3984 
L 5706 3953 
Q 5706 3931 5700 3888 
Q 5475 3800 5420 3762 
Q 5366 3725 5336 3681 
Q 5306 3638 5225 3444 
Q 5216 3425 5028 2881 
Q 4988 2800 4944 2666 
Q 4931 2628 4891 2531 
L 4841 2406 
L 4806 2316 
Q 4600 1747 4353 1125 
L 4016 188 
L 3881 -169 
Q 3831 -175 3806 -175 
Q 3784 -175 3744 -172 
Q 3703 -56 3566 266 
Q 3209 1084 2925 1625 
L 2888 1563 
Q 2728 1259 2503 759 
L 2259 266 
Q 2109 -50 2016 -172 
L 1881 -175 
L 1375 1063 
L 956 2044 
L 588 2975 
Q 550 3066 522 3147 
Q 500 3206 481 3269 
Q 450 3366 306 3709 
Q 250 3800 125 3825 
Q 0 3850 -59 3875 
z
" transform="scale(0.015625)"/>
       <path id="Garamond-61" d="M 2541 425 
Q 2559 384 2559 366 
Q 2559 319 2484 200 
Q 2388 44 2269 -28 
Q 2194 -75 2063 -75 
Q 1838 -75 1725 63 
Q 1656 144 1628 353 
L 1278 109 
Q 1094 3 997 -25 
Q 841 -66 622 -66 
Q 463 -66 370 29 
Q 278 125 278 275 
Q 278 491 542 791 
Q 806 1091 1259 1281 
Q 1578 1416 1650 1453 
Q 1656 1556 1656 1678 
Q 1656 2075 1545 2215 
Q 1434 2356 1228 2356 
Q 1013 2356 825 2188 
Q 709 2081 650 1788 
Q 631 1706 578 1613 
Q 444 1525 363 1525 
Q 294 1525 238 1566 
Q 206 1588 206 1616 
Q 206 1697 379 1983 
Q 553 2269 817 2411 
Q 1081 2553 1278 2553 
Q 1547 2553 1678 2504 
Q 1809 2456 1909 2334 
Q 2009 2213 2031 2069 
Q 2044 2000 2044 1578 
L 2034 1081 
L 2038 719 
Q 2038 647 2034 597 
Q 2031 506 2031 463 
Q 2031 359 2091 297 
Q 2150 234 2231 234 
Q 2350 234 2434 353 
L 2472 403 
Q 2488 413 2541 425 
z
M 1622 516 
Q 1644 913 1644 1075 
Q 1644 1159 1634 1303 
Q 1425 1228 1190 1075 
Q 956 922 819 722 
Q 719 578 719 450 
Q 719 328 801 247 
Q 884 166 1009 166 
Q 1106 166 1244 234 
Q 1425 325 1622 516 
z
" transform="scale(0.015625)"/>
       <path id="Garamond-74" d="M 894 3088 
L 991 3084 
L 1003 2788 
L 997 2403 
Q 1056 2400 1072 2400 
Q 1153 2400 1381 2413 
Q 1528 2422 1663 2422 
Q 1725 2422 1850 2419 
Q 1856 2356 1856 2319 
Q 1856 2278 1838 2191 
L 1784 2191 
L 1300 2175 
L 1059 2169 
L 1003 2163 
Q 978 2084 978 1981 
L 988 1513 
L 981 688 
Q 981 363 1066 256 
Q 1147 147 1309 147 
Q 1391 147 1616 197 
Q 1684 213 1800 300 
L 1828 300 
Q 1856 300 1873 283 
Q 1891 266 1891 238 
L 1888 216 
Q 1753 69 1579 1 
Q 1406 -66 1119 -66 
Q 916 -66 783 28 
Q 650 122 612 250 
Q 575 378 575 809 
L 588 1513 
L 584 1850 
L 584 1975 
Q 584 2063 578 2150 
L 525 2153 
L 269 2144 
L 244 2141 
Q 209 2141 192 2156 
Q 175 2172 175 2194 
Q 175 2231 198 2254 
Q 222 2278 341 2328 
Q 422 2363 530 2458 
Q 638 2553 713 2669 
Q 750 2731 819 2906 
Q 869 3034 894 3088 
z
" transform="scale(0.015625)"/>
       <path id="Garamond-65" d="M 2475 1650 
L 1222 1641 
L 984 1641 
Q 841 1641 691 1628 
Q 663 1534 663 1500 
L 666 1469 
L 666 1438 
L 663 1284 
Q 663 1094 783 817 
Q 903 541 1126 395 
Q 1350 250 1684 241 
Q 1863 250 1969 284 
Q 2075 319 2269 444 
L 2494 628 
L 2513 503 
Q 2513 481 2509 456 
Q 2369 278 2153 143 
Q 1938 9 1716 -53 
Q 1609 -81 1366 -81 
Q 1144 -81 928 9 
Q 609 147 426 451 
Q 244 756 244 1191 
Q 244 1328 295 1543 
Q 347 1759 481 2003 
Q 572 2169 703 2275 
Q 891 2425 1031 2484 
Q 1234 2569 1503 2569 
Q 1794 2569 1978 2463 
Q 2228 2322 2351 2100 
Q 2475 1878 2475 1694 
L 2475 1650 
z
M 731 1763 
L 878 1763 
Q 1038 1763 1828 1813 
Q 1953 1819 1981 1838 
Q 2038 1897 2038 1944 
Q 2038 2041 1975 2164 
Q 1913 2288 1783 2355 
Q 1653 2422 1481 2422 
Q 1119 2422 900 2150 
Q 731 1944 731 1763 
z
" transform="scale(0.015625)"/>
       <path id="Garamond-72" d="M 128 -9 
L 116 31 
Q 116 53 144 97 
L 328 134 
L 588 181 
Q 619 197 631 225 
Q 650 266 650 466 
Q 650 1528 637 1692 
Q 625 1856 581 1900 
Q 538 1944 356 1969 
Q 250 1984 188 2009 
L 200 2103 
Q 528 2238 641 2334 
Q 797 2475 906 2703 
L 1013 2700 
Q 1031 2544 1031 2006 
L 1028 1953 
Q 1028 1934 1034 1894 
Q 1153 2109 1331 2291 
L 1403 2363 
Q 1447 2413 1488 2441 
Q 1706 2572 1813 2572 
Q 1950 2572 2037 2480 
Q 2125 2388 2125 2253 
Q 2125 2147 2063 2088 
Q 1978 2009 1869 2009 
Q 1819 2009 1672 2062 
Q 1525 2116 1478 2116 
Q 1391 2116 1356 2088 
Q 1269 2019 1144 1806 
Q 1047 1647 1047 1513 
L 1063 997 
L 1069 378 
Q 1078 272 1094 241 
Q 1106 219 1156 188 
Q 1494 159 1556 147 
Q 1600 144 1622 141 
Q 1756 138 1809 103 
Q 1838 88 1838 56 
Q 1838 38 1813 6 
L 1466 9 
L 1334 13 
L 1144 9 
L 825 9 
L 653 0 
L 128 -9 
z
" transform="scale(0.015625)"/>
       <path id="Garamond-20" transform="scale(0.015625)"/>
       <path id="Garamond-46" d="M 184 -47 
L 188 31 
Q 256 66 417 92 
Q 578 119 639 145 
Q 700 172 741 216 
Q 769 353 769 713 
L 725 3144 
L 734 3547 
Q 734 3672 689 3719 
Q 644 3766 453 3805 
Q 263 3844 228 3869 
Q 194 3894 194 3922 
Q 194 3938 203 3963 
Q 244 3988 288 3988 
Q 334 3988 478 3981 
L 566 3981 
Q 609 3981 813 3988 
L 1247 3988 
L 2144 4003 
L 3094 4041 
L 3178 4041 
L 3313 4044 
Q 3369 4044 3413 4013 
Q 3431 3963 3434 3941 
L 3431 3816 
L 3459 3256 
Q 3459 3222 3453 3169 
Q 3403 3147 3363 3147 
Q 3334 3147 3319 3166 
Q 3294 3200 3288 3297 
Q 3275 3431 3191 3644 
Q 3150 3744 3056 3781 
Q 2869 3853 2425 3853 
Q 2216 3853 2034 3842 
Q 1853 3831 1813 3831 
L 1569 3834 
Q 1419 3834 1322 3791 
Q 1256 3763 1256 3656 
L 1256 3609 
Q 1266 3450 1266 3256 
L 1256 2406 
Q 1256 2281 1275 2169 
L 1366 2163 
L 1541 2172 
L 2138 2172 
Q 2497 2172 2638 2222 
Q 2731 2256 2778 2325 
Q 2794 2347 2856 2572 
L 2897 2831 
Q 2934 2850 2953 2850 
Q 2969 2850 3003 2834 
Q 3016 2763 3019 2616 
L 3056 1466 
Q 3003 1444 2975 1444 
L 2941 1450 
Q 2891 1763 2784 1941 
Q 2747 2003 2700 2013 
Q 2619 2031 1956 2031 
Q 1750 2031 1672 2028 
Q 1484 2019 1447 2019 
L 1416 2019 
Q 1322 2019 1281 1994 
Q 1269 1956 1269 1941 
L 1269 1725 
Q 1269 1688 1272 1413 
L 1266 378 
Q 1266 334 1291 269 
Q 1356 216 1529 198 
Q 1703 181 1856 116 
Q 1944 75 1944 25 
Q 1944 3 1931 -15 
Q 1919 -34 1888 -44 
Q 1631 9 1178 9 
Q 938 9 669 -34 
Q 484 -63 247 -63 
L 184 -47 
z
" transform="scale(0.015625)"/>
       <path id="Garamond-6c" d="M 163 3872 
L 163 3941 
Q 250 3969 356 4000 
Q 513 4050 819 4153 
L 966 4153 
Q 969 4003 969 3981 
Q 969 1416 953 922 
Q 944 631 944 613 
Q 944 263 972 222 
Q 1009 166 1201 144 
Q 1394 122 1428 100 
Q 1453 88 1453 56 
Q 1453 22 1439 8 
Q 1425 -6 1388 -6 
Q 1366 -6 1059 3 
L 650 16 
L 125 -6 
Q 75 -9 50 13 
Q 31 28 31 56 
Q 31 88 51 102 
Q 72 116 276 150 
Q 481 184 511 207 
Q 541 231 550 313 
Q 563 425 563 947 
L 559 1666 
L 569 2409 
L 566 3153 
L 575 3519 
Q 575 3628 540 3676 
Q 506 3725 394 3772 
Q 225 3841 163 3872 
z
" transform="scale(0.015625)"/>
       <path id="Garamond-6f" d="M 228 1256 
Q 228 1469 317 1711 
Q 406 1953 587 2145 
Q 769 2338 972 2431 
Q 1256 2563 1666 2563 
Q 2250 2563 2642 2163 
Q 3034 1763 3034 1200 
Q 3034 700 2623 308 
Q 2213 -84 1584 -84 
Q 1197 -84 853 119 
Q 597 272 412 572 
Q 228 872 228 1256 
z
M 1609 38 
Q 1847 38 2067 166 
Q 2288 294 2419 576 
Q 2550 859 2550 1231 
Q 2550 1475 2448 1797 
Q 2347 2119 2136 2280 
Q 1925 2441 1641 2441 
Q 1434 2441 1220 2344 
Q 1006 2247 857 1972 
Q 709 1697 709 1191 
Q 709 622 967 330 
Q 1225 38 1609 38 
z
" transform="scale(0.015625)"/>
       <path id="Garamond-77" d="M -66 2463 
L 1134 2459 
Q 1169 2459 1181 2446 
Q 1194 2434 1194 2409 
Q 1194 2350 1147 2322 
Q 928 2306 875 2268 
Q 822 2231 822 2166 
Q 822 2134 828 2106 
Q 838 2069 919 1884 
Q 1025 1638 1297 1084 
L 1669 328 
Q 1988 884 2184 1363 
L 1994 1863 
Q 1963 1931 1914 2068 
Q 1866 2206 1839 2229 
Q 1813 2253 1647 2300 
Q 1481 2347 1450 2372 
L 1447 2394 
Q 1447 2413 1466 2447 
Q 1541 2466 1584 2466 
L 1763 2463 
L 2153 2463 
L 2272 2466 
L 2656 2459 
Q 2703 2459 2734 2463 
L 2788 2463 
Q 2806 2463 2841 2459 
L 2834 2359 
Q 2788 2331 2678 2319 
Q 2472 2297 2363 2241 
Q 2328 2203 2328 2175 
Q 2328 2106 2366 2003 
Q 2378 1972 2431 1809 
L 2766 928 
Q 2913 534 2991 378 
Q 3122 619 3359 1244 
Q 3444 1463 3584 1766 
Q 3675 1956 3675 2094 
Q 3675 2166 3622 2216 
Q 3569 2266 3375 2309 
Q 3259 2334 3203 2356 
Q 3188 2381 3188 2397 
Q 3188 2425 3222 2459 
L 3269 2459 
L 3522 2463 
Q 3538 2463 3666 2458 
Q 3794 2453 3916 2453 
Q 4009 2453 4131 2459 
L 4288 2459 
Q 4306 2453 4314 2443 
Q 4322 2434 4322 2413 
Q 4322 2378 4313 2338 
Q 4159 2319 4071 2267 
Q 3984 2216 3834 1984 
L 3275 641 
Q 3197 453 3003 66 
Q 2963 -16 2942 -66 
Q 2922 -116 2903 -131 
Q 2884 -147 2853 -147 
Q 2831 -147 2794 -134 
Q 2706 38 2406 813 
Q 2325 1022 2256 1169 
Q 1744 103 1584 -141 
Q 1541 -147 1519 -147 
Q 1497 -147 1456 -141 
L 866 1094 
L 325 2150 
Q 269 2247 238 2269 
Q 184 2303 50 2325 
Q -25 2338 -66 2344 
Q -69 2391 -69 2416 
Q -69 2431 -66 2463 
z
" transform="scale(0.015625)"/>
      </defs>
      <use xlink:href="#Garamond-57"/>
      <use xlink:href="#Garamond-61" x="81.025391"/>
      <use xlink:href="#Garamond-74" x="121.650391"/>
      <use xlink:href="#Garamond-65" x="150.800781"/>
      <use xlink:href="#Garamond-72" x="192.451172"/>
      <use xlink:href="#Garamond-20" x="225.800781"/>
      <use xlink:href="#Garamond-46" x="250.800781"/>
      <use xlink:href="#Garamond-6c" x="307.050781"/>
      <use xlink:href="#Garamond-6f" x="329.951172"/>
      <use xlink:href="#Garamond-77" x="379.601562"/>
     </g>
    </g>
   </g>
  </g>
 </g>
 <defs>
  <clipPath id="pcc222c5d55">
   <rect x="7.2" y="7.2" width="669.6" height="554.4"/>
  </clipPath>
 </defs>
</svg>
