<?xml version="1.0" encoding="utf-8" standalone="no"?>
<!DOCTYPE svg PUBLIC "-//W3C//DTD SVG 1.1//EN"
  "http://www.w3.org/Graphics/SVG/1.1/DTD/svg11.dtd">
<svg xmlns:xlink="http://www.w3.org/1999/xlink" width="864pt" height="432pt" viewBox="0 0 864 432" xmlns="http://www.w3.org/2000/svg" version="1.1">
 <metadata>
  <rdf:RDF xmlns:dc="http://purl.org/dc/elements/1.1/" xmlns:cc="http://creativecommons.org/ns#" xmlns:rdf="http://www.w3.org/1999/02/22-rdf-syntax-ns#">
   <cc:Work>
    <dc:type rdf:resource="http://purl.org/dc/dcmitype/StillImage"/>
    <dc:date>2024-12-23T12:53:34.268840</dc:date>
    <dc:format>image/svg+xml</dc:format>
    <dc:creator>
     <cc:Agent>
      <dc:title>Matplotlib v3.9.3, https://matplotlib.org/</dc:title>
     </cc:Agent>
    </dc:creator>
   </cc:Work>
  </rdf:RDF>
 </metadata>
 <defs>
  <style type="text/css">*{stroke-linejoin: round; stroke-linecap: butt}</style>
 </defs>
 <g id="figure_1">
  <g id="patch_1">
   <path d="M 0 432 
L 864 432 
L 864 0 
L 0 0 
z
" style="fill: #ffffff"/>
  </g>
  <g id="axes_1">
   <g id="patch_2">
    <path d="M 672.77 391.48 
L 853.2 391.48 
L 853.2 26.88 
L 672.77 26.88 
z
" style="fill: #ffffff"/>
   </g>
   <g id="patch_3">
    <path d="M 672.77 35.995 
L 844.608095 35.995 
L 844.608095 108.915 
L 672.77 108.915 
z
" clip-path="url(#p9a204243f4)" style="fill: #4a4c7e"/>
   </g>
   <g id="patch_4">
    <path d="M 672.77 127.145 
L 840.481477 127.145 
L 840.481477 200.065 
L 672.77 200.065 
z
" clip-path="url(#p9a204243f4)" style="fill: #367182"/>
   </g>
   <g id="patch_5">
    <path d="M 672.77 218.295 
L 790.363875 218.295 
L 790.363875 291.215 
L 672.77 291.215 
z
" clip-path="url(#p9a204243f4)" style="fill: #33977c"/>
   </g>
   <g id="patch_6">
    <path d="M 672.77 309.445 
L 780.353431 309.445 
L 780.353431 382.365 
L 672.77 382.365 
z
" clip-path="url(#p9a204243f4)" style="fill: #80c161"/>
   </g>
   <g id="matplotlib.axis_1">
    <g id="xtick_1">
     <g id="line2d_1">
      <defs>
       <path id="m15dfe19447" d="M 0 0 
L 0 3.5 
" style="stroke: #000000; stroke-width: 0.8"/>
      </defs>
      <g>
       <use xlink:href="#m15dfe19447" x="672.77" y="391.48" style="stroke: #000000; stroke-width: 0.8"/>
      </g>
     </g>
     <g id="text_1">
      <!-- 0.00 -->
      <g transform="translate(664.645 404.969063) scale(0.1 -0.1)">
       <defs>
        <path id="Garamond-30" d="M 2800 1972 
Q 2800 1650 2753 1400 
Q 2669 969 2519 678 
Q 2369 388 2163 188 
Q 2013 41 1844 -26 
Q 1675 -94 1500 -94 
Q 1191 -94 914 112 
Q 638 319 431 794 
Q 225 1269 225 1913 
Q 225 2416 350 2878 
Q 475 3341 679 3595 
Q 884 3850 1086 3962 
Q 1288 4075 1525 4075 
Q 1859 4075 2173 3812 
Q 2488 3550 2675 2997 
Q 2800 2625 2800 1972 
z
M 2331 2075 
Q 2328 2844 2275 3119 
Q 2188 3572 1989 3753 
Q 1791 3934 1525 3934 
Q 1303 3934 1104 3790 
Q 906 3647 831 3341 
Q 703 2844 703 1834 
Q 703 834 901 436 
Q 1100 38 1497 38 
Q 1769 38 1967 206 
Q 2166 375 2252 833 
Q 2338 1291 2334 1859 
L 2331 2075 
z
" transform="scale(0.015625)"/>
        <path id="Garamond-2e" d="M 375 253 
Q 375 391 476 494 
Q 578 597 713 597 
Q 844 597 934 500 
Q 1025 403 1025 256 
Q 1025 109 929 9 
Q 834 -91 700 -91 
Q 569 -91 472 11 
Q 375 113 375 253 
z
" transform="scale(0.015625)"/>
       </defs>
       <use xlink:href="#Garamond-30"/>
       <use xlink:href="#Garamond-2e" x="46.875"/>
       <use xlink:href="#Garamond-30" x="68.75"/>
       <use xlink:href="#Garamond-30" x="115.625"/>
      </g>
     </g>
    </g>
    <g id="xtick_2">
     <g id="line2d_2">
      <g>
       <use xlink:href="#m15dfe19447" x="725.656755" y="391.48" style="stroke: #000000; stroke-width: 0.8"/>
      </g>
     </g>
     <g id="text_2">
      <!-- 0.05 -->
      <g transform="translate(717.531755 404.969063) scale(0.1 -0.1)">
       <defs>
        <path id="Garamond-35" d="M 2369 3606 
Q 2019 3578 1803 3578 
Q 1644 3578 1466 3588 
Q 1369 3594 1350 3594 
Q 969 3594 941 3578 
Q 928 3572 925 3550 
Q 916 3500 844 2434 
Q 984 2506 1115 2536 
Q 1247 2566 1463 2566 
Q 1616 2566 1675 2547 
Q 1972 2450 2103 2372 
Q 2284 2259 2398 2115 
Q 2513 1972 2609 1694 
Q 2678 1494 2678 1275 
Q 2678 1038 2611 833 
Q 2544 628 2444 490 
Q 2344 353 2147 204 
Q 1950 56 1683 -22 
Q 1416 -100 1325 -103 
L 872 -63 
Q 684 -31 543 39 
Q 403 109 356 175 
Q 328 216 328 281 
Q 328 331 398 390 
Q 469 450 572 450 
Q 619 450 675 422 
L 922 263 
Q 1006 188 1131 122 
Q 1150 113 1225 100 
Q 1406 75 1422 75 
Q 1491 75 1656 131 
Q 1822 188 1962 323 
Q 2103 459 2204 667 
Q 2306 875 2306 1128 
Q 2306 1581 2022 1875 
Q 1738 2169 1338 2169 
Q 1159 2169 1007 2109 
Q 856 2050 803 1978 
L 756 1959 
Q 719 1944 703 1944 
L 663 1953 
Q 653 2009 653 2038 
Q 653 2063 663 2125 
Q 684 2278 686 2442 
Q 688 2606 719 2738 
L 709 2888 
Q 731 3003 734 3109 
Q 744 3828 794 3934 
Q 816 3984 869 3984 
Q 891 3984 941 3978 
L 959 3975 
L 1356 3978 
Q 1625 3963 1753 3963 
Q 2047 3963 2225 4003 
Q 2313 4084 2359 4084 
Q 2378 4084 2428 4078 
L 2438 4041 
L 2413 3909 
L 2397 3700 
Q 2394 3678 2369 3606 
z
" transform="scale(0.015625)"/>
       </defs>
       <use xlink:href="#Garamond-30"/>
       <use xlink:href="#Garamond-2e" x="46.875"/>
       <use xlink:href="#Garamond-30" x="68.75"/>
       <use xlink:href="#Garamond-35" x="115.625"/>
      </g>
     </g>
    </g>
    <g id="xtick_3">
     <g id="line2d_3">
      <g>
       <use xlink:href="#m15dfe19447" x="778.543509" y="391.48" style="stroke: #000000; stroke-width: 0.8"/>
      </g>
     </g>
     <g id="text_3">
      <!-- 0.10 -->
      <g transform="translate(770.418509 404.969063) scale(0.1 -0.1)">
       <defs>
        <path id="Garamond-31" d="M 2269 6 
L 838 6 
Q 834 34 834 53 
Q 834 106 856 126 
Q 878 147 994 169 
Q 1175 206 1288 259 
Q 1319 328 1319 388 
L 1319 581 
Q 1319 616 1328 897 
Q 1331 1003 1334 1816 
L 1341 2550 
L 1334 2978 
Q 1334 3072 1341 3569 
Q 631 3063 563 3063 
Q 538 3063 509 3089 
Q 481 3116 481 3141 
Q 481 3172 503 3191 
Q 547 3231 713 3325 
Q 738 3338 928 3494 
Q 1231 3747 1372 3890 
Q 1513 4034 1544 4053 
Q 1606 4056 1641 4056 
Q 1722 4056 1742 4029 
Q 1763 4003 1763 3838 
L 1741 1053 
L 1741 778 
Q 1741 678 1737 576 
Q 1734 475 1734 428 
Q 1734 316 1763 281 
Q 1781 259 1878 225 
L 2091 181 
Q 2228 147 2241 134 
Q 2272 106 2272 47 
L 2269 6 
z
" transform="scale(0.015625)"/>
       </defs>
       <use xlink:href="#Garamond-30"/>
       <use xlink:href="#Garamond-2e" x="46.875"/>
       <use xlink:href="#Garamond-31" x="68.75"/>
       <use xlink:href="#Garamond-30" x="115.625"/>
      </g>
     </g>
    </g>
    <g id="xtick_4">
     <g id="line2d_4">
      <g>
       <use xlink:href="#m15dfe19447" x="831.430264" y="391.48" style="stroke: #000000; stroke-width: 0.8"/>
      </g>
     </g>
     <g id="text_4">
      <!-- 0.15 -->
      <g transform="translate(823.305264 404.969063) scale(0.1 -0.1)">
       <use xlink:href="#Garamond-30"/>
       <use xlink:href="#Garamond-2e" x="46.875"/>
       <use xlink:href="#Garamond-31" x="68.75"/>
       <use xlink:href="#Garamond-35" x="115.625"/>
      </g>
     </g>
    </g>
    <g id="text_5">
     <!-- Relevance Score -->
     <g transform="translate(731.645938 418.022188) scale(0.1 -0.1)">
      <defs>
       <path id="Garamond-52" d="M 175 94 
Q 631 147 691 169 
Q 731 184 766 263 
L 766 297 
Q 766 375 791 863 
Q 797 1000 797 1131 
L 788 1503 
L 794 1925 
L 791 2709 
L 794 3272 
Q 797 3628 739 3706 
Q 681 3784 440 3817 
Q 200 3850 175 3865 
Q 150 3881 150 3916 
Q 150 3938 159 3972 
Q 191 4000 303 4003 
Q 319 4003 389 4011 
Q 459 4019 522 4019 
L 778 4019 
L 1600 4028 
Q 2297 4028 2576 3925 
Q 2856 3822 3022 3576 
Q 3188 3331 3188 3028 
Q 3188 2453 2584 2150 
Q 2481 2097 2422 2056 
Q 2528 1831 2719 1516 
L 3116 834 
Q 3353 459 3443 364 
Q 3534 269 3664 206 
Q 3794 144 4100 88 
Q 4103 56 4103 38 
Q 4103 19 4100 -9 
Q 3672 -16 3097 -16 
Q 3056 -16 2984 -9 
Q 2763 416 2463 925 
L 2000 1769 
Q 1906 1900 1845 1933 
Q 1784 1966 1684 1966 
L 1419 1963 
L 1331 1966 
Q 1322 1866 1322 1556 
L 1322 488 
Q 1319 428 1347 322 
Q 1372 263 1433 227 
Q 1494 191 1784 119 
L 1913 88 
Q 1938 56 1938 3 
Q 1853 -13 1819 -13 
Q 1538 -13 1422 -6 
Q 1363 -3 1325 -3 
L 900 -9 
L 484 -6 
Q 456 -6 200 -16 
L 138 -3 
L 131 28 
Q 131 56 175 94 
z
M 1338 2138 
Q 1422 2134 1463 2134 
Q 1688 2134 1981 2188 
Q 2188 2228 2316 2320 
Q 2444 2413 2530 2594 
Q 2616 2775 2616 2969 
Q 2616 3181 2481 3419 
Q 2378 3600 2133 3722 
Q 1888 3844 1544 3844 
Q 1459 3844 1325 3834 
Q 1313 3672 1313 3584 
L 1328 3000 
L 1325 2759 
Q 1325 2516 1338 2138 
z
" transform="scale(0.015625)"/>
       <path id="Garamond-65" d="M 2475 1650 
L 1222 1641 
L 984 1641 
Q 841 1641 691 1628 
Q 663 1534 663 1500 
L 666 1469 
L 666 1438 
L 663 1284 
Q 663 1094 783 817 
Q 903 541 1126 395 
Q 1350 250 1684 241 
Q 1863 250 1969 284 
Q 2075 319 2269 444 
L 2494 628 
L 2513 503 
Q 2513 481 2509 456 
Q 2369 278 2153 143 
Q 1938 9 1716 -53 
Q 1609 -81 1366 -81 
Q 1144 -81 928 9 
Q 609 147 426 451 
Q 244 756 244 1191 
Q 244 1328 295 1543 
Q 347 1759 481 2003 
Q 572 2169 703 2275 
Q 891 2425 1031 2484 
Q 1234 2569 1503 2569 
Q 1794 2569 1978 2463 
Q 2228 2322 2351 2100 
Q 2475 1878 2475 1694 
L 2475 1650 
z
M 731 1763 
L 878 1763 
Q 1038 1763 1828 1813 
Q 1953 1819 1981 1838 
Q 2038 1897 2038 1944 
Q 2038 2041 1975 2164 
Q 1913 2288 1783 2355 
Q 1653 2422 1481 2422 
Q 1119 2422 900 2150 
Q 731 1944 731 1763 
z
" transform="scale(0.015625)"/>
       <path id="Garamond-6c" d="M 163 3872 
L 163 3941 
Q 250 3969 356 4000 
Q 513 4050 819 4153 
L 966 4153 
Q 969 4003 969 3981 
Q 969 1416 953 922 
Q 944 631 944 613 
Q 944 263 972 222 
Q 1009 166 1201 144 
Q 1394 122 1428 100 
Q 1453 88 1453 56 
Q 1453 22 1439 8 
Q 1425 -6 1388 -6 
Q 1366 -6 1059 3 
L 650 16 
L 125 -6 
Q 75 -9 50 13 
Q 31 28 31 56 
Q 31 88 51 102 
Q 72 116 276 150 
Q 481 184 511 207 
Q 541 231 550 313 
Q 563 425 563 947 
L 559 1666 
L 569 2409 
L 566 3153 
L 575 3519 
Q 575 3628 540 3676 
Q 506 3725 394 3772 
Q 225 3841 163 3872 
z
" transform="scale(0.015625)"/>
       <path id="Garamond-76" d="M -34 2481 
Q 313 2478 572 2459 
Q 756 2459 841 2466 
Q 900 2469 916 2469 
L 1266 2466 
Q 1338 2453 1381 2450 
Q 1400 2444 1416 2416 
Q 1416 2384 1397 2350 
Q 1344 2334 1288 2331 
Q 1053 2306 894 2259 
Q 872 2244 872 2228 
Q 872 2197 903 2131 
Q 909 2116 931 2056 
L 1244 1306 
Q 1453 791 1631 438 
Q 1753 669 1856 916 
Q 1959 1163 2159 1694 
Q 2216 1844 2266 2066 
Q 2275 2109 2275 2141 
Q 2275 2178 2233 2223 
Q 2191 2269 2091 2297 
Q 2069 2300 1806 2344 
Q 1784 2356 1766 2378 
L 1766 2403 
Q 1766 2419 1769 2444 
Q 1844 2453 1878 2453 
L 2247 2450 
Q 2284 2450 2425 2459 
Q 2922 2459 3022 2450 
Q 3041 2444 3056 2413 
Q 3056 2384 3038 2350 
L 2941 2325 
Q 2903 2322 2881 2319 
Q 2613 2294 2550 2244 
Q 2503 2209 2403 1922 
Q 2356 1781 2266 1566 
L 2103 1172 
Q 2069 1088 2028 988 
L 1544 -131 
L 1450 -131 
Q 1422 -56 1381 25 
L 1144 528 
L 584 1838 
Q 416 2219 381 2250 
Q 347 2281 -19 2381 
Q -38 2431 -38 2453 
L -34 2481 
z
" transform="scale(0.015625)"/>
       <path id="Garamond-61" d="M 2541 425 
Q 2559 384 2559 366 
Q 2559 319 2484 200 
Q 2388 44 2269 -28 
Q 2194 -75 2063 -75 
Q 1838 -75 1725 63 
Q 1656 144 1628 353 
L 1278 109 
Q 1094 3 997 -25 
Q 841 -66 622 -66 
Q 463 -66 370 29 
Q 278 125 278 275 
Q 278 491 542 791 
Q 806 1091 1259 1281 
Q 1578 1416 1650 1453 
Q 1656 1556 1656 1678 
Q 1656 2075 1545 2215 
Q 1434 2356 1228 2356 
Q 1013 2356 825 2188 
Q 709 2081 650 1788 
Q 631 1706 578 1613 
Q 444 1525 363 1525 
Q 294 1525 238 1566 
Q 206 1588 206 1616 
Q 206 1697 379 1983 
Q 553 2269 817 2411 
Q 1081 2553 1278 2553 
Q 1547 2553 1678 2504 
Q 1809 2456 1909 2334 
Q 2009 2213 2031 2069 
Q 2044 2000 2044 1578 
L 2034 1081 
L 2038 719 
Q 2038 647 2034 597 
Q 2031 506 2031 463 
Q 2031 359 2091 297 
Q 2150 234 2231 234 
Q 2350 234 2434 353 
L 2472 403 
Q 2488 413 2541 425 
z
M 1622 516 
Q 1644 913 1644 1075 
Q 1644 1159 1634 1303 
Q 1425 1228 1190 1075 
Q 956 922 819 722 
Q 719 578 719 450 
Q 719 328 801 247 
Q 884 166 1009 166 
Q 1106 166 1244 234 
Q 1425 325 1622 516 
z
" transform="scale(0.015625)"/>
       <path id="Garamond-6e" d="M 119 100 
Q 197 122 300 138 
Q 497 166 536 203 
Q 575 241 575 375 
L 581 488 
Q 584 550 584 647 
L 578 1606 
Q 578 1800 528 1856 
Q 444 1944 216 1978 
L 216 2091 
Q 444 2153 566 2253 
Q 744 2394 866 2634 
L 972 2631 
Q 981 2484 981 2422 
L 981 2216 
L 984 2159 
Q 1022 2184 1072 2222 
Q 1259 2363 1456 2452 
Q 1653 2541 1806 2575 
Q 1903 2600 2025 2600 
Q 2281 2600 2465 2462 
Q 2650 2325 2704 2139 
Q 2759 1953 2759 1400 
L 2759 928 
Q 2759 909 2754 803 
Q 2750 697 2750 559 
Q 2750 341 2769 281 
Q 2784 241 2850 200 
Q 3150 159 3200 103 
L 3200 78 
Q 3200 47 3181 0 
L 3122 0 
L 2709 3 
L 2303 -3 
Q 2078 -9 1888 0 
L 1869 66 
Q 1869 84 1891 116 
Q 1975 153 2128 166 
Q 2219 172 2253 184 
Q 2288 197 2338 234 
Q 2375 309 2375 359 
Q 2375 381 2369 447 
Q 2359 591 2356 1163 
L 2356 1325 
L 2363 1575 
Q 2363 1978 2200 2131 
Q 2038 2284 1766 2284 
Q 1556 2284 1356 2192 
Q 1156 2100 969 1916 
Q 963 1766 963 1659 
L 972 969 
Q 972 428 988 306 
Q 994 256 1009 238 
Q 1034 213 1109 197 
Q 1184 181 1282 153 
Q 1381 125 1413 119 
Q 1475 103 1497 56 
L 1494 -6 
L 1166 -6 
L 491 3 
Q 256 -3 194 -3 
L 116 -3 
L 109 38 
Q 109 59 119 100 
z
" transform="scale(0.015625)"/>
       <path id="Garamond-63" d="M 2497 572 
L 2500 369 
Q 2256 109 2018 6 
Q 1781 -97 1459 -97 
Q 1109 -97 828 86 
Q 547 269 395 603 
Q 244 938 244 1259 
Q 244 1613 426 1927 
Q 609 2241 911 2395 
Q 1213 2550 1669 2550 
Q 2106 2550 2334 2400 
Q 2463 2313 2463 2175 
Q 2463 2075 2397 2009 
Q 2331 1944 2228 1944 
Q 2072 1944 1884 2138 
Q 1769 2256 1675 2301 
Q 1581 2347 1466 2347 
Q 1188 2347 1003 2119 
Q 747 1794 747 1303 
Q 747 797 1009 497 
Q 1272 197 1622 197 
Q 1866 197 2055 276 
Q 2244 356 2497 572 
z
" transform="scale(0.015625)"/>
       <path id="Garamond-20" transform="scale(0.015625)"/>
       <path id="Garamond-53" d="M 2484 3856 
Q 2509 3650 2509 3619 
L 2497 3341 
Q 2491 3163 2481 3113 
Q 2453 3100 2434 3100 
L 2406 3106 
Q 2306 3544 2067 3744 
Q 1828 3944 1484 3944 
Q 1128 3944 900 3744 
Q 672 3544 672 3278 
Q 672 3075 831 2906 
Q 991 2738 1647 2400 
Q 2147 2141 2362 1977 
Q 2578 1813 2687 1597 
Q 2797 1381 2797 1116 
Q 2797 781 2623 487 
Q 2450 194 2156 45 
Q 1863 -103 1378 -103 
Q 956 -103 569 31 
Q 341 113 291 163 
Q 241 213 241 269 
Q 241 303 247 356 
Q 291 725 294 963 
Q 300 1109 316 1134 
Q 328 1156 363 1156 
Q 391 1156 408 1136 
Q 425 1116 431 1059 
Q 466 675 788 372 
Q 1106 69 1509 69 
Q 1756 69 1964 172 
Q 2172 275 2289 470 
Q 2406 666 2406 850 
Q 2406 1103 2228 1313 
Q 2050 1522 1512 1801 
Q 975 2081 813 2209 
Q 550 2419 419 2653 
Q 322 2834 322 3075 
Q 322 3509 665 3811 
Q 1009 4113 1588 4113 
Q 1906 4113 2138 4041 
Q 2306 3984 2484 3856 
z
" transform="scale(0.015625)"/>
       <path id="Garamond-6f" d="M 228 1256 
Q 228 1469 317 1711 
Q 406 1953 587 2145 
Q 769 2338 972 2431 
Q 1256 2563 1666 2563 
Q 2250 2563 2642 2163 
Q 3034 1763 3034 1200 
Q 3034 700 2623 308 
Q 2213 -84 1584 -84 
Q 1197 -84 853 119 
Q 597 272 412 572 
Q 228 872 228 1256 
z
M 1609 38 
Q 1847 38 2067 166 
Q 2288 294 2419 576 
Q 2550 859 2550 1231 
Q 2550 1475 2448 1797 
Q 2347 2119 2136 2280 
Q 1925 2441 1641 2441 
Q 1434 2441 1220 2344 
Q 1006 2247 857 1972 
Q 709 1697 709 1191 
Q 709 622 967 330 
Q 1225 38 1609 38 
z
" transform="scale(0.015625)"/>
       <path id="Garamond-72" d="M 128 -9 
L 116 31 
Q 116 53 144 97 
L 328 134 
L 588 181 
Q 619 197 631 225 
Q 650 266 650 466 
Q 650 1528 637 1692 
Q 625 1856 581 1900 
Q 538 1944 356 1969 
Q 250 1984 188 2009 
L 200 2103 
Q 528 2238 641 2334 
Q 797 2475 906 2703 
L 1013 2700 
Q 1031 2544 1031 2006 
L 1028 1953 
Q 1028 1934 1034 1894 
Q 1153 2109 1331 2291 
L 1403 2363 
Q 1447 2413 1488 2441 
Q 1706 2572 1813 2572 
Q 1950 2572 2037 2480 
Q 2125 2388 2125 2253 
Q 2125 2147 2063 2088 
Q 1978 2009 1869 2009 
Q 1819 2009 1672 2062 
Q 1525 2116 1478 2116 
Q 1391 2116 1356 2088 
Q 1269 2019 1144 1806 
Q 1047 1647 1047 1513 
L 1063 997 
L 1069 378 
Q 1078 272 1094 241 
Q 1106 219 1156 188 
Q 1494 159 1556 147 
Q 1600 144 1622 141 
Q 1756 138 1809 103 
Q 1838 88 1838 56 
Q 1838 38 1813 6 
L 1466 9 
L 1334 13 
L 1144 9 
L 825 9 
L 653 0 
L 128 -9 
z
" transform="scale(0.015625)"/>
      </defs>
      <use xlink:href="#Garamond-52"/>
      <use xlink:href="#Garamond-65" x="60"/>
      <use xlink:href="#Garamond-6c" x="101.650391"/>
      <use xlink:href="#Garamond-65" x="124.550781"/>
      <use xlink:href="#Garamond-76" x="166.201172"/>
      <use xlink:href="#Garamond-61" x="211.201172"/>
      <use xlink:href="#Garamond-6e" x="251.826172"/>
      <use xlink:href="#Garamond-63" x="302.851562"/>
      <use xlink:href="#Garamond-65" x="344.501953"/>
      <use xlink:href="#Garamond-20" x="386.152344"/>
      <use xlink:href="#Garamond-53" x="411.152344"/>
      <use xlink:href="#Garamond-63" x="459.052734"/>
      <use xlink:href="#Garamond-6f" x="500.703125"/>
      <use xlink:href="#Garamond-72" x="551.728516"/>
      <use xlink:href="#Garamond-65" x="585.078125"/>
     </g>
    </g>
   </g>
   <g id="matplotlib.axis_2">
    <g id="ytick_1">
     <g id="line2d_5">
      <defs>
       <path id="m8002c57c9f" d="M 0 0 
L -3.5 0 
" style="stroke: #000000; stroke-width: 0.8"/>
      </defs>
      <g>
       <use xlink:href="#m8002c57c9f" x="672.77" y="72.455" style="stroke: #000000; stroke-width: 0.8"/>
      </g>
     </g>
     <g id="text_6">
      <!-- Screening for alien and harmful planktonic species in the Gulf of Gabes (Tunisia, Southeastern Mediterranean Sea) -->
      <g transform="translate(218.845 75.74875) scale(0.1 -0.1)">
       <defs>
        <path id="Garamond-69" d="M 444 3841 
Q 444 3944 523 4019 
Q 603 4094 716 4094 
Q 831 4094 918 4009 
Q 1006 3925 1006 3828 
Q 1006 3731 918 3645 
Q 831 3559 716 3559 
Q 600 3559 522 3637 
Q 444 3716 444 3841 
z
M 181 2222 
L 184 2313 
Q 388 2372 403 2381 
Q 516 2431 639 2534 
Q 763 2638 847 2766 
Q 884 2772 906 2772 
L 944 2769 
Q 956 2619 956 2550 
Q 956 2534 950 2409 
L 950 2244 
L 953 1344 
L 944 391 
Q 941 275 981 229 
Q 1022 184 1222 128 
Q 1347 94 1409 69 
Q 1419 47 1419 31 
Q 1419 13 1403 -16 
Q 1281 -13 1091 0 
Q 831 22 747 22 
Q 706 22 247 6 
Q 153 3 66 -9 
Q 50 -9 16 0 
Q 0 22 0 38 
Q 0 81 59 106 
Q 72 113 378 178 
Q 478 197 509 241 
Q 563 306 563 450 
Q 569 691 569 1769 
Q 569 1984 550 2038 
Q 534 2075 467 2123 
Q 400 2172 181 2222 
z
" transform="scale(0.015625)"/>
        <path id="Garamond-67" d="M 844 -206 
Q 806 -188 603 -103 
Q 366 50 303 125 
Q 241 200 241 291 
Q 241 372 288 422 
Q 356 494 559 559 
Q 763 625 894 688 
Q 853 716 766 769 
Q 300 1056 300 1566 
Q 300 1984 595 2273 
Q 891 2563 1353 2563 
Q 1563 2563 1738 2503 
Q 1838 2472 2034 2347 
Q 2159 2269 2181 2259 
Q 2231 2244 2294 2244 
Q 2347 2244 2551 2270 
Q 2756 2297 2794 2297 
Q 2866 2297 2913 2269 
Q 2950 2206 2950 2059 
Q 2950 2009 2923 1984 
Q 2897 1959 2847 1959 
Q 2759 1959 2557 2014 
Q 2356 2069 2313 2069 
Q 2297 2069 2253 2063 
Q 2388 1794 2388 1572 
Q 2388 1350 2247 1112 
Q 2106 875 1859 750 
Q 1613 625 1359 625 
Q 1341 625 1253 628 
Q 966 628 725 484 
Q 609 413 609 350 
Q 609 284 722 222 
Q 1019 63 1847 38 
Q 2206 25 2406 -65 
Q 2606 -156 2707 -332 
Q 2809 -509 2809 -697 
Q 2809 -950 2637 -1165 
Q 2466 -1381 2116 -1515 
Q 1766 -1650 1313 -1650 
Q 813 -1650 541 -1528 
Q 269 -1406 155 -1262 
Q 41 -1119 41 -978 
Q 41 -856 166 -673 
Q 291 -491 684 -291 
Q 800 -231 844 -206 
z
M 719 1578 
Q 719 1297 803 1108 
Q 888 919 1034 826 
Q 1181 734 1331 734 
Q 1603 734 1783 942 
Q 1963 1150 1963 1575 
Q 1963 2003 1775 2226 
Q 1588 2450 1322 2450 
Q 1025 2450 872 2237 
Q 719 2025 719 1578 
z
M 616 -1316 
Q 900 -1534 1334 -1534 
Q 1644 -1534 1951 -1436 
Q 2259 -1338 2401 -1155 
Q 2544 -972 2544 -809 
Q 2544 -709 2494 -611 
Q 2444 -513 2358 -448 
Q 2272 -384 2131 -347 
Q 2031 -319 1847 -306 
Q 1322 -266 1203 -266 
Q 869 -266 606 -491 
Q 403 -666 403 -909 
Q 403 -1134 616 -1316 
z
" transform="scale(0.015625)"/>
        <path id="Garamond-66" d="M 1150 2434 
Q 1928 2416 1978 2416 
Q 1984 2347 1984 2313 
Q 1984 2272 1975 2191 
Q 1897 2178 1816 2178 
L 1697 2178 
Q 1309 2178 1159 2150 
Q 1153 2078 1153 2041 
Q 1153 2025 1156 1994 
Q 1172 1503 1172 1400 
L 1166 597 
Q 1166 419 1225 300 
Q 1259 231 1353 191 
Q 1413 163 1641 134 
Q 1813 109 1872 100 
Q 1872 34 1863 0 
L 1819 -3 
Q 1669 6 1428 13 
L 1197 22 
L 409 -3 
L 306 -3 
L 303 94 
Q 350 103 372 109 
Q 641 159 719 222 
Q 750 247 763 313 
Q 769 350 769 663 
Q 769 1553 753 2084 
Q 672 2109 503 2116 
Q 441 2116 306 2128 
L 300 2163 
Q 300 2200 331 2225 
Q 344 2238 594 2356 
Q 691 2400 731 2466 
Q 753 2500 756 2609 
Q 759 2659 775 2781 
Q 813 3103 834 3178 
Q 891 3388 1023 3595 
Q 1156 3803 1344 3959 
Q 1481 4072 1654 4128 
Q 1828 4184 2050 4184 
Q 2347 4184 2484 4088 
Q 2578 4022 2578 3919 
Q 2578 3831 2512 3768 
Q 2447 3706 2350 3706 
Q 2231 3706 2094 3766 
Q 1834 3869 1800 3878 
Q 1741 3894 1678 3894 
Q 1506 3894 1364 3784 
Q 1222 3675 1184 3515 
Q 1147 3356 1147 2800 
Q 1147 2600 1150 2434 
z
" transform="scale(0.015625)"/>
        <path id="Garamond-64" d="M 2281 2269 
L 2284 2359 
L 2281 2725 
L 2284 3416 
Q 2284 3703 2221 3781 
Q 2159 3859 1856 3941 
Q 1834 3947 1788 3959 
L 1788 3994 
Q 1788 4025 1794 4063 
Q 2219 4106 2525 4209 
L 2684 4213 
Q 2697 4000 2697 3738 
L 2684 2534 
L 2706 1178 
L 2697 456 
Q 2697 234 2728 206 
Q 2791 144 3003 141 
Q 3047 141 3122 134 
L 3122 78 
Q 3122 56 3119 31 
Q 3022 9 2919 -9 
L 2466 -97 
Q 2366 -116 2306 -116 
L 2306 184 
Q 2253 169 2141 122 
Q 1653 -84 1244 -84 
Q 997 -84 740 77 
Q 484 238 346 525 
Q 209 813 209 1113 
Q 209 1381 300 1626 
Q 391 1872 538 2034 
Q 631 2141 803 2245 
Q 975 2350 1088 2378 
Q 1366 2450 1459 2450 
Q 1881 2450 2153 2325 
Q 2238 2284 2281 2269 
z
M 2284 338 
Q 2297 547 2297 1200 
Q 2297 1753 2245 1898 
Q 2194 2044 1987 2173 
Q 1781 2303 1525 2303 
Q 1166 2303 916 2025 
Q 666 1747 666 1203 
Q 666 725 936 440 
Q 1206 156 1609 156 
Q 1841 156 2031 218 
Q 2222 281 2284 338 
z
" transform="scale(0.015625)"/>
        <path id="Garamond-68" d="M 119 75 
Q 484 141 541 175 
Q 575 197 575 275 
L 572 481 
L 575 847 
L 569 1778 
L 572 2125 
L 572 2372 
L 581 2675 
Q 581 3388 567 3527 
Q 553 3666 513 3700 
Q 438 3772 100 3850 
L 100 3866 
Q 100 3888 106 3928 
Q 150 3934 190 3943 
Q 231 3953 269 3956 
Q 641 4063 809 4163 
L 963 4163 
Q 969 4075 969 3609 
L 966 3213 
L 969 2700 
L 956 2069 
Q 956 2013 963 1944 
Q 1159 2172 1250 2247 
Q 1413 2378 1597 2454 
Q 1781 2531 1984 2531 
Q 2369 2531 2613 2206 
Q 2753 2016 2753 1666 
L 2744 1347 
L 2747 1169 
L 2734 859 
Q 2722 475 2722 403 
Q 2722 322 2728 184 
L 2906 144 
Q 3084 106 3181 75 
L 3178 -22 
L 2513 -3 
Q 2456 -3 2206 -16 
Q 2053 -22 2028 -22 
L 1959 -22 
Q 1944 6 1944 25 
L 1944 53 
Q 1988 109 2106 128 
L 2294 172 
Q 2331 203 2338 238 
Q 2350 319 2366 1044 
L 2372 1275 
Q 2384 1641 2316 1881 
Q 2272 2047 2117 2145 
Q 1963 2244 1759 2244 
Q 1591 2244 1441 2172 
Q 1338 2119 1194 1987 
Q 1050 1856 994 1763 
Q 956 1700 956 1556 
L 959 1338 
L 953 1109 
Q 953 1081 963 719 
L 959 519 
L 966 300 
Q 969 253 975 231 
L 1416 125 
Q 1450 116 1519 88 
L 1528 53 
Q 1528 38 1513 3 
Q 1422 0 1375 0 
L 1131 3 
L 594 -3 
L 191 -16 
Q 159 -13 97 -9 
L 94 13 
Q 94 38 119 75 
z
" transform="scale(0.015625)"/>
        <path id="Garamond-6d" d="M 125 109 
Q 175 144 263 156 
Q 388 172 456 206 
Q 513 253 531 341 
Q 553 453 553 1131 
Q 553 1797 513 1991 
Q 444 2034 334 2059 
Q 300 2066 191 2094 
L 191 2197 
Q 375 2250 489 2334 
Q 603 2419 806 2672 
L 825 2672 
Q 844 2672 884 2675 
Q 909 2672 925 2659 
L 922 2303 
Q 922 2194 928 2069 
Q 1263 2372 1528 2494 
Q 1709 2575 1938 2575 
Q 2209 2575 2368 2472 
Q 2528 2369 2672 2100 
Q 2950 2375 3176 2484 
Q 3403 2594 3634 2594 
Q 3984 2594 4209 2366 
Q 4431 2134 4438 1688 
L 4438 1428 
L 4441 1144 
L 4438 413 
Q 4434 284 4494 219 
Q 4519 209 4684 163 
Q 4788 134 4806 118 
Q 4825 103 4825 75 
Q 4825 41 4806 -6 
L 4784 -6 
L 4469 13 
Q 4413 16 4291 16 
Q 4141 16 3872 3 
L 3713 3 
Q 3678 3 3578 0 
Q 3575 28 3575 50 
Q 3575 75 3597 113 
Q 3681 150 3828 173 
Q 3975 197 4011 258 
Q 4047 319 4047 744 
Q 4047 1666 4025 1813 
Q 3988 2047 3827 2180 
Q 3666 2313 3422 2313 
Q 3234 2313 3056 2214 
Q 2878 2116 2706 1919 
L 2703 1844 
L 2703 1366 
L 2691 994 
Q 2691 425 2702 347 
Q 2713 269 2755 233 
Q 2797 197 3000 169 
Q 3091 156 3141 144 
Q 3178 113 3178 63 
Q 3178 22 3150 6 
L 3097 6 
L 2941 9 
L 2031 9 
L 1781 6 
Q 1775 53 1775 75 
L 1778 113 
Q 1847 150 2034 184 
Q 2131 200 2234 238 
Q 2253 253 2263 278 
Q 2278 322 2284 528 
L 2300 891 
L 2294 1300 
L 2297 1528 
Q 2297 1913 2140 2089 
Q 1984 2266 1747 2266 
Q 1525 2266 1301 2156 
Q 1078 2047 931 1863 
Q 928 1775 928 1703 
L 941 653 
Q 944 309 980 261 
Q 1016 213 1141 194 
Q 1341 166 1400 125 
Q 1428 106 1428 69 
Q 1428 44 1425 9 
Q 1069 34 947 34 
Q 822 34 722 31 
L 566 22 
L 469 22 
L 119 9 
Q 113 31 113 47 
Q 113 63 125 109 
z
" transform="scale(0.015625)"/>
        <path id="Garamond-75" d="M 103 2453 
L 338 2453 
L 441 2447 
L 522 2453 
Q 844 2453 922 2447 
L 925 2388 
Q 925 1947 913 1534 
Q 903 1291 903 1256 
Q 903 706 939 568 
Q 975 431 1108 348 
Q 1241 266 1428 266 
Q 1656 266 1864 361 
Q 2072 456 2219 594 
Q 2234 713 2234 856 
Q 2234 1322 2244 1484 
Q 2247 1581 2247 1653 
Q 2247 2159 2197 2225 
Q 2147 2291 1816 2325 
Q 1706 2338 1656 2347 
Q 1631 2388 1631 2409 
L 1641 2444 
Q 1722 2453 1800 2453 
L 2297 2447 
Q 2563 2453 2578 2453 
Q 2613 2453 2644 2450 
L 2650 2222 
Q 2628 1747 2625 1047 
L 2619 794 
L 2631 369 
Q 2659 319 2681 309 
Q 2719 294 2834 294 
L 2863 294 
Q 2903 294 3094 275 
Q 3097 234 3097 216 
L 3097 181 
Q 2678 91 2419 0 
Q 2316 -34 2244 -50 
Q 2228 59 2228 84 
L 2228 338 
Q 2228 353 2225 422 
Q 2184 394 2131 353 
Q 1884 163 1609 31 
Q 1425 -59 1253 -59 
Q 925 -59 719 184 
Q 509 428 509 1016 
Q 509 1047 513 1128 
Q 525 1278 525 1338 
Q 525 1359 522 1475 
Q 519 1525 519 1563 
Q 519 1591 522 1689 
Q 525 1788 525 1828 
Q 525 1881 522 1922 
L 516 2088 
L 519 2175 
Q 519 2225 469 2266 
Q 272 2319 211 2326 
Q 150 2334 103 2353 
L 103 2453 
z
" transform="scale(0.015625)"/>
        <path id="Garamond-70" d="M 78 -1631 
Q 75 -1597 75 -1569 
Q 75 -1547 81 -1516 
L 394 -1453 
Q 469 -1416 516 -1363 
Q 531 -1306 531 -1250 
Q 531 -769 506 584 
L 497 1728 
Q 491 2000 463 2072 
Q 447 2109 416 2131 
Q 338 2191 103 2231 
L 122 2325 
Q 459 2469 573 2548 
Q 688 2628 791 2772 
L 828 2781 
Q 850 2781 891 2763 
Q 888 2566 888 2503 
L 891 2159 
Q 1122 2334 1372 2420 
Q 1622 2506 1891 2506 
Q 2372 2506 2703 2167 
Q 3034 1828 3034 1294 
Q 3034 897 2848 581 
Q 2663 266 2336 109 
Q 2009 -47 1678 -47 
Q 1397 -47 1034 106 
Q 975 131 928 150 
Q 922 -100 922 -294 
Q 922 -1259 975 -1375 
Q 1003 -1438 1150 -1450 
Q 1400 -1469 1481 -1522 
Q 1528 -1550 1544 -1634 
L 1234 -1641 
L 953 -1634 
L 484 -1638 
L 78 -1631 
z
M 894 1944 
Q 888 1900 888 1863 
Q 888 747 909 613 
Q 953 366 1084 266 
Q 1288 106 1666 106 
Q 2056 106 2325 376 
Q 2594 647 2594 1078 
Q 2594 1597 2309 1900 
Q 2025 2203 1559 2203 
Q 1363 2203 1197 2139 
Q 1031 2075 894 1944 
z
" transform="scale(0.015625)"/>
        <path id="Garamond-6b" d="M 169 0 
L 163 91 
Q 188 109 209 114 
Q 231 119 367 128 
Q 503 138 537 189 
Q 572 241 572 616 
L 578 1850 
L 572 2069 
Q 572 2097 578 2278 
Q 584 2363 584 2481 
L 572 3025 
L 575 3500 
Q 575 3672 526 3720 
Q 478 3769 184 3809 
L 184 3847 
Q 184 3866 188 3900 
Q 366 3938 503 3994 
Q 575 4025 869 4188 
L 966 4188 
Q 963 4116 963 4100 
L 963 3828 
L 959 3694 
L 969 3447 
L 966 3075 
L 969 2456 
L 959 1688 
L 959 1450 
Q 959 1406 963 1328 
L 997 1325 
Q 1103 1325 1213 1403 
Q 1703 1753 1828 1879 
Q 1953 2006 1953 2063 
Q 1953 2097 1913 2150 
Q 1819 2200 1703 2219 
Q 1669 2225 1628 2234 
Q 1572 2250 1534 2256 
L 1528 2288 
Q 1528 2309 1544 2350 
Q 2038 2369 2403 2369 
Q 2609 2369 2844 2359 
L 2844 2319 
Q 2844 2297 2828 2263 
Q 2781 2253 2681 2234 
Q 2488 2203 2388 2147 
Q 2147 2019 1891 1788 
Q 1738 1650 1625 1556 
L 1513 1459 
Q 1525 1438 1553 1406 
Q 1566 1394 1603 1350 
Q 1641 1306 1738 1203 
Q 2075 847 2238 653 
Q 2291 591 2356 516 
Q 2600 244 2641 213 
Q 2728 156 2900 125 
Q 2981 109 3041 97 
Q 3053 59 3053 38 
L 3050 6 
Q 2828 25 2731 25 
L 2675 25 
L 1806 0 
Q 1756 -6 1738 -6 
Q 1706 -6 1672 6 
Q 1663 31 1663 50 
L 1663 72 
Q 1681 100 1697 106 
Q 2006 131 2056 147 
Q 2084 153 2109 181 
Q 2109 234 2018 353 
Q 1928 472 1566 875 
Q 1334 1131 1267 1173 
Q 1200 1216 1081 1216 
L 963 1216 
Q 950 1103 950 700 
Q 950 325 1013 219 
Q 1047 159 1175 143 
Q 1303 128 1341 97 
Q 1366 78 1372 9 
Q 1184 13 1056 13 
Q 850 13 606 3 
Q 459 -3 375 -3 
Q 313 -3 169 0 
z
" transform="scale(0.015625)"/>
        <path id="Garamond-74" d="M 894 3088 
L 991 3084 
L 1003 2788 
L 997 2403 
Q 1056 2400 1072 2400 
Q 1153 2400 1381 2413 
Q 1528 2422 1663 2422 
Q 1725 2422 1850 2419 
Q 1856 2356 1856 2319 
Q 1856 2278 1838 2191 
L 1784 2191 
L 1300 2175 
L 1059 2169 
L 1003 2163 
Q 978 2084 978 1981 
L 988 1513 
L 981 688 
Q 981 363 1066 256 
Q 1147 147 1309 147 
Q 1391 147 1616 197 
Q 1684 213 1800 300 
L 1828 300 
Q 1856 300 1873 283 
Q 1891 266 1891 238 
L 1888 216 
Q 1753 69 1579 1 
Q 1406 -66 1119 -66 
Q 916 -66 783 28 
Q 650 122 612 250 
Q 575 378 575 809 
L 588 1513 
L 584 1850 
L 584 1975 
Q 584 2063 578 2150 
L 525 2153 
L 269 2144 
L 244 2141 
Q 209 2141 192 2156 
Q 175 2172 175 2194 
Q 175 2231 198 2254 
Q 222 2278 341 2328 
Q 422 2363 530 2458 
Q 638 2553 713 2669 
Q 750 2731 819 2906 
Q 869 3034 894 3088 
z
" transform="scale(0.015625)"/>
        <path id="Garamond-73" d="M 453 794 
Q 569 497 628 409 
Q 747 231 912 132 
Q 1078 34 1272 34 
Q 1450 34 1625 188 
Q 1750 303 1750 456 
Q 1750 659 1603 831 
Q 1456 1000 1045 1154 
Q 634 1309 494 1484 
Q 353 1659 353 1884 
Q 353 2097 468 2259 
Q 584 2422 787 2505 
Q 991 2588 1163 2588 
Q 1384 2588 1561 2553 
Q 1738 2519 1866 2447 
Q 1891 2288 1906 1978 
L 1913 1878 
Q 1872 1875 1844 1875 
L 1800 1875 
Q 1706 2134 1514 2286 
Q 1322 2438 1134 2438 
Q 947 2438 831 2323 
Q 716 2209 716 2025 
Q 716 1884 809 1775 
Q 903 1666 1248 1525 
Q 1594 1384 1751 1264 
Q 1909 1144 1984 972 
Q 2059 800 2059 644 
Q 2059 428 1917 240 
Q 1775 53 1561 -23 
Q 1347 -100 1178 -100 
Q 781 -100 447 47 
Q 416 72 413 141 
Q 413 169 406 231 
Q 356 653 356 731 
Q 356 769 372 781 
Q 388 794 453 794 
z
" transform="scale(0.015625)"/>
        <path id="Garamond-47" d="M 4172 3794 
L 4206 3319 
Q 4225 3103 4225 3025 
L 4138 3009 
Q 3928 3484 3617 3721 
Q 3306 3959 2856 3959 
Q 2306 3959 2000 3825 
Q 1556 3634 1240 3162 
Q 925 2691 925 2025 
Q 925 1641 1040 1334 
Q 1156 1028 1367 764 
Q 1578 500 1866 306 
Q 2053 178 2313 113 
Q 2459 78 2750 78 
Q 2938 78 3166 131 
Q 3394 184 3509 273 
Q 3625 363 3667 475 
Q 3709 588 3709 913 
Q 3709 1453 3637 1542 
Q 3566 1631 3184 1659 
L 3059 1669 
L 2975 1666 
Q 2956 1669 2925 1675 
L 2878 1753 
Q 2878 1769 2900 1794 
Q 3063 1819 3606 1819 
Q 3728 1819 4003 1813 
L 4325 1800 
L 4616 1803 
Q 4700 1803 4819 1797 
Q 4841 1794 4847 1786 
Q 4853 1778 4853 1759 
Q 4853 1725 4838 1672 
Q 4706 1644 4634 1644 
L 4431 1647 
Q 4328 1647 4266 1575 
Q 4234 1541 4234 1341 
L 4238 931 
Q 4238 509 4203 394 
Q 4184 325 4125 270 
Q 4066 216 3875 141 
Q 3603 31 3381 -6 
Q 2969 -78 2584 -78 
Q 1966 -78 1570 80 
Q 1175 238 889 519 
Q 603 800 481 1088 
Q 297 1509 297 1947 
Q 297 2494 586 3017 
Q 875 3541 1519 3869 
Q 1972 4100 2750 4100 
Q 3288 4100 3630 4006 
Q 3972 3913 4172 3794 
z
" transform="scale(0.015625)"/>
        <path id="Garamond-62" d="M 106 3928 
L 106 3944 
Q 106 3975 131 4031 
Q 472 4091 856 4213 
Q 878 4216 925 4216 
Q 941 4166 941 4150 
L 941 3219 
L 938 2922 
L 941 2591 
L 934 2322 
Q 934 2306 941 2216 
L 1197 2313 
Q 1238 2325 1466 2394 
Q 1756 2441 1803 2441 
Q 2116 2441 2366 2341 
Q 2519 2278 2669 2133 
Q 2819 1988 2891 1825 
Q 3016 1528 3016 1313 
Q 3016 972 2972 841 
Q 2866 528 2712 347 
Q 2559 166 2284 37 
Q 2009 -91 1700 -91 
Q 1416 -91 1162 15 
Q 909 122 878 122 
Q 781 122 631 -134 
L 541 -131 
Q 528 78 528 384 
L 534 850 
L 531 1088 
L 538 1769 
L 531 1900 
L 544 2222 
L 544 2497 
L 547 2609 
Q 547 2644 544 2881 
L 544 3069 
Q 553 3613 497 3697 
Q 406 3831 106 3928 
z
M 1591 81 
Q 2066 81 2314 348 
Q 2563 616 2563 1144 
Q 2563 1628 2281 1928 
Q 2000 2228 1588 2228 
Q 1288 2228 1084 2131 
Q 963 2072 948 2022 
Q 934 1972 934 1353 
Q 934 619 966 494 
Q 1019 300 1159 216 
Q 1381 81 1591 81 
z
" transform="scale(0.015625)"/>
        <path id="Garamond-28" d="M 1900 4091 
Q 1934 4006 1981 3925 
Q 1947 3891 1809 3766 
Q 1603 3572 1494 3413 
Q 1209 3003 1075 2717 
Q 941 2431 862 2057 
Q 784 1684 784 1178 
Q 784 831 848 506 
Q 913 181 1077 -184 
Q 1241 -550 1509 -934 
Q 1631 -1113 1809 -1269 
Q 1841 -1297 1919 -1375 
L 1963 -1419 
L 1897 -1569 
Q 1625 -1409 1419 -1163 
Q 1063 -741 864 -341 
Q 666 59 597 441 
Q 491 1025 491 1281 
Q 491 1706 600 2162 
Q 709 2619 966 3078 
Q 1138 3388 1466 3747 
Q 1672 3972 1900 4091 
z
" transform="scale(0.015625)"/>
        <path id="Garamond-54" d="M 113 3531 
L 241 4003 
Q 253 4097 275 4123 
Q 297 4150 325 4150 
Q 381 4150 453 4016 
Q 506 3919 540 3892 
Q 575 3866 641 3856 
L 672 3859 
L 806 3847 
L 1544 3838 
L 2416 3841 
L 2672 3841 
L 3156 3850 
Q 3188 3850 3234 3844 
Q 3447 3825 3497 3825 
Q 3544 3825 3572 3856 
Q 3581 3869 3675 4069 
Q 3716 4159 3775 4159 
Q 3800 4159 3838 4147 
Q 3853 4084 3853 4034 
L 3850 3909 
L 3853 3644 
Q 3853 3547 3838 3019 
Q 3838 2984 3825 2956 
Q 3791 2934 3766 2934 
Q 3741 2934 3722 2957 
Q 3703 2981 3675 3103 
Q 3613 3384 3519 3506 
Q 3456 3584 3339 3618 
Q 3222 3653 2778 3653 
Q 2422 3653 2250 3641 
Q 2244 3516 2244 3413 
L 2269 1472 
Q 2269 1356 2256 1034 
L 2259 619 
L 2256 388 
Q 2256 278 2293 231 
Q 2331 184 2497 141 
Q 2784 69 2881 53 
Q 2941 47 2978 28 
L 2978 -66 
L 2534 -53 
Q 2169 -50 1984 -38 
L 1528 -59 
L 1194 -78 
Q 1053 -78 1022 -72 
L 978 -53 
Q 984 19 1006 39 
Q 1028 59 1122 72 
Q 1253 91 1431 139 
Q 1609 188 1666 238 
Q 1697 266 1709 331 
Q 1738 469 1738 872 
L 1738 1403 
L 1725 2563 
L 1713 2813 
L 1709 3647 
Q 1513 3669 1206 3669 
Q 756 3669 659 3613 
Q 506 3525 203 3100 
Q 103 2941 28 2941 
L 0 2947 
Q -13 2966 -13 2981 
Q -13 3019 38 3206 
Q 100 3447 113 3531 
z
" transform="scale(0.015625)"/>
        <path id="Garamond-2c" d="M 263 -1113 
L 266 -1016 
Q 303 -997 341 -981 
Q 669 -825 780 -658 
Q 891 -491 891 -359 
Q 891 -272 828 -206 
Q 766 -141 614 -108 
Q 463 -75 416 -56 
Q 384 -44 338 6 
Q 306 72 306 131 
Q 306 278 366 331 
Q 491 441 625 441 
Q 863 441 1038 258 
Q 1213 75 1213 -200 
Q 1213 -391 1088 -612 
Q 963 -834 709 -971 
Q 456 -1109 263 -1113 
z
" transform="scale(0.015625)"/>
        <path id="Garamond-4d" d="M 44 72 
Q 141 138 394 166 
Q 591 175 628 200 
Q 653 219 666 247 
Q 713 363 734 875 
Q 763 1541 825 2647 
Q 875 3491 875 3700 
L 875 3781 
Q 650 3828 163 3881 
Q 131 3928 131 3953 
Q 131 3969 153 4009 
Q 206 4028 234 4028 
Q 259 4028 344 4016 
Q 497 3994 766 3994 
Q 853 3994 1066 4006 
Q 1216 4016 1234 4016 
Q 1284 4016 1350 4000 
Q 1381 3969 1397 3941 
L 1528 3647 
L 2413 1691 
L 2778 869 
Q 3213 1728 3453 2397 
Q 3469 2447 3491 2488 
Q 3519 2541 3544 2606 
Q 3569 2672 3747 3106 
Q 3819 3281 3863 3406 
Q 4041 3906 4072 3978 
Q 4131 4000 4175 4000 
Q 4225 4000 4303 3994 
Q 4478 3984 4872 3984 
Q 5116 3984 5272 3991 
Q 5278 3956 5278 3941 
Q 5278 3919 5269 3881 
Q 5169 3828 5028 3822 
Q 4750 3806 4675 3778 
Q 4600 3750 4579 3706 
Q 4559 3663 4544 3419 
L 4547 3275 
L 4544 3125 
Q 4544 2656 4569 1550 
L 4566 938 
L 4569 544 
Q 4569 313 4591 270 
Q 4613 228 4716 191 
Q 4884 134 5266 75 
Q 5288 59 5288 34 
Q 5288 6 5284 -28 
L 5141 -28 
Q 4956 -28 4740 -17 
Q 4525 -6 4509 -6 
Q 3869 -6 3659 -19 
Q 3531 -28 3497 -28 
Q 3475 -28 3450 -16 
L 3450 25 
Q 3450 53 3459 84 
Q 3563 128 3741 144 
Q 3938 197 4028 256 
Q 4056 375 4056 741 
L 4047 1372 
Q 4047 1475 4058 1756 
Q 4069 2038 4069 2672 
Q 4069 3175 4044 3434 
Q 3991 3325 3834 2959 
L 3788 2841 
L 3781 2822 
L 3319 1728 
L 3153 1306 
L 2938 794 
Q 2797 441 2697 169 
Q 2653 44 2625 -28 
L 2553 -25 
Q 2200 1006 1711 2090 
Q 1222 3175 1025 3522 
Q 1000 3388 969 2741 
Q 928 1953 928 1006 
Q 928 709 972 338 
Q 984 231 1062 179 
Q 1141 128 1466 122 
Q 1591 122 1703 103 
Q 1725 56 1725 34 
Q 1725 19 1709 -19 
L 738 16 
Q 631 16 406 0 
Q 281 -9 47 -13 
L 44 72 
z
" transform="scale(0.015625)"/>
        <path id="Garamond-29" d="M -138 -1400 
Q -41 -1306 25 -1247 
Q 238 -1063 378 -853 
Q 672 -422 778 -194 
Q 925 122 1001 494 
Q 1078 866 1078 1278 
Q 1078 1759 993 2117 
Q 909 2475 717 2864 
Q 525 3253 319 3525 
Q 281 3578 -84 3944 
L -22 4097 
Q 231 3947 447 3700 
Q 775 3322 987 2897 
Q 1200 2472 1266 2091 
Q 1369 1503 1369 1216 
Q 1369 853 1266 398 
Q 1163 -56 897 -538 
Q 694 -906 325 -1281 
Q 166 -1444 -56 -1563 
Q -88 -1484 -138 -1400 
z
" transform="scale(0.015625)"/>
       </defs>
       <use xlink:href="#Garamond-53"/>
       <use xlink:href="#Garamond-63" x="47.900391"/>
       <use xlink:href="#Garamond-72" x="89.550781"/>
       <use xlink:href="#Garamond-65" x="122.900391"/>
       <use xlink:href="#Garamond-65" x="164.550781"/>
       <use xlink:href="#Garamond-6e" x="206.201172"/>
       <use xlink:href="#Garamond-69" x="257.226562"/>
       <use xlink:href="#Garamond-6e" x="280.126953"/>
       <use xlink:href="#Garamond-67" x="331.152344"/>
       <use xlink:href="#Garamond-20" x="375.927734"/>
       <use xlink:href="#Garamond-66" x="400.927734"/>
       <use xlink:href="#Garamond-6f" x="433.203125"/>
       <use xlink:href="#Garamond-72" x="484.228516"/>
       <use xlink:href="#Garamond-20" x="517.578125"/>
       <use xlink:href="#Garamond-61" x="542.578125"/>
       <use xlink:href="#Garamond-6c" x="583.203125"/>
       <use xlink:href="#Garamond-69" x="606.103516"/>
       <use xlink:href="#Garamond-65" x="629.003906"/>
       <use xlink:href="#Garamond-6e" x="670.654297"/>
       <use xlink:href="#Garamond-20" x="721.679688"/>
       <use xlink:href="#Garamond-61" x="746.679688"/>
       <use xlink:href="#Garamond-6e" x="787.304688"/>
       <use xlink:href="#Garamond-64" x="838.330078"/>
       <use xlink:href="#Garamond-20" x="888.330078"/>
       <use xlink:href="#Garamond-68" x="913.330078"/>
       <use xlink:href="#Garamond-61" x="964.355469"/>
       <use xlink:href="#Garamond-72" x="1004.980469"/>
       <use xlink:href="#Garamond-6d" x="1042.080078"/>
       <use xlink:href="#Garamond-66" x="1119.179688"/>
       <use xlink:href="#Garamond-75" x="1151.455078"/>
       <use xlink:href="#Garamond-6c" x="1200.429688"/>
       <use xlink:href="#Garamond-20" x="1223.330078"/>
       <use xlink:href="#Garamond-70" x="1248.330078"/>
       <use xlink:href="#Garamond-6c" x="1299.355469"/>
       <use xlink:href="#Garamond-61" x="1322.255859"/>
       <use xlink:href="#Garamond-6e" x="1362.880859"/>
       <use xlink:href="#Garamond-6b" x="1413.90625"/>
       <use xlink:href="#Garamond-74" x="1460.78125"/>
       <use xlink:href="#Garamond-6f" x="1489.931641"/>
       <use xlink:href="#Garamond-6e" x="1540.957031"/>
       <use xlink:href="#Garamond-69" x="1591.982422"/>
       <use xlink:href="#Garamond-63" x="1614.882812"/>
       <use xlink:href="#Garamond-20" x="1656.533203"/>
       <use xlink:href="#Garamond-73" x="1681.533203"/>
       <use xlink:href="#Garamond-70" x="1718.007812"/>
       <use xlink:href="#Garamond-65" x="1769.033203"/>
       <use xlink:href="#Garamond-63" x="1810.683594"/>
       <use xlink:href="#Garamond-69" x="1852.333984"/>
       <use xlink:href="#Garamond-65" x="1875.234375"/>
       <use xlink:href="#Garamond-73" x="1916.884766"/>
       <use xlink:href="#Garamond-20" x="1953.359375"/>
       <use xlink:href="#Garamond-69" x="1978.359375"/>
       <use xlink:href="#Garamond-6e" x="2001.259766"/>
       <use xlink:href="#Garamond-20" x="2052.285156"/>
       <use xlink:href="#Garamond-74" x="2077.285156"/>
       <use xlink:href="#Garamond-68" x="2106.435547"/>
       <use xlink:href="#Garamond-65" x="2157.460938"/>
       <use xlink:href="#Garamond-20" x="2199.111328"/>
       <use xlink:href="#Garamond-47" x="2224.111328"/>
       <use xlink:href="#Garamond-75" x="2301.210938"/>
       <use xlink:href="#Garamond-6c" x="2350.185547"/>
       <use xlink:href="#Garamond-66" x="2373.085938"/>
       <use xlink:href="#Garamond-20" x="2418.486328"/>
       <use xlink:href="#Garamond-6f" x="2443.486328"/>
       <use xlink:href="#Garamond-66" x="2494.511719"/>
       <use xlink:href="#Garamond-20" x="2539.912109"/>
       <use xlink:href="#Garamond-47" x="2564.912109"/>
       <use xlink:href="#Garamond-61" x="2642.011719"/>
       <use xlink:href="#Garamond-62" x="2682.636719"/>
       <use xlink:href="#Garamond-65" x="2733.662109"/>
       <use xlink:href="#Garamond-73" x="2775.3125"/>
       <use xlink:href="#Garamond-20" x="2811.787109"/>
       <use xlink:href="#Garamond-28" x="2836.787109"/>
       <use xlink:href="#Garamond-54" x="2865.9375"/>
       <use xlink:href="#Garamond-75" x="2923.037109"/>
       <use xlink:href="#Garamond-6e" x="2972.011719"/>
       <use xlink:href="#Garamond-69" x="3023.037109"/>
       <use xlink:href="#Garamond-73" x="3045.9375"/>
       <use xlink:href="#Garamond-69" x="3082.412109"/>
       <use xlink:href="#Garamond-61" x="3105.3125"/>
       <use xlink:href="#Garamond-2c" x="3145.9375"/>
       <use xlink:href="#Garamond-20" x="3167.8125"/>
       <use xlink:href="#Garamond-53" x="3192.8125"/>
       <use xlink:href="#Garamond-6f" x="3240.712891"/>
       <use xlink:href="#Garamond-75" x="3291.738281"/>
       <use xlink:href="#Garamond-74" x="3340.712891"/>
       <use xlink:href="#Garamond-68" x="3369.863281"/>
       <use xlink:href="#Garamond-65" x="3420.888672"/>
       <use xlink:href="#Garamond-61" x="3462.539062"/>
       <use xlink:href="#Garamond-73" x="3503.164062"/>
       <use xlink:href="#Garamond-74" x="3539.638672"/>
       <use xlink:href="#Garamond-65" x="3568.789062"/>
       <use xlink:href="#Garamond-72" x="3610.439453"/>
       <use xlink:href="#Garamond-6e" x="3645.789062"/>
       <use xlink:href="#Garamond-20" x="3696.814453"/>
       <use xlink:href="#Garamond-4d" x="3721.814453"/>
       <use xlink:href="#Garamond-65" x="3805.164062"/>
       <use xlink:href="#Garamond-64" x="3846.814453"/>
       <use xlink:href="#Garamond-69" x="3896.814453"/>
       <use xlink:href="#Garamond-74" x="3919.714844"/>
       <use xlink:href="#Garamond-65" x="3948.865234"/>
       <use xlink:href="#Garamond-72" x="3990.515625"/>
       <use xlink:href="#Garamond-72" x="4026.365234"/>
       <use xlink:href="#Garamond-61" x="4059.714844"/>
       <use xlink:href="#Garamond-6e" x="4100.339844"/>
       <use xlink:href="#Garamond-65" x="4151.365234"/>
       <use xlink:href="#Garamond-61" x="4193.015625"/>
       <use xlink:href="#Garamond-6e" x="4233.640625"/>
       <use xlink:href="#Garamond-20" x="4284.666016"/>
       <use xlink:href="#Garamond-53" x="4309.666016"/>
       <use xlink:href="#Garamond-65" x="4357.566406"/>
       <use xlink:href="#Garamond-61" x="4399.216797"/>
       <use xlink:href="#Garamond-29" x="4439.841797"/>
      </g>
     </g>
    </g>
    <g id="ytick_2">
     <g id="line2d_6">
      <g>
       <use xlink:href="#m8002c57c9f" x="672.77" y="163.605" style="stroke: #000000; stroke-width: 0.8"/>
      </g>
     </g>
     <g id="text_7">
      <!-- High-Throughput Sequencing of Environmental DNA as a Tool for Monitoring Eukaryotic Communities and Potential Pathogens in a Coastal Upwelling Ecosystem -->
      <g transform="translate(24.87625 166.896406) scale(0.1 -0.1)">
       <defs>
        <path id="Garamond-48" d="M 122 -47 
L 125 22 
Q 231 81 372 97 
Q 594 125 653 154 
Q 713 184 738 238 
Q 781 341 781 447 
L 775 684 
L 778 903 
L 772 1159 
Q 772 1319 781 1558 
Q 791 1797 791 1813 
L 791 2666 
Q 791 2869 800 3105 
Q 809 3341 809 3431 
Q 809 3700 796 3744 
Q 784 3788 750 3806 
Q 716 3825 525 3841 
Q 378 3853 322 3863 
Q 306 3897 306 3919 
Q 306 3944 309 3978 
Q 384 3984 425 3984 
L 719 3981 
Q 1031 3981 1381 4006 
Q 1553 4019 1900 4028 
Q 1906 4000 1906 3975 
Q 1906 3944 1892 3926 
Q 1878 3909 1844 3903 
Q 1434 3869 1361 3801 
Q 1288 3734 1288 3459 
Q 1288 2953 1303 2416 
L 1316 2122 
Q 1331 2109 1722 2091 
Q 1828 2084 1847 2084 
L 2306 2091 
L 2609 2081 
L 3403 2106 
Q 3550 2109 3581 2119 
Q 3600 2663 3600 3172 
Q 3600 3663 3578 3750 
Q 3566 3803 3534 3822 
Q 3516 3831 3209 3872 
Q 3156 3878 3109 3888 
Q 3094 3934 3094 3994 
Q 3200 4009 3228 4009 
L 3434 3997 
Q 3719 3981 4006 3981 
Q 4191 3981 4619 4013 
Q 4616 3950 4603 3900 
Q 4484 3853 4319 3841 
Q 4213 3834 4141 3806 
Q 4081 3763 4081 3628 
Q 4081 3597 4084 3559 
Q 4088 3447 4088 3413 
L 4088 3053 
L 4091 2828 
L 4084 2538 
L 4088 1994 
L 4081 1481 
Q 4081 1328 4091 1003 
L 4088 581 
Q 4088 369 4125 278 
Q 4144 234 4188 216 
L 4441 159 
Q 4628 113 4664 83 
Q 4700 53 4700 13 
L 4691 -25 
L 4675 -28 
Q 4659 -28 4634 -22 
Q 4294 41 3919 41 
Q 3625 41 3501 31 
Q 3378 22 2988 -38 
Q 2981 3 2981 22 
Q 2981 44 2988 81 
Q 3084 138 3294 159 
Q 3450 175 3541 259 
Q 3600 316 3600 425 
L 3597 875 
Q 3606 1078 3606 1097 
Q 3606 1363 3597 1872 
Q 3588 1916 3563 1925 
Q 3478 1953 2731 1913 
Q 2581 1903 2506 1903 
Q 2431 1903 2192 1911 
Q 1953 1919 1750 1919 
Q 1641 1919 1566 1916 
Q 1422 1913 1406 1913 
Q 1334 1913 1307 1884 
Q 1281 1856 1281 1781 
L 1284 1563 
Q 1284 1509 1269 972 
Q 1266 863 1266 791 
Q 1266 363 1297 222 
Q 1313 156 1353 131 
Q 1381 113 1597 66 
Q 1741 34 1816 6 
L 1834 -25 
Q 1834 -41 1822 -50 
Q 1803 -66 1769 -66 
Q 1744 -66 1709 -64 
Q 1675 -63 1575 -59 
Q 1416 -56 1178 -38 
Q 1025 -25 906 -25 
Q 706 -25 266 -44 
Q 181 -47 122 -47 
z
" transform="scale(0.015625)"/>
        <path id="Garamond-2d" d="M 256 1381 
L 300 1381 
L 544 1378 
L 963 1394 
L 1269 1384 
L 1428 1391 
Q 1650 1391 1756 1363 
L 1763 1116 
Q 1569 1100 1450 1100 
Q 1341 1100 1228 1109 
Q 1078 1119 1047 1119 
L 916 1116 
Q 859 1113 781 1113 
Q 391 1113 244 1147 
L 238 1238 
Q 238 1291 256 1381 
z
" transform="scale(0.015625)"/>
        <path id="Garamond-71" d="M 2644 2641 
L 2759 2641 
L 2766 2528 
L 2759 1859 
L 2763 897 
Q 2763 644 2759 544 
L 2756 459 
L 2759 334 
L 2756 131 
L 2766 -231 
L 2759 -647 
L 2763 -1034 
Q 2763 -1091 2759 -1222 
Q 2756 -1263 2756 -1291 
Q 2756 -1366 2806 -1428 
Q 2825 -1438 2844 -1450 
Q 2878 -1472 2934 -1486 
Q 2991 -1500 3034 -1513 
Q 3103 -1534 3163 -1544 
Q 3191 -1575 3191 -1603 
L 3188 -1634 
Q 3109 -1638 3091 -1638 
L 2206 -1622 
Q 2025 -1622 1809 -1631 
Q 1797 -1600 1797 -1584 
Q 1797 -1569 1809 -1541 
Q 2234 -1456 2256 -1441 
Q 2309 -1413 2328 -1331 
Q 2375 -1159 2375 -566 
Q 2375 -88 2369 291 
Q 2319 269 2172 200 
Q 1741 3 1434 3 
Q 1156 3 857 147 
Q 559 291 389 584 
Q 219 878 219 1206 
Q 219 1753 611 2129 
Q 1003 2506 1553 2506 
Q 1806 2506 2125 2388 
Q 2353 2300 2463 2300 
Q 2503 2300 2528 2334 
Q 2572 2388 2644 2641 
z
M 2103 325 
Q 2300 400 2350 456 
L 2372 1075 
Q 2372 1681 2303 1882 
Q 2234 2084 2043 2228 
Q 1853 2372 1584 2372 
Q 1134 2372 894 2000 
Q 709 1719 709 1319 
Q 709 1041 836 806 
Q 963 572 1223 423 
Q 1484 275 1719 275 
Q 1928 275 2103 325 
z
" transform="scale(0.015625)"/>
        <path id="Garamond-45" d="M 156 50 
Q 188 78 209 84 
Q 263 100 391 109 
Q 694 128 766 166 
Q 809 228 809 341 
L 806 559 
L 809 1353 
L 803 1728 
L 806 2513 
L 791 3403 
Q 788 3722 750 3763 
Q 694 3822 416 3831 
Q 297 3834 206 3850 
Q 166 3872 166 3906 
Q 166 3931 181 3966 
Q 209 3981 231 3981 
Q 275 3981 338 3978 
Q 522 3963 719 3963 
L 950 3969 
L 1500 3956 
Q 1913 3956 2144 3965 
Q 2375 3975 2456 3975 
Q 2528 3975 2813 3963 
L 3256 3966 
L 3309 3956 
L 3569 3966 
L 3600 3950 
Q 3616 3925 3622 3897 
Q 3622 3853 3608 3762 
Q 3594 3672 3594 3650 
Q 3594 3325 3616 3100 
Q 3613 3081 3597 3075 
Q 3563 3075 3534 3084 
Q 3500 3144 3442 3294 
Q 3384 3444 3269 3641 
Q 3191 3772 3147 3797 
Q 3103 3822 2966 3822 
Q 2938 3822 2681 3828 
Q 2613 3831 2547 3831 
L 1656 3813 
L 1578 3813 
Q 1406 3813 1372 3769 
Q 1319 3694 1319 3328 
Q 1319 3291 1334 2578 
L 1334 2144 
Q 1369 2134 1409 2134 
L 1463 2134 
Q 1516 2134 1619 2131 
Q 1781 2125 1838 2125 
Q 1875 2125 1903 2128 
Q 2241 2141 2772 2141 
Q 2938 2169 2966 2206 
Q 3013 2263 3036 2500 
Q 3059 2738 3141 2769 
Q 3181 2769 3216 2753 
Q 3222 2728 3222 2706 
Q 3222 2684 3216 2634 
Q 3200 2519 3200 1909 
Q 3200 1747 3217 1547 
Q 3234 1347 3234 1331 
Q 3234 1303 3225 1256 
Q 3200 1244 3184 1244 
L 3163 1244 
Q 3113 1331 3066 1516 
Q 2984 1831 2895 1911 
Q 2806 1991 2606 1991 
Q 2563 1991 2447 1986 
Q 2331 1981 2103 1981 
L 1900 1981 
Q 1466 1981 1331 1963 
L 1328 1859 
L 1331 1284 
L 1328 922 
L 1331 569 
Q 1334 250 1372 200 
Q 1425 131 1603 131 
L 1794 134 
Q 1819 134 1989 129 
Q 2159 125 2409 125 
Q 3013 125 3213 176 
Q 3413 228 3542 359 
Q 3672 491 3869 925 
Q 3928 1053 3988 1053 
Q 4016 1053 4050 1028 
Q 3959 719 3947 622 
Q 3913 403 3906 175 
Q 3906 72 3856 3 
L 3788 3 
L 2909 -6 
L 2516 -3 
L 1578 -16 
L 1197 -16 
Q 1125 -16 1063 -19 
Q 500 -44 234 -44 
Q 188 -44 170 -28 
Q 153 -13 153 19 
L 156 50 
z
" transform="scale(0.015625)"/>
        <path id="Garamond-44" d="M 75 63 
Q 191 113 344 128 
Q 566 153 675 234 
Q 759 406 759 1109 
L 759 1603 
L 766 1900 
L 759 2119 
L 766 2522 
L 756 3538 
Q 756 3709 706 3763 
Q 634 3841 325 3906 
Q 197 3934 169 3957 
Q 141 3981 134 4047 
Q 206 4063 234 4063 
L 456 4063 
L 572 4066 
Q 688 4066 828 4041 
Q 1116 4022 1419 4022 
Q 1506 4022 1669 4031 
Q 2100 4056 2288 4056 
Q 2666 4056 3002 3981 
Q 3338 3906 3694 3703 
Q 3916 3575 4148 3298 
Q 4381 3022 4501 2695 
Q 4622 2369 4622 1959 
Q 4622 1594 4489 1234 
Q 4356 875 4118 611 
Q 3881 347 3637 214 
Q 3394 81 2894 -16 
Q 2688 -53 2153 -53 
Q 1800 -53 1578 -31 
Q 1491 -19 1391 -19 
Q 1375 -19 1356 -22 
L 81 -44 
L 75 -19 
Q 69 -3 69 16 
L 75 63 
z
M 1666 184 
Q 1903 103 2147 103 
Q 2463 103 2766 201 
Q 3069 300 3301 479 
Q 3534 659 3684 886 
Q 3834 1113 3897 1294 
Q 3984 1559 3984 1984 
Q 3984 2391 3813 2809 
Q 3694 3100 3395 3365 
Q 3097 3631 2690 3754 
Q 2284 3878 1813 3878 
Q 1488 3878 1331 3806 
Q 1313 3788 1294 3763 
Q 1275 3684 1275 3619 
Q 1275 3578 1278 3522 
Q 1288 3159 1288 2941 
L 1284 2231 
Q 1284 669 1342 492 
Q 1400 316 1666 184 
z
" transform="scale(0.015625)"/>
        <path id="Garamond-4e" d="M 84 3822 
L 81 3972 
Q 566 3972 791 3997 
Q 878 4006 913 4006 
Q 941 4006 997 4003 
Q 1128 3894 1241 3753 
Q 1266 3725 1297 3691 
L 1956 2963 
L 2050 2850 
Q 2250 2616 2414 2450 
Q 2578 2284 3053 1759 
L 3800 931 
Q 3909 809 4081 628 
L 4084 678 
Q 4066 1113 4066 1138 
L 4078 1325 
L 4072 1619 
L 4072 1753 
Q 4072 1881 4050 2544 
Q 4047 2634 4025 2886 
Q 4003 3138 4003 3328 
Q 4003 3672 3963 3728 
Q 3934 3769 3697 3813 
Q 3641 3816 3522 3831 
Q 3381 3838 3356 3847 
Q 3331 3856 3306 3900 
Q 3313 3950 3334 3994 
Q 3419 4019 3500 4019 
Q 3588 4019 3717 3997 
Q 3847 3975 3950 3975 
Q 4094 3975 4397 3994 
Q 4569 4006 4634 4006 
L 4688 4006 
L 4681 3909 
Q 4631 3888 4543 3883 
Q 4456 3878 4381 3856 
Q 4269 3822 4247 3797 
Q 4172 3716 4172 3631 
L 4206 2644 
L 4231 2191 
L 4228 2059 
L 4247 1431 
Q 4266 788 4266 313 
Q 4266 209 4253 -134 
L 4106 -147 
Q 3997 -22 3353 641 
Q 3203 794 3150 856 
L 2881 1166 
Q 2725 1338 2678 1384 
Q 2631 1431 2609 1453 
Q 2269 1841 1725 2422 
Q 1578 2578 1294 2909 
Q 1116 3119 1069 3166 
Q 1022 3213 941 3272 
L 931 3166 
Q 931 2556 963 1484 
L 984 450 
Q 988 319 1000 197 
L 1109 172 
Q 1406 144 1694 88 
Q 1716 69 1731 59 
L 1728 -59 
Q 1678 -75 1647 -75 
Q 1613 -75 1563 -69 
Q 1253 -44 809 -44 
Q 497 -44 259 -59 
L 216 -63 
Q 188 -63 134 -56 
L 131 38 
L 213 75 
L 359 97 
Q 556 125 647 159 
Q 706 181 744 225 
Q 778 441 778 856 
Q 778 1050 769 1566 
L 769 1991 
L 763 2878 
Q 756 3472 722 3578 
Q 703 3634 644 3678 
Q 525 3763 333 3784 
Q 141 3806 84 3822 
z
" transform="scale(0.015625)"/>
        <path id="Garamond-41" d="M -34 100 
Q 9 125 44 125 
L 116 125 
Q 138 125 191 128 
Q 431 150 475 172 
Q 584 231 663 378 
Q 825 697 1028 1281 
Q 1125 1559 1150 1619 
Q 1228 1806 1300 2013 
L 1594 2834 
Q 1663 3028 1925 3722 
Q 1991 3897 2084 4191 
L 2175 4197 
L 2284 4194 
Q 2419 3928 2522 3622 
Q 2578 3459 2706 3138 
L 3181 1853 
L 3434 1156 
Q 3634 563 3696 427 
Q 3759 291 3813 247 
Q 3828 234 3929 209 
Q 4031 184 4072 172 
Q 4216 131 4272 103 
Q 4284 69 4284 50 
Q 4284 34 4275 3 
Q 4175 0 4134 0 
Q 3975 0 3572 9 
L 3259 19 
L 2881 13 
Q 2844 13 2805 17 
Q 2766 22 2738 22 
L 2669 22 
Q 2634 25 2606 41 
Q 2606 84 2622 125 
Q 2659 144 2691 147 
L 3019 169 
Q 3147 175 3213 203 
Q 3231 259 3231 288 
Q 3231 344 3150 578 
Q 3094 734 3051 875 
Q 3009 1016 2719 1800 
Q 2591 1822 2494 1822 
L 1825 1816 
L 1628 1819 
Q 1522 1819 1394 1803 
Q 1353 1709 1341 1669 
L 1066 809 
Q 891 319 891 269 
Q 891 241 919 175 
Q 984 156 1094 141 
L 1519 103 
Q 1553 75 1553 53 
Q 1553 38 1544 6 
Q 1403 3 1328 3 
Q 1078 3 747 19 
Q 594 25 528 25 
Q 463 25 300 19 
Q 194 13 147 13 
Q 72 13 -47 22 
L -47 41 
Q -47 63 -34 100 
z
M 1456 1975 
Q 1791 1956 2219 1956 
Q 2463 1956 2647 1972 
Q 2616 2094 2575 2200 
Q 2372 2744 2350 2800 
L 2066 3522 
L 2034 3578 
Q 2016 3541 1897 3256 
Q 1697 2769 1609 2497 
Q 1569 2375 1525 2254 
Q 1481 2134 1470 2086 
Q 1459 2038 1438 1988 
L 1456 1975 
z
" transform="scale(0.015625)"/>
        <path id="Garamond-79" d="M 38 2463 
Q 106 2469 153 2469 
L 303 2469 
L 506 2475 
L 772 2466 
L 988 2472 
Q 1159 2472 1297 2450 
Q 1309 2419 1309 2400 
L 1306 2375 
Q 1241 2344 1103 2331 
Q 909 2316 825 2263 
L 819 2228 
Q 819 2197 844 2134 
Q 859 2097 884 2022 
Q 953 1791 1181 1128 
Q 1347 650 1488 306 
Q 1575 494 1688 781 
L 1953 1522 
Q 2041 1766 2088 2009 
Q 2106 2106 2106 2163 
Q 2106 2209 2065 2250 
Q 2025 2291 1903 2319 
Q 1681 2375 1662 2389 
Q 1644 2403 1641 2450 
Q 1659 2466 1684 2475 
L 1878 2475 
L 2088 2472 
L 2400 2475 
L 2600 2472 
L 2650 2475 
Q 2672 2475 2722 2469 
Q 2753 2453 2753 2419 
Q 2753 2388 2725 2363 
L 2663 2353 
Q 2481 2328 2384 2259 
Q 2331 2222 2294 2103 
Q 2281 2059 2253 1991 
Q 2238 1953 2208 1865 
Q 2178 1778 2131 1659 
L 2094 1572 
L 2091 1556 
L 1559 156 
L 1172 -897 
Q 1134 -975 1084 -1091 
Q 966 -1313 944 -1334 
Q 850 -1450 781 -1497 
L 622 -1566 
Q 575 -1578 522 -1578 
Q 381 -1578 315 -1517 
Q 250 -1456 250 -1350 
Q 250 -1250 347 -1169 
Q 378 -1159 409 -1144 
L 450 -1134 
Q 728 -1184 797 -1184 
Q 863 -1150 894 -1103 
Q 1047 -875 1156 -594 
Q 1266 -313 1266 -216 
Q 1266 -109 1184 94 
L 838 1013 
Q 766 1191 409 2175 
Q 388 2238 353 2269 
L 141 2347 
L 75 2359 
Q 22 2381 22 2422 
L 38 2463 
z
" transform="scale(0.015625)"/>
        <path id="Garamond-43" d="M 3703 3825 
Q 3741 3584 3741 3331 
Q 3741 3281 3738 3197 
Q 3694 3188 3672 3188 
Q 3653 3188 3619 3194 
Q 3488 3559 3191 3756 
Q 2894 3953 2456 3953 
Q 2225 3953 2066 3900 
Q 1784 3803 1571 3633 
Q 1359 3463 1212 3227 
Q 1066 2991 980 2655 
Q 894 2319 894 1969 
Q 894 1300 1097 864 
Q 1300 428 1653 242 
Q 2006 56 2366 56 
L 2513 59 
Q 2763 91 2853 119 
Q 3081 184 3229 273 
Q 3378 363 3520 525 
Q 3663 688 3763 903 
L 3800 916 
Q 3816 916 3847 897 
Q 3844 822 3841 800 
Q 3709 272 3650 78 
Q 3600 66 3525 41 
Q 3159 -84 2547 -84 
Q 2053 -84 1808 -17 
Q 1563 50 1273 192 
Q 984 334 765 568 
Q 547 803 412 1161 
Q 278 1519 278 1941 
Q 278 2341 384 2639 
Q 491 2938 712 3244 
Q 934 3550 1236 3753 
Q 1538 3956 1906 4041 
Q 2166 4097 2641 4097 
Q 2988 4097 3294 4005 
Q 3600 3913 3703 3825 
z
" transform="scale(0.015625)"/>
        <path id="Garamond-50" d="M 138 3991 
Q 194 4000 209 4000 
Q 316 4000 559 3988 
Q 688 3984 734 3984 
Q 803 3984 1025 3997 
L 1556 4028 
Q 1766 4047 2044 4047 
Q 2534 4047 2825 3908 
Q 3116 3769 3273 3472 
Q 3431 3175 3431 2881 
Q 3431 2391 3087 2034 
Q 2744 1678 2163 1678 
Q 2000 1678 1890 1711 
Q 1781 1744 1641 1838 
Q 1581 1878 1569 1922 
Q 1581 1944 1603 1953 
Q 1647 1953 1694 1934 
Q 1800 1897 1963 1897 
Q 2209 1897 2429 2019 
Q 2650 2141 2762 2366 
Q 2875 2591 2875 2841 
Q 2875 3084 2756 3314 
Q 2638 3544 2444 3681 
Q 2334 3759 2107 3812 
Q 1881 3866 1756 3866 
Q 1369 3866 1297 3809 
L 1294 3766 
L 1306 3413 
L 1303 3350 
Q 1297 3266 1297 3091 
Q 1297 2453 1316 2297 
L 1316 2122 
L 1356 694 
Q 1356 663 1348 578 
Q 1341 494 1341 431 
Q 1341 281 1366 203 
Q 1441 181 1803 100 
Q 1972 59 1988 53 
Q 2013 44 2031 13 
Q 2019 -34 1998 -48 
Q 1978 -63 1919 -63 
Q 1881 -63 1744 -47 
Q 1475 -19 1322 -19 
L 772 -41 
L 444 -31 
Q 413 -31 263 -38 
L 259 44 
L 666 122 
Q 766 150 788 178 
Q 819 222 819 350 
Q 819 378 822 472 
Q 825 538 825 653 
Q 825 1022 794 2225 
Q 781 2788 781 3369 
L 781 3422 
Q 781 3647 713 3706 
Q 597 3809 134 3875 
Q 119 3909 119 3931 
Q 119 3956 138 3991 
z
" transform="scale(0.015625)"/>
        <path id="Garamond-55" d="M 1825 4013 
Q 1841 3959 1841 3931 
Q 1841 3913 1831 3875 
Q 1750 3853 1700 3853 
Q 1678 3853 1626 3858 
Q 1575 3863 1544 3863 
Q 1400 3863 1316 3806 
Q 1259 3772 1247 3716 
L 1216 3359 
L 1225 1813 
Q 1228 963 1281 755 
Q 1334 547 1459 412 
Q 1584 278 1836 190 
Q 2088 103 2325 103 
Q 2856 103 3139 256 
Q 3422 409 3545 679 
Q 3669 950 3669 1500 
Q 3669 1516 3659 1750 
L 3659 1841 
Q 3659 1891 3665 2036 
Q 3672 2181 3672 2206 
L 3625 3103 
Q 3603 3556 3573 3637 
Q 3544 3719 3488 3759 
Q 3366 3847 3025 3916 
Q 3009 3959 3006 4006 
Q 3128 4019 3247 4019 
Q 3372 4019 3509 4009 
Q 3716 3994 3734 3994 
L 4228 4009 
L 4325 4006 
L 4322 3894 
Q 3938 3844 3863 3776 
Q 3788 3709 3788 3528 
Q 3788 3431 3800 3106 
L 3822 2459 
L 3819 2203 
L 3828 1878 
Q 3828 1266 3794 1044 
Q 3744 734 3651 553 
Q 3559 372 3384 226 
Q 3209 81 2917 -12 
Q 2625 -106 2341 -106 
Q 1894 -106 1697 -44 
Q 1338 66 1125 241 
Q 913 416 831 591 
Q 722 822 722 1266 
L 722 1481 
L 713 2356 
L 722 3063 
L 722 3538 
Q 722 3719 672 3791 
Q 638 3841 572 3841 
L 388 3838 
Q 181 3838 125 3881 
Q 116 3909 116 3931 
Q 116 3959 134 3975 
Q 169 4000 219 4000 
L 300 4000 
L 509 4003 
L 1003 4003 
L 1825 4013 
z
" transform="scale(0.015625)"/>
        <path id="Garamond-77" d="M -66 2463 
L 1134 2459 
Q 1169 2459 1181 2446 
Q 1194 2434 1194 2409 
Q 1194 2350 1147 2322 
Q 928 2306 875 2268 
Q 822 2231 822 2166 
Q 822 2134 828 2106 
Q 838 2069 919 1884 
Q 1025 1638 1297 1084 
L 1669 328 
Q 1988 884 2184 1363 
L 1994 1863 
Q 1963 1931 1914 2068 
Q 1866 2206 1839 2229 
Q 1813 2253 1647 2300 
Q 1481 2347 1450 2372 
L 1447 2394 
Q 1447 2413 1466 2447 
Q 1541 2466 1584 2466 
L 1763 2463 
L 2153 2463 
L 2272 2466 
L 2656 2459 
Q 2703 2459 2734 2463 
L 2788 2463 
Q 2806 2463 2841 2459 
L 2834 2359 
Q 2788 2331 2678 2319 
Q 2472 2297 2363 2241 
Q 2328 2203 2328 2175 
Q 2328 2106 2366 2003 
Q 2378 1972 2431 1809 
L 2766 928 
Q 2913 534 2991 378 
Q 3122 619 3359 1244 
Q 3444 1463 3584 1766 
Q 3675 1956 3675 2094 
Q 3675 2166 3622 2216 
Q 3569 2266 3375 2309 
Q 3259 2334 3203 2356 
Q 3188 2381 3188 2397 
Q 3188 2425 3222 2459 
L 3269 2459 
L 3522 2463 
Q 3538 2463 3666 2458 
Q 3794 2453 3916 2453 
Q 4009 2453 4131 2459 
L 4288 2459 
Q 4306 2453 4314 2443 
Q 4322 2434 4322 2413 
Q 4322 2378 4313 2338 
Q 4159 2319 4071 2267 
Q 3984 2216 3834 1984 
L 3275 641 
Q 3197 453 3003 66 
Q 2963 -16 2942 -66 
Q 2922 -116 2903 -131 
Q 2884 -147 2853 -147 
Q 2831 -147 2794 -134 
Q 2706 38 2406 813 
Q 2325 1022 2256 1169 
Q 1744 103 1584 -141 
Q 1541 -147 1519 -147 
Q 1497 -147 1456 -141 
L 866 1094 
L 325 2150 
Q 269 2247 238 2269 
Q 184 2303 50 2325 
Q -25 2338 -66 2344 
Q -69 2391 -69 2416 
Q -69 2431 -66 2463 
z
" transform="scale(0.015625)"/>
       </defs>
       <use xlink:href="#Garamond-48"/>
       <use xlink:href="#Garamond-69" x="76.025391"/>
       <use xlink:href="#Garamond-67" x="98.925781"/>
       <use xlink:href="#Garamond-68" x="143.701172"/>
       <use xlink:href="#Garamond-2d" x="194.726562"/>
       <use xlink:href="#Garamond-54" x="225.976562"/>
       <use xlink:href="#Garamond-68" x="288.951172"/>
       <use xlink:href="#Garamond-72" x="339.976562"/>
       <use xlink:href="#Garamond-6f" x="373.326172"/>
       <use xlink:href="#Garamond-75" x="424.351562"/>
       <use xlink:href="#Garamond-67" x="473.326172"/>
       <use xlink:href="#Garamond-68" x="518.101562"/>
       <use xlink:href="#Garamond-70" x="569.126953"/>
       <use xlink:href="#Garamond-75" x="620.152344"/>
       <use xlink:href="#Garamond-74" x="669.126953"/>
       <use xlink:href="#Garamond-20" x="698.277344"/>
       <use xlink:href="#Garamond-53" x="723.277344"/>
       <use xlink:href="#Garamond-65" x="771.177734"/>
       <use xlink:href="#Garamond-71" x="812.828125"/>
       <use xlink:href="#Garamond-75" x="861.802734"/>
       <use xlink:href="#Garamond-65" x="910.777344"/>
       <use xlink:href="#Garamond-6e" x="952.427734"/>
       <use xlink:href="#Garamond-63" x="1003.453125"/>
       <use xlink:href="#Garamond-69" x="1045.103516"/>
       <use xlink:href="#Garamond-6e" x="1068.003906"/>
       <use xlink:href="#Garamond-67" x="1119.029297"/>
       <use xlink:href="#Garamond-20" x="1163.804688"/>
       <use xlink:href="#Garamond-6f" x="1188.804688"/>
       <use xlink:href="#Garamond-66" x="1239.830078"/>
       <use xlink:href="#Garamond-20" x="1285.230469"/>
       <use xlink:href="#Garamond-45" x="1310.230469"/>
       <use xlink:href="#Garamond-6e" x="1375.855469"/>
       <use xlink:href="#Garamond-76" x="1425.505859"/>
       <use xlink:href="#Garamond-69" x="1472.380859"/>
       <use xlink:href="#Garamond-72" x="1495.28125"/>
       <use xlink:href="#Garamond-6f" x="1528.630859"/>
       <use xlink:href="#Garamond-6e" x="1579.65625"/>
       <use xlink:href="#Garamond-6d" x="1630.681641"/>
       <use xlink:href="#Garamond-65" x="1707.78125"/>
       <use xlink:href="#Garamond-6e" x="1749.431641"/>
       <use xlink:href="#Garamond-74" x="1800.457031"/>
       <use xlink:href="#Garamond-61" x="1829.607422"/>
       <use xlink:href="#Garamond-6c" x="1870.232422"/>
       <use xlink:href="#Garamond-20" x="1893.132812"/>
       <use xlink:href="#Garamond-44" x="1918.132812"/>
       <use xlink:href="#Garamond-4e" x="1995.232422"/>
       <use xlink:href="#Garamond-41" x="2072.332031"/>
       <use xlink:href="#Garamond-20" x="2140.056641"/>
       <use xlink:href="#Garamond-61" x="2165.056641"/>
       <use xlink:href="#Garamond-73" x="2205.681641"/>
       <use xlink:href="#Garamond-20" x="2242.15625"/>
       <use xlink:href="#Garamond-61" x="2267.15625"/>
       <use xlink:href="#Garamond-20" x="2307.78125"/>
       <use xlink:href="#Garamond-54" x="2332.78125"/>
       <use xlink:href="#Garamond-6f" x="2386.755859"/>
       <use xlink:href="#Garamond-6f" x="2437.78125"/>
       <use xlink:href="#Garamond-6c" x="2488.806641"/>
       <use xlink:href="#Garamond-20" x="2511.707031"/>
       <use xlink:href="#Garamond-66" x="2536.707031"/>
       <use xlink:href="#Garamond-6f" x="2568.982422"/>
       <use xlink:href="#Garamond-72" x="2620.007812"/>
       <use xlink:href="#Garamond-20" x="2653.357422"/>
       <use xlink:href="#Garamond-4d" x="2678.357422"/>
       <use xlink:href="#Garamond-6f" x="2761.707031"/>
       <use xlink:href="#Garamond-6e" x="2812.732422"/>
       <use xlink:href="#Garamond-69" x="2863.757812"/>
       <use xlink:href="#Garamond-74" x="2886.658203"/>
       <use xlink:href="#Garamond-6f" x="2915.808594"/>
       <use xlink:href="#Garamond-72" x="2966.833984"/>
       <use xlink:href="#Garamond-69" x="3000.183594"/>
       <use xlink:href="#Garamond-6e" x="3023.083984"/>
       <use xlink:href="#Garamond-67" x="3074.109375"/>
       <use xlink:href="#Garamond-20" x="3118.884766"/>
       <use xlink:href="#Garamond-45" x="3143.884766"/>
       <use xlink:href="#Garamond-75" x="3209.509766"/>
       <use xlink:href="#Garamond-6b" x="3258.484375"/>
       <use xlink:href="#Garamond-61" x="3305.359375"/>
       <use xlink:href="#Garamond-72" x="3345.984375"/>
       <use xlink:href="#Garamond-79" x="3382.208984"/>
       <use xlink:href="#Garamond-6f" x="3422.484375"/>
       <use xlink:href="#Garamond-74" x="3473.509766"/>
       <use xlink:href="#Garamond-69" x="3502.660156"/>
       <use xlink:href="#Garamond-63" x="3525.560547"/>
       <use xlink:href="#Garamond-20" x="3567.210938"/>
       <use xlink:href="#Garamond-43" x="3592.210938"/>
       <use xlink:href="#Garamond-6f" x="3655.736328"/>
       <use xlink:href="#Garamond-6d" x="3706.761719"/>
       <use xlink:href="#Garamond-6d" x="3783.861328"/>
       <use xlink:href="#Garamond-75" x="3859.585938"/>
       <use xlink:href="#Garamond-6e" x="3908.560547"/>
       <use xlink:href="#Garamond-69" x="3959.585938"/>
       <use xlink:href="#Garamond-74" x="3982.486328"/>
       <use xlink:href="#Garamond-69" x="4011.636719"/>
       <use xlink:href="#Garamond-65" x="4034.537109"/>
       <use xlink:href="#Garamond-73" x="4076.1875"/>
       <use xlink:href="#Garamond-20" x="4112.662109"/>
       <use xlink:href="#Garamond-61" x="4137.662109"/>
       <use xlink:href="#Garamond-6e" x="4178.287109"/>
       <use xlink:href="#Garamond-64" x="4229.3125"/>
       <use xlink:href="#Garamond-20" x="4279.3125"/>
       <use xlink:href="#Garamond-50" x="4304.3125"/>
       <use xlink:href="#Garamond-6f" x="4356.8125"/>
       <use xlink:href="#Garamond-74" x="4407.837891"/>
       <use xlink:href="#Garamond-65" x="4436.988281"/>
       <use xlink:href="#Garamond-6e" x="4478.638672"/>
       <use xlink:href="#Garamond-74" x="4529.664062"/>
       <use xlink:href="#Garamond-69" x="4558.814453"/>
       <use xlink:href="#Garamond-61" x="4581.714844"/>
       <use xlink:href="#Garamond-6c" x="4622.339844"/>
       <use xlink:href="#Garamond-20" x="4645.240234"/>
       <use xlink:href="#Garamond-50" x="4670.240234"/>
       <use xlink:href="#Garamond-61" x="4723.365234"/>
       <use xlink:href="#Garamond-74" x="4763.990234"/>
       <use xlink:href="#Garamond-68" x="4793.140625"/>
       <use xlink:href="#Garamond-6f" x="4844.166016"/>
       <use xlink:href="#Garamond-67" x="4895.191406"/>
       <use xlink:href="#Garamond-65" x="4941.466797"/>
       <use xlink:href="#Garamond-6e" x="4983.117188"/>
       <use xlink:href="#Garamond-73" x="5034.142578"/>
       <use xlink:href="#Garamond-20" x="5070.617188"/>
       <use xlink:href="#Garamond-69" x="5095.617188"/>
       <use xlink:href="#Garamond-6e" x="5118.517578"/>
       <use xlink:href="#Garamond-20" x="5169.542969"/>
       <use xlink:href="#Garamond-61" x="5194.542969"/>
       <use xlink:href="#Garamond-20" x="5235.167969"/>
       <use xlink:href="#Garamond-43" x="5260.167969"/>
       <use xlink:href="#Garamond-6f" x="5323.693359"/>
       <use xlink:href="#Garamond-61" x="5374.71875"/>
       <use xlink:href="#Garamond-73" x="5415.34375"/>
       <use xlink:href="#Garamond-74" x="5451.818359"/>
       <use xlink:href="#Garamond-61" x="5480.96875"/>
       <use xlink:href="#Garamond-6c" x="5521.59375"/>
       <use xlink:href="#Garamond-20" x="5544.494141"/>
       <use xlink:href="#Garamond-55" x="5569.494141"/>
       <use xlink:href="#Garamond-70" x="5640.34375"/>
       <use xlink:href="#Garamond-77" x="5691.369141"/>
       <use xlink:href="#Garamond-65" x="5756.644531"/>
       <use xlink:href="#Garamond-6c" x="5798.294922"/>
       <use xlink:href="#Garamond-6c" x="5821.195312"/>
       <use xlink:href="#Garamond-69" x="5844.095703"/>
       <use xlink:href="#Garamond-6e" x="5866.996094"/>
       <use xlink:href="#Garamond-67" x="5918.021484"/>
       <use xlink:href="#Garamond-20" x="5962.796875"/>
       <use xlink:href="#Garamond-45" x="5987.796875"/>
       <use xlink:href="#Garamond-63" x="6053.421875"/>
       <use xlink:href="#Garamond-6f" x="6095.072266"/>
       <use xlink:href="#Garamond-73" x="6146.097656"/>
       <use xlink:href="#Garamond-79" x="6182.572266"/>
       <use xlink:href="#Garamond-73" x="6224.222656"/>
       <use xlink:href="#Garamond-74" x="6260.697266"/>
       <use xlink:href="#Garamond-65" x="6289.847656"/>
       <use xlink:href="#Garamond-6d" x="6331.498047"/>
      </g>
     </g>
    </g>
    <g id="ytick_3">
     <g id="line2d_7">
      <g>
       <use xlink:href="#m8002c57c9f" x="672.77" y="254.755" style="stroke: #000000; stroke-width: 0.8"/>
      </g>
     </g>
     <g id="text_8">
      <!-- Ballast Water Management in Ports: Monitoring, Early Warning and Response Measures to Prevent Biodiversity Loss and Risks to Human Health -->
      <g transform="translate(103.416875 258.046406) scale(0.1 -0.1)">
       <defs>
        <path id="Garamond-42" d="M 84 3872 
L 84 3969 
Q 138 3981 169 3984 
L 463 4000 
Q 828 4031 1281 4050 
Q 1463 4056 1853 4056 
Q 2384 4056 2631 3978 
Q 2991 3863 3167 3630 
Q 3344 3397 3344 3113 
Q 3344 2650 2684 2334 
L 2669 2309 
Q 3006 2219 3222 2056 
Q 3438 1894 3553 1659 
Q 3638 1488 3638 1209 
Q 3638 744 3214 380 
Q 2791 16 2047 16 
L 1581 16 
L 1109 0 
Q 484 -6 378 -6 
Q 269 -6 163 3 
L 163 38 
Q 163 75 178 91 
Q 197 109 250 122 
Q 641 203 692 233 
Q 744 263 763 328 
Q 800 453 800 972 
Q 800 1019 797 1091 
Q 791 1300 791 1331 
L 791 1656 
Q 791 2481 772 3097 
L 769 3725 
L 766 3803 
Q 500 3841 297 3850 
Q 166 3853 84 3872 
z
M 1325 2291 
Q 1481 2259 1653 2259 
Q 2328 2259 2568 2556 
Q 2809 2853 2809 3147 
Q 2809 3278 2767 3414 
Q 2725 3550 2617 3659 
Q 2509 3769 2350 3822 
Q 2078 3913 1794 3913 
Q 1528 3913 1300 3853 
Q 1297 3788 1297 3756 
Q 1297 3725 1303 3578 
Q 1306 3484 1306 3391 
L 1297 3013 
L 1300 2788 
L 1322 2347 
L 1325 2291 
z
M 2059 166 
Q 2369 188 2578 297 
Q 2675 347 2808 476 
Q 2941 606 3014 787 
Q 3088 969 3088 1138 
Q 3088 1266 3036 1453 
Q 2984 1641 2861 1783 
Q 2738 1925 2494 2017 
Q 2250 2109 1956 2109 
Q 1388 2109 1319 2088 
Q 1316 2016 1316 1981 
L 1319 1866 
L 1316 1631 
L 1316 1366 
Q 1325 631 1350 497 
Q 1375 363 1520 266 
Q 1666 169 2059 166 
z
" transform="scale(0.015625)"/>
        <path id="Garamond-57" d="M -59 3875 
L -63 3925 
Q -19 3981 184 3981 
L 475 3978 
L 644 3975 
L 719 3978 
Q 1128 3978 1213 3966 
Q 1216 3928 1216 3909 
Q 1216 3881 1209 3828 
L 906 3816 
Q 884 3813 847 3800 
Q 834 3769 834 3753 
Q 834 3734 853 3694 
Q 878 3641 900 3581 
L 1097 3031 
L 1566 1856 
Q 1647 1641 1675 1578 
Q 1763 1381 1897 1028 
Q 1944 906 2122 500 
Q 2131 475 2159 419 
Q 2300 647 2572 1216 
Q 2784 1653 2838 1819 
L 2813 1881 
L 2275 3100 
Q 2169 3328 2109 3463 
Q 1988 3744 1931 3784 
Q 1875 3825 1600 3841 
L 1534 3856 
Q 1509 3884 1509 3922 
Q 1516 3950 1538 3966 
Q 1638 3969 1678 3969 
L 1875 3963 
L 1975 3966 
L 2147 3966 
L 2300 3969 
L 2463 3969 
L 2756 3984 
Q 2784 3984 2841 3981 
L 2891 3984 
Q 2934 3984 2956 3964 
Q 2978 3944 2978 3919 
Q 2978 3897 2966 3869 
Q 2916 3850 2788 3838 
Q 2603 3816 2573 3797 
Q 2544 3778 2544 3747 
Q 2544 3688 2784 3119 
L 3103 2397 
Q 3250 2684 3503 3303 
Q 3609 3559 3609 3681 
Q 3609 3747 3556 3800 
Q 3516 3838 3375 3850 
L 3309 3859 
L 3253 3884 
L 3250 3909 
Q 3250 3928 3266 3963 
Q 3297 3988 3322 3991 
Q 3369 3997 3756 3975 
L 3969 3975 
L 4100 3972 
L 4319 3975 
Q 4344 3972 4394 3959 
Q 4419 3934 4419 3913 
Q 4419 3878 4392 3856 
Q 4366 3834 4272 3819 
Q 4034 3778 3916 3694 
Q 3838 3634 3775 3525 
L 3547 3019 
Q 3466 2788 3413 2672 
Q 3391 2600 3331 2481 
L 3203 2184 
Q 3238 2103 3319 1922 
L 3641 1175 
Q 3663 1125 3770 897 
Q 3878 669 3950 475 
L 3997 625 
L 4003 641 
L 4194 1138 
Q 4294 1366 4394 1619 
L 4634 2225 
L 4997 3256 
Q 5053 3434 5088 3600 
L 5097 3650 
Q 5106 3684 5106 3700 
Q 5106 3744 5062 3780 
Q 5019 3816 4753 3878 
Q 4728 3888 4703 3906 
Q 4694 3944 4694 3966 
L 4697 3988 
Q 4828 3994 4863 3994 
L 5103 3988 
L 5375 3991 
L 5609 3991 
L 5703 3984 
L 5706 3953 
Q 5706 3931 5700 3888 
Q 5475 3800 5420 3762 
Q 5366 3725 5336 3681 
Q 5306 3638 5225 3444 
Q 5216 3425 5028 2881 
Q 4988 2800 4944 2666 
Q 4931 2628 4891 2531 
L 4841 2406 
L 4806 2316 
Q 4600 1747 4353 1125 
L 4016 188 
L 3881 -169 
Q 3831 -175 3806 -175 
Q 3784 -175 3744 -172 
Q 3703 -56 3566 266 
Q 3209 1084 2925 1625 
L 2888 1563 
Q 2728 1259 2503 759 
L 2259 266 
Q 2109 -50 2016 -172 
L 1881 -175 
L 1375 1063 
L 956 2044 
L 588 2975 
Q 550 3066 522 3147 
Q 500 3206 481 3269 
Q 450 3366 306 3709 
Q 250 3800 125 3825 
Q 0 3850 -59 3875 
z
" transform="scale(0.015625)"/>
        <path id="Garamond-3a" d="M 366 2163 
Q 366 2281 464 2381 
Q 563 2481 691 2481 
Q 828 2481 931 2378 
Q 1034 2275 1034 2141 
Q 1034 1988 916 1863 
Q 838 1775 684 1775 
Q 547 1775 456 1875 
Q 366 1975 366 2163 
z
M 381 259 
Q 381 397 482 500 
Q 584 603 719 603 
Q 847 603 939 506 
Q 1031 409 1031 263 
Q 1031 116 936 16 
Q 841 -84 706 -84 
Q 550 -84 465 33 
Q 381 150 381 259 
z
" transform="scale(0.015625)"/>
        <path id="Garamond-4c" d="M 34 -19 
Q 38 28 59 66 
Q 303 131 534 153 
Q 688 166 731 222 
Q 763 263 769 522 
L 791 1347 
L 788 1906 
L 791 2638 
L 791 2831 
Q 794 3491 784 3653 
Q 781 3684 759 3741 
Q 678 3778 623 3790 
Q 569 3803 134 3881 
Q 131 3916 131 3931 
Q 131 3950 134 3981 
Q 194 3981 328 3975 
L 803 3959 
L 1078 3953 
L 1159 3956 
Q 1175 3956 1250 3950 
Q 1434 3950 1463 3953 
L 1713 3972 
Q 1966 3972 2069 3963 
Q 2066 3906 2047 3841 
Q 2013 3834 1722 3823 
Q 1431 3813 1388 3788 
Q 1316 3747 1316 3538 
Q 1316 3488 1309 3334 
L 1309 3147 
L 1313 2569 
L 1313 2372 
L 1319 1338 
L 1309 456 
L 1313 263 
Q 1313 169 1344 147 
Q 1422 144 1803 141 
L 2016 141 
L 2556 159 
Q 2769 166 2859 202 
Q 2950 238 3163 413 
Q 3291 525 3363 644 
Q 3378 669 3416 719 
Q 3475 800 3575 1044 
L 3678 1044 
Q 3659 931 3638 831 
Q 3547 391 3513 97 
Q 3506 34 3500 -19 
L 2331 16 
Q 825 16 544 -13 
Q 456 -19 359 -19 
L 34 -19 
z
" transform="scale(0.015625)"/>
       </defs>
       <use xlink:href="#Garamond-42"/>
       <use xlink:href="#Garamond-61" x="61.474609"/>
       <use xlink:href="#Garamond-6c" x="102.099609"/>
       <use xlink:href="#Garamond-6c" x="125"/>
       <use xlink:href="#Garamond-61" x="147.900391"/>
       <use xlink:href="#Garamond-73" x="188.525391"/>
       <use xlink:href="#Garamond-74" x="225"/>
       <use xlink:href="#Garamond-20" x="254.150391"/>
       <use xlink:href="#Garamond-57" x="279.150391"/>
       <use xlink:href="#Garamond-61" x="360.175781"/>
       <use xlink:href="#Garamond-74" x="400.800781"/>
       <use xlink:href="#Garamond-65" x="429.951172"/>
       <use xlink:href="#Garamond-72" x="471.601562"/>
       <use xlink:href="#Garamond-20" x="504.951172"/>
       <use xlink:href="#Garamond-4d" x="529.951172"/>
       <use xlink:href="#Garamond-61" x="613.300781"/>
       <use xlink:href="#Garamond-6e" x="653.925781"/>
       <use xlink:href="#Garamond-61" x="704.951172"/>
       <use xlink:href="#Garamond-67" x="745.576172"/>
       <use xlink:href="#Garamond-65" x="791.851562"/>
       <use xlink:href="#Garamond-6d" x="833.501953"/>
       <use xlink:href="#Garamond-65" x="910.601562"/>
       <use xlink:href="#Garamond-6e" x="952.251953"/>
       <use xlink:href="#Garamond-74" x="1003.277344"/>
       <use xlink:href="#Garamond-20" x="1032.427734"/>
       <use xlink:href="#Garamond-69" x="1057.427734"/>
       <use xlink:href="#Garamond-6e" x="1080.328125"/>
       <use xlink:href="#Garamond-20" x="1131.353516"/>
       <use xlink:href="#Garamond-50" x="1156.353516"/>
       <use xlink:href="#Garamond-6f" x="1208.853516"/>
       <use xlink:href="#Garamond-72" x="1259.878906"/>
       <use xlink:href="#Garamond-74" x="1295.228516"/>
       <use xlink:href="#Garamond-73" x="1324.378906"/>
       <use xlink:href="#Garamond-3a" x="1360.853516"/>
       <use xlink:href="#Garamond-20" x="1382.728516"/>
       <use xlink:href="#Garamond-4d" x="1407.728516"/>
       <use xlink:href="#Garamond-6f" x="1491.078125"/>
       <use xlink:href="#Garamond-6e" x="1542.103516"/>
       <use xlink:href="#Garamond-69" x="1593.128906"/>
       <use xlink:href="#Garamond-74" x="1616.029297"/>
       <use xlink:href="#Garamond-6f" x="1645.179688"/>
       <use xlink:href="#Garamond-72" x="1696.205078"/>
       <use xlink:href="#Garamond-69" x="1729.554688"/>
       <use xlink:href="#Garamond-6e" x="1752.455078"/>
       <use xlink:href="#Garamond-67" x="1803.480469"/>
       <use xlink:href="#Garamond-2c" x="1848.255859"/>
       <use xlink:href="#Garamond-20" x="1870.130859"/>
       <use xlink:href="#Garamond-45" x="1895.130859"/>
       <use xlink:href="#Garamond-61" x="1960.755859"/>
       <use xlink:href="#Garamond-72" x="2001.380859"/>
       <use xlink:href="#Garamond-6c" x="2034.730469"/>
       <use xlink:href="#Garamond-79" x="2057.630859"/>
       <use xlink:href="#Garamond-20" x="2099.28125"/>
       <use xlink:href="#Garamond-57" x="2124.28125"/>
       <use xlink:href="#Garamond-61" x="2205.306641"/>
       <use xlink:href="#Garamond-72" x="2245.931641"/>
       <use xlink:href="#Garamond-6e" x="2281.28125"/>
       <use xlink:href="#Garamond-69" x="2332.306641"/>
       <use xlink:href="#Garamond-6e" x="2355.207031"/>
       <use xlink:href="#Garamond-67" x="2406.232422"/>
       <use xlink:href="#Garamond-20" x="2451.007812"/>
       <use xlink:href="#Garamond-61" x="2476.007812"/>
       <use xlink:href="#Garamond-6e" x="2516.632812"/>
       <use xlink:href="#Garamond-64" x="2567.658203"/>
       <use xlink:href="#Garamond-20" x="2617.658203"/>
       <use xlink:href="#Garamond-52" x="2642.658203"/>
       <use xlink:href="#Garamond-65" x="2702.658203"/>
       <use xlink:href="#Garamond-73" x="2744.308594"/>
       <use xlink:href="#Garamond-70" x="2780.783203"/>
       <use xlink:href="#Garamond-6f" x="2831.808594"/>
       <use xlink:href="#Garamond-6e" x="2882.833984"/>
       <use xlink:href="#Garamond-73" x="2933.859375"/>
       <use xlink:href="#Garamond-65" x="2970.333984"/>
       <use xlink:href="#Garamond-20" x="3011.984375"/>
       <use xlink:href="#Garamond-4d" x="3036.984375"/>
       <use xlink:href="#Garamond-65" x="3120.333984"/>
       <use xlink:href="#Garamond-61" x="3161.984375"/>
       <use xlink:href="#Garamond-73" x="3202.609375"/>
       <use xlink:href="#Garamond-75" x="3239.083984"/>
       <use xlink:href="#Garamond-72" x="3288.058594"/>
       <use xlink:href="#Garamond-65" x="3321.408203"/>
       <use xlink:href="#Garamond-73" x="3363.058594"/>
       <use xlink:href="#Garamond-20" x="3399.533203"/>
       <use xlink:href="#Garamond-74" x="3424.533203"/>
       <use xlink:href="#Garamond-6f" x="3453.683594"/>
       <use xlink:href="#Garamond-20" x="3504.708984"/>
       <use xlink:href="#Garamond-50" x="3529.708984"/>
       <use xlink:href="#Garamond-72" x="3585.958984"/>
       <use xlink:href="#Garamond-65" x="3619.308594"/>
       <use xlink:href="#Garamond-76" x="3660.958984"/>
       <use xlink:href="#Garamond-65" x="3705.958984"/>
       <use xlink:href="#Garamond-6e" x="3747.609375"/>
       <use xlink:href="#Garamond-74" x="3798.634766"/>
       <use xlink:href="#Garamond-20" x="3827.785156"/>
       <use xlink:href="#Garamond-42" x="3852.785156"/>
       <use xlink:href="#Garamond-69" x="3914.259766"/>
       <use xlink:href="#Garamond-6f" x="3937.160156"/>
       <use xlink:href="#Garamond-64" x="3988.185547"/>
       <use xlink:href="#Garamond-69" x="4038.185547"/>
       <use xlink:href="#Garamond-76" x="4059.710938"/>
       <use xlink:href="#Garamond-65" x="4104.710938"/>
       <use xlink:href="#Garamond-72" x="4146.361328"/>
       <use xlink:href="#Garamond-73" x="4179.710938"/>
       <use xlink:href="#Garamond-69" x="4216.185547"/>
       <use xlink:href="#Garamond-74" x="4239.085938"/>
       <use xlink:href="#Garamond-79" x="4268.236328"/>
       <use xlink:href="#Garamond-20" x="4309.886719"/>
       <use xlink:href="#Garamond-4c" x="4334.886719"/>
       <use xlink:href="#Garamond-6f" x="4392.162109"/>
       <use xlink:href="#Garamond-73" x="4443.1875"/>
       <use xlink:href="#Garamond-73" x="4479.662109"/>
       <use xlink:href="#Garamond-20" x="4516.136719"/>
       <use xlink:href="#Garamond-61" x="4541.136719"/>
       <use xlink:href="#Garamond-6e" x="4581.761719"/>
       <use xlink:href="#Garamond-64" x="4632.787109"/>
       <use xlink:href="#Garamond-20" x="4682.787109"/>
       <use xlink:href="#Garamond-52" x="4707.787109"/>
       <use xlink:href="#Garamond-69" x="4770.287109"/>
       <use xlink:href="#Garamond-73" x="4793.1875"/>
       <use xlink:href="#Garamond-6b" x="4829.662109"/>
       <use xlink:href="#Garamond-73" x="4876.537109"/>
       <use xlink:href="#Garamond-20" x="4913.011719"/>
       <use xlink:href="#Garamond-74" x="4938.011719"/>
       <use xlink:href="#Garamond-6f" x="4967.162109"/>
       <use xlink:href="#Garamond-20" x="5018.1875"/>
       <use xlink:href="#Garamond-48" x="5043.1875"/>
       <use xlink:href="#Garamond-75" x="5119.212891"/>
       <use xlink:href="#Garamond-6d" x="5168.1875"/>
       <use xlink:href="#Garamond-61" x="5245.287109"/>
       <use xlink:href="#Garamond-6e" x="5285.912109"/>
       <use xlink:href="#Garamond-20" x="5336.9375"/>
       <use xlink:href="#Garamond-48" x="5361.9375"/>
       <use xlink:href="#Garamond-65" x="5437.962891"/>
       <use xlink:href="#Garamond-61" x="5479.613281"/>
       <use xlink:href="#Garamond-6c" x="5520.238281"/>
       <use xlink:href="#Garamond-74" x="5543.138672"/>
       <use xlink:href="#Garamond-68" x="5572.289062"/>
      </g>
     </g>
    </g>
    <g id="ytick_4">
     <g id="line2d_8">
      <g>
       <use xlink:href="#m8002c57c9f" x="672.77" y="345.905" style="stroke: #000000; stroke-width: 0.8"/>
      </g>
     </g>
     <g id="text_9">
      <!-- Identifying potentially invasive non-native marine and brackish water species for the Arabian Gulf and Sea of Oman -->
      <g transform="translate(214.654375 349.19875) scale(0.1 -0.1)">
       <defs>
        <path id="Garamond-49" d="M 134 100 
Q 203 128 275 134 
Q 753 166 822 248 
Q 891 331 891 1050 
L 888 1378 
L 888 1722 
L 875 2100 
L 881 2322 
L 878 2566 
L 878 2853 
L 872 2981 
L 878 3144 
Q 881 3200 881 3275 
Q 881 3472 863 3691 
Q 850 3734 828 3775 
Q 713 3834 455 3854 
Q 197 3875 163 3900 
Q 138 3919 134 3997 
L 397 3997 
L 1225 3978 
Q 1544 3978 2075 3997 
Q 2075 3947 2069 3903 
Q 2006 3888 1859 3869 
Q 1563 3834 1497 3803 
Q 1456 3788 1438 3750 
Q 1406 3694 1400 3541 
L 1384 3138 
L 1397 1747 
L 1397 1197 
Q 1391 938 1391 844 
Q 1391 494 1408 397 
Q 1425 300 1467 258 
Q 1509 216 1606 191 
Q 1750 156 1831 153 
Q 2006 147 2053 103 
Q 2063 63 2063 34 
L 2063 9 
Q 1778 0 1644 0 
Q 1566 0 1366 9 
L 934 3 
L 200 6 
L 141 6 
L 134 100 
z
" transform="scale(0.015625)"/>
        <path id="Garamond-4f" d="M 294 1997 
Q 294 2316 370 2564 
Q 447 2813 628 3103 
Q 809 3394 1065 3589 
Q 1322 3784 1775 3934 
Q 2094 4038 2581 4038 
Q 2909 4038 3223 3950 
Q 3538 3863 3794 3706 
Q 4050 3550 4306 3225 
Q 4484 3000 4575 2741 
Q 4694 2400 4694 2038 
Q 4694 1625 4614 1353 
Q 4534 1081 4347 816 
Q 4200 609 3844 341 
Q 3606 159 3253 48 
Q 2900 -63 2491 -63 
Q 2075 -63 1750 34 
Q 1425 131 1208 270 
Q 991 409 761 681 
Q 531 953 412 1281 
Q 294 1609 294 1997 
z
M 2463 53 
Q 2725 53 3008 126 
Q 3291 200 3509 370 
Q 3728 541 3851 758 
Q 3975 975 4050 1315 
Q 4125 1656 4125 1997 
Q 4125 2422 4000 2838 
Q 3903 3153 3684 3401 
Q 3466 3650 3156 3786 
Q 2847 3922 2497 3922 
Q 2213 3922 1941 3828 
Q 1669 3734 1494 3589 
Q 1319 3444 1169 3176 
Q 1019 2909 941 2587 
Q 863 2266 863 2019 
Q 863 1759 941 1431 
Q 1019 1103 1155 862 
Q 1291 622 1489 436 
Q 1688 250 1934 151 
Q 2181 53 2463 53 
z
" transform="scale(0.015625)"/>
       </defs>
       <use xlink:href="#Garamond-49"/>
       <use xlink:href="#Garamond-64" x="35.400391"/>
       <use xlink:href="#Garamond-65" x="85.400391"/>
       <use xlink:href="#Garamond-6e" x="127.050781"/>
       <use xlink:href="#Garamond-74" x="178.076172"/>
       <use xlink:href="#Garamond-69" x="207.226562"/>
       <use xlink:href="#Garamond-66" x="230.126953"/>
       <use xlink:href="#Garamond-79" x="262.402344"/>
       <use xlink:href="#Garamond-69" x="304.052734"/>
       <use xlink:href="#Garamond-6e" x="326.953125"/>
       <use xlink:href="#Garamond-67" x="377.978516"/>
       <use xlink:href="#Garamond-20" x="422.753906"/>
       <use xlink:href="#Garamond-70" x="447.753906"/>
       <use xlink:href="#Garamond-6f" x="498.779297"/>
       <use xlink:href="#Garamond-74" x="549.804688"/>
       <use xlink:href="#Garamond-65" x="578.955078"/>
       <use xlink:href="#Garamond-6e" x="620.605469"/>
       <use xlink:href="#Garamond-74" x="671.630859"/>
       <use xlink:href="#Garamond-69" x="700.78125"/>
       <use xlink:href="#Garamond-61" x="723.681641"/>
       <use xlink:href="#Garamond-6c" x="764.306641"/>
       <use xlink:href="#Garamond-6c" x="787.207031"/>
       <use xlink:href="#Garamond-79" x="810.107422"/>
       <use xlink:href="#Garamond-20" x="851.757812"/>
       <use xlink:href="#Garamond-69" x="876.757812"/>
       <use xlink:href="#Garamond-6e" x="899.658203"/>
       <use xlink:href="#Garamond-76" x="949.308594"/>
       <use xlink:href="#Garamond-61" x="994.308594"/>
       <use xlink:href="#Garamond-73" x="1034.933594"/>
       <use xlink:href="#Garamond-69" x="1071.408203"/>
       <use xlink:href="#Garamond-76" x="1092.933594"/>
       <use xlink:href="#Garamond-65" x="1137.933594"/>
       <use xlink:href="#Garamond-20" x="1179.583984"/>
       <use xlink:href="#Garamond-6e" x="1204.583984"/>
       <use xlink:href="#Garamond-6f" x="1255.609375"/>
       <use xlink:href="#Garamond-6e" x="1306.634766"/>
       <use xlink:href="#Garamond-2d" x="1357.660156"/>
       <use xlink:href="#Garamond-6e" x="1388.910156"/>
       <use xlink:href="#Garamond-61" x="1439.935547"/>
       <use xlink:href="#Garamond-74" x="1480.560547"/>
       <use xlink:href="#Garamond-69" x="1509.710938"/>
       <use xlink:href="#Garamond-76" x="1531.236328"/>
       <use xlink:href="#Garamond-65" x="1576.236328"/>
       <use xlink:href="#Garamond-20" x="1617.886719"/>
       <use xlink:href="#Garamond-6d" x="1642.886719"/>
       <use xlink:href="#Garamond-61" x="1719.986328"/>
       <use xlink:href="#Garamond-72" x="1760.611328"/>
       <use xlink:href="#Garamond-69" x="1793.960938"/>
       <use xlink:href="#Garamond-6e" x="1816.861328"/>
       <use xlink:href="#Garamond-65" x="1867.886719"/>
       <use xlink:href="#Garamond-20" x="1909.537109"/>
       <use xlink:href="#Garamond-61" x="1934.537109"/>
       <use xlink:href="#Garamond-6e" x="1975.162109"/>
       <use xlink:href="#Garamond-64" x="2026.1875"/>
       <use xlink:href="#Garamond-20" x="2076.1875"/>
       <use xlink:href="#Garamond-62" x="2101.1875"/>
       <use xlink:href="#Garamond-72" x="2152.212891"/>
       <use xlink:href="#Garamond-61" x="2185.5625"/>
       <use xlink:href="#Garamond-63" x="2226.1875"/>
       <use xlink:href="#Garamond-6b" x="2266.462891"/>
       <use xlink:href="#Garamond-69" x="2313.337891"/>
       <use xlink:href="#Garamond-73" x="2336.238281"/>
       <use xlink:href="#Garamond-68" x="2372.712891"/>
       <use xlink:href="#Garamond-20" x="2423.738281"/>
       <use xlink:href="#Garamond-77" x="2448.738281"/>
       <use xlink:href="#Garamond-61" x="2514.013672"/>
       <use xlink:href="#Garamond-74" x="2554.638672"/>
       <use xlink:href="#Garamond-65" x="2583.789062"/>
       <use xlink:href="#Garamond-72" x="2625.439453"/>
       <use xlink:href="#Garamond-20" x="2658.789062"/>
       <use xlink:href="#Garamond-73" x="2683.789062"/>
       <use xlink:href="#Garamond-70" x="2720.263672"/>
       <use xlink:href="#Garamond-65" x="2771.289062"/>
       <use xlink:href="#Garamond-63" x="2812.939453"/>
       <use xlink:href="#Garamond-69" x="2854.589844"/>
       <use xlink:href="#Garamond-65" x="2877.490234"/>
       <use xlink:href="#Garamond-73" x="2919.140625"/>
       <use xlink:href="#Garamond-20" x="2955.615234"/>
       <use xlink:href="#Garamond-66" x="2980.615234"/>
       <use xlink:href="#Garamond-6f" x="3012.890625"/>
       <use xlink:href="#Garamond-72" x="3063.916016"/>
       <use xlink:href="#Garamond-20" x="3097.265625"/>
       <use xlink:href="#Garamond-74" x="3122.265625"/>
       <use xlink:href="#Garamond-68" x="3151.416016"/>
       <use xlink:href="#Garamond-65" x="3202.441406"/>
       <use xlink:href="#Garamond-20" x="3244.091797"/>
       <use xlink:href="#Garamond-41" x="3269.091797"/>
       <use xlink:href="#Garamond-72" x="3336.816406"/>
       <use xlink:href="#Garamond-61" x="3370.166016"/>
       <use xlink:href="#Garamond-62" x="3410.791016"/>
       <use xlink:href="#Garamond-69" x="3461.816406"/>
       <use xlink:href="#Garamond-61" x="3484.716797"/>
       <use xlink:href="#Garamond-6e" x="3525.341797"/>
       <use xlink:href="#Garamond-20" x="3576.367188"/>
       <use xlink:href="#Garamond-47" x="3601.367188"/>
       <use xlink:href="#Garamond-75" x="3678.466797"/>
       <use xlink:href="#Garamond-6c" x="3727.441406"/>
       <use xlink:href="#Garamond-66" x="3750.341797"/>
       <use xlink:href="#Garamond-20" x="3795.742188"/>
       <use xlink:href="#Garamond-61" x="3820.742188"/>
       <use xlink:href="#Garamond-6e" x="3861.367188"/>
       <use xlink:href="#Garamond-64" x="3912.392578"/>
       <use xlink:href="#Garamond-20" x="3962.392578"/>
       <use xlink:href="#Garamond-53" x="3987.392578"/>
       <use xlink:href="#Garamond-65" x="4035.292969"/>
       <use xlink:href="#Garamond-61" x="4076.943359"/>
       <use xlink:href="#Garamond-20" x="4117.568359"/>
       <use xlink:href="#Garamond-6f" x="4142.568359"/>
       <use xlink:href="#Garamond-66" x="4193.59375"/>
       <use xlink:href="#Garamond-20" x="4238.994141"/>
       <use xlink:href="#Garamond-4f" x="4263.994141"/>
       <use xlink:href="#Garamond-6d" x="4342.119141"/>
       <use xlink:href="#Garamond-61" x="4419.21875"/>
       <use xlink:href="#Garamond-6e" x="4459.84375"/>
      </g>
     </g>
    </g>
    <g id="text_10">
     <!-- Article Title -->
     <g transform="translate(18.312187 232.401875) rotate(-90) scale(0.1 -0.1)">
      <use xlink:href="#Garamond-41"/>
      <use xlink:href="#Garamond-72" x="67.724609"/>
      <use xlink:href="#Garamond-74" x="103.074219"/>
      <use xlink:href="#Garamond-69" x="132.224609"/>
      <use xlink:href="#Garamond-63" x="155.125"/>
      <use xlink:href="#Garamond-6c" x="196.775391"/>
      <use xlink:href="#Garamond-65" x="219.675781"/>
      <use xlink:href="#Garamond-20" x="261.326172"/>
      <use xlink:href="#Garamond-54" x="286.326172"/>
      <use xlink:href="#Garamond-69" x="347.800781"/>
      <use xlink:href="#Garamond-74" x="370.701172"/>
      <use xlink:href="#Garamond-6c" x="399.851562"/>
      <use xlink:href="#Garamond-65" x="422.751953"/>
     </g>
    </g>
   </g>
   <g id="line2d_9">
    <path clip-path="url(#p9a204243f4)" style="fill: none; stroke: #424242; stroke-width: 2.7; stroke-linecap: square"/>
   </g>
   <g id="line2d_10">
    <path clip-path="url(#p9a204243f4)" style="fill: none; stroke: #424242; stroke-width: 2.7; stroke-linecap: square"/>
   </g>
   <g id="line2d_11">
    <path clip-path="url(#p9a204243f4)" style="fill: none; stroke: #424242; stroke-width: 2.7; stroke-linecap: square"/>
   </g>
   <g id="line2d_12">
    <path clip-path="url(#p9a204243f4)" style="fill: none; stroke: #424242; stroke-width: 2.7; stroke-linecap: square"/>
   </g>
   <g id="patch_7">
    <path d="M 672.77 391.48 
L 672.77 26.88 
" style="fill: none; stroke: #000000; stroke-width: 0.8; stroke-linejoin: miter; stroke-linecap: square"/>
   </g>
   <g id="patch_8">
    <path d="M 853.2 391.48 
L 853.2 26.88 
" style="fill: none; stroke: #000000; stroke-width: 0.8; stroke-linejoin: miter; stroke-linecap: square"/>
   </g>
   <g id="patch_9">
    <path d="M 672.77 391.48 
L 853.2 391.48 
" style="fill: none; stroke: #000000; stroke-width: 0.8; stroke-linejoin: miter; stroke-linecap: square"/>
   </g>
   <g id="patch_10">
    <path d="M 672.77 26.88 
L 853.2 26.88 
" style="fill: none; stroke: #000000; stroke-width: 0.8; stroke-linejoin: miter; stroke-linecap: square"/>
   </g>
   <g id="text_11">
    <!-- Top 10 Relevant Articles -->
    <g transform="translate(686.615 20.88) scale(0.16 -0.16)">
     <use xlink:href="#Garamond-54"/>
     <use xlink:href="#Garamond-6f" x="53.974609"/>
     <use xlink:href="#Garamond-70" x="105"/>
     <use xlink:href="#Garamond-20" x="156.025391"/>
     <use xlink:href="#Garamond-31" x="181.025391"/>
     <use xlink:href="#Garamond-30" x="227.900391"/>
     <use xlink:href="#Garamond-20" x="274.775391"/>
     <use xlink:href="#Garamond-52" x="299.775391"/>
     <use xlink:href="#Garamond-65" x="359.775391"/>
     <use xlink:href="#Garamond-6c" x="401.425781"/>
     <use xlink:href="#Garamond-65" x="424.326172"/>
     <use xlink:href="#Garamond-76" x="465.976562"/>
     <use xlink:href="#Garamond-61" x="510.976562"/>
     <use xlink:href="#Garamond-6e" x="551.601562"/>
     <use xlink:href="#Garamond-74" x="602.626953"/>
     <use xlink:href="#Garamond-20" x="631.777344"/>
     <use xlink:href="#Garamond-41" x="656.777344"/>
     <use xlink:href="#Garamond-72" x="724.501953"/>
     <use xlink:href="#Garamond-74" x="759.851562"/>
     <use xlink:href="#Garamond-69" x="789.001953"/>
     <use xlink:href="#Garamond-63" x="811.902344"/>
     <use xlink:href="#Garamond-6c" x="853.552734"/>
     <use xlink:href="#Garamond-65" x="876.453125"/>
     <use xlink:href="#Garamond-73" x="918.103516"/>
    </g>
   </g>
  </g>
 </g>
 <defs>
  <clipPath id="p9a204243f4">
   <rect x="672.77" y="26.88" width="180.43" height="364.6"/>
  </clipPath>
 </defs>
</svg>
