<?xml version="1.0" encoding="utf-8" standalone="no"?>
<!DOCTYPE svg PUBLIC "-//W3C//DTD SVG 1.1//EN"
  "http://www.w3.org/Graphics/SVG/1.1/DTD/svg11.dtd">
<svg xmlns:xlink="http://www.w3.org/1999/xlink" width="864pt" height="432pt" viewBox="0 0 864 432" xmlns="http://www.w3.org/2000/svg" version="1.1">
 <metadata>
  <rdf:RDF xmlns:dc="http://purl.org/dc/elements/1.1/" xmlns:cc="http://creativecommons.org/ns#" xmlns:rdf="http://www.w3.org/1999/02/22-rdf-syntax-ns#">
   <cc:Work>
    <dc:type rdf:resource="http://purl.org/dc/dcmitype/StillImage"/>
    <dc:date>2024-12-23T12:53:46.084793</dc:date>
    <dc:format>image/svg+xml</dc:format>
    <dc:creator>
     <cc:Agent>
      <dc:title>Matplotlib v3.9.3, https://matplotlib.org/</dc:title>
     </cc:Agent>
    </dc:creator>
   </cc:Work>
  </rdf:RDF>
 </metadata>
 <defs>
  <style type="text/css">*{stroke-linejoin: round; stroke-linecap: butt}</style>
 </defs>
 <g id="figure_1">
  <g id="patch_1">
   <path d="M 0 432 
L 864 432 
L 864 0 
L 0 0 
z
" style="fill: #ffffff"/>
  </g>
  <g id="axes_1">
   <g id="patch_2">
    <path d="M 47.36 391.48 
L 853.2 391.48 
L 853.2 26.88 
L 47.36 26.88 
z
" style="fill: #ffffff"/>
   </g>
   <g id="PathCollection_1">
    <path d="M 83.989091 47.695368 
C 85.114252 47.695368 86.193482 47.248337 86.989091 46.452727 
C 87.7847 45.657118 88.231732 44.577889 88.231732 43.452727 
C 88.231732 42.327566 87.7847 41.248337 86.989091 40.452727 
C 86.193482 39.657118 85.114252 39.210087 83.989091 39.210087 
C 82.863929 39.210087 81.7847 39.657118 80.989091 40.452727 
C 80.193482 41.248337 79.74645 42.327566 79.74645 43.452727 
C 79.74645 44.577889 80.193482 45.657118 80.989091 46.452727 
C 81.7847 47.248337 82.863929 47.695368 83.989091 47.695368 
z
" clip-path="url(#p7edfa7fef1)" style="fill: #fde725; stroke: #ffffff; stroke-width: 0.355596"/>
    <path d="M 122.546029 49.985029 
C 123.668258 49.985029 124.744674 49.539162 125.53821 48.745627 
C 126.331745 47.952091 126.777611 46.875675 126.777611 45.753446 
C 126.777611 44.631217 126.331745 43.554801 125.53821 42.761265 
C 124.744674 41.967729 123.668258 41.521863 122.546029 41.521863 
C 121.4238 41.521863 120.347383 41.967729 119.553848 42.761265 
C 118.760312 43.554801 118.314446 44.631217 118.314446 45.753446 
C 118.314446 46.875675 118.760312 47.952091 119.553848 48.745627 
C 120.347383 49.539162 121.4238 49.985029 122.546029 49.985029 
z
" clip-path="url(#p7edfa7fef1)" style="fill: #fbe723; stroke: #ffffff; stroke-width: 0.355596"/>
    <path d="M 161.102967 201.090918 
C 162.010833 201.090918 162.881638 200.730219 163.523596 200.08826 
C 164.165554 199.446302 164.526253 198.575497 164.526253 197.667631 
C 164.526253 196.759765 164.165554 195.88896 163.523596 195.247001 
C 162.881638 194.605043 162.010833 194.244344 161.102967 194.244344 
C 160.1951 194.244344 159.324295 194.605043 158.682337 195.247001 
C 158.040379 195.88896 157.67968 196.759765 157.67968 197.667631 
C 157.67968 198.575497 158.040379 199.446302 158.682337 200.08826 
C 159.324295 200.730219 160.1951 201.090918 161.102967 201.090918 
z
" clip-path="url(#p7edfa7fef1)" style="fill: #1f988b; stroke: #ffffff; stroke-width: 0.355596"/>
    <path d="M 199.659904 247.041669 
C 200.49163 247.041669 201.289402 246.711221 201.877521 246.123103 
C 202.46564 245.534984 202.796088 244.737212 202.796088 243.905486 
C 202.796088 243.073761 202.46564 242.275988 201.877521 241.68787 
C 201.289402 241.099751 200.49163 240.769303 199.659904 240.769303 
C 198.828179 240.769303 198.030407 241.099751 197.442288 241.68787 
C 196.854169 242.275988 196.523721 243.073761 196.523721 243.905486 
C 196.523721 244.737212 196.854169 245.534984 197.442288 246.123103 
C 198.030407 246.711221 198.828179 247.041669 199.659904 247.041669 
z
" clip-path="url(#p7edfa7fef1)" style="fill: #2a778e; stroke: #ffffff; stroke-width: 0.355596"/>
    <path d="M 238.216842 248.342142 
C 239.04631 248.342142 239.841917 248.012591 240.42844 247.426069 
C 241.014963 246.839546 241.344514 246.043939 241.344514 245.21447 
C 241.344514 244.385002 241.014963 243.589395 240.42844 243.002872 
C 239.841917 242.41635 239.04631 242.086799 238.216842 242.086799 
C 237.387374 242.086799 236.591767 242.41635 236.005244 243.002872 
C 235.418721 243.589395 235.08917 244.385002 235.08917 245.21447 
C 235.08917 246.043939 235.418721 246.839546 236.005244 247.426069 
C 236.591767 248.012591 237.387374 248.342142 238.216842 248.342142 
z
" clip-path="url(#p7edfa7fef1)" style="fill: #2a768e; stroke: #ffffff; stroke-width: 0.355596"/>
    <path d="M 276.77378 263.204615 
C 277.576998 263.204615 278.347426 262.885493 278.915387 262.317533 
C 279.483347 261.749572 279.802469 260.979144 279.802469 260.175926 
C 279.802469 259.372708 279.483347 258.60228 278.915387 258.034319 
C 278.347426 257.466359 277.576998 257.147237 276.77378 257.147237 
C 275.970562 257.147237 275.200134 257.466359 274.632173 258.034319 
C 274.064213 258.60228 273.745091 259.372708 273.745091 260.175926 
C 273.745091 260.979144 274.064213 261.749572 274.632173 262.317533 
C 275.200134 262.885493 275.970562 263.204615 276.77378 263.204615 
z
" clip-path="url(#p7edfa7fef1)" style="fill: #2f6b8e; stroke: #ffffff; stroke-width: 0.355596"/>
    <path d="M 315.330718 290.305872 
C 316.083699 290.305872 316.805942 290.006709 317.338381 289.474271 
C 317.870819 288.941832 318.169982 288.219589 318.169982 287.466608 
C 318.169982 286.713626 317.870819 285.991383 317.338381 285.458945 
C 316.805942 284.926506 316.083699 284.627344 315.330718 284.627344 
C 314.577736 284.627344 313.855493 284.926506 313.323055 285.458945 
C 312.790616 285.991383 312.491454 286.713626 312.491454 287.466608 
C 312.491454 288.219589 312.790616 288.941832 313.323055 289.474271 
C 313.855493 290.006709 314.577736 290.305872 315.330718 290.305872 
z
" clip-path="url(#p7edfa7fef1)" style="fill: #39558c; stroke: #ffffff; stroke-width: 0.355596"/>
    <path d="M 353.887656 295.570265 
C 354.630482 295.570265 355.342984 295.275136 355.868242 294.749879 
C 356.393499 294.224621 356.688628 293.512119 356.688628 292.769293 
C 356.688628 292.026466 356.393499 291.313964 355.868242 290.788706 
C 355.342984 290.263449 354.630482 289.96832 353.887656 289.96832 
C 353.144829 289.96832 352.432327 290.263449 351.907069 290.788706 
C 351.381812 291.313964 351.086683 292.026466 351.086683 292.769293 
C 351.086683 293.512119 351.381812 294.224621 351.907069 294.749879 
C 352.432327 295.275136 353.144829 295.570265 353.887656 295.570265 
z
" clip-path="url(#p7edfa7fef1)" style="fill: #3b518b; stroke: #ffffff; stroke-width: 0.355596"/>
    <path d="M 392.444593 297.145452 
C 393.184354 297.145452 393.893915 296.851542 394.417005 296.328452 
C 394.940095 295.805362 395.234005 295.095801 395.234005 294.35604 
C 395.234005 293.61628 394.940095 292.906718 394.417005 292.383628 
C 393.893915 291.860539 393.184354 291.566629 392.444593 291.566629 
C 391.704833 291.566629 390.995271 291.860539 390.472181 292.383628 
C 389.949092 292.906718 389.655182 293.61628 389.655182 294.35604 
C 389.655182 295.095801 389.949092 295.805362 390.472181 296.328452 
C 390.995271 296.851542 391.704833 297.145452 392.444593 297.145452 
z
" clip-path="url(#p7edfa7fef1)" style="fill: #3c508b; stroke: #ffffff; stroke-width: 0.355596"/>
    <path d="M 431.001531 309.837609 
C 431.716105 309.837609 432.401507 309.553706 432.906787 309.048426 
C 433.412067 308.543146 433.69597 307.857743 433.69597 307.14317 
C 433.69597 306.428596 433.412067 305.743193 432.906787 305.237913 
C 432.401507 304.732634 431.716105 304.44873 431.001531 304.44873 
C 430.286957 304.44873 429.601555 304.732634 429.096275 305.237913 
C 428.590995 305.743193 428.307092 306.428596 428.307092 307.14317 
C 428.307092 307.857743 428.590995 308.543146 429.096275 309.048426 
C 429.601555 309.553706 430.286957 309.837609 431.001531 309.837609 
z
" clip-path="url(#p7edfa7fef1)" style="fill: #404588; stroke: #ffffff; stroke-width: 0.355596"/>
    <path d="M 469.558469 313.279876 
C 470.266056 313.279876 470.944757 312.998749 471.445097 312.498409 
C 471.945436 311.99807 472.226563 311.319368 472.226563 310.611782 
C 472.226563 309.904195 471.945436 309.225493 471.445097 308.725154 
C 470.944757 308.224814 470.266056 307.943687 469.558469 307.943687 
C 468.850882 307.943687 468.172181 308.224814 467.671841 308.725154 
C 467.171502 309.225493 466.890375 309.904195 466.890375 310.611782 
C 466.890375 311.319368 467.171502 311.99807 467.671841 312.498409 
C 468.172181 312.998749 468.850882 313.279876 469.558469 313.279876 
z
" clip-path="url(#p7edfa7fef1)" style="fill: #424186; stroke: #ffffff; stroke-width: 0.355596"/>
    <path d="M 508.115407 315.737871 
C 508.817962 315.737871 509.491837 315.458743 509.988618 314.961961 
C 510.4854 314.46518 510.764528 313.791305 510.764528 313.08875 
C 510.764528 312.386195 510.4854 311.71232 509.988618 311.215538 
C 509.491837 310.718757 508.817962 310.439629 508.115407 310.439629 
C 507.412852 310.439629 506.738977 310.718757 506.242195 311.215538 
C 505.745414 311.71232 505.466286 312.386195 505.466286 313.08875 
C 505.466286 313.791305 505.745414 314.46518 506.242195 314.961961 
C 506.738977 315.458743 507.412852 315.737871 508.115407 315.737871 
z
" clip-path="url(#p7edfa7fef1)" style="fill: #423f85; stroke: #ffffff; stroke-width: 0.355596"/>
    <path d="M 546.672344 347.289089 
C 547.306746 347.289089 547.915249 347.037039 548.363839 346.588449 
C 548.812429 346.139859 549.064479 345.531356 549.064479 344.896955 
C 549.064479 344.262553 548.812429 343.65405 548.363839 343.20546 
C 547.915249 342.75687 547.306746 342.50482 546.672344 342.50482 
C 546.037943 342.50482 545.42944 342.75687 544.98085 343.20546 
C 544.53226 343.65405 544.28021 344.262553 544.28021 344.896955 
C 544.28021 345.531356 544.53226 346.139859 544.98085 346.588449 
C 545.42944 347.037039 546.037943 347.289089 546.672344 347.289089 
z
" clip-path="url(#p7edfa7fef1)" style="fill: #482173; stroke: #ffffff; stroke-width: 0.355596"/>
    <path d="M 585.229282 355.556884 
C 585.844566 355.556884 586.434733 355.312429 586.869805 354.877357 
C 587.304876 354.442286 587.549331 353.852119 587.549331 353.236835 
C 587.549331 352.621551 587.304876 352.031384 586.869805 351.596312 
C 586.434733 351.161241 585.844566 350.916786 585.229282 350.916786 
C 584.613998 350.916786 584.023832 351.161241 583.58876 351.596312 
C 583.153688 352.031384 582.909233 352.621551 582.909233 353.236835 
C 582.909233 353.852119 583.153688 354.442286 583.58876 354.877357 
C 584.023832 355.312429 584.613998 355.556884 585.229282 355.556884 
z
" clip-path="url(#p7edfa7fef1)" style="fill: #48186a; stroke: #ffffff; stroke-width: 0.355596"/>
    <path d="M 623.78622 357.75449 
C 624.396321 357.75449 624.981516 357.512094 625.412923 357.080688 
C 625.84433 356.649281 626.086725 356.064086 626.086725 355.453985 
C 626.086725 354.843884 625.84433 354.258689 625.412923 353.827282 
C 624.981516 353.395875 624.396321 353.15348 623.78622 353.15348 
C 623.176119 353.15348 622.590924 353.395875 622.159517 353.827282 
C 621.728111 354.258689 621.485715 354.843884 621.485715 355.453985 
C 621.485715 356.064086 621.728111 356.649281 622.159517 357.080688 
C 622.590924 357.512094 623.176119 357.75449 623.78622 357.75449 
z
" clip-path="url(#p7edfa7fef1)" style="fill: #481769; stroke: #ffffff; stroke-width: 0.355596"/>
    <path d="M 662.343158 364.633986 
C 662.936738 364.633986 663.506087 364.398154 663.925812 363.97843 
C 664.345537 363.558705 664.581369 362.989356 664.581369 362.395775 
C 664.581369 361.802195 664.345537 361.232846 663.925812 360.813121 
C 663.506087 360.393397 662.936738 360.157565 662.343158 360.157565 
C 661.749577 360.157565 661.180229 360.393397 660.760504 360.813121 
C 660.340779 361.232846 660.104947 361.802195 660.104947 362.395775 
C 660.104947 362.989356 660.340779 363.558705 660.760504 363.97843 
C 661.180229 364.398154 661.749577 364.633986 662.343158 364.633986 
z
" clip-path="url(#p7edfa7fef1)" style="fill: #470e61; stroke: #ffffff; stroke-width: 0.355596"/>
    <path d="M 700.900096 365.117838 
C 701.492497 365.117838 702.060714 364.882475 702.479605 364.463584 
C 702.898496 364.044693 703.133859 363.476476 703.133859 362.884075 
C 703.133859 362.291674 702.898496 361.723456 702.479605 361.304565 
C 702.060714 360.885674 701.492497 360.650311 700.900096 360.650311 
C 700.307695 360.650311 699.739477 360.885674 699.320586 361.304565 
C 698.901696 361.723456 698.666332 362.291674 698.666332 362.884075 
C 698.666332 363.476476 698.901696 364.044693 699.320586 364.463584 
C 699.739477 364.882475 700.307695 365.117838 700.900096 365.117838 
z
" clip-path="url(#p7edfa7fef1)" style="fill: #470e61; stroke: #ffffff; stroke-width: 0.355596"/>
    <path d="M 739.457033 365.579417 
C 740.048307 365.579417 740.615443 365.344501 741.033537 364.926407 
C 741.451631 364.508314 741.686546 363.941178 741.686546 363.349904 
C 741.686546 362.75863 741.451631 362.191494 741.033537 361.7734 
C 740.615443 361.355307 740.048307 361.120391 739.457033 361.120391 
C 738.86576 361.120391 738.298624 361.355307 737.88053 361.7734 
C 737.462436 362.191494 737.227521 362.75863 737.227521 363.349904 
C 737.227521 363.941178 737.462436 364.508314 737.88053 364.926407 
C 738.298624 365.344501 738.86576 365.579417 739.457033 365.579417 
z
" clip-path="url(#p7edfa7fef1)" style="fill: #470d60; stroke: #ffffff; stroke-width: 0.355596"/>
    <path d="M 778.013971 373.199218 
C 778.586311 373.199218 779.135285 372.971825 779.53999 372.567121 
C 779.944695 372.162416 780.172088 371.613441 780.172088 371.041102 
C 780.172088 370.468762 779.944695 369.919788 779.53999 369.515083 
C 779.135285 369.110378 778.586311 368.882985 778.013971 368.882985 
C 777.441632 368.882985 776.892657 369.110378 776.487952 369.515083 
C 776.083247 369.919788 775.855855 370.468762 775.855855 371.041102 
C 775.855855 371.613441 776.083247 372.162416 776.487952 372.567121 
C 776.892657 372.971825 777.441632 373.199218 778.013971 373.199218 
z
" clip-path="url(#p7edfa7fef1)" style="fill: #450457; stroke: #ffffff; stroke-width: 0.355596"/>
    <path d="M 816.570909 377.028593 
C 817.13349 377.028593 817.673104 376.805077 818.070909 376.407273 
C 818.468714 376.009468 818.692229 375.469853 818.692229 374.907273 
C 818.692229 374.344692 818.468714 373.805077 818.070909 373.407273 
C 817.673104 373.009468 817.13349 372.785952 816.570909 372.785952 
C 816.008328 372.785952 815.468714 373.009468 815.070909 373.407273 
C 814.673104 373.805077 814.449589 374.344692 814.449589 374.907273 
C 814.449589 375.469853 814.673104 376.009468 815.070909 376.407273 
C 815.468714 376.805077 816.008328 377.028593 816.570909 377.028593 
z
" clip-path="url(#p7edfa7fef1)" style="fill: #440154; stroke: #ffffff; stroke-width: 0.355596"/>
   </g>
   <g id="matplotlib.axis_1">
    <g id="xtick_1">
     <g id="line2d_1">
      <defs>
       <path id="m4bfed252bf" d="M 0 0 
L 0 3.5 
" style="stroke: #000000; stroke-width: 0.8"/>
      </defs>
      <g>
       <use xlink:href="#m4bfed252bf" x="83.989091" y="391.48" style="stroke: #000000; stroke-width: 0.8"/>
      </g>
     </g>
     <g id="text_1">
      <!-- 0.0 -->
      <g transform="translate(78.207841 404.969063) scale(0.1 -0.1)">
       <defs>
        <path id="Garamond-30" d="M 2800 1972 
Q 2800 1650 2753 1400 
Q 2669 969 2519 678 
Q 2369 388 2163 188 
Q 2013 41 1844 -26 
Q 1675 -94 1500 -94 
Q 1191 -94 914 112 
Q 638 319 431 794 
Q 225 1269 225 1913 
Q 225 2416 350 2878 
Q 475 3341 679 3595 
Q 884 3850 1086 3962 
Q 1288 4075 1525 4075 
Q 1859 4075 2173 3812 
Q 2488 3550 2675 2997 
Q 2800 2625 2800 1972 
z
M 2331 2075 
Q 2328 2844 2275 3119 
Q 2188 3572 1989 3753 
Q 1791 3934 1525 3934 
Q 1303 3934 1104 3790 
Q 906 3647 831 3341 
Q 703 2844 703 1834 
Q 703 834 901 436 
Q 1100 38 1497 38 
Q 1769 38 1967 206 
Q 2166 375 2252 833 
Q 2338 1291 2334 1859 
L 2331 2075 
z
" transform="scale(0.015625)"/>
        <path id="Garamond-2e" d="M 375 253 
Q 375 391 476 494 
Q 578 597 713 597 
Q 844 597 934 500 
Q 1025 403 1025 256 
Q 1025 109 929 9 
Q 834 -91 700 -91 
Q 569 -91 472 11 
Q 375 113 375 253 
z
" transform="scale(0.015625)"/>
       </defs>
       <use xlink:href="#Garamond-30"/>
       <use xlink:href="#Garamond-2e" x="46.875"/>
       <use xlink:href="#Garamond-30" x="68.75"/>
      </g>
     </g>
    </g>
    <g id="xtick_2">
     <g id="line2d_2">
      <g>
       <use xlink:href="#m4bfed252bf" x="180.381435" y="391.48" style="stroke: #000000; stroke-width: 0.8"/>
      </g>
     </g>
     <g id="text_2">
      <!-- 2.5 -->
      <g transform="translate(174.600185 404.969063) scale(0.1 -0.1)">
       <defs>
        <path id="Garamond-32" d="M 2728 6 
Q 2259 25 1472 25 
L 794 6 
L 491 16 
L 250 6 
Q 213 9 141 22 
Q 197 153 284 263 
Q 544 581 1044 1084 
Q 1744 1788 1966 2189 
Q 2188 2591 2188 2944 
Q 2188 3275 1963 3500 
Q 1738 3725 1409 3725 
Q 1213 3725 1028 3633 
Q 844 3541 731 3400 
Q 659 3309 541 3038 
Q 475 2888 463 2875 
Q 444 2853 419 2853 
Q 394 2853 370 2879 
Q 347 2906 347 2947 
Q 347 3088 489 3397 
Q 631 3706 907 3881 
Q 1184 4056 1550 4056 
Q 2028 4056 2348 3745 
Q 2669 3434 2669 3003 
Q 2669 2663 2450 2311 
Q 2231 1959 1444 1234 
Q 1184 997 1075 884 
Q 966 772 634 397 
Q 1113 378 1503 378 
Q 1588 378 1688 384 
Q 1872 391 1903 391 
L 2338 381 
Q 2409 381 2484 450 
Q 2559 519 2688 838 
L 2763 841 
Q 2778 841 2809 838 
Q 2825 806 2825 791 
L 2819 766 
Q 2794 675 2775 434 
Q 2763 294 2728 6 
z
" transform="scale(0.015625)"/>
        <path id="Garamond-35" d="M 2369 3606 
Q 2019 3578 1803 3578 
Q 1644 3578 1466 3588 
Q 1369 3594 1350 3594 
Q 969 3594 941 3578 
Q 928 3572 925 3550 
Q 916 3500 844 2434 
Q 984 2506 1115 2536 
Q 1247 2566 1463 2566 
Q 1616 2566 1675 2547 
Q 1972 2450 2103 2372 
Q 2284 2259 2398 2115 
Q 2513 1972 2609 1694 
Q 2678 1494 2678 1275 
Q 2678 1038 2611 833 
Q 2544 628 2444 490 
Q 2344 353 2147 204 
Q 1950 56 1683 -22 
Q 1416 -100 1325 -103 
L 872 -63 
Q 684 -31 543 39 
Q 403 109 356 175 
Q 328 216 328 281 
Q 328 331 398 390 
Q 469 450 572 450 
Q 619 450 675 422 
L 922 263 
Q 1006 188 1131 122 
Q 1150 113 1225 100 
Q 1406 75 1422 75 
Q 1491 75 1656 131 
Q 1822 188 1962 323 
Q 2103 459 2204 667 
Q 2306 875 2306 1128 
Q 2306 1581 2022 1875 
Q 1738 2169 1338 2169 
Q 1159 2169 1007 2109 
Q 856 2050 803 1978 
L 756 1959 
Q 719 1944 703 1944 
L 663 1953 
Q 653 2009 653 2038 
Q 653 2063 663 2125 
Q 684 2278 686 2442 
Q 688 2606 719 2738 
L 709 2888 
Q 731 3003 734 3109 
Q 744 3828 794 3934 
Q 816 3984 869 3984 
Q 891 3984 941 3978 
L 959 3975 
L 1356 3978 
Q 1625 3963 1753 3963 
Q 2047 3963 2225 4003 
Q 2313 4084 2359 4084 
Q 2378 4084 2428 4078 
L 2438 4041 
L 2413 3909 
L 2397 3700 
Q 2394 3678 2369 3606 
z
" transform="scale(0.015625)"/>
       </defs>
       <use xlink:href="#Garamond-32"/>
       <use xlink:href="#Garamond-2e" x="46.875"/>
       <use xlink:href="#Garamond-35" x="68.75"/>
      </g>
     </g>
    </g>
    <g id="xtick_3">
     <g id="line2d_3">
      <g>
       <use xlink:href="#m4bfed252bf" x="276.77378" y="391.48" style="stroke: #000000; stroke-width: 0.8"/>
      </g>
     </g>
     <g id="text_3">
      <!-- 5.0 -->
      <g transform="translate(270.99253 404.969063) scale(0.1 -0.1)">
       <use xlink:href="#Garamond-35"/>
       <use xlink:href="#Garamond-2e" x="46.875"/>
       <use xlink:href="#Garamond-30" x="68.75"/>
      </g>
     </g>
    </g>
    <g id="xtick_4">
     <g id="line2d_4">
      <g>
       <use xlink:href="#m4bfed252bf" x="373.166124" y="391.48" style="stroke: #000000; stroke-width: 0.8"/>
      </g>
     </g>
     <g id="text_4">
      <!-- 7.5 -->
      <g transform="translate(367.384874 404.969063) scale(0.1 -0.1)">
       <defs>
        <path id="Garamond-37" d="M 341 3950 
Q 725 3966 1378 3966 
Q 1675 3966 2056 3956 
Q 2288 3947 2359 3947 
L 2663 3950 
L 2734 3950 
Q 2759 3925 2759 3903 
Q 2759 3866 2688 3722 
Q 2653 3659 2384 3038 
Q 2253 2731 2063 2234 
L 1669 1125 
Q 1528 744 1488 594 
L 1416 303 
Q 1372 175 1372 116 
Q 1372 69 1425 -31 
Q 1388 -81 1256 -81 
Q 1197 -81 1144 -31 
Q 1163 153 1263 456 
Q 1300 566 1390 887 
Q 1481 1209 1569 1456 
L 1925 2425 
Q 2078 2838 2222 3184 
Q 2272 3300 2297 3347 
Q 2363 3463 2363 3538 
L 2322 3534 
L 2288 3534 
L 1875 3547 
Q 1856 3547 1743 3540 
Q 1631 3534 1575 3534 
L 1091 3538 
L 944 3538 
L 738 3544 
Q 556 3547 511 3501 
Q 466 3456 459 3269 
Q 456 3222 434 3178 
Q 400 3169 384 3169 
Q 350 3169 294 3194 
Q 297 3272 297 3309 
L 303 3403 
L 294 3575 
Q 294 3800 306 3878 
Q 313 3909 341 3950 
z
" transform="scale(0.015625)"/>
       </defs>
       <use xlink:href="#Garamond-37"/>
       <use xlink:href="#Garamond-2e" x="46.875"/>
       <use xlink:href="#Garamond-35" x="68.75"/>
      </g>
     </g>
    </g>
    <g id="xtick_5">
     <g id="line2d_5">
      <g>
       <use xlink:href="#m4bfed252bf" x="469.558469" y="391.48" style="stroke: #000000; stroke-width: 0.8"/>
      </g>
     </g>
     <g id="text_5">
      <!-- 10.0 -->
      <g transform="translate(461.433469 404.969063) scale(0.1 -0.1)">
       <defs>
        <path id="Garamond-31" d="M 2269 6 
L 838 6 
Q 834 34 834 53 
Q 834 106 856 126 
Q 878 147 994 169 
Q 1175 206 1288 259 
Q 1319 328 1319 388 
L 1319 581 
Q 1319 616 1328 897 
Q 1331 1003 1334 1816 
L 1341 2550 
L 1334 2978 
Q 1334 3072 1341 3569 
Q 631 3063 563 3063 
Q 538 3063 509 3089 
Q 481 3116 481 3141 
Q 481 3172 503 3191 
Q 547 3231 713 3325 
Q 738 3338 928 3494 
Q 1231 3747 1372 3890 
Q 1513 4034 1544 4053 
Q 1606 4056 1641 4056 
Q 1722 4056 1742 4029 
Q 1763 4003 1763 3838 
L 1741 1053 
L 1741 778 
Q 1741 678 1737 576 
Q 1734 475 1734 428 
Q 1734 316 1763 281 
Q 1781 259 1878 225 
L 2091 181 
Q 2228 147 2241 134 
Q 2272 106 2272 47 
L 2269 6 
z
" transform="scale(0.015625)"/>
       </defs>
       <use xlink:href="#Garamond-31"/>
       <use xlink:href="#Garamond-30" x="46.875"/>
       <use xlink:href="#Garamond-2e" x="93.75"/>
       <use xlink:href="#Garamond-30" x="115.625"/>
      </g>
     </g>
    </g>
    <g id="xtick_6">
     <g id="line2d_6">
      <g>
       <use xlink:href="#m4bfed252bf" x="565.950813" y="391.48" style="stroke: #000000; stroke-width: 0.8"/>
      </g>
     </g>
     <g id="text_6">
      <!-- 12.5 -->
      <g transform="translate(557.825813 404.969063) scale(0.1 -0.1)">
       <use xlink:href="#Garamond-31"/>
       <use xlink:href="#Garamond-32" x="46.875"/>
       <use xlink:href="#Garamond-2e" x="93.75"/>
       <use xlink:href="#Garamond-35" x="115.625"/>
      </g>
     </g>
    </g>
    <g id="xtick_7">
     <g id="line2d_7">
      <g>
       <use xlink:href="#m4bfed252bf" x="662.343158" y="391.48" style="stroke: #000000; stroke-width: 0.8"/>
      </g>
     </g>
     <g id="text_7">
      <!-- 15.0 -->
      <g transform="translate(654.218158 404.969063) scale(0.1 -0.1)">
       <use xlink:href="#Garamond-31"/>
       <use xlink:href="#Garamond-35" x="46.875"/>
       <use xlink:href="#Garamond-2e" x="93.75"/>
       <use xlink:href="#Garamond-30" x="115.625"/>
      </g>
     </g>
    </g>
    <g id="xtick_8">
     <g id="line2d_8">
      <g>
       <use xlink:href="#m4bfed252bf" x="758.735502" y="391.48" style="stroke: #000000; stroke-width: 0.8"/>
      </g>
     </g>
     <g id="text_8">
      <!-- 17.5 -->
      <g transform="translate(750.610502 404.969063) scale(0.1 -0.1)">
       <use xlink:href="#Garamond-31"/>
       <use xlink:href="#Garamond-37" x="46.875"/>
       <use xlink:href="#Garamond-2e" x="93.75"/>
       <use xlink:href="#Garamond-35" x="115.625"/>
      </g>
     </g>
    </g>
    <g id="text_9">
     <!-- Index of Articles -->
     <g transform="translate(416.870625 418.022188) scale(0.1 -0.1)">
      <defs>
       <path id="Garamond-49" d="M 134 100 
Q 203 128 275 134 
Q 753 166 822 248 
Q 891 331 891 1050 
L 888 1378 
L 888 1722 
L 875 2100 
L 881 2322 
L 878 2566 
L 878 2853 
L 872 2981 
L 878 3144 
Q 881 3200 881 3275 
Q 881 3472 863 3691 
Q 850 3734 828 3775 
Q 713 3834 455 3854 
Q 197 3875 163 3900 
Q 138 3919 134 3997 
L 397 3997 
L 1225 3978 
Q 1544 3978 2075 3997 
Q 2075 3947 2069 3903 
Q 2006 3888 1859 3869 
Q 1563 3834 1497 3803 
Q 1456 3788 1438 3750 
Q 1406 3694 1400 3541 
L 1384 3138 
L 1397 1747 
L 1397 1197 
Q 1391 938 1391 844 
Q 1391 494 1408 397 
Q 1425 300 1467 258 
Q 1509 216 1606 191 
Q 1750 156 1831 153 
Q 2006 147 2053 103 
Q 2063 63 2063 34 
L 2063 9 
Q 1778 0 1644 0 
Q 1566 0 1366 9 
L 934 3 
L 200 6 
L 141 6 
L 134 100 
z
" transform="scale(0.015625)"/>
       <path id="Garamond-6e" d="M 119 100 
Q 197 122 300 138 
Q 497 166 536 203 
Q 575 241 575 375 
L 581 488 
Q 584 550 584 647 
L 578 1606 
Q 578 1800 528 1856 
Q 444 1944 216 1978 
L 216 2091 
Q 444 2153 566 2253 
Q 744 2394 866 2634 
L 972 2631 
Q 981 2484 981 2422 
L 981 2216 
L 984 2159 
Q 1022 2184 1072 2222 
Q 1259 2363 1456 2452 
Q 1653 2541 1806 2575 
Q 1903 2600 2025 2600 
Q 2281 2600 2465 2462 
Q 2650 2325 2704 2139 
Q 2759 1953 2759 1400 
L 2759 928 
Q 2759 909 2754 803 
Q 2750 697 2750 559 
Q 2750 341 2769 281 
Q 2784 241 2850 200 
Q 3150 159 3200 103 
L 3200 78 
Q 3200 47 3181 0 
L 3122 0 
L 2709 3 
L 2303 -3 
Q 2078 -9 1888 0 
L 1869 66 
Q 1869 84 1891 116 
Q 1975 153 2128 166 
Q 2219 172 2253 184 
Q 2288 197 2338 234 
Q 2375 309 2375 359 
Q 2375 381 2369 447 
Q 2359 591 2356 1163 
L 2356 1325 
L 2363 1575 
Q 2363 1978 2200 2131 
Q 2038 2284 1766 2284 
Q 1556 2284 1356 2192 
Q 1156 2100 969 1916 
Q 963 1766 963 1659 
L 972 969 
Q 972 428 988 306 
Q 994 256 1009 238 
Q 1034 213 1109 197 
Q 1184 181 1282 153 
Q 1381 125 1413 119 
Q 1475 103 1497 56 
L 1494 -6 
L 1166 -6 
L 491 3 
Q 256 -3 194 -3 
L 116 -3 
L 109 38 
Q 109 59 119 100 
z
" transform="scale(0.015625)"/>
       <path id="Garamond-64" d="M 2281 2269 
L 2284 2359 
L 2281 2725 
L 2284 3416 
Q 2284 3703 2221 3781 
Q 2159 3859 1856 3941 
Q 1834 3947 1788 3959 
L 1788 3994 
Q 1788 4025 1794 4063 
Q 2219 4106 2525 4209 
L 2684 4213 
Q 2697 4000 2697 3738 
L 2684 2534 
L 2706 1178 
L 2697 456 
Q 2697 234 2728 206 
Q 2791 144 3003 141 
Q 3047 141 3122 134 
L 3122 78 
Q 3122 56 3119 31 
Q 3022 9 2919 -9 
L 2466 -97 
Q 2366 -116 2306 -116 
L 2306 184 
Q 2253 169 2141 122 
Q 1653 -84 1244 -84 
Q 997 -84 740 77 
Q 484 238 346 525 
Q 209 813 209 1113 
Q 209 1381 300 1626 
Q 391 1872 538 2034 
Q 631 2141 803 2245 
Q 975 2350 1088 2378 
Q 1366 2450 1459 2450 
Q 1881 2450 2153 2325 
Q 2238 2284 2281 2269 
z
M 2284 338 
Q 2297 547 2297 1200 
Q 2297 1753 2245 1898 
Q 2194 2044 1987 2173 
Q 1781 2303 1525 2303 
Q 1166 2303 916 2025 
Q 666 1747 666 1203 
Q 666 725 936 440 
Q 1206 156 1609 156 
Q 1841 156 2031 218 
Q 2222 281 2284 338 
z
" transform="scale(0.015625)"/>
       <path id="Garamond-65" d="M 2475 1650 
L 1222 1641 
L 984 1641 
Q 841 1641 691 1628 
Q 663 1534 663 1500 
L 666 1469 
L 666 1438 
L 663 1284 
Q 663 1094 783 817 
Q 903 541 1126 395 
Q 1350 250 1684 241 
Q 1863 250 1969 284 
Q 2075 319 2269 444 
L 2494 628 
L 2513 503 
Q 2513 481 2509 456 
Q 2369 278 2153 143 
Q 1938 9 1716 -53 
Q 1609 -81 1366 -81 
Q 1144 -81 928 9 
Q 609 147 426 451 
Q 244 756 244 1191 
Q 244 1328 295 1543 
Q 347 1759 481 2003 
Q 572 2169 703 2275 
Q 891 2425 1031 2484 
Q 1234 2569 1503 2569 
Q 1794 2569 1978 2463 
Q 2228 2322 2351 2100 
Q 2475 1878 2475 1694 
L 2475 1650 
z
M 731 1763 
L 878 1763 
Q 1038 1763 1828 1813 
Q 1953 1819 1981 1838 
Q 2038 1897 2038 1944 
Q 2038 2041 1975 2164 
Q 1913 2288 1783 2355 
Q 1653 2422 1481 2422 
Q 1119 2422 900 2150 
Q 731 1944 731 1763 
z
" transform="scale(0.015625)"/>
       <path id="Garamond-78" d="M 94 2341 
Q 88 2381 88 2409 
L 88 2450 
Q 138 2463 197 2463 
L 313 2463 
Q 581 2453 650 2453 
Q 866 2453 1088 2459 
Q 1225 2463 1256 2463 
L 1331 2463 
Q 1353 2419 1353 2397 
Q 1353 2381 1341 2353 
L 1294 2347 
Q 1066 2325 1006 2291 
Q 981 2275 981 2250 
Q 981 2200 1056 2103 
Q 1422 1628 1553 1491 
Q 1847 1884 1905 1995 
Q 1963 2106 1963 2169 
Q 1963 2241 1906 2289 
Q 1850 2338 1631 2369 
Q 1606 2406 1606 2431 
L 1616 2463 
L 1697 2466 
Q 1728 2466 1806 2463 
Q 1941 2453 2075 2453 
Q 2144 2453 2312 2458 
Q 2481 2463 2569 2463 
L 2713 2463 
Q 2753 2444 2753 2413 
Q 2753 2397 2747 2372 
Q 2697 2359 2625 2347 
Q 2456 2322 2297 2225 
Q 2178 2153 2063 1997 
L 1619 1397 
L 2072 828 
Q 2384 406 2454 331 
Q 2525 256 2606 209 
Q 2688 163 2844 122 
Q 2847 84 2847 56 
Q 2847 34 2834 -3 
Q 2778 -3 2266 13 
Q 2234 13 1966 6 
Q 1881 3 1803 3 
Q 1731 3 1625 9 
L 1634 103 
Q 1681 113 1738 125 
Q 1897 156 1966 209 
Q 2006 244 2006 284 
Q 2006 353 1581 859 
L 1397 1081 
Q 1266 950 1106 709 
Q 1016 569 959 500 
Q 853 375 853 291 
Q 853 263 890 233 
Q 928 203 1109 163 
Q 1231 138 1281 122 
Q 1291 81 1291 59 
Q 1291 41 1284 0 
Q 1044 13 816 13 
Q 528 13 398 5 
Q 269 -3 238 -3 
Q 200 -3 119 3 
Q 106 47 106 69 
L 113 109 
Q 156 131 222 138 
Q 431 159 593 293 
Q 756 428 1316 1191 
L 900 1691 
L 456 2222 
Q 438 2241 409 2259 
Q 359 2288 275 2303 
Q 147 2328 94 2341 
z
" transform="scale(0.015625)"/>
       <path id="Garamond-20" transform="scale(0.015625)"/>
       <path id="Garamond-6f" d="M 228 1256 
Q 228 1469 317 1711 
Q 406 1953 587 2145 
Q 769 2338 972 2431 
Q 1256 2563 1666 2563 
Q 2250 2563 2642 2163 
Q 3034 1763 3034 1200 
Q 3034 700 2623 308 
Q 2213 -84 1584 -84 
Q 1197 -84 853 119 
Q 597 272 412 572 
Q 228 872 228 1256 
z
M 1609 38 
Q 1847 38 2067 166 
Q 2288 294 2419 576 
Q 2550 859 2550 1231 
Q 2550 1475 2448 1797 
Q 2347 2119 2136 2280 
Q 1925 2441 1641 2441 
Q 1434 2441 1220 2344 
Q 1006 2247 857 1972 
Q 709 1697 709 1191 
Q 709 622 967 330 
Q 1225 38 1609 38 
z
" transform="scale(0.015625)"/>
       <path id="Garamond-66" d="M 1150 2434 
Q 1928 2416 1978 2416 
Q 1984 2347 1984 2313 
Q 1984 2272 1975 2191 
Q 1897 2178 1816 2178 
L 1697 2178 
Q 1309 2178 1159 2150 
Q 1153 2078 1153 2041 
Q 1153 2025 1156 1994 
Q 1172 1503 1172 1400 
L 1166 597 
Q 1166 419 1225 300 
Q 1259 231 1353 191 
Q 1413 163 1641 134 
Q 1813 109 1872 100 
Q 1872 34 1863 0 
L 1819 -3 
Q 1669 6 1428 13 
L 1197 22 
L 409 -3 
L 306 -3 
L 303 94 
Q 350 103 372 109 
Q 641 159 719 222 
Q 750 247 763 313 
Q 769 350 769 663 
Q 769 1553 753 2084 
Q 672 2109 503 2116 
Q 441 2116 306 2128 
L 300 2163 
Q 300 2200 331 2225 
Q 344 2238 594 2356 
Q 691 2400 731 2466 
Q 753 2500 756 2609 
Q 759 2659 775 2781 
Q 813 3103 834 3178 
Q 891 3388 1023 3595 
Q 1156 3803 1344 3959 
Q 1481 4072 1654 4128 
Q 1828 4184 2050 4184 
Q 2347 4184 2484 4088 
Q 2578 4022 2578 3919 
Q 2578 3831 2512 3768 
Q 2447 3706 2350 3706 
Q 2231 3706 2094 3766 
Q 1834 3869 1800 3878 
Q 1741 3894 1678 3894 
Q 1506 3894 1364 3784 
Q 1222 3675 1184 3515 
Q 1147 3356 1147 2800 
Q 1147 2600 1150 2434 
z
" transform="scale(0.015625)"/>
       <path id="Garamond-41" d="M -34 100 
Q 9 125 44 125 
L 116 125 
Q 138 125 191 128 
Q 431 150 475 172 
Q 584 231 663 378 
Q 825 697 1028 1281 
Q 1125 1559 1150 1619 
Q 1228 1806 1300 2013 
L 1594 2834 
Q 1663 3028 1925 3722 
Q 1991 3897 2084 4191 
L 2175 4197 
L 2284 4194 
Q 2419 3928 2522 3622 
Q 2578 3459 2706 3138 
L 3181 1853 
L 3434 1156 
Q 3634 563 3696 427 
Q 3759 291 3813 247 
Q 3828 234 3929 209 
Q 4031 184 4072 172 
Q 4216 131 4272 103 
Q 4284 69 4284 50 
Q 4284 34 4275 3 
Q 4175 0 4134 0 
Q 3975 0 3572 9 
L 3259 19 
L 2881 13 
Q 2844 13 2805 17 
Q 2766 22 2738 22 
L 2669 22 
Q 2634 25 2606 41 
Q 2606 84 2622 125 
Q 2659 144 2691 147 
L 3019 169 
Q 3147 175 3213 203 
Q 3231 259 3231 288 
Q 3231 344 3150 578 
Q 3094 734 3051 875 
Q 3009 1016 2719 1800 
Q 2591 1822 2494 1822 
L 1825 1816 
L 1628 1819 
Q 1522 1819 1394 1803 
Q 1353 1709 1341 1669 
L 1066 809 
Q 891 319 891 269 
Q 891 241 919 175 
Q 984 156 1094 141 
L 1519 103 
Q 1553 75 1553 53 
Q 1553 38 1544 6 
Q 1403 3 1328 3 
Q 1078 3 747 19 
Q 594 25 528 25 
Q 463 25 300 19 
Q 194 13 147 13 
Q 72 13 -47 22 
L -47 41 
Q -47 63 -34 100 
z
M 1456 1975 
Q 1791 1956 2219 1956 
Q 2463 1956 2647 1972 
Q 2616 2094 2575 2200 
Q 2372 2744 2350 2800 
L 2066 3522 
L 2034 3578 
Q 2016 3541 1897 3256 
Q 1697 2769 1609 2497 
Q 1569 2375 1525 2254 
Q 1481 2134 1470 2086 
Q 1459 2038 1438 1988 
L 1456 1975 
z
" transform="scale(0.015625)"/>
       <path id="Garamond-72" d="M 128 -9 
L 116 31 
Q 116 53 144 97 
L 328 134 
L 588 181 
Q 619 197 631 225 
Q 650 266 650 466 
Q 650 1528 637 1692 
Q 625 1856 581 1900 
Q 538 1944 356 1969 
Q 250 1984 188 2009 
L 200 2103 
Q 528 2238 641 2334 
Q 797 2475 906 2703 
L 1013 2700 
Q 1031 2544 1031 2006 
L 1028 1953 
Q 1028 1934 1034 1894 
Q 1153 2109 1331 2291 
L 1403 2363 
Q 1447 2413 1488 2441 
Q 1706 2572 1813 2572 
Q 1950 2572 2037 2480 
Q 2125 2388 2125 2253 
Q 2125 2147 2063 2088 
Q 1978 2009 1869 2009 
Q 1819 2009 1672 2062 
Q 1525 2116 1478 2116 
Q 1391 2116 1356 2088 
Q 1269 2019 1144 1806 
Q 1047 1647 1047 1513 
L 1063 997 
L 1069 378 
Q 1078 272 1094 241 
Q 1106 219 1156 188 
Q 1494 159 1556 147 
Q 1600 144 1622 141 
Q 1756 138 1809 103 
Q 1838 88 1838 56 
Q 1838 38 1813 6 
L 1466 9 
L 1334 13 
L 1144 9 
L 825 9 
L 653 0 
L 128 -9 
z
" transform="scale(0.015625)"/>
       <path id="Garamond-74" d="M 894 3088 
L 991 3084 
L 1003 2788 
L 997 2403 
Q 1056 2400 1072 2400 
Q 1153 2400 1381 2413 
Q 1528 2422 1663 2422 
Q 1725 2422 1850 2419 
Q 1856 2356 1856 2319 
Q 1856 2278 1838 2191 
L 1784 2191 
L 1300 2175 
L 1059 2169 
L 1003 2163 
Q 978 2084 978 1981 
L 988 1513 
L 981 688 
Q 981 363 1066 256 
Q 1147 147 1309 147 
Q 1391 147 1616 197 
Q 1684 213 1800 300 
L 1828 300 
Q 1856 300 1873 283 
Q 1891 266 1891 238 
L 1888 216 
Q 1753 69 1579 1 
Q 1406 -66 1119 -66 
Q 916 -66 783 28 
Q 650 122 612 250 
Q 575 378 575 809 
L 588 1513 
L 584 1850 
L 584 1975 
Q 584 2063 578 2150 
L 525 2153 
L 269 2144 
L 244 2141 
Q 209 2141 192 2156 
Q 175 2172 175 2194 
Q 175 2231 198 2254 
Q 222 2278 341 2328 
Q 422 2363 530 2458 
Q 638 2553 713 2669 
Q 750 2731 819 2906 
Q 869 3034 894 3088 
z
" transform="scale(0.015625)"/>
       <path id="Garamond-69" d="M 444 3841 
Q 444 3944 523 4019 
Q 603 4094 716 4094 
Q 831 4094 918 4009 
Q 1006 3925 1006 3828 
Q 1006 3731 918 3645 
Q 831 3559 716 3559 
Q 600 3559 522 3637 
Q 444 3716 444 3841 
z
M 181 2222 
L 184 2313 
Q 388 2372 403 2381 
Q 516 2431 639 2534 
Q 763 2638 847 2766 
Q 884 2772 906 2772 
L 944 2769 
Q 956 2619 956 2550 
Q 956 2534 950 2409 
L 950 2244 
L 953 1344 
L 944 391 
Q 941 275 981 229 
Q 1022 184 1222 128 
Q 1347 94 1409 69 
Q 1419 47 1419 31 
Q 1419 13 1403 -16 
Q 1281 -13 1091 0 
Q 831 22 747 22 
Q 706 22 247 6 
Q 153 3 66 -9 
Q 50 -9 16 0 
Q 0 22 0 38 
Q 0 81 59 106 
Q 72 113 378 178 
Q 478 197 509 241 
Q 563 306 563 450 
Q 569 691 569 1769 
Q 569 1984 550 2038 
Q 534 2075 467 2123 
Q 400 2172 181 2222 
z
" transform="scale(0.015625)"/>
       <path id="Garamond-63" d="M 2497 572 
L 2500 369 
Q 2256 109 2018 6 
Q 1781 -97 1459 -97 
Q 1109 -97 828 86 
Q 547 269 395 603 
Q 244 938 244 1259 
Q 244 1613 426 1927 
Q 609 2241 911 2395 
Q 1213 2550 1669 2550 
Q 2106 2550 2334 2400 
Q 2463 2313 2463 2175 
Q 2463 2075 2397 2009 
Q 2331 1944 2228 1944 
Q 2072 1944 1884 2138 
Q 1769 2256 1675 2301 
Q 1581 2347 1466 2347 
Q 1188 2347 1003 2119 
Q 747 1794 747 1303 
Q 747 797 1009 497 
Q 1272 197 1622 197 
Q 1866 197 2055 276 
Q 2244 356 2497 572 
z
" transform="scale(0.015625)"/>
       <path id="Garamond-6c" d="M 163 3872 
L 163 3941 
Q 250 3969 356 4000 
Q 513 4050 819 4153 
L 966 4153 
Q 969 4003 969 3981 
Q 969 1416 953 922 
Q 944 631 944 613 
Q 944 263 972 222 
Q 1009 166 1201 144 
Q 1394 122 1428 100 
Q 1453 88 1453 56 
Q 1453 22 1439 8 
Q 1425 -6 1388 -6 
Q 1366 -6 1059 3 
L 650 16 
L 125 -6 
Q 75 -9 50 13 
Q 31 28 31 56 
Q 31 88 51 102 
Q 72 116 276 150 
Q 481 184 511 207 
Q 541 231 550 313 
Q 563 425 563 947 
L 559 1666 
L 569 2409 
L 566 3153 
L 575 3519 
Q 575 3628 540 3676 
Q 506 3725 394 3772 
Q 225 3841 163 3872 
z
" transform="scale(0.015625)"/>
       <path id="Garamond-73" d="M 453 794 
Q 569 497 628 409 
Q 747 231 912 132 
Q 1078 34 1272 34 
Q 1450 34 1625 188 
Q 1750 303 1750 456 
Q 1750 659 1603 831 
Q 1456 1000 1045 1154 
Q 634 1309 494 1484 
Q 353 1659 353 1884 
Q 353 2097 468 2259 
Q 584 2422 787 2505 
Q 991 2588 1163 2588 
Q 1384 2588 1561 2553 
Q 1738 2519 1866 2447 
Q 1891 2288 1906 1978 
L 1913 1878 
Q 1872 1875 1844 1875 
L 1800 1875 
Q 1706 2134 1514 2286 
Q 1322 2438 1134 2438 
Q 947 2438 831 2323 
Q 716 2209 716 2025 
Q 716 1884 809 1775 
Q 903 1666 1248 1525 
Q 1594 1384 1751 1264 
Q 1909 1144 1984 972 
Q 2059 800 2059 644 
Q 2059 428 1917 240 
Q 1775 53 1561 -23 
Q 1347 -100 1178 -100 
Q 781 -100 447 47 
Q 416 72 413 141 
Q 413 169 406 231 
Q 356 653 356 731 
Q 356 769 372 781 
Q 388 794 453 794 
z
" transform="scale(0.015625)"/>
      </defs>
      <use xlink:href="#Garamond-49"/>
      <use xlink:href="#Garamond-6e" x="35.400391"/>
      <use xlink:href="#Garamond-64" x="86.425781"/>
      <use xlink:href="#Garamond-65" x="136.425781"/>
      <use xlink:href="#Garamond-78" x="178.076172"/>
      <use xlink:href="#Garamond-20" x="223.925781"/>
      <use xlink:href="#Garamond-6f" x="248.925781"/>
      <use xlink:href="#Garamond-66" x="299.951172"/>
      <use xlink:href="#Garamond-20" x="345.351562"/>
      <use xlink:href="#Garamond-41" x="370.351562"/>
      <use xlink:href="#Garamond-72" x="438.076172"/>
      <use xlink:href="#Garamond-74" x="473.425781"/>
      <use xlink:href="#Garamond-69" x="502.576172"/>
      <use xlink:href="#Garamond-63" x="525.476562"/>
      <use xlink:href="#Garamond-6c" x="567.126953"/>
      <use xlink:href="#Garamond-65" x="590.027344"/>
      <use xlink:href="#Garamond-73" x="631.677734"/>
     </g>
    </g>
   </g>
   <g id="matplotlib.axis_2">
    <g id="ytick_1">
     <g id="line2d_9">
      <defs>
       <path id="m93b16813a0" d="M 0 0 
L -3.5 0 
" style="stroke: #000000; stroke-width: 0.8"/>
      </defs>
      <g>
       <use xlink:href="#m93b16813a0" x="47.36" y="375.167667" style="stroke: #000000; stroke-width: 0.8"/>
      </g>
     </g>
     <g id="text_10">
      <!-- 0.10 -->
      <g transform="translate(24.11 378.412198) scale(0.1 -0.1)">
       <use xlink:href="#Garamond-30"/>
       <use xlink:href="#Garamond-2e" x="46.875"/>
       <use xlink:href="#Garamond-31" x="68.75"/>
       <use xlink:href="#Garamond-30" x="115.625"/>
      </g>
     </g>
    </g>
    <g id="ytick_2">
     <g id="line2d_10">
      <g>
       <use xlink:href="#m93b16813a0" x="47.36" y="308.065171" style="stroke: #000000; stroke-width: 0.8"/>
      </g>
     </g>
     <g id="text_11">
      <!-- 0.12 -->
      <g transform="translate(24.11 311.309702) scale(0.1 -0.1)">
       <use xlink:href="#Garamond-30"/>
       <use xlink:href="#Garamond-2e" x="46.875"/>
       <use xlink:href="#Garamond-31" x="68.75"/>
       <use xlink:href="#Garamond-32" x="115.625"/>
      </g>
     </g>
    </g>
    <g id="ytick_3">
     <g id="line2d_11">
      <g>
       <use xlink:href="#m93b16813a0" x="47.36" y="240.962675" style="stroke: #000000; stroke-width: 0.8"/>
      </g>
     </g>
     <g id="text_12">
      <!-- 0.14 -->
      <g transform="translate(24.11 244.207206) scale(0.1 -0.1)">
       <defs>
        <path id="Garamond-34" d="M 2097 4075 
L 2241 4075 
Q 2238 3978 2238 3959 
L 2247 3500 
L 2228 3088 
L 2241 2628 
L 2241 2266 
L 2247 1772 
Q 2247 1656 2241 1422 
L 2306 1419 
L 2528 1419 
L 2741 1416 
L 2916 1422 
Q 2922 1325 2922 1278 
Q 2922 1231 2916 1134 
Q 2722 1125 2706 1125 
L 2550 1128 
L 2425 1128 
Q 2375 1128 2241 1134 
Q 2234 691 2241 -44 
Q 2222 -63 2200 -69 
L 2006 -75 
Q 1944 -75 1816 -69 
Q 1825 300 1825 459 
Q 1825 600 1819 716 
Q 1809 928 1809 959 
Q 1809 1016 1816 1134 
Q 1684 1119 1613 1119 
Q 1575 1119 1528 1122 
Q 1213 1138 1172 1138 
Q 1131 1138 972 1116 
L 650 1134 
L 475 1125 
L 356 1144 
L 206 1113 
L 178 1134 
Q 172 1203 172 1238 
Q 172 1272 178 1341 
Q 266 1456 500 1809 
L 1109 2694 
Q 1334 3028 1487 3225 
Q 1641 3422 1791 3648 
Q 1941 3875 2097 4075 
z
M 1816 1422 
L 1819 1934 
L 1816 2341 
L 1816 3388 
Q 1559 3050 1103 2366 
Q 581 1584 484 1422 
Q 622 1428 691 1428 
L 1547 1416 
Q 1641 1416 1816 1422 
z
" transform="scale(0.015625)"/>
       </defs>
       <use xlink:href="#Garamond-30"/>
       <use xlink:href="#Garamond-2e" x="46.875"/>
       <use xlink:href="#Garamond-31" x="68.75"/>
       <use xlink:href="#Garamond-34" x="115.625"/>
      </g>
     </g>
    </g>
    <g id="ytick_4">
     <g id="line2d_12">
      <g>
       <use xlink:href="#m93b16813a0" x="47.36" y="173.860179" style="stroke: #000000; stroke-width: 0.8"/>
      </g>
     </g>
     <g id="text_13">
      <!-- 0.16 -->
      <g transform="translate(24.11 177.10471) scale(0.1 -0.1)">
       <defs>
        <path id="Garamond-36" d="M 2459 4094 
Q 2488 4047 2500 3991 
Q 2481 3956 2441 3944 
Q 2309 3909 2053 3763 
Q 1994 3731 1691 3472 
Q 1556 3378 1366 3122 
Q 1106 2778 993 2508 
Q 881 2238 794 1800 
Q 769 1675 759 1359 
L 750 1244 
Q 750 844 986 445 
Q 1222 47 1575 47 
Q 1759 47 1920 159 
Q 2081 272 2175 540 
Q 2269 809 2269 1191 
Q 2269 1709 2070 1957 
Q 1872 2206 1594 2206 
Q 1509 2206 1444 2181 
L 1419 2175 
Q 1378 2175 1334 2266 
Q 1416 2319 1531 2353 
Q 1647 2388 1681 2388 
Q 1703 2388 1966 2341 
L 2056 2297 
Q 2206 2250 2284 2188 
Q 2428 2072 2541 1897 
Q 2597 1806 2691 1528 
Q 2697 1509 2734 1253 
L 2719 941 
Q 2653 659 2594 547 
Q 2506 375 2300 172 
Q 2194 69 2025 3 
Q 1788 -88 1522 -88 
Q 1016 -88 664 317 
Q 313 722 313 1491 
Q 313 1919 444 2301 
Q 575 2684 816 3003 
Q 978 3219 1258 3466 
Q 1538 3713 1788 3850 
Q 2128 4031 2459 4094 
z
" transform="scale(0.015625)"/>
       </defs>
       <use xlink:href="#Garamond-30"/>
       <use xlink:href="#Garamond-2e" x="46.875"/>
       <use xlink:href="#Garamond-31" x="68.75"/>
       <use xlink:href="#Garamond-36" x="115.625"/>
      </g>
     </g>
    </g>
    <g id="ytick_5">
     <g id="line2d_13">
      <g>
       <use xlink:href="#m93b16813a0" x="47.36" y="106.757683" style="stroke: #000000; stroke-width: 0.8"/>
      </g>
     </g>
     <g id="text_14">
      <!-- 0.18 -->
      <g transform="translate(24.11 110.002214) scale(0.1 -0.1)">
       <defs>
        <path id="Garamond-38" d="M 1206 1997 
Q 903 2159 794 2256 
Q 638 2391 533 2603 
Q 428 2816 428 3038 
Q 428 3425 736 3739 
Q 1044 4053 1491 4053 
Q 1994 4053 2287 3787 
Q 2581 3522 2581 3141 
Q 2581 2928 2493 2753 
Q 2406 2578 2234 2438 
Q 2119 2341 1838 2197 
Q 2266 1969 2347 1903 
Q 2516 1772 2631 1556 
Q 2747 1341 2747 1078 
Q 2747 588 2408 250 
Q 2069 -88 1544 -88 
Q 1003 -88 683 207 
Q 363 503 363 938 
Q 363 1184 447 1386 
Q 531 1588 709 1731 
Q 847 1841 1206 1997 
z
M 1697 2269 
Q 1959 2413 2063 2566 
Q 2231 2819 2231 3141 
Q 2231 3391 2131 3570 
Q 2031 3750 1864 3828 
Q 1697 3906 1503 3906 
Q 1194 3906 994 3693 
Q 794 3481 794 3172 
Q 794 2991 847 2870 
Q 900 2750 1016 2647 
Q 1091 2578 1366 2400 
Q 1406 2375 1563 2322 
Q 1609 2306 1697 2269 
z
M 1359 1928 
Q 1134 1809 1044 1719 
Q 906 1588 828 1406 
Q 750 1225 750 906 
Q 750 572 897 381 
Q 1141 66 1534 66 
Q 1894 66 2123 294 
Q 2353 522 2353 881 
Q 2353 1272 2120 1500 
Q 1888 1728 1359 1928 
z
" transform="scale(0.015625)"/>
       </defs>
       <use xlink:href="#Garamond-30"/>
       <use xlink:href="#Garamond-2e" x="46.875"/>
       <use xlink:href="#Garamond-31" x="68.75"/>
       <use xlink:href="#Garamond-38" x="115.625"/>
      </g>
     </g>
    </g>
    <g id="ytick_6">
     <g id="line2d_14">
      <g>
       <use xlink:href="#m93b16813a0" x="47.36" y="39.655187" style="stroke: #000000; stroke-width: 0.8"/>
      </g>
     </g>
     <g id="text_15">
      <!-- 0.20 -->
      <g transform="translate(24.11 42.899718) scale(0.1 -0.1)">
       <use xlink:href="#Garamond-30"/>
       <use xlink:href="#Garamond-2e" x="46.875"/>
       <use xlink:href="#Garamond-32" x="68.75"/>
       <use xlink:href="#Garamond-30" x="115.625"/>
      </g>
     </g>
    </g>
    <g id="text_16">
     <!-- Relevance Score -->
     <g transform="translate(17.545938 240.519063) rotate(-90) scale(0.1 -0.1)">
      <defs>
       <path id="Garamond-52" d="M 175 94 
Q 631 147 691 169 
Q 731 184 766 263 
L 766 297 
Q 766 375 791 863 
Q 797 1000 797 1131 
L 788 1503 
L 794 1925 
L 791 2709 
L 794 3272 
Q 797 3628 739 3706 
Q 681 3784 440 3817 
Q 200 3850 175 3865 
Q 150 3881 150 3916 
Q 150 3938 159 3972 
Q 191 4000 303 4003 
Q 319 4003 389 4011 
Q 459 4019 522 4019 
L 778 4019 
L 1600 4028 
Q 2297 4028 2576 3925 
Q 2856 3822 3022 3576 
Q 3188 3331 3188 3028 
Q 3188 2453 2584 2150 
Q 2481 2097 2422 2056 
Q 2528 1831 2719 1516 
L 3116 834 
Q 3353 459 3443 364 
Q 3534 269 3664 206 
Q 3794 144 4100 88 
Q 4103 56 4103 38 
Q 4103 19 4100 -9 
Q 3672 -16 3097 -16 
Q 3056 -16 2984 -9 
Q 2763 416 2463 925 
L 2000 1769 
Q 1906 1900 1845 1933 
Q 1784 1966 1684 1966 
L 1419 1963 
L 1331 1966 
Q 1322 1866 1322 1556 
L 1322 488 
Q 1319 428 1347 322 
Q 1372 263 1433 227 
Q 1494 191 1784 119 
L 1913 88 
Q 1938 56 1938 3 
Q 1853 -13 1819 -13 
Q 1538 -13 1422 -6 
Q 1363 -3 1325 -3 
L 900 -9 
L 484 -6 
Q 456 -6 200 -16 
L 138 -3 
L 131 28 
Q 131 56 175 94 
z
M 1338 2138 
Q 1422 2134 1463 2134 
Q 1688 2134 1981 2188 
Q 2188 2228 2316 2320 
Q 2444 2413 2530 2594 
Q 2616 2775 2616 2969 
Q 2616 3181 2481 3419 
Q 2378 3600 2133 3722 
Q 1888 3844 1544 3844 
Q 1459 3844 1325 3834 
Q 1313 3672 1313 3584 
L 1328 3000 
L 1325 2759 
Q 1325 2516 1338 2138 
z
" transform="scale(0.015625)"/>
       <path id="Garamond-76" d="M -34 2481 
Q 313 2478 572 2459 
Q 756 2459 841 2466 
Q 900 2469 916 2469 
L 1266 2466 
Q 1338 2453 1381 2450 
Q 1400 2444 1416 2416 
Q 1416 2384 1397 2350 
Q 1344 2334 1288 2331 
Q 1053 2306 894 2259 
Q 872 2244 872 2228 
Q 872 2197 903 2131 
Q 909 2116 931 2056 
L 1244 1306 
Q 1453 791 1631 438 
Q 1753 669 1856 916 
Q 1959 1163 2159 1694 
Q 2216 1844 2266 2066 
Q 2275 2109 2275 2141 
Q 2275 2178 2233 2223 
Q 2191 2269 2091 2297 
Q 2069 2300 1806 2344 
Q 1784 2356 1766 2378 
L 1766 2403 
Q 1766 2419 1769 2444 
Q 1844 2453 1878 2453 
L 2247 2450 
Q 2284 2450 2425 2459 
Q 2922 2459 3022 2450 
Q 3041 2444 3056 2413 
Q 3056 2384 3038 2350 
L 2941 2325 
Q 2903 2322 2881 2319 
Q 2613 2294 2550 2244 
Q 2503 2209 2403 1922 
Q 2356 1781 2266 1566 
L 2103 1172 
Q 2069 1088 2028 988 
L 1544 -131 
L 1450 -131 
Q 1422 -56 1381 25 
L 1144 528 
L 584 1838 
Q 416 2219 381 2250 
Q 347 2281 -19 2381 
Q -38 2431 -38 2453 
L -34 2481 
z
" transform="scale(0.015625)"/>
       <path id="Garamond-61" d="M 2541 425 
Q 2559 384 2559 366 
Q 2559 319 2484 200 
Q 2388 44 2269 -28 
Q 2194 -75 2063 -75 
Q 1838 -75 1725 63 
Q 1656 144 1628 353 
L 1278 109 
Q 1094 3 997 -25 
Q 841 -66 622 -66 
Q 463 -66 370 29 
Q 278 125 278 275 
Q 278 491 542 791 
Q 806 1091 1259 1281 
Q 1578 1416 1650 1453 
Q 1656 1556 1656 1678 
Q 1656 2075 1545 2215 
Q 1434 2356 1228 2356 
Q 1013 2356 825 2188 
Q 709 2081 650 1788 
Q 631 1706 578 1613 
Q 444 1525 363 1525 
Q 294 1525 238 1566 
Q 206 1588 206 1616 
Q 206 1697 379 1983 
Q 553 2269 817 2411 
Q 1081 2553 1278 2553 
Q 1547 2553 1678 2504 
Q 1809 2456 1909 2334 
Q 2009 2213 2031 2069 
Q 2044 2000 2044 1578 
L 2034 1081 
L 2038 719 
Q 2038 647 2034 597 
Q 2031 506 2031 463 
Q 2031 359 2091 297 
Q 2150 234 2231 234 
Q 2350 234 2434 353 
L 2472 403 
Q 2488 413 2541 425 
z
M 1622 516 
Q 1644 913 1644 1075 
Q 1644 1159 1634 1303 
Q 1425 1228 1190 1075 
Q 956 922 819 722 
Q 719 578 719 450 
Q 719 328 801 247 
Q 884 166 1009 166 
Q 1106 166 1244 234 
Q 1425 325 1622 516 
z
" transform="scale(0.015625)"/>
       <path id="Garamond-53" d="M 2484 3856 
Q 2509 3650 2509 3619 
L 2497 3341 
Q 2491 3163 2481 3113 
Q 2453 3100 2434 3100 
L 2406 3106 
Q 2306 3544 2067 3744 
Q 1828 3944 1484 3944 
Q 1128 3944 900 3744 
Q 672 3544 672 3278 
Q 672 3075 831 2906 
Q 991 2738 1647 2400 
Q 2147 2141 2362 1977 
Q 2578 1813 2687 1597 
Q 2797 1381 2797 1116 
Q 2797 781 2623 487 
Q 2450 194 2156 45 
Q 1863 -103 1378 -103 
Q 956 -103 569 31 
Q 341 113 291 163 
Q 241 213 241 269 
Q 241 303 247 356 
Q 291 725 294 963 
Q 300 1109 316 1134 
Q 328 1156 363 1156 
Q 391 1156 408 1136 
Q 425 1116 431 1059 
Q 466 675 788 372 
Q 1106 69 1509 69 
Q 1756 69 1964 172 
Q 2172 275 2289 470 
Q 2406 666 2406 850 
Q 2406 1103 2228 1313 
Q 2050 1522 1512 1801 
Q 975 2081 813 2209 
Q 550 2419 419 2653 
Q 322 2834 322 3075 
Q 322 3509 665 3811 
Q 1009 4113 1588 4113 
Q 1906 4113 2138 4041 
Q 2306 3984 2484 3856 
z
" transform="scale(0.015625)"/>
      </defs>
      <use xlink:href="#Garamond-52"/>
      <use xlink:href="#Garamond-65" x="60"/>
      <use xlink:href="#Garamond-6c" x="101.650391"/>
      <use xlink:href="#Garamond-65" x="124.550781"/>
      <use xlink:href="#Garamond-76" x="166.201172"/>
      <use xlink:href="#Garamond-61" x="211.201172"/>
      <use xlink:href="#Garamond-6e" x="251.826172"/>
      <use xlink:href="#Garamond-63" x="302.851562"/>
      <use xlink:href="#Garamond-65" x="344.501953"/>
      <use xlink:href="#Garamond-20" x="386.152344"/>
      <use xlink:href="#Garamond-53" x="411.152344"/>
      <use xlink:href="#Garamond-63" x="459.052734"/>
      <use xlink:href="#Garamond-6f" x="500.703125"/>
      <use xlink:href="#Garamond-72" x="551.728516"/>
      <use xlink:href="#Garamond-65" x="585.078125"/>
     </g>
    </g>
   </g>
   <g id="patch_3">
    <path d="M 47.36 391.48 
L 47.36 26.88 
" style="fill: none; stroke: #000000; stroke-width: 0.8; stroke-linejoin: miter; stroke-linecap: square"/>
   </g>
   <g id="patch_4">
    <path d="M 853.2 391.48 
L 853.2 26.88 
" style="fill: none; stroke: #000000; stroke-width: 0.8; stroke-linejoin: miter; stroke-linecap: square"/>
   </g>
   <g id="patch_5">
    <path d="M 47.36 391.48 
L 853.2 391.48 
" style="fill: none; stroke: #000000; stroke-width: 0.8; stroke-linejoin: miter; stroke-linecap: square"/>
   </g>
   <g id="patch_6">
    <path d="M 47.36 26.88 
L 853.2 26.88 
" style="fill: none; stroke: #000000; stroke-width: 0.8; stroke-linejoin: miter; stroke-linecap: square"/>
   </g>
   <g id="text_17">
    <!-- Relevance Score Distribution -->
    <g transform="translate(360.0575 20.88) scale(0.16 -0.16)">
     <defs>
      <path id="Garamond-44" d="M 75 63 
Q 191 113 344 128 
Q 566 153 675 234 
Q 759 406 759 1109 
L 759 1603 
L 766 1900 
L 759 2119 
L 766 2522 
L 756 3538 
Q 756 3709 706 3763 
Q 634 3841 325 3906 
Q 197 3934 169 3957 
Q 141 3981 134 4047 
Q 206 4063 234 4063 
L 456 4063 
L 572 4066 
Q 688 4066 828 4041 
Q 1116 4022 1419 4022 
Q 1506 4022 1669 4031 
Q 2100 4056 2288 4056 
Q 2666 4056 3002 3981 
Q 3338 3906 3694 3703 
Q 3916 3575 4148 3298 
Q 4381 3022 4501 2695 
Q 4622 2369 4622 1959 
Q 4622 1594 4489 1234 
Q 4356 875 4118 611 
Q 3881 347 3637 214 
Q 3394 81 2894 -16 
Q 2688 -53 2153 -53 
Q 1800 -53 1578 -31 
Q 1491 -19 1391 -19 
Q 1375 -19 1356 -22 
L 81 -44 
L 75 -19 
Q 69 -3 69 16 
L 75 63 
z
M 1666 184 
Q 1903 103 2147 103 
Q 2463 103 2766 201 
Q 3069 300 3301 479 
Q 3534 659 3684 886 
Q 3834 1113 3897 1294 
Q 3984 1559 3984 1984 
Q 3984 2391 3813 2809 
Q 3694 3100 3395 3365 
Q 3097 3631 2690 3754 
Q 2284 3878 1813 3878 
Q 1488 3878 1331 3806 
Q 1313 3788 1294 3763 
Q 1275 3684 1275 3619 
Q 1275 3578 1278 3522 
Q 1288 3159 1288 2941 
L 1284 2231 
Q 1284 669 1342 492 
Q 1400 316 1666 184 
z
" transform="scale(0.015625)"/>
      <path id="Garamond-62" d="M 106 3928 
L 106 3944 
Q 106 3975 131 4031 
Q 472 4091 856 4213 
Q 878 4216 925 4216 
Q 941 4166 941 4150 
L 941 3219 
L 938 2922 
L 941 2591 
L 934 2322 
Q 934 2306 941 2216 
L 1197 2313 
Q 1238 2325 1466 2394 
Q 1756 2441 1803 2441 
Q 2116 2441 2366 2341 
Q 2519 2278 2669 2133 
Q 2819 1988 2891 1825 
Q 3016 1528 3016 1313 
Q 3016 972 2972 841 
Q 2866 528 2712 347 
Q 2559 166 2284 37 
Q 2009 -91 1700 -91 
Q 1416 -91 1162 15 
Q 909 122 878 122 
Q 781 122 631 -134 
L 541 -131 
Q 528 78 528 384 
L 534 850 
L 531 1088 
L 538 1769 
L 531 1900 
L 544 2222 
L 544 2497 
L 547 2609 
Q 547 2644 544 2881 
L 544 3069 
Q 553 3613 497 3697 
Q 406 3831 106 3928 
z
M 1591 81 
Q 2066 81 2314 348 
Q 2563 616 2563 1144 
Q 2563 1628 2281 1928 
Q 2000 2228 1588 2228 
Q 1288 2228 1084 2131 
Q 963 2072 948 2022 
Q 934 1972 934 1353 
Q 934 619 966 494 
Q 1019 300 1159 216 
Q 1381 81 1591 81 
z
" transform="scale(0.015625)"/>
      <path id="Garamond-75" d="M 103 2453 
L 338 2453 
L 441 2447 
L 522 2453 
Q 844 2453 922 2447 
L 925 2388 
Q 925 1947 913 1534 
Q 903 1291 903 1256 
Q 903 706 939 568 
Q 975 431 1108 348 
Q 1241 266 1428 266 
Q 1656 266 1864 361 
Q 2072 456 2219 594 
Q 2234 713 2234 856 
Q 2234 1322 2244 1484 
Q 2247 1581 2247 1653 
Q 2247 2159 2197 2225 
Q 2147 2291 1816 2325 
Q 1706 2338 1656 2347 
Q 1631 2388 1631 2409 
L 1641 2444 
Q 1722 2453 1800 2453 
L 2297 2447 
Q 2563 2453 2578 2453 
Q 2613 2453 2644 2450 
L 2650 2222 
Q 2628 1747 2625 1047 
L 2619 794 
L 2631 369 
Q 2659 319 2681 309 
Q 2719 294 2834 294 
L 2863 294 
Q 2903 294 3094 275 
Q 3097 234 3097 216 
L 3097 181 
Q 2678 91 2419 0 
Q 2316 -34 2244 -50 
Q 2228 59 2228 84 
L 2228 338 
Q 2228 353 2225 422 
Q 2184 394 2131 353 
Q 1884 163 1609 31 
Q 1425 -59 1253 -59 
Q 925 -59 719 184 
Q 509 428 509 1016 
Q 509 1047 513 1128 
Q 525 1278 525 1338 
Q 525 1359 522 1475 
Q 519 1525 519 1563 
Q 519 1591 522 1689 
Q 525 1788 525 1828 
Q 525 1881 522 1922 
L 516 2088 
L 519 2175 
Q 519 2225 469 2266 
Q 272 2319 211 2326 
Q 150 2334 103 2353 
L 103 2453 
z
" transform="scale(0.015625)"/>
     </defs>
     <use xlink:href="#Garamond-52"/>
     <use xlink:href="#Garamond-65" x="60"/>
     <use xlink:href="#Garamond-6c" x="101.650391"/>
     <use xlink:href="#Garamond-65" x="124.550781"/>
     <use xlink:href="#Garamond-76" x="166.201172"/>
     <use xlink:href="#Garamond-61" x="211.201172"/>
     <use xlink:href="#Garamond-6e" x="251.826172"/>
     <use xlink:href="#Garamond-63" x="302.851562"/>
     <use xlink:href="#Garamond-65" x="344.501953"/>
     <use xlink:href="#Garamond-20" x="386.152344"/>
     <use xlink:href="#Garamond-53" x="411.152344"/>
     <use xlink:href="#Garamond-63" x="459.052734"/>
     <use xlink:href="#Garamond-6f" x="500.703125"/>
     <use xlink:href="#Garamond-72" x="551.728516"/>
     <use xlink:href="#Garamond-65" x="585.078125"/>
     <use xlink:href="#Garamond-20" x="626.728516"/>
     <use xlink:href="#Garamond-44" x="651.728516"/>
     <use xlink:href="#Garamond-69" x="728.828125"/>
     <use xlink:href="#Garamond-73" x="751.728516"/>
     <use xlink:href="#Garamond-74" x="788.203125"/>
     <use xlink:href="#Garamond-72" x="817.353516"/>
     <use xlink:href="#Garamond-69" x="850.703125"/>
     <use xlink:href="#Garamond-62" x="873.603516"/>
     <use xlink:href="#Garamond-75" x="924.628906"/>
     <use xlink:href="#Garamond-74" x="973.603516"/>
     <use xlink:href="#Garamond-69" x="1002.753906"/>
     <use xlink:href="#Garamond-6f" x="1025.654297"/>
     <use xlink:href="#Garamond-6e" x="1076.679688"/>
    </g>
   </g>
  </g>
 </g>
 <defs>
  <clipPath id="p7edfa7fef1">
   <rect x="47.36" y="26.88" width="805.84" height="364.6"/>
  </clipPath>
 </defs>
</svg>
