<?xml version="1.0" encoding="utf-8" standalone="no"?>
<!DOCTYPE svg PUBLIC "-//W3C//DTD SVG 1.1//EN"
  "http://www.w3.org/Graphics/SVG/1.1/DTD/svg11.dtd">
<svg xmlns:xlink="http://www.w3.org/1999/xlink" width="576pt" height="432pt" viewBox="0 0 576 432" xmlns="http://www.w3.org/2000/svg" version="1.1">
 <metadata>
  <rdf:RDF xmlns:dc="http://purl.org/dc/elements/1.1/" xmlns:cc="http://creativecommons.org/ns#" xmlns:rdf="http://www.w3.org/1999/02/22-rdf-syntax-ns#">
   <cc:Work>
    <dc:type rdf:resource="http://purl.org/dc/dcmitype/StillImage"/>
    <dc:date>2024-12-24T19:43:41.790146</dc:date>
    <dc:format>image/svg+xml</dc:format>
    <dc:creator>
     <cc:Agent>
      <dc:title>Matplotlib v3.9.3, https://matplotlib.org/</dc:title>
     </cc:Agent>
    </dc:creator>
   </cc:Work>
  </rdf:RDF>
 </metadata>
 <defs>
  <style type="text/css">*{stroke-linejoin: round; stroke-linecap: butt}</style>
 </defs>
 <g id="figure_1">
  <g id="patch_1">
   <path d="M 0 432 
L 576 432 
L 576 0 
L 0 0 
z
" style="fill: #ffffff"/>
  </g>
  <g id="axes_1">
   <g id="patch_2">
    <path d="M 68.17901 57.957584 
Q 129.32377 126.74544 189.725749 194.697666 
" clip-path="url(#p65b0c25dad)" style="fill: none; stroke: #808080; stroke-linecap: round"/>
    <path d="M 187.400476 186.060936 
L 189.725749 194.697666 
L 181.421201 191.375847 
z
" clip-path="url(#p65b0c25dad)" style="fill: #808080; stroke: #808080; stroke-linecap: round"/>
   </g>
   <g id="patch_3">
    <path d="M 68.17901 374.042416 
Q 129.32377 305.25456 189.725749 237.302334 
" clip-path="url(#p65b0c25dad)" style="fill: none; stroke: #808080; stroke-linecap: round"/>
    <path d="M 181.421201 240.624153 
L 189.725749 237.302334 
L 187.400476 245.939064 
z
" clip-path="url(#p65b0c25dad)" style="fill: #808080; stroke: #808080; stroke-linecap: round"/>
   </g>
   <g id="patch_4">
    <path d="M 226.856696 195.530019 
Q 288.001456 126.742164 348.403435 58.789937 
" clip-path="url(#p65b0c25dad)" style="fill: none; stroke: #808080; stroke-linecap: round"/>
    <path d="M 340.098887 62.111757 
L 348.403435 58.789937 
L 346.078161 67.426667 
z
" clip-path="url(#p65b0c25dad)" style="fill: #808080; stroke: #808080; stroke-linecap: round"/>
   </g>
   <g id="patch_5">
    <path d="M 367.338843 64.876247 
Q 367.338843 216.001817 367.338843 366.009353 
" clip-path="url(#p65b0c25dad)" style="fill: none; stroke: #808080; stroke-linecap: round"/>
    <path d="M 371.338843 358.009353 
L 367.338843 366.009353 
L 363.338843 358.009353 
z
" clip-path="url(#p65b0c25dad)" style="fill: #808080; stroke: #808080; stroke-linecap: round"/>
   </g>
   <g id="patch_6">
    <path d="M 385.534381 374.042416 
Q 446.679142 305.25456 507.081121 237.302334 
" clip-path="url(#p65b0c25dad)" style="fill: none; stroke: #808080; stroke-linecap: round"/>
    <path d="M 498.776573 240.624153 
L 507.081121 237.302334 
L 504.755847 245.939064 
z
" clip-path="url(#p65b0c25dad)" style="fill: #808080; stroke: #808080; stroke-linecap: round"/>
   </g>
   <g id="text_1">
    <g id="patch_7">
     <path d="M 98.692157 103.797298 
L 148.519445 159.852996 
Q 150.512536 162.095224 152.754764 160.102133 
L 159.703335 153.925625 
Q 161.945563 151.932534 159.952471 149.690306 
L 110.125184 93.634607 
Q 108.132092 91.392379 105.889864 93.38547 
L 98.941293 99.561978 
Q 96.699065 101.55507 98.692157 103.797298 
z
" clip-path="url(#p65b0c25dad)" style="fill: #ffffff; stroke: #ffffff; stroke-linejoin: miter"/>
    </g>
    <g clip-path="url(#p65b0c25dad)">
     <!-- 争夺食物/栖息地 -->
     <g transform="translate(101.868646 100.973751) rotate(-311.633539) scale(0.1 -0.1)">
      <defs>
       <path id="SimHei-4e89" d="M 5225 3500 
Q 5200 3150 5200 2525 
L 5475 2525 
Q 5825 2525 6100 2550 
L 6100 2125 
Q 5850 2150 5500 2150 
L 5200 2150 
Q 5200 1175 5225 850 
L 4725 850 
L 4725 1100 
L 3350 1100 
L 3350 0 
Q 3325 -375 3087 -450 
Q 2850 -525 2375 -600 
Q 2300 -300 2125 -25 
Q 2675 -50 2775 12 
Q 2875 75 2875 250 
L 2875 1100 
L 1075 1100 
L 1075 1500 
Q 1450 1475 1875 1475 
L 2875 1475 
L 2875 2150 
L 1300 2150 
Q 875 2150 450 2125 
L 450 2550 
Q 875 2525 1200 2525 
L 2875 2525 
L 2875 3150 
L 2075 3150 
Q 1725 3150 1300 3125 
L 1300 3450 
Q 1100 3250 825 3025 
Q 775 3125 475 3325 
Q 950 3650 1400 4212 
Q 1850 4775 2100 5300 
Q 2275 5150 2625 5075 
Q 2475 4950 2387 4837 
Q 2300 4725 2200 4600 
L 4425 4600 
Q 4225 4325 3700 3500 
L 5225 3500 
z
M 1950 4175 
Q 1700 3875 1375 3525 
Q 1675 3500 1975 3500 
L 3200 3500 
Q 3375 3825 3575 4175 
L 1950 4175 
z
M 4725 1475 
L 4725 2150 
L 3350 2150 
L 3350 1475 
L 4725 1475 
z
M 4725 2525 
L 4725 3150 
L 3350 3150 
L 3350 2525 
L 4725 2525 
z
" transform="scale(0.015625)"/>
       <path id="SimHei-593a" d="M 4075 3950 
Q 4250 3525 4837 3225 
Q 5425 2925 6050 2850 
Q 5875 2600 5775 2300 
Q 5325 2425 4962 2587 
Q 4600 2750 4325 2962 
Q 4050 3175 3862 3425 
Q 3675 3675 3550 3950 
L 3100 3950 
Q 2900 3575 2637 3287 
Q 2375 3000 2037 2775 
Q 1700 2550 1300 2387 
Q 900 2225 500 2150 
Q 400 2425 225 2675 
Q 1125 2800 1700 3150 
Q 2275 3500 2550 3950 
L 1500 3950 
Q 1000 3950 500 3925 
L 500 4400 
Q 975 4375 1475 4375 
L 2700 4375 
Q 2825 4800 2850 5225 
Q 3200 5150 3525 5100 
Q 3400 4950 3337 4737 
Q 3275 4525 3225 4375 
L 4950 4375 
Q 5425 4375 5900 4400 
L 5900 3925 
Q 5325 3950 4800 3950 
L 4075 3950 
z
M 375 2025 
Q 900 2000 1425 2000 
L 3975 2000 
Q 3975 2475 3950 2650 
L 4525 2650 
Q 4500 2475 4500 2000 
L 5025 2000 
Q 5500 2000 6000 2025 
L 6000 1525 
Q 5500 1550 5025 1575 
L 4500 1575 
L 4500 325 
Q 4500 -275 4137 -387 
Q 3775 -500 3175 -575 
Q 3150 -300 2900 100 
Q 3750 75 3862 150 
Q 3975 225 3975 525 
L 3975 1575 
L 1400 1575 
Q 875 1575 375 1550 
L 375 2025 
z
M 1950 1325 
Q 2200 800 2400 300 
Q 2150 225 1850 125 
Q 1725 650 1400 1125 
Q 1725 1225 1950 1325 
z
" transform="scale(0.015625)"/>
       <path id="SimHei-98df" d="M 3350 4950 
Q 4000 4200 4725 3737 
Q 5450 3275 6100 3175 
Q 5900 2925 5825 2650 
Q 5300 2825 4750 3150 
L 4750 2200 
Q 4750 1750 4775 1175 
L 2000 1175 
L 2000 25 
Q 2500 175 2975 350 
Q 2950 100 3000 -150 
Q 2625 -250 2312 -362 
Q 2000 -475 1575 -650 
Q 1450 -375 1325 -200 
Q 1500 0 1525 325 
L 1525 3075 
Q 1000 2675 600 2450 
Q 475 2700 250 2875 
Q 750 3100 1225 3412 
Q 1700 3725 2225 4300 
Q 2750 4875 2900 5275 
Q 3175 5150 3475 5075 
L 3350 4950 
z
M 5450 850 
Q 5275 775 4650 275 
Q 5150 50 5525 -175 
Q 5300 -375 5200 -625 
Q 4575 -250 4050 37 
Q 3525 325 2825 600 
Q 3000 825 3100 975 
Q 3775 675 4200 475 
Q 4800 950 5000 1225 
Q 5200 1050 5450 850 
z
M 4550 3250 
Q 4025 3525 3100 4625 
Q 2350 3675 1775 3250 
L 4550 3250 
z
M 4275 1575 
L 4275 2050 
L 2000 2050 
L 2000 1575 
L 4275 1575 
z
M 4275 2450 
L 4275 2850 
L 2000 2850 
L 2000 2450 
L 4275 2450 
z
M 3275 4100 
Q 3325 3825 3425 3500 
Q 3200 3450 2950 3375 
Q 2900 3700 2800 3975 
Q 3025 4025 3275 4100 
z
" transform="scale(0.015625)"/>
       <path id="SimHei-7269" d="M 5550 3775 
L 5225 3775 
Q 5175 2925 5062 2312 
Q 4950 1700 4700 1225 
Q 4450 750 4087 337 
Q 3725 -75 3100 -475 
Q 2950 -250 2650 -75 
Q 3275 175 3662 575 
Q 4050 975 4275 1462 
Q 4500 1950 4600 2537 
Q 4700 3125 4750 3775 
L 4325 3775 
Q 4250 3025 3912 2275 
Q 3575 1525 3075 1025 
Q 2925 1250 2600 1350 
Q 3175 1825 3462 2400 
Q 3750 2975 3875 3775 
L 3500 3775 
Q 3175 3125 2950 2800 
Q 2750 2975 2500 3050 
Q 3025 3750 3275 4375 
Q 3525 5000 3575 5275 
Q 3925 5125 4200 5050 
Q 4075 4950 3962 4725 
Q 3850 4500 3725 4200 
L 6075 4200 
Q 5975 3100 5937 1850 
Q 5900 600 5862 225 
Q 5825 -150 5500 -287 
Q 5175 -425 4550 -500 
Q 4525 -225 4300 75 
Q 5025 25 5187 100 
Q 5350 175 5375 525 
L 5550 3775 
z
M 1250 4325 
Q 1100 4125 1025 3700 
L 1600 3700 
L 1600 4525 
Q 1600 4900 1550 5200 
L 2100 5200 
Q 2075 4900 2075 4525 
L 2075 3700 
Q 2325 3700 2650 3725 
L 2650 3275 
Q 2300 3300 2075 3300 
L 2075 2000 
Q 2500 2100 2775 2225 
Q 2775 2000 2800 1775 
Q 2475 1675 2075 1550 
L 2075 375 
Q 2075 -50 2100 -600 
L 1550 -600 
Q 1600 -100 1600 375 
L 1600 1425 
Q 1325 1350 1062 1262 
Q 800 1175 500 1025 
Q 425 1250 250 1575 
Q 700 1625 1600 1850 
L 1600 3300 
L 950 3300 
Q 850 2825 725 2375 
Q 475 2500 225 2500 
Q 450 3025 537 3512 
Q 625 4000 650 4425 
Q 925 4350 1250 4325 
z
" transform="scale(0.015625)"/>
       <path id="SimHei-2f" d="M 3000 4550 
L 350 -175 
L 100 -25 
L 2750 4700 
L 3000 4550 
z
" transform="scale(0.015625)"/>
       <path id="SimHei-6816" d="M 5300 -575 
L 5300 -50 
L 3075 -50 
L 3075 -575 
L 2600 -575 
Q 2625 -50 2625 450 
L 2625 2400 
Q 2625 2925 2600 3375 
L 3575 3375 
L 3575 4325 
Q 2825 4325 2450 4300 
L 2450 4750 
Q 2775 4725 3050 4725 
L 5375 4725 
Q 5600 4725 5900 4750 
L 5900 4300 
Q 5675 4325 4825 4325 
L 4825 3375 
L 5775 3375 
Q 5750 2850 5750 2400 
L 5750 425 
Q 5750 -200 5775 -575 
L 5300 -575 
z
M 2000 2875 
Q 2250 2425 2500 1900 
Q 2300 1825 2100 1650 
Q 1900 2125 1675 2500 
L 1675 575 
Q 1675 25 1700 -600 
L 1175 -600 
Q 1225 25 1225 575 
L 1225 2225 
Q 1025 1525 575 775 
Q 425 1025 200 1150 
Q 400 1400 662 1975 
Q 925 2550 1150 3525 
Q 600 3500 350 3475 
L 350 3950 
Q 625 3925 1225 3925 
Q 1225 4700 1200 5150 
L 1700 5150 
Q 1675 4700 1675 3925 
Q 2050 3925 2400 3950 
L 2400 3500 
Q 2075 3525 1675 3525 
L 1675 2650 
Q 1825 2750 2000 2875 
z
M 3075 1175 
Q 3300 1500 3437 1950 
Q 3575 2400 3575 2975 
L 3075 2975 
L 3075 1175 
z
M 4400 3375 
L 4400 4325 
L 4000 4325 
L 4000 3375 
L 4400 3375 
z
M 5300 2975 
L 4825 2975 
L 4825 1825 
Q 4825 1575 5125 1575 
L 5300 1575 
L 5300 2975 
z
M 5300 1175 
L 4775 1175 
Q 4400 1175 4400 1600 
L 4400 2975 
L 4000 2975 
Q 4000 2425 3875 1887 
Q 3750 1350 3475 825 
Q 3350 950 3075 1025 
L 3075 350 
L 5300 350 
L 5300 1175 
z
" transform="scale(0.015625)"/>
       <path id="SimHei-606f" d="M 3100 5100 
Q 2850 4725 2775 4525 
L 5300 4525 
Q 5275 4025 5275 3175 
Q 5275 2350 5300 1775 
L 1150 1775 
Q 1175 2350 1175 3175 
Q 1175 4025 1150 4525 
L 2325 4525 
Q 2400 4725 2475 5250 
Q 2750 5175 3100 5100 
z
M 2350 1350 
Q 2325 675 2325 375 
Q 2325 75 2387 12 
Q 2450 -50 2775 -50 
L 4025 -50 
Q 4200 -50 4262 25 
Q 4325 100 4350 550 
Q 4550 425 4875 350 
Q 4750 -150 4650 -275 
Q 4550 -400 4200 -425 
L 2350 -425 
Q 1950 -400 1887 -212 
Q 1825 -25 1837 325 
Q 1850 675 1825 1350 
L 2350 1350 
z
M 4800 3725 
L 4800 4175 
L 1650 4175 
L 1650 3725 
L 4800 3725 
z
M 4800 2125 
L 4800 2575 
L 1650 2575 
L 1650 2125 
L 4800 2125 
z
M 4800 2925 
L 4800 3375 
L 1650 3375 
L 1650 2925 
L 4800 2925 
z
M 5225 1425 
Q 5650 875 6125 325 
Q 5875 150 5700 -25 
Q 5225 700 4825 1100 
Q 5025 1225 5225 1425 
z
M 1275 1075 
Q 975 150 800 -225 
Q 575 -125 300 -50 
Q 600 375 800 1200 
Q 1000 1125 1275 1075 
z
M 3350 1500 
Q 3625 1100 3800 750 
Q 3625 675 3350 500 
Q 3175 925 2925 1250 
Q 3150 1375 3350 1500 
z
" transform="scale(0.015625)"/>
       <path id="SimHei-5730" d="M 2300 2275 
Q 2175 2575 2075 2750 
Q 2350 2800 2750 2950 
L 2750 3525 
Q 2750 3975 2725 4550 
L 3225 4550 
Q 3200 4025 3200 3550 
L 3200 3100 
L 3950 3375 
L 3950 4375 
Q 3950 4800 3925 5225 
L 4450 5225 
Q 4425 4925 4425 4350 
L 4425 3525 
Q 4800 3625 5725 3950 
Q 5700 3650 5700 3075 
L 5700 2100 
Q 5725 1450 5462 1275 
Q 5200 1100 4800 1000 
Q 4725 1250 4575 1525 
Q 5025 1575 5137 1662 
Q 5250 1750 5225 2225 
L 5225 3300 
Q 4800 3175 4425 3050 
L 4425 1375 
Q 4425 925 4450 625 
L 3925 625 
Q 3950 1075 3950 1375 
L 3950 2900 
L 3200 2625 
L 3200 550 
Q 3200 50 3550 50 
L 5150 50 
Q 5400 50 5475 212 
Q 5550 375 5625 775 
Q 5875 600 6175 550 
Q 6025 0 5850 -187 
Q 5675 -375 5300 -375 
L 3325 -375 
Q 2775 -375 2750 300 
L 2750 2475 
Q 2450 2375 2300 2275 
z
M 1625 925 
Q 1975 1025 2425 1225 
Q 2400 950 2400 725 
Q 1975 575 1437 400 
Q 900 225 525 25 
Q 450 275 275 550 
Q 650 650 1125 800 
L 1125 3000 
Q 650 3000 350 2975 
L 350 3450 
Q 650 3425 1125 3425 
L 1125 4225 
Q 1125 4650 1100 5075 
L 1650 5075 
Q 1625 4750 1625 4225 
L 1625 3425 
Q 2075 3425 2350 3450 
L 2350 2975 
Q 2075 3000 1625 3000 
L 1625 925 
z
" transform="scale(0.015625)"/>
      </defs>
      <use xlink:href="#SimHei-4e89"/>
      <use xlink:href="#SimHei-593a" x="100"/>
      <use xlink:href="#SimHei-98df" x="200"/>
      <use xlink:href="#SimHei-7269" x="300"/>
      <use xlink:href="#SimHei-2f" x="400"/>
      <use xlink:href="#SimHei-6816" x="450"/>
      <use xlink:href="#SimHei-606f" x="550"/>
      <use xlink:href="#SimHei-5730" x="650"/>
     </g>
    </g>
   </g>
   <g id="text_2">
    <g id="patch_8">
     <path d="M 121.766149 325.298706 
L 148.340702 295.402333 
Q 150.333794 293.160105 148.091566 291.167014 
L 141.113799 284.964554 
Q 138.871571 282.971463 136.87848 285.213691 
L 110.303926 315.110064 
Q 108.310834 317.352292 110.553062 319.345383 
L 117.530829 325.547842 
Q 119.773057 327.540934 121.766149 325.298706 
z
" clip-path="url(#p65b0c25dad)" style="fill: #ffffff; stroke: #ffffff; stroke-linejoin: miter"/>
    </g>
    <g clip-path="url(#p65b0c25dad)">
     <!-- 侵占资源 -->
     <g transform="translate(118.589659 322.47516) rotate(-48.366461) scale(0.1 -0.1)">
      <defs>
       <path id="SimHei-4fb5" d="M 2550 1925 
Q 2900 1900 3450 1900 
L 5350 1900 
Q 5025 1000 4400 400 
Q 5225 -75 6075 -50 
Q 5800 -425 5750 -575 
Q 4875 -450 4000 150 
Q 3400 -325 2325 -625 
Q 2275 -425 2025 -175 
Q 2750 -150 3625 400 
Q 3175 800 2875 1525 
L 2550 1525 
L 2550 1925 
z
M 5575 5025 
Q 5550 4725 5550 4125 
Q 5550 3525 5575 3200 
L 3300 3200 
Q 2875 3200 2475 3175 
L 2475 3550 
Q 2850 3525 3300 3525 
L 5150 3525 
L 5150 3900 
L 3325 3900 
Q 2875 3900 2575 3875 
L 2575 4275 
Q 2825 4250 3275 4250 
L 5150 4250 
L 5150 4650 
L 3275 4650 
Q 2850 4650 2475 4625 
L 2475 5050 
Q 2800 5025 3250 5025 
L 5575 5025 
z
M 225 2725 
Q 500 3000 962 3762 
Q 1425 4525 1625 5275 
Q 1875 5125 2200 5000 
Q 2000 4850 1525 3775 
L 1525 575 
Q 1525 -50 1550 -575 
L 1050 -575 
Q 1075 -50 1075 550 
L 1075 3150 
Q 775 2675 550 2325 
Q 400 2600 225 2725 
z
M 6050 2800 
Q 6025 2650 6025 2425 
Q 6025 2200 6050 1950 
L 5600 1950 
L 5600 2450 
L 2425 2450 
L 2425 1925 
L 1975 1925 
Q 2000 2150 2000 2375 
Q 2000 2625 1975 2800 
L 6050 2800 
z
M 3300 1525 
Q 3675 850 4025 650 
Q 4400 1000 4700 1525 
L 3300 1525 
z
" transform="scale(0.015625)"/>
       <path id="SimHei-5360" d="M 2725 4400 
Q 2725 4800 2700 5075 
L 3375 5075 
Q 3350 4775 3350 4400 
L 3350 4000 
L 5250 4000 
Q 5900 4000 6150 4025 
L 6150 3525 
Q 5900 3550 5300 3550 
L 3350 3550 
L 3350 2325 
L 5450 2325 
Q 5400 2000 5400 1525 
L 5400 325 
Q 5400 -250 5450 -550 
L 4850 -550 
L 4850 -25 
L 1475 -25 
L 1475 -550 
L 875 -550 
Q 900 -150 900 175 
L 900 1550 
Q 900 2000 875 2325 
L 2725 2325 
L 2725 4400 
z
M 4850 425 
L 4850 1875 
L 1475 1875 
L 1475 425 
L 4850 425 
z
" transform="scale(0.015625)"/>
       <path id="SimHei-8d44" d="M 5300 2150 
Q 5275 1825 5275 1450 
Q 5275 1075 5300 575 
L 4800 575 
L 4800 1725 
L 1700 1725 
L 1700 425 
L 1200 425 
Q 1225 1000 1225 1375 
Q 1225 1775 1200 2150 
L 5300 2150 
z
M 4225 4075 
Q 4050 3775 4200 3562 
Q 4350 3350 4612 3162 
Q 4875 2975 5262 2850 
Q 5650 2725 6125 2700 
Q 5925 2425 5825 2175 
Q 5200 2300 4712 2550 
Q 4225 2800 3900 3350 
Q 3675 2775 3250 2550 
Q 2825 2325 2325 2175 
Q 2125 2400 1925 2575 
Q 2975 2775 3300 3175 
Q 3625 3575 3650 4150 
L 4225 4075 
z
M 3125 4250 
Q 2825 3850 2550 3650 
Q 2375 3825 2175 3950 
Q 2475 4150 2737 4487 
Q 3000 4825 3150 5200 
Q 3375 5100 3700 5050 
Q 3575 4825 3400 4650 
L 5750 4650 
Q 5675 4500 5300 3675 
Q 5000 3750 4800 3775 
Q 4925 4050 5025 4250 
L 3125 4250 
z
M 3525 1375 
Q 3400 1100 3337 825 
Q 3275 550 3012 262 
Q 2750 -25 2250 -275 
Q 1750 -525 800 -675 
Q 725 -425 500 -200 
Q 1225 -175 1712 -12 
Q 2200 150 2450 350 
Q 2700 550 2812 837 
Q 2925 1125 2925 1450 
Q 3225 1400 3525 1375 
z
M 3825 700 
Q 4300 525 4750 350 
Q 5200 175 5825 -100 
Q 5675 -300 5550 -600 
Q 5075 -325 4612 -125 
Q 4150 75 3625 250 
Q 3750 450 3825 700 
z
M 2075 3325 
Q 1450 2750 875 2050 
Q 625 2325 475 2425 
Q 1275 3050 1725 3625 
Q 1850 3500 2075 3325 
z
M 1700 3975 
Q 1300 4275 625 4675 
Q 800 4850 925 5025 
Q 1150 4875 2000 4350 
Q 1850 4200 1700 3975 
z
" transform="scale(0.015625)"/>
       <path id="SimHei-6e90" d="M 4475 4300 
Q 4350 4100 4225 3800 
L 5650 3800 
Q 5625 3425 5625 3050 
L 5625 2425 
Q 5625 2150 5650 1650 
L 4575 1650 
L 4575 -25 
Q 4575 -325 4387 -487 
Q 4200 -650 3800 -700 
Q 3725 -425 3575 -150 
Q 4100 -225 4100 100 
L 4100 1650 
L 3050 1650 
Q 3075 2050 3075 2400 
L 3075 3075 
Q 3075 3400 3050 3800 
L 3725 3800 
Q 3825 4025 3925 4425 
Q 4175 4350 4475 4300 
z
M 1200 -175 
Q 1550 150 1725 537 
Q 1900 925 1987 1450 
Q 2075 1975 2087 2537 
Q 2100 3100 2100 3750 
Q 2100 4425 2075 4975 
L 4925 4975 
Q 5500 4975 6025 5000 
L 6025 4525 
Q 5500 4550 4925 4550 
L 2575 4550 
L 2575 2875 
Q 2575 2275 2537 1787 
Q 2500 1300 2362 837 
Q 2225 375 2050 37 
Q 1875 -300 1625 -625 
Q 1500 -375 1200 -175 
z
M 1550 1775 
Q 1375 1275 1150 575 
Q 925 -125 825 -450 
Q 600 -275 250 -125 
Q 400 75 650 687 
Q 900 1300 1075 2100 
Q 1325 1900 1550 1775 
z
M 5150 2900 
L 5150 3400 
L 3550 3400 
L 3550 2900 
L 5150 2900 
z
M 2275 -100 
Q 2475 100 2700 412 
Q 2925 725 3150 1150 
Q 3325 975 3650 825 
Q 3400 600 3200 287 
Q 3000 -25 2700 -400 
Q 2475 -225 2275 -100 
z
M 5150 2050 
L 5150 2500 
L 3550 2500 
L 3550 2050 
L 5150 2050 
z
M 5300 1125 
Q 6000 350 6175 100 
Q 5950 -75 5775 -250 
Q 5575 25 5400 262 
Q 5225 500 4925 825 
Q 5100 950 5300 1125 
z
M 1325 2575 
Q 1125 2775 850 2925 
L 300 3225 
Q 400 3400 525 3625 
Q 750 3500 1062 3337 
Q 1375 3175 1625 3025 
L 1325 2575 
z
M 1425 3975 
Q 975 4475 550 4775 
Q 700 4950 875 5125 
Q 1550 4600 1775 4350 
Q 1600 4175 1425 3975 
z
" transform="scale(0.015625)"/>
      </defs>
      <use xlink:href="#SimHei-4fb5"/>
      <use xlink:href="#SimHei-5360" x="100"/>
      <use xlink:href="#SimHei-8d44" x="200"/>
      <use xlink:href="#SimHei-6e90" x="300"/>
     </g>
    </g>
   </g>
   <g id="text_3">
    <g id="patch_9">
     <path d="M 270.492975 158.010425 
L 316.998443 105.691773 
Q 318.991535 103.449545 316.749307 101.456453 
L 309.742345 95.228042 
Q 307.500117 93.234951 305.507025 95.477178 
L 259.001557 147.795831 
Q 257.008465 150.038059 259.250693 152.03115 
L 266.257655 158.259561 
Q 268.499883 160.252653 270.492975 158.010425 
z
" clip-path="url(#p65b0c25dad)" style="fill: #ffffff; stroke: #ffffff; stroke-linejoin: miter"/>
    </g>
    <g clip-path="url(#p65b0c25dad)">
     <!-- 物种重叠与竞争 -->
     <g transform="translate(267.316485 155.186879) rotate(-48.366461) scale(0.1 -0.1)">
      <defs>
       <path id="SimHei-79cd" d="M 4225 4000 
Q 4225 4975 4200 5275 
L 4725 5275 
Q 4700 5000 4700 4000 
L 6000 4000 
Q 5975 3725 5975 3250 
L 5975 1550 
Q 5975 1275 6000 925 
L 5500 925 
L 5500 1425 
L 4700 1425 
L 4700 375 
Q 4700 -275 4725 -700 
L 4200 -700 
Q 4225 -275 4225 375 
L 4225 1425 
L 3425 1425 
L 3425 825 
L 2925 825 
Q 2950 1125 2950 1500 
L 2950 3200 
Q 2950 3725 2925 4000 
L 4225 4000 
z
M 350 3250 
Q 725 3225 1225 3225 
L 1425 3225 
L 1425 4325 
Q 1175 4250 575 4125 
Q 475 4350 350 4575 
Q 900 4600 1412 4737 
Q 1925 4875 2350 5100 
Q 2500 4900 2725 4625 
Q 2475 4600 2300 4550 
Q 2125 4500 1900 4450 
L 1900 3225 
Q 2225 3225 2700 3250 
L 2700 2800 
Q 2225 2825 1900 2825 
L 1900 225 
Q 1900 -125 1925 -650 
L 1400 -650 
Q 1425 -125 1425 225 
L 1425 1875 
Q 1225 1375 1062 1075 
Q 900 775 625 350 
Q 425 625 250 850 
Q 600 1225 887 1725 
Q 1175 2225 1300 2825 
L 925 2825 
Q 575 2825 350 2800 
L 350 3250 
z
M 4225 1825 
L 4225 3600 
L 3425 3600 
L 3425 1825 
L 4225 1825 
z
M 5500 1825 
L 5500 3600 
L 4700 3600 
L 4700 1825 
L 5500 1825 
z
M 2375 2475 
Q 2450 2300 2575 2125 
Q 2700 1950 2850 1625 
Q 2625 1525 2425 1375 
Q 2300 1650 2212 1837 
Q 2125 2025 1975 2225 
Q 2125 2325 2375 2475 
z
" transform="scale(0.015625)"/>
       <path id="SimHei-91cd" d="M 5300 4575 
Q 3900 4450 3425 4400 
L 3425 3875 
L 5150 3875 
Q 5500 3875 6000 3900 
L 6000 3450 
Q 5500 3475 5150 3475 
L 3425 3475 
L 3425 3050 
L 5150 3050 
Q 5125 2675 5125 2125 
Q 5125 1575 5150 1175 
L 3425 1175 
L 3425 750 
L 4550 750 
Q 5000 750 5500 775 
L 5500 375 
Q 5025 400 4575 400 
L 3425 400 
L 3425 -50 
L 5050 -50 
Q 5475 -50 5975 -25 
L 5975 -450 
Q 5475 -425 5075 -425 
L 1475 -425 
Q 975 -425 450 -450 
L 450 -25 
Q 975 -50 1450 -50 
L 2925 -50 
L 2925 400 
L 2050 400 
Q 1450 400 950 375 
L 950 775 
Q 1600 750 2075 750 
L 2925 750 
L 2925 1175 
L 1250 1175 
Q 1275 1800 1275 2125 
Q 1275 2450 1250 3050 
L 2925 3050 
L 2925 3475 
L 1225 3475 
Q 875 3475 400 3450 
L 400 3900 
Q 875 3875 1225 3875 
L 2925 3875 
L 2925 4375 
Q 2425 4350 1075 4250 
Q 1000 4475 875 4675 
Q 2275 4700 3362 4812 
Q 4450 4925 4925 5075 
Q 5025 4825 5300 4575 
z
M 4650 2300 
L 4650 2650 
L 3425 2650 
L 3425 2300 
L 4650 2300 
z
M 2925 2300 
L 2925 2650 
L 1750 2650 
L 1750 2300 
L 2925 2300 
z
M 4625 1575 
L 4625 1900 
L 3425 1900 
L 3425 1575 
L 4625 1575 
z
M 2925 1575 
L 2925 1900 
L 1750 1900 
L 1750 1575 
L 2925 1575 
z
" transform="scale(0.015625)"/>
       <path id="SimHei-53e0" d="M 850 2350 
Q 1200 2425 1700 2700 
Q 1475 2775 950 2900 
Q 1000 3025 1050 3175 
Q 1725 3025 2075 2925 
Q 2200 3025 2325 3200 
L 925 3200 
L 550 3175 
L 550 3550 
Q 925 3525 1275 3525 
L 2975 3525 
Q 2850 3300 2712 3150 
Q 2575 3000 2400 2825 
Q 2875 2675 3150 2550 
Q 3075 2475 2925 2200 
Q 2675 2375 2100 2575 
Q 1950 2500 1762 2387 
Q 1575 2275 1200 2100 
L 3500 2100 
Q 3450 2250 3275 2450 
Q 3700 2500 4225 2700 
Q 3975 2800 3500 2900 
Q 3550 3025 3600 3175 
Q 4325 3025 4625 2925 
Q 4825 3025 4975 3200 
L 3275 3200 
L 3275 3550 
Q 3675 3525 4100 3525 
L 4850 3525 
Q 4575 3675 3425 3950 
Q 3025 3825 2600 3750 
Q 2175 3675 1425 3600 
Q 1400 3775 1250 3950 
Q 1725 3950 2112 3987 
Q 2500 4025 2825 4100 
Q 2475 4200 2212 4250 
Q 1950 4300 1700 4350 
Q 1750 4525 1800 4675 
Q 1500 4675 1100 4650 
L 1100 5025 
Q 1675 5000 2100 5000 
L 5175 5000 
Q 4825 4700 4525 4500 
Q 4225 4300 3950 4175 
Q 4225 4125 4512 4050 
Q 4800 3975 5225 3875 
Q 5175 3775 5025 3525 
L 5775 3525 
Q 5600 3300 5412 3125 
Q 5225 2950 5000 2775 
Q 5500 2600 5800 2500 
Q 5650 2325 5550 2150 
Q 5175 2350 4650 2550 
Q 4525 2500 4237 2362 
Q 3950 2225 3625 2100 
L 6050 2100 
Q 6025 1975 6025 1800 
Q 6025 1625 6050 1275 
L 5600 1275 
L 5600 1775 
L 825 1775 
L 825 1300 
L 375 1300 
Q 400 1650 400 1800 
Q 400 1975 375 2100 
L 1050 2100 
Q 1000 2200 850 2350 
z
M 4950 1550 
Q 4925 1225 4925 950 
L 4925 -175 
Q 5600 -175 5975 -150 
L 5975 -550 
Q 5600 -525 5025 -525 
L 1400 -525 
Q 950 -525 550 -550 
L 550 -150 
Q 1100 -175 1575 -175 
L 1575 925 
Q 1575 1200 1550 1550 
L 4950 1550 
z
M 4525 400 
L 4525 675 
L 2000 675 
L 2000 400 
L 4525 400 
z
M 4525 975 
L 4525 1250 
L 2000 1250 
L 2000 975 
L 4525 975 
z
M 4525 -175 
L 4525 100 
L 2000 100 
L 2000 -175 
L 4525 -175 
z
M 3375 4325 
Q 3600 4400 3762 4475 
Q 3925 4550 4150 4675 
L 1950 4675 
L 2600 4500 
Q 2850 4450 3375 4325 
z
" transform="scale(0.015625)"/>
       <path id="SimHei-4e0e" d="M 5350 100 
Q 5275 -300 4925 -425 
Q 4575 -550 3900 -600 
Q 3875 -375 3650 -25 
Q 4375 -50 4575 0 
Q 4775 50 4837 225 
Q 4900 400 5100 2350 
L 1125 2350 
Q 1450 4350 1475 5200 
Q 1800 5150 2075 5125 
Q 1975 4825 1900 4275 
L 4900 4275 
Q 5400 4275 5800 4300 
L 5800 3825 
Q 5400 3850 4950 3850 
L 1850 3850 
L 1700 2750 
L 5675 2750 
Q 5625 2450 5575 2050 
L 5350 100 
z
M 3675 1350 
Q 4125 1350 4500 1375 
L 4500 875 
Q 4125 900 3850 900 
L 1450 900 
Q 1000 900 500 875 
L 500 1375 
Q 1000 1350 1450 1350 
L 3675 1350 
z
" transform="scale(0.015625)"/>
       <path id="SimHei-7ade" d="M 5300 2500 
Q 5275 2100 5275 1775 
Q 5275 1475 5300 1050 
L 4075 1050 
L 4075 300 
Q 4100 -100 4475 -125 
L 4950 -125 
Q 5375 -100 5450 25 
Q 5525 150 5625 550 
Q 5825 400 6175 275 
Q 6025 -125 5837 -325 
Q 5650 -525 5325 -525 
L 4075 -525 
Q 3600 -525 3600 -75 
L 3600 1050 
L 2850 1050 
Q 2800 600 2612 300 
Q 2425 0 2125 -175 
Q 1825 -350 1450 -475 
Q 1075 -600 650 -675 
Q 575 -425 375 -200 
Q 1575 -50 1912 250 
Q 2250 550 2300 1050 
L 1125 1050 
Q 1150 1400 1150 1750 
Q 1150 2100 1125 2500 
L 5300 2500 
z
M 4575 4050 
Q 4300 3650 4175 3350 
L 5025 3350 
Q 5550 3350 6150 3375 
L 6150 2900 
Q 5550 2950 5025 2950 
L 1175 2950 
Q 725 2950 250 2900 
L 250 3375 
Q 750 3350 1175 3350 
L 2000 3350 
Q 1875 3675 1625 3975 
Q 1850 4050 2125 4200 
Q 2350 3850 2525 3525 
L 2075 3350 
L 3700 3350 
Q 3825 3725 3950 4200 
Q 4275 4125 4575 4050 
z
M 3425 5275 
Q 3575 4875 3650 4650 
L 4925 4650 
Q 5300 4650 5775 4675 
L 5775 4225 
Q 5300 4250 4925 4250 
L 1600 4250 
Q 1000 4250 525 4225 
L 525 4675 
Q 1000 4650 1575 4650 
L 3050 4650 
Q 2950 4850 2800 5200 
Q 3100 5225 3425 5275 
z
M 4775 1450 
L 4775 2100 
L 1650 2100 
L 1650 1450 
L 4775 1450 
z
" transform="scale(0.015625)"/>
      </defs>
      <use xlink:href="#SimHei-7269"/>
      <use xlink:href="#SimHei-79cd" x="100"/>
      <use xlink:href="#SimHei-91cd" x="200"/>
      <use xlink:href="#SimHei-53e0" x="300"/>
      <use xlink:href="#SimHei-4e0e" x="400"/>
      <use xlink:href="#SimHei-7ade" x="500"/>
      <use xlink:href="#SimHei-4e89" x="600"/>
     </g>
    </g>
   </g>
   <g id="text_4">
    <g id="patch_10">
     <path d="M 359.709937 196 
L 359.709937 236 
Q 359.709937 239 362.709937 239 
L 371.967749 239 
Q 374.967749 239 374.967749 236 
L 374.967749 196 
Q 374.967749 193 371.967749 193 
L 362.709937 193 
Q 359.709937 193 359.709937 196 
z
" clip-path="url(#p65b0c25dad)" style="fill: #ffffff; stroke: #ffffff; stroke-linejoin: miter"/>
    </g>
    <g clip-path="url(#p65b0c25dad)">
     <!-- 基因污染 -->
     <g transform="translate(363.959937 196) rotate(-270) scale(0.1 -0.1)">
      <defs>
       <path id="SimHei-57fa" d="M 1800 4550 
Q 1800 4900 1775 5200 
L 2300 5200 
Q 2275 4875 2275 4550 
L 4075 4550 
Q 4075 4900 4050 5200 
L 4575 5200 
Q 4550 4875 4550 4550 
L 4925 4550 
Q 5200 4550 5625 4575 
L 5625 4175 
Q 5200 4200 4925 4200 
L 4550 4200 
L 4550 2225 
L 5100 2225 
Q 5600 2225 6025 2250 
L 6025 1800 
Q 5625 1850 5125 1850 
L 4500 1850 
Q 4875 1450 5225 1237 
Q 5575 1025 6125 900 
Q 5900 625 5850 350 
Q 5200 650 4737 1037 
Q 4275 1425 4000 1850 
L 2500 1850 
Q 2200 1375 1712 1000 
Q 1225 625 550 350 
Q 475 575 275 825 
Q 700 925 1212 1212 
Q 1725 1500 1950 1850 
L 1300 1850 
Q 850 1850 400 1800 
L 400 2250 
Q 850 2225 1300 2225 
L 1800 2225 
L 1800 4200 
Q 1200 4200 775 4175 
L 775 4575 
Q 1200 4550 1625 4550 
L 1800 4550 
z
M 2950 950 
Q 2950 1200 2925 1575 
L 3475 1575 
Q 3425 1300 3425 950 
L 3900 950 
Q 4250 950 4575 975 
L 4575 500 
Q 4250 550 3875 550 
L 3425 550 
L 3425 -100 
L 4500 -100 
Q 5075 -100 5550 -75 
L 5550 -525 
Q 5075 -500 4500 -500 
L 1800 -500 
Q 1300 -500 850 -525 
L 850 -75 
Q 1275 -100 1800 -100 
L 2950 -100 
L 2950 550 
L 2550 550 
Q 2125 550 1775 525 
L 1775 975 
Q 2125 950 2500 950 
L 2950 950 
z
M 4075 2225 
L 4075 2650 
L 2275 2650 
L 2275 2225 
L 4075 2225 
z
M 4075 3775 
L 4075 4200 
L 2275 4200 
L 2275 3775 
L 4075 3775 
z
M 4075 3025 
L 4075 3375 
L 2275 3375 
L 2275 3025 
L 4075 3025 
z
" transform="scale(0.015625)"/>
       <path id="SimHei-56e0" d="M 5775 4950 
Q 5750 4325 5750 3600 
L 5750 850 
Q 5750 200 5775 -550 
L 5275 -550 
L 5275 -100 
L 1150 -100 
L 1150 -600 
L 650 -600 
Q 675 100 675 850 
L 675 3600 
Q 675 4275 650 4950 
L 5775 4950 
z
M 5275 325 
L 5275 4550 
L 1150 4550 
L 1150 325 
L 5275 325 
z
M 2975 3350 
Q 2975 3975 2950 4275 
Q 3225 4250 3525 4250 
Q 3450 3975 3450 3750 
L 3450 3350 
L 4025 3350 
Q 4425 3350 4950 3375 
L 4950 2900 
Q 4425 2925 4025 2925 
L 3425 2925 
Q 3400 2750 3325 2425 
Q 3625 2250 3975 1975 
Q 4325 1700 4900 1225 
Q 4700 1050 4475 800 
Q 4225 1100 3862 1450 
Q 3500 1800 3200 2025 
Q 3025 1700 2700 1375 
Q 2375 1050 1900 700 
Q 1750 925 1475 1075 
Q 2200 1400 2537 1875 
Q 2875 2350 2925 2925 
L 2475 2925 
Q 2025 2925 1525 2900 
L 1525 3375 
Q 2025 3350 2450 3350 
L 2975 3350 
z
" transform="scale(0.015625)"/>
       <path id="SimHei-6c61" d="M 5175 3225 
Q 5650 3225 6125 3250 
L 6125 2775 
Q 5650 2800 5175 2800 
L 3600 2800 
L 3425 1875 
L 5700 1875 
Q 5625 1350 5575 712 
Q 5525 75 5450 -162 
Q 5375 -400 5100 -500 
Q 4825 -600 4125 -675 
Q 4075 -375 3875 -75 
Q 4625 -100 4787 -37 
Q 4950 25 5000 300 
L 5100 1450 
L 2750 1450 
Q 2875 1775 3050 2800 
Q 2400 2800 1900 2775 
L 1900 3250 
Q 2400 3225 2775 3225 
L 5175 3225 
z
M 4725 4700 
Q 5175 4700 5675 4725 
L 5675 4250 
Q 5150 4275 4725 4275 
L 3350 4275 
Q 2850 4275 2425 4250 
L 2425 4725 
Q 2875 4700 3325 4700 
L 4725 4700 
z
M 1800 1600 
Q 1600 1000 1425 425 
Q 1250 -150 1150 -525 
Q 825 -325 525 -200 
Q 750 200 950 775 
Q 1150 1350 1300 1875 
Q 1500 1725 1800 1600 
z
M 1075 5025 
Q 1575 4700 2000 4225 
Q 1775 4050 1650 3825 
Q 1250 4275 750 4650 
Q 950 4825 1075 5025 
z
M 700 3475 
Q 1200 3075 1625 2700 
Q 1375 2525 1225 2275 
Q 925 2675 375 3050 
Q 575 3275 700 3475 
z
" transform="scale(0.015625)"/>
       <path id="SimHei-67d3" d="M 5825 -450 
Q 4750 -150 4250 250 
Q 3750 650 3450 1150 
Q 3450 -300 3475 -600 
L 2950 -600 
Q 2975 -275 2975 1075 
Q 2600 550 2012 150 
Q 1425 -250 625 -575 
Q 550 -325 200 -100 
Q 1075 100 1662 487 
Q 2250 875 2475 1225 
L 1225 1225 
Q 875 1225 400 1200 
L 400 1650 
Q 875 1625 1225 1625 
L 2975 1625 
Q 2975 1825 2950 2150 
L 3475 2150 
Q 3450 1850 3450 1625 
L 5300 1625 
Q 5625 1625 6000 1650 
L 6000 1200 
Q 5625 1225 5300 1225 
L 3950 1225 
Q 4350 675 5000 400 
Q 5650 125 6175 75 
Q 5850 -250 5825 -450 
z
M 1825 2300 
Q 2550 2575 2925 3012 
Q 3300 3450 3400 4000 
Q 3025 4000 2575 3975 
L 2575 4425 
Q 3050 4400 3425 4400 
Q 3450 4925 3425 5250 
Q 3725 5175 4000 5175 
Q 3925 5025 3900 4400 
L 5125 4400 
Q 5100 4150 5075 3850 
L 5000 2850 
Q 5025 2600 5175 2600 
L 5450 2600 
Q 5575 2600 5612 2700 
Q 5650 2800 5675 3200 
Q 5875 3025 6200 3000 
Q 6100 2325 5912 2262 
Q 5725 2200 5387 2187 
Q 5050 2175 4787 2237 
Q 4525 2300 4550 2700 
L 4625 4000 
L 3875 4000 
Q 3800 3425 3475 2937 
Q 3150 2450 2275 1925 
Q 2175 2100 1825 2300 
z
M 2175 2925 
Q 1225 2175 850 1875 
Q 700 2125 500 2300 
Q 1100 2600 2000 3375 
Q 2050 3175 2175 2925 
z
M 675 4150 
Q 1375 3825 1750 3600 
Q 1575 3375 1475 3175 
Q 1225 3400 450 3750 
Q 600 3925 675 4150 
z
M 1850 4150 
Q 1475 4475 900 4775 
Q 1025 4925 1175 5125 
Q 1750 4800 2175 4550 
Q 1950 4325 1850 4150 
z
" transform="scale(0.015625)"/>
      </defs>
      <use xlink:href="#SimHei-57fa"/>
      <use xlink:href="#SimHei-56e0" x="100"/>
      <use xlink:href="#SimHei-6c61" x="200"/>
      <use xlink:href="#SimHei-67d3" x="300"/>
     </g>
    </g>
   </g>
   <g id="text_5">
    <g id="patch_11">
     <path d="M 439.092325 325.272754 
L 465.666878 295.376381 
Q 467.65997 293.134153 465.417742 291.141062 
L 458.498367 284.990506 
Q 456.256139 282.997415 454.263047 285.239643 
L 427.688494 315.136015 
Q 425.695402 317.378243 427.93763 319.371335 
L 434.857005 325.521891 
Q 437.099233 327.514982 439.092325 325.272754 
z
" clip-path="url(#p65b0c25dad)" style="fill: #ffffff; stroke: #ffffff; stroke-linejoin: miter"/>
    </g>
    <g clip-path="url(#p65b0c25dad)">
     <!-- 生态失衡 -->
     <g transform="translate(435.915835 322.449208) rotate(-48.366461) scale(0.1 -0.1)">
      <defs>
       <path id="SimHei-751f" d="M 1875 4650 
Q 1725 4475 1625 4212 
Q 1525 3950 1425 3700 
L 2925 3700 
L 2925 4575 
Q 2925 4900 2900 5200 
L 3475 5200 
Q 3450 4925 3450 4575 
L 3450 3700 
L 4550 3700 
Q 4950 3700 5450 3725 
L 5450 3225 
Q 4975 3250 4550 3250 
L 3450 3250 
L 3450 2125 
L 4225 2125 
Q 4575 2125 5075 2150 
L 5075 1650 
Q 4600 1675 4225 1675 
L 3450 1675 
L 3450 175 
L 4950 175 
Q 5350 175 5875 200 
L 5875 -275 
Q 5375 -250 4950 -250 
L 1350 -250 
Q 925 -250 475 -275 
L 475 200 
Q 950 175 1350 175 
L 2925 175 
L 2925 1675 
L 2000 1675 
Q 1650 1675 1275 1650 
L 1275 2150 
Q 1650 2125 2000 2125 
L 2925 2125 
L 2925 3250 
L 1250 3250 
Q 1025 2725 800 2350 
Q 525 2475 200 2525 
Q 475 2825 787 3487 
Q 1100 4150 1225 4900 
L 1875 4650 
z
" transform="scale(0.015625)"/>
       <path id="SimHei-6001" d="M 2575 4325 
Q 2700 4800 2725 5250 
Q 3075 5125 3350 5100 
Q 3225 4875 3100 4325 
L 5025 4325 
Q 5375 4325 5825 4375 
L 5825 3850 
Q 5350 3875 5000 3875 
L 3975 3875 
Q 4225 3300 4575 2987 
Q 4925 2675 5250 2525 
Q 5575 2375 6100 2275 
Q 5800 2075 5675 1775 
Q 4900 2100 4525 2412 
Q 4150 2725 3900 3075 
Q 3650 3425 3500 3875 
L 2975 3875 
Q 2675 3200 2187 2687 
Q 1700 2175 725 1625 
Q 650 1850 300 2075 
Q 900 2275 1512 2750 
Q 2125 3225 2425 3875 
L 1300 3875 
Q 900 3875 450 3850 
L 450 4375 
Q 875 4325 1300 4325 
L 2575 4325 
z
M 2525 1350 
Q 2500 875 2500 575 
Q 2500 300 2512 150 
Q 2525 0 2800 0 
L 3825 0 
Q 4025 -25 4175 62 
Q 4325 150 4400 625 
Q 4650 450 4975 375 
Q 4775 -150 4625 -312 
Q 4475 -475 4000 -450 
L 2500 -450 
Q 2050 -400 2012 -162 
Q 1975 75 1975 425 
Q 1975 800 1950 1350 
L 2525 1350 
z
M 1425 1175 
Q 1175 450 825 -325 
Q 625 -175 325 -125 
Q 775 625 875 1375 
Q 1175 1250 1425 1175 
z
M 5175 1525 
Q 5600 950 6050 350 
Q 5800 175 5600 0 
Q 5225 700 4750 1250 
Q 5000 1350 5175 1525 
z
M 2700 3050 
Q 3175 2675 3500 2325 
Q 3275 2175 3100 1975 
Q 2825 2350 2350 2700 
L 2700 3050 
z
M 3375 1750 
Q 3625 1350 3825 925 
Q 3625 800 3375 675 
Q 3200 1175 2950 1525 
Q 3175 1600 3375 1750 
z
" transform="scale(0.015625)"/>
       <path id="SimHei-5931" d="M 2050 4450 
Q 1925 4325 1675 3750 
L 2950 3750 
Q 2950 4650 2925 5100 
Q 3175 5075 3500 5050 
Q 3450 4700 3437 4425 
Q 3425 4150 3425 3750 
L 4600 3750 
Q 5000 3750 5425 3775 
L 5425 3300 
Q 5025 3325 4600 3325 
L 3425 3325 
Q 3425 2775 3375 2200 
L 5050 2200 
Q 5425 2200 5875 2225 
L 5875 1750 
Q 5425 1775 5050 1775 
L 3575 1775 
Q 3875 1100 4600 675 
Q 5325 250 6025 100 
Q 5825 -150 5675 -475 
Q 4950 -200 4250 287 
Q 3550 775 3200 1475 
Q 2900 825 2325 300 
Q 1750 -225 775 -650 
Q 650 -400 400 -175 
Q 1250 50 1912 587 
Q 2575 1125 2775 1775 
L 1325 1775 
Q 925 1775 450 1750 
L 450 2225 
Q 925 2200 1325 2200 
L 2875 2200 
Q 2950 2725 2950 3325 
L 1500 3325 
Q 1200 2800 975 2450 
Q 775 2575 500 2675 
Q 950 3225 1187 3750 
Q 1425 4275 1500 4675 
Q 1800 4525 2050 4450 
z
" transform="scale(0.015625)"/>
       <path id="SimHei-8861" d="M 3275 5025 
Q 3150 4950 2900 4575 
L 4050 4575 
Q 3800 4175 3575 3725 
L 4425 3725 
Q 4400 3400 4400 2775 
Q 4400 2175 4425 1800 
L 2050 1800 
Q 2075 2175 2075 2800 
Q 2075 3425 2050 3725 
L 3125 3725 
L 3375 4225 
L 2600 4225 
Q 2450 4050 2125 3750 
Q 1975 3900 1750 4050 
Q 2175 4375 2412 4687 
Q 2650 5000 2775 5275 
Q 3000 5150 3275 5025 
z
M 4575 3225 
Q 4775 3200 5175 3200 
L 5675 3200 
Q 5900 3200 6150 3225 
L 6150 2750 
Q 5950 2775 5650 2775 
L 5650 25 
Q 5650 -375 5487 -462 
Q 5325 -550 4800 -650 
Q 4775 -375 4600 -100 
Q 5000 -100 5112 -75 
Q 5225 -50 5225 250 
L 5225 2775 
Q 4800 2775 4575 2750 
L 4575 3225 
z
M 1925 3300 
Q 1725 3150 1400 2650 
L 1400 275 
Q 1400 -100 1425 -625 
L 950 -625 
Q 975 25 975 350 
L 975 2175 
Q 750 1925 475 1675 
Q 325 1900 175 2075 
Q 550 2350 925 2800 
Q 1300 3250 1475 3625 
Q 1650 3450 1925 3300 
z
M 1975 -525 
Q 1800 -250 1600 -50 
Q 2175 125 2475 412 
Q 2775 700 2825 925 
L 2525 925 
Q 2225 925 1800 900 
L 1800 1350 
Q 2175 1325 2525 1325 
L 2925 1325 
Q 2975 1525 2975 1725 
Q 3175 1675 3500 1625 
Q 3400 1475 3375 1325 
L 3925 1325 
Q 4250 1325 4600 1350 
L 4600 900 
Q 4300 925 3925 925 
L 3325 925 
L 3300 875 
Q 2875 -100 1975 -525 
z
M 1975 4775 
Q 1850 4675 1425 4200 
Q 1000 3725 650 3425 
Q 475 3675 300 3775 
Q 625 3975 987 4387 
Q 1350 4800 1525 5125 
Q 1700 4950 1975 4775 
z
M 3425 825 
Q 3850 550 4475 100 
Q 4275 -100 4150 -350 
Q 3625 150 3150 450 
Q 3300 600 3425 825 
z
M 4700 4600 
Q 4875 4575 5175 4575 
L 5625 4575 
Q 5800 4575 6000 4600 
L 6000 4175 
Q 5800 4200 5625 4200 
L 5225 4200 
Q 4900 4200 4700 4175 
L 4700 4600 
z
M 3975 2925 
L 3975 3375 
L 3425 3375 
L 3425 2925 
L 3975 2925 
z
M 3025 2925 
L 3025 3375 
L 2500 3375 
L 2500 2925 
L 3025 2925 
z
M 3975 2150 
L 3975 2575 
L 3425 2575 
L 3425 2150 
L 3975 2150 
z
M 3025 2150 
L 3025 2575 
L 2500 2575 
L 2500 2150 
L 3025 2150 
z
" transform="scale(0.015625)"/>
      </defs>
      <use xlink:href="#SimHei-751f"/>
      <use xlink:href="#SimHei-6001" x="100"/>
      <use xlink:href="#SimHei-5931" x="200"/>
      <use xlink:href="#SimHei-8861" x="300"/>
     </g>
    </g>
   </g>
   <g id="PathCollection_1">
    <defs>
     <path id="m8cc8f159a5" d="M 0 27.386128 
C 7.262886 27.386128 14.229281 24.500553 19.364917 19.364917 
C 24.500553 14.229281 27.386128 7.262886 27.386128 0 
C 27.386128 -7.262886 24.500553 -14.229281 19.364917 -19.364917 
C 14.229281 -24.500553 7.262886 -27.386128 0 -27.386128 
C -7.262886 -27.386128 -14.229281 -24.500553 -19.364917 -19.364917 
C -24.500553 -14.229281 -27.386128 -7.262886 -27.386128 0 
C -27.386128 7.262886 -24.500553 14.229281 -19.364917 19.364917 
C -14.229281 24.500553 -7.262886 27.386128 0 27.386128 
z
" style="stroke: #add8e6"/>
    </defs>
    <g clip-path="url(#p65b0c25dad)">
     <use xlink:href="#m8cc8f159a5" x="49.983471" y="37.487603" style="fill: #add8e6; stroke: #add8e6"/>
     <use xlink:href="#m8cc8f159a5" x="49.983471" y="394.512397" style="fill: #add8e6; stroke: #add8e6"/>
     <use xlink:href="#m8cc8f159a5" x="208.661157" y="216" style="fill: #add8e6; stroke: #add8e6"/>
     <use xlink:href="#m8cc8f159a5" x="367.338843" y="37.487603" style="fill: #add8e6; stroke: #add8e6"/>
     <use xlink:href="#m8cc8f159a5" x="367.338843" y="394.512397" style="fill: #add8e6; stroke: #add8e6"/>
     <use xlink:href="#m8cc8f159a5" x="526.016529" y="216" style="fill: #add8e6; stroke: #add8e6"/>
    </g>
   </g>
   <g id="text_6">
    <g clip-path="url(#p65b0c25dad)">
     <!-- 本地物种 -->
     <g transform="translate(25.983471 41.589166) scale(0.12 -0.12)">
      <defs>
       <path id="SimHei-672c" d="M 2950 3925 
L 2950 4425 
Q 2950 4825 2925 5175 
L 3475 5175 
Q 3450 4900 3450 4450 
L 3450 3925 
L 4850 3925 
Q 5275 3925 5850 3950 
L 5850 3475 
Q 5300 3500 4875 3500 
L 3850 3500 
Q 4200 2350 4862 1687 
Q 5525 1025 6075 800 
Q 5850 625 5650 325 
Q 4800 900 4262 1637 
Q 3725 2375 3450 3350 
L 3450 1000 
L 3775 1000 
Q 4175 1000 4600 1025 
L 4600 550 
Q 4175 575 3750 575 
L 3450 575 
Q 3450 0 3475 -600 
L 2925 -600 
Q 2950 0 2950 575 
L 2625 575 
Q 2225 575 1825 550 
L 1825 1025 
Q 2225 1000 2625 1000 
L 2950 1000 
L 2950 3300 
Q 2550 2275 2062 1575 
Q 1575 875 750 175 
Q 550 450 275 575 
Q 1100 1075 1650 1825 
Q 2200 2575 2525 3500 
L 1425 3500 
Q 1025 3500 575 3475 
L 575 3950 
Q 1025 3925 1400 3925 
L 2950 3925 
z
" transform="scale(0.015625)"/>
      </defs>
      <use xlink:href="#SimHei-672c"/>
      <use xlink:href="#SimHei-5730" x="100"/>
      <use xlink:href="#SimHei-7269" x="200"/>
      <use xlink:href="#SimHei-79cd" x="300"/>
     </g>
    </g>
   </g>
   <g id="text_7">
    <g clip-path="url(#p65b0c25dad)">
     <!-- 外来物种 -->
     <g transform="translate(25.983471 398.613959) scale(0.12 -0.12)">
      <defs>
       <path id="SimHei-5916" d="M 2150 4875 
Q 2000 4650 1912 4425 
Q 1825 4200 1725 3975 
L 3275 3975 
Q 3150 3075 2937 2450 
Q 2725 1825 2412 1350 
Q 2100 875 1675 437 
Q 1250 0 650 -375 
Q 475 -100 200 0 
Q 775 250 1275 712 
Q 1775 1175 2000 1600 
Q 1675 1950 1150 2325 
Q 1325 2475 1475 2675 
Q 1975 2275 2250 2050 
Q 2425 2400 2525 2775 
Q 2625 3150 2700 3550 
L 1575 3550 
Q 1425 3225 1187 2825 
Q 950 2425 575 2025 
Q 450 2200 200 2375 
Q 625 2775 862 3187 
Q 1100 3600 1250 4025 
Q 1400 4450 1550 5075 
Q 1825 4950 2150 4875 
z
M 4225 5125 
Q 4200 4725 4200 4325 
L 4200 475 
Q 4200 0 4225 -500 
L 3675 -500 
Q 3700 0 3700 475 
L 3700 4325 
Q 3700 4725 3675 5125 
L 4225 5125 
z
M 4675 3450 
Q 4900 3200 5337 2687 
Q 5775 2175 6075 1725 
Q 5825 1575 5650 1400 
Q 5425 1800 5025 2300 
Q 4625 2800 4300 3150 
Q 4450 3300 4675 3450 
z
" transform="scale(0.015625)"/>
       <path id="SimHei-6765" d="M 3450 5125 
Q 3425 4875 3425 4600 
L 3425 4300 
L 4925 4300 
Q 5225 4300 5575 4325 
L 5575 3825 
Q 5225 3875 4925 3875 
L 3425 3875 
L 3425 2425 
L 5150 2425 
Q 5525 2425 5975 2450 
L 5975 1975 
Q 5550 2000 5150 2000 
L 3850 2000 
Q 4025 1750 4275 1525 
Q 4525 1300 4812 1087 
Q 5100 875 5450 725 
Q 5800 575 6125 500 
Q 5875 275 5800 150 
Q 5725 25 5700 -75 
Q 5175 150 4837 387 
Q 4500 625 4212 900 
Q 3925 1175 3725 1425 
Q 3525 1675 3425 1900 
L 3425 475 
Q 3425 75 3450 -475 
L 2875 -475 
Q 2925 75 2925 475 
L 2925 1950 
Q 2400 1125 1825 612 
Q 1250 100 775 -175 
Q 625 50 325 275 
Q 1225 675 1775 1237 
Q 2325 1800 2425 2000 
L 1125 2000 
Q 825 2000 425 1950 
L 425 2450 
Q 825 2425 1125 2425 
L 2925 2425 
L 2925 3875 
L 1500 3875 
Q 1075 3875 775 3825 
L 775 4325 
Q 1075 4300 1475 4300 
L 2925 4300 
L 2925 4625 
Q 2875 4900 2875 5125 
L 3450 5125 
z
M 4950 3500 
Q 4700 3075 4350 2500 
Q 4125 2600 3925 2675 
Q 4325 3400 4525 3725 
Q 4750 3650 4950 3500 
z
M 1750 3700 
Q 2150 3250 2400 2750 
Q 2175 2650 1975 2525 
Q 1750 2975 1400 3425 
Q 1575 3550 1750 3700 
z
" transform="scale(0.015625)"/>
      </defs>
      <use xlink:href="#SimHei-5916"/>
      <use xlink:href="#SimHei-6765" x="100"/>
      <use xlink:href="#SimHei-7269" x="200"/>
      <use xlink:href="#SimHei-79cd" x="300"/>
     </g>
    </g>
   </g>
   <g id="text_8">
    <g clip-path="url(#p65b0c25dad)">
     <!-- 资源竞争 -->
     <g transform="translate(184.661157 220.125) scale(0.12 -0.12)">
      <use xlink:href="#SimHei-8d44"/>
      <use xlink:href="#SimHei-6e90" x="100"/>
      <use xlink:href="#SimHei-7ade" x="200"/>
      <use xlink:href="#SimHei-4e89" x="300"/>
     </g>
    </g>
   </g>
   <g id="text_9">
    <g clip-path="url(#p65b0c25dad)">
     <!-- 杂交影响 -->
     <g transform="translate(343.338843 41.612603) scale(0.12 -0.12)">
      <defs>
       <path id="SimHei-6742" d="M 6100 3200 
Q 5975 2675 5812 2462 
Q 5650 2250 5300 2250 
L 4650 2250 
Q 4350 2250 4250 2462 
Q 4150 2675 4175 2925 
L 4175 4050 
L 2800 4050 
Q 2700 3600 2525 3287 
Q 2350 2975 2062 2737 
Q 1775 2500 1475 2350 
Q 1175 2200 725 2100 
Q 650 2300 400 2525 
Q 1150 2675 1637 3037 
Q 2125 3400 2300 4050 
L 1525 4050 
Q 1175 4050 875 4025 
L 875 4525 
Q 1175 4500 1525 4500 
L 2400 4500 
Q 2425 4950 2425 5250 
Q 2550 5225 2975 5225 
Q 2925 4975 2875 4500 
L 4675 4500 
Q 4650 4225 4650 3750 
L 4650 3250 
Q 4625 2900 4700 2800 
Q 4775 2700 4925 2700 
L 5225 2700 
Q 5375 2700 5450 2862 
Q 5525 3025 5550 3425 
Q 5800 3300 6100 3200 
z
M 2975 1975 
Q 2975 2225 2950 2850 
L 3475 2850 
Q 3450 2375 3450 1975 
L 5150 1975 
Q 5500 1975 5925 2000 
L 5925 1550 
Q 5500 1575 5150 1575 
L 3450 1575 
L 3450 -75 
Q 3450 -600 2550 -700 
Q 2525 -425 2375 -150 
Q 2975 -200 2975 100 
L 2975 1575 
L 1250 1575 
Q 950 1575 500 1550 
L 500 2000 
Q 950 1975 1250 1975 
L 2975 1975 
z
M 300 75 
Q 600 200 1025 550 
Q 1450 900 1725 1300 
Q 1925 1150 2225 900 
Q 1800 550 1412 212 
Q 1025 -125 625 -350 
Q 475 -125 300 75 
z
M 5575 -325 
Q 5000 200 4075 825 
Q 4275 1025 4400 1200 
Q 5450 525 5950 50 
L 5575 -325 
z
" transform="scale(0.015625)"/>
       <path id="SimHei-4ea4" d="M 2325 2600 
Q 2775 1575 3200 1150 
Q 3875 1825 4225 2725 
Q 4425 2575 4725 2400 
Q 4125 1450 3550 825 
Q 4400 175 6000 25 
Q 5750 -325 5700 -550 
Q 4100 -250 3150 525 
Q 2075 -275 650 -600 
Q 575 -300 375 -50 
Q 1900 125 2775 850 
Q 2200 1525 1850 2350 
Q 2150 2475 2325 2600 
z
M 1250 3725 
Q 875 3725 525 3700 
L 525 4200 
L 1225 4150 
L 5125 4150 
Q 5525 4175 5950 4200 
L 5950 3675 
Q 5525 3700 5125 3725 
L 1250 3725 
z
M 2525 3300 
Q 2175 2975 1025 2000 
Q 825 2250 550 2400 
Q 1025 2650 1412 3025 
Q 1800 3400 2000 3675 
Q 2250 3500 2525 3300 
z
M 4325 3675 
Q 4450 3575 4900 3237 
Q 5350 2900 5775 2600 
Q 5500 2400 5300 2175 
Q 5075 2475 3900 3300 
Q 4100 3500 4325 3675 
z
M 3250 5300 
Q 3500 4725 3625 4375 
Q 3275 4275 3025 4200 
Q 2875 4625 2650 5125 
Q 2950 5225 3250 5300 
z
" transform="scale(0.015625)"/>
       <path id="SimHei-5f71" d="M 3550 5025 
Q 3500 4625 3512 4187 
Q 3525 3750 3550 3325 
L 775 3325 
Q 800 3750 787 4187 
Q 775 4625 775 5025 
L 3550 5025 
z
M 1450 -100 
Q 2050 -75 1975 200 
L 1975 1100 
L 775 1100 
Q 800 1375 787 1650 
Q 775 1925 775 2225 
L 3550 2225 
Q 3525 1925 3512 1650 
Q 3500 1375 3550 1100 
L 2475 1100 
L 2475 175 
Q 2500 -250 2300 -375 
Q 2100 -500 1625 -600 
Q 1575 -325 1450 -100 
z
M 2375 3250 
Q 2400 3075 2425 2875 
L 3175 2875 
Q 3600 2875 4050 2900 
L 4050 2475 
Q 3600 2500 3175 2500 
L 1200 2500 
Q 700 2500 275 2475 
L 275 2900 
Q 700 2875 1200 2875 
L 1900 2875 
Q 1875 3025 1850 3200 
Q 2100 3250 2375 3250 
z
M 6150 1350 
Q 5675 775 5000 225 
Q 4325 -325 3725 -650 
Q 3575 -400 3400 -250 
Q 3975 25 4600 500 
Q 5225 975 5775 1725 
Q 5950 1525 6150 1350 
z
M 5925 3125 
Q 5625 2850 5212 2362 
Q 4800 1875 4200 1425 
Q 4025 1625 3800 1725 
Q 4375 2050 4787 2525 
Q 5200 3000 5525 3500 
Q 5675 3325 5925 3125 
z
M 5725 4825 
Q 5325 4550 5037 4162 
Q 4750 3775 4175 3275 
Q 3975 3450 3800 3550 
Q 4175 3825 4550 4237 
Q 4925 4650 5225 5175 
Q 5425 5000 5725 4825 
z
M 3075 1475 
L 3075 1850 
L 1250 1850 
L 1250 1475 
L 3075 1475 
z
M 3075 3700 
L 3075 4000 
L 1250 4000 
L 1250 3700 
L 3075 3700 
z
M 3075 4375 
L 3075 4675 
L 1250 4675 
L 1250 4375 
L 3075 4375 
z
M 1500 500 
Q 1075 75 575 -325 
Q 475 -175 275 -25 
Q 700 250 1125 825 
Q 1300 625 1500 500 
z
M 3250 -50 
Q 3050 275 2750 550 
Q 2900 700 3075 850 
Q 3400 525 3600 250 
L 3250 -50 
z
" transform="scale(0.015625)"/>
       <path id="SimHei-54cd" d="M 4150 5125 
Q 4000 4975 3850 4325 
L 5875 4325 
Q 5850 3800 5850 3325 
L 5850 50 
Q 5825 -225 5625 -350 
Q 5425 -475 4850 -550 
Q 4850 -325 4600 25 
Q 5125 25 5237 62 
Q 5350 100 5350 225 
L 5350 3950 
L 2950 3950 
L 2950 -575 
L 2450 -575 
Q 2475 -75 2475 450 
L 2475 3125 
Q 2475 3750 2450 4325 
L 3350 4325 
Q 3475 4775 3525 5250 
Q 3950 5150 4150 5125 
z
M 4875 900 
L 3425 900 
L 3425 3100 
L 4875 3100 
L 4875 900 
z
M 4450 1275 
L 4450 2700 
L 3875 2700 
L 3875 1275 
L 4450 1275 
z
M 2075 4500 
Q 2050 3975 2050 3425 
L 2050 1750 
Q 2050 1250 2075 600 
L 1650 600 
L 1650 1050 
L 950 1050 
L 950 275 
L 500 275 
Q 525 750 525 1275 
L 525 3425 
Q 525 3975 500 4500 
L 2075 4500 
z
M 1650 1400 
L 1650 4125 
L 950 4125 
L 950 1400 
L 1650 1400 
z
" transform="scale(0.015625)"/>
      </defs>
      <use xlink:href="#SimHei-6742"/>
      <use xlink:href="#SimHei-4ea4" x="100"/>
      <use xlink:href="#SimHei-5f71" x="200"/>
      <use xlink:href="#SimHei-54cd" x="300"/>
     </g>
    </g>
   </g>
   <g id="text_10">
    <g clip-path="url(#p65b0c25dad)">
     <!-- 生态系统改变 -->
     <g transform="translate(331.338843 398.613959) scale(0.12 -0.12)">
      <defs>
       <path id="SimHei-7cfb" d="M 5300 5200 
Q 5450 4950 5725 4675 
Q 4975 4650 4437 4587 
Q 3900 4525 3125 4450 
Q 3250 4325 3475 4225 
Q 3150 4025 2837 3762 
Q 2525 3500 2225 3275 
L 3475 3275 
Q 4100 3700 4525 4050 
Q 4775 3850 5125 3700 
Q 4775 3550 4450 3375 
Q 4125 3200 3387 2737 
Q 2650 2275 2125 1975 
Q 3600 2050 4875 2100 
Q 4750 2225 4225 2625 
Q 4475 2725 4650 2875 
Q 4950 2650 5337 2312 
Q 5725 1975 6075 1650 
Q 5775 1475 5600 1325 
Q 5400 1575 5225 1725 
Q 4550 1700 3625 1650 
L 3625 150 
Q 3625 -325 3387 -412 
Q 3150 -500 2525 -600 
Q 2475 -300 2300 -25 
Q 2875 -25 3012 12 
Q 3150 50 3150 300 
L 3150 1650 
Q 1625 1625 1075 1525 
Q 1000 1775 900 2050 
Q 1450 2100 1875 2300 
Q 2300 2500 2900 2900 
Q 2325 2900 2037 2875 
Q 1750 2850 1400 2800 
Q 1325 3075 1250 3325 
Q 1675 3325 2100 3662 
Q 2525 4000 2750 4400 
Q 1350 4350 925 4300 
Q 850 4550 750 4750 
Q 2150 4750 3250 4850 
Q 4350 4950 5300 5200 
z
M 4625 1250 
Q 4925 1025 5325 737 
Q 5725 450 6000 175 
Q 5800 0 5600 -225 
Q 5275 125 4925 400 
Q 4575 675 4275 875 
Q 4500 1050 4625 1250 
z
M 2200 875 
Q 1900 725 1537 375 
Q 1175 25 800 -300 
Q 575 -75 375 25 
Q 1075 450 1675 1225 
Q 1900 1050 2200 875 
z
" transform="scale(0.015625)"/>
       <path id="SimHei-7edf" d="M 5150 4300 
Q 5525 4300 5950 4325 
L 5950 3875 
Q 5550 3900 5175 3900 
L 3775 3900 
Q 3975 3750 4250 3600 
Q 4050 3450 3837 3162 
Q 3625 2875 3225 2375 
Q 3800 2375 5025 2500 
Q 4925 2625 4625 2975 
Q 4850 3100 5025 3250 
Q 5450 2800 5950 2100 
Q 5700 1950 5525 1775 
Q 5375 1975 5275 2125 
Q 4925 2100 4825 2075 
L 4825 200 
Q 4825 -100 5075 -100 
L 5325 -100 
Q 5550 -100 5625 575 
Q 5850 400 6150 325 
Q 5925 -525 5525 -525 
L 4850 -525 
Q 4350 -525 4350 0 
L 4350 2025 
Q 4000 2000 3875 1975 
Q 3900 1050 3637 462 
Q 3375 -125 2625 -700 
Q 2500 -500 2175 -375 
Q 2575 -125 2850 175 
Q 3125 475 3275 850 
Q 3425 1225 3400 1925 
Q 3025 1900 2725 1825 
Q 2650 2200 2525 2475 
Q 2825 2500 3187 2975 
Q 3550 3450 3675 3900 
L 3275 3900 
Q 2950 3900 2475 3875 
L 2475 4325 
Q 2875 4300 3250 4300 
L 5150 4300 
z
M 1875 4825 
Q 1700 4600 1500 4250 
Q 1300 3900 900 3250 
Q 1375 3275 1650 3275 
Q 1850 3625 1975 3975 
Q 2250 3800 2550 3675 
Q 2375 3500 2075 3037 
Q 1775 2575 1225 1725 
Q 1950 1800 2500 1900 
Q 2375 1600 2375 1425 
Q 2150 1400 1587 1325 
Q 1025 1250 600 1125 
Q 525 1375 425 1625 
Q 700 1700 950 2075 
Q 1200 2450 1450 2900 
Q 1225 2875 925 2837 
Q 625 2800 425 2750 
Q 325 3000 200 3225 
Q 500 3300 862 4025 
Q 1225 4750 1275 5075 
Q 1575 4925 1875 4825 
z
M 2550 825 
Q 2525 575 2550 350 
Q 1975 200 1412 37 
Q 850 -125 550 -250 
Q 450 0 275 275 
Q 900 375 1450 500 
Q 2000 625 2550 825 
z
M 4100 5275 
Q 4375 4825 4500 4575 
Q 4325 4500 4025 4350 
Q 3825 4825 3650 5075 
Q 3950 5175 4100 5275 
z
" transform="scale(0.015625)"/>
       <path id="SimHei-6539" d="M 4600 900 
Q 4850 575 5337 250 
Q 5825 -75 6175 -200 
Q 6000 -325 5775 -675 
Q 5450 -475 5087 -200 
Q 4725 75 4275 525 
Q 3850 125 3387 -150 
Q 2925 -425 2350 -675 
Q 2250 -450 2000 -225 
Q 2525 -75 3087 225 
Q 3650 525 4025 950 
Q 3825 1250 3600 1675 
Q 3375 2100 3175 2500 
L 3050 2325 
Q 2800 2500 2650 2600 
Q 2900 2900 3237 3562 
Q 3575 4225 3800 5125 
Q 4100 4975 4350 4950 
Q 4200 4700 4075 4387 
Q 3950 4075 3825 3775 
L 5075 3775 
Q 5600 3775 5950 3800 
L 5950 3350 
Q 5700 3375 5300 3375 
Q 5150 1850 4600 900 
z
M 2600 4500 
Q 2575 3925 2575 3350 
Q 2575 2775 2600 2275 
L 1125 2275 
L 1125 325 
Q 2050 825 2500 1175 
Q 2550 875 2650 700 
Q 2175 425 1725 150 
Q 1275 -125 800 -450 
Q 650 -225 450 -25 
Q 675 175 650 500 
L 650 1875 
Q 650 2225 625 2675 
L 2125 2675 
L 2125 4100 
L 1300 4100 
Q 875 4100 425 4075 
L 425 4525 
Q 875 4500 1300 4500 
L 2600 4500 
z
M 3200 2575 
Q 3425 2650 3575 2750 
Q 3750 2325 3950 1937 
Q 4150 1550 4325 1300 
Q 4725 2050 4825 3375 
L 3675 3375 
Q 3450 2975 3200 2575 
z
" transform="scale(0.015625)"/>
       <path id="SimHei-53d8" d="M 5200 1975 
Q 4950 1600 4537 1137 
Q 4125 675 3675 375 
Q 3925 225 4600 87 
Q 5275 -50 6000 -75 
Q 5700 -400 5650 -625 
Q 4850 -525 4212 -312 
Q 3575 -100 3225 125 
Q 2800 -125 2150 -325 
Q 1500 -525 700 -675 
Q 600 -425 400 -175 
Q 950 -150 1687 12 
Q 2425 175 2825 375 
Q 2275 775 1675 1575 
Q 1350 1575 1000 1550 
L 1000 2000 
Q 1450 1975 2075 1975 
L 5200 1975 
z
M 3225 5275 
Q 3400 4900 3550 4475 
L 4675 4475 
Q 5400 4475 5975 4500 
L 5975 4025 
Q 5375 4050 4725 4050 
L 4125 4050 
L 4125 2950 
Q 4125 2550 4150 2150 
L 3600 2150 
Q 3625 2550 3625 2950 
L 3625 4050 
L 2750 4050 
L 2750 2950 
Q 2750 2675 2775 2150 
L 2225 2150 
Q 2250 2675 2250 2950 
L 2250 4050 
L 1700 4050 
Q 975 4050 425 4025 
L 425 4500 
Q 950 4475 1700 4475 
L 2975 4475 
Q 2925 4675 2700 5125 
Q 2950 5150 3225 5275 
z
M 2200 1575 
Q 2650 975 3250 600 
Q 3850 1000 4275 1575 
L 2200 1575 
z
M 4850 3750 
Q 5375 3275 5950 2675 
Q 5750 2525 5500 2300 
Q 5075 2800 4450 3400 
Q 4675 3575 4850 3750 
z
M 1825 3500 
Q 1700 3375 1425 3025 
Q 1150 2675 825 2300 
Q 575 2475 375 2600 
Q 975 3150 1300 3825 
Q 1525 3650 1825 3500 
z
" transform="scale(0.015625)"/>
      </defs>
      <use xlink:href="#SimHei-751f"/>
      <use xlink:href="#SimHei-6001" x="100"/>
      <use xlink:href="#SimHei-7cfb" x="200"/>
      <use xlink:href="#SimHei-7edf" x="300"/>
      <use xlink:href="#SimHei-6539" x="400"/>
      <use xlink:href="#SimHei-53d8" x="500"/>
     </g>
    </g>
   </g>
   <g id="text_11">
    <g clip-path="url(#p65b0c25dad)">
     <!-- 遗传纯度下降 -->
     <g transform="translate(490.016529 220.101562) scale(0.12 -0.12)">
      <defs>
       <path id="SimHei-9057" d="M 3750 4875 
Q 3750 5050 3725 5275 
L 4250 5275 
Q 4200 5025 4200 4875 
L 5575 4875 
Q 5525 4600 5525 4300 
Q 5525 4025 5575 3725 
L 4200 3725 
L 4200 3425 
L 5150 3425 
Q 5600 3450 6000 3450 
L 6000 3025 
Q 5600 3050 5150 3050 
L 2875 3050 
Q 2375 3050 1975 3025 
L 1975 3450 
Q 2400 3425 2850 3425 
L 3750 3425 
L 3750 3725 
L 2375 3725 
Q 2400 4050 2400 4325 
Q 2400 4600 2375 4875 
L 3750 4875 
z
M 1500 2950 
Q 1475 2400 1475 1925 
L 1475 525 
Q 2200 -75 3725 -87 
Q 5250 -100 6175 0 
Q 5975 -250 5900 -575 
Q 4850 -575 4137 -550 
Q 3425 -525 2937 -462 
Q 2450 -400 2137 -300 
Q 1825 -200 1550 -37 
Q 1275 125 1087 -62 
Q 900 -250 675 -625 
Q 475 -450 225 -250 
Q 600 75 1000 425 
L 1000 2550 
Q 675 2550 275 2525 
L 275 2975 
Q 700 2950 1000 2950 
L 1500 2950 
z
M 5575 2725 
Q 5525 2400 5525 2075 
Q 5525 1750 5575 1450 
L 5050 1450 
L 5050 2350 
L 2950 2350 
L 2950 1375 
L 2425 1375 
Q 2450 1750 2450 2050 
Q 2450 2375 2425 2725 
L 5575 2725 
z
M 4250 2150 
Q 4050 1475 3800 1037 
Q 3550 600 2400 250 
Q 2225 500 2000 725 
Q 3225 875 3437 1325 
Q 3650 1775 3700 2200 
L 4250 2150 
z
M 4450 1450 
Q 5350 1000 5875 750 
Q 5650 575 5500 350 
Q 4975 725 4150 1100 
L 4450 1450 
z
M 1100 4975 
Q 1475 4250 1675 3850 
Q 1425 3750 1200 3575 
Q 1075 3850 600 4725 
Q 775 4850 1100 4975 
z
M 5050 4100 
L 5050 4475 
L 4200 4475 
L 4200 4100 
L 5050 4100 
z
M 3750 4100 
L 3750 4475 
L 2900 4475 
L 2900 4100 
L 3750 4100 
z
" transform="scale(0.015625)"/>
       <path id="SimHei-4f20" d="M 5500 1975 
Q 5025 925 4700 250 
Q 4975 100 5450 -200 
Q 5300 -375 5125 -675 
Q 4700 -375 4012 12 
Q 3325 400 3050 525 
Q 3175 750 3275 950 
Q 3600 800 4275 475 
Q 4525 975 4750 1550 
L 2800 1550 
Q 2950 2000 3125 2650 
L 2575 2650 
Q 2200 2650 1925 2625 
L 1925 3075 
Q 2250 3050 2600 3050 
L 3200 3050 
Q 3300 3525 3350 3825 
L 2975 3825 
Q 2525 3825 2250 3800 
L 2250 4250 
Q 2550 4225 2950 4225 
L 3425 4225 
Q 3525 4950 3525 5225 
Q 3850 5150 4100 5125 
Q 4025 5000 3875 4225 
L 4950 4225 
Q 5350 4225 5700 4250 
L 5700 3800 
Q 5375 3825 4925 3825 
L 3825 3825 
Q 3775 3550 3675 3050 
L 5250 3050 
Q 5750 3050 6025 3075 
L 6025 2625 
Q 5725 2650 5250 2650 
L 3600 2650 
Q 3500 2250 3425 1975 
L 5500 1975 
z
M 2225 4875 
Q 2025 4675 1650 3750 
L 1650 550 
Q 1650 -25 1675 -525 
L 1125 -525 
Q 1175 -125 1175 525 
L 1175 3000 
Q 800 2400 550 2050 
Q 450 2250 200 2450 
Q 500 2800 925 3525 
Q 1350 4250 1625 5175 
Q 1850 5050 2225 4875 
z
" transform="scale(0.015625)"/>
       <path id="SimHei-7eaf" d="M 3900 4125 
Q 3900 4575 3875 5100 
L 4375 5100 
Q 4350 4650 4350 4125 
L 5025 4125 
Q 5425 4125 5850 4150 
L 5850 3725 
Q 5450 3750 5050 3750 
L 4350 3750 
L 4350 1725 
L 5175 1725 
L 5175 2425 
Q 5175 2800 5150 3100 
L 5675 3100 
Q 5625 2825 5625 2050 
Q 5625 1300 5650 1025 
L 5175 1025 
L 5175 1325 
L 4350 1325 
L 4350 250 
Q 4350 -50 4650 -50 
L 5200 -50 
Q 5350 -50 5425 25 
Q 5500 100 5575 650 
Q 5800 525 6100 450 
Q 5975 -50 5862 -237 
Q 5750 -425 5325 -425 
L 4550 -425 
Q 3900 -425 3900 0 
L 3900 1325 
L 2625 1325 
Q 2650 1625 2650 2200 
Q 2650 2775 2625 3100 
L 3150 3100 
Q 3125 2750 3125 2500 
L 3125 1725 
L 3900 1725 
L 3900 3750 
L 3350 3750 
Q 2825 3750 2425 3725 
L 2425 4150 
Q 2825 4125 3350 4125 
L 3900 4125 
z
M 2300 1300 
Q 2200 1300 1662 1250 
Q 1125 1200 575 1075 
Q 500 1300 400 1575 
Q 600 1625 887 1962 
Q 1175 2300 1525 2800 
Q 1275 2800 962 2762 
Q 650 2725 425 2625 
Q 375 2800 225 3100 
Q 450 3150 775 3737 
Q 1100 4325 1300 5050 
Q 1550 4900 1875 4775 
Q 1650 4550 1412 4125 
Q 1175 3700 825 3125 
L 1725 3150 
Q 1900 3400 2025 3725 
Q 2250 3550 2575 3425 
Q 2325 3275 2025 2837 
Q 1725 2400 1075 1625 
Q 1975 1675 2300 1725 
L 2300 1300 
z
M 2475 250 
Q 2025 175 1450 12 
Q 875 -150 450 -300 
Q 325 25 225 200 
Q 925 325 1212 387 
Q 1500 450 2475 700 
L 2475 250 
z
" transform="scale(0.015625)"/>
       <path id="SimHei-5ea6" d="M 1750 1675 
Q 2450 1650 2875 1650 
L 5200 1650 
Q 4975 1250 4650 850 
Q 4325 450 4025 200 
Q 4350 50 4950 -50 
Q 5550 -150 6100 -150 
Q 5950 -300 5825 -650 
Q 5100 -550 4550 -412 
Q 4000 -275 3625 -100 
Q 3100 -325 2587 -462 
Q 2075 -600 1525 -675 
Q 1450 -475 1225 -250 
Q 1675 -250 2250 -125 
Q 2825 0 3250 200 
Q 2825 550 2400 1275 
L 1750 1250 
L 1750 1675 
z
M 2975 5075 
Q 3250 5150 3475 5250 
Q 3625 4975 3775 4525 
L 4700 4525 
Q 4975 4525 5700 4550 
L 5700 4100 
Q 5000 4125 4650 4125 
L 1375 4125 
Q 1375 3000 1350 2312 
Q 1325 1625 1212 950 
Q 1100 275 725 -525 
Q 500 -375 250 -300 
Q 650 400 762 1075 
Q 875 1750 887 2800 
Q 900 3850 875 4525 
L 3200 4525 
Q 3100 4850 2975 5075 
z
M 2475 3300 
Q 2475 3700 2450 3925 
L 2975 3925 
Q 2950 3725 2950 3300 
L 4300 3300 
Q 4300 3700 4275 3950 
L 4800 3950 
Q 4775 3650 4775 3300 
Q 5325 3300 5725 3325 
L 5725 2900 
Q 5350 2925 4775 2925 
Q 4775 2250 4800 1950 
L 2450 1950 
Q 2475 2350 2475 2925 
Q 2175 2925 1600 2900 
L 1600 3325 
Q 2175 3300 2475 3300 
z
M 4300 2350 
L 4300 2925 
L 2950 2925 
L 2950 2350 
L 4300 2350 
z
M 2875 1275 
Q 3200 775 3650 425 
Q 4025 700 4425 1275 
L 2900 1275 
L 2875 1275 
z
" transform="scale(0.015625)"/>
       <path id="SimHei-4e0b" d="M 5000 4700 
Q 5475 4700 5975 4725 
L 5975 4200 
Q 5425 4225 5000 4225 
L 3275 4225 
L 3275 375 
Q 3275 50 3300 -450 
L 2725 -450 
Q 2750 0 2750 375 
L 2750 4225 
L 1375 4225 
Q 875 4225 400 4200 
L 400 4725 
Q 875 4700 1375 4700 
L 5000 4700 
z
M 5650 1400 
Q 5400 1225 5200 1000 
Q 4800 1525 3650 2575 
L 4025 2950 
Q 4700 2400 5650 1400 
z
" transform="scale(0.015625)"/>
       <path id="SimHei-964d" d="M 4075 5050 
Q 3850 4800 3775 4625 
L 5650 4625 
Q 5425 4175 5187 3837 
Q 4950 3500 4650 3200 
Q 4900 3025 5275 2925 
Q 5650 2825 6200 2800 
Q 6025 2525 5975 2300 
Q 5375 2400 4950 2562 
Q 4525 2725 4275 2900 
Q 3950 2700 3550 2500 
Q 3150 2300 2525 2125 
Q 2450 2350 2250 2550 
Q 2775 2650 3212 2825 
Q 3650 3000 3875 3200 
Q 3550 3525 3325 3875 
Q 3000 3450 2825 3275 
Q 2650 3450 2450 3550 
Q 2775 3850 3075 4325 
Q 3375 4800 3575 5300 
Q 3950 5100 4075 5050 
z
M 2350 4975 
Q 2225 4650 2025 4062 
Q 1825 3475 1675 2975 
Q 2075 2450 2200 2175 
Q 2325 1900 2287 1550 
Q 2250 1200 2012 1012 
Q 1775 825 1350 775 
Q 1300 1025 1150 1325 
Q 1650 1300 1737 1512 
Q 1825 1725 1787 1962 
Q 1750 2200 1200 2925 
L 1450 3600 
Q 1600 4025 1725 4550 
L 975 4550 
L 975 -600 
L 500 -600 
Q 525 325 525 875 
L 525 3750 
Q 525 4325 500 4975 
L 2350 4975 
z
M 5100 2075 
Q 5275 2075 5725 2100 
L 5725 1650 
Q 5450 1675 5150 1675 
L 4575 1675 
L 4575 900 
L 5200 900 
Q 5675 900 6050 925 
L 6050 475 
Q 5700 500 5225 500 
L 4575 500 
L 4575 125 
Q 4575 -250 4600 -600 
L 4100 -600 
Q 4125 -225 4125 100 
L 4125 500 
L 2375 500 
Q 2500 1100 2500 1400 
L 3025 1325 
Q 2925 1025 2925 900 
L 4125 900 
L 4125 1675 
L 3475 1675 
Q 3100 1675 2775 1650 
L 2775 2100 
Q 3225 2075 3475 2075 
L 4125 2075 
Q 4125 2375 4100 2625 
L 4575 2625 
Q 4550 2225 4550 2075 
L 5100 2075 
z
M 4275 3475 
Q 4600 3725 4925 4250 
L 3550 4250 
Q 4025 3650 4275 3475 
z
" transform="scale(0.015625)"/>
      </defs>
      <use xlink:href="#SimHei-9057"/>
      <use xlink:href="#SimHei-4f20" x="100"/>
      <use xlink:href="#SimHei-7eaf" x="200"/>
      <use xlink:href="#SimHei-5ea6" x="300"/>
      <use xlink:href="#SimHei-4e0b" x="400"/>
      <use xlink:href="#SimHei-964d" x="500"/>
     </g>
    </g>
   </g>
   <g id="text_12">
    <!-- 外来物种与本地物种的生态竞争与影响关系 -->
    <g transform="translate(155 -6) scale(0.14 -0.14)">
     <defs>
      <path id="SimHei-7684" d="M 2100 4975 
Q 1975 4750 1750 3950 
L 2875 3950 
Q 2850 3525 2850 2875 
L 2850 675 
Q 2850 300 2875 -400 
L 2375 -400 
L 2375 100 
L 1100 100 
L 1100 -450 
L 600 -450 
Q 625 350 625 550 
L 625 2850 
Q 625 3525 600 3950 
L 1325 3950 
Q 1450 4525 1525 5150 
Q 1875 5025 2100 4975 
z
M 5825 3075 
Q 5800 1550 5700 175 
Q 5650 -275 5225 -425 
Q 4800 -575 4275 -625 
Q 4250 -350 4050 -50 
Q 4550 -75 4837 -25 
Q 5125 25 5200 200 
Q 5275 375 5312 1225 
Q 5350 2075 5375 3600 
L 3925 3600 
Q 3725 3125 3350 2475 
Q 3175 2650 2925 2750 
Q 3150 3050 3350 3475 
Q 3550 3900 3700 4400 
Q 3850 4900 3875 5175 
Q 4225 5025 4475 4950 
Q 4350 4750 4262 4512 
Q 4175 4275 4075 4050 
L 5850 4050 
Q 5825 3525 5825 3075 
z
M 2375 525 
L 2375 1850 
L 1100 1850 
L 1100 525 
L 2375 525 
z
M 2375 2275 
L 2375 3525 
L 1100 3525 
L 1100 2275 
L 2375 2275 
z
M 4350 2050 
Q 4500 1750 4700 1275 
Q 4525 1200 4225 1025 
Q 4050 1500 3900 1837 
Q 3750 2175 3600 2400 
Q 3775 2500 4050 2650 
L 4350 2050 
z
" transform="scale(0.015625)"/>
      <path id="SimHei-5173" d="M 4675 4850 
Q 4525 4675 4362 4375 
Q 4200 4075 4075 3825 
L 4625 3825 
Q 5150 3825 5550 3850 
L 5550 3375 
Q 5225 3400 4700 3400 
L 3400 3400 
L 3400 2150 
L 4975 2150 
Q 5475 2150 5875 2175 
L 5875 1700 
Q 5475 1725 5025 1725 
L 3500 1725 
Q 4250 450 6000 75 
Q 5775 -175 5600 -525 
Q 4025 0 3225 1300 
Q 2800 200 875 -600 
Q 775 -350 500 -150 
Q 2425 375 2875 1725 
L 1550 1725 
Q 975 1725 600 1700 
L 600 2150 
Q 875 2125 1450 2125 
L 2925 2125 
L 2925 3400 
L 1750 3400 
Q 1275 3400 900 3375 
L 900 3850 
Q 1275 3825 1775 3825 
L 3575 3825 
Q 3925 4625 4075 5150 
Q 4325 5000 4675 4850 
z
M 2125 5125 
Q 2450 4725 2800 4175 
Q 2500 4025 2325 3875 
Q 2025 4450 1725 4825 
Q 1950 4975 2125 5125 
z
" transform="scale(0.015625)"/>
     </defs>
     <use xlink:href="#SimHei-5916"/>
     <use xlink:href="#SimHei-6765" x="100"/>
     <use xlink:href="#SimHei-7269" x="200"/>
     <use xlink:href="#SimHei-79cd" x="300"/>
     <use xlink:href="#SimHei-4e0e" x="400"/>
     <use xlink:href="#SimHei-672c" x="500"/>
     <use xlink:href="#SimHei-5730" x="600"/>
     <use xlink:href="#SimHei-7269" x="700"/>
     <use xlink:href="#SimHei-79cd" x="800"/>
     <use xlink:href="#SimHei-7684" x="900"/>
     <use xlink:href="#SimHei-751f" x="1000"/>
     <use xlink:href="#SimHei-6001" x="1100"/>
     <use xlink:href="#SimHei-7ade" x="1200"/>
     <use xlink:href="#SimHei-4e89" x="1300"/>
     <use xlink:href="#SimHei-4e0e" x="1400"/>
     <use xlink:href="#SimHei-5f71" x="1500"/>
     <use xlink:href="#SimHei-54cd" x="1600"/>
     <use xlink:href="#SimHei-5173" x="1700"/>
     <use xlink:href="#SimHei-7cfb" x="1800"/>
    </g>
   </g>
  </g>
 </g>
 <defs>
  <clipPath id="p65b0c25dad">
   <rect x="0" y="0" width="576" height="432"/>
  </clipPath>
 </defs>
</svg>
