<?xml version="1.0" encoding="UTF-8" standalone="no"?>
<!DOCTYPE svg PUBLIC "-//W3C//DTD SVG 1.1//EN"
 "http://www.w3.org/Graphics/SVG/1.1/DTD/svg11.dtd">
<!-- Generated by graphviz version 2.50.0 (0)
 -->
<!-- Pages: 1 -->
<svg width="278pt" height="305pt"
 viewBox="0.00 0.00 278.18 305.00" xmlns="http://www.w3.org/2000/svg" xmlns:xlink="http://www.w3.org/1999/xlink">
<g id="graph0" class="graph" transform="scale(1 1) rotate(0) translate(4 301)">
<polygon fill="white" stroke="transparent" points="-4,4 -4,-301 274.18,-301 274.18,4 -4,4"/>
<!-- A -->
<g id="node1" class="node">
<title>A</title>
<ellipse fill="none" stroke="black" cx="135.09" cy="-279" rx="116.18" ry="18"/>
<text text-anchor="middle" x="135.09" y="-275.3" font-family="Times New Roman,serif" font-size="14.00">Invasive Species Proliferation</text>
</g>
<!-- B -->
<g id="node2" class="node">
<title>B</title>
<ellipse fill="none" stroke="black" cx="87.09" cy="-192" rx="85.59" ry="18"/>
<text text-anchor="middle" x="87.09" y="-188.3" font-family="Times New Roman,serif" font-size="14.00">Red Tide Occurrence</text>
</g>
<!-- A&#45;&gt;B -->
<g id="edge1" class="edge">
<title>A&#45;&gt;B</title>
<path fill="none" stroke="black" d="M83.09,-262.73C74.36,-257.83 66.41,-251.4 61.09,-243 56.17,-235.23 58.37,-226.42 63.12,-218.39"/>
<polygon fill="black" stroke="black" points="66.11,-220.24 69.07,-210.06 60.41,-216.17 66.11,-220.24"/>
<text text-anchor="middle" x="87.09" y="-231.8" font-family="Times New Roman,serif" font-size="14.00">Promotes</text>
</g>
<!-- B&#45;&gt;A -->
<g id="edge5" class="edge">
<title>B&#45;&gt;A</title>
<path fill="none" stroke="black" d="M100.85,-209.92C105.06,-215.5 109.52,-221.85 113.09,-228 117.38,-235.38 121.38,-243.75 124.75,-251.5"/>
<polygon fill="black" stroke="black" points="121.58,-253 128.67,-260.87 128.04,-250.29 121.58,-253"/>
<text text-anchor="middle" x="147.09" y="-231.8" font-family="Times New Roman,serif" font-size="14.00">Enhances</text>
</g>
<!-- C -->
<g id="node3" class="node">
<title>C</title>
<ellipse fill="none" stroke="black" cx="87.09" cy="-105" rx="87.18" ry="18"/>
<text text-anchor="middle" x="87.09" y="-101.3" font-family="Times New Roman,serif" font-size="14.00">Ecosystem Condition</text>
</g>
<!-- B&#45;&gt;C -->
<g id="edge2" class="edge">
<title>B&#45;&gt;C</title>
<path fill="none" stroke="black" d="M87.09,-173.8C87.09,-162.16 87.09,-146.55 87.09,-133.24"/>
<polygon fill="black" stroke="black" points="90.59,-133.18 87.09,-123.18 83.59,-133.18 90.59,-133.18"/>
<text text-anchor="middle" x="110.59" y="-144.8" font-family="Times New Roman,serif" font-size="14.00">Changes</text>
</g>
<!-- D -->
<g id="node4" class="node">
<title>D</title>
<ellipse fill="none" stroke="black" cx="144.09" cy="-18" rx="126.18" ry="18"/>
<text text-anchor="middle" x="144.09" y="-14.3" font-family="Times New Roman,serif" font-size="14.00">Adaptability of Invasive Species</text>
</g>
<!-- C&#45;&gt;D -->
<g id="edge3" class="edge">
<title>C&#45;&gt;D</title>
<path fill="none" stroke="black" d="M98.63,-86.8C106.74,-74.7 117.73,-58.3 126.88,-44.67"/>
<polygon fill="black" stroke="black" points="129.91,-46.43 132.57,-36.18 124.1,-42.53 129.91,-46.43"/>
<text text-anchor="middle" x="139.09" y="-57.8" font-family="Times New Roman,serif" font-size="14.00">Affects</text>
</g>
<!-- D&#45;&gt;A -->
<g id="edge4" class="edge">
<title>D&#45;&gt;A</title>
<path fill="none" stroke="black" d="M157.25,-36.06C166.5,-49.18 178.08,-68.19 183.09,-87 197.17,-139.83 186.51,-155.51 182.09,-210 180.89,-224.79 184.38,-230.08 177.09,-243 174.83,-247.02 171.91,-250.77 168.67,-254.21"/>
<polygon fill="black" stroke="black" points="166.08,-251.84 161.19,-261.24 170.88,-256.94 166.08,-251.84"/>
<text text-anchor="middle" x="216.09" y="-144.8" font-family="Times New Roman,serif" font-size="14.00">Feedback</text>
</g>
</g>
</svg>
