<?xml version="1.0" encoding="utf-8" standalone="no"?>
<!DOCTYPE svg PUBLIC "-//W3C//DTD SVG 1.1//EN"
  "http://www.w3.org/Graphics/SVG/1.1/DTD/svg11.dtd">
<svg xmlns:xlink="http://www.w3.org/1999/xlink" width="576pt" height="432pt" viewBox="0 0 576 432" xmlns="http://www.w3.org/2000/svg" version="1.1">
 <metadata>
  <rdf:RDF xmlns:dc="http://purl.org/dc/elements/1.1/" xmlns:cc="http://creativecommons.org/ns#" xmlns:rdf="http://www.w3.org/1999/02/22-rdf-syntax-ns#">
   <cc:Work>
    <dc:type rdf:resource="http://purl.org/dc/dcmitype/StillImage"/>
    <dc:date>2024-12-24T20:11:01.716285</dc:date>
    <dc:format>image/svg+xml</dc:format>
    <dc:creator>
     <cc:Agent>
      <dc:title>Matplotlib v3.9.3, https://matplotlib.org/</dc:title>
     </cc:Agent>
    </dc:creator>
   </cc:Work>
  </rdf:RDF>
 </metadata>
 <defs>
  <style type="text/css">*{stroke-linejoin: round; stroke-linecap: butt}</style>
 </defs>
 <g id="figure_1">
  <g id="patch_1">
   <path d="M 0 432 
L 576 432 
L 576 0 
L 0 0 
z
" style="fill: #ffffff"/>
  </g>
  <g id="axes_1">
   <g id="patch_2">
    <path d="M 500.00434 385.942034 
Q 406.318696 355.074967 313.694934 324.557764 
" clip-path="url(#p03701ec541)" style="fill: none; stroke: #000000; stroke-linecap: round"/>
    <path d="M 320.041439 330.860293 
L 313.694934 324.557764 
L 322.544861 323.262078 
z
" clip-path="url(#p03701ec541)" style="stroke: #000000; stroke-linecap: round"/>
   </g>
   <g id="patch_3">
    <path d="M 263.224418 301.398939 
Q 178.805282 250.023424 95.34122 199.229145 
" clip-path="url(#p03701ec541)" style="fill: none; stroke: #000000; stroke-linecap: round"/>
    <path d="M 100.095679 206.805102 
L 95.34122 199.229145 
L 104.254661 199.971153 
z
" clip-path="url(#p03701ec541)" style="stroke: #000000; stroke-linecap: round"/>
   </g>
   <g id="patch_4">
    <path d="M 67.737426 157.217806 
Q 62.196643 110.946949 56.788792 65.786196 
" clip-path="url(#p03701ec541)" style="fill: none; stroke: #000000; stroke-linecap: round"/>
    <path d="M 53.768344 74.205038 
L 56.788792 65.786196 
L 61.711596 73.25386 
z
" clip-path="url(#p03701ec541)" style="stroke: #000000; stroke-linecap: round"/>
   </g>
   <g id="patch_5">
    <path d="M 54.195417 292.334871 
Q 60.488413 251.904923 66.609456 212.579707 
" clip-path="url(#p03701ec541)" style="fill: none; stroke: #000000; stroke-linecap: round"/>
    <path d="M 61.426649 219.869323 
L 66.609456 212.579707 
L 69.331465 221.099722 
z
" clip-path="url(#p03701ec541)" style="stroke: #000000; stroke-linecap: round"/>
   </g>
   <g id="patch_6">
    <path d="M 77.364196 318.960166 
Q 168.302635 317.51626 258.12318 316.090104 
" clip-path="url(#p03701ec541)" style="fill: none; stroke: #000000; stroke-linecap: round"/>
    <path d="M 250.060685 312.217615 
L 258.12318 316.090104 
L 250.187692 320.216607 
z
" clip-path="url(#p03701ec541)" style="stroke: #000000; stroke-linecap: round"/>
   </g>
   <g id="PathCollection_1">
    <defs>
     <path id="mc56097f216" d="M 0 27.386128 
C 7.262886 27.386128 14.229281 24.500553 19.364917 19.364917 
C 24.500553 14.229281 27.386128 7.262886 27.386128 0 
C 27.386128 -7.262886 24.500553 -14.229281 19.364917 -19.364917 
C 14.229281 -24.500553 7.262886 -27.386128 0 -27.386128 
C -7.262886 -27.386128 -14.229281 -24.500553 -19.364917 -19.364917 
C -24.500553 -14.229281 -27.386128 -7.262886 -27.386128 0 
C -27.386128 7.262886 -24.500553 14.229281 -19.364917 19.364917 
C -14.229281 24.500553 -7.262886 27.386128 0 27.386128 
z
" style="stroke: #90ee90"/>
    </defs>
    <g clip-path="url(#p03701ec541)">
     <use xlink:href="#mc56097f216" x="526.016529" y="394.512397" style="fill: #90ee90; stroke: #90ee90"/>
     <use xlink:href="#mc56097f216" x="286.621109" y="315.637619" style="fill: #90ee90; stroke: #90ee90"/>
     <use xlink:href="#mc56097f216" x="70.993829" y="184.411892" style="fill: #90ee90; stroke: #90ee90"/>
     <use xlink:href="#mc56097f216" x="53.400128" y="37.487603" style="fill: #90ee90; stroke: #90ee90"/>
     <use xlink:href="#mc56097f216" x="49.983471" y="319.394913" style="fill: #90ee90; stroke: #90ee90"/>
    </g>
   </g>
   <g id="text_1">
    <g clip-path="url(#p03701ec541)">
     <!-- 浮游植物 -->
     <g transform="translate(502.016529 397.817084) scale(0.12 -0.12)">
      <defs>
       <path id="MicrosoftYaHei-Bold-6d6e" d="M 706 5278 
Q 1156 4941 1744 4422 
L 1163 3809 
Q 663 4303 181 4716 
L 706 5278 
z
M 1750 1541 
L 3544 1541 
L 3544 1716 
Q 4181 2116 4456 2316 
L 2075 2316 
L 2075 3059 
L 4956 3059 
L 4494 3272 
Q 4922 3956 5172 4459 
L 1919 4272 
Q 1856 4703 1775 5028 
Q 4050 5084 5944 5234 
L 6050 4516 
L 5184 4459 
L 5950 4103 
Q 5647 3628 5259 3059 
L 5688 3059 
L 5688 2303 
Q 5184 1934 4575 1541 
L 6238 1541 
L 6238 784 
L 4431 784 
L 4431 -84 
Q 4431 -372 4304 -536 
Q 4178 -700 3898 -748 
Q 3619 -797 2594 -809 
Q 2519 -316 2425 9 
Q 2831 -22 3313 -22 
Q 3544 -22 3544 253 
L 3544 784 
L 1750 784 
L 1750 1541 
z
M 3919 4334 
Q 4075 4059 4363 3472 
L 3700 3197 
Q 3525 3622 3275 4066 
L 3919 4334 
z
M 2569 4247 
Q 2806 3884 3075 3422 
L 2400 3097 
Q 2188 3478 1900 3934 
L 2569 4247 
z
M 638 3634 
Q 1244 3191 1663 2822 
L 1075 2172 
Q 681 2559 94 3041 
L 638 3634 
z
M 719 1909 
Q 1219 1716 1556 1628 
L 1013 -797 
Q 550 -647 150 -547 
Q 463 522 719 1909 
z
" transform="scale(0.015625)"/>
       <path id="MicrosoftYaHei-Bold-6e38" d="M 5463 2016 
L 5463 1853 
L 6319 1853 
L 6319 1103 
L 5463 1103 
L 5463 66 
Q 5463 -359 5319 -539 
Q 5175 -719 4934 -770 
Q 4694 -822 3975 -822 
Q 3925 -472 3819 -16 
Q 4181 -41 4381 -41 
Q 4681 -41 4681 278 
L 4681 1103 
L 3775 1103 
L 3775 1853 
L 4681 1853 
L 4681 2191 
L 5081 2709 
L 3950 2709 
L 3950 3150 
Q 3881 3275 3722 3503 
L 2556 3503 
L 2550 2834 
L 3675 2834 
Q 3650 519 3594 34 
Q 3538 -450 3311 -629 
Q 3084 -809 2413 -809 
Q 2325 -322 2238 47 
Q 2506 22 2638 22 
Q 2844 22 2886 205 
Q 2928 388 2950 2078 
L 2538 2078 
Q 2478 159 1744 -928 
Q 1538 -353 1325 41 
Q 1541 406 1650 837 
Q 1759 1269 1798 1714 
Q 1838 2159 1844 3503 
L 1469 3503 
L 1469 4316 
L 2347 4316 
Q 2203 4653 1969 5053 
L 2700 5347 
Q 3038 4766 3163 4459 
L 2841 4316 
L 3788 4316 
Q 4028 4788 4206 5347 
L 5013 5191 
Q 4919 4903 4809 4634 
L 6306 4634 
L 6306 3884 
L 4463 3884 
Q 4334 3638 4191 3416 
L 6069 3416 
L 6069 2722 
L 5463 2016 
z
M 694 5303 
Q 1156 4947 1606 4578 
L 1019 3941 
Q 625 4347 194 4716 
L 694 5303 
z
M 519 3584 
Q 1019 3209 1481 2803 
L 894 2147 
Q 406 2666 25 3016 
L 519 3584 
z
M 638 1828 
Q 1044 1659 1419 1534 
L 863 -828 
Q 450 -684 75 -572 
Q 369 459 638 1828 
z
" transform="scale(0.015625)"/>
       <path id="MicrosoftYaHei-Bold-690d" d="M 1975 3 
L 2425 3 
L 2425 2128 
L 1975 1534 
Q 1800 1703 1613 1872 
L 1613 -847 
L 850 -847 
L 850 1684 
Q 613 1109 275 547 
Q 175 1178 75 1691 
Q 569 2522 806 3378 
L 119 3378 
L 119 4191 
L 850 4191 
L 850 5297 
L 1613 5297 
L 1613 4191 
L 2194 4191 
L 2194 3378 
L 1613 3378 
L 1613 2778 
Q 2013 2509 2425 2203 
L 2425 3728 
L 3744 3728 
L 3744 4097 
L 2206 4097 
L 2206 4797 
L 3744 4797 
L 3744 5303 
L 4569 5303 
L 4569 4797 
L 6175 4797 
L 6175 4097 
L 4569 4097 
L 4569 3728 
L 5938 3728 
L 5938 3 
L 6325 3 
L 6325 -697 
L 1975 -697 
L 1975 3 
z
M 3213 3 
L 5150 3 
L 5150 328 
L 3213 328 
L 3213 3 
z
M 3213 928 
L 5150 928 
L 5150 1253 
L 3213 1253 
L 3213 928 
z
M 3213 1853 
L 5150 1853 
L 5150 2178 
L 3213 2178 
L 3213 1853 
z
M 5150 3103 
L 3213 3103 
L 3213 2778 
L 5150 2778 
L 5150 3103 
z
" transform="scale(0.015625)"/>
       <path id="MicrosoftYaHei-Bold-7269" d="M 1969 -847 
L 1181 -847 
L 1181 1078 
Q 669 984 206 884 
L 94 1791 
Q 597 1838 1181 1922 
L 1181 3172 
L 775 3172 
Q 697 2731 594 2322 
Q 300 2509 88 2603 
Q 313 3566 381 4784 
L 956 4728 
Q 931 4344 891 3978 
L 1181 3978 
L 1181 5291 
L 1969 5291 
L 1969 3978 
L 2425 3978 
L 2425 3728 
Q 2856 4553 3100 5341 
Q 3550 5259 3938 5178 
Q 3772 4738 3609 4359 
L 6075 4359 
Q 6066 3275 6028 2016 
L 5972 400 
Q 5953 47 5834 -204 
Q 5716 -456 5466 -568 
Q 5216 -681 4150 -647 
Q 4056 -134 3934 216 
Q 3497 -331 2888 -772 
Q 2494 -353 2219 -109 
Q 4194 1163 4425 3534 
L 4116 3534 
Q 3891 1925 2781 966 
Q 2597 1144 2441 1284 
L 1969 1213 
L 1969 -847 
z
M 5300 3534 
L 5025 3534 
Q 4994 1578 3966 253 
Q 4356 222 4694 222 
Q 5122 222 5187 645 
Q 5253 1069 5300 3534 
z
M 2638 2647 
Q 2384 3003 2228 3172 
L 1969 3172 
L 1969 2044 
Q 2241 2088 2531 2141 
Q 2522 2006 2516 1850 
Q 3275 2559 3519 3534 
L 3213 3534 
Q 2925 3000 2638 2647 
z
" transform="scale(0.015625)"/>
      </defs>
      <use xlink:href="#MicrosoftYaHei-Bold-6d6e"/>
      <use xlink:href="#MicrosoftYaHei-Bold-6e38" x="100"/>
      <use xlink:href="#MicrosoftYaHei-Bold-690d" x="200"/>
      <use xlink:href="#MicrosoftYaHei-Bold-7269" x="300"/>
     </g>
    </g>
   </g>
   <g id="text_2">
    <g clip-path="url(#p03701ec541)">
     <!-- 浮游动物 -->
     <g transform="translate(262.621109 318.942306) scale(0.12 -0.12)">
      <defs>
       <path id="MicrosoftYaHei-Bold-52a8" d="M 2469 2178 
L 3134 603 
Q 3563 1378 3553 3441 
L 2919 3441 
L 2919 4266 
L 3572 4266 
L 3581 5328 
L 4413 5328 
L 4400 4266 
L 6038 4266 
L 5966 734 
Q 5947 22 5905 -156 
Q 5863 -334 5731 -473 
Q 5600 -613 5387 -675 
Q 5175 -738 4269 -747 
Q 4169 -272 4044 191 
Q 4456 166 4728 166 
Q 4909 166 5006 237 
Q 5103 309 5120 445 
Q 5138 581 5161 1404 
Q 5184 2228 5194 3441 
L 4384 3441 
Q 4356 2047 4272 1445 
Q 4188 844 3925 228 
Q 3663 -388 3244 -866 
Q 2888 -584 2481 -341 
Q 2663 -156 2813 50 
L 1078 -97 
Q 688 -144 481 -228 
L 94 528 
Q 422 794 897 2491 
L 119 2491 
L 119 3291 
L 3006 3291 
L 3006 2491 
L 1806 2491 
Q 1516 1594 1188 747 
Q 1756 763 2216 788 
Q 1991 1416 1775 1947 
L 2469 2178 
z
M 2788 4066 
L 388 4066 
L 388 4866 
L 2788 4866 
L 2788 4066 
z
" transform="scale(0.015625)"/>
      </defs>
      <use xlink:href="#MicrosoftYaHei-Bold-6d6e"/>
      <use xlink:href="#MicrosoftYaHei-Bold-6e38" x="100"/>
      <use xlink:href="#MicrosoftYaHei-Bold-52a8" x="200"/>
      <use xlink:href="#MicrosoftYaHei-Bold-7269" x="300"/>
     </g>
    </g>
   </g>
   <g id="text_3">
    <g clip-path="url(#p03701ec541)">
     <!-- 小型鱼类 -->
     <g transform="translate(46.993829 187.716579) scale(0.12 -0.12)">
      <defs>
       <path id="MicrosoftYaHei-Bold-5c0f" d="M 2788 5272 
L 3763 5272 
L 3763 541 
Q 3763 -75 3570 -367 
Q 3378 -659 3076 -712 
Q 2775 -766 1700 -766 
Q 1606 -234 1469 222 
Q 1969 166 2344 166 
Q 2788 166 2788 684 
L 2788 5272 
z
M 5206 3922 
Q 5800 2553 6356 1041 
L 5369 659 
Q 4856 2278 4325 3628 
L 5206 3922 
z
M 1069 3916 
L 2006 3691 
Q 1550 2016 1038 622 
L 113 972 
Q 663 2397 1069 3916 
z
" transform="scale(0.015625)"/>
       <path id="MicrosoftYaHei-Bold-578b" d="M 5963 5216 
L 5963 2547 
Q 5963 2141 5752 1928 
Q 5541 1716 5095 1700 
Q 4650 1684 4269 1684 
Q 4231 2059 4150 2447 
Q 4469 2428 4813 2428 
Q 5150 2428 5150 2709 
L 5150 5216 
L 5963 5216 
z
M 150 3491 
L 891 3491 
Q 900 3616 900 4341 
L 325 4341 
L 325 5066 
L 3625 5066 
L 3625 4341 
L 3113 4341 
L 3113 3491 
L 3750 3491 
L 3750 2766 
L 3113 2766 
L 3113 2091 
L 3656 2091 
L 3656 1441 
L 5781 1441 
L 5781 678 
L 3656 678 
L 3656 103 
L 6294 103 
L 6294 -647 
L 138 -647 
L 138 103 
L 2763 103 
L 2763 678 
L 650 678 
L 650 1441 
L 2763 1441 
L 2763 1766 
L 2350 1766 
L 2350 2766 
L 1559 2766 
Q 1375 2016 888 1522 
Q 675 1697 275 2009 
Q 584 2334 741 2766 
L 150 2766 
L 150 3491 
z
M 1663 3491 
L 2350 3491 
L 2350 4341 
L 1669 4341 
Q 1669 3753 1663 3491 
z
M 3900 4866 
L 4650 4866 
L 4650 2753 
L 3900 2753 
L 3900 4866 
z
" transform="scale(0.015625)"/>
       <path id="MicrosoftYaHei-Bold-9c7c" d="M 4700 4891 
L 4700 4128 
L 4313 3703 
L 5594 3703 
L 5594 528 
L 850 528 
L 850 3006 
Q 709 2894 569 2791 
Q 338 3109 69 3422 
Q 1156 4197 1844 5328 
L 2831 5328 
Q 2697 5103 2553 4891 
L 4700 4891 
z
M 1603 3703 
L 3275 3703 
L 3694 4191 
L 2034 4191 
Q 1825 3934 1603 3703 
z
M 1700 2441 
L 2825 2441 
L 2825 3003 
L 1700 3003 
L 1700 2441 
z
M 4744 3003 
L 3625 3003 
L 3625 2441 
L 4744 2441 
L 4744 3003 
z
M 1700 1228 
L 2825 1228 
L 2825 1791 
L 1700 1791 
L 1700 1228 
z
M 4744 1228 
L 4744 1791 
L 3625 1791 
L 3625 1228 
L 4744 1228 
z
M 213 122 
L 6213 122 
L 6213 -641 
L 213 -641 
L 213 122 
z
" transform="scale(0.015625)"/>
       <path id="MicrosoftYaHei-Bold-7c7b" d="M 331 3953 
L 1781 3953 
Q 1319 4347 838 4728 
L 1306 5247 
Q 1863 4866 2431 4422 
Q 2425 4409 1975 3953 
L 2763 3953 
L 2763 5303 
L 3613 5303 
L 3613 3953 
L 4456 3953 
L 4038 4372 
Q 4513 4753 5106 5259 
L 5663 4728 
Q 5138 4297 4688 3953 
L 6069 3953 
L 6069 3216 
L 3925 3216 
Q 5069 2809 6025 2441 
L 5675 1734 
Q 4844 2122 3613 2653 
L 3613 2141 
L 2763 2141 
L 2763 2722 
Q 2038 2116 813 1747 
Q 644 2122 400 2509 
Q 1588 2747 2256 3216 
L 331 3216 
L 331 3953 
z
M 225 1603 
L 2719 1603 
Q 2744 1772 2750 1966 
L 3606 1966 
Q 3588 1772 3563 1603 
L 6181 1603 
L 6181 841 
L 4013 841 
Q 4788 66 6238 -91 
Q 5863 -603 5681 -891 
Q 4006 -528 3225 734 
Q 2850 -359 694 -872 
Q 388 -391 169 -109 
Q 1844 134 2419 841 
L 225 841 
L 225 1603 
z
" transform="scale(0.015625)"/>
      </defs>
      <use xlink:href="#MicrosoftYaHei-Bold-5c0f"/>
      <use xlink:href="#MicrosoftYaHei-Bold-578b" x="100"/>
      <use xlink:href="#MicrosoftYaHei-Bold-9c7c" x="200"/>
      <use xlink:href="#MicrosoftYaHei-Bold-7c7b" x="300"/>
     </g>
    </g>
   </g>
   <g id="text_4">
    <g clip-path="url(#p03701ec541)">
     <!-- 大鱼 -->
     <g transform="translate(41.400128 40.792291) scale(0.12 -0.12)">
      <defs>
       <path id="MicrosoftYaHei-Bold-5927" d="M 213 3728 
L 2681 3728 
Q 2725 4409 2719 5303 
L 3669 5303 
Q 3650 4375 3619 3728 
L 6200 3728 
L 6200 2866 
L 3691 2866 
Q 4228 778 6288 59 
Q 5844 -447 5575 -803 
Q 3872 -3 3203 1775 
Q 2684 147 806 -847 
Q 556 -528 100 -47 
Q 2375 984 2591 2866 
L 213 2866 
L 213 3728 
z
" transform="scale(0.015625)"/>
      </defs>
      <use xlink:href="#MicrosoftYaHei-Bold-5927"/>
      <use xlink:href="#MicrosoftYaHei-Bold-9c7c" x="100"/>
     </g>
    </g>
   </g>
   <g id="text_5">
    <g clip-path="url(#p03701ec541)">
     <!-- 外来鲑鱼 -->
     <g transform="translate(25.983471 322.699601) scale(0.12 -0.12)">
      <defs>
       <path id="MicrosoftYaHei-Bold-5916" d="M 3419 4359 
L 3419 3578 
Q 3031 697 831 -884 
Q 450 -422 206 -184 
Q 1131 469 1706 1319 
Q 1372 1638 969 1991 
L 1469 2609 
Q 1834 2319 2128 2069 
Q 2441 2747 2563 3528 
L 1628 3528 
Q 1172 2406 475 1516 
Q 213 2128 44 2416 
Q 925 3616 1281 5359 
L 2150 5209 
Q 2050 4769 1925 4359 
L 3419 4359 
z
M 4956 3603 
Q 5800 2659 6363 1916 
L 5663 1347 
Q 5141 2097 4625 2731 
L 4625 -853 
L 3750 -853 
L 3750 5297 
L 4625 5297 
L 4625 3347 
L 4956 3603 
z
" transform="scale(0.015625)"/>
       <path id="MicrosoftYaHei-Bold-6765" d="M 513 4628 
L 2731 4628 
L 2731 5316 
L 3638 5316 
L 3638 4628 
L 5888 4628 
L 5888 3816 
L 4872 3816 
L 5494 3353 
Q 5078 2844 4722 2516 
L 6213 2516 
L 6213 1709 
L 4159 1709 
Q 5028 816 6269 347 
Q 5988 -22 5713 -441 
Q 4388 281 3638 1263 
L 3638 -809 
L 2731 -809 
L 2731 1256 
Q 1959 253 656 -478 
Q 369 -66 106 266 
Q 1325 794 2175 1709 
L 213 1709 
L 213 2516 
L 1609 2516 
Q 1363 2856 906 3378 
L 1488 3816 
L 513 3816 
L 513 4628 
z
M 4847 3816 
L 3638 3816 
L 3638 2516 
L 4638 2516 
L 4081 2984 
Q 4469 3347 4847 3816 
z
M 2294 2966 
L 1688 2516 
L 2731 2516 
L 2731 3816 
L 1531 3816 
Q 1897 3441 2294 2966 
z
" transform="scale(0.015625)"/>
       <path id="MicrosoftYaHei-Bold-9c91" d="M 869 5341 
L 1613 5341 
Q 1513 5059 1394 4803 
L 2431 4803 
L 2431 4159 
L 2113 3559 
L 2675 3559 
L 2675 509 
L 325 509 
L 325 3122 
Q 300 3097 275 3072 
Q 200 3428 75 3922 
Q 594 4553 869 5341 
z
M 2825 178 
L 4100 178 
L 4100 934 
L 2944 934 
L 2944 1672 
L 4100 1672 
L 4100 2253 
L 4913 2253 
L 4913 1672 
L 6025 1672 
L 6025 934 
L 4913 934 
L 4913 178 
L 6300 178 
L 6300 -559 
L 2825 -559 
L 2825 178 
z
M 2894 3153 
L 4100 3153 
L 4100 3828 
L 3038 3828 
L 3038 4566 
L 4100 4566 
L 4100 5297 
L 4913 5297 
L 4913 4566 
L 6031 4566 
L 6031 3828 
L 4913 3828 
L 4913 3153 
L 6238 3153 
L 6238 2416 
L 2894 2416 
L 2894 3153 
z
M 125 59 
Q 1881 197 2725 316 
Q 2706 128 2725 -459 
Q 2050 -516 200 -728 
L 125 59 
z
M 681 3559 
L 1375 3559 
L 1675 4103 
L 1038 4103 
Q 875 3816 681 3559 
z
M 925 1166 
L 1238 1166 
L 1238 1728 
L 925 1728 
L 925 1166 
z
M 2075 1166 
L 2075 1728 
L 1763 1728 
L 1763 1166 
L 2075 1166 
z
M 925 2347 
L 1238 2347 
L 1238 2903 
L 925 2903 
L 925 2347 
z
M 2075 2903 
L 1763 2903 
L 1763 2347 
L 2075 2347 
L 2075 2903 
z
" transform="scale(0.015625)"/>
      </defs>
      <use xlink:href="#MicrosoftYaHei-Bold-5916"/>
      <use xlink:href="#MicrosoftYaHei-Bold-6765" x="100"/>
      <use xlink:href="#MicrosoftYaHei-Bold-9c91" x="200"/>
      <use xlink:href="#MicrosoftYaHei-Bold-9c7c" x="300"/>
     </g>
    </g>
   </g>
  </g>
 </g>
 <defs>
  <clipPath id="p03701ec541">
   <rect x="0" y="0" width="576" height="432"/>
  </clipPath>
 </defs>
</svg>
