<?xml version="1.0" encoding="utf-8" standalone="no"?>
<!DOCTYPE svg PUBLIC "-//W3C//DTD SVG 1.1//EN"
  "http://www.w3.org/Graphics/SVG/1.1/DTD/svg11.dtd">
<svg xmlns:xlink="http://www.w3.org/1999/xlink" width="720pt" height="576pt" viewBox="0 0 720 576" xmlns="http://www.w3.org/2000/svg" version="1.1">
 <metadata>
  <rdf:RDF xmlns:dc="http://purl.org/dc/elements/1.1/" xmlns:cc="http://creativecommons.org/ns#" xmlns:rdf="http://www.w3.org/1999/02/22-rdf-syntax-ns#">
   <cc:Work>
    <dc:type rdf:resource="http://purl.org/dc/dcmitype/StillImage"/>
    <dc:date>2024-12-24T20:15:10.115078</dc:date>
    <dc:format>image/svg+xml</dc:format>
    <dc:creator>
     <cc:Agent>
      <dc:title>Matplotlib v3.9.3, https://matplotlib.org/</dc:title>
     </cc:Agent>
    </dc:creator>
   </cc:Work>
  </rdf:RDF>
 </metadata>
 <defs>
  <style type="text/css">*{stroke-linejoin: round; stroke-linecap: butt}</style>
 </defs>
 <g id="figure_1">
  <g id="patch_1">
   <path d="M 0 576 
L 720 576 
L 720 0 
L 0 0 
z
" style="fill: #ffffff"/>
  </g>
  <g id="axes_1">
   <g id="patch_2">
    <path d="M 369 135.648 
L 341.1 146.736 
L 341.1 135.86976 
L 145.8 135.86976 
L 145.8 135.42624 
L 341.1 135.42624 
L 341.1 124.56 
z
" clip-path="url(#pd5f6dd52e3)" style="fill: #0000ff; stroke: #0000ff; stroke-linejoin: miter"/>
   </g>
   <g id="patch_3">
    <path d="M 369 180 
L 341.1 191.088 
L 341.1 180.22176 
L 145.8 180.22176 
L 145.8 179.77824 
L 341.1 179.77824 
L 341.1 168.912 
z
" clip-path="url(#pd5f6dd52e3)" style="fill: #008000; stroke: #008000; stroke-linejoin: miter"/>
   </g>
   <g id="patch_4">
    <path d="M 592.2 135.648 
L 564.3 146.736 
L 564.3 135.86976 
L 369 135.86976 
L 369 135.42624 
L 564.3 135.42624 
L 564.3 124.56 
z
" clip-path="url(#pd5f6dd52e3)" style="fill: #ff0000; stroke: #ff0000; stroke-linejoin: miter"/>
   </g>
   <g id="patch_5">
    <path d="M 592.2 180 
L 564.3 191.088 
L 564.3 180.22176 
L 369 180.22176 
L 369 179.77824 
L 564.3 179.77824 
L 564.3 168.912 
z
" clip-path="url(#pd5f6dd52e3)" style="fill: #ffa500; stroke: #ffa500; stroke-linejoin: miter"/>
   </g>
   <g id="patch_6">
    <path d="M 592.2 313.056 
L 564.3 324.144 
L 564.3 313.27776 
L 369 313.27776 
L 369 312.83424 
L 564.3 312.83424 
L 564.3 301.968 
z
" clip-path="url(#pd5f6dd52e3)" style="fill: #800080; stroke: #800080; stroke-linejoin: miter"/>
   </g>
   <g id="patch_7">
    <path d="M 592.2 357.408 
L 564.3 368.496 
L 564.3 357.62976 
L 369 357.62976 
L 369 357.18624 
L 564.3 357.18624 
L 564.3 346.32 
z
" clip-path="url(#pd5f6dd52e3)" style="fill: #a52a2a; stroke: #a52a2a; stroke-linejoin: miter"/>
   </g>
   <g id="patch_8">
    <path d="M 369 135.648 
L 396.9 124.56 
L 396.9 135.42624 
L 592.2 135.42624 
L 592.2 135.86976 
L 396.9 135.86976 
L 396.9 146.736 
z
" clip-path="url(#pd5f6dd52e3)" style="fill: #808080; stroke: #808080; stroke-linejoin: miter"/>
   </g>
   <g id="patch_9">
    <path d="M 369 180 
L 396.9 168.912 
L 396.9 179.77824 
L 592.2 179.77824 
L 592.2 180.22176 
L 396.9 180.22176 
L 396.9 191.088 
z
" clip-path="url(#pd5f6dd52e3)" style="stroke: #000000; stroke-linejoin: miter"/>
   </g>
   <g id="text_1">
    <g id="patch_10">
     <path d="M 97.8 120.055125 
L 193.8 120.055125 
Q 197.4 120.055125 197.4 116.455125 
L 197.4 103.8795 
Q 197.4 100.2795 193.8 100.2795 
L 97.8 100.2795 
Q 94.2 100.2795 94.2 103.8795 
L 94.2 116.455125 
Q 94.2 120.055125 97.8 120.055125 
z
" style="fill: #add8e6; stroke: #000000; stroke-linejoin: miter"/>
    </g>
    <!-- 外来物种传播途径 -->
    <g transform="translate(97.8 113.472) scale(0.12 -0.12)">
     <defs>
      <path id="MicrosoftYaHei-5916" d="M 38 2084 
Q 969 3503 1438 5316 
L 1950 5172 
Q 1800 4666 1638 4197 
L 3375 4197 
L 3375 3734 
Q 3044 628 569 -822 
Q 438 -616 244 -378 
Q 1456 341 2106 1422 
Q 1669 1791 1125 2172 
L 1444 2553 
Q 1975 2166 2350 1872 
Q 2738 2678 2850 3722 
L 1456 3722 
Q 1019 2616 325 1553 
Q 200 1809 38 2084 
z
M 3988 5266 
L 4513 5266 
L 4513 3116 
L 4763 3397 
Q 5656 2703 6356 2128 
L 6000 1666 
Q 5338 2278 4513 2972 
L 4513 -859 
L 3988 -859 
L 3988 5266 
z
" transform="scale(0.015625)"/>
      <path id="MicrosoftYaHei-6765" d="M 6325 141 
Q 6119 -122 5975 -334 
Q 4344 403 3438 1550 
L 3438 -841 
L 2963 -841 
L 2963 1584 
Q 2050 516 413 -409 
Q 281 -222 75 22 
Q 1706 841 2806 1922 
L 181 1922 
L 181 2359 
L 2963 2359 
L 2963 4003 
L 550 4003 
L 550 4441 
L 2963 4441 
L 2963 5341 
L 3438 5341 
L 3438 4441 
L 5900 4441 
L 5900 4003 
L 3438 4003 
L 3438 2359 
L 6225 2359 
L 6225 1922 
L 3566 1922 
Q 4594 778 6325 141 
z
M 4056 2766 
Q 4631 3378 4950 3828 
L 5381 3497 
Q 4913 2941 4419 2453 
L 4056 2766 
z
M 1075 3509 
L 1438 3803 
Q 1900 3347 2313 2828 
L 1900 2484 
Q 1581 2922 1075 3509 
z
" transform="scale(0.015625)"/>
      <path id="MicrosoftYaHei-7269" d="M 2131 2866 
Q 2750 3816 3263 5341 
L 3719 5203 
Q 3541 4706 3363 4278 
L 6075 4278 
Q 5950 1759 5869 422 
Q 5800 -622 4869 -622 
Q 4519 -622 4044 -603 
Q 4013 -372 3956 -72 
Q 4500 -134 4819 -134 
Q 5325 -134 5375 441 
Q 5488 1759 5575 3834 
L 5097 3834 
Q 4934 2241 4569 1322 
Q 4069 134 2869 -716 
Q 2731 -522 2550 -334 
Q 3719 491 4169 1559 
Q 4531 2438 4634 3834 
L 4078 3834 
Q 3909 2641 3575 1916 
Q 3163 1097 2444 447 
Q 2288 647 2119 816 
Q 2831 1434 3175 2116 
Q 3509 2809 3619 3834 
L 3169 3834 
Q 2850 3125 2531 2628 
Q 2375 2734 2131 2866 
z
M 94 1584 
Q 669 1775 1288 1991 
L 1288 3466 
L 722 3466 
Q 597 2872 419 2378 
Q 219 2522 13 2653 
Q 363 3509 456 4709 
L 906 4634 
Q 863 4244 800 3884 
L 1288 3884 
L 1288 5291 
L 1756 5291 
L 1756 3884 
L 2375 3884 
L 2375 3466 
L 1756 3466 
L 1756 2156 
Q 2063 2269 2381 2384 
Q 2413 2109 2450 1909 
Q 2141 1797 1756 1653 
L 1756 -834 
L 1288 -834 
L 1288 1475 
Q 788 1288 188 1053 
L 94 1584 
z
" transform="scale(0.015625)"/>
      <path id="MicrosoftYaHei-79cd" d="M 2700 4066 
L 4113 4066 
L 4113 5316 
L 4588 5316 
L 4588 4066 
L 6006 4066 
L 6006 1053 
L 5556 1053 
L 5556 1353 
L 4588 1353 
L 4588 -841 
L 4113 -841 
L 4113 1353 
L 3150 1353 
L 3150 1053 
L 2700 1053 
L 2700 4066 
z
M 88 878 
Q 669 1691 1063 2972 
L 119 2972 
L 119 3416 
L 1119 3416 
L 1119 4434 
Q 738 4403 294 4372 
Q 263 4584 200 4828 
Q 1475 4897 2425 5034 
L 2538 4559 
Q 2141 4519 1581 4472 
L 1581 3416 
L 2475 3416 
L 2475 2972 
L 1581 2972 
L 1581 2159 
L 1850 2378 
Q 2188 2028 2606 1516 
L 2225 1203 
Q 1888 1669 1581 2025 
L 1581 -828 
L 1119 -828 
L 1119 1894 
Q 791 972 306 341 
Q 206 603 88 878 
z
M 5556 3634 
L 4588 3634 
L 4588 1784 
L 5556 1784 
L 5556 3634 
z
M 3150 1784 
L 4113 1784 
L 4113 3634 
L 3150 3634 
L 3150 1784 
z
" transform="scale(0.015625)"/>
      <path id="MicrosoftYaHei-4f20" d="M 2413 684 
L 2681 1053 
Q 3397 666 4056 278 
L 5269 1472 
L 2606 1472 
L 2606 1916 
Q 2731 2306 2847 2691 
L 1869 2691 
L 1869 3128 
L 2975 3128 
Q 3097 3550 3203 3959 
L 2175 3959 
L 2175 4397 
L 3316 4397 
Q 3425 4831 3519 5253 
L 4056 5253 
Q 3959 4838 3847 4397 
L 6050 4397 
L 6050 3959 
L 3734 3959 
Q 3625 3553 3503 3128 
L 6300 3128 
L 6300 2691 
L 3378 2691 
Q 3266 2306 3144 1909 
L 5906 1909 
L 5906 1453 
L 4481 22 
Q 4869 -209 5238 -447 
L 4913 -872 
Q 3594 34 2413 684 
z
M 88 2241 
Q 963 3528 1469 5297 
L 1975 5147 
Q 1741 4422 1475 3791 
L 1475 -803 
L 981 -803 
L 981 2763 
Q 663 2175 306 1691 
Q 213 1959 88 2241 
z
" transform="scale(0.015625)"/>
      <path id="MicrosoftYaHei-64ad" d="M 6369 2259 
Q 6194 1991 6063 1784 
Q 4875 2272 4313 3091 
L 4288 3091 
L 4288 2047 
L 3838 2047 
L 3838 3091 
L 3819 3091 
Q 3338 2409 2463 1853 
L 5850 1853 
L 5850 -847 
L 5413 -847 
L 5413 -547 
L 2731 -547 
L 2731 -847 
L 2294 -847 
L 2294 1747 
Q 2150 1659 2000 1578 
Q 1856 1753 1669 1947 
Q 2669 2384 3331 3091 
L 1994 3091 
L 1994 3491 
L 3838 3491 
L 3838 4509 
Q 3044 4459 2213 4428 
Q 2181 4616 2125 4847 
Q 4419 4922 5875 5078 
L 5963 4653 
Q 5150 4584 4288 4534 
L 4288 3491 
L 6244 3491 
L 6244 3091 
L 4763 3091 
Q 5356 2522 6369 2259 
z
M 75 1941 
Q 481 2103 913 2278 
L 913 3634 
L 119 3634 
L 119 4084 
L 913 4084 
L 913 5228 
L 1375 5228 
L 1375 4084 
L 2025 4084 
L 2025 3634 
L 1375 3634 
L 1375 2472 
Q 1650 2591 1931 2716 
Q 1950 2447 1988 2247 
Q 1675 2103 1375 1966 
L 1375 -109 
Q 1375 -778 769 -784 
Q 556 -791 181 -778 
Q 156 -522 106 -259 
Q 488 -297 644 -297 
Q 913 -297 913 9 
L 913 1753 
Q 531 1578 169 1409 
L 75 1941 
z
M 4281 -159 
L 5413 -159 
L 5413 466 
L 4281 466 
L 4281 -159 
z
M 5413 1466 
L 4281 1466 
L 4281 841 
L 5413 841 
L 5413 1466 
z
M 2731 841 
L 3856 841 
L 3856 1466 
L 2731 1466 
L 2731 841 
z
M 2731 -159 
L 3856 -159 
L 3856 466 
L 2731 466 
L 2731 -159 
z
M 4681 3797 
Q 5088 4122 5463 4497 
L 5813 4203 
Q 5475 3897 4975 3497 
L 4681 3797 
z
M 2363 4128 
L 2663 4397 
Q 3006 4116 3356 3797 
L 3025 3497 
Q 2650 3878 2363 4128 
z
" transform="scale(0.015625)"/>
      <path id="MicrosoftYaHei-9014" d="M 2006 2447 
L 3713 2447 
L 3713 3091 
L 2700 3091 
L 2700 3453 
Q 2375 3203 2013 2997 
Q 1931 3128 1688 3384 
Q 3038 4134 3731 5241 
L 4363 5241 
L 4238 5072 
Q 5044 4022 6313 3509 
Q 6144 3316 5988 3091 
Q 4669 3716 3950 4722 
Q 3444 4041 2781 3522 
L 5200 3522 
L 5200 3091 
L 4181 3091 
L 4181 2447 
L 5888 2447 
L 5888 2016 
L 4181 2016 
L 4181 766 
Q 4181 116 3600 109 
Q 3269 103 2863 122 
Q 2825 409 2781 634 
Q 3144 572 3431 572 
Q 3713 572 3713 878 
L 3713 2016 
L 2006 2016 
L 2006 2447 
z
M 2706 -228 
Q 4363 -247 6300 -197 
Q 6231 -403 6125 -691 
Q 4206 -697 2644 -672 
Q 1519 -666 1081 66 
Q 825 -172 331 -772 
L 75 -253 
Q 625 278 875 509 
L 875 2616 
L 131 2616 
L 131 3078 
L 1356 3078 
L 1356 403 
Q 1744 -209 2706 -228 
z
M 1744 628 
Q 2244 1028 2731 1828 
L 3150 1591 
Q 2638 778 2106 297 
Q 1988 434 1744 628 
z
M 4606 1547 
L 4956 1816 
Q 5594 1128 5963 634 
L 5575 316 
Q 5106 966 4606 1547 
z
M 825 5172 
Q 1363 4497 1700 3997 
L 1263 3691 
Q 819 4403 431 4916 
L 825 5172 
z
" transform="scale(0.015625)"/>
      <path id="MicrosoftYaHei-5f84" d="M 2388 4466 
L 2388 4891 
L 5738 4891 
L 5738 4459 
Q 5216 3866 4619 3391 
Q 5559 2888 6338 2428 
L 6038 1972 
Q 5256 2494 4216 3091 
Q 3253 2422 2106 2041 
Q 2000 2247 1850 2459 
Q 3894 3153 5025 4466 
L 2388 4466 
z
M 1931 -66 
L 3881 -66 
L 3881 1403 
L 2288 1403 
L 2288 1828 
L 5950 1828 
L 5950 1403 
L 4344 1403 
L 4344 -66 
L 6300 -66 
L 6300 -491 
L 1931 -491 
L 1931 -66 
z
M 38 1572 
Q 975 2353 1750 3809 
L 2175 3541 
Q 1844 2953 1475 2444 
L 1475 -816 
L 994 -816 
L 994 1831 
Q 638 1419 250 1066 
Q 156 1328 38 1572 
z
M 106 3616 
Q 1038 4359 1638 5391 
L 2063 5116 
Q 1356 3997 344 3134 
Q 238 3359 106 3616 
z
" transform="scale(0.015625)"/>
     </defs>
     <use xlink:href="#MicrosoftYaHei-5916"/>
     <use xlink:href="#MicrosoftYaHei-6765" x="100"/>
     <use xlink:href="#MicrosoftYaHei-7269" x="200"/>
     <use xlink:href="#MicrosoftYaHei-79cd" x="300"/>
     <use xlink:href="#MicrosoftYaHei-4f20" x="400"/>
     <use xlink:href="#MicrosoftYaHei-64ad" x="500"/>
     <use xlink:href="#MicrosoftYaHei-9014" x="600"/>
     <use xlink:href="#MicrosoftYaHei-5f84" x="700"/>
    </g>
   </g>
   <g id="text_2">
    <!-- 压载水排放 -->
    <g style="fill: #0000ff" transform="translate(120.8 157.824) scale(0.1 -0.1)">
     <defs>
      <path id="MicrosoftYaHei-538b" d="M 1363 3 
L 3538 3 
L 3538 2216 
L 1819 2216 
L 1819 2684 
L 3538 2684 
L 3538 4078 
L 4063 4078 
L 4063 2684 
L 5994 2684 
L 5994 2216 
L 4063 2216 
L 4063 3 
L 6250 3 
L 6250 -459 
L 1363 -459 
L 1363 3 
z
M 1363 2772 
Q 1363 1378 1188 672 
Q 1006 -59 488 -803 
Q 338 -622 100 -384 
Q 563 303 694 884 
Q 838 1459 838 2653 
L 838 4866 
L 6219 4866 
L 6219 4391 
L 1363 4391 
L 1363 2772 
z
M 4588 1516 
L 4938 1803 
Q 5413 1316 5881 791 
L 5469 459 
Q 4875 1191 4588 1516 
z
" transform="scale(0.015625)"/>
      <path id="MicrosoftYaHei-8f7d" d="M 2881 -416 
Q 3622 91 4213 806 
Q 3894 1769 3806 3234 
L 125 3234 
L 125 3653 
L 1681 3653 
L 1681 4234 
L 381 4234 
L 381 4628 
L 1681 4628 
L 1681 5266 
L 2144 5266 
L 2144 4628 
L 3375 4628 
L 3375 4234 
L 2144 4234 
L 2144 3653 
L 3781 3653 
Q 3744 4397 3713 5297 
L 4194 5297 
Q 4197 4419 4241 3653 
L 6319 3653 
L 6319 3234 
L 4266 3234 
Q 4331 2081 4563 1269 
Q 5034 1941 5394 2766 
L 5825 2566 
Q 5344 1531 4744 738 
Q 4938 278 5200 -34 
Q 5363 -222 5500 -222 
Q 5669 -222 5725 28 
Q 5800 366 5869 878 
Q 6119 766 6319 709 
Q 6238 178 6138 -234 
Q 5981 -791 5581 -791 
Q 5125 -791 4713 -209 
Q 4544 22 4406 319 
Q 3869 -297 3250 -741 
Q 3063 -528 2881 -416 
z
M 1006 1472 
L 1863 1472 
L 1863 2047 
L 2306 2047 
L 2306 1472 
L 3488 1472 
L 3488 1078 
L 2306 1078 
L 2306 497 
Q 2878 544 3513 597 
Q 3494 397 3494 191 
Q 2931 153 2306 100 
L 2306 -816 
L 1863 -816 
L 1863 59 
Q 1128 -3 313 -91 
L 213 359 
Q 956 400 1863 466 
L 1863 1078 
L 488 1078 
L 488 1484 
Q 741 1813 984 2216 
L 275 2216 
L 275 2609 
L 1213 2609 
Q 1366 2888 1513 3197 
L 1975 3053 
Q 1847 2819 1725 2609 
L 3538 2609 
L 3538 2216 
L 1491 2216 
Q 1231 1791 1006 1472 
z
M 4613 4841 
L 4919 5147 
Q 5550 4672 5944 4303 
L 5588 3941 
Q 5163 4397 4613 4841 
z
" transform="scale(0.015625)"/>
      <path id="MicrosoftYaHei-6c34" d="M 2925 5297 
L 3431 5297 
L 3431 4294 
Q 3700 3563 4047 2934 
Q 4738 3509 5425 4309 
L 5844 3934 
Q 5113 3169 4300 2506 
Q 5125 1200 6319 384 
Q 6056 122 5894 -84 
Q 4250 1209 3431 3119 
L 3431 197 
Q 3431 -734 2538 -734 
Q 2263 -734 1725 -728 
Q 1694 -497 1625 -166 
Q 2125 -216 2438 -216 
Q 2925 -216 2925 253 
L 2925 5297 
z
M 256 3297 
L 256 3772 
L 2413 3772 
L 2413 3316 
Q 1881 1266 475 -197 
Q 263 47 94 184 
Q 1506 1672 1913 3297 
L 256 3297 
z
" transform="scale(0.015625)"/>
      <path id="MicrosoftYaHei-6392" d="M 4375 5309 
L 4863 5309 
L 4863 4159 
L 6188 4159 
L 6188 3684 
L 4863 3684 
L 4863 2609 
L 6038 2609 
L 6038 2134 
L 4863 2134 
L 4863 1047 
L 6294 1047 
L 6294 572 
L 4863 572 
L 4863 -841 
L 4375 -841 
L 4375 5309 
z
M 1844 1047 
L 3138 1047 
L 3138 2134 
L 2150 2134 
L 2150 2609 
L 3138 2609 
L 3138 3684 
L 2163 3684 
L 2163 4159 
L 3138 4159 
L 3138 5309 
L 3625 5309 
L 3625 -841 
L 3138 -841 
L 3138 572 
L 1844 572 
L 1844 1047 
z
M 131 4166 
L 875 4166 
L 875 5316 
L 1350 5316 
L 1350 4166 
L 1969 4166 
L 1969 3728 
L 1350 3728 
L 1350 2563 
Q 1650 2716 1938 2872 
Q 1956 2603 1988 2372 
Q 1681 2216 1350 2044 
L 1350 -134 
Q 1350 -772 669 -778 
Q 481 -784 156 -778 
Q 131 -528 75 -259 
Q 419 -284 613 -284 
Q 875 -284 875 3 
L 875 1797 
Q 525 1616 150 1416 
L 88 1966 
Q 491 2144 875 2328 
L 875 3728 
L 131 3728 
L 131 4166 
z
" transform="scale(0.015625)"/>
      <path id="MicrosoftYaHei-653e" d="M 3956 5359 
L 4456 5272 
Q 4322 4681 4106 4128 
L 6281 4128 
L 6281 3666 
L 5759 3666 
Q 5638 1816 4884 725 
Q 5447 25 6338 -353 
Q 6131 -628 5994 -847 
Q 5153 -394 4559 322 
Q 3947 -356 3094 -903 
Q 2950 -722 2738 -509 
Q 3669 56 4259 731 
Q 3713 1625 3563 2988 
Q 3378 2669 3163 2366 
Q 3031 2553 2850 2766 
Q 3663 3884 3956 5359 
z
M 156 4184 
L 3169 4184 
L 3169 3722 
L 1400 3722 
Q 1394 3166 1378 2703 
L 2813 2703 
Q 2750 1166 2694 241 
Q 2638 -584 1981 -616 
Q 1600 -622 1263 -609 
Q 1225 -378 1156 -84 
Q 1569 -128 1794 -128 
Q 2175 -128 2206 347 
Q 2269 1078 2306 2241 
L 1359 2241 
Q 1338 216 369 -853 
Q 225 -641 38 -416 
Q 625 247 750 1003 
Q 909 1713 906 3722 
L 156 3722 
L 156 4184 
z
M 5263 3666 
L 3934 3666 
Q 4034 2134 4584 1166 
Q 5188 2131 5263 3666 
z
M 1206 5141 
L 1631 5366 
Q 1900 4966 2144 4503 
L 1706 4272 
Q 1456 4753 1206 5141 
z
" transform="scale(0.015625)"/>
     </defs>
     <use xlink:href="#MicrosoftYaHei-538b"/>
     <use xlink:href="#MicrosoftYaHei-8f7d" x="100"/>
     <use xlink:href="#MicrosoftYaHei-6c34" x="200"/>
     <use xlink:href="#MicrosoftYaHei-6392" x="300"/>
     <use xlink:href="#MicrosoftYaHei-653e" x="400"/>
    </g>
   </g>
   <g id="text_3">
    <!-- 水产养殖活动 -->
    <g style="fill: #008000" transform="translate(115.8 202.176) scale(0.1 -0.1)">
     <defs>
      <path id="MicrosoftYaHei-4ea7" d="M 744 2809 
L 3700 2809 
Q 4122 3431 4456 4047 
L 4938 3741 
Q 4606 3275 4244 2809 
L 6094 2809 
L 6094 2372 
L 1250 2372 
L 1250 1934 
Q 1250 828 1081 284 
Q 906 -322 419 -853 
Q 256 -653 81 -428 
Q 450 -34 600 497 
Q 744 1016 744 1934 
L 744 2809 
z
M 231 4597 
L 3084 4597 
Q 2947 4853 2781 5122 
L 3244 5353 
Q 3447 5022 3659 4597 
L 6256 4597 
L 6256 4153 
L 231 4153 
L 231 4597 
z
M 1538 3797 
L 1950 4072 
Q 2338 3584 2638 3147 
L 2194 2841 
Q 1950 3253 1538 3797 
z
" transform="scale(0.015625)"/>
      <path id="MicrosoftYaHei-517b" d="M 3950 1347 
L 4431 1347 
Q 3994 1641 3669 2047 
L 2806 2047 
Q 2550 1684 1988 1341 
L 2400 1341 
Q 2400 397 2100 -28 
Q 1813 -466 869 -897 
Q 744 -697 556 -472 
Q 1456 -97 1669 222 
Q 1906 497 1913 1291 
Q 1319 947 413 622 
Q 288 841 106 1066 
Q 1588 1491 2169 2047 
L 238 2047 
L 238 2478 
L 2500 2478 
Q 2644 2722 2731 3059 
L 756 3059 
L 756 3491 
L 2813 3491 
Q 2844 3753 2850 4059 
L 531 4059 
L 531 4491 
L 2138 4491 
Q 1900 4784 1638 5047 
L 1963 5334 
Q 2300 5053 2600 4716 
L 2350 4491 
L 3700 4491 
Q 3981 4828 4356 5341 
L 4794 5066 
Q 4544 4772 4269 4491 
L 5869 4491 
L 5869 4059 
L 3338 4059 
Q 3325 3753 3294 3491 
L 5569 3491 
L 5569 3059 
L 3225 3059 
Q 3156 2728 3050 2478 
L 6163 2478 
L 6163 2047 
L 4275 2047 
Q 4994 1397 6300 1203 
Q 6150 947 6013 684 
Q 5094 897 4438 1341 
L 4438 -859 
L 3950 -859 
L 3950 1347 
z
" transform="scale(0.015625)"/>
      <path id="MicrosoftYaHei-6b96" d="M 2125 -166 
L 2713 -166 
L 2713 3678 
L 4031 3678 
L 4031 4234 
L 2481 4234 
L 2481 4659 
L 4031 4659 
L 4031 5272 
L 4488 5272 
L 4488 4659 
L 6150 4659 
L 6150 4234 
L 4488 4234 
L 4488 3678 
L 5806 3678 
L 5806 -166 
L 6319 -166 
L 6319 -591 
L 2125 -591 
L 2125 -166 
z
M 806 1853 
L 1056 2184 
Q 1319 1991 1619 1734 
Q 1813 2353 1875 3066 
L 1088 3066 
Q 844 2091 394 1272 
Q 281 1422 75 1672 
Q 725 2853 888 4378 
L 194 4378 
L 194 4803 
L 2381 4803 
L 2381 4378 
L 1325 4378 
Q 1275 3916 1188 3491 
L 2306 3491 
L 2306 3072 
Q 2081 572 556 -822 
Q 381 -622 206 -472 
Q 1038 272 1463 1297 
Q 1125 1597 806 1853 
z
M 3163 -166 
L 5356 -166 
L 5356 397 
L 3163 397 
L 3163 -166 
z
M 3163 803 
L 5356 803 
L 5356 1353 
L 3163 1353 
L 3163 803 
z
M 3163 1759 
L 5356 1759 
L 5356 2309 
L 3163 2309 
L 3163 1759 
z
M 5356 3259 
L 3163 3259 
L 3163 2709 
L 5356 2709 
L 5356 3259 
z
" transform="scale(0.015625)"/>
      <path id="MicrosoftYaHei-6d3b" d="M 2219 1841 
L 3769 1841 
L 3769 2891 
L 1800 2891 
L 1800 3366 
L 3769 3366 
L 3769 4413 
Q 3003 4375 2100 4341 
Q 2056 4566 2006 4816 
Q 4156 4872 6013 5072 
L 6113 4578 
Q 5356 4503 4275 4441 
L 4275 3366 
L 6313 3366 
L 6313 2891 
L 4275 2891 
L 4275 1841 
L 5825 1841 
L 5825 -847 
L 5338 -847 
L 5338 -472 
L 2706 -472 
L 2706 -847 
L 2219 -847 
L 2219 1841 
z
M 5338 1391 
L 2706 1391 
L 2706 -22 
L 5338 -22 
L 5338 1391 
z
M 1019 1766 
Q 1338 1597 1550 1516 
Q 1181 341 831 -772 
L 275 -516 
Q 706 522 1019 1766 
z
M 344 3616 
Q 988 3228 1538 2816 
Q 1350 2566 1194 2366 
Q 500 2922 44 3216 
L 344 3616 
z
M 644 5241 
Q 1244 4828 1769 4403 
Q 1600 4191 1425 3978 
Q 844 4484 331 4872 
L 644 5241 
z
" transform="scale(0.015625)"/>
      <path id="MicrosoftYaHei-52a8" d="M 2975 4022 
L 3906 4022 
Q 3916 4650 3913 5309 
L 4425 5309 
Q 4422 4656 4409 4022 
L 6094 4022 
Q 6050 1659 5969 216 
Q 5900 -666 5150 -678 
Q 4763 -678 4306 -659 
Q 4263 -397 4206 -109 
Q 4638 -166 4994 -172 
Q 5456 -172 5475 347 
Q 5569 1897 5588 3547 
L 4400 3547 
Q 4394 3278 4388 3016 
Q 4356 553 2900 -872 
Q 2725 -659 2525 -447 
Q 3831 716 3888 3028 
Q 3894 3284 3900 3547 
L 2975 3547 
L 2975 4022 
z
M 2338 1866 
Q 2731 1016 3063 178 
Q 2788 59 2594 -28 
Q 2550 91 2506 209 
Q 1316 97 338 -16 
L 119 491 
Q 394 647 563 997 
Q 869 1613 1200 2559 
L 144 2559 
L 144 3022 
L 3163 3022 
L 3163 2559 
L 1725 2559 
Q 1191 1228 800 491 
Q 1519 544 2347 631 
Q 2138 1163 1906 1672 
L 2338 1866 
z
M 406 4778 
L 2913 4778 
L 2913 4316 
L 406 4316 
L 406 4778 
z
" transform="scale(0.015625)"/>
     </defs>
     <use xlink:href="#MicrosoftYaHei-6c34"/>
     <use xlink:href="#MicrosoftYaHei-4ea7" x="100"/>
     <use xlink:href="#MicrosoftYaHei-517b" x="200"/>
     <use xlink:href="#MicrosoftYaHei-6b96" x="300"/>
     <use xlink:href="#MicrosoftYaHei-6d3b" x="400"/>
     <use xlink:href="#MicrosoftYaHei-52a8" x="500"/>
    </g>
   </g>
   <g id="text_4">
    <g id="patch_11">
     <path d="M 309 120.055125 
L 429 120.055125 
Q 432.6 120.055125 432.6 116.455125 
L 432.6 103.8795 
Q 432.6 100.2795 429 100.2795 
L 309 100.2795 
Q 305.4 100.2795 305.4 103.8795 
L 305.4 116.455125 
Q 305.4 120.055125 309 120.055125 
z
" style="fill: #90ee90; stroke: #000000; stroke-linejoin: miter"/>
    </g>
    <!-- 赤潮与外来物种的互动 -->
    <g transform="translate(309 113.472) scale(0.12 -0.12)">
     <defs>
      <path id="MicrosoftYaHei-8d64" d="M 225 2966 
L 2963 2966 
L 2963 4034 
L 725 4034 
L 725 4503 
L 2963 4503 
L 2963 5316 
L 3481 5316 
L 3481 4503 
L 5725 4503 
L 5725 4034 
L 3481 4034 
L 3481 2966 
L 6213 2966 
L 6213 2497 
L 4450 2497 
L 4450 72 
Q 4450 -722 3719 -728 
Q 3350 -734 2894 -722 
Q 2856 -441 2800 -166 
Q 3244 -216 3563 -216 
Q 3938 -216 3938 209 
L 3938 2497 
L 2603 2497 
Q 2581 1131 2281 453 
Q 1975 -303 1056 -872 
Q 869 -641 650 -459 
Q 1544 22 1806 666 
Q 2078 1225 2094 2497 
L 225 2497 
L 225 2966 
z
M 4663 1753 
L 5063 2009 
Q 5675 1259 6231 434 
L 5769 134 
Q 5281 941 4663 1753 
z
M 1063 2066 
L 1506 1834 
Q 1038 941 488 141 
Q 306 284 75 441 
Q 619 1184 1063 2066 
z
" transform="scale(0.015625)"/>
      <path id="MicrosoftYaHei-6f6e" d="M 4231 4947 
L 6013 4947 
L 6013 -97 
Q 6013 -753 5444 -753 
Q 5113 -753 4844 -747 
Q 4819 -534 4769 -297 
Q 5119 -328 5313 -328 
Q 5575 -328 5575 -53 
L 5575 1384 
L 4644 1384 
Q 4519 -34 3844 -878 
Q 3656 -691 3481 -559 
Q 3913 34 4075 622 
Q 4231 1184 4231 2097 
L 4231 4947 
z
M 1300 709 
L 2425 709 
L 2425 1322 
L 1981 1322 
L 1981 1203 
L 1556 1203 
L 1556 3641 
L 2431 3641 
L 2431 4216 
L 1413 4216 
L 1413 4603 
L 2431 4603 
L 2431 5303 
L 2869 5303 
L 2869 4603 
L 3900 4603 
L 3900 4216 
L 2869 4216 
L 2869 3641 
L 3744 3641 
L 3744 1203 
L 3319 1203 
L 3319 1322 
L 2863 1322 
L 2863 709 
L 3875 709 
L 3875 322 
L 2863 322 
L 2863 -828 
L 2425 -828 
L 2425 322 
L 1300 322 
L 1300 709 
z
M 756 1834 
Q 1000 1728 1231 1647 
Q 1000 622 731 -816 
L 219 -666 
Q 488 416 756 1834 
z
M 4663 1772 
L 5575 1772 
L 5575 2966 
L 4669 2966 
Q 4669 2022 4663 1772 
z
M 5575 4541 
L 4669 4541 
L 4669 3353 
L 5575 3353 
L 5575 4541 
z
M 1981 1709 
L 3319 1709 
L 3319 2297 
L 1981 2297 
L 1981 1709 
z
M 3319 3253 
L 1981 3253 
L 1981 2672 
L 3319 2672 
L 3319 3253 
z
M 394 3616 
Q 844 3209 1250 2791 
Q 1019 2572 875 2441 
Q 494 2891 75 3309 
L 394 3616 
z
M 569 5203 
Q 938 4859 1363 4384 
Q 1156 4203 975 4053 
Q 619 4516 231 4909 
L 569 5203 
z
" transform="scale(0.015625)"/>
      <path id="MicrosoftYaHei-4e0e" d="M 1163 2384 
L 1163 2859 
L 1413 5328 
L 1931 5328 
L 1834 4334 
L 6269 4334 
L 6269 3859 
L 1791 3859 
L 1694 2859 
L 5813 2859 
Q 5738 1547 5644 416 
Q 5556 -247 5263 -478 
Q 4981 -703 4322 -703 
Q 3706 -697 2900 -678 
Q 2863 -466 2794 -134 
Q 3744 -203 4213 -209 
Q 5050 -266 5125 447 
Q 5206 1278 5263 2384 
L 1163 2384 
z
M 106 1409 
L 4738 1409 
L 4738 934 
L 106 934 
L 106 1409 
z
" transform="scale(0.015625)"/>
      <path id="MicrosoftYaHei-7684" d="M 356 4284 
L 988 4284 
Q 1219 4853 1369 5322 
L 1894 5172 
Q 1697 4694 1513 4284 
L 2763 4284 
L 2763 -691 
L 2263 -691 
L 2263 -203 
L 856 -203 
L 856 -734 
L 356 -734 
L 356 4284 
z
M 2856 3003 
Q 3444 3934 3850 5322 
L 4375 5191 
Q 4216 4719 4050 4303 
L 6063 4303 
Q 5988 1091 5938 259 
Q 5894 -722 4906 -722 
Q 4338 -722 3750 -684 
Q 3713 -372 3650 -128 
L 3669 -128 
Q 4294 -216 4813 -216 
Q 5381 -216 5425 384 
Q 5494 1316 5525 3834 
L 3850 3834 
Q 3578 3231 3288 2772 
Q 3119 2891 2856 3003 
z
M 856 266 
L 2263 266 
L 2263 1847 
L 856 1847 
L 856 266 
z
M 2263 3816 
L 856 3816 
L 856 2297 
L 2263 2297 
L 2263 3816 
z
M 3406 2578 
L 3788 2859 
Q 4481 2041 4894 1441 
L 4431 1116 
Q 3988 1841 3406 2578 
z
" transform="scale(0.015625)"/>
      <path id="MicrosoftYaHei-4e92" d="M 238 72 
L 4472 72 
L 4550 1147 
L 1025 1147 
L 1025 1591 
L 1419 4341 
L 463 4341 
L 463 4791 
L 5950 4791 
L 5950 4341 
L 1944 4341 
L 1809 3422 
L 5238 3422 
L 4997 72 
L 6188 72 
L 6188 -366 
L 238 -366 
L 238 72 
z
M 4681 2972 
L 1747 2972 
L 1550 1597 
L 4581 1597 
L 4681 2972 
z
" transform="scale(0.015625)"/>
     </defs>
     <use xlink:href="#MicrosoftYaHei-8d64"/>
     <use xlink:href="#MicrosoftYaHei-6f6e" x="100"/>
     <use xlink:href="#MicrosoftYaHei-4e0e" x="200"/>
     <use xlink:href="#MicrosoftYaHei-5916" x="300"/>
     <use xlink:href="#MicrosoftYaHei-6765" x="400"/>
     <use xlink:href="#MicrosoftYaHei-7269" x="500"/>
     <use xlink:href="#MicrosoftYaHei-79cd" x="600"/>
     <use xlink:href="#MicrosoftYaHei-7684" x="700"/>
     <use xlink:href="#MicrosoftYaHei-4e92" x="800"/>
     <use xlink:href="#MicrosoftYaHei-52a8" x="900"/>
    </g>
   </g>
   <g id="text_5">
    <!-- 促进赤潮发生 -->
    <g style="fill: #ff0000" transform="translate(339 157.824) scale(0.1 -0.1)">
     <defs>
      <path id="MicrosoftYaHei-4fc3" d="M 1494 -403 
Q 2331 503 2431 2122 
L 2906 2047 
Q 2863 1478 2747 991 
Q 3122 209 3850 0 
L 3850 2791 
L 2788 2791 
L 2788 2497 
L 2313 2497 
L 2313 4947 
L 5750 4947 
L 5750 2541 
L 5275 2541 
L 5275 2791 
L 4319 2791 
L 4319 1716 
L 6038 1716 
L 6038 1278 
L 4319 1278 
L 4319 -75 
Q 5181 -116 6319 -47 
Q 6175 -347 6113 -553 
Q 5156 -566 4288 -541 
Q 3172 -544 2575 425 
Q 2303 -303 1825 -803 
Q 1706 -634 1494 -403 
z
M 81 2278 
Q 944 3572 1400 5309 
L 1875 5172 
Q 1613 4334 1306 3619 
L 1306 -816 
L 838 -816 
L 838 2653 
Q 572 2169 281 1759 
Q 200 2028 81 2278 
z
M 5275 4516 
L 2788 4516 
L 2788 3222 
L 5275 3222 
L 5275 4516 
z
" transform="scale(0.015625)"/>
      <path id="MicrosoftYaHei-8fdb" d="M 1756 2416 
L 2828 2416 
Q 2838 2903 2838 3741 
L 2050 3741 
L 2050 4191 
L 2838 4191 
L 2838 5291 
L 3338 5291 
L 3338 4191 
L 4575 4191 
L 4575 5291 
L 5075 5291 
L 5075 4191 
L 6000 4191 
L 6000 3741 
L 5075 3741 
L 5075 2416 
L 6244 2416 
L 6244 1966 
L 5075 1966 
L 5075 66 
L 4575 66 
L 4575 1966 
L 3291 1966 
Q 3106 691 2213 66 
Q 2050 247 1831 447 
Q 2597 931 2778 1966 
L 1756 1966 
L 1756 2416 
z
M 2606 -191 
L 4088 -222 
L 6300 -166 
Q 6231 -372 6125 -659 
L 4050 -666 
L 2544 -634 
Q 1513 -616 1081 91 
Q 825 -147 331 -747 
L 75 -228 
Q 628 306 875 538 
L 875 2641 
L 131 2641 
L 131 3103 
L 1356 3103 
L 1356 438 
Q 1744 -175 2606 -191 
z
M 3331 2416 
L 4575 2416 
L 4575 3741 
L 3338 3741 
Q 3338 2666 3331 2416 
z
M 813 5216 
Q 1288 4622 1688 4034 
Q 1425 3866 1225 3722 
Q 881 4322 413 4947 
L 813 5216 
z
" transform="scale(0.015625)"/>
      <path id="MicrosoftYaHei-53d1" d="M 944 3909 
L 2266 3909 
Q 2419 4563 2525 5334 
L 3056 5266 
Q 2950 4556 2797 3909 
L 6250 3909 
L 6250 3447 
L 2678 3447 
Q 2566 3034 2431 2653 
L 5531 2653 
L 5531 2222 
Q 5119 1200 4247 456 
Q 5125 -75 6294 -291 
Q 6013 -603 5856 -816 
Q 4856 -484 3844 153 
Q 3031 -381 1519 -859 
Q 1344 -609 1144 -397 
Q 2681 3 3441 450 
Q 2619 1153 2269 2222 
Q 1584 509 406 -591 
Q 238 -353 75 -166 
Q 1484 1106 2147 3447 
L 413 3447 
L 413 3916 
Q 669 4509 881 5109 
L 1388 4972 
Q 1169 4422 944 3909 
z
M 4981 2222 
L 2722 2222 
Q 3003 1356 3838 731 
Q 4647 1400 4981 2222 
z
M 4019 4903 
L 4294 5253 
Q 4906 4866 5469 4447 
L 5131 4041 
Q 4588 4503 4019 4903 
z
" transform="scale(0.015625)"/>
      <path id="MicrosoftYaHei-751f" d="M 125 16 
L 3025 16 
L 3025 1609 
L 813 1609 
L 813 2091 
L 3025 2091 
L 3025 3534 
L 1375 3534 
Q 959 2784 419 2178 
Q 288 2384 81 2616 
Q 963 3603 1475 5028 
L 1988 4891 
Q 1822 4434 1622 4016 
L 3025 4016 
L 3025 5341 
L 3563 5341 
L 3563 4016 
L 5950 4016 
L 5950 3534 
L 3563 3534 
L 3563 2091 
L 5775 2091 
L 5775 1609 
L 3563 1609 
L 3563 16 
L 6288 16 
L 6288 -453 
L 125 -453 
L 125 16 
z
" transform="scale(0.015625)"/>
     </defs>
     <use xlink:href="#MicrosoftYaHei-4fc3"/>
     <use xlink:href="#MicrosoftYaHei-8fdb" x="100"/>
     <use xlink:href="#MicrosoftYaHei-8d64" x="200"/>
     <use xlink:href="#MicrosoftYaHei-6f6e" x="300"/>
     <use xlink:href="#MicrosoftYaHei-53d1" x="400"/>
     <use xlink:href="#MicrosoftYaHei-751f" x="500"/>
    </g>
   </g>
   <g id="text_6">
    <!-- 抑制赤潮发生 -->
    <g style="fill: #ffa500" transform="translate(339 202.176) scale(0.1 -0.1)">
     <defs>
      <path id="MicrosoftYaHei-6291" d="M 3913 4622 
L 5988 4622 
L 5988 959 
Q 5988 234 5369 197 
Q 5038 178 4569 184 
Q 4544 453 4488 703 
Q 4888 659 5175 659 
Q 5525 659 5525 1103 
L 5525 4184 
L 4375 4184 
L 4375 -828 
L 3913 -828 
L 3913 4622 
z
M 94 2053 
Q 459 2159 919 2319 
L 919 3697 
L 150 3697 
L 150 4122 
L 919 4122 
L 919 5278 
L 1381 5278 
L 1381 4122 
L 2000 4122 
L 2000 3697 
L 1381 3697 
L 1381 2481 
Q 1663 2584 1975 2703 
Q 1988 2397 1994 2209 
Q 1694 2106 1381 1994 
L 1381 -41 
Q 1381 -672 894 -703 
Q 631 -722 250 -716 
Q 219 -472 169 -203 
Q 463 -241 663 -241 
Q 919 -241 919 28 
L 919 1825 
Q 547 1684 156 1534 
L 94 2053 
z
M 3694 1141 
Q 3700 891 3719 653 
Q 3138 384 2650 116 
Q 2500 22 2344 -109 
L 2050 297 
Q 2238 478 2238 797 
L 2238 4797 
Q 3063 4941 3825 5197 
L 4094 4791 
Q 3288 4553 2700 4428 
L 2700 678 
Q 3256 928 3694 1141 
z
" transform="scale(0.015625)"/>
      <path id="MicrosoftYaHei-5236" d="M 1906 5266 
L 2394 5266 
L 2394 4309 
L 3750 4309 
L 3750 3872 
L 2394 3872 
L 2394 3034 
L 4025 3034 
L 4025 2597 
L 2394 2597 
L 2394 1897 
L 3763 1897 
L 3763 409 
Q 3763 -266 3150 -272 
Q 2956 -278 2631 -272 
Q 2600 -72 2538 178 
Q 2844 159 3038 159 
Q 3300 159 3300 472 
L 3300 1472 
L 2394 1472 
L 2394 -847 
L 1906 -847 
L 1906 1472 
L 1044 1472 
L 1044 -378 
L 581 -378 
L 581 1897 
L 1906 1897 
L 1906 2597 
L 113 2597 
L 113 3034 
L 1906 3034 
L 1906 3872 
L 981 3872 
Q 822 3513 619 3191 
Q 413 3309 194 3428 
Q 688 4172 881 5041 
L 1344 4922 
Q 1263 4603 1159 4309 
L 1906 4309 
L 1906 5266 
z
M 5469 5272 
L 5969 5272 
L 5969 122 
Q 5969 -722 5225 -722 
Q 4981 -722 4388 -716 
Q 4350 -472 4288 -172 
Q 4813 -222 5075 -222 
Q 5469 -222 5469 222 
L 5469 5272 
z
M 4750 822 
L 4269 822 
L 4269 4672 
L 4750 4672 
L 4750 822 
z
" transform="scale(0.015625)"/>
     </defs>
     <use xlink:href="#MicrosoftYaHei-6291"/>
     <use xlink:href="#MicrosoftYaHei-5236" x="100"/>
     <use xlink:href="#MicrosoftYaHei-8d64" x="200"/>
     <use xlink:href="#MicrosoftYaHei-6f6e" x="300"/>
     <use xlink:href="#MicrosoftYaHei-53d1" x="400"/>
     <use xlink:href="#MicrosoftYaHei-751f" x="500"/>
    </g>
   </g>
   <g id="text_7">
    <g id="patch_12">
     <path d="M 327 297.463125 
L 411 297.463125 
Q 414.6 297.463125 414.6 293.863125 
L 414.6 281.2875 
Q 414.6 277.6875 411 277.6875 
L 327 277.6875 
Q 323.4 277.6875 323.4 281.2875 
L 323.4 293.863125 
Q 323.4 297.463125 327 297.463125 
z
" style="fill: #ffffe0; stroke: #000000; stroke-linejoin: miter"/>
    </g>
    <!-- 物质与能量流动 -->
    <g transform="translate(327 290.88) scale(0.12 -0.12)">
     <defs>
      <path id="MicrosoftYaHei-8d28" d="M 1838 2628 
L 3500 2628 
L 3500 3353 
L 1450 3353 
L 1450 3791 
L 3500 3791 
L 3500 4472 
L 4000 4472 
L 4000 3791 
L 6125 3791 
L 6125 3353 
L 4000 3353 
L 4000 2628 
L 5681 2628 
L 5681 428 
L 5194 428 
L 5194 2191 
L 2325 2191 
L 2325 428 
L 1838 428 
L 1838 2628 
z
M 713 4934 
Q 3744 4947 5988 5197 
L 6163 4709 
Q 3813 4541 1213 4497 
L 1213 2578 
Q 1213 178 406 -872 
Q 219 -653 31 -466 
Q 713 372 713 2534 
L 713 4934 
z
M 4000 1866 
Q 4013 1053 3919 691 
Q 5063 191 6263 -403 
L 5994 -866 
Q 4794 -203 3763 272 
Q 3275 -559 1344 -884 
Q 1238 -684 1075 -428 
Q 3019 -128 3350 534 
Q 3525 822 3513 1866 
L 4000 1866 
z
" transform="scale(0.015625)"/>
      <path id="MicrosoftYaHei-80fd" d="M 950 -759 
L 463 -759 
L 463 2928 
L 3000 2928 
L 3000 -28 
Q 3000 -703 2375 -703 
Q 2100 -709 1669 -709 
Q 1638 -516 1575 -234 
Q 1969 -266 2206 -266 
Q 2513 -266 2513 53 
L 2513 572 
L 950 572 
L 950 -759 
z
M 3606 2253 
L 4094 2253 
L 4094 1222 
Q 4981 1553 5950 2091 
L 6231 1659 
Q 5209 1122 4094 706 
L 4094 166 
Q 4094 -228 4400 -228 
L 5319 -228 
Q 5638 -228 5688 78 
Q 5731 353 5763 897 
Q 6000 803 6250 722 
Q 6200 172 6144 -109 
Q 6063 -659 5363 -659 
L 4319 -659 
Q 3606 -659 3606 72 
L 3606 2253 
z
M 3619 5303 
L 4106 5303 
L 4106 4231 
Q 4966 4572 5813 5053 
L 6094 4622 
Q 5119 4128 4106 3719 
L 4106 3359 
Q 4106 2941 4438 2941 
L 5231 2941 
Q 5625 2941 5675 3266 
Q 5719 3534 5750 4047 
Q 5988 3953 6238 3866 
Q 6188 3366 6131 3053 
Q 6038 2509 5288 2509 
L 4375 2509 
Q 3619 2509 3619 3259 
L 3619 5303 
z
M 2463 4772 
Q 3031 4034 3450 3353 
Q 3213 3191 3019 3066 
Q 2897 3281 2759 3506 
Q 1231 3394 313 3303 
L 113 3828 
Q 388 3978 719 4391 
Q 1063 4841 1394 5397 
L 1888 5216 
Q 1369 4466 794 3797 
Q 1731 3856 2497 3919 
Q 2300 4216 2075 4528 
L 2463 4772 
z
M 950 947 
L 2513 947 
L 2513 1553 
L 950 1553 
L 950 947 
z
M 2513 2528 
L 950 2528 
L 950 1928 
L 2513 1928 
L 2513 2528 
z
" transform="scale(0.015625)"/>
      <path id="MicrosoftYaHei-91cf" d="M 113 -278 
L 2981 -278 
L 2981 78 
L 475 78 
L 475 403 
L 2981 403 
L 2981 759 
L 1494 759 
L 1494 597 
L 1069 597 
L 1069 2516 
L 5350 2516 
L 5350 597 
L 4925 597 
L 4925 759 
L 3419 759 
L 3419 403 
L 5931 403 
L 5931 78 
L 3419 78 
L 3419 -278 
L 6288 -278 
L 6288 -616 
L 113 -616 
L 113 -278 
z
M 1119 5072 
L 5306 5072 
L 5306 3284 
L 4881 3284 
L 4881 3453 
L 1544 3453 
L 1544 3284 
L 1119 3284 
L 1119 5072 
z
M 163 3153 
L 6263 3153 
L 6263 2816 
L 163 2816 
L 163 3153 
z
M 1544 3778 
L 4881 3778 
L 4881 4116 
L 1544 4116 
L 1544 3778 
z
M 4881 4747 
L 1544 4747 
L 1544 4416 
L 4881 4416 
L 4881 4747 
z
M 3419 1084 
L 4925 1084 
L 4925 1491 
L 3419 1491 
L 3419 1084 
z
M 1494 1084 
L 2981 1084 
L 2981 1491 
L 1494 1491 
L 1494 1084 
z
M 4925 2191 
L 3419 2191 
L 3419 1791 
L 4925 1791 
L 4925 2191 
z
M 1494 1791 
L 2981 1791 
L 2981 2191 
L 1494 2191 
L 1494 1791 
z
" transform="scale(0.015625)"/>
      <path id="MicrosoftYaHei-6d41" d="M 5013 3741 
Q 5500 3178 6094 2372 
Q 5863 2228 5644 2078 
Q 5488 2306 5341 2516 
Q 3806 2447 2519 2378 
Q 2319 2372 2019 2303 
L 1806 2772 
Q 2038 2891 2244 3059 
Q 2728 3472 3206 4078 
L 1819 4078 
L 1819 4522 
L 3803 4522 
Q 3566 4891 3350 5166 
L 3763 5422 
Q 3994 5128 4288 4734 
L 3963 4522 
L 6088 4522 
L 6088 4078 
L 3325 4078 
L 3738 3903 
Q 3156 3278 2650 2853 
Q 3659 2884 5041 2934 
Q 4822 3228 4625 3478 
L 5013 3741 
z
M 4681 2109 
L 5150 2109 
L 5150 16 
Q 5150 -272 5375 -272 
L 5594 -272 
Q 5788 -272 5838 47 
Q 5881 384 5894 834 
Q 6113 734 6363 653 
Q 6319 128 6269 -153 
Q 6194 -709 5675 -709 
L 5288 -709 
Q 4681 -709 4681 22 
L 4681 2109 
z
M 2306 2084 
L 2781 2084 
Q 2781 716 2525 166 
Q 2269 -441 1488 -866 
Q 1344 -634 1169 -453 
Q 1881 -78 2075 409 
Q 2306 884 2306 2084 
z
M 275 -616 
Q 650 484 925 1809 
Q 1200 1691 1431 1616 
Q 1150 534 825 -784 
L 275 -616 
z
M 3538 2084 
L 4006 2084 
L 4006 -703 
L 3538 -703 
L 3538 2084 
z
M 81 3247 
L 394 3609 
Q 900 3259 1456 2803 
Q 1231 2541 1094 2397 
Q 444 2978 81 3247 
z
M 325 4878 
L 644 5209 
Q 1100 4847 1663 4347 
L 1294 3978 
Q 775 4503 325 4878 
z
" transform="scale(0.015625)"/>
     </defs>
     <use xlink:href="#MicrosoftYaHei-7269"/>
     <use xlink:href="#MicrosoftYaHei-8d28" x="100"/>
     <use xlink:href="#MicrosoftYaHei-4e0e" x="200"/>
     <use xlink:href="#MicrosoftYaHei-80fd" x="300"/>
     <use xlink:href="#MicrosoftYaHei-91cf" x="400"/>
     <use xlink:href="#MicrosoftYaHei-6d41" x="500"/>
     <use xlink:href="#MicrosoftYaHei-52a8" x="600"/>
    </g>
   </g>
   <g id="text_8">
    <!-- 加速能量流动 -->
    <g style="fill: #800080" transform="translate(339 335.232) scale(0.1 -0.1)">
     <defs>
      <path id="MicrosoftYaHei-52a0" d="M 3663 4484 
L 6038 4484 
L 6038 -666 
L 5544 -666 
L 5544 -34 
L 4156 -34 
L 4156 -666 
L 3663 -666 
L 3663 4484 
z
M 231 4178 
L 1103 4178 
Q 1109 4681 1106 5297 
L 1600 5297 
Q 1600 4675 1594 4178 
L 3050 4178 
Q 3019 1778 2969 409 
Q 2944 -716 2119 -672 
Q 1875 -672 1400 -653 
Q 1356 -391 1300 -109 
Q 1738 -166 2013 -166 
Q 2431 -178 2469 428 
Q 2538 1909 2550 3703 
L 1588 3703 
Q 1581 3225 1569 2891 
Q 1544 447 394 -872 
Q 238 -678 25 -453 
Q 1063 684 1081 2941 
Q 1094 3269 1100 3703 
L 231 3703 
L 231 4178 
z
M 5544 4022 
L 4156 4022 
L 4156 416 
L 5544 416 
L 5544 4022 
z
" transform="scale(0.015625)"/>
      <path id="MicrosoftYaHei-901f" d="M 2231 3572 
L 3800 3572 
L 3800 4178 
L 1938 4178 
L 1938 4609 
L 3800 4609 
L 3800 5291 
L 4263 5291 
L 4263 4609 
L 6225 4609 
L 6225 4178 
L 4263 4178 
L 4263 3572 
L 5831 3572 
L 5831 1778 
L 5381 1778 
L 5381 1972 
L 4263 1972 
L 4263 1522 
L 4425 1772 
Q 5350 1266 6206 766 
L 5919 322 
Q 5044 916 4263 1347 
L 4263 -9 
L 3800 -9 
L 3800 1603 
Q 3044 766 2069 184 
Q 1963 347 1731 591 
Q 2869 1153 3644 1972 
L 2681 1972 
L 2681 1778 
L 2231 1778 
L 2231 3572 
z
M 2663 -222 
Q 4219 -247 6300 -197 
Q 6231 -403 6125 -691 
Q 4056 -703 2569 -666 
Q 1506 -653 1081 66 
Q 825 -172 331 -772 
L 75 -253 
Q 625 278 875 509 
L 875 2616 
L 131 2616 
L 131 3078 
L 1356 3078 
L 1356 403 
Q 1738 -216 2663 -222 
z
M 5381 3166 
L 4263 3166 
L 4263 2378 
L 5381 2378 
L 5381 3166 
z
M 2681 2378 
L 3800 2378 
L 3800 3166 
L 2681 3166 
L 2681 2378 
z
M 800 5178 
Q 1119 4791 1675 3997 
L 1231 3684 
Q 725 4478 400 4909 
L 800 5178 
z
" transform="scale(0.015625)"/>
     </defs>
     <use xlink:href="#MicrosoftYaHei-52a0"/>
     <use xlink:href="#MicrosoftYaHei-901f" x="100"/>
     <use xlink:href="#MicrosoftYaHei-80fd" x="200"/>
     <use xlink:href="#MicrosoftYaHei-91cf" x="300"/>
     <use xlink:href="#MicrosoftYaHei-6d41" x="400"/>
     <use xlink:href="#MicrosoftYaHei-52a8" x="500"/>
    </g>
   </g>
   <g id="text_9">
    <!-- 改变物质循环 -->
    <g style="fill: #a52a2a" transform="translate(339 379.584) scale(0.1 -0.1)">
     <defs>
      <path id="MicrosoftYaHei-6539" d="M 2513 2709 
Q 3106 3791 3575 5341 
L 4069 5197 
Q 3894 4694 3709 4234 
L 6238 4234 
L 6238 3772 
L 5506 3772 
Q 5338 1747 4597 772 
Q 5203 125 6331 -259 
Q 6150 -434 5938 -747 
Q 4863 -234 4272 391 
Q 3634 -259 2363 -847 
Q 2213 -628 1994 -403 
Q 3303 144 3941 791 
Q 3363 1594 3147 2944 
Q 2988 2616 2825 2316 
Q 2669 2541 2513 2709 
z
M 450 2809 
L 2013 2809 
L 2013 4372 
L 331 4372 
L 331 4809 
L 2500 4809 
L 2500 2034 
L 2013 2034 
L 2013 2372 
L 938 2372 
L 938 303 
Q 1700 666 2500 1116 
Q 2544 816 2600 609 
Q 1788 203 931 -278 
Q 700 -441 569 -572 
L 231 -141 
Q 450 59 450 422 
L 450 2809 
z
M 3463 3634 
Q 3681 2050 4269 1184 
Q 4853 2038 5016 3772 
L 3522 3772 
L 3463 3634 
z
" transform="scale(0.015625)"/>
      <path id="MicrosoftYaHei-53d8" d="M 838 1634 
L 838 2066 
L 5088 2066 
L 5088 1634 
Q 4494 853 3659 309 
Q 4675 -178 6313 -297 
Q 6088 -609 5950 -822 
Q 4275 -594 3178 34 
Q 2122 -509 425 -866 
Q 269 -622 106 -403 
Q 1741 -122 2728 328 
Q 2047 838 1553 1634 
L 838 1634 
z
M 231 4534 
L 3081 4534 
Q 2888 4884 2725 5141 
L 3175 5359 
Q 3481 4884 3600 4659 
L 3359 4534 
L 6200 4534 
L 6200 4091 
L 4181 4091 
L 4181 2353 
L 3700 2353 
L 3700 4091 
L 2694 4091 
L 2694 2341 
L 2213 2341 
L 2213 4091 
L 231 4091 
L 231 4534 
z
M 4475 1634 
L 2116 1634 
Q 2575 953 3197 572 
Q 3947 1016 4475 1634 
z
M 4556 3434 
L 4900 3728 
Q 5700 3009 6213 2459 
L 5825 2116 
Q 5219 2797 4556 3434 
z
M 1381 3741 
L 1756 3422 
Q 1119 2691 500 2097 
Q 344 2272 138 2447 
Q 794 3009 1381 3741 
z
" transform="scale(0.015625)"/>
      <path id="MicrosoftYaHei-5faa" d="M 4163 4422 
L 4613 4422 
L 4613 3784 
L 6231 3784 
L 6231 3359 
L 4613 3359 
L 4613 2759 
L 5825 2759 
L 5825 -803 
L 5375 -803 
L 5375 -428 
L 3394 -428 
L 3394 -803 
L 2944 -803 
L 2944 2759 
L 4163 2759 
L 4163 3359 
L 2544 3359 
L 2544 2491 
Q 2550 266 1888 -828 
Q 1700 -628 1463 -466 
Q 2088 378 2088 2441 
L 2088 4828 
Q 4056 4916 5913 5116 
L 5994 4659 
Q 4644 4541 2544 4422 
L 2544 3784 
L 4163 3784 
L 4163 4422 
z
M 81 1647 
Q 806 2391 1419 3559 
L 1825 3334 
Q 1575 2881 1325 2494 
L 1325 -834 
L 869 -834 
L 869 1838 
Q 575 1450 281 1147 
Q 206 1378 81 1647 
z
M 100 3572 
Q 894 4259 1456 5316 
L 1875 5078 
Q 1200 3928 338 3134 
Q 250 3347 100 3572 
z
M 5375 2347 
L 3394 2347 
L 3394 1816 
L 5375 1816 
L 5375 2347 
z
M 3394 897 
L 5375 897 
L 5375 1428 
L 3394 1428 
L 3394 897 
z
M 3394 -16 
L 5375 -16 
L 5375 509 
L 3394 509 
L 3394 -16 
z
" transform="scale(0.015625)"/>
      <path id="MicrosoftYaHei-73af" d="M 2606 4447 
L 2606 4916 
L 6050 4916 
L 6050 4447 
L 4441 4447 
Q 4228 3716 3959 3053 
L 4369 3053 
L 4369 -816 
L 3875 -816 
L 3875 2850 
Q 3247 1381 2338 259 
Q 2175 422 1944 566 
Q 3284 2200 3925 4447 
L 2606 4447 
z
M 94 922 
Q 544 1031 1050 1166 
L 1050 2641 
L 213 2641 
L 213 3091 
L 1050 3091 
L 1050 4241 
L 169 4241 
L 169 4691 
L 2375 4691 
L 2375 4241 
L 1544 4241 
L 1544 3091 
L 2369 3091 
L 2369 2641 
L 1544 2641 
L 1544 1297 
Q 1922 1400 2331 1516 
Q 2313 1284 2325 1084 
Q 1081 691 175 391 
L 94 922 
z
M 4856 2909 
Q 5813 1628 6313 834 
L 5888 509 
Q 5225 1622 4469 2653 
L 4856 2909 
z
" transform="scale(0.015625)"/>
     </defs>
     <use xlink:href="#MicrosoftYaHei-6539"/>
     <use xlink:href="#MicrosoftYaHei-53d8" x="100"/>
     <use xlink:href="#MicrosoftYaHei-7269" x="200"/>
     <use xlink:href="#MicrosoftYaHei-8d28" x="300"/>
     <use xlink:href="#MicrosoftYaHei-5faa" x="400"/>
     <use xlink:href="#MicrosoftYaHei-73af" x="500"/>
    </g>
   </g>
   <g id="text_10">
    <g id="patch_13">
     <path d="M 538.2 120.055125 
L 646.2 120.055125 
Q 649.8 120.055125 649.8 116.455125 
L 649.8 103.8795 
Q 649.8 100.2795 646.2 100.2795 
L 538.2 100.2795 
Q 534.6 100.2795 534.6 103.8795 
L 534.6 116.455125 
Q 534.6 120.055125 538.2 120.055125 
z
" style="fill: #f08080; stroke: #000000; stroke-linejoin: miter"/>
    </g>
    <!-- 生态系统稳定性变化 -->
    <g transform="translate(538.2 113.472) scale(0.12 -0.12)">
     <defs>
      <path id="MicrosoftYaHei-6001" d="M 325 4434 
L 2888 4434 
Q 2972 4822 2969 5328 
L 3438 5328 
Q 3444 4841 3372 4434 
L 6075 4434 
L 6075 3991 
L 3528 3991 
Q 4419 2706 6231 2241 
Q 6050 2034 5881 1759 
Q 4041 2394 3172 3772 
Q 2975 3331 2588 2953 
Q 3078 2616 3538 2259 
L 3225 1891 
Q 2828 2244 2259 2675 
Q 1556 2138 388 1703 
Q 294 1922 113 2178 
Q 2250 2866 2750 3991 
L 325 3991 
L 325 4434 
z
M 1713 1547 
L 2200 1547 
L 2200 203 
Q 2200 -172 2575 -172 
L 3763 -172 
Q 4175 -172 4256 134 
Q 4331 428 4381 1028 
Q 4556 953 4863 847 
Q 4763 128 4706 -47 
Q 4563 -616 3869 -616 
L 2488 -616 
Q 1713 -616 1713 172 
L 1713 1547 
z
M 813 1447 
L 1281 1297 
Q 1038 522 663 -297 
Q 463 -203 194 -116 
Q 569 591 813 1447 
z
M 4894 1272 
L 5263 1553 
Q 5781 972 6306 309 
L 5888 -9 
Q 5425 641 4894 1272 
z
M 2594 1503 
L 2913 1809 
Q 3419 1403 3850 991 
L 3488 641 
Q 3094 1059 2594 1503 
z
" transform="scale(0.015625)"/>
      <path id="MicrosoftYaHei-7cfb" d="M 4494 2747 
Q 5294 2103 6131 1334 
Q 5925 1134 5750 953 
Q 5491 1209 5225 1459 
Q 4391 1425 3519 1378 
L 3519 -28 
Q 3519 -741 2769 -741 
Q 2463 -741 1963 -728 
Q 1931 -497 1881 -216 
Q 2406 -272 2688 -272 
Q 3031 -272 3031 66 
L 3031 1353 
Q 2272 1313 1488 1266 
Q 1131 1247 781 1184 
L 575 1722 
Q 988 1797 1356 1966 
Q 2313 2434 3131 2909 
Q 2044 2825 1306 2759 
Q 981 2728 813 2691 
L 613 3216 
Q 913 3291 1175 3434 
Q 1959 3872 2747 4469 
Q 1675 4403 575 4353 
Q 531 4572 463 4791 
Q 3444 4903 5756 5134 
L 5850 4691 
Q 4494 4578 3097 4488 
L 3350 4309 
Q 2369 3653 1538 3203 
Q 2938 3281 3856 3353 
Q 4481 3753 5013 4159 
L 5419 3828 
Q 3850 2709 1775 1734 
Q 3019 1778 4791 1866 
Q 4478 2153 4163 2428 
L 4494 2747 
z
M 4125 697 
L 4444 1034 
Q 5231 509 6175 -222 
L 5806 -628 
Q 4931 97 4125 697 
z
M 1681 1028 
L 2088 709 
Q 1288 -9 406 -678 
Q 256 -497 63 -297 
Q 875 259 1681 1028 
z
" transform="scale(0.015625)"/>
      <path id="MicrosoftYaHei-7edf" d="M 5100 3641 
Q 5625 2934 6175 2047 
Q 5956 1922 5713 1766 
Q 5556 2031 5413 2275 
Q 5122 2256 4813 2241 
L 4813 122 
Q 4813 -259 5094 -259 
L 5400 -259 
Q 5706 -259 5750 53 
Q 5800 428 5813 866 
Q 6019 778 6313 684 
Q 6263 141 6206 -159 
Q 6119 -703 5550 -703 
L 5013 -703 
Q 4331 -703 4331 78 
L 4331 2213 
Q 3981 2194 3606 2169 
Q 3556 809 3256 272 
Q 2900 -416 1925 -866 
Q 1788 -672 1606 -447 
Q 2513 -78 2819 522 
Q 3100 1000 3122 2138 
Q 2994 2128 2863 2122 
Q 2594 2097 2363 2041 
L 2150 2528 
Q 2419 2641 2581 2828 
Q 3050 3388 3463 4047 
L 2100 4047 
L 2100 4491 
L 4094 4491 
Q 3859 4850 3650 5128 
L 4063 5384 
Q 4300 5091 4594 4684 
L 4297 4491 
L 6200 4491 
L 6200 4047 
L 3663 4047 
L 4006 3897 
Q 3488 3197 2988 2609 
Q 4166 2650 5153 2694 
Q 4916 3075 4700 3391 
L 5100 3641 
z
M 894 1534 
Q 1394 1603 2175 1722 
Q 2138 1472 2113 1259 
Q 1331 1153 325 991 
L 225 1441 
Q 616 1841 1153 2744 
Q 503 2700 219 2678 
L 100 3103 
Q 650 3828 1288 5316 
L 1763 5128 
Q 1156 3941 656 3141 
Q 1066 3147 1394 3159 
Q 1581 3494 1788 3884 
L 2256 3678 
Q 1544 2434 894 1534 
z
M 81 222 
Q 1119 422 2225 672 
Q 2200 347 2200 222 
Q 1069 -28 225 -253 
L 81 222 
z
" transform="scale(0.015625)"/>
      <path id="MicrosoftYaHei-7a33" d="M 2444 1778 
L 5450 1778 
L 5450 2316 
L 2563 2316 
L 2563 2728 
L 5450 2728 
L 5450 3259 
L 2575 3259 
L 2575 3653 
L 2488 3566 
Q 2331 3716 2119 3878 
Q 2831 4522 3275 5366 
L 3763 5272 
Q 3616 5009 3456 4766 
L 5313 4766 
L 5313 4359 
Q 5063 4022 4800 3684 
L 5925 3684 
L 5925 1128 
L 5450 1128 
L 5450 1353 
L 2444 1353 
L 2444 1778 
z
M 31 991 
Q 619 1803 988 3034 
L 144 3034 
L 144 3472 
L 1025 3472 
L 1025 4466 
Q 653 4431 269 4403 
Q 238 4603 181 4853 
Q 1200 4916 2231 5059 
L 2331 4597 
Q 1916 4550 1488 4506 
L 1488 3472 
L 2269 3472 
L 2269 3034 
L 1488 3034 
L 1488 2288 
L 1744 2491 
Q 2100 2128 2413 1741 
L 2044 1434 
Q 1772 1822 1488 2144 
L 1488 -834 
L 1025 -834 
L 1025 1938 
Q 703 1072 244 466 
Q 150 728 31 991 
z
M 2950 991 
L 3425 991 
L 3425 97 
Q 3425 -259 3825 -259 
L 4425 -259 
Q 4819 -259 4888 53 
Q 4944 297 4981 634 
Q 5188 541 5456 447 
Q 5394 128 5319 -147 
Q 5181 -691 4563 -691 
L 3731 -691 
Q 2950 -691 2950 72 
L 2950 991 
z
M 4744 4353 
L 3172 4353 
Q 2903 3991 2603 3684 
L 4259 3684 
Q 4525 4038 4744 4353 
z
M 2275 991 
L 2694 841 
Q 2481 178 2200 -409 
Q 2000 -303 1769 -216 
Q 2069 322 2275 991 
z
M 5419 797 
L 5825 978 
Q 6175 309 6388 -147 
L 5956 -353 
Q 5750 153 5419 797 
z
M 3663 1097 
L 4000 1334 
Q 4369 909 4650 522 
L 4269 253 
Q 3994 691 3663 1097 
z
" transform="scale(0.015625)"/>
      <path id="MicrosoftYaHei-5b9a" d="M 81 -384 
Q 1119 509 1281 2241 
L 1806 2159 
Q 1731 1581 1578 1081 
Q 2063 50 3081 -103 
L 3081 2647 
L 225 2647 
L 225 3116 
L 6163 3116 
L 6163 2647 
L 3600 2647 
L 3600 1634 
L 5775 1634 
L 5775 1172 
L 3600 1172 
L 3600 -138 
Q 4844 -169 6306 -116 
Q 6200 -359 6125 -634 
Q 4594 -653 3450 -616 
Q 2041 -616 1378 528 
Q 1022 -300 413 -872 
Q 269 -628 81 -384 
z
M 450 4566 
L 3116 4566 
Q 2931 4834 2725 5091 
L 3200 5347 
Q 3444 5066 3731 4716 
L 3450 4566 
L 5981 4566 
L 5981 3378 
L 5488 3378 
L 5488 4097 
L 944 4097 
L 944 3384 
L 450 3384 
L 450 4566 
z
" transform="scale(0.015625)"/>
      <path id="MicrosoftYaHei-6027" d="M 1963 -153 
L 3988 -153 
L 3988 1522 
L 2375 1522 
L 2375 1959 
L 3988 1959 
L 3988 3472 
L 2975 3472 
Q 2744 2878 2438 2291 
Q 2169 2509 2019 2578 
Q 2644 3709 2894 4891 
L 3388 4759 
Q 3281 4328 3138 3909 
L 3988 3909 
L 3988 5284 
L 4481 5284 
L 4481 3909 
L 6125 3909 
L 6125 3472 
L 4481 3472 
L 4481 1959 
L 6000 1959 
L 6000 1522 
L 4481 1522 
L 4481 -153 
L 6319 -153 
L 6319 -591 
L 1963 -591 
L 1963 -153 
z
M 988 5291 
L 1469 5291 
L 1469 4091 
L 1738 4241 
Q 2063 3734 2294 3291 
L 1906 3041 
Q 1688 3503 1469 3859 
L 1469 -872 
L 988 -872 
L 988 5291 
z
M 406 3878 
L 819 3784 
Q 706 3028 506 2178 
Q 338 2241 75 2297 
Q 263 2978 406 3878 
z
" transform="scale(0.015625)"/>
      <path id="MicrosoftYaHei-5316" d="M 1844 1453 
Q 2663 1834 3375 2331 
L 3375 5197 
L 3913 5197 
L 3913 2734 
Q 4869 3506 5613 4516 
L 6069 4184 
Q 5159 2975 3913 2069 
L 3913 303 
Q 3913 -122 4363 -122 
L 5156 -122 
Q 5581 -122 5650 284 
Q 5738 709 5763 1266 
Q 6025 1166 6313 1084 
Q 6263 559 6181 122 
Q 6063 -597 5281 -597 
L 4225 -597 
Q 3375 -597 3375 241 
L 3375 1703 
Q 2791 1328 2144 1016 
Q 2013 1222 1844 1453 
z
M 88 2222 
Q 1175 3666 1688 5291 
L 2231 5134 
Q 1934 4359 1588 3675 
L 1588 -797 
L 1063 -797 
L 1063 2734 
Q 716 2172 325 1678 
Q 219 1947 88 2222 
z
" transform="scale(0.015625)"/>
     </defs>
     <use xlink:href="#MicrosoftYaHei-751f"/>
     <use xlink:href="#MicrosoftYaHei-6001" x="100"/>
     <use xlink:href="#MicrosoftYaHei-7cfb" x="200"/>
     <use xlink:href="#MicrosoftYaHei-7edf" x="300"/>
     <use xlink:href="#MicrosoftYaHei-7a33" x="400"/>
     <use xlink:href="#MicrosoftYaHei-5b9a" x="500"/>
     <use xlink:href="#MicrosoftYaHei-6027" x="600"/>
     <use xlink:href="#MicrosoftYaHei-53d8" x="700"/>
     <use xlink:href="#MicrosoftYaHei-5316" x="800"/>
    </g>
   </g>
   <g id="text_11">
    <!-- 降低生态恢复力 -->
    <g style="fill: #808080" transform="translate(557.2 157.824) scale(0.1 -0.1)">
     <defs>
      <path id="MicrosoftYaHei-964d" d="M 2263 3616 
Q 3000 4322 3494 5309 
L 3919 5122 
Q 3803 4919 3688 4728 
L 5788 4728 
L 5788 4303 
Q 5403 3681 4713 3213 
Q 5269 2972 6325 2803 
Q 6294 2728 6125 2353 
Q 4900 2594 4247 2934 
Q 3481 2525 2419 2259 
Q 2319 2491 2194 2672 
Q 3122 2863 3828 3206 
Q 3438 3519 3156 3953 
Q 2878 3591 2588 3297 
Q 2444 3466 2263 3616 
z
M 2181 1678 
Q 2344 509 1588 334 
Q 1388 291 1044 328 
Q 975 597 906 834 
Q 1213 753 1419 784 
Q 1844 859 1706 1678 
Q 1594 2303 1206 2803 
Q 1481 3703 1688 4472 
L 869 4472 
L 869 -841 
L 400 -841 
L 400 4909 
L 2200 4909 
L 2200 4472 
Q 1806 3222 1700 2884 
Q 2094 2316 2181 1678 
z
M 2925 584 
L 4125 584 
L 4125 1591 
L 2500 1591 
L 2500 2016 
L 4125 2016 
L 4125 2597 
L 4594 2597 
L 4594 2016 
L 6088 2016 
L 6088 1591 
L 4594 1591 
L 4594 584 
L 6138 584 
L 6138 159 
L 4594 159 
L 4594 -847 
L 4125 -847 
L 4125 159 
L 2456 159 
L 2456 616 
L 2700 1422 
L 3169 1422 
L 2925 584 
z
M 5244 4303 
L 3422 4303 
Q 3806 3753 4269 3450 
Q 4850 3813 5244 4303 
z
" transform="scale(0.015625)"/>
      <path id="MicrosoftYaHei-4f4e" d="M 2275 4809 
Q 4069 4809 5994 5072 
L 6169 4603 
Q 5306 4522 4497 4469 
Q 4513 3594 4556 2872 
L 6250 2872 
L 6250 2422 
L 4591 2422 
Q 4775 250 5581 -172 
Q 5756 -247 5806 -41 
Q 5863 278 5913 897 
Q 6156 784 6363 728 
Q 6300 141 6225 -241 
Q 6119 -728 5738 -728 
Q 5275 -728 4856 -178 
Q 4259 644 4122 2422 
L 2750 2422 
L 2750 209 
Q 3425 597 3913 878 
Q 3950 591 4006 397 
Q 3206 -59 2744 -353 
Q 2563 -472 2388 -634 
L 2063 -222 
Q 2275 -41 2275 316 
L 2275 4809 
z
M 38 2397 
Q 1000 3697 1531 5334 
L 1988 5172 
Q 1678 4309 1306 3578 
L 1306 -828 
L 856 -828 
L 856 2778 
Q 550 2288 213 1872 
Q 138 2122 38 2397 
z
M 4016 4441 
Q 3366 4403 2750 4384 
L 2750 2872 
L 4094 2872 
Q 4059 3481 4016 4441 
z
M 3531 -116 
L 3856 141 
Q 4206 -191 4544 -566 
L 4181 -859 
Q 3888 -491 3531 -116 
z
" transform="scale(0.015625)"/>
      <path id="MicrosoftYaHei-6062" d="M 1413 641 
Q 2469 2041 2750 4047 
L 2000 4047 
L 2000 4484 
L 2806 4484 
Q 2844 4884 2856 5309 
L 3331 5309 
Q 3319 4884 3281 4484 
L 6238 4484 
L 6238 4047 
L 3231 4047 
Q 3131 3272 2925 2578 
L 3219 2741 
Q 3575 2172 3863 1647 
L 3456 1397 
Q 3194 1934 2875 2422 
Q 2500 1241 1806 303 
Q 1663 453 1413 641 
z
M 4619 3691 
Q 4600 2916 4569 2428 
Q 4969 491 6313 -353 
Q 6088 -553 5906 -766 
Q 4781 97 4394 1466 
Q 4050 134 2706 -853 
Q 2575 -666 2356 -459 
Q 3631 447 3938 1509 
Q 4144 2141 4150 3691 
L 4619 3691 
z
M 938 5266 
L 1400 5266 
L 1400 3897 
L 1644 4072 
Q 2019 3666 2294 3278 
L 1931 3022 
Q 1688 3403 1400 3734 
L 1400 -847 
L 938 -847 
L 938 5266 
z
M 356 3828 
L 775 3766 
Q 681 3009 500 2166 
Q 325 2209 81 2266 
Q 231 2909 356 3828 
z
M 4969 1659 
Q 5413 2172 5775 2778 
L 6181 2509 
Q 5775 1903 5313 1359 
L 4969 1659 
z
" transform="scale(0.015625)"/>
      <path id="MicrosoftYaHei-590d" d="M 81 3559 
Q 975 4259 1563 5347 
L 2113 5347 
Q 1963 5084 1803 4841 
L 6200 4841 
L 6200 4441 
L 1525 4441 
Q 1356 4209 1175 3997 
L 5575 3997 
L 5575 1697 
L 5138 1697 
L 5138 1859 
L 1463 1859 
L 1463 1634 
L 1031 1634 
L 1031 3828 
Q 716 3475 369 3166 
Q 263 3347 81 3559 
z
M 81 291 
Q 1231 853 1931 1709 
L 2488 1709 
Q 2350 1534 2206 1372 
L 5588 1372 
L 5588 1034 
Q 4981 494 4038 69 
Q 5016 -188 6319 -284 
Q 6150 -566 6025 -797 
Q 4503 -584 3416 -175 
Q 2303 -563 725 -872 
Q 606 -666 438 -447 
Q 1988 -191 2856 59 
Q 2153 397 1678 838 
Q 1084 303 388 -53 
Q 250 128 81 291 
z
M 1463 2247 
L 5138 2247 
L 5138 2747 
L 1463 2747 
L 1463 2247 
z
M 5138 3609 
L 1463 3609 
L 1463 3116 
L 5138 3116 
L 5138 3609 
z
M 4869 1009 
L 2025 1009 
Q 2572 553 3428 253 
Q 4297 591 4869 1009 
z
" transform="scale(0.015625)"/>
      <path id="MicrosoftYaHei-529b" d="M 400 3916 
L 2425 3916 
Q 2444 4603 2450 5316 
L 2994 5316 
Q 2981 4653 2963 3916 
L 5831 3916 
Q 5756 1472 5688 459 
Q 5606 -616 4538 -628 
Q 4025 -628 3300 -603 
Q 3275 -359 3206 -9 
L 3225 -9 
Q 4038 -84 4488 -78 
Q 5094 -66 5156 591 
Q 5231 1709 5269 3403 
L 2950 3403 
Q 2894 1775 2431 953 
Q 1938 41 506 -803 
Q 331 -578 131 -328 
Q 1488 434 1913 1209 
Q 2353 1913 2406 3403 
L 400 3403 
L 400 3916 
z
" transform="scale(0.015625)"/>
     </defs>
     <use xlink:href="#MicrosoftYaHei-964d"/>
     <use xlink:href="#MicrosoftYaHei-4f4e" x="100"/>
     <use xlink:href="#MicrosoftYaHei-751f" x="200"/>
     <use xlink:href="#MicrosoftYaHei-6001" x="300"/>
     <use xlink:href="#MicrosoftYaHei-6062" x="400"/>
     <use xlink:href="#MicrosoftYaHei-590d" x="500"/>
     <use xlink:href="#MicrosoftYaHei-529b" x="600"/>
    </g>
   </g>
   <g id="text_12">
    <!-- 增加脆弱性 -->
    <g transform="translate(567.2 202.176) scale(0.1 -0.1)">
     <defs>
      <path id="MicrosoftYaHei-589e" d="M 2188 4459 
L 3259 4459 
Q 3041 4781 2775 5116 
L 3131 5366 
Q 3456 4991 3694 4666 
L 3403 4459 
L 4453 4459 
Q 4759 4888 5050 5372 
L 5500 5116 
Q 5234 4772 4978 4459 
L 6038 4459 
L 6038 2122 
L 5600 2122 
L 5600 2309 
L 2625 2309 
L 2625 2122 
L 2188 2122 
L 2188 4459 
z
M 2438 1797 
L 5788 1797 
L 5788 -847 
L 5338 -847 
L 5338 -547 
L 2888 -547 
L 2888 -847 
L 2438 -847 
L 2438 1797 
z
M 81 428 
Q 466 538 894 672 
L 894 3253 
L 144 3253 
L 144 3697 
L 894 3697 
L 894 5259 
L 1356 5259 
L 1356 3697 
L 2000 3697 
L 2000 3253 
L 1356 3253 
L 1356 819 
Q 1709 931 2094 1059 
Q 2106 759 2125 553 
Q 1306 316 250 -53 
L 81 428 
z
M 5600 4084 
L 4325 4084 
L 4325 2684 
L 5600 2684 
L 5600 4084 
z
M 2625 2684 
L 3894 2684 
L 3894 4084 
L 2625 4084 
L 2625 2684 
z
M 5338 1409 
L 2888 1409 
L 2888 809 
L 5338 809 
L 5338 1409 
z
M 2888 -159 
L 5338 -159 
L 5338 434 
L 2888 434 
L 2888 -159 
z
M 5350 3609 
Q 5006 3066 4856 2884 
L 4519 3084 
Q 4744 3391 4981 3828 
L 5350 3609 
z
M 2863 3597 
L 3181 3803 
Q 3463 3441 3669 3122 
L 3319 2897 
Q 3119 3228 2863 3597 
z
" transform="scale(0.015625)"/>
      <path id="MicrosoftYaHei-8106" d="M 569 4916 
L 2144 4916 
L 2144 -153 
Q 2144 -791 1588 -791 
Q 1156 -791 975 -772 
Q 956 -591 900 -328 
Q 1219 -372 1463 -372 
Q 1731 -372 1731 -91 
L 1731 1353 
L 981 1353 
Q 963 -134 419 -847 
Q 213 -584 100 -497 
Q 569 134 569 1297 
L 569 4916 
z
M 2188 3466 
Q 3044 4347 3500 5347 
L 4006 5259 
Q 3875 5003 3731 4759 
L 5563 4759 
L 5563 4341 
Q 5288 4009 5013 3641 
L 6244 3641 
L 6244 3228 
L 3169 3228 
L 3169 1722 
Q 3169 -16 2513 -897 
Q 2356 -672 2188 -497 
Q 2744 272 2744 1747 
L 2744 3372 
Q 2631 3241 2519 3116 
Q 2394 3291 2188 3466 
z
M 3625 2653 
L 5781 2653 
Q 5769 1722 5731 1309 
Q 5656 584 4969 584 
Q 4706 584 4356 603 
Q 4331 847 4256 1103 
Q 4706 1028 4975 1028 
Q 5281 1028 5313 1359 
Q 5344 1716 5363 2253 
L 4050 2253 
L 4050 197 
Q 4050 -253 4469 -253 
L 5225 -253 
Q 5625 -253 5700 184 
Q 5750 428 5794 847 
Q 5975 766 6275 659 
Q 6188 172 6119 -53 
Q 5950 -722 5281 -722 
L 4363 -722 
Q 3625 -722 3625 122 
L 3625 2653 
z
M 4981 4347 
L 3469 4347 
Q 3231 3978 2963 3641 
L 4488 3641 
Q 4763 4016 4981 4347 
z
M 981 1741 
L 1731 1741 
L 1731 2934 
L 981 2934 
L 981 1741 
z
M 1731 4509 
L 981 4509 
L 981 3322 
L 1731 3322 
L 1731 4509 
z
" transform="scale(0.015625)"/>
      <path id="MicrosoftYaHei-5f31" d="M 3963 3353 
L 3813 2559 
L 6044 2559 
Q 5994 1072 5938 241 
Q 5894 -753 4938 -753 
Q 4456 -753 4075 -734 
Q 4044 -497 3981 -216 
Q 4481 -278 4894 -278 
Q 5431 -278 5463 259 
Q 5519 1034 5550 2128 
L 3281 2128 
L 3594 3784 
L 5388 3784 
L 5388 4559 
L 3400 4559 
L 3400 4991 
L 5856 4991 
L 5856 3147 
L 5388 3147 
L 5388 3353 
L 3963 3353 
z
M 1025 3353 
L 881 2559 
L 2881 2559 
Q 2831 1059 2781 216 
Q 2738 -759 1763 -759 
Q 1381 -759 913 -741 
Q 881 -453 819 -222 
Q 1344 -284 1725 -284 
Q 2281 -284 2306 284 
Q 2369 1066 2394 2128 
L 356 2128 
L 656 3784 
L 2388 3784 
L 2388 4559 
L 375 4559 
L 375 4991 
L 2856 4991 
L 2856 3147 
L 2388 3147 
L 2388 3353 
L 1025 3353 
z
M 3206 528 
Q 4269 778 5231 1066 
Q 5219 747 5213 566 
Q 4419 359 3281 22 
L 3206 528 
z
M 156 503 
Q 1006 659 2144 947 
Q 2125 641 2113 466 
Q 1194 259 213 3 
L 156 503 
z
M 3563 1984 
Q 4094 1784 4756 1491 
Q 4625 1272 4519 1072 
Q 3994 1334 3344 1616 
L 3563 1984 
z
M 731 1984 
Q 1250 1772 1863 1472 
Q 1713 1228 1606 1047 
Q 1038 1372 494 1616 
L 731 1984 
z
" transform="scale(0.015625)"/>
     </defs>
     <use xlink:href="#MicrosoftYaHei-589e"/>
     <use xlink:href="#MicrosoftYaHei-52a0" x="100"/>
     <use xlink:href="#MicrosoftYaHei-8106" x="200"/>
     <use xlink:href="#MicrosoftYaHei-5f31" x="300"/>
     <use xlink:href="#MicrosoftYaHei-6027" x="400"/>
    </g>
   </g>
  </g>
 </g>
 <defs>
  <clipPath id="pd5f6dd52e3">
   <rect x="90" y="69.12" width="558" height="443.52"/>
  </clipPath>
 </defs>
</svg>
