<?xml version="1.0" encoding="utf-8" standalone="no"?>
<!DOCTYPE svg PUBLIC "-//W3C//DTD SVG 1.1//EN"
  "http://www.w3.org/Graphics/SVG/1.1/DTD/svg11.dtd">
<svg xmlns:xlink="http://www.w3.org/1999/xlink" width="576pt" height="576pt" viewBox="0 0 576 576" xmlns="http://www.w3.org/2000/svg" version="1.1">
 <metadata>
  <rdf:RDF xmlns:dc="http://purl.org/dc/elements/1.1/" xmlns:cc="http://creativecommons.org/ns#" xmlns:rdf="http://www.w3.org/1999/02/22-rdf-syntax-ns#">
   <cc:Work>
    <dc:type rdf:resource="http://purl.org/dc/dcmitype/StillImage"/>
    <dc:date>2024-12-24T20:19:19.908962</dc:date>
    <dc:format>image/svg+xml</dc:format>
    <dc:creator>
     <cc:Agent>
      <dc:title>Matplotlib v3.9.3, https://matplotlib.org/</dc:title>
     </cc:Agent>
    </dc:creator>
   </cc:Work>
  </rdf:RDF>
 </metadata>
 <defs>
  <style type="text/css">*{stroke-linejoin: round; stroke-linecap: butt}</style>
 </defs>
 <g id="figure_1">
  <g id="patch_1">
   <path d="M 0 576 
L 576 576 
L 576 0 
L 0 0 
z
" style="fill: #ffffff"/>
  </g>
  <g id="axes_1">
   <g id="patch_2">
    <path d="M 516.96 290.88 
C 516.96 261.758744 511.223747 232.920655 500.079525 206.016122 
C 488.935303 179.111589 472.599838 154.663838 452.008 134.072 
C 431.416162 113.480162 406.968411 97.144697 380.063878 86.000475 
C 353.159345 74.856253 324.321256 69.12 295.2 69.12 
C 266.078744 69.12 237.240655 74.856253 210.336122 86.000475 
C 183.431589 97.144697 158.983838 113.480162 138.392 134.072 
C 117.800162 154.663838 101.464697 179.111589 90.320475 206.016122 
C 79.176253 232.920655 73.44 261.758744 73.44 290.88 
C 73.44 320.001256 79.176253 348.839345 90.320475 375.743878 
C 101.464697 402.648411 117.800162 427.096162 138.392 447.688 
C 158.983838 468.279838 183.431589 484.615303 210.336122 495.759525 
C 237.240655 506.903747 266.078744 512.64 295.2 512.64 
C 324.321256 512.64 353.159345 506.903747 380.063878 495.759525 
C 406.968411 484.615303 431.416162 468.279838 452.008 447.688 
C 472.599838 427.096162 488.935303 402.648411 500.079525 375.743878 
C 511.223747 348.839345 516.96 320.001256 516.96 290.88 
M 295.2 290.88 
C 295.2 290.88 295.2 290.88 295.2 290.88 
C 295.2 290.88 295.2 290.88 295.2 290.88 
C 295.2 290.88 295.2 290.88 295.2 290.88 
C 295.2 290.88 295.2 290.88 295.2 290.88 
C 295.2 290.88 295.2 290.88 295.2 290.88 
C 295.2 290.88 295.2 290.88 295.2 290.88 
C 295.2 290.88 295.2 290.88 295.2 290.88 
C 295.2 290.88 295.2 290.88 295.2 290.88 
C 295.2 290.88 295.2 290.88 295.2 290.88 
C 295.2 290.88 295.2 290.88 295.2 290.88 
C 295.2 290.88 295.2 290.88 295.2 290.88 
C 295.2 290.88 295.2 290.88 295.2 290.88 
C 295.2 290.88 295.2 290.88 295.2 290.88 
C 295.2 290.88 295.2 290.88 295.2 290.88 
C 295.2 290.88 295.2 290.88 295.2 290.88 
C 295.2 290.88 295.2 290.88 295.2 290.88 
z
" style="fill: #ffffff"/>
   </g>
   <g id="patch_3">
    <path d="M 505.399052 290.88 
L 400.299526 108.842281 
L 190.100474 108.842281 
L 85.000948 290.88 
L 190.100474 472.917719 
L 400.299526 472.917719 
z
" clip-path="url(#pa564539e99)" style="fill: #87ceeb; opacity: 0.5; stroke: #87ceeb; stroke-linejoin: miter"/>
   </g>
   <g id="matplotlib.axis_1">
    <g id="xtick_1">
     <g id="line2d_1">
      <path d="M 295.2 290.88 
L 516.96 290.88 
" clip-path="url(#pa564539e99)" style="fill: none; stroke: #b0b0b0; stroke-width: 0.8; stroke-linecap: square"/>
     </g>
     <g id="text_1">
      <!-- 物种鉴定 -->
      <g transform="translate(506.96 294.184687) scale(0.12 -0.12)">
       <defs>
        <path id="MicrosoftYaHei-7269" d="M 2131 2866 
Q 2750 3816 3263 5341 
L 3719 5203 
Q 3541 4706 3363 4278 
L 6075 4278 
Q 5950 1759 5869 422 
Q 5800 -622 4869 -622 
Q 4519 -622 4044 -603 
Q 4013 -372 3956 -72 
Q 4500 -134 4819 -134 
Q 5325 -134 5375 441 
Q 5488 1759 5575 3834 
L 5097 3834 
Q 4934 2241 4569 1322 
Q 4069 134 2869 -716 
Q 2731 -522 2550 -334 
Q 3719 491 4169 1559 
Q 4531 2438 4634 3834 
L 4078 3834 
Q 3909 2641 3575 1916 
Q 3163 1097 2444 447 
Q 2288 647 2119 816 
Q 2831 1434 3175 2116 
Q 3509 2809 3619 3834 
L 3169 3834 
Q 2850 3125 2531 2628 
Q 2375 2734 2131 2866 
z
M 94 1584 
Q 669 1775 1288 1991 
L 1288 3466 
L 722 3466 
Q 597 2872 419 2378 
Q 219 2522 13 2653 
Q 363 3509 456 4709 
L 906 4634 
Q 863 4244 800 3884 
L 1288 3884 
L 1288 5291 
L 1756 5291 
L 1756 3884 
L 2375 3884 
L 2375 3466 
L 1756 3466 
L 1756 2156 
Q 2063 2269 2381 2384 
Q 2413 2109 2450 1909 
Q 2141 1797 1756 1653 
L 1756 -834 
L 1288 -834 
L 1288 1475 
Q 788 1288 188 1053 
L 94 1584 
z
" transform="scale(0.015625)"/>
        <path id="MicrosoftYaHei-79cd" d="M 2700 4066 
L 4113 4066 
L 4113 5316 
L 4588 5316 
L 4588 4066 
L 6006 4066 
L 6006 1053 
L 5556 1053 
L 5556 1353 
L 4588 1353 
L 4588 -841 
L 4113 -841 
L 4113 1353 
L 3150 1353 
L 3150 1053 
L 2700 1053 
L 2700 4066 
z
M 88 878 
Q 669 1691 1063 2972 
L 119 2972 
L 119 3416 
L 1119 3416 
L 1119 4434 
Q 738 4403 294 4372 
Q 263 4584 200 4828 
Q 1475 4897 2425 5034 
L 2538 4559 
Q 2141 4519 1581 4472 
L 1581 3416 
L 2475 3416 
L 2475 2972 
L 1581 2972 
L 1581 2159 
L 1850 2378 
Q 2188 2028 2606 1516 
L 2225 1203 
Q 1888 1669 1581 2025 
L 1581 -828 
L 1119 -828 
L 1119 1894 
Q 791 972 306 341 
Q 206 603 88 878 
z
M 5556 3634 
L 4588 3634 
L 4588 1784 
L 5556 1784 
L 5556 3634 
z
M 3150 1784 
L 4113 1784 
L 4113 3634 
L 3150 3634 
L 3150 1784 
z
" transform="scale(0.015625)"/>
        <path id="MicrosoftYaHei-9274" d="M 138 -97 
L 1700 -97 
Q 1531 172 1269 534 
L 1638 753 
Q 1888 447 2138 84 
L 1794 -97 
L 2975 -97 
L 2975 766 
L 706 766 
L 706 1191 
L 2975 1191 
L 2975 1709 
L 1850 1709 
L 1850 2059 
Q 1200 1703 375 1384 
Q 256 1584 75 1841 
Q 1475 2291 2344 2903 
L 1981 2903 
L 1981 5309 
L 2438 5309 
L 2438 2966 
Q 2750 3197 2994 3453 
L 3725 3453 
L 3581 3334 
Q 4606 2384 6300 1916 
Q 6125 1641 6000 1409 
Q 5213 1703 4563 2072 
L 4563 1709 
L 3431 1709 
L 3431 1191 
L 5713 1191 
L 5713 766 
L 3431 766 
L 3431 -97 
L 4125 -97 
Q 4444 284 4700 722 
L 5138 491 
Q 4919 209 4656 -97 
L 6256 -97 
L 6256 -522 
L 138 -522 
L 138 -97 
z
M 2925 3784 
Q 3488 4528 3719 5353 
L 4188 5234 
Q 4075 4916 3944 4628 
L 6169 4628 
L 6169 4203 
L 3744 4203 
Q 3550 3841 3338 3528 
Q 3063 3728 2925 3784 
z
M 3225 3034 
Q 2731 2559 1975 2134 
L 4456 2134 
Q 3763 2541 3225 3034 
z
M 613 5134 
L 1063 5134 
L 1063 3009 
L 613 3009 
L 613 5134 
z
M 4500 4084 
Q 5006 3678 5631 3122 
L 5288 2766 
Q 4675 3353 4181 3766 
L 4500 4084 
z
" transform="scale(0.015625)"/>
        <path id="MicrosoftYaHei-5b9a" d="M 81 -384 
Q 1119 509 1281 2241 
L 1806 2159 
Q 1731 1581 1578 1081 
Q 2063 50 3081 -103 
L 3081 2647 
L 225 2647 
L 225 3116 
L 6163 3116 
L 6163 2647 
L 3600 2647 
L 3600 1634 
L 5775 1634 
L 5775 1172 
L 3600 1172 
L 3600 -138 
Q 4844 -169 6306 -116 
Q 6200 -359 6125 -634 
Q 4594 -653 3450 -616 
Q 2041 -616 1378 528 
Q 1022 -300 413 -872 
Q 269 -628 81 -384 
z
M 450 4566 
L 3116 4566 
Q 2931 4834 2725 5091 
L 3200 5347 
Q 3444 5066 3731 4716 
L 3450 4566 
L 5981 4566 
L 5981 3378 
L 5488 3378 
L 5488 4097 
L 944 4097 
L 944 3384 
L 450 3384 
L 450 4566 
z
" transform="scale(0.015625)"/>
       </defs>
       <use xlink:href="#MicrosoftYaHei-7269"/>
       <use xlink:href="#MicrosoftYaHei-79cd" x="100"/>
       <use xlink:href="#MicrosoftYaHei-9274" x="200"/>
       <use xlink:href="#MicrosoftYaHei-5b9a" x="300"/>
      </g>
     </g>
    </g>
    <g id="xtick_2">
     <g id="line2d_2">
      <path d="M 295.2 290.88 
L 406.08 98.830206 
" clip-path="url(#pa564539e99)" style="fill: none; stroke: #b0b0b0; stroke-width: 0.8; stroke-linecap: square"/>
     </g>
     <g id="text_2">
      <!-- 实验室模拟 -->
      <g transform="translate(383.08 90.010538) scale(0.12 -0.12)">
       <defs>
        <path id="MicrosoftYaHei-5b9e" d="M 113 -397 
Q 2419 34 3081 972 
L 213 972 
L 213 1434 
L 3313 1434 
Q 3525 2084 3506 3703 
L 4031 3703 
Q 4031 2097 3856 1434 
L 6225 1434 
L 6225 972 
L 3681 972 
Q 3631 872 3563 759 
Q 4900 197 6181 -403 
L 5906 -878 
Q 4569 -197 3263 391 
Q 2413 -441 413 -891 
Q 269 -616 113 -397 
z
M 331 4422 
L 3194 4422 
Q 3038 4703 2775 5078 
L 3231 5334 
Q 3438 5059 3731 4609 
L 3388 4422 
L 6063 4422 
L 6063 3303 
L 5563 3303 
L 5563 3959 
L 831 3959 
L 831 3303 
L 331 3303 
L 331 4422 
z
M 1100 2734 
Q 1819 2409 2450 2053 
L 2181 1622 
Q 1556 2003 863 2334 
L 1100 2734 
z
M 1663 3691 
Q 2388 3341 2981 2984 
L 2700 2559 
Q 2119 2934 1419 3322 
L 1663 3691 
z
" transform="scale(0.015625)"/>
        <path id="MicrosoftYaHei-9a8c" d="M 963 4116 
L 819 2397 
L 1450 2397 
L 1613 4503 
L 194 4503 
L 194 4928 
L 2088 4928 
L 1894 2397 
L 2288 2397 
Q 2244 1078 2206 228 
Q 2188 -722 1381 -722 
Q 1044 -722 588 -703 
Q 556 -472 506 -209 
Q 956 -266 1306 -266 
Q 1744 -266 1769 266 
Q 1806 953 1831 1972 
L 331 1972 
L 531 4116 
L 963 4116 
z
M 2338 -103 
L 4594 -103 
Q 5044 1009 5394 2222 
L 5869 2072 
Q 5500 953 5088 -103 
L 6188 -103 
L 6188 -534 
L 2338 -534 
L 2338 -103 
z
M 4606 5278 
L 4488 5078 
Q 5244 3734 6363 3122 
Q 6163 2872 6031 2684 
Q 4931 3497 4238 4641 
Q 3600 3509 2456 2609 
Q 2344 2772 2144 3003 
Q 3388 3866 4050 5278 
L 4606 5278 
z
M 2975 2978 
L 5550 2978 
L 5550 2547 
L 2975 2547 
L 2975 2978 
z
M 3731 2178 
L 4175 2297 
Q 4438 1359 4606 659 
L 4150 528 
Q 3969 1391 3731 2178 
z
M 2656 1897 
L 3094 2034 
Q 3400 1147 3606 453 
L 3144 297 
Q 2938 1097 2656 1897 
z
M 38 1034 
Q 763 1178 1631 1384 
Q 1625 1134 1638 941 
Q 925 791 131 572 
L 38 1034 
z
" transform="scale(0.015625)"/>
        <path id="MicrosoftYaHei-5ba4" d="M 131 -147 
L 2950 -147 
L 2950 584 
L 706 584 
L 706 1016 
L 2950 1016 
L 2950 1738 
Q 2291 1709 1675 1678 
Q 1363 1659 1050 1597 
L 838 2116 
Q 1075 2209 1344 2384 
Q 1784 2688 2153 2997 
L 1019 2997 
L 1019 3428 
L 5431 3428 
L 5431 2997 
L 2888 2997 
Q 2388 2591 1738 2134 
Q 3094 2181 4444 2234 
Q 4244 2416 4025 2603 
L 4369 2916 
Q 5156 2297 5738 1753 
L 5331 1372 
Q 5134 1581 4909 1803 
Q 4159 1784 3456 1756 
L 3456 1016 
L 5706 1016 
L 5706 584 
L 3456 584 
L 3456 -147 
L 6281 -147 
L 6281 -578 
L 131 -578 
L 131 -147 
z
M 356 4503 
L 3094 4503 
Q 2919 4841 2700 5172 
L 3144 5384 
Q 3375 5041 3594 4653 
L 3284 4503 
L 6069 4503 
L 6069 3372 
L 5569 3372 
L 5569 4072 
L 856 4072 
L 856 3372 
L 356 3372 
L 356 4503 
z
" transform="scale(0.015625)"/>
        <path id="MicrosoftYaHei-6a21" d="M 2050 984 
L 3859 984 
Q 3900 1213 3913 1547 
L 2950 1547 
L 2950 1372 
L 2500 1372 
L 2500 3634 
L 5844 3634 
L 5844 1372 
L 5394 1372 
L 5394 1547 
L 4344 1547 
Q 4325 1203 4288 984 
L 6250 984 
L 6250 584 
L 4525 584 
Q 5203 -175 6319 -341 
Q 6144 -572 6013 -809 
Q 4803 -456 4128 466 
Q 3681 -431 2075 -847 
Q 1969 -628 1831 -416 
Q 3303 -106 3713 584 
L 2050 584 
L 2050 984 
z
M 63 1409 
Q 603 2316 922 3509 
L 138 3509 
L 138 3922 
L 1006 3922 
L 1006 5309 
L 1444 5309 
L 1444 3922 
L 2256 3922 
L 2256 3509 
L 1444 3509 
L 1444 2684 
L 1688 2884 
Q 2044 2503 2350 2116 
L 2006 1828 
Q 1719 2244 1444 2563 
L 1444 -822 
L 1006 -822 
L 1006 2581 
Q 672 1438 275 859 
Q 188 1128 63 1409 
z
M 4713 5303 
L 5150 5303 
L 5150 4703 
L 6225 4703 
L 6225 4303 
L 5150 4303 
L 5150 3797 
L 4713 3797 
L 4713 4303 
L 3600 4303 
L 3600 3797 
L 3163 3797 
L 3163 4303 
L 2175 4303 
L 2175 4703 
L 3163 4703 
L 3163 5309 
L 3600 5309 
L 3600 4703 
L 4713 4703 
L 4713 5303 
z
M 5394 3247 
L 2950 3247 
L 2950 2778 
L 5394 2778 
L 5394 3247 
z
M 2950 1934 
L 5394 1934 
L 5394 2403 
L 2950 2403 
L 2950 1934 
z
" transform="scale(0.015625)"/>
        <path id="MicrosoftYaHei-62df" d="M 81 1991 
Q 459 2091 925 2234 
L 925 3647 
L 150 3647 
L 150 4066 
L 925 4066 
L 925 5272 
L 1400 5272 
L 1400 4066 
L 2131 4066 
L 2131 3647 
L 1400 3647 
L 1400 2384 
Q 1756 2500 2156 2634 
Q 2144 2328 2144 2153 
Q 1775 2034 1400 1906 
L 1400 -97 
Q 1400 -722 856 -747 
Q 556 -759 231 -753 
Q 200 -522 150 -234 
Q 456 -272 656 -272 
Q 925 -272 925 9 
L 925 1744 
Q 541 1613 150 1472 
L 81 1991 
z
M 5000 5216 
L 5475 5216 
Q 5463 4141 5444 3341 
Q 5403 1831 5119 1044 
Q 5797 278 6325 -391 
L 5906 -734 
Q 5425 -66 4900 588 
Q 4397 -263 3375 -872 
Q 3219 -659 3031 -478 
Q 4206 184 4644 1184 
Q 4938 1916 4963 3347 
Q 4988 4284 5000 5216 
z
M 3838 1878 
Q 3900 1616 4000 1391 
Q 3444 884 2850 316 
Q 2706 172 2563 -41 
L 2238 372 
Q 2431 597 2431 947 
L 2431 4797 
L 2906 4797 
L 2906 991 
Q 3256 1297 3838 1878 
z
M 3213 5147 
L 3619 5353 
Q 4088 4516 4425 3816 
L 3988 3572 
Q 3563 4497 3213 5147 
z
" transform="scale(0.015625)"/>
       </defs>
       <use xlink:href="#MicrosoftYaHei-5b9e"/>
       <use xlink:href="#MicrosoftYaHei-9a8c" x="100"/>
       <use xlink:href="#MicrosoftYaHei-5ba4" x="200"/>
       <use xlink:href="#MicrosoftYaHei-6a21" x="300"/>
       <use xlink:href="#MicrosoftYaHei-62df" x="400"/>
      </g>
     </g>
    </g>
    <g id="xtick_3">
     <g id="line2d_3">
      <path d="M 295.2 290.88 
L 184.32 98.830206 
" clip-path="url(#pa564539e99)" style="fill: none; stroke: #b0b0b0; stroke-width: 0.8; stroke-linecap: square"/>
     </g>
     <g id="text_3">
      <!-- 分子生物学技术 -->
      <g transform="translate(135.32 90.010538) scale(0.12 -0.12)">
       <defs>
        <path id="MicrosoftYaHei-5206" d="M 900 2559 
L 5056 2559 
Q 5025 1497 4963 484 
Q 4888 -684 3856 -678 
Q 3350 -684 2788 -647 
Q 2750 -384 2700 -116 
Q 3181 -184 3775 -191 
Q 4400 -203 4463 541 
Q 4513 1216 4538 2097 
L 2616 2097 
Q 2541 1053 2181 416 
Q 1706 -422 588 -878 
Q 425 -666 231 -459 
Q 1269 -72 1725 666 
Q 2053 1225 2103 2097 
L 900 2097 
L 900 2559 
z
M 3488 5159 
L 3938 5353 
Q 4625 3678 6350 2847 
Q 6069 2553 5944 2372 
Q 4225 3366 3488 5159 
z
M 50 2766 
Q 1338 3678 2250 5253 
L 2694 5009 
Q 1744 3347 413 2341 
Q 281 2534 50 2766 
z
" transform="scale(0.015625)"/>
        <path id="MicrosoftYaHei-5b50" d="M 125 2497 
L 3031 2497 
L 3031 3184 
L 4825 4491 
L 781 4491 
L 781 4959 
L 5656 4959 
L 5656 4472 
L 3563 2941 
L 3563 2497 
L 6300 2497 
L 6300 2028 
L 3563 2028 
L 3563 59 
Q 3563 -778 2688 -778 
Q 2400 -778 1700 -766 
Q 1675 -516 1625 -197 
Q 2081 -253 2588 -259 
Q 3031 -259 3031 191 
L 3031 2028 
L 125 2028 
L 125 2497 
z
" transform="scale(0.015625)"/>
        <path id="MicrosoftYaHei-751f" d="M 125 16 
L 3025 16 
L 3025 1609 
L 813 1609 
L 813 2091 
L 3025 2091 
L 3025 3534 
L 1375 3534 
Q 959 2784 419 2178 
Q 288 2384 81 2616 
Q 963 3603 1475 5028 
L 1988 4891 
Q 1822 4434 1622 4016 
L 3025 4016 
L 3025 5341 
L 3563 5341 
L 3563 4016 
L 5950 4016 
L 5950 3534 
L 3563 3534 
L 3563 2091 
L 5775 2091 
L 5775 1609 
L 3563 1609 
L 3563 16 
L 6288 16 
L 6288 -453 
L 125 -453 
L 125 16 
z
" transform="scale(0.015625)"/>
        <path id="MicrosoftYaHei-5b66" d="M 144 1359 
L 3069 1359 
L 3069 1709 
L 4263 2384 
L 1325 2384 
L 1325 2841 
L 4994 2841 
L 4994 2316 
L 3575 1497 
L 3575 1359 
L 6263 1359 
L 6263 903 
L 3575 903 
L 3575 -41 
Q 3575 -778 2831 -778 
Q 2419 -778 1863 -766 
Q 1844 -553 1788 -234 
Q 2288 -284 2744 -291 
Q 3069 -297 3069 53 
L 3069 903 
L 144 903 
L 144 1359 
z
M 356 3909 
L 6056 3909 
L 6056 2647 
L 5563 2647 
L 5563 3453 
L 850 3453 
L 850 2647 
L 356 2647 
L 356 3909 
z
M 4313 4272 
Q 4731 4722 5100 5241 
L 5550 4909 
Q 5144 4447 4681 3941 
L 4313 4272 
z
M 2538 5116 
L 2944 5353 
Q 3325 4853 3650 4334 
L 3200 4078 
Q 2925 4566 2538 5116 
z
M 850 4928 
L 1219 5197 
Q 1600 4778 1969 4291 
L 1544 3991 
Q 1194 4522 850 4928 
z
" transform="scale(0.015625)"/>
        <path id="MicrosoftYaHei-6280" d="M 2394 2472 
L 2394 2884 
L 4000 2884 
L 4000 3841 
L 2369 3841 
L 2369 4297 
L 4000 4297 
L 4000 5303 
L 4500 5303 
L 4500 4297 
L 6200 4297 
L 6200 3841 
L 4500 3841 
L 4500 2884 
L 5831 2884 
L 5831 2509 
Q 5391 1259 4578 484 
Q 5281 -69 6319 -359 
Q 6081 -634 5919 -841 
Q 4903 -428 4197 163 
Q 3375 -456 2275 -891 
Q 2144 -691 1944 -447 
Q 3059 -84 3850 491 
Q 3156 1247 2809 2472 
L 2394 2472 
z
M 75 2009 
Q 547 2144 988 2275 
L 988 3622 
L 156 3622 
L 156 4053 
L 988 4053 
L 988 5266 
L 1469 5266 
L 1469 4053 
L 2200 4053 
L 2200 3622 
L 1469 3622 
L 1469 2425 
Q 1828 2541 2169 2653 
Q 2169 2353 2181 2166 
Q 1828 2053 1469 1938 
L 1469 -78 
Q 1469 -741 844 -747 
Q 594 -753 244 -747 
Q 206 -484 163 -216 
Q 531 -253 719 -253 
Q 988 -253 988 28 
L 988 1778 
Q 566 1638 138 1491 
L 75 2009 
z
M 5288 2472 
L 3291 2472 
Q 3572 1484 4228 803 
Q 4966 1503 5288 2472 
z
" transform="scale(0.015625)"/>
        <path id="MicrosoftYaHei-672f" d="M 6350 409 
Q 6125 153 5950 -91 
Q 4391 1013 3456 3025 
L 3456 -841 
L 2956 -841 
L 2956 3038 
Q 2081 1163 400 -172 
Q 256 28 38 303 
Q 1716 1519 2713 3353 
L 238 3353 
L 238 3816 
L 2956 3816 
L 2956 5328 
L 3456 5328 
L 3456 3816 
L 6188 3816 
L 6188 3353 
L 3684 3353 
Q 4725 1316 6350 409 
z
M 4069 4884 
L 4388 5234 
Q 4931 4866 5463 4416 
L 5113 4028 
Q 4594 4491 4069 4884 
z
" transform="scale(0.015625)"/>
       </defs>
       <use xlink:href="#MicrosoftYaHei-5206"/>
       <use xlink:href="#MicrosoftYaHei-5b50" x="100"/>
       <use xlink:href="#MicrosoftYaHei-751f" x="200"/>
       <use xlink:href="#MicrosoftYaHei-7269" x="300"/>
       <use xlink:href="#MicrosoftYaHei-5b66" x="400"/>
       <use xlink:href="#MicrosoftYaHei-6280" x="500"/>
       <use xlink:href="#MicrosoftYaHei-672f" x="600"/>
      </g>
     </g>
    </g>
    <g id="xtick_4">
     <g id="line2d_4">
      <path d="M 295.2 290.88 
L 73.44 290.88 
" clip-path="url(#pa564539e99)" style="fill: none; stroke: #b0b0b0; stroke-width: 0.8; stroke-linecap: square"/>
     </g>
     <g id="text_4">
      <!-- 整合研究 -->
      <g transform="translate(35.44 294.184687) scale(0.12 -0.12)">
       <defs>
        <path id="MicrosoftYaHei-6574" d="M 138 -234 
L 1263 -234 
L 1263 891 
L 1713 891 
L 1713 -234 
L 3025 -234 
L 3025 1178 
L 550 1178 
L 550 1578 
L 5800 1578 
L 5800 1178 
L 3475 1178 
L 3475 697 
L 5525 697 
L 5525 297 
L 3475 297 
L 3475 -234 
L 6256 -234 
L 6256 -634 
L 138 -634 
L 138 -234 
z
M 25 2003 
Q 825 2334 1481 2916 
L 913 2916 
L 913 2759 
L 506 2759 
L 506 4109 
L 1650 4109 
L 1650 4491 
L 250 4491 
L 250 4866 
L 1650 4866 
L 1650 5291 
L 2069 5291 
L 2069 4866 
L 3425 4866 
L 3425 4491 
L 2069 4491 
L 2069 4109 
L 3213 4109 
L 3213 2759 
L 2806 2759 
L 2806 2916 
L 2069 2916 
L 2069 2541 
L 2225 2747 
Q 2781 2484 3288 2216 
L 3075 1872 
Q 2550 2184 2069 2397 
L 2069 1722 
L 1650 1722 
L 1650 2647 
Q 1075 2078 288 1647 
Q 175 1803 25 2003 
z
M 3363 2078 
Q 4050 2341 4519 2716 
Q 4144 3134 3938 3716 
Q 3788 3447 3631 3197 
L 3256 3459 
Q 3850 4253 4163 5322 
L 4600 5191 
Q 4481 4872 4356 4572 
L 6263 4572 
L 6263 4172 
L 5850 4172 
Q 5644 3316 5181 2741 
Q 5638 2428 6325 2247 
Q 6169 2047 6013 1778 
Q 5319 2034 4844 2403 
Q 4363 1984 3650 1678 
Q 3525 1859 3363 2078 
z
M 5400 4172 
L 4219 4172 
Q 4394 3484 4838 3022 
Q 5244 3503 5400 4172 
z
M 2806 3266 
L 2806 3759 
L 2069 3759 
L 2069 3266 
L 2806 3266 
z
M 913 3266 
L 1650 3266 
L 1650 3759 
L 913 3759 
L 913 3266 
z
" transform="scale(0.015625)"/>
        <path id="MicrosoftYaHei-5408" d="M 1025 1909 
L 5381 1909 
L 5381 -866 
L 4881 -866 
L 4881 -447 
L 1525 -447 
L 1525 -878 
L 1025 -878 
L 1025 1909 
z
M 3700 5234 
L 3550 5053 
Q 4594 3697 6319 3009 
Q 6125 2734 5988 2509 
Q 5481 2753 5025 3059 
L 5025 2703 
L 1369 2703 
L 1369 3016 
Q 913 2716 394 2428 
Q 269 2641 81 2897 
Q 2013 3866 3000 5234 
L 3700 5234 
z
M 4881 1453 
L 1525 1453 
L 1525 -3 
L 4881 -3 
L 4881 1453 
z
M 3219 4691 
Q 2581 3872 1550 3147 
L 4894 3147 
Q 3944 3797 3219 4691 
z
" transform="scale(0.015625)"/>
        <path id="MicrosoftYaHei-7814" d="M 2506 2616 
L 3259 2616 
Q 3263 2763 3263 4478 
L 2756 4478 
L 2756 4941 
L 6063 4941 
L 6063 4478 
L 5431 4478 
L 5431 2616 
L 6288 2616 
L 6288 2153 
L 5431 2153 
L 5431 -803 
L 4950 -803 
L 4950 2153 
L 3728 2153 
Q 3713 303 2525 -853 
Q 2331 -659 2113 -491 
Q 3225 553 3241 2153 
L 2506 2153 
L 2506 2616 
z
M 238 4916 
L 2519 4916 
L 2519 4478 
L 1613 4478 
Q 1459 3725 1209 3059 
L 2263 3059 
L 2263 128 
L 1088 128 
L 1088 -391 
L 650 -391 
L 650 1875 
Q 522 1656 381 1453 
Q 238 1678 81 1841 
Q 872 3022 1147 4478 
L 238 4478 
L 238 4916 
z
M 3741 2616 
L 4950 2616 
L 4950 4478 
L 3744 4478 
Q 3744 2859 3741 2616 
z
M 1825 559 
L 1825 2628 
L 1088 2628 
L 1088 559 
L 1825 559 
z
" transform="scale(0.015625)"/>
        <path id="MicrosoftYaHei-7a76" d="M 4613 2053 
L 4613 266 
Q 4613 -147 4944 -147 
L 5394 -147 
Q 5694 -147 5731 159 
Q 5775 466 5806 997 
Q 6019 897 6294 809 
Q 6269 478 6200 9 
Q 6125 -616 5525 -616 
L 4806 -616 
Q 4106 -616 4106 222 
L 4106 1603 
L 2700 1603 
Q 2466 -219 456 -834 
Q 269 -528 156 -391 
Q 2000 156 2200 1603 
L 606 1603 
L 606 2053 
L 2250 2053 
Q 2281 2409 2306 2934 
L 2800 2934 
Q 2778 2431 2747 2053 
L 4613 2053 
z
M 388 4528 
L 3028 4528 
Q 2841 4884 2688 5128 
L 3131 5359 
Q 3338 5047 3563 4659 
L 3288 4528 
L 6031 4528 
L 6031 3291 
L 5531 3291 
L 5531 4066 
L 888 4066 
L 888 3291 
L 388 3291 
L 388 4528 
z
M 3938 3834 
Q 4950 3241 5988 2559 
L 5663 2134 
Q 4656 2866 3638 3484 
L 3938 3834 
z
M 2244 3847 
L 2588 3509 
Q 1600 2734 588 2172 
Q 406 2428 281 2572 
Q 1400 3128 2244 3847 
z
" transform="scale(0.015625)"/>
       </defs>
       <use xlink:href="#MicrosoftYaHei-6574"/>
       <use xlink:href="#MicrosoftYaHei-5408" x="100"/>
       <use xlink:href="#MicrosoftYaHei-7814" x="200"/>
       <use xlink:href="#MicrosoftYaHei-7a76" x="300"/>
      </g>
     </g>
    </g>
    <g id="xtick_5">
     <g id="line2d_5">
      <path d="M 295.2 290.88 
L 184.32 482.929794 
" clip-path="url(#pa564539e99)" style="fill: none; stroke: #b0b0b0; stroke-width: 0.8; stroke-linecap: square"/>
     </g>
     <g id="text_5">
      <!-- 大规模研究 -->
      <g transform="translate(147.32 498.358837) scale(0.12 -0.12)">
       <defs>
        <path id="MicrosoftYaHei-5927" d="M 88 -341 
Q 2666 806 2869 3103 
L 200 3103 
L 200 3591 
L 2891 3591 
Q 2906 4431 2906 5284 
L 3450 5284 
Q 3450 4444 3434 3591 
L 6206 3591 
L 6206 3103 
L 3425 3103 
Q 3869 606 6338 -191 
Q 6019 -497 5863 -697 
Q 3828 122 3203 2219 
Q 2716 322 475 -822 
Q 350 -653 88 -341 
z
" transform="scale(0.015625)"/>
        <path id="MicrosoftYaHei-89c4" d="M 4006 4047 
L 4469 4047 
L 4469 3116 
Q 4469 2272 4344 1653 
L 4756 1653 
L 4756 109 
Q 4756 -253 5100 -253 
L 5406 -253 
Q 5719 -253 5756 66 
Q 5800 428 5819 903 
Q 6113 778 6313 709 
Q 6269 266 6219 -84 
Q 6119 -691 5494 -691 
L 4975 -691 
Q 4300 -691 4300 34 
L 4300 1459 
Q 4019 234 2581 -878 
Q 2331 -597 2200 -478 
Q 3313 334 3669 1109 
Q 4006 1778 4006 3122 
L 4006 4047 
z
M 138 2559 
L 1100 2559 
Q 1113 2859 1113 3678 
L 219 3678 
L 219 4103 
L 1113 4103 
L 1113 5266 
L 1581 5266 
L 1581 4103 
L 2481 4103 
L 2481 3678 
L 1581 3678 
Q 1581 3216 1569 2559 
L 2581 2559 
L 2581 2134 
L 1544 2134 
Q 1538 1934 1513 1728 
Q 2106 1178 2788 491 
L 2400 128 
Q 1938 709 1431 1241 
Q 1144 59 394 -822 
Q 281 -653 94 -384 
Q 1038 791 1075 2134 
L 138 2134 
L 138 2559 
z
M 2763 5003 
L 5794 5003 
L 5794 1259 
L 5331 1259 
L 5331 4559 
L 3225 4559 
L 3225 1172 
L 2763 1172 
L 2763 5003 
z
" transform="scale(0.015625)"/>
       </defs>
       <use xlink:href="#MicrosoftYaHei-5927"/>
       <use xlink:href="#MicrosoftYaHei-89c4" x="100"/>
       <use xlink:href="#MicrosoftYaHei-6a21" x="200"/>
       <use xlink:href="#MicrosoftYaHei-7814" x="300"/>
       <use xlink:href="#MicrosoftYaHei-7a76" x="400"/>
      </g>
     </g>
    </g>
    <g id="xtick_6">
     <g id="line2d_6">
      <path d="M 295.2 290.88 
L 406.08 482.929794 
" clip-path="url(#pa564539e99)" style="fill: none; stroke: #b0b0b0; stroke-width: 0.8; stroke-linecap: square"/>
     </g>
     <g id="text_6">
      <!-- 基因测序 -->
      <g transform="translate(389.08 498.358837) scale(0.12 -0.12)">
       <defs>
        <path id="MicrosoftYaHei-57fa" d="M 6319 697 
Q 6113 441 5981 247 
Q 5406 519 4925 897 
L 4925 553 
L 3431 553 
L 3431 -97 
L 5875 -97 
L 5875 -503 
L 519 -503 
L 519 -97 
L 2963 -97 
L 2963 553 
L 1450 553 
L 1450 894 
Q 953 478 413 172 
Q 294 341 88 566 
Q 1050 1034 1753 1753 
L 156 1753 
L 156 2159 
L 1400 2159 
L 1400 4253 
L 350 4253 
L 350 4659 
L 1400 4659 
L 1400 5334 
L 1869 5334 
L 1869 4659 
L 4550 4659 
L 4550 5334 
L 5019 5334 
L 5019 4659 
L 6069 4659 
L 6069 4253 
L 5019 4253 
L 5019 2159 
L 6244 2159 
L 6244 1753 
L 4600 1753 
Q 5303 1053 6319 697 
z
M 2963 1553 
L 3431 1553 
L 3431 947 
L 4863 947 
Q 4416 1306 4047 1753 
L 2325 1753 
Q 1934 1309 1513 947 
L 2963 947 
L 2963 1553 
z
M 1869 2159 
L 4550 2159 
L 4550 2603 
L 1869 2603 
L 1869 2159 
z
M 1869 2991 
L 4550 2991 
L 4550 3428 
L 1869 3428 
L 1869 2991 
z
M 1869 3816 
L 4550 3816 
L 4550 4253 
L 1869 4253 
L 1869 3816 
z
" transform="scale(0.015625)"/>
        <path id="MicrosoftYaHei-56e0" d="M 525 4934 
L 5869 4934 
L 5869 -834 
L 5369 -834 
L 5369 -434 
L 1025 -434 
L 1025 -834 
L 525 -834 
L 525 4934 
z
M 5369 4466 
L 1025 4466 
L 1025 22 
L 5369 22 
L 5369 4466 
z
M 1400 3209 
L 2944 3209 
L 2944 4259 
L 3419 4259 
L 3419 3209 
L 5000 3209 
L 5000 2772 
L 3400 2772 
Q 3388 2522 3331 2291 
Q 4206 1591 5131 778 
L 4750 384 
Q 4031 1116 3194 1853 
Q 2788 866 1550 266 
Q 1381 497 1219 684 
Q 2844 1416 2925 2772 
L 1400 2772 
L 1400 3209 
z
" transform="scale(0.015625)"/>
        <path id="MicrosoftYaHei-6d4b" d="M 875 1753 
Q 1175 1597 1369 1522 
Q 950 -41 763 -784 
L 250 -547 
Q 619 497 875 1753 
z
M 638 5166 
Q 1019 4847 1588 4303 
Q 1381 4103 1213 3928 
Q 756 4434 313 4853 
L 638 5166 
z
M 356 3559 
Q 881 3134 1350 2716 
Q 1188 2547 988 2322 
Q 425 2878 50 3216 
L 356 3559 
z
M 5575 5284 
L 6031 5284 
L 6031 -34 
Q 6031 -753 5338 -753 
Q 5038 -753 4625 -741 
Q 4600 -509 4538 -228 
Q 4938 -272 5219 -272 
Q 5575 -272 5575 84 
L 5575 5284 
z
M 5038 634 
L 4600 634 
L 4600 4778 
L 5038 4778 
L 5038 634 
z
M 1706 4941 
L 4063 4941 
L 4063 991 
L 3613 991 
L 3613 4503 
L 2156 4503 
L 2156 991 
L 1706 991 
L 1706 4941 
z
M 2681 3966 
L 3138 3966 
L 3138 2416 
Q 3138 1466 2963 891 
Q 3775 266 4375 -234 
L 4038 -616 
Q 3538 -141 2800 472 
Q 2413 -297 1406 -884 
Q 1269 -684 1100 -484 
Q 2031 53 2375 709 
Q 2681 1278 2681 2403 
L 2681 3966 
z
" transform="scale(0.015625)"/>
        <path id="MicrosoftYaHei-5e8f" d="M 1438 1966 
L 3634 1966 
Q 3053 2394 2525 2722 
L 2825 3041 
Q 3294 2756 3719 2478 
L 4850 3147 
L 1806 3147 
L 1806 3597 
L 5756 3597 
L 5756 3141 
L 4141 2191 
Q 4219 2138 4294 2084 
L 4128 1966 
L 6181 1966 
L 6181 1503 
L 5638 384 
Q 5450 484 5175 609 
L 5619 1509 
L 4119 1509 
L 4119 22 
Q 4119 -734 3400 -734 
Q 3019 -734 2463 -722 
Q 2438 -509 2388 -184 
Q 2881 -253 3250 -253 
Q 3606 -253 3606 103 
L 3606 1509 
L 1438 1509 
L 1438 1966 
z
M 2981 5147 
L 3431 5391 
Q 3675 5078 3881 4747 
L 3584 4572 
L 6244 4572 
L 6244 4116 
L 1263 4116 
L 1263 2416 
Q 1263 191 406 -872 
Q 256 -666 50 -447 
Q 738 353 738 2291 
L 738 4572 
L 3369 4572 
Q 3178 4884 2981 5147 
z
" transform="scale(0.015625)"/>
       </defs>
       <use xlink:href="#MicrosoftYaHei-57fa"/>
       <use xlink:href="#MicrosoftYaHei-56e0" x="100"/>
       <use xlink:href="#MicrosoftYaHei-6d4b" x="200"/>
       <use xlink:href="#MicrosoftYaHei-5e8f" x="300"/>
      </g>
     </g>
    </g>
   </g>
   <g id="matplotlib.axis_2">
    <g id="ytick_1">
     <g id="line2d_7">
      <path d="M 337.23981 290.88 
C 337.23981 285.359383 336.152369 279.892446 334.03972 274.792061 
C 331.927072 269.691676 328.830301 265.057031 324.926635 261.153365 
C 321.022969 257.249699 316.388324 254.152928 311.287939 252.04028 
C 306.187554 249.927631 300.720617 248.84019 295.2 248.84019 
C 289.679383 248.84019 284.212446 249.927631 279.112061 252.04028 
C 274.011676 254.152928 269.377031 257.249699 265.473365 261.153365 
C 261.569699 265.057031 258.472928 269.691676 256.36028 274.792061 
C 254.247631 279.892446 253.16019 285.359383 253.16019 290.88 
C 253.16019 296.400617 254.247631 301.867554 256.36028 306.967939 
C 258.472928 312.068324 261.569699 316.702969 265.473365 320.606635 
C 269.377031 324.510301 274.011676 327.607072 279.112061 329.71972 
C 284.212446 331.832369 289.679383 332.91981 295.2 332.91981 
C 300.720617 332.91981 306.187554 331.832369 311.287939 329.71972 
C 316.388324 327.607072 321.022969 324.510301 324.926635 320.606635 
C 328.830301 316.702969 331.927072 312.068324 334.03972 306.967939 
C 336.152369 301.867554 337.23981 296.400617 337.23981 290.88 
" clip-path="url(#pa564539e99)" style="fill: none; stroke: #b0b0b0; stroke-width: 0.8; stroke-linecap: square"/>
     </g>
    </g>
    <g id="ytick_2">
     <g id="line2d_8">
      <path d="M 379.279621 290.88 
C 379.279621 279.838765 377.104738 268.904893 372.879441 258.704122 
C 368.654143 248.503351 362.460602 239.234062 354.65327 231.42673 
C 346.845938 223.619398 337.576649 217.425857 327.375878 213.200559 
C 317.175107 208.975262 306.241235 206.800379 295.2 206.800379 
C 284.158765 206.800379 273.224893 208.975262 263.024122 213.200559 
C 252.823351 217.425857 243.554062 223.619398 235.74673 231.42673 
C 227.939398 239.234062 221.745857 248.503351 217.520559 258.704122 
C 213.295262 268.904893 211.120379 279.838765 211.120379 290.88 
C 211.120379 301.921235 213.295262 312.855107 217.520559 323.055878 
C 221.745857 333.256649 227.939398 342.525938 235.74673 350.33327 
C 243.554062 358.140602 252.823351 364.334143 263.024122 368.559441 
C 273.224893 372.784738 284.158765 374.959621 295.2 374.959621 
C 306.241235 374.959621 317.175107 372.784738 327.375878 368.559441 
C 337.576649 364.334143 346.845938 358.140602 354.65327 350.33327 
C 362.460602 342.525938 368.654143 333.256649 372.879441 323.055878 
C 377.104738 312.855107 379.279621 301.921235 379.279621 290.88 
" clip-path="url(#pa564539e99)" style="fill: none; stroke: #b0b0b0; stroke-width: 0.8; stroke-linecap: square"/>
     </g>
    </g>
    <g id="ytick_3">
     <g id="line2d_9">
      <path d="M 421.319431 290.88 
C 421.319431 274.318148 418.057108 257.917339 411.719161 242.616183 
C 405.381215 227.315027 396.090903 213.411093 384.379905 201.700095 
C 372.668907 189.989097 358.764973 180.698785 343.463817 174.360839 
C 328.162661 168.022892 311.761852 164.760569 295.2 164.760569 
C 278.638148 164.760569 262.237339 168.022892 246.936183 174.360839 
C 231.635027 180.698785 217.731093 189.989097 206.020095 201.700095 
C 194.309097 213.411093 185.018785 227.315027 178.680839 242.616183 
C 172.342892 257.917339 169.080569 274.318148 169.080569 290.88 
C 169.080569 307.441852 172.342892 323.842661 178.680839 339.143817 
C 185.018785 354.444973 194.309097 368.348907 206.020095 380.059905 
C 217.731093 391.770903 231.635027 401.061215 246.936183 407.399161 
C 262.237339 413.737108 278.638148 416.999431 295.2 416.999431 
C 311.761852 416.999431 328.162661 413.737108 343.463817 407.399161 
C 358.764973 401.061215 372.668907 391.770903 384.379905 380.059905 
C 396.090903 368.348907 405.381215 354.444973 411.719161 339.143817 
C 418.057108 323.842661 421.319431 307.441852 421.319431 290.88 
" clip-path="url(#pa564539e99)" style="fill: none; stroke: #b0b0b0; stroke-width: 0.8; stroke-linecap: square"/>
     </g>
    </g>
    <g id="ytick_4">
     <g id="line2d_10">
      <path d="M 463.359242 290.88 
C 463.359242 268.797531 459.009477 246.929786 450.558882 226.528244 
C 442.108286 206.126703 429.721204 187.588124 414.10654 171.97346 
C 398.491876 156.358796 379.953297 143.971714 359.551756 135.521118 
C 339.150214 127.070523 317.282469 122.720758 295.2 122.720758 
C 273.117531 122.720758 251.249786 127.070523 230.848244 135.521118 
C 210.446703 143.971714 191.908124 156.358796 176.29346 171.97346 
C 160.678796 187.588124 148.291714 206.126703 139.841118 226.528244 
C 131.390523 246.929786 127.040758 268.797531 127.040758 290.88 
C 127.040758 312.962469 131.390523 334.830214 139.841118 355.231756 
C 148.291714 375.633297 160.678796 394.171876 176.29346 409.78654 
C 191.908124 425.401204 210.446703 437.788286 230.848244 446.238882 
C 251.249786 454.689477 273.117531 459.039242 295.2 459.039242 
C 317.282469 459.039242 339.150214 454.689477 359.551756 446.238882 
C 379.953297 437.788286 398.491876 425.401204 414.10654 409.78654 
C 429.721204 394.171876 442.108286 375.633297 450.558882 355.231756 
C 459.009477 334.830214 463.359242 312.962469 463.359242 290.88 
" clip-path="url(#pa564539e99)" style="fill: none; stroke: #b0b0b0; stroke-width: 0.8; stroke-linecap: square"/>
     </g>
    </g>
    <g id="ytick_5">
     <g id="line2d_11">
      <path d="M 505.399052 290.88 
C 505.399052 263.276913 499.961846 235.942232 489.398602 210.440305 
C 478.835358 184.938378 463.351505 161.765155 443.833175 142.246825 
C 424.314845 122.728495 401.141622 107.244642 375.639695 96.681398 
C 350.137768 86.118154 322.803087 80.680948 295.2 80.680948 
C 267.596913 80.680948 240.262232 86.118154 214.760305 96.681398 
C 189.258378 107.244642 166.085155 122.728495 146.566825 142.246825 
C 127.048495 161.765155 111.564642 184.938378 101.001398 210.440305 
C 90.438154 235.942232 85.000948 263.276913 85.000948 290.88 
C 85.000948 318.483087 90.438154 345.817768 101.001398 371.319695 
C 111.564642 396.821622 127.048495 419.994845 146.566825 439.513175 
C 166.085155 459.031505 189.258378 474.515358 214.760305 485.078602 
C 240.262232 495.641846 267.596913 501.079052 295.2 501.079052 
C 322.803087 501.079052 350.137768 495.641846 375.639695 485.078602 
C 401.141622 474.515358 424.314845 459.031505 443.833175 439.513175 
C 463.351505 419.994845 478.835358 396.821622 489.398602 371.319695 
C 499.961846 345.817768 505.399052 318.483087 505.399052 290.88 
" clip-path="url(#pa564539e99)" style="fill: none; stroke: #b0b0b0; stroke-width: 0.8; stroke-linecap: square"/>
     </g>
    </g>
   </g>
   <g id="line2d_12">
    <path d="M 505.399052 290.88 
L 400.299526 108.842281 
L 190.100474 108.842281 
L 85.000948 290.88 
L 190.100474 472.917719 
L 400.299526 472.917719 
L 505.399052 290.88 
" clip-path="url(#pa564539e99)" style="fill: none; stroke: #0000ff; stroke-width: 2; stroke-linecap: square"/>
   </g>
   <g id="patch_4">
    <path d="M 516.96 290.88 
C 516.96 261.758744 511.223747 232.920655 500.079525 206.016122 
C 488.935303 179.111589 472.599838 154.663838 452.008 134.072 
C 431.416162 113.480162 406.968411 97.144697 380.063878 86.000475 
C 353.159345 74.856253 324.321256 69.12 295.2 69.12 
C 266.078744 69.12 237.240655 74.856253 210.336122 86.000475 
C 183.431589 97.144697 158.983838 113.480162 138.392 134.072 
C 117.800162 154.663838 101.464697 179.111589 90.320475 206.016122 
C 79.176253 232.920655 73.44 261.758744 73.44 290.88 
C 73.44 320.001256 79.176253 348.839345 90.320475 375.743878 
C 101.464697 402.648411 117.800162 427.096162 138.392 447.688 
C 158.983838 468.279838 183.431589 484.615303 210.336122 495.759525 
C 237.240655 506.903747 266.078744 512.64 295.2 512.64 
C 324.321256 512.64 353.159345 506.903747 380.063878 495.759525 
C 406.968411 484.615303 431.416162 468.279838 452.008 447.688 
C 472.599838 427.096162 488.935303 402.648411 500.079525 375.743878 
C 511.223747 348.839345 516.96 320.001256 516.96 290.88 
" style="fill: none; stroke: #000000; stroke-width: 0.8; stroke-linejoin: miter; stroke-linecap: square"/>
   </g>
  </g>
 </g>
 <defs>
  <clipPath id="pa564539e99">
   <path d="M 516.96 290.88 
C 516.96 261.758744 511.223747 232.920655 500.079525 206.016122 
C 488.935303 179.111589 472.599838 154.663838 452.008 134.072 
C 431.416162 113.480162 406.968411 97.144697 380.063878 86.000475 
C 353.159345 74.856253 324.321256 69.12 295.2 69.12 
C 266.078744 69.12 237.240655 74.856253 210.336122 86.000475 
C 183.431589 97.144697 158.983838 113.480162 138.392 134.072 
C 117.800162 154.663838 101.464697 179.111589 90.320475 206.016122 
C 79.176253 232.920655 73.44 261.758744 73.44 290.88 
C 73.44 320.001256 79.176253 348.839345 90.320475 375.743878 
C 101.464697 402.648411 117.800162 427.096162 138.392 447.688 
C 158.983838 468.279838 183.431589 484.615303 210.336122 495.759525 
C 237.240655 506.903747 266.078744 512.64 295.2 512.64 
C 324.321256 512.64 353.159345 506.903747 380.063878 495.759525 
C 406.968411 484.615303 431.416162 468.279838 452.008 447.688 
C 472.599838 427.096162 488.935303 402.648411 500.079525 375.743878 
C 511.223747 348.839345 516.96 320.001256 516.96 290.88 
M 295.2 290.88 
C 295.2 290.88 295.2 290.88 295.2 290.88 
C 295.2 290.88 295.2 290.88 295.2 290.88 
C 295.2 290.88 295.2 290.88 295.2 290.88 
C 295.2 290.88 295.2 290.88 295.2 290.88 
C 295.2 290.88 295.2 290.88 295.2 290.88 
C 295.2 290.88 295.2 290.88 295.2 290.88 
C 295.2 290.88 295.2 290.88 295.2 290.88 
C 295.2 290.88 295.2 290.88 295.2 290.88 
C 295.2 290.88 295.2 290.88 295.2 290.88 
C 295.2 290.88 295.2 290.88 295.2 290.88 
C 295.2 290.88 295.2 290.88 295.2 290.88 
C 295.2 290.88 295.2 290.88 295.2 290.88 
C 295.2 290.88 295.2 290.88 295.2 290.88 
C 295.2 290.88 295.2 290.88 295.2 290.88 
C 295.2 290.88 295.2 290.88 295.2 290.88 
C 295.2 290.88 295.2 290.88 295.2 290.88 
z
"/>
  </clipPath>
 </defs>
</svg>
