<?xml version="1.0" encoding="utf-8" standalone="no"?>
<!DOCTYPE svg PUBLIC "-//W3C//DTD SVG 1.1//EN"
  "http://www.w3.org/Graphics/SVG/1.1/DTD/svg11.dtd">
<svg xmlns:xlink="http://www.w3.org/1999/xlink" width="1008pt" height="720pt" viewBox="0 0 1008 720" xmlns="http://www.w3.org/2000/svg" version="1.1">
 <metadata>
  <rdf:RDF xmlns:dc="http://purl.org/dc/elements/1.1/" xmlns:cc="http://creativecommons.org/ns#" xmlns:rdf="http://www.w3.org/1999/02/22-rdf-syntax-ns#">
   <cc:Work>
    <dc:type rdf:resource="http://purl.org/dc/dcmitype/StillImage"/>
    <dc:date>2024-08-26T12:34:06.507280</dc:date>
    <dc:format>image/svg+xml</dc:format>
    <dc:creator>
     <cc:Agent>
      <dc:title>Matplotlib v3.7.0, https://matplotlib.org/</dc:title>
     </cc:Agent>
    </dc:creator>
   </cc:Work>
  </rdf:RDF>
 </metadata>
 <defs>
  <style type="text/css">*{stroke-linejoin: round; stroke-linecap: butt}</style>
 </defs>
 <g id="figure_1">
  <g id="patch_1">
   <path d="M 0 720 
L 1008 720 
L 1008 0 
L 0 0 
z
" style="fill: #ffffff"/>
  </g>
  <g id="axes_1">
   <g id="patch_2">
    <path d="M 48.8 674.44 
L 923.16 674.44 
L 923.16 12.96 
L 48.8 12.96 
z
" style="fill: #ffffff"/>
   </g>
   <g id="PathCollection_1">
    <defs>
     <path id="m38d88f3e27" d="M 0 5 
C 1.326016 5 2.597899 4.473168 3.535534 3.535534 
C 4.473168 2.597899 5 1.326016 5 0 
C 5 -1.326016 4.473168 -2.597899 3.535534 -3.535534 
C 2.597899 -4.473168 1.326016 -5 0 -5 
C -1.326016 -5 -2.597899 -4.473168 -3.535534 -3.535534 
C -4.473168 -2.597899 -5 -1.326016 -5 0 
C -5 1.326016 -4.473168 2.597899 -3.535534 3.535534 
C -2.597899 4.473168 -1.326016 5 0 5 
z
" style="stroke: #ffb6c1"/>
    </defs>
    <g clip-path="url(#p039db5aa19)">
     <use xlink:href="#m38d88f3e27" x="416.932478" y="385.637237" style="fill: #ffb6c1; stroke: #ffb6c1"/>
     <use xlink:href="#m38d88f3e27" x="740.593154" y="349.412399" style="fill: #ffb6c1; stroke: #ffb6c1"/>
     <use xlink:href="#m38d88f3e27" x="387.227193" y="365.080644" style="fill: #ffb6c1; stroke: #ffb6c1"/>
     <use xlink:href="#m38d88f3e27" x="88.749771" y="644.12954" style="fill: #ffb6c1; stroke: #ffb6c1"/>
     <use xlink:href="#m38d88f3e27" x="468.071634" y="284.334972" style="fill: #ffb6c1; stroke: #ffb6c1"/>
     <use xlink:href="#m38d88f3e27" x="465.335844" y="50.39056" style="fill: #ffb6c1; stroke: #ffb6c1"/>
     <use xlink:href="#m38d88f3e27" x="509.08524" y="339.23637" style="fill: #ffb6c1; stroke: #ffb6c1"/>
     <use xlink:href="#m38d88f3e27" x="500.246966" y="419.598345" style="fill: #ffb6c1; stroke: #ffb6c1"/>
     <use xlink:href="#m38d88f3e27" x="528.882049" y="327.180585" style="fill: #ffb6c1; stroke: #ffb6c1"/>
     <use xlink:href="#m38d88f3e27" x="642.758014" y="255.668385" style="fill: #ffb6c1; stroke: #ffb6c1"/>
     <use xlink:href="#m38d88f3e27" x="637.695954" y="196.283096" style="fill: #ffb6c1; stroke: #ffb6c1"/>
     <use xlink:href="#m38d88f3e27" x="373.458418" y="446.702954" style="fill: #ffb6c1; stroke: #ffb6c1"/>
     <use xlink:href="#m38d88f3e27" x="355.529698" y="460.053942" style="fill: #ffb6c1; stroke: #ffb6c1"/>
     <use xlink:href="#m38d88f3e27" x="391.31284" y="423.28579" style="fill: #ffb6c1; stroke: #ffb6c1"/>
     <use xlink:href="#m38d88f3e27" x="477.227348" y="253.355754" style="fill: #ffb6c1; stroke: #ffb6c1"/>
     <use xlink:href="#m38d88f3e27" x="402.644518" y="391.920865" style="fill: #ffb6c1; stroke: #ffb6c1"/>
     <use xlink:href="#m38d88f3e27" x="314.056857" y="504.469603" style="fill: #ffb6c1; stroke: #ffb6c1"/>
     <use xlink:href="#m38d88f3e27" x="375.167738" y="435.574254" style="fill: #ffb6c1; stroke: #ffb6c1"/>
     <use xlink:href="#m38d88f3e27" x="367.747079" y="448.968158" style="fill: #ffb6c1; stroke: #ffb6c1"/>
    </g>
   </g>
   <g id="PathCollection_2">
    <defs>
     <path id="mf3aaab1ccb" d="M 0 5 
C 1.326016 5 2.597899 4.473168 3.535534 3.535534 
C 4.473168 2.597899 5 1.326016 5 0 
C 5 -1.326016 4.473168 -2.597899 3.535534 -3.535534 
C 2.597899 -4.473168 1.326016 -5 0 -5 
C -1.326016 -5 -2.597899 -4.473168 -3.535534 -3.535534 
C -4.473168 -2.597899 -5 -1.326016 -5 0 
C -5 1.326016 -4.473168 2.597899 -3.535534 3.535534 
C -2.597899 4.473168 -1.326016 5 0 5 
z
" style="stroke: #ff7f0e"/>
    </defs>
    <g clip-path="url(#p039db5aa19)">
     <use xlink:href="#mf3aaab1ccb" x="443.489557" y="374.01585" style="fill: #ff7f0e; stroke: #ff7f0e"/>
     <use xlink:href="#mf3aaab1ccb" x="880.571309" y="360.678792" style="fill: #ff7f0e; stroke: #ff7f0e"/>
     <use xlink:href="#mf3aaab1ccb" x="383.427067" y="360.857815" style="fill: #ff7f0e; stroke: #ff7f0e"/>
     <use xlink:href="#mf3aaab1ccb" x="158.123845" y="554.48907" style="fill: #ff7f0e; stroke: #ff7f0e"/>
     <use xlink:href="#mf3aaab1ccb" x="511.397068" y="206.946469" style="fill: #ff7f0e; stroke: #ff7f0e"/>
     <use xlink:href="#mf3aaab1ccb" x="451.691801" y="198.253186" style="fill: #ff7f0e; stroke: #ff7f0e"/>
     <use xlink:href="#mf3aaab1ccb" x="564.964588" y="258.272676" style="fill: #ff7f0e; stroke: #ff7f0e"/>
     <use xlink:href="#mf3aaab1ccb" x="529.716936" y="356.571339" style="fill: #ff7f0e; stroke: #ff7f0e"/>
     <use xlink:href="#mf3aaab1ccb" x="605.887399" y="243.228295" style="fill: #ff7f0e; stroke: #ff7f0e"/>
     <use xlink:href="#mf3aaab1ccb" x="784.790049" y="74.909217" style="fill: #ff7f0e; stroke: #ff7f0e"/>
     <use xlink:href="#mf3aaab1ccb" x="741.745156" y="45.705238" style="fill: #ff7f0e; stroke: #ff7f0e"/>
     <use xlink:href="#mf3aaab1ccb" x="403.733874" y="439.894144" style="fill: #ff7f0e; stroke: #ff7f0e"/>
     <use xlink:href="#mf3aaab1ccb" x="360.721609" y="441.867208" style="fill: #ff7f0e; stroke: #ff7f0e"/>
     <use xlink:href="#mf3aaab1ccb" x="427.294173" y="409.562186" style="fill: #ff7f0e; stroke: #ff7f0e"/>
     <use xlink:href="#mf3aaab1ccb" x="501.70399" y="269.351073" style="fill: #ff7f0e; stroke: #ff7f0e"/>
     <use xlink:href="#mf3aaab1ccb" x="430.158531" y="370.706806" style="fill: #ff7f0e; stroke: #ff7f0e"/>
     <use xlink:href="#mf3aaab1ccb" x="380.135821" y="438.819121" style="fill: #ff7f0e; stroke: #ff7f0e"/>
     <use xlink:href="#mf3aaab1ccb" x="396.193192" y="409.426783" style="fill: #ff7f0e; stroke: #ff7f0e"/>
     <use xlink:href="#mf3aaab1ccb" x="381.972437" y="431.635765" style="fill: #ff7f0e; stroke: #ff7f0e"/>
    </g>
   </g>
   <g id="patch_3">
    <path d="M 446.176854 372.839888 
L 443.965785 375.674804 
L 443.584803 374.347641 
L 417.027724 385.969028 
L 416.837233 385.305447 
L 443.394312 373.684059 
L 443.01333 372.356896 
z
" clip-path="url(#p039db5aa19)" style="fill: #808080; opacity: 0.6; stroke: #808080; stroke-linejoin: miter"/>
   </g>
   <g id="patch_4">
    <path d="M 883.416364 360.907781 
L 880.478576 362.435135 
L 880.552762 361.030061 
L 740.574607 349.763668 
L 740.611701 349.061131 
L 880.589856 360.327523 
L 880.664043 358.922449 
z
" clip-path="url(#p039db5aa19)" style="fill: #808080; opacity: 0.6; stroke: #808080; stroke-linejoin: miter"/>
   </g>
   <g id="patch_5">
    <path d="M 381.307897 358.502921 
L 384.380724 359.549583 
L 383.617798 360.596169 
L 387.417925 364.818998 
L 387.036462 365.34229 
L 383.236335 361.119461 
L 382.473409 362.166046 
z
" clip-path="url(#p039db5aa19)" style="fill: #808080; opacity: 0.6; stroke: #808080; stroke-linejoin: miter"/>
   </g>
   <g id="patch_6">
    <path d="M 160.093511 551.944 
L 159.154518 555.705008 
L 158.329979 554.732257 
L 88.955906 644.372727 
L 88.543636 643.886352 
L 157.91771 554.245882 
L 157.093172 553.273131 
z
" clip-path="url(#p039db5aa19)" style="fill: #808080; opacity: 0.6; stroke: #808080; stroke-linejoin: miter"/>
   </g>
   <g id="patch_7">
    <path d="M 513.018211 204.05076 
L 512.569739 207.947253 
L 511.631602 207.146626 
L 468.306168 284.535129 
L 467.8371 284.134816 
L 511.162534 206.746312 
L 510.224397 205.945685 
z
" clip-path="url(#p039db5aa19)" style="fill: #808080; opacity: 0.6; stroke: #808080; stroke-linejoin: miter"/>
   </g>
   <g id="patch_8">
    <path d="M 451.369067 201.750703 
L 450.275416 198.053952 
L 451.408524 198.21334 
L 465.052568 50.350714 
L 465.619121 50.430407 
L 451.975077 198.293033 
L 453.108185 198.45242 
z
" clip-path="url(#p039db5aa19)" style="fill: #808080; opacity: 0.6; stroke: #808080; stroke-linejoin: miter"/>
   </g>
   <g id="patch_9">
    <path d="M 566.813786 255.59337 
L 566.049622 259.414245 
L 565.181595 258.50099 
L 509.302247 339.464684 
L 508.868233 339.008056 
L 564.747581 258.044362 
L 563.879553 257.131107 
z
" clip-path="url(#p039db5aa19)" style="fill: #808080; opacity: 0.6; stroke: #808080; stroke-linejoin: miter"/>
   </g>
   <g id="patch_10">
    <path d="M 531.14239 353.522741 
L 530.951522 357.451318 
L 529.963853 356.747335 
L 500.493883 419.774341 
L 500.000049 419.422349 
L 529.470019 356.395344 
L 528.482349 355.691361 
z
" clip-path="url(#p039db5aa19)" style="fill: #808080; opacity: 0.6; stroke: #808080; stroke-linejoin: miter"/>
   </g>
   <g id="patch_11">
    <path d="M 608.024565 240.898326 
L 606.830962 244.547637 
L 606.076111 243.492163 
L 529.070762 327.444454 
L 528.693336 326.916717 
L 605.698686 242.964427 
L 604.943835 241.908954 
z
" clip-path="url(#p039db5aa19)" style="fill: #808080; opacity: 0.6; stroke: #808080; stroke-linejoin: miter"/>
   </g>
   <g id="patch_12">
    <path d="M 786.775293 72.382666 
L 785.813222 76.134772 
L 784.994683 75.154328 
L 642.962648 255.913496 
L 642.553379 255.423274 
L 784.585414 74.664106 
L 783.766875 73.683662 
z
" clip-path="url(#p039db5aa19)" style="fill: #808080; opacity: 0.6; stroke: #808080; stroke-linejoin: miter"/>
   </g>
   <g id="patch_13">
    <path d="M 743.595628 43.027273 
L 742.829647 46.847593 
L 741.962054 45.933709 
L 637.912852 196.511567 
L 637.479056 196.054625 
L 741.528258 45.476767 
L 740.660665 44.562882 
z
" clip-path="url(#p039db5aa19)" style="fill: #808080; opacity: 0.6; stroke: #808080; stroke-linejoin: miter"/>
   </g>
   <g id="patch_14">
    <path d="M 406.538814 439.263326 
L 403.989335 441.625724 
L 403.784966 440.24046 
L 373.50951 447.04927 
L 373.407326 446.356638 
L 403.682782 439.547829 
L 403.478412 438.162565 
z
" clip-path="url(#p039db5aa19)" style="fill: #808080; opacity: 0.6; stroke: #808080; stroke-linejoin: miter"/>
   </g>
   <g id="patch_15">
    <path d="M 361.669382 438.547256 
L 362.066085 442.452298 
L 360.990504 441.984226 
L 355.798593 460.17096 
L 355.260803 459.936924 
L 360.452714 441.75019 
L 359.377134 441.282117 
z
" clip-path="url(#p039db5aa19)" style="fill: #ff0000; opacity: 0.6; stroke: #ff0000; stroke-linejoin: miter"/>
   </g>
   <g id="patch_16">
    <path d="M 430.018249 408.5232 
L 427.71493 411.243845 
L 427.378325 409.898518 
L 391.396992 423.622122 
L 391.228689 422.949459 
L 427.210022 409.225855 
L 426.873416 407.880527 
z
" clip-path="url(#p039db5aa19)" style="fill: #808080; opacity: 0.6; stroke: #808080; stroke-linejoin: miter"/>
   </g>
   <g id="patch_17">
    <path d="M 504.223881 270.997804 
L 501.037116 270.906682 
L 501.570615 269.662195 
L 477.093973 253.666875 
L 477.360723 253.044632 
L 501.837365 269.039951 
L 502.370864 267.795464 
z
" clip-path="url(#p039db5aa19)" style="fill: #808080; opacity: 0.6; stroke: #808080; stroke-linejoin: miter"/>
   </g>
   <g id="patch_18">
    <path d="M 432.576814 368.842243 
L 430.91362 372.19969 
L 430.309549 371.005383 
L 402.795536 392.219442 
L 402.4935 391.622288 
L 430.007513 370.408229 
L 429.403442 369.213922 
z
" clip-path="url(#p039db5aa19)" style="fill: #808080; opacity: 0.6; stroke: #808080; stroke-linejoin: miter"/>
   </g>
   <g id="patch_19">
    <path d="M 382.357066 436.61228 
L 381.029522 440.190366 
L 380.314561 439.09337 
L 314.235597 504.743852 
L 313.878117 504.195354 
L 379.957081 438.544872 
L 379.24212 437.447875 
z
" clip-path="url(#p039db5aa19)" style="fill: #ff0000; opacity: 0.6; stroke: #ff0000; stroke-linejoin: miter"/>
   </g>
   <g id="patch_20">
    <path d="M 398.201928 406.928698 
L 397.204838 410.666841 
L 396.395521 409.674795 
L 375.370067 435.822266 
L 374.965409 435.326243 
L 395.990862 409.178772 
L 395.181546 408.186726 
z
" clip-path="url(#p039db5aa19)" style="fill: #808080; opacity: 0.6; stroke: #808080; stroke-linejoin: miter"/>
   </g>
   <g id="patch_21">
    <path d="M 384.001773 429.16319 
L 382.973751 432.888539 
L 382.1727 431.88632 
L 367.947342 449.218712 
L 367.546816 448.717603 
L 381.772174 431.38521 
L 380.971122 430.38299 
z
" clip-path="url(#p039db5aa19)" style="fill: #808080; opacity: 0.6; stroke: #808080; stroke-linejoin: miter"/>
   </g>
   <g id="matplotlib.axis_1">
    <g id="xtick_1">
     <g id="line2d_1">
      <path d="M 122.709112 674.44 
L 122.709112 12.96 
" clip-path="url(#p039db5aa19)" style="fill: none; stroke: #b0b0b0; stroke-width: 0.8; stroke-linecap: square"/>
     </g>
     <g id="line2d_2">
      <defs>
       <path id="mf19407a992" d="M 0 0 
L 0 3.5 
" style="stroke: #000000; stroke-width: 0.8"/>
      </defs>
      <g>
       <use xlink:href="#mf19407a992" x="122.709112" y="674.44" style="stroke: #000000; stroke-width: 0.8"/>
      </g>
     </g>
     <g id="text_1">
      <!-- 0.6 -->
      <g transform="translate(115.771612 689.226875) scale(0.12 -0.12)">
       <defs>
        <path id="Garamond-30" d="M 2800 1972 
Q 2800 1650 2753 1400 
Q 2669 969 2519 678 
Q 2369 388 2163 188 
Q 2013 41 1844 -26 
Q 1675 -94 1500 -94 
Q 1191 -94 914 112 
Q 638 319 431 794 
Q 225 1269 225 1913 
Q 225 2416 350 2878 
Q 475 3341 679 3595 
Q 884 3850 1086 3962 
Q 1288 4075 1525 4075 
Q 1859 4075 2173 3812 
Q 2488 3550 2675 2997 
Q 2800 2625 2800 1972 
z
M 2331 2075 
Q 2328 2844 2275 3119 
Q 2188 3572 1989 3753 
Q 1791 3934 1525 3934 
Q 1303 3934 1104 3790 
Q 906 3647 831 3341 
Q 703 2844 703 1834 
Q 703 834 901 436 
Q 1100 38 1497 38 
Q 1769 38 1967 206 
Q 2166 375 2252 833 
Q 2338 1291 2334 1859 
L 2331 2075 
z
" transform="scale(0.015625)"/>
        <path id="Garamond-2e" d="M 375 253 
Q 375 391 476 494 
Q 578 597 713 597 
Q 844 597 934 500 
Q 1025 403 1025 256 
Q 1025 109 929 9 
Q 834 -91 700 -91 
Q 569 -91 472 11 
Q 375 113 375 253 
z
" transform="scale(0.015625)"/>
        <path id="Garamond-36" d="M 2459 4094 
Q 2488 4047 2500 3991 
Q 2481 3956 2441 3944 
Q 2309 3909 2053 3763 
Q 1994 3731 1691 3472 
Q 1556 3378 1366 3122 
Q 1106 2778 993 2508 
Q 881 2238 794 1800 
Q 769 1675 759 1359 
L 750 1244 
Q 750 844 986 445 
Q 1222 47 1575 47 
Q 1759 47 1920 159 
Q 2081 272 2175 540 
Q 2269 809 2269 1191 
Q 2269 1709 2070 1957 
Q 1872 2206 1594 2206 
Q 1509 2206 1444 2181 
L 1419 2175 
Q 1378 2175 1334 2266 
Q 1416 2319 1531 2353 
Q 1647 2388 1681 2388 
Q 1703 2388 1966 2341 
L 2056 2297 
Q 2206 2250 2284 2188 
Q 2428 2072 2541 1897 
Q 2597 1806 2691 1528 
Q 2697 1509 2734 1253 
L 2719 941 
Q 2653 659 2594 547 
Q 2506 375 2300 172 
Q 2194 69 2025 3 
Q 1788 -88 1522 -88 
Q 1016 -88 664 317 
Q 313 722 313 1491 
Q 313 1919 444 2301 
Q 575 2684 816 3003 
Q 978 3219 1258 3466 
Q 1538 3713 1788 3850 
Q 2128 4031 2459 4094 
z
" transform="scale(0.015625)"/>
       </defs>
       <use xlink:href="#Garamond-30"/>
       <use xlink:href="#Garamond-2e" x="46.875"/>
       <use xlink:href="#Garamond-36" x="68.75"/>
      </g>
     </g>
    </g>
    <g id="xtick_2">
     <g id="line2d_3">
      <path d="M 236.752845 674.44 
L 236.752845 12.96 
" clip-path="url(#p039db5aa19)" style="fill: none; stroke: #b0b0b0; stroke-width: 0.8; stroke-linecap: square"/>
     </g>
     <g id="line2d_4">
      <g>
       <use xlink:href="#mf19407a992" x="236.752845" y="674.44" style="stroke: #000000; stroke-width: 0.8"/>
      </g>
     </g>
     <g id="text_2">
      <!-- 0.8 -->
      <g transform="translate(229.815345 689.226875) scale(0.12 -0.12)">
       <defs>
        <path id="Garamond-38" d="M 1206 1997 
Q 903 2159 794 2256 
Q 638 2391 533 2603 
Q 428 2816 428 3038 
Q 428 3425 736 3739 
Q 1044 4053 1491 4053 
Q 1994 4053 2287 3787 
Q 2581 3522 2581 3141 
Q 2581 2928 2493 2753 
Q 2406 2578 2234 2438 
Q 2119 2341 1838 2197 
Q 2266 1969 2347 1903 
Q 2516 1772 2631 1556 
Q 2747 1341 2747 1078 
Q 2747 588 2408 250 
Q 2069 -88 1544 -88 
Q 1003 -88 683 207 
Q 363 503 363 938 
Q 363 1184 447 1386 
Q 531 1588 709 1731 
Q 847 1841 1206 1997 
z
M 1697 2269 
Q 1959 2413 2063 2566 
Q 2231 2819 2231 3141 
Q 2231 3391 2131 3570 
Q 2031 3750 1864 3828 
Q 1697 3906 1503 3906 
Q 1194 3906 994 3693 
Q 794 3481 794 3172 
Q 794 2991 847 2870 
Q 900 2750 1016 2647 
Q 1091 2578 1366 2400 
Q 1406 2375 1563 2322 
Q 1609 2306 1697 2269 
z
M 1359 1928 
Q 1134 1809 1044 1719 
Q 906 1588 828 1406 
Q 750 1225 750 906 
Q 750 572 897 381 
Q 1141 66 1534 66 
Q 1894 66 2123 294 
Q 2353 522 2353 881 
Q 2353 1272 2120 1500 
Q 1888 1728 1359 1928 
z
" transform="scale(0.015625)"/>
       </defs>
       <use xlink:href="#Garamond-30"/>
       <use xlink:href="#Garamond-2e" x="46.875"/>
       <use xlink:href="#Garamond-38" x="68.75"/>
      </g>
     </g>
    </g>
    <g id="xtick_3">
     <g id="line2d_5">
      <path d="M 350.796577 674.44 
L 350.796577 12.96 
" clip-path="url(#p039db5aa19)" style="fill: none; stroke: #b0b0b0; stroke-width: 0.8; stroke-linecap: square"/>
     </g>
     <g id="line2d_6">
      <g>
       <use xlink:href="#mf19407a992" x="350.796577" y="674.44" style="stroke: #000000; stroke-width: 0.8"/>
      </g>
     </g>
     <g id="text_3">
      <!-- 1.0 -->
      <g transform="translate(343.859077 689.226875) scale(0.12 -0.12)">
       <defs>
        <path id="Garamond-31" d="M 2269 6 
L 838 6 
Q 834 34 834 53 
Q 834 106 856 126 
Q 878 147 994 169 
Q 1175 206 1288 259 
Q 1319 328 1319 388 
L 1319 581 
Q 1319 616 1328 897 
Q 1331 1003 1334 1816 
L 1341 2550 
L 1334 2978 
Q 1334 3072 1341 3569 
Q 631 3063 563 3063 
Q 538 3063 509 3089 
Q 481 3116 481 3141 
Q 481 3172 503 3191 
Q 547 3231 713 3325 
Q 738 3338 928 3494 
Q 1231 3747 1372 3890 
Q 1513 4034 1544 4053 
Q 1606 4056 1641 4056 
Q 1722 4056 1742 4029 
Q 1763 4003 1763 3838 
L 1741 1053 
L 1741 778 
Q 1741 678 1737 576 
Q 1734 475 1734 428 
Q 1734 316 1763 281 
Q 1781 259 1878 225 
L 2091 181 
Q 2228 147 2241 134 
Q 2272 106 2272 47 
L 2269 6 
z
" transform="scale(0.015625)"/>
       </defs>
       <use xlink:href="#Garamond-31"/>
       <use xlink:href="#Garamond-2e" x="46.875"/>
       <use xlink:href="#Garamond-30" x="68.75"/>
      </g>
     </g>
    </g>
    <g id="xtick_4">
     <g id="line2d_7">
      <path d="M 464.84031 674.44 
L 464.84031 12.96 
" clip-path="url(#p039db5aa19)" style="fill: none; stroke: #b0b0b0; stroke-width: 0.8; stroke-linecap: square"/>
     </g>
     <g id="line2d_8">
      <g>
       <use xlink:href="#mf19407a992" x="464.84031" y="674.44" style="stroke: #000000; stroke-width: 0.8"/>
      </g>
     </g>
     <g id="text_4">
      <!-- 1.2 -->
      <g transform="translate(457.90281 689.226875) scale(0.12 -0.12)">
       <defs>
        <path id="Garamond-32" d="M 2728 6 
Q 2259 25 1472 25 
L 794 6 
L 491 16 
L 250 6 
Q 213 9 141 22 
Q 197 153 284 263 
Q 544 581 1044 1084 
Q 1744 1788 1966 2189 
Q 2188 2591 2188 2944 
Q 2188 3275 1963 3500 
Q 1738 3725 1409 3725 
Q 1213 3725 1028 3633 
Q 844 3541 731 3400 
Q 659 3309 541 3038 
Q 475 2888 463 2875 
Q 444 2853 419 2853 
Q 394 2853 370 2879 
Q 347 2906 347 2947 
Q 347 3088 489 3397 
Q 631 3706 907 3881 
Q 1184 4056 1550 4056 
Q 2028 4056 2348 3745 
Q 2669 3434 2669 3003 
Q 2669 2663 2450 2311 
Q 2231 1959 1444 1234 
Q 1184 997 1075 884 
Q 966 772 634 397 
Q 1113 378 1503 378 
Q 1588 378 1688 384 
Q 1872 391 1903 391 
L 2338 381 
Q 2409 381 2484 450 
Q 2559 519 2688 838 
L 2763 841 
Q 2778 841 2809 838 
Q 2825 806 2825 791 
L 2819 766 
Q 2794 675 2775 434 
Q 2763 294 2728 6 
z
" transform="scale(0.015625)"/>
       </defs>
       <use xlink:href="#Garamond-31"/>
       <use xlink:href="#Garamond-2e" x="46.875"/>
       <use xlink:href="#Garamond-32" x="68.75"/>
      </g>
     </g>
    </g>
    <g id="xtick_5">
     <g id="line2d_9">
      <path d="M 578.884043 674.44 
L 578.884043 12.96 
" clip-path="url(#p039db5aa19)" style="fill: none; stroke: #b0b0b0; stroke-width: 0.8; stroke-linecap: square"/>
     </g>
     <g id="line2d_10">
      <g>
       <use xlink:href="#mf19407a992" x="578.884043" y="674.44" style="stroke: #000000; stroke-width: 0.8"/>
      </g>
     </g>
     <g id="text_5">
      <!-- 1.4 -->
      <g transform="translate(571.946543 689.226875) scale(0.12 -0.12)">
       <defs>
        <path id="Garamond-34" d="M 2097 4075 
L 2241 4075 
Q 2238 3978 2238 3959 
L 2247 3500 
L 2228 3088 
L 2241 2628 
L 2241 2266 
L 2247 1772 
Q 2247 1656 2241 1422 
L 2306 1419 
L 2528 1419 
L 2741 1416 
L 2916 1422 
Q 2922 1325 2922 1278 
Q 2922 1231 2916 1134 
Q 2722 1125 2706 1125 
L 2550 1128 
L 2425 1128 
Q 2375 1128 2241 1134 
Q 2234 691 2241 -44 
Q 2222 -63 2200 -69 
L 2006 -75 
Q 1944 -75 1816 -69 
Q 1825 300 1825 459 
Q 1825 600 1819 716 
Q 1809 928 1809 959 
Q 1809 1016 1816 1134 
Q 1684 1119 1613 1119 
Q 1575 1119 1528 1122 
Q 1213 1138 1172 1138 
Q 1131 1138 972 1116 
L 650 1134 
L 475 1125 
L 356 1144 
L 206 1113 
L 178 1134 
Q 172 1203 172 1238 
Q 172 1272 178 1341 
Q 266 1456 500 1809 
L 1109 2694 
Q 1334 3028 1487 3225 
Q 1641 3422 1791 3648 
Q 1941 3875 2097 4075 
z
M 1816 1422 
L 1819 1934 
L 1816 2341 
L 1816 3388 
Q 1559 3050 1103 2366 
Q 581 1584 484 1422 
Q 622 1428 691 1428 
L 1547 1416 
Q 1641 1416 1816 1422 
z
" transform="scale(0.015625)"/>
       </defs>
       <use xlink:href="#Garamond-31"/>
       <use xlink:href="#Garamond-2e" x="46.875"/>
       <use xlink:href="#Garamond-34" x="68.75"/>
      </g>
     </g>
    </g>
    <g id="xtick_6">
     <g id="line2d_11">
      <path d="M 692.927776 674.44 
L 692.927776 12.96 
" clip-path="url(#p039db5aa19)" style="fill: none; stroke: #b0b0b0; stroke-width: 0.8; stroke-linecap: square"/>
     </g>
     <g id="line2d_12">
      <g>
       <use xlink:href="#mf19407a992" x="692.927776" y="674.44" style="stroke: #000000; stroke-width: 0.8"/>
      </g>
     </g>
     <g id="text_6">
      <!-- 1.6 -->
      <g transform="translate(685.990276 689.226875) scale(0.12 -0.12)">
       <use xlink:href="#Garamond-31"/>
       <use xlink:href="#Garamond-2e" x="46.875"/>
       <use xlink:href="#Garamond-36" x="68.75"/>
      </g>
     </g>
    </g>
    <g id="xtick_7">
     <g id="line2d_13">
      <path d="M 806.971509 674.44 
L 806.971509 12.96 
" clip-path="url(#p039db5aa19)" style="fill: none; stroke: #b0b0b0; stroke-width: 0.8; stroke-linecap: square"/>
     </g>
     <g id="line2d_14">
      <g>
       <use xlink:href="#mf19407a992" x="806.971509" y="674.44" style="stroke: #000000; stroke-width: 0.8"/>
      </g>
     </g>
     <g id="text_7">
      <!-- 1.8 -->
      <g transform="translate(800.034009 689.226875) scale(0.12 -0.12)">
       <use xlink:href="#Garamond-31"/>
       <use xlink:href="#Garamond-2e" x="46.875"/>
       <use xlink:href="#Garamond-38" x="68.75"/>
      </g>
     </g>
    </g>
    <g id="xtick_8">
     <g id="line2d_15">
      <path d="M 921.015242 674.44 
L 921.015242 12.96 
" clip-path="url(#p039db5aa19)" style="fill: none; stroke: #b0b0b0; stroke-width: 0.8; stroke-linecap: square"/>
     </g>
     <g id="line2d_16">
      <g>
       <use xlink:href="#mf19407a992" x="921.015242" y="674.44" style="stroke: #000000; stroke-width: 0.8"/>
      </g>
     </g>
     <g id="text_8">
      <!-- 2.0 -->
      <g transform="translate(914.077742 689.226875) scale(0.12 -0.12)">
       <use xlink:href="#Garamond-32"/>
       <use xlink:href="#Garamond-2e" x="46.875"/>
       <use xlink:href="#Garamond-30" x="68.75"/>
      </g>
     </g>
    </g>
    <g id="text_9">
     <!-- Forward Agglomeration -->
     <g transform="translate(429.99625 704.203125) scale(0.12 -0.12)">
      <defs>
       <path id="Garamond-46" d="M 184 -47 
L 188 31 
Q 256 66 417 92 
Q 578 119 639 145 
Q 700 172 741 216 
Q 769 353 769 713 
L 725 3144 
L 734 3547 
Q 734 3672 689 3719 
Q 644 3766 453 3805 
Q 263 3844 228 3869 
Q 194 3894 194 3922 
Q 194 3938 203 3963 
Q 244 3988 288 3988 
Q 334 3988 478 3981 
L 566 3981 
Q 609 3981 813 3988 
L 1247 3988 
L 2144 4003 
L 3094 4041 
L 3178 4041 
L 3313 4044 
Q 3369 4044 3413 4013 
Q 3431 3963 3434 3941 
L 3431 3816 
L 3459 3256 
Q 3459 3222 3453 3169 
Q 3403 3147 3363 3147 
Q 3334 3147 3319 3166 
Q 3294 3200 3288 3297 
Q 3275 3431 3191 3644 
Q 3150 3744 3056 3781 
Q 2869 3853 2425 3853 
Q 2216 3853 2034 3842 
Q 1853 3831 1813 3831 
L 1569 3834 
Q 1419 3834 1322 3791 
Q 1256 3763 1256 3656 
L 1256 3609 
Q 1266 3450 1266 3256 
L 1256 2406 
Q 1256 2281 1275 2169 
L 1366 2163 
L 1541 2172 
L 2138 2172 
Q 2497 2172 2638 2222 
Q 2731 2256 2778 2325 
Q 2794 2347 2856 2572 
L 2897 2831 
Q 2934 2850 2953 2850 
Q 2969 2850 3003 2834 
Q 3016 2763 3019 2616 
L 3056 1466 
Q 3003 1444 2975 1444 
L 2941 1450 
Q 2891 1763 2784 1941 
Q 2747 2003 2700 2013 
Q 2619 2031 1956 2031 
Q 1750 2031 1672 2028 
Q 1484 2019 1447 2019 
L 1416 2019 
Q 1322 2019 1281 1994 
Q 1269 1956 1269 1941 
L 1269 1725 
Q 1269 1688 1272 1413 
L 1266 378 
Q 1266 334 1291 269 
Q 1356 216 1529 198 
Q 1703 181 1856 116 
Q 1944 75 1944 25 
Q 1944 3 1931 -15 
Q 1919 -34 1888 -44 
Q 1631 9 1178 9 
Q 938 9 669 -34 
Q 484 -63 247 -63 
L 184 -47 
z
" transform="scale(0.015625)"/>
       <path id="Garamond-6f" d="M 228 1256 
Q 228 1469 317 1711 
Q 406 1953 587 2145 
Q 769 2338 972 2431 
Q 1256 2563 1666 2563 
Q 2250 2563 2642 2163 
Q 3034 1763 3034 1200 
Q 3034 700 2623 308 
Q 2213 -84 1584 -84 
Q 1197 -84 853 119 
Q 597 272 412 572 
Q 228 872 228 1256 
z
M 1609 38 
Q 1847 38 2067 166 
Q 2288 294 2419 576 
Q 2550 859 2550 1231 
Q 2550 1475 2448 1797 
Q 2347 2119 2136 2280 
Q 1925 2441 1641 2441 
Q 1434 2441 1220 2344 
Q 1006 2247 857 1972 
Q 709 1697 709 1191 
Q 709 622 967 330 
Q 1225 38 1609 38 
z
" transform="scale(0.015625)"/>
       <path id="Garamond-72" d="M 128 -9 
L 116 31 
Q 116 53 144 97 
L 328 134 
L 588 181 
Q 619 197 631 225 
Q 650 266 650 466 
Q 650 1528 637 1692 
Q 625 1856 581 1900 
Q 538 1944 356 1969 
Q 250 1984 188 2009 
L 200 2103 
Q 528 2238 641 2334 
Q 797 2475 906 2703 
L 1013 2700 
Q 1031 2544 1031 2006 
L 1028 1953 
Q 1028 1934 1034 1894 
Q 1153 2109 1331 2291 
L 1403 2363 
Q 1447 2413 1488 2441 
Q 1706 2572 1813 2572 
Q 1950 2572 2037 2480 
Q 2125 2388 2125 2253 
Q 2125 2147 2063 2088 
Q 1978 2009 1869 2009 
Q 1819 2009 1672 2062 
Q 1525 2116 1478 2116 
Q 1391 2116 1356 2088 
Q 1269 2019 1144 1806 
Q 1047 1647 1047 1513 
L 1063 997 
L 1069 378 
Q 1078 272 1094 241 
Q 1106 219 1156 188 
Q 1494 159 1556 147 
Q 1600 144 1622 141 
Q 1756 138 1809 103 
Q 1838 88 1838 56 
Q 1838 38 1813 6 
L 1466 9 
L 1334 13 
L 1144 9 
L 825 9 
L 653 0 
L 128 -9 
z
" transform="scale(0.015625)"/>
       <path id="Garamond-77" d="M -66 2463 
L 1134 2459 
Q 1169 2459 1181 2446 
Q 1194 2434 1194 2409 
Q 1194 2350 1147 2322 
Q 928 2306 875 2268 
Q 822 2231 822 2166 
Q 822 2134 828 2106 
Q 838 2069 919 1884 
Q 1025 1638 1297 1084 
L 1669 328 
Q 1988 884 2184 1363 
L 1994 1863 
Q 1963 1931 1914 2068 
Q 1866 2206 1839 2229 
Q 1813 2253 1647 2300 
Q 1481 2347 1450 2372 
L 1447 2394 
Q 1447 2413 1466 2447 
Q 1541 2466 1584 2466 
L 1763 2463 
L 2153 2463 
L 2272 2466 
L 2656 2459 
Q 2703 2459 2734 2463 
L 2788 2463 
Q 2806 2463 2841 2459 
L 2834 2359 
Q 2788 2331 2678 2319 
Q 2472 2297 2363 2241 
Q 2328 2203 2328 2175 
Q 2328 2106 2366 2003 
Q 2378 1972 2431 1809 
L 2766 928 
Q 2913 534 2991 378 
Q 3122 619 3359 1244 
Q 3444 1463 3584 1766 
Q 3675 1956 3675 2094 
Q 3675 2166 3622 2216 
Q 3569 2266 3375 2309 
Q 3259 2334 3203 2356 
Q 3188 2381 3188 2397 
Q 3188 2425 3222 2459 
L 3269 2459 
L 3522 2463 
Q 3538 2463 3666 2458 
Q 3794 2453 3916 2453 
Q 4009 2453 4131 2459 
L 4288 2459 
Q 4306 2453 4314 2443 
Q 4322 2434 4322 2413 
Q 4322 2378 4313 2338 
Q 4159 2319 4071 2267 
Q 3984 2216 3834 1984 
L 3275 641 
Q 3197 453 3003 66 
Q 2963 -16 2942 -66 
Q 2922 -116 2903 -131 
Q 2884 -147 2853 -147 
Q 2831 -147 2794 -134 
Q 2706 38 2406 813 
Q 2325 1022 2256 1169 
Q 1744 103 1584 -141 
Q 1541 -147 1519 -147 
Q 1497 -147 1456 -141 
L 866 1094 
L 325 2150 
Q 269 2247 238 2269 
Q 184 2303 50 2325 
Q -25 2338 -66 2344 
Q -69 2391 -69 2416 
Q -69 2431 -66 2463 
z
" transform="scale(0.015625)"/>
       <path id="Garamond-61" d="M 2541 425 
Q 2559 384 2559 366 
Q 2559 319 2484 200 
Q 2388 44 2269 -28 
Q 2194 -75 2063 -75 
Q 1838 -75 1725 63 
Q 1656 144 1628 353 
L 1278 109 
Q 1094 3 997 -25 
Q 841 -66 622 -66 
Q 463 -66 370 29 
Q 278 125 278 275 
Q 278 491 542 791 
Q 806 1091 1259 1281 
Q 1578 1416 1650 1453 
Q 1656 1556 1656 1678 
Q 1656 2075 1545 2215 
Q 1434 2356 1228 2356 
Q 1013 2356 825 2188 
Q 709 2081 650 1788 
Q 631 1706 578 1613 
Q 444 1525 363 1525 
Q 294 1525 238 1566 
Q 206 1588 206 1616 
Q 206 1697 379 1983 
Q 553 2269 817 2411 
Q 1081 2553 1278 2553 
Q 1547 2553 1678 2504 
Q 1809 2456 1909 2334 
Q 2009 2213 2031 2069 
Q 2044 2000 2044 1578 
L 2034 1081 
L 2038 719 
Q 2038 647 2034 597 
Q 2031 506 2031 463 
Q 2031 359 2091 297 
Q 2150 234 2231 234 
Q 2350 234 2434 353 
L 2472 403 
Q 2488 413 2541 425 
z
M 1622 516 
Q 1644 913 1644 1075 
Q 1644 1159 1634 1303 
Q 1425 1228 1190 1075 
Q 956 922 819 722 
Q 719 578 719 450 
Q 719 328 801 247 
Q 884 166 1009 166 
Q 1106 166 1244 234 
Q 1425 325 1622 516 
z
" transform="scale(0.015625)"/>
       <path id="Garamond-64" d="M 2281 2269 
L 2284 2359 
L 2281 2725 
L 2284 3416 
Q 2284 3703 2221 3781 
Q 2159 3859 1856 3941 
Q 1834 3947 1788 3959 
L 1788 3994 
Q 1788 4025 1794 4063 
Q 2219 4106 2525 4209 
L 2684 4213 
Q 2697 4000 2697 3738 
L 2684 2534 
L 2706 1178 
L 2697 456 
Q 2697 234 2728 206 
Q 2791 144 3003 141 
Q 3047 141 3122 134 
L 3122 78 
Q 3122 56 3119 31 
Q 3022 9 2919 -9 
L 2466 -97 
Q 2366 -116 2306 -116 
L 2306 184 
Q 2253 169 2141 122 
Q 1653 -84 1244 -84 
Q 997 -84 740 77 
Q 484 238 346 525 
Q 209 813 209 1113 
Q 209 1381 300 1626 
Q 391 1872 538 2034 
Q 631 2141 803 2245 
Q 975 2350 1088 2378 
Q 1366 2450 1459 2450 
Q 1881 2450 2153 2325 
Q 2238 2284 2281 2269 
z
M 2284 338 
Q 2297 547 2297 1200 
Q 2297 1753 2245 1898 
Q 2194 2044 1987 2173 
Q 1781 2303 1525 2303 
Q 1166 2303 916 2025 
Q 666 1747 666 1203 
Q 666 725 936 440 
Q 1206 156 1609 156 
Q 1841 156 2031 218 
Q 2222 281 2284 338 
z
" transform="scale(0.015625)"/>
       <path id="Garamond-20" transform="scale(0.015625)"/>
       <path id="Garamond-41" d="M -34 100 
Q 9 125 44 125 
L 116 125 
Q 138 125 191 128 
Q 431 150 475 172 
Q 584 231 663 378 
Q 825 697 1028 1281 
Q 1125 1559 1150 1619 
Q 1228 1806 1300 2013 
L 1594 2834 
Q 1663 3028 1925 3722 
Q 1991 3897 2084 4191 
L 2175 4197 
L 2284 4194 
Q 2419 3928 2522 3622 
Q 2578 3459 2706 3138 
L 3181 1853 
L 3434 1156 
Q 3634 563 3696 427 
Q 3759 291 3813 247 
Q 3828 234 3929 209 
Q 4031 184 4072 172 
Q 4216 131 4272 103 
Q 4284 69 4284 50 
Q 4284 34 4275 3 
Q 4175 0 4134 0 
Q 3975 0 3572 9 
L 3259 19 
L 2881 13 
Q 2844 13 2805 17 
Q 2766 22 2738 22 
L 2669 22 
Q 2634 25 2606 41 
Q 2606 84 2622 125 
Q 2659 144 2691 147 
L 3019 169 
Q 3147 175 3213 203 
Q 3231 259 3231 288 
Q 3231 344 3150 578 
Q 3094 734 3051 875 
Q 3009 1016 2719 1800 
Q 2591 1822 2494 1822 
L 1825 1816 
L 1628 1819 
Q 1522 1819 1394 1803 
Q 1353 1709 1341 1669 
L 1066 809 
Q 891 319 891 269 
Q 891 241 919 175 
Q 984 156 1094 141 
L 1519 103 
Q 1553 75 1553 53 
Q 1553 38 1544 6 
Q 1403 3 1328 3 
Q 1078 3 747 19 
Q 594 25 528 25 
Q 463 25 300 19 
Q 194 13 147 13 
Q 72 13 -47 22 
L -47 41 
Q -47 63 -34 100 
z
M 1456 1975 
Q 1791 1956 2219 1956 
Q 2463 1956 2647 1972 
Q 2616 2094 2575 2200 
Q 2372 2744 2350 2800 
L 2066 3522 
L 2034 3578 
Q 2016 3541 1897 3256 
Q 1697 2769 1609 2497 
Q 1569 2375 1525 2254 
Q 1481 2134 1470 2086 
Q 1459 2038 1438 1988 
L 1456 1975 
z
" transform="scale(0.015625)"/>
       <path id="Garamond-67" d="M 844 -206 
Q 806 -188 603 -103 
Q 366 50 303 125 
Q 241 200 241 291 
Q 241 372 288 422 
Q 356 494 559 559 
Q 763 625 894 688 
Q 853 716 766 769 
Q 300 1056 300 1566 
Q 300 1984 595 2273 
Q 891 2563 1353 2563 
Q 1563 2563 1738 2503 
Q 1838 2472 2034 2347 
Q 2159 2269 2181 2259 
Q 2231 2244 2294 2244 
Q 2347 2244 2551 2270 
Q 2756 2297 2794 2297 
Q 2866 2297 2913 2269 
Q 2950 2206 2950 2059 
Q 2950 2009 2923 1984 
Q 2897 1959 2847 1959 
Q 2759 1959 2557 2014 
Q 2356 2069 2313 2069 
Q 2297 2069 2253 2063 
Q 2388 1794 2388 1572 
Q 2388 1350 2247 1112 
Q 2106 875 1859 750 
Q 1613 625 1359 625 
Q 1341 625 1253 628 
Q 966 628 725 484 
Q 609 413 609 350 
Q 609 284 722 222 
Q 1019 63 1847 38 
Q 2206 25 2406 -65 
Q 2606 -156 2707 -332 
Q 2809 -509 2809 -697 
Q 2809 -950 2637 -1165 
Q 2466 -1381 2116 -1515 
Q 1766 -1650 1313 -1650 
Q 813 -1650 541 -1528 
Q 269 -1406 155 -1262 
Q 41 -1119 41 -978 
Q 41 -856 166 -673 
Q 291 -491 684 -291 
Q 800 -231 844 -206 
z
M 719 1578 
Q 719 1297 803 1108 
Q 888 919 1034 826 
Q 1181 734 1331 734 
Q 1603 734 1783 942 
Q 1963 1150 1963 1575 
Q 1963 2003 1775 2226 
Q 1588 2450 1322 2450 
Q 1025 2450 872 2237 
Q 719 2025 719 1578 
z
M 616 -1316 
Q 900 -1534 1334 -1534 
Q 1644 -1534 1951 -1436 
Q 2259 -1338 2401 -1155 
Q 2544 -972 2544 -809 
Q 2544 -709 2494 -611 
Q 2444 -513 2358 -448 
Q 2272 -384 2131 -347 
Q 2031 -319 1847 -306 
Q 1322 -266 1203 -266 
Q 869 -266 606 -491 
Q 403 -666 403 -909 
Q 403 -1134 616 -1316 
z
" transform="scale(0.015625)"/>
       <path id="Garamond-6c" d="M 163 3872 
L 163 3941 
Q 250 3969 356 4000 
Q 513 4050 819 4153 
L 966 4153 
Q 969 4003 969 3981 
Q 969 1416 953 922 
Q 944 631 944 613 
Q 944 263 972 222 
Q 1009 166 1201 144 
Q 1394 122 1428 100 
Q 1453 88 1453 56 
Q 1453 22 1439 8 
Q 1425 -6 1388 -6 
Q 1366 -6 1059 3 
L 650 16 
L 125 -6 
Q 75 -9 50 13 
Q 31 28 31 56 
Q 31 88 51 102 
Q 72 116 276 150 
Q 481 184 511 207 
Q 541 231 550 313 
Q 563 425 563 947 
L 559 1666 
L 569 2409 
L 566 3153 
L 575 3519 
Q 575 3628 540 3676 
Q 506 3725 394 3772 
Q 225 3841 163 3872 
z
" transform="scale(0.015625)"/>
       <path id="Garamond-6d" d="M 125 109 
Q 175 144 263 156 
Q 388 172 456 206 
Q 513 253 531 341 
Q 553 453 553 1131 
Q 553 1797 513 1991 
Q 444 2034 334 2059 
Q 300 2066 191 2094 
L 191 2197 
Q 375 2250 489 2334 
Q 603 2419 806 2672 
L 825 2672 
Q 844 2672 884 2675 
Q 909 2672 925 2659 
L 922 2303 
Q 922 2194 928 2069 
Q 1263 2372 1528 2494 
Q 1709 2575 1938 2575 
Q 2209 2575 2368 2472 
Q 2528 2369 2672 2100 
Q 2950 2375 3176 2484 
Q 3403 2594 3634 2594 
Q 3984 2594 4209 2366 
Q 4431 2134 4438 1688 
L 4438 1428 
L 4441 1144 
L 4438 413 
Q 4434 284 4494 219 
Q 4519 209 4684 163 
Q 4788 134 4806 118 
Q 4825 103 4825 75 
Q 4825 41 4806 -6 
L 4784 -6 
L 4469 13 
Q 4413 16 4291 16 
Q 4141 16 3872 3 
L 3713 3 
Q 3678 3 3578 0 
Q 3575 28 3575 50 
Q 3575 75 3597 113 
Q 3681 150 3828 173 
Q 3975 197 4011 258 
Q 4047 319 4047 744 
Q 4047 1666 4025 1813 
Q 3988 2047 3827 2180 
Q 3666 2313 3422 2313 
Q 3234 2313 3056 2214 
Q 2878 2116 2706 1919 
L 2703 1844 
L 2703 1366 
L 2691 994 
Q 2691 425 2702 347 
Q 2713 269 2755 233 
Q 2797 197 3000 169 
Q 3091 156 3141 144 
Q 3178 113 3178 63 
Q 3178 22 3150 6 
L 3097 6 
L 2941 9 
L 2031 9 
L 1781 6 
Q 1775 53 1775 75 
L 1778 113 
Q 1847 150 2034 184 
Q 2131 200 2234 238 
Q 2253 253 2263 278 
Q 2278 322 2284 528 
L 2300 891 
L 2294 1300 
L 2297 1528 
Q 2297 1913 2140 2089 
Q 1984 2266 1747 2266 
Q 1525 2266 1301 2156 
Q 1078 2047 931 1863 
Q 928 1775 928 1703 
L 941 653 
Q 944 309 980 261 
Q 1016 213 1141 194 
Q 1341 166 1400 125 
Q 1428 106 1428 69 
Q 1428 44 1425 9 
Q 1069 34 947 34 
Q 822 34 722 31 
L 566 22 
L 469 22 
L 119 9 
Q 113 31 113 47 
Q 113 63 125 109 
z
" transform="scale(0.015625)"/>
       <path id="Garamond-65" d="M 2475 1650 
L 1222 1641 
L 984 1641 
Q 841 1641 691 1628 
Q 663 1534 663 1500 
L 666 1469 
L 666 1438 
L 663 1284 
Q 663 1094 783 817 
Q 903 541 1126 395 
Q 1350 250 1684 241 
Q 1863 250 1969 284 
Q 2075 319 2269 444 
L 2494 628 
L 2513 503 
Q 2513 481 2509 456 
Q 2369 278 2153 143 
Q 1938 9 1716 -53 
Q 1609 -81 1366 -81 
Q 1144 -81 928 9 
Q 609 147 426 451 
Q 244 756 244 1191 
Q 244 1328 295 1543 
Q 347 1759 481 2003 
Q 572 2169 703 2275 
Q 891 2425 1031 2484 
Q 1234 2569 1503 2569 
Q 1794 2569 1978 2463 
Q 2228 2322 2351 2100 
Q 2475 1878 2475 1694 
L 2475 1650 
z
M 731 1763 
L 878 1763 
Q 1038 1763 1828 1813 
Q 1953 1819 1981 1838 
Q 2038 1897 2038 1944 
Q 2038 2041 1975 2164 
Q 1913 2288 1783 2355 
Q 1653 2422 1481 2422 
Q 1119 2422 900 2150 
Q 731 1944 731 1763 
z
" transform="scale(0.015625)"/>
       <path id="Garamond-74" d="M 894 3088 
L 991 3084 
L 1003 2788 
L 997 2403 
Q 1056 2400 1072 2400 
Q 1153 2400 1381 2413 
Q 1528 2422 1663 2422 
Q 1725 2422 1850 2419 
Q 1856 2356 1856 2319 
Q 1856 2278 1838 2191 
L 1784 2191 
L 1300 2175 
L 1059 2169 
L 1003 2163 
Q 978 2084 978 1981 
L 988 1513 
L 981 688 
Q 981 363 1066 256 
Q 1147 147 1309 147 
Q 1391 147 1616 197 
Q 1684 213 1800 300 
L 1828 300 
Q 1856 300 1873 283 
Q 1891 266 1891 238 
L 1888 216 
Q 1753 69 1579 1 
Q 1406 -66 1119 -66 
Q 916 -66 783 28 
Q 650 122 612 250 
Q 575 378 575 809 
L 588 1513 
L 584 1850 
L 584 1975 
Q 584 2063 578 2150 
L 525 2153 
L 269 2144 
L 244 2141 
Q 209 2141 192 2156 
Q 175 2172 175 2194 
Q 175 2231 198 2254 
Q 222 2278 341 2328 
Q 422 2363 530 2458 
Q 638 2553 713 2669 
Q 750 2731 819 2906 
Q 869 3034 894 3088 
z
" transform="scale(0.015625)"/>
       <path id="Garamond-69" d="M 444 3841 
Q 444 3944 523 4019 
Q 603 4094 716 4094 
Q 831 4094 918 4009 
Q 1006 3925 1006 3828 
Q 1006 3731 918 3645 
Q 831 3559 716 3559 
Q 600 3559 522 3637 
Q 444 3716 444 3841 
z
M 181 2222 
L 184 2313 
Q 388 2372 403 2381 
Q 516 2431 639 2534 
Q 763 2638 847 2766 
Q 884 2772 906 2772 
L 944 2769 
Q 956 2619 956 2550 
Q 956 2534 950 2409 
L 950 2244 
L 953 1344 
L 944 391 
Q 941 275 981 229 
Q 1022 184 1222 128 
Q 1347 94 1409 69 
Q 1419 47 1419 31 
Q 1419 13 1403 -16 
Q 1281 -13 1091 0 
Q 831 22 747 22 
Q 706 22 247 6 
Q 153 3 66 -9 
Q 50 -9 16 0 
Q 0 22 0 38 
Q 0 81 59 106 
Q 72 113 378 178 
Q 478 197 509 241 
Q 563 306 563 450 
Q 569 691 569 1769 
Q 569 1984 550 2038 
Q 534 2075 467 2123 
Q 400 2172 181 2222 
z
" transform="scale(0.015625)"/>
       <path id="Garamond-6e" d="M 119 100 
Q 197 122 300 138 
Q 497 166 536 203 
Q 575 241 575 375 
L 581 488 
Q 584 550 584 647 
L 578 1606 
Q 578 1800 528 1856 
Q 444 1944 216 1978 
L 216 2091 
Q 444 2153 566 2253 
Q 744 2394 866 2634 
L 972 2631 
Q 981 2484 981 2422 
L 981 2216 
L 984 2159 
Q 1022 2184 1072 2222 
Q 1259 2363 1456 2452 
Q 1653 2541 1806 2575 
Q 1903 2600 2025 2600 
Q 2281 2600 2465 2462 
Q 2650 2325 2704 2139 
Q 2759 1953 2759 1400 
L 2759 928 
Q 2759 909 2754 803 
Q 2750 697 2750 559 
Q 2750 341 2769 281 
Q 2784 241 2850 200 
Q 3150 159 3200 103 
L 3200 78 
Q 3200 47 3181 0 
L 3122 0 
L 2709 3 
L 2303 -3 
Q 2078 -9 1888 0 
L 1869 66 
Q 1869 84 1891 116 
Q 1975 153 2128 166 
Q 2219 172 2253 184 
Q 2288 197 2338 234 
Q 2375 309 2375 359 
Q 2375 381 2369 447 
Q 2359 591 2356 1163 
L 2356 1325 
L 2363 1575 
Q 2363 1978 2200 2131 
Q 2038 2284 1766 2284 
Q 1556 2284 1356 2192 
Q 1156 2100 969 1916 
Q 963 1766 963 1659 
L 972 969 
Q 972 428 988 306 
Q 994 256 1009 238 
Q 1034 213 1109 197 
Q 1184 181 1282 153 
Q 1381 125 1413 119 
Q 1475 103 1497 56 
L 1494 -6 
L 1166 -6 
L 491 3 
Q 256 -3 194 -3 
L 116 -3 
L 109 38 
Q 109 59 119 100 
z
" transform="scale(0.015625)"/>
      </defs>
      <use xlink:href="#Garamond-46"/>
      <use xlink:href="#Garamond-6f" x="52.5"/>
      <use xlink:href="#Garamond-72" x="103.525391"/>
      <use xlink:href="#Garamond-77" x="136.875"/>
      <use xlink:href="#Garamond-61" x="202.150391"/>
      <use xlink:href="#Garamond-72" x="242.775391"/>
      <use xlink:href="#Garamond-64" x="276.125"/>
      <use xlink:href="#Garamond-20" x="326.125"/>
      <use xlink:href="#Garamond-41" x="351.125"/>
      <use xlink:href="#Garamond-67" x="418.849609"/>
      <use xlink:href="#Garamond-67" x="467.5"/>
      <use xlink:href="#Garamond-6c" x="512.275391"/>
      <use xlink:href="#Garamond-6f" x="535.175781"/>
      <use xlink:href="#Garamond-6d" x="586.201172"/>
      <use xlink:href="#Garamond-65" x="663.300781"/>
      <use xlink:href="#Garamond-72" x="704.951172"/>
      <use xlink:href="#Garamond-61" x="738.300781"/>
      <use xlink:href="#Garamond-74" x="778.925781"/>
      <use xlink:href="#Garamond-69" x="808.076172"/>
      <use xlink:href="#Garamond-6f" x="830.976562"/>
      <use xlink:href="#Garamond-6e" x="882.001953"/>
     </g>
    </g>
   </g>
   <g id="matplotlib.axis_2">
    <g id="ytick_1">
     <g id="line2d_17">
      <path d="M 48.8 592.336982 
L 923.16 592.336982 
" clip-path="url(#p039db5aa19)" style="fill: none; stroke: #b0b0b0; stroke-width: 0.8; stroke-linecap: square"/>
     </g>
     <g id="line2d_18">
      <defs>
       <path id="m1618fe2de3" d="M 0 0 
L -3.5 0 
" style="stroke: #000000; stroke-width: 0.8"/>
      </defs>
      <g>
       <use xlink:href="#m1618fe2de3" x="48.8" y="592.336982" style="stroke: #000000; stroke-width: 0.8"/>
      </g>
     </g>
     <g id="text_10">
      <!-- 0.8 -->
      <g transform="translate(27.925 596.23042) scale(0.12 -0.12)">
       <use xlink:href="#Garamond-30"/>
       <use xlink:href="#Garamond-2e" x="46.875"/>
       <use xlink:href="#Garamond-38" x="68.75"/>
      </g>
     </g>
    </g>
    <g id="ytick_2">
     <g id="line2d_19">
      <path d="M 48.8 451.531289 
L 923.16 451.531289 
" clip-path="url(#p039db5aa19)" style="fill: none; stroke: #b0b0b0; stroke-width: 0.8; stroke-linecap: square"/>
     </g>
     <g id="line2d_20">
      <g>
       <use xlink:href="#m1618fe2de3" x="48.8" y="451.531289" style="stroke: #000000; stroke-width: 0.8"/>
      </g>
     </g>
     <g id="text_11">
      <!-- 1.0 -->
      <g transform="translate(27.925 455.424726) scale(0.12 -0.12)">
       <use xlink:href="#Garamond-31"/>
       <use xlink:href="#Garamond-2e" x="46.875"/>
       <use xlink:href="#Garamond-30" x="68.75"/>
      </g>
     </g>
    </g>
    <g id="ytick_3">
     <g id="line2d_21">
      <path d="M 48.8 310.725595 
L 923.16 310.725595 
" clip-path="url(#p039db5aa19)" style="fill: none; stroke: #b0b0b0; stroke-width: 0.8; stroke-linecap: square"/>
     </g>
     <g id="line2d_22">
      <g>
       <use xlink:href="#m1618fe2de3" x="48.8" y="310.725595" style="stroke: #000000; stroke-width: 0.8"/>
      </g>
     </g>
     <g id="text_12">
      <!-- 1.2 -->
      <g transform="translate(27.925 314.619033) scale(0.12 -0.12)">
       <use xlink:href="#Garamond-31"/>
       <use xlink:href="#Garamond-2e" x="46.875"/>
       <use xlink:href="#Garamond-32" x="68.75"/>
      </g>
     </g>
    </g>
    <g id="ytick_4">
     <g id="line2d_23">
      <path d="M 48.8 169.919902 
L 923.16 169.919902 
" clip-path="url(#p039db5aa19)" style="fill: none; stroke: #b0b0b0; stroke-width: 0.8; stroke-linecap: square"/>
     </g>
     <g id="line2d_24">
      <g>
       <use xlink:href="#m1618fe2de3" x="48.8" y="169.919902" style="stroke: #000000; stroke-width: 0.8"/>
      </g>
     </g>
     <g id="text_13">
      <!-- 1.4 -->
      <g transform="translate(27.925 173.813339) scale(0.12 -0.12)">
       <use xlink:href="#Garamond-31"/>
       <use xlink:href="#Garamond-2e" x="46.875"/>
       <use xlink:href="#Garamond-34" x="68.75"/>
      </g>
     </g>
    </g>
    <g id="ytick_5">
     <g id="line2d_25">
      <path d="M 48.8 29.114208 
L 923.16 29.114208 
" clip-path="url(#p039db5aa19)" style="fill: none; stroke: #b0b0b0; stroke-width: 0.8; stroke-linecap: square"/>
     </g>
     <g id="line2d_26">
      <g>
       <use xlink:href="#m1618fe2de3" x="48.8" y="29.114208" style="stroke: #000000; stroke-width: 0.8"/>
      </g>
     </g>
     <g id="text_14">
      <!-- 1.6 -->
      <g transform="translate(27.925 33.007645) scale(0.12 -0.12)">
       <use xlink:href="#Garamond-31"/>
       <use xlink:href="#Garamond-2e" x="46.875"/>
       <use xlink:href="#Garamond-36" x="68.75"/>
      </g>
     </g>
    </g>
    <g id="text_15">
     <!-- Backward Agglomeration -->
     <g transform="translate(20.83125 402.82625) rotate(-90) scale(0.12 -0.12)">
      <defs>
       <path id="Garamond-42" d="M 84 3872 
L 84 3969 
Q 138 3981 169 3984 
L 463 4000 
Q 828 4031 1281 4050 
Q 1463 4056 1853 4056 
Q 2384 4056 2631 3978 
Q 2991 3863 3167 3630 
Q 3344 3397 3344 3113 
Q 3344 2650 2684 2334 
L 2669 2309 
Q 3006 2219 3222 2056 
Q 3438 1894 3553 1659 
Q 3638 1488 3638 1209 
Q 3638 744 3214 380 
Q 2791 16 2047 16 
L 1581 16 
L 1109 0 
Q 484 -6 378 -6 
Q 269 -6 163 3 
L 163 38 
Q 163 75 178 91 
Q 197 109 250 122 
Q 641 203 692 233 
Q 744 263 763 328 
Q 800 453 800 972 
Q 800 1019 797 1091 
Q 791 1300 791 1331 
L 791 1656 
Q 791 2481 772 3097 
L 769 3725 
L 766 3803 
Q 500 3841 297 3850 
Q 166 3853 84 3872 
z
M 1325 2291 
Q 1481 2259 1653 2259 
Q 2328 2259 2568 2556 
Q 2809 2853 2809 3147 
Q 2809 3278 2767 3414 
Q 2725 3550 2617 3659 
Q 2509 3769 2350 3822 
Q 2078 3913 1794 3913 
Q 1528 3913 1300 3853 
Q 1297 3788 1297 3756 
Q 1297 3725 1303 3578 
Q 1306 3484 1306 3391 
L 1297 3013 
L 1300 2788 
L 1322 2347 
L 1325 2291 
z
M 2059 166 
Q 2369 188 2578 297 
Q 2675 347 2808 476 
Q 2941 606 3014 787 
Q 3088 969 3088 1138 
Q 3088 1266 3036 1453 
Q 2984 1641 2861 1783 
Q 2738 1925 2494 2017 
Q 2250 2109 1956 2109 
Q 1388 2109 1319 2088 
Q 1316 2016 1316 1981 
L 1319 1866 
L 1316 1631 
L 1316 1366 
Q 1325 631 1350 497 
Q 1375 363 1520 266 
Q 1666 169 2059 166 
z
" transform="scale(0.015625)"/>
       <path id="Garamond-63" d="M 2497 572 
L 2500 369 
Q 2256 109 2018 6 
Q 1781 -97 1459 -97 
Q 1109 -97 828 86 
Q 547 269 395 603 
Q 244 938 244 1259 
Q 244 1613 426 1927 
Q 609 2241 911 2395 
Q 1213 2550 1669 2550 
Q 2106 2550 2334 2400 
Q 2463 2313 2463 2175 
Q 2463 2075 2397 2009 
Q 2331 1944 2228 1944 
Q 2072 1944 1884 2138 
Q 1769 2256 1675 2301 
Q 1581 2347 1466 2347 
Q 1188 2347 1003 2119 
Q 747 1794 747 1303 
Q 747 797 1009 497 
Q 1272 197 1622 197 
Q 1866 197 2055 276 
Q 2244 356 2497 572 
z
" transform="scale(0.015625)"/>
       <path id="Garamond-6b" d="M 169 0 
L 163 91 
Q 188 109 209 114 
Q 231 119 367 128 
Q 503 138 537 189 
Q 572 241 572 616 
L 578 1850 
L 572 2069 
Q 572 2097 578 2278 
Q 584 2363 584 2481 
L 572 3025 
L 575 3500 
Q 575 3672 526 3720 
Q 478 3769 184 3809 
L 184 3847 
Q 184 3866 188 3900 
Q 366 3938 503 3994 
Q 575 4025 869 4188 
L 966 4188 
Q 963 4116 963 4100 
L 963 3828 
L 959 3694 
L 969 3447 
L 966 3075 
L 969 2456 
L 959 1688 
L 959 1450 
Q 959 1406 963 1328 
L 997 1325 
Q 1103 1325 1213 1403 
Q 1703 1753 1828 1879 
Q 1953 2006 1953 2063 
Q 1953 2097 1913 2150 
Q 1819 2200 1703 2219 
Q 1669 2225 1628 2234 
Q 1572 2250 1534 2256 
L 1528 2288 
Q 1528 2309 1544 2350 
Q 2038 2369 2403 2369 
Q 2609 2369 2844 2359 
L 2844 2319 
Q 2844 2297 2828 2263 
Q 2781 2253 2681 2234 
Q 2488 2203 2388 2147 
Q 2147 2019 1891 1788 
Q 1738 1650 1625 1556 
L 1513 1459 
Q 1525 1438 1553 1406 
Q 1566 1394 1603 1350 
Q 1641 1306 1738 1203 
Q 2075 847 2238 653 
Q 2291 591 2356 516 
Q 2600 244 2641 213 
Q 2728 156 2900 125 
Q 2981 109 3041 97 
Q 3053 59 3053 38 
L 3050 6 
Q 2828 25 2731 25 
L 2675 25 
L 1806 0 
Q 1756 -6 1738 -6 
Q 1706 -6 1672 6 
Q 1663 31 1663 50 
L 1663 72 
Q 1681 100 1697 106 
Q 2006 131 2056 147 
Q 2084 153 2109 181 
Q 2109 234 2018 353 
Q 1928 472 1566 875 
Q 1334 1131 1267 1173 
Q 1200 1216 1081 1216 
L 963 1216 
Q 950 1103 950 700 
Q 950 325 1013 219 
Q 1047 159 1175 143 
Q 1303 128 1341 97 
Q 1366 78 1372 9 
Q 1184 13 1056 13 
Q 850 13 606 3 
Q 459 -3 375 -3 
Q 313 -3 169 0 
z
" transform="scale(0.015625)"/>
      </defs>
      <use xlink:href="#Garamond-42"/>
      <use xlink:href="#Garamond-61" x="61.474609"/>
      <use xlink:href="#Garamond-63" x="102.099609"/>
      <use xlink:href="#Garamond-6b" x="142.375"/>
      <use xlink:href="#Garamond-77" x="189.25"/>
      <use xlink:href="#Garamond-61" x="254.525391"/>
      <use xlink:href="#Garamond-72" x="295.150391"/>
      <use xlink:href="#Garamond-64" x="328.5"/>
      <use xlink:href="#Garamond-20" x="378.5"/>
      <use xlink:href="#Garamond-41" x="403.5"/>
      <use xlink:href="#Garamond-67" x="471.224609"/>
      <use xlink:href="#Garamond-67" x="519.875"/>
      <use xlink:href="#Garamond-6c" x="564.650391"/>
      <use xlink:href="#Garamond-6f" x="587.550781"/>
      <use xlink:href="#Garamond-6d" x="638.576172"/>
      <use xlink:href="#Garamond-65" x="715.675781"/>
      <use xlink:href="#Garamond-72" x="757.326172"/>
      <use xlink:href="#Garamond-61" x="790.675781"/>
      <use xlink:href="#Garamond-74" x="831.300781"/>
      <use xlink:href="#Garamond-69" x="860.451172"/>
      <use xlink:href="#Garamond-6f" x="883.351562"/>
      <use xlink:href="#Garamond-6e" x="934.376953"/>
     </g>
    </g>
   </g>
   <g id="line2d_27">
    <path d="M 350.796577 674.44 
L 350.796577 12.96 
" clip-path="url(#p039db5aa19)" style="fill: none; stroke-dasharray: 3.7,1.6; stroke-dashoffset: 0; stroke: #000000"/>
   </g>
   <g id="line2d_28">
    <path d="M 48.8 451.531289 
L 923.16 451.531289 
" clip-path="url(#p039db5aa19)" style="fill: none; stroke-dasharray: 3.7,1.6; stroke-dashoffset: 0; stroke: #000000"/>
   </g>
   <g id="patch_22">
    <path d="M 48.8 674.44 
L 48.8 12.96 
" style="fill: none; stroke: #000000; stroke-width: 0.8; stroke-linejoin: miter; stroke-linecap: square"/>
   </g>
   <g id="patch_23">
    <path d="M 923.16 674.44 
L 923.16 12.96 
" style="fill: none; stroke: #000000; stroke-width: 0.8; stroke-linejoin: miter; stroke-linecap: square"/>
   </g>
   <g id="patch_24">
    <path d="M 48.8 674.44 
L 923.16 674.44 
" style="fill: none; stroke: #000000; stroke-width: 0.8; stroke-linejoin: miter; stroke-linecap: square"/>
   </g>
   <g id="patch_25">
    <path d="M 48.8 12.96 
L 923.16 12.96 
" style="fill: none; stroke: #000000; stroke-width: 0.8; stroke-linejoin: miter; stroke-linecap: square"/>
   </g>
   <g id="text_16">
    <!-- Agri -->
    <g transform="translate(399.807478 385.637237) scale(0.1 -0.1)">
     <use xlink:href="#Garamond-41"/>
     <use xlink:href="#Garamond-67" x="67.724609"/>
     <use xlink:href="#Garamond-72" x="115"/>
     <use xlink:href="#Garamond-69" x="148.349609"/>
    </g>
   </g>
   <g id="text_17">
    <!-- Min -->
    <g transform="translate(724.865029 349.412399) scale(0.1 -0.1)">
     <defs>
      <path id="Garamond-4d" d="M 44 72 
Q 141 138 394 166 
Q 591 175 628 200 
Q 653 219 666 247 
Q 713 363 734 875 
Q 763 1541 825 2647 
Q 875 3491 875 3700 
L 875 3781 
Q 650 3828 163 3881 
Q 131 3928 131 3953 
Q 131 3969 153 4009 
Q 206 4028 234 4028 
Q 259 4028 344 4016 
Q 497 3994 766 3994 
Q 853 3994 1066 4006 
Q 1216 4016 1234 4016 
Q 1284 4016 1350 4000 
Q 1381 3969 1397 3941 
L 1528 3647 
L 2413 1691 
L 2778 869 
Q 3213 1728 3453 2397 
Q 3469 2447 3491 2488 
Q 3519 2541 3544 2606 
Q 3569 2672 3747 3106 
Q 3819 3281 3863 3406 
Q 4041 3906 4072 3978 
Q 4131 4000 4175 4000 
Q 4225 4000 4303 3994 
Q 4478 3984 4872 3984 
Q 5116 3984 5272 3991 
Q 5278 3956 5278 3941 
Q 5278 3919 5269 3881 
Q 5169 3828 5028 3822 
Q 4750 3806 4675 3778 
Q 4600 3750 4579 3706 
Q 4559 3663 4544 3419 
L 4547 3275 
L 4544 3125 
Q 4544 2656 4569 1550 
L 4566 938 
L 4569 544 
Q 4569 313 4591 270 
Q 4613 228 4716 191 
Q 4884 134 5266 75 
Q 5288 59 5288 34 
Q 5288 6 5284 -28 
L 5141 -28 
Q 4956 -28 4740 -17 
Q 4525 -6 4509 -6 
Q 3869 -6 3659 -19 
Q 3531 -28 3497 -28 
Q 3475 -28 3450 -16 
L 3450 25 
Q 3450 53 3459 84 
Q 3563 128 3741 144 
Q 3938 197 4028 256 
Q 4056 375 4056 741 
L 4047 1372 
Q 4047 1475 4058 1756 
Q 4069 2038 4069 2672 
Q 4069 3175 4044 3434 
Q 3991 3325 3834 2959 
L 3788 2841 
L 3781 2822 
L 3319 1728 
L 3153 1306 
L 2938 794 
Q 2797 441 2697 169 
Q 2653 44 2625 -28 
L 2553 -25 
Q 2200 1006 1711 2090 
Q 1222 3175 1025 3522 
Q 1000 3388 969 2741 
Q 928 1953 928 1006 
Q 928 709 972 338 
Q 984 231 1062 179 
Q 1141 128 1466 122 
Q 1591 122 1703 103 
Q 1725 56 1725 34 
Q 1725 19 1709 -19 
L 738 16 
Q 631 16 406 0 
Q 281 -9 47 -13 
L 44 72 
z
" transform="scale(0.015625)"/>
     </defs>
     <use xlink:href="#Garamond-4d"/>
     <use xlink:href="#Garamond-69" x="83.349609"/>
     <use xlink:href="#Garamond-6e" x="106.25"/>
    </g>
   </g>
   <g id="text_18">
    <!-- Fd -->
    <g transform="translate(376.602193 365.080644) scale(0.1 -0.1)">
     <use xlink:href="#Garamond-46"/>
     <use xlink:href="#Garamond-64" x="56.25"/>
    </g>
   </g>
   <g id="text_19">
    <!-- Txt -->
    <g transform="translate(75.102896 644.12954) scale(0.1 -0.1)">
     <defs>
      <path id="Garamond-54" d="M 113 3531 
L 241 4003 
Q 253 4097 275 4123 
Q 297 4150 325 4150 
Q 381 4150 453 4016 
Q 506 3919 540 3892 
Q 575 3866 641 3856 
L 672 3859 
L 806 3847 
L 1544 3838 
L 2416 3841 
L 2672 3841 
L 3156 3850 
Q 3188 3850 3234 3844 
Q 3447 3825 3497 3825 
Q 3544 3825 3572 3856 
Q 3581 3869 3675 4069 
Q 3716 4159 3775 4159 
Q 3800 4159 3838 4147 
Q 3853 4084 3853 4034 
L 3850 3909 
L 3853 3644 
Q 3853 3547 3838 3019 
Q 3838 2984 3825 2956 
Q 3791 2934 3766 2934 
Q 3741 2934 3722 2957 
Q 3703 2981 3675 3103 
Q 3613 3384 3519 3506 
Q 3456 3584 3339 3618 
Q 3222 3653 2778 3653 
Q 2422 3653 2250 3641 
Q 2244 3516 2244 3413 
L 2269 1472 
Q 2269 1356 2256 1034 
L 2259 619 
L 2256 388 
Q 2256 278 2293 231 
Q 2331 184 2497 141 
Q 2784 69 2881 53 
Q 2941 47 2978 28 
L 2978 -66 
L 2534 -53 
Q 2169 -50 1984 -38 
L 1528 -59 
L 1194 -78 
Q 1053 -78 1022 -72 
L 978 -53 
Q 984 19 1006 39 
Q 1028 59 1122 72 
Q 1253 91 1431 139 
Q 1609 188 1666 238 
Q 1697 266 1709 331 
Q 1738 469 1738 872 
L 1738 1403 
L 1725 2563 
L 1713 2813 
L 1709 3647 
Q 1513 3669 1206 3669 
Q 756 3669 659 3613 
Q 506 3525 203 3100 
Q 103 2941 28 2941 
L 0 2947 
Q -13 2966 -13 2981 
Q -13 3019 38 3206 
Q 100 3447 113 3531 
z
" transform="scale(0.015625)"/>
      <path id="Garamond-78" d="M 94 2341 
Q 88 2381 88 2409 
L 88 2450 
Q 138 2463 197 2463 
L 313 2463 
Q 581 2453 650 2453 
Q 866 2453 1088 2459 
Q 1225 2463 1256 2463 
L 1331 2463 
Q 1353 2419 1353 2397 
Q 1353 2381 1341 2353 
L 1294 2347 
Q 1066 2325 1006 2291 
Q 981 2275 981 2250 
Q 981 2200 1056 2103 
Q 1422 1628 1553 1491 
Q 1847 1884 1905 1995 
Q 1963 2106 1963 2169 
Q 1963 2241 1906 2289 
Q 1850 2338 1631 2369 
Q 1606 2406 1606 2431 
L 1616 2463 
L 1697 2466 
Q 1728 2466 1806 2463 
Q 1941 2453 2075 2453 
Q 2144 2453 2312 2458 
Q 2481 2463 2569 2463 
L 2713 2463 
Q 2753 2444 2753 2413 
Q 2753 2397 2747 2372 
Q 2697 2359 2625 2347 
Q 2456 2322 2297 2225 
Q 2178 2153 2063 1997 
L 1619 1397 
L 2072 828 
Q 2384 406 2454 331 
Q 2525 256 2606 209 
Q 2688 163 2844 122 
Q 2847 84 2847 56 
Q 2847 34 2834 -3 
Q 2778 -3 2266 13 
Q 2234 13 1966 6 
Q 1881 3 1803 3 
Q 1731 3 1625 9 
L 1634 103 
Q 1681 113 1738 125 
Q 1897 156 1966 209 
Q 2006 244 2006 284 
Q 2006 353 1581 859 
L 1397 1081 
Q 1266 950 1106 709 
Q 1016 569 959 500 
Q 853 375 853 291 
Q 853 263 890 233 
Q 928 203 1109 163 
Q 1231 138 1281 122 
Q 1291 81 1291 59 
Q 1291 41 1284 0 
Q 1044 13 816 13 
Q 528 13 398 5 
Q 269 -3 238 -3 
Q 200 -3 119 3 
Q 106 47 106 69 
L 113 109 
Q 156 131 222 138 
Q 431 159 593 293 
Q 756 428 1316 1191 
L 900 1691 
L 456 2222 
Q 438 2241 409 2259 
Q 359 2288 275 2303 
Q 147 2328 94 2341 
z
" transform="scale(0.015625)"/>
     </defs>
     <use xlink:href="#Garamond-54"/>
     <use xlink:href="#Garamond-78" x="61.474609"/>
     <use xlink:href="#Garamond-74" x="107.324219"/>
    </g>
   </g>
   <g id="text_20">
    <!-- Wd&amp;Ppr -->
    <g transform="translate(433.490384 284.334972) scale(0.1 -0.1)">
     <defs>
      <path id="Garamond-57" d="M -59 3875 
L -63 3925 
Q -19 3981 184 3981 
L 475 3978 
L 644 3975 
L 719 3978 
Q 1128 3978 1213 3966 
Q 1216 3928 1216 3909 
Q 1216 3881 1209 3828 
L 906 3816 
Q 884 3813 847 3800 
Q 834 3769 834 3753 
Q 834 3734 853 3694 
Q 878 3641 900 3581 
L 1097 3031 
L 1566 1856 
Q 1647 1641 1675 1578 
Q 1763 1381 1897 1028 
Q 1944 906 2122 500 
Q 2131 475 2159 419 
Q 2300 647 2572 1216 
Q 2784 1653 2838 1819 
L 2813 1881 
L 2275 3100 
Q 2169 3328 2109 3463 
Q 1988 3744 1931 3784 
Q 1875 3825 1600 3841 
L 1534 3856 
Q 1509 3884 1509 3922 
Q 1516 3950 1538 3966 
Q 1638 3969 1678 3969 
L 1875 3963 
L 1975 3966 
L 2147 3966 
L 2300 3969 
L 2463 3969 
L 2756 3984 
Q 2784 3984 2841 3981 
L 2891 3984 
Q 2934 3984 2956 3964 
Q 2978 3944 2978 3919 
Q 2978 3897 2966 3869 
Q 2916 3850 2788 3838 
Q 2603 3816 2573 3797 
Q 2544 3778 2544 3747 
Q 2544 3688 2784 3119 
L 3103 2397 
Q 3250 2684 3503 3303 
Q 3609 3559 3609 3681 
Q 3609 3747 3556 3800 
Q 3516 3838 3375 3850 
L 3309 3859 
L 3253 3884 
L 3250 3909 
Q 3250 3928 3266 3963 
Q 3297 3988 3322 3991 
Q 3369 3997 3756 3975 
L 3969 3975 
L 4100 3972 
L 4319 3975 
Q 4344 3972 4394 3959 
Q 4419 3934 4419 3913 
Q 4419 3878 4392 3856 
Q 4366 3834 4272 3819 
Q 4034 3778 3916 3694 
Q 3838 3634 3775 3525 
L 3547 3019 
Q 3466 2788 3413 2672 
Q 3391 2600 3331 2481 
L 3203 2184 
Q 3238 2103 3319 1922 
L 3641 1175 
Q 3663 1125 3770 897 
Q 3878 669 3950 475 
L 3997 625 
L 4003 641 
L 4194 1138 
Q 4294 1366 4394 1619 
L 4634 2225 
L 4997 3256 
Q 5053 3434 5088 3600 
L 5097 3650 
Q 5106 3684 5106 3700 
Q 5106 3744 5062 3780 
Q 5019 3816 4753 3878 
Q 4728 3888 4703 3906 
Q 4694 3944 4694 3966 
L 4697 3988 
Q 4828 3994 4863 3994 
L 5103 3988 
L 5375 3991 
L 5609 3991 
L 5703 3984 
L 5706 3953 
Q 5706 3931 5700 3888 
Q 5475 3800 5420 3762 
Q 5366 3725 5336 3681 
Q 5306 3638 5225 3444 
Q 5216 3425 5028 2881 
Q 4988 2800 4944 2666 
Q 4931 2628 4891 2531 
L 4841 2406 
L 4806 2316 
Q 4600 1747 4353 1125 
L 4016 188 
L 3881 -169 
Q 3831 -175 3806 -175 
Q 3784 -175 3744 -172 
Q 3703 -56 3566 266 
Q 3209 1084 2925 1625 
L 2888 1563 
Q 2728 1259 2503 759 
L 2259 266 
Q 2109 -50 2016 -172 
L 1881 -175 
L 1375 1063 
L 956 2044 
L 588 2975 
Q 550 3066 522 3147 
Q 500 3206 481 3269 
Q 450 3366 306 3709 
Q 250 3800 125 3825 
Q 0 3850 -59 3875 
z
" transform="scale(0.015625)"/>
      <path id="Garamond-26" d="M 1394 2225 
Q 1100 2600 1017 2778 
Q 934 2956 934 3116 
Q 934 3391 1162 3597 
Q 1391 3803 1813 3803 
Q 2203 3803 2417 3603 
Q 2631 3403 2631 3106 
Q 2631 2825 2487 2637 
Q 2344 2450 2013 2303 
Q 2122 2150 2363 1878 
Q 2444 1788 2484 1734 
L 3019 1069 
Q 3284 1369 3411 1614 
Q 3538 1859 3538 1991 
Q 3538 2081 3480 2147 
Q 3422 2213 3281 2250 
Q 3269 2281 3269 2297 
L 3275 2325 
L 3634 2359 
Q 3744 2375 3944 2381 
Q 4144 2388 4500 2416 
L 4506 2378 
Q 4506 2359 4494 2325 
Q 4275 2231 4120 2111 
Q 3966 1991 3652 1623 
Q 3338 1256 3113 947 
Q 3509 472 3670 364 
Q 3831 256 4016 256 
Q 4219 256 4369 378 
Q 4469 456 4513 456 
Q 4528 456 4566 444 
Q 4497 150 4438 103 
Q 4200 -94 3916 -94 
Q 3741 -94 3589 -39 
Q 3438 16 3275 131 
Q 3181 200 2959 416 
Q 2819 553 2775 591 
Q 2525 341 2403 250 
Q 2188 91 1933 0 
Q 1678 -91 1350 -91 
Q 947 -91 680 78 
Q 413 247 292 515 
Q 172 784 172 1028 
Q 172 1216 240 1389 
Q 309 1563 421 1686 
Q 534 1809 725 1941 
Q 791 1984 1047 2113 
Q 1206 2191 1394 2225 
z
M 1897 2422 
Q 2072 2497 2172 2675 
Q 2272 2853 2272 3053 
Q 2272 3350 2134 3508 
Q 1997 3666 1784 3666 
Q 1594 3666 1475 3552 
Q 1356 3438 1356 3278 
Q 1356 3113 1481 2916 
Q 1659 2641 1897 2422 
z
M 2691 706 
L 2666 741 
L 2656 753 
L 1959 1584 
Q 1831 1744 1484 2125 
Q 1094 1978 892 1706 
Q 691 1434 691 1131 
Q 691 1047 742 894 
Q 794 741 928 595 
Q 1063 450 1269 369 
Q 1475 288 1741 288 
Q 2047 288 2295 408 
Q 2544 528 2691 706 
z
" transform="scale(0.015625)"/>
      <path id="Garamond-50" d="M 138 3991 
Q 194 4000 209 4000 
Q 316 4000 559 3988 
Q 688 3984 734 3984 
Q 803 3984 1025 3997 
L 1556 4028 
Q 1766 4047 2044 4047 
Q 2534 4047 2825 3908 
Q 3116 3769 3273 3472 
Q 3431 3175 3431 2881 
Q 3431 2391 3087 2034 
Q 2744 1678 2163 1678 
Q 2000 1678 1890 1711 
Q 1781 1744 1641 1838 
Q 1581 1878 1569 1922 
Q 1581 1944 1603 1953 
Q 1647 1953 1694 1934 
Q 1800 1897 1963 1897 
Q 2209 1897 2429 2019 
Q 2650 2141 2762 2366 
Q 2875 2591 2875 2841 
Q 2875 3084 2756 3314 
Q 2638 3544 2444 3681 
Q 2334 3759 2107 3812 
Q 1881 3866 1756 3866 
Q 1369 3866 1297 3809 
L 1294 3766 
L 1306 3413 
L 1303 3350 
Q 1297 3266 1297 3091 
Q 1297 2453 1316 2297 
L 1316 2122 
L 1356 694 
Q 1356 663 1348 578 
Q 1341 494 1341 431 
Q 1341 281 1366 203 
Q 1441 181 1803 100 
Q 1972 59 1988 53 
Q 2013 44 2031 13 
Q 2019 -34 1998 -48 
Q 1978 -63 1919 -63 
Q 1881 -63 1744 -47 
Q 1475 -19 1322 -19 
L 772 -41 
L 444 -31 
Q 413 -31 263 -38 
L 259 44 
L 666 122 
Q 766 150 788 178 
Q 819 222 819 350 
Q 819 378 822 472 
Q 825 538 825 653 
Q 825 1022 794 2225 
Q 781 2788 781 3369 
L 781 3422 
Q 781 3647 713 3706 
Q 597 3809 134 3875 
Q 119 3909 119 3931 
Q 119 3956 138 3991 
z
" transform="scale(0.015625)"/>
      <path id="Garamond-70" d="M 78 -1631 
Q 75 -1597 75 -1569 
Q 75 -1547 81 -1516 
L 394 -1453 
Q 469 -1416 516 -1363 
Q 531 -1306 531 -1250 
Q 531 -769 506 584 
L 497 1728 
Q 491 2000 463 2072 
Q 447 2109 416 2131 
Q 338 2191 103 2231 
L 122 2325 
Q 459 2469 573 2548 
Q 688 2628 791 2772 
L 828 2781 
Q 850 2781 891 2763 
Q 888 2566 888 2503 
L 891 2159 
Q 1122 2334 1372 2420 
Q 1622 2506 1891 2506 
Q 2372 2506 2703 2167 
Q 3034 1828 3034 1294 
Q 3034 897 2848 581 
Q 2663 266 2336 109 
Q 2009 -47 1678 -47 
Q 1397 -47 1034 106 
Q 975 131 928 150 
Q 922 -100 922 -294 
Q 922 -1259 975 -1375 
Q 1003 -1438 1150 -1450 
Q 1400 -1469 1481 -1522 
Q 1528 -1550 1544 -1634 
L 1234 -1641 
L 953 -1634 
L 484 -1638 
L 78 -1631 
z
M 894 1944 
Q 888 1900 888 1863 
Q 888 747 909 613 
Q 953 366 1084 266 
Q 1288 106 1666 106 
Q 2056 106 2325 376 
Q 2594 647 2594 1078 
Q 2594 1597 2309 1900 
Q 2025 2203 1559 2203 
Q 1363 2203 1197 2139 
Q 1031 2075 894 1944 
z
" transform="scale(0.015625)"/>
     </defs>
     <use xlink:href="#Garamond-57"/>
     <use xlink:href="#Garamond-64" x="82.275391"/>
     <use xlink:href="#Garamond-26" x="132.275391"/>
     <use xlink:href="#Garamond-50" x="205.175781"/>
     <use xlink:href="#Garamond-70" x="261.425781"/>
     <use xlink:href="#Garamond-72" x="312.451172"/>
    </g>
   </g>
   <g id="text_21">
    <!-- Pet -->
    <g transform="translate(452.942094 50.39056) scale(0.1 -0.1)">
     <use xlink:href="#Garamond-50"/>
     <use xlink:href="#Garamond-65" x="53.125"/>
     <use xlink:href="#Garamond-74" x="94.775391"/>
    </g>
   </g>
   <g id="text_22">
    <!-- Chem -->
    <g transform="translate(485.75399 339.23637) scale(0.1 -0.1)">
     <defs>
      <path id="Garamond-43" d="M 3703 3825 
Q 3741 3584 3741 3331 
Q 3741 3281 3738 3197 
Q 3694 3188 3672 3188 
Q 3653 3188 3619 3194 
Q 3488 3559 3191 3756 
Q 2894 3953 2456 3953 
Q 2225 3953 2066 3900 
Q 1784 3803 1571 3633 
Q 1359 3463 1212 3227 
Q 1066 2991 980 2655 
Q 894 2319 894 1969 
Q 894 1300 1097 864 
Q 1300 428 1653 242 
Q 2006 56 2366 56 
L 2513 59 
Q 2763 91 2853 119 
Q 3081 184 3229 273 
Q 3378 363 3520 525 
Q 3663 688 3763 903 
L 3800 916 
Q 3816 916 3847 897 
Q 3844 822 3841 800 
Q 3709 272 3650 78 
Q 3600 66 3525 41 
Q 3159 -84 2547 -84 
Q 2053 -84 1808 -17 
Q 1563 50 1273 192 
Q 984 334 765 568 
Q 547 803 412 1161 
Q 278 1519 278 1941 
Q 278 2341 384 2639 
Q 491 2938 712 3244 
Q 934 3550 1236 3753 
Q 1538 3956 1906 4041 
Q 2166 4097 2641 4097 
Q 2988 4097 3294 4005 
Q 3600 3913 3703 3825 
z
" transform="scale(0.015625)"/>
      <path id="Garamond-68" d="M 119 75 
Q 484 141 541 175 
Q 575 197 575 275 
L 572 481 
L 575 847 
L 569 1778 
L 572 2125 
L 572 2372 
L 581 2675 
Q 581 3388 567 3527 
Q 553 3666 513 3700 
Q 438 3772 100 3850 
L 100 3866 
Q 100 3888 106 3928 
Q 150 3934 190 3943 
Q 231 3953 269 3956 
Q 641 4063 809 4163 
L 963 4163 
Q 969 4075 969 3609 
L 966 3213 
L 969 2700 
L 956 2069 
Q 956 2013 963 1944 
Q 1159 2172 1250 2247 
Q 1413 2378 1597 2454 
Q 1781 2531 1984 2531 
Q 2369 2531 2613 2206 
Q 2753 2016 2753 1666 
L 2744 1347 
L 2747 1169 
L 2734 859 
Q 2722 475 2722 403 
Q 2722 322 2728 184 
L 2906 144 
Q 3084 106 3181 75 
L 3178 -22 
L 2513 -3 
Q 2456 -3 2206 -16 
Q 2053 -22 2028 -22 
L 1959 -22 
Q 1944 6 1944 25 
L 1944 53 
Q 1988 109 2106 128 
L 2294 172 
Q 2331 203 2338 238 
Q 2350 319 2366 1044 
L 2372 1275 
Q 2384 1641 2316 1881 
Q 2272 2047 2117 2145 
Q 1963 2244 1759 2244 
Q 1591 2244 1441 2172 
Q 1338 2119 1194 1987 
Q 1050 1856 994 1763 
Q 956 1700 956 1556 
L 959 1338 
L 953 1109 
Q 953 1081 963 719 
L 959 519 
L 966 300 
Q 969 253 975 231 
L 1416 125 
Q 1450 116 1519 88 
L 1528 53 
Q 1528 38 1513 3 
Q 1422 0 1375 0 
L 1131 3 
L 594 -3 
L 191 -16 
Q 159 -13 97 -9 
L 94 13 
Q 94 38 119 75 
z
" transform="scale(0.015625)"/>
     </defs>
     <use xlink:href="#Garamond-43"/>
     <use xlink:href="#Garamond-68" x="63.525391"/>
     <use xlink:href="#Garamond-65" x="114.550781"/>
     <use xlink:href="#Garamond-6d" x="156.201172"/>
    </g>
   </g>
   <g id="text_23">
    <!-- R&amp;P -->
    <g transform="translate(481.081341 419.598345) scale(0.1 -0.1)">
     <defs>
      <path id="Garamond-52" d="M 175 94 
Q 631 147 691 169 
Q 731 184 766 263 
L 766 297 
Q 766 375 791 863 
Q 797 1000 797 1131 
L 788 1503 
L 794 1925 
L 791 2709 
L 794 3272 
Q 797 3628 739 3706 
Q 681 3784 440 3817 
Q 200 3850 175 3865 
Q 150 3881 150 3916 
Q 150 3938 159 3972 
Q 191 4000 303 4003 
Q 319 4003 389 4011 
Q 459 4019 522 4019 
L 778 4019 
L 1600 4028 
Q 2297 4028 2576 3925 
Q 2856 3822 3022 3576 
Q 3188 3331 3188 3028 
Q 3188 2453 2584 2150 
Q 2481 2097 2422 2056 
Q 2528 1831 2719 1516 
L 3116 834 
Q 3353 459 3443 364 
Q 3534 269 3664 206 
Q 3794 144 4100 88 
Q 4103 56 4103 38 
Q 4103 19 4100 -9 
Q 3672 -16 3097 -16 
Q 3056 -16 2984 -9 
Q 2763 416 2463 925 
L 2000 1769 
Q 1906 1900 1845 1933 
Q 1784 1966 1684 1966 
L 1419 1963 
L 1331 1966 
Q 1322 1866 1322 1556 
L 1322 488 
Q 1319 428 1347 322 
Q 1372 263 1433 227 
Q 1494 191 1784 119 
L 1913 88 
Q 1938 56 1938 3 
Q 1853 -13 1819 -13 
Q 1538 -13 1422 -6 
Q 1363 -3 1325 -3 
L 900 -9 
L 484 -6 
Q 456 -6 200 -16 
L 138 -3 
L 131 28 
Q 131 56 175 94 
z
M 1338 2138 
Q 1422 2134 1463 2134 
Q 1688 2134 1981 2188 
Q 2188 2228 2316 2320 
Q 2444 2413 2530 2594 
Q 2616 2775 2616 2969 
Q 2616 3181 2481 3419 
Q 2378 3600 2133 3722 
Q 1888 3844 1544 3844 
Q 1459 3844 1325 3834 
Q 1313 3672 1313 3584 
L 1328 3000 
L 1325 2759 
Q 1325 2516 1338 2138 
z
" transform="scale(0.015625)"/>
     </defs>
     <use xlink:href="#Garamond-52"/>
     <use xlink:href="#Garamond-26" x="62.5"/>
     <use xlink:href="#Garamond-50" x="135.400391"/>
    </g>
   </g>
   <g id="text_24">
    <!-- Met -->
    <g transform="translate(513.466424 327.180585) scale(0.1 -0.1)">
     <use xlink:href="#Garamond-4d"/>
     <use xlink:href="#Garamond-65" x="83.349609"/>
     <use xlink:href="#Garamond-74" x="125"/>
    </g>
   </g>
   <g id="text_25">
    <!-- Elc&amp;Comp -->
    <g transform="translate(598.179889 255.668385) scale(0.1 -0.1)">
     <defs>
      <path id="Garamond-45" d="M 156 50 
Q 188 78 209 84 
Q 263 100 391 109 
Q 694 128 766 166 
Q 809 228 809 341 
L 806 559 
L 809 1353 
L 803 1728 
L 806 2513 
L 791 3403 
Q 788 3722 750 3763 
Q 694 3822 416 3831 
Q 297 3834 206 3850 
Q 166 3872 166 3906 
Q 166 3931 181 3966 
Q 209 3981 231 3981 
Q 275 3981 338 3978 
Q 522 3963 719 3963 
L 950 3969 
L 1500 3956 
Q 1913 3956 2144 3965 
Q 2375 3975 2456 3975 
Q 2528 3975 2813 3963 
L 3256 3966 
L 3309 3956 
L 3569 3966 
L 3600 3950 
Q 3616 3925 3622 3897 
Q 3622 3853 3608 3762 
Q 3594 3672 3594 3650 
Q 3594 3325 3616 3100 
Q 3613 3081 3597 3075 
Q 3563 3075 3534 3084 
Q 3500 3144 3442 3294 
Q 3384 3444 3269 3641 
Q 3191 3772 3147 3797 
Q 3103 3822 2966 3822 
Q 2938 3822 2681 3828 
Q 2613 3831 2547 3831 
L 1656 3813 
L 1578 3813 
Q 1406 3813 1372 3769 
Q 1319 3694 1319 3328 
Q 1319 3291 1334 2578 
L 1334 2144 
Q 1369 2134 1409 2134 
L 1463 2134 
Q 1516 2134 1619 2131 
Q 1781 2125 1838 2125 
Q 1875 2125 1903 2128 
Q 2241 2141 2772 2141 
Q 2938 2169 2966 2206 
Q 3013 2263 3036 2500 
Q 3059 2738 3141 2769 
Q 3181 2769 3216 2753 
Q 3222 2728 3222 2706 
Q 3222 2684 3216 2634 
Q 3200 2519 3200 1909 
Q 3200 1747 3217 1547 
Q 3234 1347 3234 1331 
Q 3234 1303 3225 1256 
Q 3200 1244 3184 1244 
L 3163 1244 
Q 3113 1331 3066 1516 
Q 2984 1831 2895 1911 
Q 2806 1991 2606 1991 
Q 2563 1991 2447 1986 
Q 2331 1981 2103 1981 
L 1900 1981 
Q 1466 1981 1331 1963 
L 1328 1859 
L 1331 1284 
L 1328 922 
L 1331 569 
Q 1334 250 1372 200 
Q 1425 131 1603 131 
L 1794 134 
Q 1819 134 1989 129 
Q 2159 125 2409 125 
Q 3013 125 3213 176 
Q 3413 228 3542 359 
Q 3672 491 3869 925 
Q 3928 1053 3988 1053 
Q 4016 1053 4050 1028 
Q 3959 719 3947 622 
Q 3913 403 3906 175 
Q 3906 72 3856 3 
L 3788 3 
L 2909 -6 
L 2516 -3 
L 1578 -16 
L 1197 -16 
Q 1125 -16 1063 -19 
Q 500 -44 234 -44 
Q 188 -44 170 -28 
Q 153 -13 153 19 
L 156 50 
z
" transform="scale(0.015625)"/>
     </defs>
     <use xlink:href="#Garamond-45"/>
     <use xlink:href="#Garamond-6c" x="65.625"/>
     <use xlink:href="#Garamond-63" x="88.525391"/>
     <use xlink:href="#Garamond-26" x="130.175781"/>
     <use xlink:href="#Garamond-43" x="203.076172"/>
     <use xlink:href="#Garamond-6f" x="266.601562"/>
     <use xlink:href="#Garamond-6d" x="317.626953"/>
     <use xlink:href="#Garamond-70" x="394.726562"/>
    </g>
   </g>
   <g id="text_26">
    <!-- Mach -->
    <g transform="translate(616.167829 196.283096) scale(0.1 -0.1)">
     <use xlink:href="#Garamond-4d"/>
     <use xlink:href="#Garamond-61" x="83.349609"/>
     <use xlink:href="#Garamond-63" x="123.974609"/>
     <use xlink:href="#Garamond-68" x="164.25"/>
    </g>
   </g>
   <g id="text_27">
    <!-- OthMfg -->
    <g transform="translate(341.586543 446.702954) scale(0.1 -0.1)">
     <defs>
      <path id="Garamond-4f" d="M 294 1997 
Q 294 2316 370 2564 
Q 447 2813 628 3103 
Q 809 3394 1065 3589 
Q 1322 3784 1775 3934 
Q 2094 4038 2581 4038 
Q 2909 4038 3223 3950 
Q 3538 3863 3794 3706 
Q 4050 3550 4306 3225 
Q 4484 3000 4575 2741 
Q 4694 2400 4694 2038 
Q 4694 1625 4614 1353 
Q 4534 1081 4347 816 
Q 4200 609 3844 341 
Q 3606 159 3253 48 
Q 2900 -63 2491 -63 
Q 2075 -63 1750 34 
Q 1425 131 1208 270 
Q 991 409 761 681 
Q 531 953 412 1281 
Q 294 1609 294 1997 
z
M 2463 53 
Q 2725 53 3008 126 
Q 3291 200 3509 370 
Q 3728 541 3851 758 
Q 3975 975 4050 1315 
Q 4125 1656 4125 1997 
Q 4125 2422 4000 2838 
Q 3903 3153 3684 3401 
Q 3466 3650 3156 3786 
Q 2847 3922 2497 3922 
Q 2213 3922 1941 3828 
Q 1669 3734 1494 3589 
Q 1319 3444 1169 3176 
Q 1019 2909 941 2587 
Q 863 2266 863 2019 
Q 863 1759 941 1431 
Q 1019 1103 1155 862 
Q 1291 622 1489 436 
Q 1688 250 1934 151 
Q 2181 53 2463 53 
z
" transform="scale(0.015625)"/>
      <path id="Garamond-66" d="M 1150 2434 
Q 1928 2416 1978 2416 
Q 1984 2347 1984 2313 
Q 1984 2272 1975 2191 
Q 1897 2178 1816 2178 
L 1697 2178 
Q 1309 2178 1159 2150 
Q 1153 2078 1153 2041 
Q 1153 2025 1156 1994 
Q 1172 1503 1172 1400 
L 1166 597 
Q 1166 419 1225 300 
Q 1259 231 1353 191 
Q 1413 163 1641 134 
Q 1813 109 1872 100 
Q 1872 34 1863 0 
L 1819 -3 
Q 1669 6 1428 13 
L 1197 22 
L 409 -3 
L 306 -3 
L 303 94 
Q 350 103 372 109 
Q 641 159 719 222 
Q 750 247 763 313 
Q 769 350 769 663 
Q 769 1553 753 2084 
Q 672 2109 503 2116 
Q 441 2116 306 2128 
L 300 2163 
Q 300 2200 331 2225 
Q 344 2238 594 2356 
Q 691 2400 731 2466 
Q 753 2500 756 2609 
Q 759 2659 775 2781 
Q 813 3103 834 3178 
Q 891 3388 1023 3595 
Q 1156 3803 1344 3959 
Q 1481 4072 1654 4128 
Q 1828 4184 2050 4184 
Q 2347 4184 2484 4088 
Q 2578 4022 2578 3919 
Q 2578 3831 2512 3768 
Q 2447 3706 2350 3706 
Q 2231 3706 2094 3766 
Q 1834 3869 1800 3878 
Q 1741 3894 1678 3894 
Q 1506 3894 1364 3784 
Q 1222 3675 1184 3515 
Q 1147 3356 1147 2800 
Q 1147 2600 1150 2434 
z
" transform="scale(0.015625)"/>
     </defs>
     <use xlink:href="#Garamond-4f"/>
     <use xlink:href="#Garamond-74" x="78.125"/>
     <use xlink:href="#Garamond-68" x="107.275391"/>
     <use xlink:href="#Garamond-4d" x="158.300781"/>
     <use xlink:href="#Garamond-66" x="241.650391"/>
     <use xlink:href="#Garamond-67" x="273.925781"/>
    </g>
   </g>
   <g id="text_28">
    <!-- Con -->
    <g transform="translate(338.970323 460.053942) scale(0.1 -0.1)">
     <use xlink:href="#Garamond-43"/>
     <use xlink:href="#Garamond-6f" x="63.525391"/>
     <use xlink:href="#Garamond-6e" x="114.550781"/>
    </g>
   </g>
   <g id="text_29">
    <!-- Whl&amp;Ret -->
    <g transform="translate(354.59409 423.28579) scale(0.1 -0.1)">
     <use xlink:href="#Garamond-57"/>
     <use xlink:href="#Garamond-68" x="89.525391"/>
     <use xlink:href="#Garamond-6c" x="140.550781"/>
     <use xlink:href="#Garamond-26" x="163.451172"/>
     <use xlink:href="#Garamond-52" x="236.351562"/>
     <use xlink:href="#Garamond-65" x="296.351562"/>
     <use xlink:href="#Garamond-74" x="338.001953"/>
    </g>
   </g>
   <g id="text_30">
    <!-- Trn&amp;Stg -->
    <g transform="translate(443.467973 253.355754) scale(0.1 -0.1)">
     <defs>
      <path id="Garamond-53" d="M 2484 3856 
Q 2509 3650 2509 3619 
L 2497 3341 
Q 2491 3163 2481 3113 
Q 2453 3100 2434 3100 
L 2406 3106 
Q 2306 3544 2067 3744 
Q 1828 3944 1484 3944 
Q 1128 3944 900 3744 
Q 672 3544 672 3278 
Q 672 3075 831 2906 
Q 991 2738 1647 2400 
Q 2147 2141 2362 1977 
Q 2578 1813 2687 1597 
Q 2797 1381 2797 1116 
Q 2797 781 2623 487 
Q 2450 194 2156 45 
Q 1863 -103 1378 -103 
Q 956 -103 569 31 
Q 341 113 291 163 
Q 241 213 241 269 
Q 241 303 247 356 
Q 291 725 294 963 
Q 300 1109 316 1134 
Q 328 1156 363 1156 
Q 391 1156 408 1136 
Q 425 1116 431 1059 
Q 466 675 788 372 
Q 1106 69 1509 69 
Q 1756 69 1964 172 
Q 2172 275 2289 470 
Q 2406 666 2406 850 
Q 2406 1103 2228 1313 
Q 2050 1522 1512 1801 
Q 975 2081 813 2209 
Q 550 2419 419 2653 
Q 322 2834 322 3075 
Q 322 3509 665 3811 
Q 1009 4113 1588 4113 
Q 1906 4113 2138 4041 
Q 2306 3984 2484 3856 
z
" transform="scale(0.015625)"/>
     </defs>
     <use xlink:href="#Garamond-54"/>
     <use xlink:href="#Garamond-72" x="56.474609"/>
     <use xlink:href="#Garamond-6e" x="91.824219"/>
     <use xlink:href="#Garamond-26" x="142.849609"/>
     <use xlink:href="#Garamond-53" x="215.75"/>
     <use xlink:href="#Garamond-74" x="263.650391"/>
     <use xlink:href="#Garamond-67" x="292.800781"/>
    </g>
   </g>
   <g id="text_31">
    <!-- Acc -->
    <g transform="translate(387.541393 391.920865) scale(0.1 -0.1)">
     <use xlink:href="#Garamond-41"/>
     <use xlink:href="#Garamond-63" x="67.724609"/>
     <use xlink:href="#Garamond-63" x="109.375"/>
    </g>
   </g>
   <g id="text_32">
    <!-- ICT -->
    <g transform="translate(298.016232 504.469603) scale(0.1 -0.1)">
     <defs>
      <path id="Garamond-49" d="M 134 100 
Q 203 128 275 134 
Q 753 166 822 248 
Q 891 331 891 1050 
L 888 1378 
L 888 1722 
L 875 2100 
L 881 2322 
L 878 2566 
L 878 2853 
L 872 2981 
L 878 3144 
Q 881 3200 881 3275 
Q 881 3472 863 3691 
Q 850 3734 828 3775 
Q 713 3834 455 3854 
Q 197 3875 163 3900 
Q 138 3919 134 3997 
L 397 3997 
L 1225 3978 
Q 1544 3978 2075 3997 
Q 2075 3947 2069 3903 
Q 2006 3888 1859 3869 
Q 1563 3834 1497 3803 
Q 1456 3788 1438 3750 
Q 1406 3694 1400 3541 
L 1384 3138 
L 1397 1747 
L 1397 1197 
Q 1391 938 1391 844 
Q 1391 494 1408 397 
Q 1425 300 1467 258 
Q 1509 216 1606 191 
Q 1750 156 1831 153 
Q 2006 147 2053 103 
Q 2063 63 2063 34 
L 2063 9 
Q 1778 0 1644 0 
Q 1566 0 1366 9 
L 934 3 
L 200 6 
L 141 6 
L 134 100 
z
" transform="scale(0.015625)"/>
     </defs>
     <use xlink:href="#Garamond-49"/>
     <use xlink:href="#Garamond-43" x="35.400391"/>
     <use xlink:href="#Garamond-54" x="98.925781"/>
    </g>
   </g>
   <g id="text_33">
    <!-- Fin&amp;RE -->
    <g transform="translate(342.045863 435.574254) scale(0.1 -0.1)">
     <use xlink:href="#Garamond-46"/>
     <use xlink:href="#Garamond-69" x="56.25"/>
     <use xlink:href="#Garamond-6e" x="79.150391"/>
     <use xlink:href="#Garamond-26" x="130.175781"/>
     <use xlink:href="#Garamond-52" x="203.076172"/>
     <use xlink:href="#Garamond-45" x="265.576172"/>
    </g>
   </g>
   <g id="text_34">
    <!-- OthSrv -->
    <g transform="translate(338.715829 448.968158) scale(0.1 -0.1)">
     <defs>
      <path id="Garamond-76" d="M -34 2481 
Q 313 2478 572 2459 
Q 756 2459 841 2466 
Q 900 2469 916 2469 
L 1266 2466 
Q 1338 2453 1381 2450 
Q 1400 2444 1416 2416 
Q 1416 2384 1397 2350 
Q 1344 2334 1288 2331 
Q 1053 2306 894 2259 
Q 872 2244 872 2228 
Q 872 2197 903 2131 
Q 909 2116 931 2056 
L 1244 1306 
Q 1453 791 1631 438 
Q 1753 669 1856 916 
Q 1959 1163 2159 1694 
Q 2216 1844 2266 2066 
Q 2275 2109 2275 2141 
Q 2275 2178 2233 2223 
Q 2191 2269 2091 2297 
Q 2069 2300 1806 2344 
Q 1784 2356 1766 2378 
L 1766 2403 
Q 1766 2419 1769 2444 
Q 1844 2453 1878 2453 
L 2247 2450 
Q 2284 2450 2425 2459 
Q 2922 2459 3022 2450 
Q 3041 2444 3056 2413 
Q 3056 2384 3038 2350 
L 2941 2325 
Q 2903 2322 2881 2319 
Q 2613 2294 2550 2244 
Q 2503 2209 2403 1922 
Q 2356 1781 2266 1566 
L 2103 1172 
Q 2069 1088 2028 988 
L 1544 -131 
L 1450 -131 
Q 1422 -56 1381 25 
L 1144 528 
L 584 1838 
Q 416 2219 381 2250 
Q 347 2281 -19 2381 
Q -38 2431 -38 2453 
L -34 2481 
z
" transform="scale(0.015625)"/>
     </defs>
     <use xlink:href="#Garamond-4f"/>
     <use xlink:href="#Garamond-74" x="78.125"/>
     <use xlink:href="#Garamond-68" x="107.275391"/>
     <use xlink:href="#Garamond-53" x="158.300781"/>
     <use xlink:href="#Garamond-72" x="206.201172"/>
     <use xlink:href="#Garamond-76" x="243.425781"/>
    </g>
   </g>
   <g id="text_35">
    <!-- Agri -->
    <g transform="translate(426.364557 374.01585) scale(0.1 -0.1)">
     <use xlink:href="#Garamond-41"/>
     <use xlink:href="#Garamond-67" x="67.724609"/>
     <use xlink:href="#Garamond-72" x="115"/>
     <use xlink:href="#Garamond-69" x="148.349609"/>
    </g>
   </g>
   <g id="text_36">
    <!-- Min -->
    <g transform="translate(864.843184 360.678792) scale(0.1 -0.1)">
     <use xlink:href="#Garamond-4d"/>
     <use xlink:href="#Garamond-69" x="83.349609"/>
     <use xlink:href="#Garamond-6e" x="106.25"/>
    </g>
   </g>
   <g id="text_37">
    <!-- Fd -->
    <g transform="translate(372.802067 360.857815) scale(0.1 -0.1)">
     <use xlink:href="#Garamond-46"/>
     <use xlink:href="#Garamond-64" x="56.25"/>
    </g>
   </g>
   <g id="text_38">
    <!-- Txt -->
    <g transform="translate(144.47697 554.48907) scale(0.1 -0.1)">
     <use xlink:href="#Garamond-54"/>
     <use xlink:href="#Garamond-78" x="61.474609"/>
     <use xlink:href="#Garamond-74" x="107.324219"/>
    </g>
   </g>
   <g id="text_39">
    <!-- Wd&amp;Ppr -->
    <g transform="translate(476.815818 206.946469) scale(0.1 -0.1)">
     <use xlink:href="#Garamond-57"/>
     <use xlink:href="#Garamond-64" x="82.275391"/>
     <use xlink:href="#Garamond-26" x="132.275391"/>
     <use xlink:href="#Garamond-50" x="205.175781"/>
     <use xlink:href="#Garamond-70" x="261.425781"/>
     <use xlink:href="#Garamond-72" x="312.451172"/>
    </g>
   </g>
   <g id="text_40">
    <!-- Pet -->
    <g transform="translate(439.298051 198.253186) scale(0.1 -0.1)">
     <use xlink:href="#Garamond-50"/>
     <use xlink:href="#Garamond-65" x="53.125"/>
     <use xlink:href="#Garamond-74" x="94.775391"/>
    </g>
   </g>
   <g id="text_41">
    <!-- Chem -->
    <g transform="translate(541.633338 258.272676) scale(0.1 -0.1)">
     <use xlink:href="#Garamond-43"/>
     <use xlink:href="#Garamond-68" x="63.525391"/>
     <use xlink:href="#Garamond-65" x="114.550781"/>
     <use xlink:href="#Garamond-6d" x="156.201172"/>
    </g>
   </g>
   <g id="text_42">
    <!-- R&amp;P -->
    <g transform="translate(510.551311 356.571339) scale(0.1 -0.1)">
     <use xlink:href="#Garamond-52"/>
     <use xlink:href="#Garamond-26" x="62.5"/>
     <use xlink:href="#Garamond-50" x="135.400391"/>
    </g>
   </g>
   <g id="text_43">
    <!-- Met -->
    <g transform="translate(590.471774 243.228295) scale(0.1 -0.1)">
     <use xlink:href="#Garamond-4d"/>
     <use xlink:href="#Garamond-65" x="83.349609"/>
     <use xlink:href="#Garamond-74" x="125"/>
    </g>
   </g>
   <g id="text_44">
    <!-- Elc&amp;Comp -->
    <g transform="translate(740.211924 74.909217) scale(0.1 -0.1)">
     <use xlink:href="#Garamond-45"/>
     <use xlink:href="#Garamond-6c" x="65.625"/>
     <use xlink:href="#Garamond-63" x="88.525391"/>
     <use xlink:href="#Garamond-26" x="130.175781"/>
     <use xlink:href="#Garamond-43" x="203.076172"/>
     <use xlink:href="#Garamond-6f" x="266.601562"/>
     <use xlink:href="#Garamond-6d" x="317.626953"/>
     <use xlink:href="#Garamond-70" x="394.726562"/>
    </g>
   </g>
   <g id="text_45">
    <!-- Mach -->
    <g transform="translate(720.217031 45.705238) scale(0.1 -0.1)">
     <use xlink:href="#Garamond-4d"/>
     <use xlink:href="#Garamond-61" x="83.349609"/>
     <use xlink:href="#Garamond-63" x="123.974609"/>
     <use xlink:href="#Garamond-68" x="164.25"/>
    </g>
   </g>
   <g id="text_46">
    <!-- OthMfg -->
    <g transform="translate(371.861999 439.894144) scale(0.1 -0.1)">
     <use xlink:href="#Garamond-4f"/>
     <use xlink:href="#Garamond-74" x="78.125"/>
     <use xlink:href="#Garamond-68" x="107.275391"/>
     <use xlink:href="#Garamond-4d" x="158.300781"/>
     <use xlink:href="#Garamond-66" x="241.650391"/>
     <use xlink:href="#Garamond-67" x="273.925781"/>
    </g>
   </g>
   <g id="text_47">
    <!-- Con -->
    <g transform="translate(344.162234 441.867208) scale(0.1 -0.1)">
     <use xlink:href="#Garamond-43"/>
     <use xlink:href="#Garamond-6f" x="63.525391"/>
     <use xlink:href="#Garamond-6e" x="114.550781"/>
    </g>
   </g>
   <g id="text_48">
    <!-- Whl&amp;Ret -->
    <g transform="translate(390.575423 409.562186) scale(0.1 -0.1)">
     <use xlink:href="#Garamond-57"/>
     <use xlink:href="#Garamond-68" x="89.525391"/>
     <use xlink:href="#Garamond-6c" x="140.550781"/>
     <use xlink:href="#Garamond-26" x="163.451172"/>
     <use xlink:href="#Garamond-52" x="236.351562"/>
     <use xlink:href="#Garamond-65" x="296.351562"/>
     <use xlink:href="#Garamond-74" x="338.001953"/>
    </g>
   </g>
   <g id="text_49">
    <!-- Trn&amp;Stg -->
    <g transform="translate(467.944615 269.351073) scale(0.1 -0.1)">
     <use xlink:href="#Garamond-54"/>
     <use xlink:href="#Garamond-72" x="56.474609"/>
     <use xlink:href="#Garamond-6e" x="91.824219"/>
     <use xlink:href="#Garamond-26" x="142.849609"/>
     <use xlink:href="#Garamond-53" x="215.75"/>
     <use xlink:href="#Garamond-74" x="263.650391"/>
     <use xlink:href="#Garamond-67" x="292.800781"/>
    </g>
   </g>
   <g id="text_50">
    <!-- Acc -->
    <g transform="translate(415.055406 370.706806) scale(0.1 -0.1)">
     <use xlink:href="#Garamond-41"/>
     <use xlink:href="#Garamond-63" x="67.724609"/>
     <use xlink:href="#Garamond-63" x="109.375"/>
    </g>
   </g>
   <g id="text_51">
    <!-- ICT -->
    <g transform="translate(364.095196 438.819121) scale(0.1 -0.1)">
     <use xlink:href="#Garamond-49"/>
     <use xlink:href="#Garamond-43" x="35.400391"/>
     <use xlink:href="#Garamond-54" x="98.925781"/>
    </g>
   </g>
   <g id="text_52">
    <!-- Fin&amp;RE -->
    <g transform="translate(363.071317 409.426783) scale(0.1 -0.1)">
     <use xlink:href="#Garamond-46"/>
     <use xlink:href="#Garamond-69" x="56.25"/>
     <use xlink:href="#Garamond-6e" x="79.150391"/>
     <use xlink:href="#Garamond-26" x="130.175781"/>
     <use xlink:href="#Garamond-52" x="203.076172"/>
     <use xlink:href="#Garamond-45" x="265.576172"/>
    </g>
   </g>
   <g id="text_53">
    <!-- OthSrv -->
    <g transform="translate(352.941187 431.635765) scale(0.1 -0.1)">
     <use xlink:href="#Garamond-4f"/>
     <use xlink:href="#Garamond-74" x="78.125"/>
     <use xlink:href="#Garamond-68" x="107.275391"/>
     <use xlink:href="#Garamond-53" x="158.300781"/>
     <use xlink:href="#Garamond-72" x="206.201172"/>
     <use xlink:href="#Garamond-76" x="243.425781"/>
    </g>
   </g>
   <g id="legend_1">
    <g id="patch_26">
     <path d="M 931.56 57.51375 
L 992.46 57.51375 
Q 994.86 57.51375 994.86 55.11375 
L 994.86 21.36 
Q 994.86 18.96 992.46 18.96 
L 931.56 18.96 
Q 929.16 18.96 929.16 21.36 
L 929.16 55.11375 
Q 929.16 57.51375 931.56 57.51375 
z
" style="fill: #ffffff; opacity: 0.8; stroke: #cccccc; stroke-linejoin: miter"/>
    </g>
    <g id="PathCollection_3">
     <g>
      <use xlink:href="#m38d88f3e27" x="945.96" y="29.01" style="fill: #ffb6c1; stroke: #ffb6c1"/>
     </g>
    </g>
    <g id="text_54">
     <!-- 1996 -->
     <g transform="translate(967.56 32.16) scale(0.12 -0.12)">
      <defs>
       <path id="Garamond-39" d="M 2234 3784 
Q 2466 3534 2566 3291 
Q 2700 2947 2700 2494 
Q 2700 1981 2550 1581 
Q 2400 1181 2186 889 
Q 1972 597 1737 408 
Q 1503 219 1159 62 
Q 816 -94 584 -94 
L 559 -94 
Q 522 -66 522 -25 
Q 522 22 537 37 
Q 553 53 619 56 
Q 734 66 1009 200 
Q 1384 388 1581 613 
Q 1916 994 2080 1475 
Q 2244 1956 2244 2553 
Q 2244 3050 2131 3359 
Q 2019 3669 1812 3806 
Q 1606 3944 1416 3944 
Q 1166 3944 991 3706 
Q 750 3375 750 2750 
Q 750 2256 975 1972 
Q 1134 1772 1413 1772 
Q 1513 1772 1556 1791 
L 1581 1800 
Q 1613 1800 1638 1769 
Q 1675 1722 1675 1672 
L 1641 1644 
Q 1572 1613 1483 1597 
Q 1394 1581 1284 1581 
Q 900 1581 590 1931 
Q 281 2281 281 2813 
Q 281 3356 629 3720 
Q 978 4084 1463 4084 
Q 1672 4084 1831 4025 
Q 1991 3966 2234 3784 
z
" transform="scale(0.015625)"/>
      </defs>
      <use xlink:href="#Garamond-31"/>
      <use xlink:href="#Garamond-39" x="46.875"/>
      <use xlink:href="#Garamond-39" x="93.75"/>
      <use xlink:href="#Garamond-36" x="140.625"/>
     </g>
    </g>
    <g id="PathCollection_4">
     <g>
      <use xlink:href="#mf3aaab1ccb" x="945.96" y="46.486875" style="fill: #ff7f0e; stroke: #ff7f0e"/>
     </g>
    </g>
    <g id="text_55">
     <!-- 2006 -->
     <g transform="translate(967.56 49.636875) scale(0.12 -0.12)">
      <use xlink:href="#Garamond-32"/>
      <use xlink:href="#Garamond-30" x="46.875"/>
      <use xlink:href="#Garamond-30" x="93.75"/>
      <use xlink:href="#Garamond-36" x="140.625"/>
     </g>
    </g>
   </g>
  </g>
 </g>
 <defs>
  <clipPath id="p039db5aa19">
   <rect x="48.8" y="12.96" width="874.36" height="661.48"/>
  </clipPath>
 </defs>
</svg>
