<?xml version="1.0" encoding="utf-8" standalone="no"?>
<!DOCTYPE svg PUBLIC "-//W3C//DTD SVG 1.1//EN"
  "http://www.w3.org/Graphics/SVG/1.1/DTD/svg11.dtd">
<svg xmlns:xlink="http://www.w3.org/1999/xlink" width="516.355859pt" height="510.665156pt" viewBox="0 0 516.355859 510.665156" xmlns="http://www.w3.org/2000/svg" version="1.1">
 <metadata>
  <rdf:RDF xmlns:dc="http://purl.org/dc/elements/1.1/" xmlns:cc="http://creativecommons.org/ns#" xmlns:rdf="http://www.w3.org/1999/02/22-rdf-syntax-ns#">
   <cc:Work>
    <dc:type rdf:resource="http://purl.org/dc/dcmitype/StillImage"/>
    <dc:date>2024-08-26T12:52:25.289994</dc:date>
    <dc:format>image/svg+xml</dc:format>
    <dc:creator>
     <cc:Agent>
      <dc:title>Matplotlib v3.7.0, https://matplotlib.org/</dc:title>
     </cc:Agent>
    </dc:creator>
   </cc:Work>
  </rdf:RDF>
 </metadata>
 <defs>
  <style type="text/css">*{stroke-linejoin: round; stroke-linecap: butt}</style>
 </defs>
 <g id="figure_1">
  <g id="patch_1">
   <path d="M 0 510.665156 
L 516.355859 510.665156 
L 516.355859 0 
L 0 0 
z
" style="fill: #ffffff"/>
  </g>
  <g id="axes_1">
   <g id="patch_2">
    <path d="M 54.932344 467.08 
L 498.452344 467.08 
L 498.452344 23.56 
L 54.932344 23.56 
z
" style="fill: #ffffff"/>
   </g>
   <g id="matplotlib.axis_1">
    <g id="xtick_1">
     <g id="line2d_1">
      <path d="M 54.932344 467.08 
L 54.932344 23.56 
" clip-path="url(#pf1c2325306)" style="fill: none; stroke-dasharray: 3.7,1.6; stroke-dashoffset: 0; stroke: #cccccc; stroke-opacity: 0.6"/>
     </g>
     <g id="text_1">
      <!-- 3.00 -->
      <g style="fill: #262626" transform="translate(44.228828 484.453594) scale(0.11 -0.11)">
       <defs>
        <path id="ArialMT-33" d="M 269 1209 
L 831 1284 
Q 928 806 1161 595 
Q 1394 384 1728 384 
Q 2125 384 2398 659 
Q 2672 934 2672 1341 
Q 2672 1728 2419 1979 
Q 2166 2231 1775 2231 
Q 1616 2231 1378 2169 
L 1441 2663 
Q 1497 2656 1531 2656 
Q 1891 2656 2178 2843 
Q 2466 3031 2466 3422 
Q 2466 3731 2256 3934 
Q 2047 4138 1716 4138 
Q 1388 4138 1169 3931 
Q 950 3725 888 3313 
L 325 3413 
Q 428 3978 793 4289 
Q 1159 4600 1703 4600 
Q 2078 4600 2393 4439 
Q 2709 4278 2876 4000 
Q 3044 3722 3044 3409 
Q 3044 3113 2884 2869 
Q 2725 2625 2413 2481 
Q 2819 2388 3044 2092 
Q 3269 1797 3269 1353 
Q 3269 753 2831 336 
Q 2394 -81 1725 -81 
Q 1122 -81 723 278 
Q 325 638 269 1209 
z
" transform="scale(0.015625)"/>
        <path id="ArialMT-2e" d="M 581 0 
L 581 641 
L 1222 641 
L 1222 0 
L 581 0 
z
" transform="scale(0.015625)"/>
        <path id="ArialMT-30" d="M 266 2259 
Q 266 3072 433 3567 
Q 600 4063 929 4331 
Q 1259 4600 1759 4600 
Q 2128 4600 2406 4451 
Q 2684 4303 2865 4023 
Q 3047 3744 3150 3342 
Q 3253 2941 3253 2259 
Q 3253 1453 3087 958 
Q 2922 463 2592 192 
Q 2263 -78 1759 -78 
Q 1097 -78 719 397 
Q 266 969 266 2259 
z
M 844 2259 
Q 844 1131 1108 757 
Q 1372 384 1759 384 
Q 2147 384 2411 759 
Q 2675 1134 2675 2259 
Q 2675 3391 2411 3762 
Q 2147 4134 1753 4134 
Q 1366 4134 1134 3806 
Q 844 3388 844 2259 
z
" transform="scale(0.015625)"/>
       </defs>
       <use xlink:href="#ArialMT-33"/>
       <use xlink:href="#ArialMT-2e" x="55.615234"/>
       <use xlink:href="#ArialMT-30" x="83.398438"/>
       <use xlink:href="#ArialMT-30" x="139.013672"/>
      </g>
     </g>
    </g>
    <g id="xtick_2">
     <g id="line2d_2">
      <path d="M 104.212344 467.08 
L 104.212344 23.56 
" clip-path="url(#pf1c2325306)" style="fill: none; stroke-dasharray: 3.7,1.6; stroke-dashoffset: 0; stroke: #cccccc; stroke-opacity: 0.6"/>
     </g>
     <g id="text_2">
      <!-- 3.25 -->
      <g style="fill: #262626" transform="translate(93.508828 484.453594) scale(0.11 -0.11)">
       <defs>
        <path id="ArialMT-32" d="M 3222 541 
L 3222 0 
L 194 0 
Q 188 203 259 391 
Q 375 700 629 1000 
Q 884 1300 1366 1694 
Q 2113 2306 2375 2664 
Q 2638 3022 2638 3341 
Q 2638 3675 2398 3904 
Q 2159 4134 1775 4134 
Q 1369 4134 1125 3890 
Q 881 3647 878 3216 
L 300 3275 
Q 359 3922 746 4261 
Q 1134 4600 1788 4600 
Q 2447 4600 2831 4234 
Q 3216 3869 3216 3328 
Q 3216 3053 3103 2787 
Q 2991 2522 2730 2228 
Q 2469 1934 1863 1422 
Q 1356 997 1212 845 
Q 1069 694 975 541 
L 3222 541 
z
" transform="scale(0.015625)"/>
        <path id="ArialMT-35" d="M 266 1200 
L 856 1250 
Q 922 819 1161 601 
Q 1400 384 1738 384 
Q 2144 384 2425 690 
Q 2706 997 2706 1503 
Q 2706 1984 2436 2262 
Q 2166 2541 1728 2541 
Q 1456 2541 1237 2417 
Q 1019 2294 894 2097 
L 366 2166 
L 809 4519 
L 3088 4519 
L 3088 3981 
L 1259 3981 
L 1013 2750 
Q 1425 3038 1878 3038 
Q 2478 3038 2890 2622 
Q 3303 2206 3303 1553 
Q 3303 931 2941 478 
Q 2500 -78 1738 -78 
Q 1113 -78 717 272 
Q 322 622 266 1200 
z
" transform="scale(0.015625)"/>
       </defs>
       <use xlink:href="#ArialMT-33"/>
       <use xlink:href="#ArialMT-2e" x="55.615234"/>
       <use xlink:href="#ArialMT-32" x="83.398438"/>
       <use xlink:href="#ArialMT-35" x="139.013672"/>
      </g>
     </g>
    </g>
    <g id="xtick_3">
     <g id="line2d_3">
      <path d="M 153.492344 467.08 
L 153.492344 23.56 
" clip-path="url(#pf1c2325306)" style="fill: none; stroke-dasharray: 3.7,1.6; stroke-dashoffset: 0; stroke: #cccccc; stroke-opacity: 0.6"/>
     </g>
     <g id="text_3">
      <!-- 3.50 -->
      <g style="fill: #262626" transform="translate(142.788828 484.453594) scale(0.11 -0.11)">
       <use xlink:href="#ArialMT-33"/>
       <use xlink:href="#ArialMT-2e" x="55.615234"/>
       <use xlink:href="#ArialMT-35" x="83.398438"/>
       <use xlink:href="#ArialMT-30" x="139.013672"/>
      </g>
     </g>
    </g>
    <g id="xtick_4">
     <g id="line2d_4">
      <path d="M 202.772344 467.08 
L 202.772344 23.56 
" clip-path="url(#pf1c2325306)" style="fill: none; stroke-dasharray: 3.7,1.6; stroke-dashoffset: 0; stroke: #cccccc; stroke-opacity: 0.6"/>
     </g>
     <g id="text_4">
      <!-- 3.75 -->
      <g style="fill: #262626" transform="translate(192.068828 484.453594) scale(0.11 -0.11)">
       <defs>
        <path id="ArialMT-37" d="M 303 3981 
L 303 4522 
L 3269 4522 
L 3269 4084 
Q 2831 3619 2401 2847 
Q 1972 2075 1738 1259 
Q 1569 684 1522 0 
L 944 0 
Q 953 541 1156 1306 
Q 1359 2072 1739 2783 
Q 2119 3494 2547 3981 
L 303 3981 
z
" transform="scale(0.015625)"/>
       </defs>
       <use xlink:href="#ArialMT-33"/>
       <use xlink:href="#ArialMT-2e" x="55.615234"/>
       <use xlink:href="#ArialMT-37" x="83.398438"/>
       <use xlink:href="#ArialMT-35" x="139.013672"/>
      </g>
     </g>
    </g>
    <g id="xtick_5">
     <g id="line2d_5">
      <path d="M 252.052344 467.08 
L 252.052344 23.56 
" clip-path="url(#pf1c2325306)" style="fill: none; stroke-dasharray: 3.7,1.6; stroke-dashoffset: 0; stroke: #cccccc; stroke-opacity: 0.6"/>
     </g>
     <g id="text_5">
      <!-- 4.00 -->
      <g style="fill: #262626" transform="translate(241.348828 484.453594) scale(0.11 -0.11)">
       <defs>
        <path id="ArialMT-34" d="M 2069 0 
L 2069 1097 
L 81 1097 
L 81 1613 
L 2172 4581 
L 2631 4581 
L 2631 1613 
L 3250 1613 
L 3250 1097 
L 2631 1097 
L 2631 0 
L 2069 0 
z
M 2069 1613 
L 2069 3678 
L 634 1613 
L 2069 1613 
z
" transform="scale(0.015625)"/>
       </defs>
       <use xlink:href="#ArialMT-34"/>
       <use xlink:href="#ArialMT-2e" x="55.615234"/>
       <use xlink:href="#ArialMT-30" x="83.398438"/>
       <use xlink:href="#ArialMT-30" x="139.013672"/>
      </g>
     </g>
    </g>
    <g id="xtick_6">
     <g id="line2d_6">
      <path d="M 301.332344 467.08 
L 301.332344 23.56 
" clip-path="url(#pf1c2325306)" style="fill: none; stroke-dasharray: 3.7,1.6; stroke-dashoffset: 0; stroke: #cccccc; stroke-opacity: 0.6"/>
     </g>
     <g id="text_6">
      <!-- 4.25 -->
      <g style="fill: #262626" transform="translate(290.628828 484.453594) scale(0.11 -0.11)">
       <use xlink:href="#ArialMT-34"/>
       <use xlink:href="#ArialMT-2e" x="55.615234"/>
       <use xlink:href="#ArialMT-32" x="83.398438"/>
       <use xlink:href="#ArialMT-35" x="139.013672"/>
      </g>
     </g>
    </g>
    <g id="xtick_7">
     <g id="line2d_7">
      <path d="M 350.612344 467.08 
L 350.612344 23.56 
" clip-path="url(#pf1c2325306)" style="fill: none; stroke-dasharray: 3.7,1.6; stroke-dashoffset: 0; stroke: #cccccc; stroke-opacity: 0.6"/>
     </g>
     <g id="text_7">
      <!-- 4.50 -->
      <g style="fill: #262626" transform="translate(339.908828 484.453594) scale(0.11 -0.11)">
       <use xlink:href="#ArialMT-34"/>
       <use xlink:href="#ArialMT-2e" x="55.615234"/>
       <use xlink:href="#ArialMT-35" x="83.398438"/>
       <use xlink:href="#ArialMT-30" x="139.013672"/>
      </g>
     </g>
    </g>
    <g id="xtick_8">
     <g id="line2d_8">
      <path d="M 399.892344 467.08 
L 399.892344 23.56 
" clip-path="url(#pf1c2325306)" style="fill: none; stroke-dasharray: 3.7,1.6; stroke-dashoffset: 0; stroke: #cccccc; stroke-opacity: 0.6"/>
     </g>
     <g id="text_8">
      <!-- 4.75 -->
      <g style="fill: #262626" transform="translate(389.188828 484.453594) scale(0.11 -0.11)">
       <use xlink:href="#ArialMT-34"/>
       <use xlink:href="#ArialMT-2e" x="55.615234"/>
       <use xlink:href="#ArialMT-37" x="83.398438"/>
       <use xlink:href="#ArialMT-35" x="139.013672"/>
      </g>
     </g>
    </g>
    <g id="xtick_9">
     <g id="line2d_9">
      <path d="M 449.172344 467.08 
L 449.172344 23.56 
" clip-path="url(#pf1c2325306)" style="fill: none; stroke-dasharray: 3.7,1.6; stroke-dashoffset: 0; stroke: #cccccc; stroke-opacity: 0.6"/>
     </g>
     <g id="text_9">
      <!-- 5.00 -->
      <g style="fill: #262626" transform="translate(438.468828 484.453594) scale(0.11 -0.11)">
       <use xlink:href="#ArialMT-35"/>
       <use xlink:href="#ArialMT-2e" x="55.615234"/>
       <use xlink:href="#ArialMT-30" x="83.398438"/>
       <use xlink:href="#ArialMT-30" x="139.013672"/>
      </g>
     </g>
    </g>
    <g id="xtick_10">
     <g id="line2d_10">
      <path d="M 498.452344 467.08 
L 498.452344 23.56 
" clip-path="url(#pf1c2325306)" style="fill: none; stroke-dasharray: 3.7,1.6; stroke-dashoffset: 0; stroke: #cccccc; stroke-opacity: 0.6"/>
     </g>
     <g id="text_10">
      <!-- 5.25 -->
      <g style="fill: #262626" transform="translate(487.748828 484.453594) scale(0.11 -0.11)">
       <use xlink:href="#ArialMT-35"/>
       <use xlink:href="#ArialMT-2e" x="55.615234"/>
       <use xlink:href="#ArialMT-32" x="83.398438"/>
       <use xlink:href="#ArialMT-35" x="139.013672"/>
      </g>
     </g>
    </g>
    <g id="text_11">
     <!-- Forward GVC Length -->
     <g style="fill: #262626" transform="translate(216.708906 499.855781) scale(0.14 -0.14)">
      <defs>
       <path id="Garamond-46" d="M 184 -47 
L 188 31 
Q 256 66 417 92 
Q 578 119 639 145 
Q 700 172 741 216 
Q 769 353 769 713 
L 725 3144 
L 734 3547 
Q 734 3672 689 3719 
Q 644 3766 453 3805 
Q 263 3844 228 3869 
Q 194 3894 194 3922 
Q 194 3938 203 3963 
Q 244 3988 288 3988 
Q 334 3988 478 3981 
L 566 3981 
Q 609 3981 813 3988 
L 1247 3988 
L 2144 4003 
L 3094 4041 
L 3178 4041 
L 3313 4044 
Q 3369 4044 3413 4013 
Q 3431 3963 3434 3941 
L 3431 3816 
L 3459 3256 
Q 3459 3222 3453 3169 
Q 3403 3147 3363 3147 
Q 3334 3147 3319 3166 
Q 3294 3200 3288 3297 
Q 3275 3431 3191 3644 
Q 3150 3744 3056 3781 
Q 2869 3853 2425 3853 
Q 2216 3853 2034 3842 
Q 1853 3831 1813 3831 
L 1569 3834 
Q 1419 3834 1322 3791 
Q 1256 3763 1256 3656 
L 1256 3609 
Q 1266 3450 1266 3256 
L 1256 2406 
Q 1256 2281 1275 2169 
L 1366 2163 
L 1541 2172 
L 2138 2172 
Q 2497 2172 2638 2222 
Q 2731 2256 2778 2325 
Q 2794 2347 2856 2572 
L 2897 2831 
Q 2934 2850 2953 2850 
Q 2969 2850 3003 2834 
Q 3016 2763 3019 2616 
L 3056 1466 
Q 3003 1444 2975 1444 
L 2941 1450 
Q 2891 1763 2784 1941 
Q 2747 2003 2700 2013 
Q 2619 2031 1956 2031 
Q 1750 2031 1672 2028 
Q 1484 2019 1447 2019 
L 1416 2019 
Q 1322 2019 1281 1994 
Q 1269 1956 1269 1941 
L 1269 1725 
Q 1269 1688 1272 1413 
L 1266 378 
Q 1266 334 1291 269 
Q 1356 216 1529 198 
Q 1703 181 1856 116 
Q 1944 75 1944 25 
Q 1944 3 1931 -15 
Q 1919 -34 1888 -44 
Q 1631 9 1178 9 
Q 938 9 669 -34 
Q 484 -63 247 -63 
L 184 -47 
z
" transform="scale(0.015625)"/>
       <path id="Garamond-6f" d="M 228 1256 
Q 228 1469 317 1711 
Q 406 1953 587 2145 
Q 769 2338 972 2431 
Q 1256 2563 1666 2563 
Q 2250 2563 2642 2163 
Q 3034 1763 3034 1200 
Q 3034 700 2623 308 
Q 2213 -84 1584 -84 
Q 1197 -84 853 119 
Q 597 272 412 572 
Q 228 872 228 1256 
z
M 1609 38 
Q 1847 38 2067 166 
Q 2288 294 2419 576 
Q 2550 859 2550 1231 
Q 2550 1475 2448 1797 
Q 2347 2119 2136 2280 
Q 1925 2441 1641 2441 
Q 1434 2441 1220 2344 
Q 1006 2247 857 1972 
Q 709 1697 709 1191 
Q 709 622 967 330 
Q 1225 38 1609 38 
z
" transform="scale(0.015625)"/>
       <path id="Garamond-72" d="M 128 -9 
L 116 31 
Q 116 53 144 97 
L 328 134 
L 588 181 
Q 619 197 631 225 
Q 650 266 650 466 
Q 650 1528 637 1692 
Q 625 1856 581 1900 
Q 538 1944 356 1969 
Q 250 1984 188 2009 
L 200 2103 
Q 528 2238 641 2334 
Q 797 2475 906 2703 
L 1013 2700 
Q 1031 2544 1031 2006 
L 1028 1953 
Q 1028 1934 1034 1894 
Q 1153 2109 1331 2291 
L 1403 2363 
Q 1447 2413 1488 2441 
Q 1706 2572 1813 2572 
Q 1950 2572 2037 2480 
Q 2125 2388 2125 2253 
Q 2125 2147 2063 2088 
Q 1978 2009 1869 2009 
Q 1819 2009 1672 2062 
Q 1525 2116 1478 2116 
Q 1391 2116 1356 2088 
Q 1269 2019 1144 1806 
Q 1047 1647 1047 1513 
L 1063 997 
L 1069 378 
Q 1078 272 1094 241 
Q 1106 219 1156 188 
Q 1494 159 1556 147 
Q 1600 144 1622 141 
Q 1756 138 1809 103 
Q 1838 88 1838 56 
Q 1838 38 1813 6 
L 1466 9 
L 1334 13 
L 1144 9 
L 825 9 
L 653 0 
L 128 -9 
z
" transform="scale(0.015625)"/>
       <path id="Garamond-77" d="M -66 2463 
L 1134 2459 
Q 1169 2459 1181 2446 
Q 1194 2434 1194 2409 
Q 1194 2350 1147 2322 
Q 928 2306 875 2268 
Q 822 2231 822 2166 
Q 822 2134 828 2106 
Q 838 2069 919 1884 
Q 1025 1638 1297 1084 
L 1669 328 
Q 1988 884 2184 1363 
L 1994 1863 
Q 1963 1931 1914 2068 
Q 1866 2206 1839 2229 
Q 1813 2253 1647 2300 
Q 1481 2347 1450 2372 
L 1447 2394 
Q 1447 2413 1466 2447 
Q 1541 2466 1584 2466 
L 1763 2463 
L 2153 2463 
L 2272 2466 
L 2656 2459 
Q 2703 2459 2734 2463 
L 2788 2463 
Q 2806 2463 2841 2459 
L 2834 2359 
Q 2788 2331 2678 2319 
Q 2472 2297 2363 2241 
Q 2328 2203 2328 2175 
Q 2328 2106 2366 2003 
Q 2378 1972 2431 1809 
L 2766 928 
Q 2913 534 2991 378 
Q 3122 619 3359 1244 
Q 3444 1463 3584 1766 
Q 3675 1956 3675 2094 
Q 3675 2166 3622 2216 
Q 3569 2266 3375 2309 
Q 3259 2334 3203 2356 
Q 3188 2381 3188 2397 
Q 3188 2425 3222 2459 
L 3269 2459 
L 3522 2463 
Q 3538 2463 3666 2458 
Q 3794 2453 3916 2453 
Q 4009 2453 4131 2459 
L 4288 2459 
Q 4306 2453 4314 2443 
Q 4322 2434 4322 2413 
Q 4322 2378 4313 2338 
Q 4159 2319 4071 2267 
Q 3984 2216 3834 1984 
L 3275 641 
Q 3197 453 3003 66 
Q 2963 -16 2942 -66 
Q 2922 -116 2903 -131 
Q 2884 -147 2853 -147 
Q 2831 -147 2794 -134 
Q 2706 38 2406 813 
Q 2325 1022 2256 1169 
Q 1744 103 1584 -141 
Q 1541 -147 1519 -147 
Q 1497 -147 1456 -141 
L 866 1094 
L 325 2150 
Q 269 2247 238 2269 
Q 184 2303 50 2325 
Q -25 2338 -66 2344 
Q -69 2391 -69 2416 
Q -69 2431 -66 2463 
z
" transform="scale(0.015625)"/>
       <path id="Garamond-61" d="M 2541 425 
Q 2559 384 2559 366 
Q 2559 319 2484 200 
Q 2388 44 2269 -28 
Q 2194 -75 2063 -75 
Q 1838 -75 1725 63 
Q 1656 144 1628 353 
L 1278 109 
Q 1094 3 997 -25 
Q 841 -66 622 -66 
Q 463 -66 370 29 
Q 278 125 278 275 
Q 278 491 542 791 
Q 806 1091 1259 1281 
Q 1578 1416 1650 1453 
Q 1656 1556 1656 1678 
Q 1656 2075 1545 2215 
Q 1434 2356 1228 2356 
Q 1013 2356 825 2188 
Q 709 2081 650 1788 
Q 631 1706 578 1613 
Q 444 1525 363 1525 
Q 294 1525 238 1566 
Q 206 1588 206 1616 
Q 206 1697 379 1983 
Q 553 2269 817 2411 
Q 1081 2553 1278 2553 
Q 1547 2553 1678 2504 
Q 1809 2456 1909 2334 
Q 2009 2213 2031 2069 
Q 2044 2000 2044 1578 
L 2034 1081 
L 2038 719 
Q 2038 647 2034 597 
Q 2031 506 2031 463 
Q 2031 359 2091 297 
Q 2150 234 2231 234 
Q 2350 234 2434 353 
L 2472 403 
Q 2488 413 2541 425 
z
M 1622 516 
Q 1644 913 1644 1075 
Q 1644 1159 1634 1303 
Q 1425 1228 1190 1075 
Q 956 922 819 722 
Q 719 578 719 450 
Q 719 328 801 247 
Q 884 166 1009 166 
Q 1106 166 1244 234 
Q 1425 325 1622 516 
z
" transform="scale(0.015625)"/>
       <path id="Garamond-64" d="M 2281 2269 
L 2284 2359 
L 2281 2725 
L 2284 3416 
Q 2284 3703 2221 3781 
Q 2159 3859 1856 3941 
Q 1834 3947 1788 3959 
L 1788 3994 
Q 1788 4025 1794 4063 
Q 2219 4106 2525 4209 
L 2684 4213 
Q 2697 4000 2697 3738 
L 2684 2534 
L 2706 1178 
L 2697 456 
Q 2697 234 2728 206 
Q 2791 144 3003 141 
Q 3047 141 3122 134 
L 3122 78 
Q 3122 56 3119 31 
Q 3022 9 2919 -9 
L 2466 -97 
Q 2366 -116 2306 -116 
L 2306 184 
Q 2253 169 2141 122 
Q 1653 -84 1244 -84 
Q 997 -84 740 77 
Q 484 238 346 525 
Q 209 813 209 1113 
Q 209 1381 300 1626 
Q 391 1872 538 2034 
Q 631 2141 803 2245 
Q 975 2350 1088 2378 
Q 1366 2450 1459 2450 
Q 1881 2450 2153 2325 
Q 2238 2284 2281 2269 
z
M 2284 338 
Q 2297 547 2297 1200 
Q 2297 1753 2245 1898 
Q 2194 2044 1987 2173 
Q 1781 2303 1525 2303 
Q 1166 2303 916 2025 
Q 666 1747 666 1203 
Q 666 725 936 440 
Q 1206 156 1609 156 
Q 1841 156 2031 218 
Q 2222 281 2284 338 
z
" transform="scale(0.015625)"/>
       <path id="Garamond-20" transform="scale(0.015625)"/>
       <path id="Garamond-47" d="M 4172 3794 
L 4206 3319 
Q 4225 3103 4225 3025 
L 4138 3009 
Q 3928 3484 3617 3721 
Q 3306 3959 2856 3959 
Q 2306 3959 2000 3825 
Q 1556 3634 1240 3162 
Q 925 2691 925 2025 
Q 925 1641 1040 1334 
Q 1156 1028 1367 764 
Q 1578 500 1866 306 
Q 2053 178 2313 113 
Q 2459 78 2750 78 
Q 2938 78 3166 131 
Q 3394 184 3509 273 
Q 3625 363 3667 475 
Q 3709 588 3709 913 
Q 3709 1453 3637 1542 
Q 3566 1631 3184 1659 
L 3059 1669 
L 2975 1666 
Q 2956 1669 2925 1675 
L 2878 1753 
Q 2878 1769 2900 1794 
Q 3063 1819 3606 1819 
Q 3728 1819 4003 1813 
L 4325 1800 
L 4616 1803 
Q 4700 1803 4819 1797 
Q 4841 1794 4847 1786 
Q 4853 1778 4853 1759 
Q 4853 1725 4838 1672 
Q 4706 1644 4634 1644 
L 4431 1647 
Q 4328 1647 4266 1575 
Q 4234 1541 4234 1341 
L 4238 931 
Q 4238 509 4203 394 
Q 4184 325 4125 270 
Q 4066 216 3875 141 
Q 3603 31 3381 -6 
Q 2969 -78 2584 -78 
Q 1966 -78 1570 80 
Q 1175 238 889 519 
Q 603 800 481 1088 
Q 297 1509 297 1947 
Q 297 2494 586 3017 
Q 875 3541 1519 3869 
Q 1972 4100 2750 4100 
Q 3288 4100 3630 4006 
Q 3972 3913 4172 3794 
z
" transform="scale(0.015625)"/>
       <path id="Garamond-56" d="M -53 3963 
L -31 4016 
Q 222 4016 475 4009 
L 578 4009 
Q 625 4009 681 4013 
Q 884 4022 1416 4022 
Q 1522 4022 1622 4020 
Q 1722 4019 1816 4016 
Q 1834 4006 1844 3988 
L 1838 3938 
Q 1819 3906 1744 3906 
L 1719 3906 
Q 1631 3909 1431 3892 
Q 1231 3875 1169 3828 
Q 1128 3794 1128 3738 
Q 1128 3616 1231 3372 
L 1706 2269 
L 1872 1903 
Q 2113 1322 2347 716 
Q 2372 650 2394 597 
L 2603 1109 
Q 2766 1497 2931 1934 
L 3147 2522 
Q 3153 2541 3181 2647 
Q 3484 3475 3484 3694 
Q 3484 3741 3442 3789 
Q 3400 3838 3306 3869 
Q 3269 3881 3063 3906 
L 2831 3934 
Q 2803 3966 2803 3988 
L 2813 4013 
L 3825 4022 
L 4159 4022 
Q 4328 4022 4391 4000 
L 4394 3975 
Q 4394 3950 4375 3909 
Q 4300 3884 4238 3878 
Q 3975 3847 3912 3805 
Q 3850 3763 3781 3625 
L 2959 1594 
Q 2575 678 2413 175 
L 2322 -97 
Q 2281 -122 2253 -122 
Q 2219 -122 2178 -116 
Q 1806 847 1572 1372 
L 616 3541 
Q 513 3734 461 3773 
Q 409 3813 100 3884 
Q -9 3909 -22 3916 
Q -44 3931 -53 3963 
z
" transform="scale(0.015625)"/>
       <path id="Garamond-43" d="M 3703 3825 
Q 3741 3584 3741 3331 
Q 3741 3281 3738 3197 
Q 3694 3188 3672 3188 
Q 3653 3188 3619 3194 
Q 3488 3559 3191 3756 
Q 2894 3953 2456 3953 
Q 2225 3953 2066 3900 
Q 1784 3803 1571 3633 
Q 1359 3463 1212 3227 
Q 1066 2991 980 2655 
Q 894 2319 894 1969 
Q 894 1300 1097 864 
Q 1300 428 1653 242 
Q 2006 56 2366 56 
L 2513 59 
Q 2763 91 2853 119 
Q 3081 184 3229 273 
Q 3378 363 3520 525 
Q 3663 688 3763 903 
L 3800 916 
Q 3816 916 3847 897 
Q 3844 822 3841 800 
Q 3709 272 3650 78 
Q 3600 66 3525 41 
Q 3159 -84 2547 -84 
Q 2053 -84 1808 -17 
Q 1563 50 1273 192 
Q 984 334 765 568 
Q 547 803 412 1161 
Q 278 1519 278 1941 
Q 278 2341 384 2639 
Q 491 2938 712 3244 
Q 934 3550 1236 3753 
Q 1538 3956 1906 4041 
Q 2166 4097 2641 4097 
Q 2988 4097 3294 4005 
Q 3600 3913 3703 3825 
z
" transform="scale(0.015625)"/>
       <path id="Garamond-4c" d="M 34 -19 
Q 38 28 59 66 
Q 303 131 534 153 
Q 688 166 731 222 
Q 763 263 769 522 
L 791 1347 
L 788 1906 
L 791 2638 
L 791 2831 
Q 794 3491 784 3653 
Q 781 3684 759 3741 
Q 678 3778 623 3790 
Q 569 3803 134 3881 
Q 131 3916 131 3931 
Q 131 3950 134 3981 
Q 194 3981 328 3975 
L 803 3959 
L 1078 3953 
L 1159 3956 
Q 1175 3956 1250 3950 
Q 1434 3950 1463 3953 
L 1713 3972 
Q 1966 3972 2069 3963 
Q 2066 3906 2047 3841 
Q 2013 3834 1722 3823 
Q 1431 3813 1388 3788 
Q 1316 3747 1316 3538 
Q 1316 3488 1309 3334 
L 1309 3147 
L 1313 2569 
L 1313 2372 
L 1319 1338 
L 1309 456 
L 1313 263 
Q 1313 169 1344 147 
Q 1422 144 1803 141 
L 2016 141 
L 2556 159 
Q 2769 166 2859 202 
Q 2950 238 3163 413 
Q 3291 525 3363 644 
Q 3378 669 3416 719 
Q 3475 800 3575 1044 
L 3678 1044 
Q 3659 931 3638 831 
Q 3547 391 3513 97 
Q 3506 34 3500 -19 
L 2331 16 
Q 825 16 544 -13 
Q 456 -19 359 -19 
L 34 -19 
z
" transform="scale(0.015625)"/>
       <path id="Garamond-65" d="M 2475 1650 
L 1222 1641 
L 984 1641 
Q 841 1641 691 1628 
Q 663 1534 663 1500 
L 666 1469 
L 666 1438 
L 663 1284 
Q 663 1094 783 817 
Q 903 541 1126 395 
Q 1350 250 1684 241 
Q 1863 250 1969 284 
Q 2075 319 2269 444 
L 2494 628 
L 2513 503 
Q 2513 481 2509 456 
Q 2369 278 2153 143 
Q 1938 9 1716 -53 
Q 1609 -81 1366 -81 
Q 1144 -81 928 9 
Q 609 147 426 451 
Q 244 756 244 1191 
Q 244 1328 295 1543 
Q 347 1759 481 2003 
Q 572 2169 703 2275 
Q 891 2425 1031 2484 
Q 1234 2569 1503 2569 
Q 1794 2569 1978 2463 
Q 2228 2322 2351 2100 
Q 2475 1878 2475 1694 
L 2475 1650 
z
M 731 1763 
L 878 1763 
Q 1038 1763 1828 1813 
Q 1953 1819 1981 1838 
Q 2038 1897 2038 1944 
Q 2038 2041 1975 2164 
Q 1913 2288 1783 2355 
Q 1653 2422 1481 2422 
Q 1119 2422 900 2150 
Q 731 1944 731 1763 
z
" transform="scale(0.015625)"/>
       <path id="Garamond-6e" d="M 119 100 
Q 197 122 300 138 
Q 497 166 536 203 
Q 575 241 575 375 
L 581 488 
Q 584 550 584 647 
L 578 1606 
Q 578 1800 528 1856 
Q 444 1944 216 1978 
L 216 2091 
Q 444 2153 566 2253 
Q 744 2394 866 2634 
L 972 2631 
Q 981 2484 981 2422 
L 981 2216 
L 984 2159 
Q 1022 2184 1072 2222 
Q 1259 2363 1456 2452 
Q 1653 2541 1806 2575 
Q 1903 2600 2025 2600 
Q 2281 2600 2465 2462 
Q 2650 2325 2704 2139 
Q 2759 1953 2759 1400 
L 2759 928 
Q 2759 909 2754 803 
Q 2750 697 2750 559 
Q 2750 341 2769 281 
Q 2784 241 2850 200 
Q 3150 159 3200 103 
L 3200 78 
Q 3200 47 3181 0 
L 3122 0 
L 2709 3 
L 2303 -3 
Q 2078 -9 1888 0 
L 1869 66 
Q 1869 84 1891 116 
Q 1975 153 2128 166 
Q 2219 172 2253 184 
Q 2288 197 2338 234 
Q 2375 309 2375 359 
Q 2375 381 2369 447 
Q 2359 591 2356 1163 
L 2356 1325 
L 2363 1575 
Q 2363 1978 2200 2131 
Q 2038 2284 1766 2284 
Q 1556 2284 1356 2192 
Q 1156 2100 969 1916 
Q 963 1766 963 1659 
L 972 969 
Q 972 428 988 306 
Q 994 256 1009 238 
Q 1034 213 1109 197 
Q 1184 181 1282 153 
Q 1381 125 1413 119 
Q 1475 103 1497 56 
L 1494 -6 
L 1166 -6 
L 491 3 
Q 256 -3 194 -3 
L 116 -3 
L 109 38 
Q 109 59 119 100 
z
" transform="scale(0.015625)"/>
       <path id="Garamond-67" d="M 844 -206 
Q 806 -188 603 -103 
Q 366 50 303 125 
Q 241 200 241 291 
Q 241 372 288 422 
Q 356 494 559 559 
Q 763 625 894 688 
Q 853 716 766 769 
Q 300 1056 300 1566 
Q 300 1984 595 2273 
Q 891 2563 1353 2563 
Q 1563 2563 1738 2503 
Q 1838 2472 2034 2347 
Q 2159 2269 2181 2259 
Q 2231 2244 2294 2244 
Q 2347 2244 2551 2270 
Q 2756 2297 2794 2297 
Q 2866 2297 2913 2269 
Q 2950 2206 2950 2059 
Q 2950 2009 2923 1984 
Q 2897 1959 2847 1959 
Q 2759 1959 2557 2014 
Q 2356 2069 2313 2069 
Q 2297 2069 2253 2063 
Q 2388 1794 2388 1572 
Q 2388 1350 2247 1112 
Q 2106 875 1859 750 
Q 1613 625 1359 625 
Q 1341 625 1253 628 
Q 966 628 725 484 
Q 609 413 609 350 
Q 609 284 722 222 
Q 1019 63 1847 38 
Q 2206 25 2406 -65 
Q 2606 -156 2707 -332 
Q 2809 -509 2809 -697 
Q 2809 -950 2637 -1165 
Q 2466 -1381 2116 -1515 
Q 1766 -1650 1313 -1650 
Q 813 -1650 541 -1528 
Q 269 -1406 155 -1262 
Q 41 -1119 41 -978 
Q 41 -856 166 -673 
Q 291 -491 684 -291 
Q 800 -231 844 -206 
z
M 719 1578 
Q 719 1297 803 1108 
Q 888 919 1034 826 
Q 1181 734 1331 734 
Q 1603 734 1783 942 
Q 1963 1150 1963 1575 
Q 1963 2003 1775 2226 
Q 1588 2450 1322 2450 
Q 1025 2450 872 2237 
Q 719 2025 719 1578 
z
M 616 -1316 
Q 900 -1534 1334 -1534 
Q 1644 -1534 1951 -1436 
Q 2259 -1338 2401 -1155 
Q 2544 -972 2544 -809 
Q 2544 -709 2494 -611 
Q 2444 -513 2358 -448 
Q 2272 -384 2131 -347 
Q 2031 -319 1847 -306 
Q 1322 -266 1203 -266 
Q 869 -266 606 -491 
Q 403 -666 403 -909 
Q 403 -1134 616 -1316 
z
" transform="scale(0.015625)"/>
       <path id="Garamond-74" d="M 894 3088 
L 991 3084 
L 1003 2788 
L 997 2403 
Q 1056 2400 1072 2400 
Q 1153 2400 1381 2413 
Q 1528 2422 1663 2422 
Q 1725 2422 1850 2419 
Q 1856 2356 1856 2319 
Q 1856 2278 1838 2191 
L 1784 2191 
L 1300 2175 
L 1059 2169 
L 1003 2163 
Q 978 2084 978 1981 
L 988 1513 
L 981 688 
Q 981 363 1066 256 
Q 1147 147 1309 147 
Q 1391 147 1616 197 
Q 1684 213 1800 300 
L 1828 300 
Q 1856 300 1873 283 
Q 1891 266 1891 238 
L 1888 216 
Q 1753 69 1579 1 
Q 1406 -66 1119 -66 
Q 916 -66 783 28 
Q 650 122 612 250 
Q 575 378 575 809 
L 588 1513 
L 584 1850 
L 584 1975 
Q 584 2063 578 2150 
L 525 2153 
L 269 2144 
L 244 2141 
Q 209 2141 192 2156 
Q 175 2172 175 2194 
Q 175 2231 198 2254 
Q 222 2278 341 2328 
Q 422 2363 530 2458 
Q 638 2553 713 2669 
Q 750 2731 819 2906 
Q 869 3034 894 3088 
z
" transform="scale(0.015625)"/>
       <path id="Garamond-68" d="M 119 75 
Q 484 141 541 175 
Q 575 197 575 275 
L 572 481 
L 575 847 
L 569 1778 
L 572 2125 
L 572 2372 
L 581 2675 
Q 581 3388 567 3527 
Q 553 3666 513 3700 
Q 438 3772 100 3850 
L 100 3866 
Q 100 3888 106 3928 
Q 150 3934 190 3943 
Q 231 3953 269 3956 
Q 641 4063 809 4163 
L 963 4163 
Q 969 4075 969 3609 
L 966 3213 
L 969 2700 
L 956 2069 
Q 956 2013 963 1944 
Q 1159 2172 1250 2247 
Q 1413 2378 1597 2454 
Q 1781 2531 1984 2531 
Q 2369 2531 2613 2206 
Q 2753 2016 2753 1666 
L 2744 1347 
L 2747 1169 
L 2734 859 
Q 2722 475 2722 403 
Q 2722 322 2728 184 
L 2906 144 
Q 3084 106 3181 75 
L 3178 -22 
L 2513 -3 
Q 2456 -3 2206 -16 
Q 2053 -22 2028 -22 
L 1959 -22 
Q 1944 6 1944 25 
L 1944 53 
Q 1988 109 2106 128 
L 2294 172 
Q 2331 203 2338 238 
Q 2350 319 2366 1044 
L 2372 1275 
Q 2384 1641 2316 1881 
Q 2272 2047 2117 2145 
Q 1963 2244 1759 2244 
Q 1591 2244 1441 2172 
Q 1338 2119 1194 1987 
Q 1050 1856 994 1763 
Q 956 1700 956 1556 
L 959 1338 
L 953 1109 
Q 953 1081 963 719 
L 959 519 
L 966 300 
Q 969 253 975 231 
L 1416 125 
Q 1450 116 1519 88 
L 1528 53 
Q 1528 38 1513 3 
Q 1422 0 1375 0 
L 1131 3 
L 594 -3 
L 191 -16 
Q 159 -13 97 -9 
L 94 13 
Q 94 38 119 75 
z
" transform="scale(0.015625)"/>
      </defs>
      <use xlink:href="#Garamond-46"/>
      <use xlink:href="#Garamond-6f" x="52.5"/>
      <use xlink:href="#Garamond-72" x="103.525391"/>
      <use xlink:href="#Garamond-77" x="136.875"/>
      <use xlink:href="#Garamond-61" x="202.150391"/>
      <use xlink:href="#Garamond-72" x="242.775391"/>
      <use xlink:href="#Garamond-64" x="276.125"/>
      <use xlink:href="#Garamond-20" x="326.125"/>
      <use xlink:href="#Garamond-47" x="351.125"/>
      <use xlink:href="#Garamond-56" x="428.224609"/>
      <use xlink:href="#Garamond-43" x="493.449219"/>
      <use xlink:href="#Garamond-20" x="556.974609"/>
      <use xlink:href="#Garamond-4c" x="581.974609"/>
      <use xlink:href="#Garamond-65" x="639.25"/>
      <use xlink:href="#Garamond-6e" x="680.900391"/>
      <use xlink:href="#Garamond-67" x="731.925781"/>
      <use xlink:href="#Garamond-74" x="776.701172"/>
      <use xlink:href="#Garamond-68" x="805.851562"/>
     </g>
    </g>
   </g>
   <g id="matplotlib.axis_2">
    <g id="ytick_1">
     <g id="line2d_11">
      <path d="M 54.932344 467.08 
L 498.452344 467.08 
" clip-path="url(#pf1c2325306)" style="fill: none; stroke-dasharray: 3.7,1.6; stroke-dashoffset: 0; stroke: #cccccc; stroke-opacity: 0.6"/>
     </g>
     <g id="text_12">
      <!-- 3.00 -->
      <g style="fill: #262626" transform="translate(24.025313 471.016797) scale(0.11 -0.11)">
       <use xlink:href="#ArialMT-33"/>
       <use xlink:href="#ArialMT-2e" x="55.615234"/>
       <use xlink:href="#ArialMT-30" x="83.398438"/>
       <use xlink:href="#ArialMT-30" x="139.013672"/>
      </g>
     </g>
    </g>
    <g id="ytick_2">
     <g id="line2d_12">
      <path d="M 54.932344 417.8 
L 498.452344 417.8 
" clip-path="url(#pf1c2325306)" style="fill: none; stroke-dasharray: 3.7,1.6; stroke-dashoffset: 0; stroke: #cccccc; stroke-opacity: 0.6"/>
     </g>
     <g id="text_13">
      <!-- 3.25 -->
      <g style="fill: #262626" transform="translate(24.025313 421.736797) scale(0.11 -0.11)">
       <use xlink:href="#ArialMT-33"/>
       <use xlink:href="#ArialMT-2e" x="55.615234"/>
       <use xlink:href="#ArialMT-32" x="83.398438"/>
       <use xlink:href="#ArialMT-35" x="139.013672"/>
      </g>
     </g>
    </g>
    <g id="ytick_3">
     <g id="line2d_13">
      <path d="M 54.932344 368.52 
L 498.452344 368.52 
" clip-path="url(#pf1c2325306)" style="fill: none; stroke-dasharray: 3.7,1.6; stroke-dashoffset: 0; stroke: #cccccc; stroke-opacity: 0.6"/>
     </g>
     <g id="text_14">
      <!-- 3.50 -->
      <g style="fill: #262626" transform="translate(24.025313 372.456797) scale(0.11 -0.11)">
       <use xlink:href="#ArialMT-33"/>
       <use xlink:href="#ArialMT-2e" x="55.615234"/>
       <use xlink:href="#ArialMT-35" x="83.398438"/>
       <use xlink:href="#ArialMT-30" x="139.013672"/>
      </g>
     </g>
    </g>
    <g id="ytick_4">
     <g id="line2d_14">
      <path d="M 54.932344 319.24 
L 498.452344 319.24 
" clip-path="url(#pf1c2325306)" style="fill: none; stroke-dasharray: 3.7,1.6; stroke-dashoffset: 0; stroke: #cccccc; stroke-opacity: 0.6"/>
     </g>
     <g id="text_15">
      <!-- 3.75 -->
      <g style="fill: #262626" transform="translate(24.025313 323.176797) scale(0.11 -0.11)">
       <use xlink:href="#ArialMT-33"/>
       <use xlink:href="#ArialMT-2e" x="55.615234"/>
       <use xlink:href="#ArialMT-37" x="83.398438"/>
       <use xlink:href="#ArialMT-35" x="139.013672"/>
      </g>
     </g>
    </g>
    <g id="ytick_5">
     <g id="line2d_15">
      <path d="M 54.932344 269.96 
L 498.452344 269.96 
" clip-path="url(#pf1c2325306)" style="fill: none; stroke-dasharray: 3.7,1.6; stroke-dashoffset: 0; stroke: #cccccc; stroke-opacity: 0.6"/>
     </g>
     <g id="text_16">
      <!-- 4.00 -->
      <g style="fill: #262626" transform="translate(24.025313 273.896797) scale(0.11 -0.11)">
       <use xlink:href="#ArialMT-34"/>
       <use xlink:href="#ArialMT-2e" x="55.615234"/>
       <use xlink:href="#ArialMT-30" x="83.398438"/>
       <use xlink:href="#ArialMT-30" x="139.013672"/>
      </g>
     </g>
    </g>
    <g id="ytick_6">
     <g id="line2d_16">
      <path d="M 54.932344 220.68 
L 498.452344 220.68 
" clip-path="url(#pf1c2325306)" style="fill: none; stroke-dasharray: 3.7,1.6; stroke-dashoffset: 0; stroke: #cccccc; stroke-opacity: 0.6"/>
     </g>
     <g id="text_17">
      <!-- 4.25 -->
      <g style="fill: #262626" transform="translate(24.025313 224.616797) scale(0.11 -0.11)">
       <use xlink:href="#ArialMT-34"/>
       <use xlink:href="#ArialMT-2e" x="55.615234"/>
       <use xlink:href="#ArialMT-32" x="83.398438"/>
       <use xlink:href="#ArialMT-35" x="139.013672"/>
      </g>
     </g>
    </g>
    <g id="ytick_7">
     <g id="line2d_17">
      <path d="M 54.932344 171.4 
L 498.452344 171.4 
" clip-path="url(#pf1c2325306)" style="fill: none; stroke-dasharray: 3.7,1.6; stroke-dashoffset: 0; stroke: #cccccc; stroke-opacity: 0.6"/>
     </g>
     <g id="text_18">
      <!-- 4.50 -->
      <g style="fill: #262626" transform="translate(24.025313 175.336797) scale(0.11 -0.11)">
       <use xlink:href="#ArialMT-34"/>
       <use xlink:href="#ArialMT-2e" x="55.615234"/>
       <use xlink:href="#ArialMT-35" x="83.398438"/>
       <use xlink:href="#ArialMT-30" x="139.013672"/>
      </g>
     </g>
    </g>
    <g id="ytick_8">
     <g id="line2d_18">
      <path d="M 54.932344 122.12 
L 498.452344 122.12 
" clip-path="url(#pf1c2325306)" style="fill: none; stroke-dasharray: 3.7,1.6; stroke-dashoffset: 0; stroke: #cccccc; stroke-opacity: 0.6"/>
     </g>
     <g id="text_19">
      <!-- 4.75 -->
      <g style="fill: #262626" transform="translate(24.025313 126.056797) scale(0.11 -0.11)">
       <use xlink:href="#ArialMT-34"/>
       <use xlink:href="#ArialMT-2e" x="55.615234"/>
       <use xlink:href="#ArialMT-37" x="83.398438"/>
       <use xlink:href="#ArialMT-35" x="139.013672"/>
      </g>
     </g>
    </g>
    <g id="ytick_9">
     <g id="line2d_19">
      <path d="M 54.932344 72.84 
L 498.452344 72.84 
" clip-path="url(#pf1c2325306)" style="fill: none; stroke-dasharray: 3.7,1.6; stroke-dashoffset: 0; stroke: #cccccc; stroke-opacity: 0.6"/>
     </g>
     <g id="text_20">
      <!-- 5.00 -->
      <g style="fill: #262626" transform="translate(24.025313 76.776797) scale(0.11 -0.11)">
       <use xlink:href="#ArialMT-35"/>
       <use xlink:href="#ArialMT-2e" x="55.615234"/>
       <use xlink:href="#ArialMT-30" x="83.398438"/>
       <use xlink:href="#ArialMT-30" x="139.013672"/>
      </g>
     </g>
    </g>
    <g id="ytick_10">
     <g id="line2d_20">
      <path d="M 54.932344 23.56 
L 498.452344 23.56 
" clip-path="url(#pf1c2325306)" style="fill: none; stroke-dasharray: 3.7,1.6; stroke-dashoffset: 0; stroke: #cccccc; stroke-opacity: 0.6"/>
     </g>
     <g id="text_21">
      <!-- 5.25 -->
      <g style="fill: #262626" transform="translate(24.025313 27.496797) scale(0.11 -0.11)">
       <use xlink:href="#ArialMT-35"/>
       <use xlink:href="#ArialMT-2e" x="55.615234"/>
       <use xlink:href="#ArialMT-32" x="83.398438"/>
       <use xlink:href="#ArialMT-35" x="139.013672"/>
      </g>
     </g>
    </g>
    <g id="text_22">
     <!-- Backward GVC Length -->
     <g style="fill: #262626" transform="translate(16.415937 308.969687) rotate(-90) scale(0.14 -0.14)">
      <defs>
       <path id="Garamond-42" d="M 84 3872 
L 84 3969 
Q 138 3981 169 3984 
L 463 4000 
Q 828 4031 1281 4050 
Q 1463 4056 1853 4056 
Q 2384 4056 2631 3978 
Q 2991 3863 3167 3630 
Q 3344 3397 3344 3113 
Q 3344 2650 2684 2334 
L 2669 2309 
Q 3006 2219 3222 2056 
Q 3438 1894 3553 1659 
Q 3638 1488 3638 1209 
Q 3638 744 3214 380 
Q 2791 16 2047 16 
L 1581 16 
L 1109 0 
Q 484 -6 378 -6 
Q 269 -6 163 3 
L 163 38 
Q 163 75 178 91 
Q 197 109 250 122 
Q 641 203 692 233 
Q 744 263 763 328 
Q 800 453 800 972 
Q 800 1019 797 1091 
Q 791 1300 791 1331 
L 791 1656 
Q 791 2481 772 3097 
L 769 3725 
L 766 3803 
Q 500 3841 297 3850 
Q 166 3853 84 3872 
z
M 1325 2291 
Q 1481 2259 1653 2259 
Q 2328 2259 2568 2556 
Q 2809 2853 2809 3147 
Q 2809 3278 2767 3414 
Q 2725 3550 2617 3659 
Q 2509 3769 2350 3822 
Q 2078 3913 1794 3913 
Q 1528 3913 1300 3853 
Q 1297 3788 1297 3756 
Q 1297 3725 1303 3578 
Q 1306 3484 1306 3391 
L 1297 3013 
L 1300 2788 
L 1322 2347 
L 1325 2291 
z
M 2059 166 
Q 2369 188 2578 297 
Q 2675 347 2808 476 
Q 2941 606 3014 787 
Q 3088 969 3088 1138 
Q 3088 1266 3036 1453 
Q 2984 1641 2861 1783 
Q 2738 1925 2494 2017 
Q 2250 2109 1956 2109 
Q 1388 2109 1319 2088 
Q 1316 2016 1316 1981 
L 1319 1866 
L 1316 1631 
L 1316 1366 
Q 1325 631 1350 497 
Q 1375 363 1520 266 
Q 1666 169 2059 166 
z
" transform="scale(0.015625)"/>
       <path id="Garamond-63" d="M 2497 572 
L 2500 369 
Q 2256 109 2018 6 
Q 1781 -97 1459 -97 
Q 1109 -97 828 86 
Q 547 269 395 603 
Q 244 938 244 1259 
Q 244 1613 426 1927 
Q 609 2241 911 2395 
Q 1213 2550 1669 2550 
Q 2106 2550 2334 2400 
Q 2463 2313 2463 2175 
Q 2463 2075 2397 2009 
Q 2331 1944 2228 1944 
Q 2072 1944 1884 2138 
Q 1769 2256 1675 2301 
Q 1581 2347 1466 2347 
Q 1188 2347 1003 2119 
Q 747 1794 747 1303 
Q 747 797 1009 497 
Q 1272 197 1622 197 
Q 1866 197 2055 276 
Q 2244 356 2497 572 
z
" transform="scale(0.015625)"/>
       <path id="Garamond-6b" d="M 169 0 
L 163 91 
Q 188 109 209 114 
Q 231 119 367 128 
Q 503 138 537 189 
Q 572 241 572 616 
L 578 1850 
L 572 2069 
Q 572 2097 578 2278 
Q 584 2363 584 2481 
L 572 3025 
L 575 3500 
Q 575 3672 526 3720 
Q 478 3769 184 3809 
L 184 3847 
Q 184 3866 188 3900 
Q 366 3938 503 3994 
Q 575 4025 869 4188 
L 966 4188 
Q 963 4116 963 4100 
L 963 3828 
L 959 3694 
L 969 3447 
L 966 3075 
L 969 2456 
L 959 1688 
L 959 1450 
Q 959 1406 963 1328 
L 997 1325 
Q 1103 1325 1213 1403 
Q 1703 1753 1828 1879 
Q 1953 2006 1953 2063 
Q 1953 2097 1913 2150 
Q 1819 2200 1703 2219 
Q 1669 2225 1628 2234 
Q 1572 2250 1534 2256 
L 1528 2288 
Q 1528 2309 1544 2350 
Q 2038 2369 2403 2369 
Q 2609 2369 2844 2359 
L 2844 2319 
Q 2844 2297 2828 2263 
Q 2781 2253 2681 2234 
Q 2488 2203 2388 2147 
Q 2147 2019 1891 1788 
Q 1738 1650 1625 1556 
L 1513 1459 
Q 1525 1438 1553 1406 
Q 1566 1394 1603 1350 
Q 1641 1306 1738 1203 
Q 2075 847 2238 653 
Q 2291 591 2356 516 
Q 2600 244 2641 213 
Q 2728 156 2900 125 
Q 2981 109 3041 97 
Q 3053 59 3053 38 
L 3050 6 
Q 2828 25 2731 25 
L 2675 25 
L 1806 0 
Q 1756 -6 1738 -6 
Q 1706 -6 1672 6 
Q 1663 31 1663 50 
L 1663 72 
Q 1681 100 1697 106 
Q 2006 131 2056 147 
Q 2084 153 2109 181 
Q 2109 234 2018 353 
Q 1928 472 1566 875 
Q 1334 1131 1267 1173 
Q 1200 1216 1081 1216 
L 963 1216 
Q 950 1103 950 700 
Q 950 325 1013 219 
Q 1047 159 1175 143 
Q 1303 128 1341 97 
Q 1366 78 1372 9 
Q 1184 13 1056 13 
Q 850 13 606 3 
Q 459 -3 375 -3 
Q 313 -3 169 0 
z
" transform="scale(0.015625)"/>
      </defs>
      <use xlink:href="#Garamond-42"/>
      <use xlink:href="#Garamond-61" x="61.474609"/>
      <use xlink:href="#Garamond-63" x="102.099609"/>
      <use xlink:href="#Garamond-6b" x="142.375"/>
      <use xlink:href="#Garamond-77" x="189.25"/>
      <use xlink:href="#Garamond-61" x="254.525391"/>
      <use xlink:href="#Garamond-72" x="295.150391"/>
      <use xlink:href="#Garamond-64" x="328.5"/>
      <use xlink:href="#Garamond-20" x="378.5"/>
      <use xlink:href="#Garamond-47" x="403.5"/>
      <use xlink:href="#Garamond-56" x="480.599609"/>
      <use xlink:href="#Garamond-43" x="545.824219"/>
      <use xlink:href="#Garamond-20" x="609.349609"/>
      <use xlink:href="#Garamond-4c" x="634.349609"/>
      <use xlink:href="#Garamond-65" x="691.625"/>
      <use xlink:href="#Garamond-6e" x="733.275391"/>
      <use xlink:href="#Garamond-67" x="784.300781"/>
      <use xlink:href="#Garamond-74" x="829.076172"/>
      <use xlink:href="#Garamond-68" x="858.226562"/>
     </g>
    </g>
   </g>
   <g id="PathCollection_1">
    <defs>
     <path id="m9f56f1ed35" d="M 0 7.071068 
C 1.875269 7.071068 3.673985 6.326016 5 5 
C 6.326016 3.673985 7.071068 1.875269 7.071068 0 
C 7.071068 -1.875269 6.326016 -3.673985 5 -5 
C 3.673985 -6.326016 1.875269 -7.071068 0 -7.071068 
C -1.875269 -7.071068 -3.673985 -6.326016 -5 -5 
C -6.326016 -3.673985 -7.071068 -1.875269 -7.071068 0 
C -7.071068 1.875269 -6.326016 3.673985 -5 5 
C -3.673985 6.326016 -1.875269 7.071068 0 7.071068 
z
" style="stroke: #1a1a1a; stroke-opacity: 0.8; stroke-width: 1.5"/>
    </defs>
    <g clip-path="url(#pf1c2325306)">
     <use xlink:href="#m9f56f1ed35" x="213.235884" y="260.156692" style="fill: #abd0e6; fill-opacity: 0.8; stroke: #1a1a1a; stroke-opacity: 0.8; stroke-width: 1.5"/>
    </g>
   </g>
   <g id="PathCollection_2">
    <defs>
     <path id="mea66ef298d" d="M 0 3.535534 
C 0.937635 3.535534 1.836992 3.163008 2.5 2.5 
C 3.163008 1.836992 3.535534 0.937635 3.535534 0 
C 3.535534 -0.937635 3.163008 -1.836992 2.5 -2.5 
C 1.836992 -3.163008 0.937635 -3.535534 0 -3.535534 
C -0.937635 -3.535534 -1.836992 -3.163008 -2.5 -2.5 
C -3.163008 -1.836992 -3.535534 -0.937635 -3.535534 0 
C -3.535534 0.937635 -3.163008 1.836992 -2.5 2.5 
C -1.836992 3.163008 -0.937635 3.535534 0 3.535534 
z
" style="stroke: #1a1a1a; stroke-opacity: 0.8; stroke-width: 1.5"/>
    </defs>
    <g clip-path="url(#pf1c2325306)">
     <use xlink:href="#mea66ef298d" x="458.8252" y="307.392034" style="fill: #abd0e6; fill-opacity: 0.8; stroke: #1a1a1a; stroke-opacity: 0.8; stroke-width: 1.5"/>
    </g>
   </g>
   <g id="PathCollection_3">
    <g clip-path="url(#pf1c2325306)">
     <use xlink:href="#mea66ef298d" x="144.1129" y="245.666429" style="fill: #abd0e6; fill-opacity: 0.8; stroke: #1a1a1a; stroke-opacity: 0.8; stroke-width: 1.5"/>
    </g>
   </g>
   <g id="PathCollection_4">
    <defs>
     <path id="m258429d5e9" d="M 0 5 
C 1.326016 5 2.597899 4.473168 3.535534 3.535534 
C 4.473168 2.597899 5 1.326016 5 0 
C 5 -1.326016 4.473168 -2.597899 3.535534 -3.535534 
C 2.597899 -4.473168 1.326016 -5 0 -5 
C -1.326016 -5 -2.597899 -4.473168 -3.535534 -3.535534 
C -4.473168 -2.597899 -5 -1.326016 -5 0 
C -5 1.326016 -4.473168 2.597899 -3.535534 3.535534 
C -2.597899 4.473168 -1.326016 5 0 5 
z
" style="stroke: #1a1a1a; stroke-opacity: 0.8; stroke-width: 1.5"/>
    </defs>
    <g clip-path="url(#pf1c2325306)">
     <use xlink:href="#m258429d5e9" x="71.075731" y="281.889766" style="fill: #fb694a; fill-opacity: 0.8; stroke: #1a1a1a; stroke-opacity: 0.8; stroke-width: 1.5"/>
    </g>
   </g>
   <g id="PathCollection_5">
    <g clip-path="url(#pf1c2325306)">
     <use xlink:href="#mea66ef298d" x="380.697103" y="250.154336" style="fill: #abd0e6; fill-opacity: 0.8; stroke: #1a1a1a; stroke-opacity: 0.8; stroke-width: 1.5"/>
    </g>
   </g>
   <g id="PathCollection_6">
    <g clip-path="url(#pf1c2325306)">
     <use xlink:href="#mea66ef298d" x="398.811252" y="190.153782" style="fill: #abd0e6; fill-opacity: 0.8; stroke: #1a1a1a; stroke-opacity: 0.8; stroke-width: 1.5"/>
    </g>
   </g>
   <g id="PathCollection_7">
    <g clip-path="url(#pf1c2325306)">
     <use xlink:href="#mea66ef298d" x="295.002639" y="344.365094" style="fill: #abd0e6; fill-opacity: 0.8; stroke: #1a1a1a; stroke-opacity: 0.8; stroke-width: 1.5"/>
    </g>
   </g>
   <g id="PathCollection_8">
    <g clip-path="url(#pf1c2325306)">
     <use xlink:href="#mea66ef298d" x="313.144465" y="330.101744" style="fill: #abd0e6; fill-opacity: 0.8; stroke: #1a1a1a; stroke-opacity: 0.8; stroke-width: 1.5"/>
    </g>
   </g>
   <g id="PathCollection_9">
    <g clip-path="url(#pf1c2325306)">
     <use xlink:href="#mea66ef298d" x="300.473298" y="268.646401" style="fill: #abd0e6; fill-opacity: 0.8; stroke: #1a1a1a; stroke-opacity: 0.8; stroke-width: 1.5"/>
    </g>
   </g>
   <g id="PathCollection_10">
    <g clip-path="url(#pf1c2325306)">
     <use xlink:href="#mea66ef298d" x="310.087517" y="307.450161" style="fill: #abd0e6; fill-opacity: 0.8; stroke: #1a1a1a; stroke-opacity: 0.8; stroke-width: 1.5"/>
    </g>
   </g>
   <g id="PathCollection_11">
    <g clip-path="url(#pf1c2325306)">
     <use xlink:href="#mea66ef298d" x="278.606614" y="318.152893" style="fill: #abd0e6; fill-opacity: 0.8; stroke: #1a1a1a; stroke-opacity: 0.8; stroke-width: 1.5"/>
    </g>
   </g>
   <g id="PathCollection_12">
    <g clip-path="url(#pf1c2325306)">
     <use xlink:href="#mea66ef298d" x="325.765496" y="259.494404" style="fill: #abd0e6; fill-opacity: 0.8; stroke: #1a1a1a; stroke-opacity: 0.8; stroke-width: 1.5"/>
    </g>
   </g>
   <g id="PathCollection_13">
    <g clip-path="url(#pf1c2325306)">
     <use xlink:href="#mea66ef298d" x="401.734813" y="281.450359" style="fill: #abd0e6; fill-opacity: 0.8; stroke: #1a1a1a; stroke-opacity: 0.8; stroke-width: 1.5"/>
    </g>
   </g>
   <g id="PathCollection_14">
    <defs>
     <path id="mca6747115f" d="M 0 5 
C 1.326016 5 2.597899 4.473168 3.535534 3.535534 
C 4.473168 2.597899 5 1.326016 5 0 
C 5 -1.326016 4.473168 -2.597899 3.535534 -3.535534 
C 2.597899 -4.473168 1.326016 -5 0 -5 
C -1.326016 -5 -2.597899 -4.473168 -3.535534 -3.535534 
C -4.473168 -2.597899 -5 -1.326016 -5 0 
C -5 1.326016 -4.473168 2.597899 -3.535534 3.535534 
C -2.597899 4.473168 -1.326016 5 0 5 
z
" style="stroke: #1a1a1a; stroke-opacity: 0.8; stroke-width: 1.5"/>
    </defs>
    <g clip-path="url(#pf1c2325306)">
     <use xlink:href="#mca6747115f" x="180.659429" y="288.601571" style="fill: #abd0e6; fill-opacity: 0.8; stroke: #1a1a1a; stroke-opacity: 0.8; stroke-width: 1.5"/>
    </g>
   </g>
   <g id="PathCollection_15">
    <defs>
     <path id="m1a60a52987" d="M 0 3.535534 
C 0.937635 3.535534 1.836992 3.163008 2.5 2.5 
C 3.163008 1.836992 3.535534 0.937635 3.535534 0 
C 3.535534 -0.937635 3.163008 -1.836992 2.5 -2.5 
C 1.836992 -3.163008 0.937635 -3.535534 0 -3.535534 
C -0.937635 -3.535534 -1.836992 -3.163008 -2.5 -2.5 
C -3.163008 -1.836992 -3.535534 -0.937635 -3.535534 0 
C -3.535534 0.937635 -3.163008 1.836992 -2.5 2.5 
C -1.836992 3.163008 -0.937635 3.535534 0 3.535534 
z
" style="stroke: #1a1a1a; stroke-opacity: 0.8; stroke-width: 1.5"/>
    </defs>
    <g clip-path="url(#pf1c2325306)">
     <use xlink:href="#m1a60a52987" x="221.04408" y="276.880776" style="fill: #fb694a; fill-opacity: 0.8; stroke: #1a1a1a; stroke-opacity: 0.8; stroke-width: 1.5"/>
    </g>
   </g>
   <g id="PathCollection_16">
    <g clip-path="url(#pf1c2325306)">
     <use xlink:href="#m1a60a52987" x="334.164582" y="266.216764" style="fill: #fb694a; fill-opacity: 0.8; stroke: #1a1a1a; stroke-opacity: 0.8; stroke-width: 1.5"/>
    </g>
   </g>
   <g id="PathCollection_17">
    <g clip-path="url(#pf1c2325306)">
     <use xlink:href="#m1a60a52987" x="134.472606" y="308.775038" style="fill: #fb694a; fill-opacity: 0.8; stroke: #1a1a1a; stroke-opacity: 0.8; stroke-width: 1.5"/>
    </g>
   </g>
   <g id="PathCollection_18">
    <g clip-path="url(#pf1c2325306)">
     <use xlink:href="#m258429d5e9" x="324.370188" y="294.810175" style="fill: #fb694a; fill-opacity: 0.8; stroke: #1a1a1a; stroke-opacity: 0.8; stroke-width: 1.5"/>
    </g>
   </g>
   <g id="PathCollection_19">
    <g clip-path="url(#pf1c2325306)">
     <use xlink:href="#m9f56f1ed35" x="298.730144" y="302.276028" style="fill: #abd0e6; fill-opacity: 0.8; stroke: #1a1a1a; stroke-opacity: 0.8; stroke-width: 1.5"/>
    </g>
   </g>
   <g id="PathCollection_20"/>
   <g id="PathCollection_21"/>
   <g id="PathCollection_22"/>
   <g id="line2d_21">
    <path d="M 54.932344 467.08 
L 508.1052 13.907144 
" clip-path="url(#pf1c2325306)" style="fill: none; stroke-dasharray: 3.7,1.6; stroke-dashoffset: 0; stroke: #000000"/>
   </g>
   <g id="patch_3">
    <path d="M 54.932344 467.08 
L 54.932344 23.56 
" style="fill: none; stroke: #cccccc; stroke-width: 1.25; stroke-linejoin: miter; stroke-linecap: square"/>
   </g>
   <g id="patch_4">
    <path d="M 498.452344 467.08 
L 498.452344 23.56 
" style="fill: none; stroke: #cccccc; stroke-width: 1.25; stroke-linejoin: miter; stroke-linecap: square"/>
   </g>
   <g id="patch_5">
    <path d="M 54.932344 467.08 
L 498.452344 467.08 
" style="fill: none; stroke: #cccccc; stroke-width: 1.25; stroke-linejoin: miter; stroke-linecap: square"/>
   </g>
   <g id="patch_6">
    <path d="M 54.932344 23.56 
L 498.452344 23.56 
" style="fill: none; stroke: #cccccc; stroke-width: 1.25; stroke-linejoin: miter; stroke-linecap: square"/>
   </g>
   <g id="text_23">
    <!-- Agri -->
    <g transform="translate(213.709097 254.291258) scale(0.1 -0.1)">
     <defs>
      <path id="ArialMT-41" d="M -9 0 
L 1750 4581 
L 2403 4581 
L 4278 0 
L 3588 0 
L 3053 1388 
L 1138 1388 
L 634 0 
L -9 0 
z
M 1313 1881 
L 2866 1881 
L 2388 3150 
Q 2169 3728 2063 4100 
Q 1975 3659 1816 3225 
L 1313 1881 
z
" transform="scale(0.015625)"/>
      <path id="ArialMT-67" d="M 319 -275 
L 866 -356 
Q 900 -609 1056 -725 
Q 1266 -881 1628 -881 
Q 2019 -881 2231 -725 
Q 2444 -569 2519 -288 
Q 2563 -116 2559 434 
Q 2191 0 1641 0 
Q 956 0 581 494 
Q 206 988 206 1678 
Q 206 2153 378 2554 
Q 550 2956 876 3175 
Q 1203 3394 1644 3394 
Q 2231 3394 2613 2919 
L 2613 3319 
L 3131 3319 
L 3131 450 
Q 3131 -325 2973 -648 
Q 2816 -972 2473 -1159 
Q 2131 -1347 1631 -1347 
Q 1038 -1347 672 -1080 
Q 306 -813 319 -275 
z
M 784 1719 
Q 784 1066 1043 766 
Q 1303 466 1694 466 
Q 2081 466 2343 764 
Q 2606 1063 2606 1700 
Q 2606 2309 2336 2618 
Q 2066 2928 1684 2928 
Q 1309 2928 1046 2623 
Q 784 2319 784 1719 
z
" transform="scale(0.015625)"/>
      <path id="ArialMT-72" d="M 416 0 
L 416 3319 
L 922 3319 
L 922 2816 
Q 1116 3169 1280 3281 
Q 1444 3394 1641 3394 
Q 1925 3394 2219 3213 
L 2025 2691 
Q 1819 2813 1613 2813 
Q 1428 2813 1281 2702 
Q 1134 2591 1072 2394 
Q 978 2094 978 1738 
L 978 0 
L 416 0 
z
" transform="scale(0.015625)"/>
      <path id="ArialMT-69" d="M 425 3934 
L 425 4581 
L 988 4581 
L 988 3934 
L 425 3934 
z
M 425 0 
L 425 3319 
L 988 3319 
L 988 0 
L 425 0 
z
" transform="scale(0.015625)"/>
     </defs>
     <use xlink:href="#ArialMT-41"/>
     <use xlink:href="#ArialMT-67" x="66.699219"/>
     <use xlink:href="#ArialMT-72" x="122.314453"/>
     <use xlink:href="#ArialMT-69" x="155.615234"/>
    </g>
   </g>
   <g id="text_24">
    <!-- Min -->
    <g transform="translate(459.234944 301.585195) scale(0.1 -0.1)">
     <defs>
      <path id="ArialMT-4d" d="M 475 0 
L 475 4581 
L 1388 4581 
L 2472 1338 
Q 2622 884 2691 659 
Q 2769 909 2934 1394 
L 4031 4581 
L 4847 4581 
L 4847 0 
L 4263 0 
L 4263 3834 
L 2931 0 
L 2384 0 
L 1059 3900 
L 1059 0 
L 475 0 
z
" transform="scale(0.015625)"/>
      <path id="ArialMT-6e" d="M 422 0 
L 422 3319 
L 928 3319 
L 928 2847 
Q 1294 3394 1984 3394 
Q 2284 3394 2536 3286 
Q 2788 3178 2913 3003 
Q 3038 2828 3088 2588 
Q 3119 2431 3119 2041 
L 3119 0 
L 2556 0 
L 2556 2019 
Q 2556 2363 2490 2533 
Q 2425 2703 2258 2804 
Q 2091 2906 1866 2906 
Q 1506 2906 1245 2678 
Q 984 2450 984 1813 
L 984 0 
L 422 0 
z
" transform="scale(0.015625)"/>
     </defs>
     <use xlink:href="#ArialMT-4d"/>
     <use xlink:href="#ArialMT-69" x="83.300781"/>
     <use xlink:href="#ArialMT-6e" x="105.517578"/>
    </g>
   </g>
   <g id="text_25">
    <!-- Fd -->
    <g transform="translate(144.379716 239.859589) scale(0.1 -0.1)">
     <defs>
      <path id="ArialMT-46" d="M 525 0 
L 525 4581 
L 3616 4581 
L 3616 4041 
L 1131 4041 
L 1131 2622 
L 3281 2622 
L 3281 2081 
L 1131 2081 
L 1131 0 
L 525 0 
z
" transform="scale(0.015625)"/>
      <path id="ArialMT-64" d="M 2575 0 
L 2575 419 
Q 2259 -75 1647 -75 
Q 1250 -75 917 144 
Q 584 363 401 755 
Q 219 1147 219 1656 
Q 219 2153 384 2558 
Q 550 2963 881 3178 
Q 1213 3394 1622 3394 
Q 1922 3394 2156 3267 
Q 2391 3141 2538 2938 
L 2538 4581 
L 3097 4581 
L 3097 0 
L 2575 0 
z
M 797 1656 
Q 797 1019 1065 703 
Q 1334 388 1700 388 
Q 2069 388 2326 689 
Q 2584 991 2584 1609 
Q 2584 2291 2321 2609 
Q 2059 2928 1675 2928 
Q 1300 2928 1048 2622 
Q 797 2316 797 1656 
z
" transform="scale(0.015625)"/>
     </defs>
     <use xlink:href="#ArialMT-46"/>
     <use xlink:href="#ArialMT-64" x="61.083984"/>
    </g>
   </g>
   <g id="text_26">
    <!-- Txt -->
    <g transform="translate(71.463651 276.082926) scale(0.1 -0.1)">
     <defs>
      <path id="ArialMT-54" d="M 1659 0 
L 1659 4041 
L 150 4041 
L 150 4581 
L 3781 4581 
L 3781 4041 
L 2266 4041 
L 2266 0 
L 1659 0 
z
" transform="scale(0.015625)"/>
      <path id="ArialMT-78" d="M 47 0 
L 1259 1725 
L 138 3319 
L 841 3319 
L 1350 2541 
Q 1494 2319 1581 2169 
Q 1719 2375 1834 2534 
L 2394 3319 
L 3066 3319 
L 1919 1756 
L 3153 0 
L 2463 0 
L 1781 1031 
L 1600 1309 
L 728 0 
L 47 0 
z
" transform="scale(0.015625)"/>
      <path id="ArialMT-74" d="M 1650 503 
L 1731 6 
Q 1494 -44 1306 -44 
Q 1000 -44 831 53 
Q 663 150 594 308 
Q 525 466 525 972 
L 525 2881 
L 113 2881 
L 113 3319 
L 525 3319 
L 525 4141 
L 1084 4478 
L 1084 3319 
L 1650 3319 
L 1650 2881 
L 1084 2881 
L 1084 941 
Q 1084 700 1114 631 
Q 1144 563 1211 522 
Q 1278 481 1403 481 
Q 1497 481 1650 503 
z
" transform="scale(0.015625)"/>
     </defs>
     <use xlink:href="#ArialMT-54"/>
     <use xlink:href="#ArialMT-78" x="61.083984"/>
     <use xlink:href="#ArialMT-74" x="111.083984"/>
    </g>
   </g>
   <g id="text_27">
    <!-- Wd&amp;Ppr -->
    <g transform="translate(381.257878 244.408434) scale(0.1 -0.1)">
     <defs>
      <path id="ArialMT-57" d="M 1294 0 
L 78 4581 
L 700 4581 
L 1397 1578 
Q 1509 1106 1591 641 
Q 1766 1375 1797 1488 
L 2669 4581 
L 3400 4581 
L 4056 2263 
Q 4303 1400 4413 641 
Q 4500 1075 4641 1638 
L 5359 4581 
L 5969 4581 
L 4713 0 
L 4128 0 
L 3163 3491 
Q 3041 3928 3019 4028 
Q 2947 3713 2884 3491 
L 1913 0 
L 1294 0 
z
" transform="scale(0.015625)"/>
      <path id="ArialMT-26" d="M 3041 541 
Q 2763 231 2434 76 
Q 2106 -78 1725 -78 
Q 1022 -78 609 397 
Q 275 784 275 1263 
Q 275 1688 548 2030 
Q 822 2372 1366 2631 
Q 1056 2988 953 3209 
Q 850 3431 850 3638 
Q 850 4050 1173 4354 
Q 1497 4659 1988 4659 
Q 2456 4659 2754 4371 
Q 3053 4084 3053 3681 
Q 3053 3028 2188 2566 
L 3009 1519 
Q 3150 1794 3228 2156 
L 3813 2031 
Q 3663 1431 3406 1044 
Q 3722 625 4122 341 
L 3744 -106 
Q 3403 113 3041 541 
z
M 1897 2928 
Q 2263 3144 2370 3306 
Q 2478 3469 2478 3666 
Q 2478 3900 2329 4048 
Q 2181 4197 1959 4197 
Q 1731 4197 1579 4050 
Q 1428 3903 1428 3691 
Q 1428 3584 1483 3467 
Q 1538 3350 1647 3219 
L 1897 2928 
z
M 2688 984 
L 1656 2263 
Q 1200 1991 1040 1758 
Q 881 1525 881 1297 
Q 881 1019 1103 719 
Q 1325 419 1731 419 
Q 1984 419 2254 576 
Q 2525 734 2688 984 
z
" transform="scale(0.015625)"/>
      <path id="ArialMT-50" d="M 494 0 
L 494 4581 
L 2222 4581 
Q 2678 4581 2919 4538 
Q 3256 4481 3484 4323 
Q 3713 4166 3852 3881 
Q 3991 3597 3991 3256 
Q 3991 2672 3619 2267 
Q 3247 1863 2275 1863 
L 1100 1863 
L 1100 0 
L 494 0 
z
M 1100 2403 
L 2284 2403 
Q 2872 2403 3119 2622 
Q 3366 2841 3366 3238 
Q 3366 3525 3220 3729 
Q 3075 3934 2838 4000 
Q 2684 4041 2272 4041 
L 1100 4041 
L 1100 2403 
z
" transform="scale(0.015625)"/>
      <path id="ArialMT-70" d="M 422 -1272 
L 422 3319 
L 934 3319 
L 934 2888 
Q 1116 3141 1344 3267 
Q 1572 3394 1897 3394 
Q 2322 3394 2647 3175 
Q 2972 2956 3137 2557 
Q 3303 2159 3303 1684 
Q 3303 1175 3120 767 
Q 2938 359 2589 142 
Q 2241 -75 1856 -75 
Q 1575 -75 1351 44 
Q 1128 163 984 344 
L 984 -1272 
L 422 -1272 
z
M 931 1641 
Q 931 1000 1190 694 
Q 1450 388 1819 388 
Q 2194 388 2461 705 
Q 2728 1022 2728 1688 
Q 2728 2322 2467 2637 
Q 2206 2953 1844 2953 
Q 1484 2953 1207 2617 
Q 931 2281 931 1641 
z
" transform="scale(0.015625)"/>
     </defs>
     <use xlink:href="#ArialMT-57"/>
     <use xlink:href="#ArialMT-64" x="94.384766"/>
     <use xlink:href="#ArialMT-26" x="150"/>
     <use xlink:href="#ArialMT-50" x="216.699219"/>
     <use xlink:href="#ArialMT-70" x="283.398438"/>
     <use xlink:href="#ArialMT-72" x="339.013672"/>
    </g>
   </g>
   <g id="text_28">
    <!-- Pet -->
    <g transform="translate(399.252301 186.680637) scale(0.1 -0.1)">
     <defs>
      <path id="ArialMT-65" d="M 2694 1069 
L 3275 997 
Q 3138 488 2766 206 
Q 2394 -75 1816 -75 
Q 1088 -75 661 373 
Q 234 822 234 1631 
Q 234 2469 665 2931 
Q 1097 3394 1784 3394 
Q 2450 3394 2872 2941 
Q 3294 2488 3294 1666 
Q 3294 1616 3291 1516 
L 816 1516 
Q 847 969 1125 678 
Q 1403 388 1819 388 
Q 2128 388 2347 550 
Q 2566 713 2694 1069 
z
M 847 1978 
L 2700 1978 
Q 2663 2397 2488 2606 
Q 2219 2931 1791 2931 
Q 1403 2931 1139 2672 
Q 875 2413 847 1978 
z
" transform="scale(0.015625)"/>
     </defs>
     <use xlink:href="#ArialMT-50"/>
     <use xlink:href="#ArialMT-65" x="66.699219"/>
     <use xlink:href="#ArialMT-74" x="122.314453"/>
    </g>
   </g>
   <g id="text_29">
    <!-- Chem -->
    <g transform="translate(295.712848 338.558254) scale(0.1 -0.1)">
     <defs>
      <path id="ArialMT-43" d="M 3763 1606 
L 4369 1453 
Q 4178 706 3683 314 
Q 3188 -78 2472 -78 
Q 1731 -78 1267 223 
Q 803 525 561 1097 
Q 319 1669 319 2325 
Q 319 3041 592 3573 
Q 866 4106 1370 4382 
Q 1875 4659 2481 4659 
Q 3169 4659 3637 4309 
Q 4106 3959 4291 3325 
L 3694 3184 
Q 3534 3684 3231 3912 
Q 2928 4141 2469 4141 
Q 1941 4141 1586 3887 
Q 1231 3634 1087 3207 
Q 944 2781 944 2328 
Q 944 1744 1114 1308 
Q 1284 872 1643 656 
Q 2003 441 2422 441 
Q 2931 441 3284 734 
Q 3638 1028 3763 1606 
z
" transform="scale(0.015625)"/>
      <path id="ArialMT-68" d="M 422 0 
L 422 4581 
L 984 4581 
L 984 2938 
Q 1378 3394 1978 3394 
Q 2347 3394 2619 3248 
Q 2891 3103 3008 2847 
Q 3125 2591 3125 2103 
L 3125 0 
L 2563 0 
L 2563 2103 
Q 2563 2525 2380 2717 
Q 2197 2909 1863 2909 
Q 1613 2909 1392 2779 
Q 1172 2650 1078 2428 
Q 984 2206 984 1816 
L 984 0 
L 422 0 
z
" transform="scale(0.015625)"/>
      <path id="ArialMT-6d" d="M 422 0 
L 422 3319 
L 925 3319 
L 925 2853 
Q 1081 3097 1340 3245 
Q 1600 3394 1931 3394 
Q 2300 3394 2536 3241 
Q 2772 3088 2869 2813 
Q 3263 3394 3894 3394 
Q 4388 3394 4653 3120 
Q 4919 2847 4919 2278 
L 4919 0 
L 4359 0 
L 4359 2091 
Q 4359 2428 4304 2576 
Q 4250 2725 4106 2815 
Q 3963 2906 3769 2906 
Q 3419 2906 3187 2673 
Q 2956 2441 2956 1928 
L 2956 0 
L 2394 0 
L 2394 2156 
Q 2394 2531 2256 2718 
Q 2119 2906 1806 2906 
Q 1569 2906 1367 2781 
Q 1166 2656 1075 2415 
Q 984 2175 984 1722 
L 984 0 
L 422 0 
z
" transform="scale(0.015625)"/>
     </defs>
     <use xlink:href="#ArialMT-43"/>
     <use xlink:href="#ArialMT-68" x="72.216797"/>
     <use xlink:href="#ArialMT-65" x="127.832031"/>
     <use xlink:href="#ArialMT-6d" x="183.447266"/>
    </g>
   </g>
   <g id="text_30">
    <!-- R&amp;P -->
    <g transform="translate(313.741308 324.294904) scale(0.1 -0.1)">
     <defs>
      <path id="ArialMT-52" d="M 503 0 
L 503 4581 
L 2534 4581 
Q 3147 4581 3465 4457 
Q 3784 4334 3975 4021 
Q 4166 3709 4166 3331 
Q 4166 2844 3850 2509 
Q 3534 2175 2875 2084 
Q 3116 1969 3241 1856 
Q 3506 1613 3744 1247 
L 4541 0 
L 3778 0 
L 3172 953 
Q 2906 1366 2734 1584 
Q 2563 1803 2427 1890 
Q 2291 1978 2150 2013 
Q 2047 2034 1813 2034 
L 1109 2034 
L 1109 0 
L 503 0 
z
M 1109 2559 
L 2413 2559 
Q 2828 2559 3062 2645 
Q 3297 2731 3419 2920 
Q 3541 3109 3541 3331 
Q 3541 3656 3305 3865 
Q 3069 4075 2559 4075 
L 1109 4075 
L 1109 2559 
z
" transform="scale(0.015625)"/>
     </defs>
     <use xlink:href="#ArialMT-52"/>
     <use xlink:href="#ArialMT-26" x="72.216797"/>
     <use xlink:href="#ArialMT-50" x="138.916016"/>
    </g>
   </g>
   <g id="text_31">
    <!-- Met -->
    <g transform="translate(300.888693 262.839561) scale(0.1 -0.1)">
     <use xlink:href="#ArialMT-4d"/>
     <use xlink:href="#ArialMT-65" x="83.300781"/>
     <use xlink:href="#ArialMT-74" x="138.916016"/>
    </g>
   </g>
   <g id="text_32">
    <!-- Elc&amp;Comp -->
    <g transform="translate(310.375554 304.291325) scale(0.1 -0.1)">
     <defs>
      <path id="ArialMT-45" d="M 506 0 
L 506 4581 
L 3819 4581 
L 3819 4041 
L 1113 4041 
L 1113 2638 
L 3647 2638 
L 3647 2100 
L 1113 2100 
L 1113 541 
L 3925 541 
L 3925 0 
L 506 0 
z
" transform="scale(0.015625)"/>
      <path id="ArialMT-6c" d="M 409 0 
L 409 4581 
L 972 4581 
L 972 0 
L 409 0 
z
" transform="scale(0.015625)"/>
      <path id="ArialMT-63" d="M 2588 1216 
L 3141 1144 
Q 3050 572 2676 248 
Q 2303 -75 1759 -75 
Q 1078 -75 664 370 
Q 250 816 250 1647 
Q 250 2184 428 2587 
Q 606 2991 970 3192 
Q 1334 3394 1763 3394 
Q 2303 3394 2647 3120 
Q 2991 2847 3088 2344 
L 2541 2259 
Q 2463 2594 2264 2762 
Q 2066 2931 1784 2931 
Q 1359 2931 1093 2626 
Q 828 2322 828 1663 
Q 828 994 1084 691 
Q 1341 388 1753 388 
Q 2084 388 2306 591 
Q 2528 794 2588 1216 
z
" transform="scale(0.015625)"/>
      <path id="ArialMT-6f" d="M 213 1659 
Q 213 2581 725 3025 
Q 1153 3394 1769 3394 
Q 2453 3394 2887 2945 
Q 3322 2497 3322 1706 
Q 3322 1066 3130 698 
Q 2938 331 2570 128 
Q 2203 -75 1769 -75 
Q 1072 -75 642 372 
Q 213 819 213 1659 
z
M 791 1659 
Q 791 1022 1069 705 
Q 1347 388 1769 388 
Q 2188 388 2466 706 
Q 2744 1025 2744 1678 
Q 2744 2294 2464 2611 
Q 2184 2928 1769 2928 
Q 1347 2928 1069 2612 
Q 791 2297 791 1659 
z
" transform="scale(0.015625)"/>
     </defs>
     <use xlink:href="#ArialMT-45"/>
     <use xlink:href="#ArialMT-6c" x="66.699219"/>
     <use xlink:href="#ArialMT-63" x="88.916016"/>
     <use xlink:href="#ArialMT-26" x="138.916016"/>
     <use xlink:href="#ArialMT-43" x="205.615234"/>
     <use xlink:href="#ArialMT-6f" x="277.832031"/>
     <use xlink:href="#ArialMT-6d" x="333.447266"/>
     <use xlink:href="#ArialMT-70" x="416.748047"/>
    </g>
   </g>
   <g id="text_33">
    <!-- Mach -->
    <g transform="translate(279.198064 312.346053) scale(0.1 -0.1)">
     <defs>
      <path id="ArialMT-61" d="M 2588 409 
Q 2275 144 1986 34 
Q 1697 -75 1366 -75 
Q 819 -75 525 192 
Q 231 459 231 875 
Q 231 1119 342 1320 
Q 453 1522 633 1644 
Q 813 1766 1038 1828 
Q 1203 1872 1538 1913 
Q 2219 1994 2541 2106 
Q 2544 2222 2544 2253 
Q 2544 2597 2384 2738 
Q 2169 2928 1744 2928 
Q 1347 2928 1158 2789 
Q 969 2650 878 2297 
L 328 2372 
Q 403 2725 575 2942 
Q 747 3159 1072 3276 
Q 1397 3394 1825 3394 
Q 2250 3394 2515 3294 
Q 2781 3194 2906 3042 
Q 3031 2891 3081 2659 
Q 3109 2516 3109 2141 
L 3109 1391 
Q 3109 606 3145 398 
Q 3181 191 3288 0 
L 2700 0 
Q 2613 175 2588 409 
z
M 2541 1666 
Q 2234 1541 1622 1453 
Q 1275 1403 1131 1340 
Q 988 1278 909 1158 
Q 831 1038 831 891 
Q 831 666 1001 516 
Q 1172 366 1500 366 
Q 1825 366 2078 508 
Q 2331 650 2450 897 
Q 2541 1088 2541 1459 
L 2541 1666 
z
" transform="scale(0.015625)"/>
     </defs>
     <use xlink:href="#ArialMT-4d"/>
     <use xlink:href="#ArialMT-61" x="83.300781"/>
     <use xlink:href="#ArialMT-63" x="138.916016"/>
     <use xlink:href="#ArialMT-68" x="188.916016"/>
    </g>
   </g>
   <g id="text_34">
    <!-- OthMfg -->
    <g transform="translate(326.442103 251.984833) scale(0.1 -0.1)">
     <defs>
      <path id="ArialMT-4f" d="M 309 2231 
Q 309 3372 921 4017 
Q 1534 4663 2503 4663 
Q 3138 4663 3647 4359 
Q 4156 4056 4423 3514 
Q 4691 2972 4691 2284 
Q 4691 1588 4409 1038 
Q 4128 488 3612 205 
Q 3097 -78 2500 -78 
Q 1853 -78 1343 234 
Q 834 547 571 1087 
Q 309 1628 309 2231 
z
M 934 2222 
Q 934 1394 1379 917 
Q 1825 441 2497 441 
Q 3181 441 3623 922 
Q 4066 1403 4066 2288 
Q 4066 2847 3877 3264 
Q 3688 3681 3323 3911 
Q 2959 4141 2506 4141 
Q 1863 4141 1398 3698 
Q 934 3256 934 2222 
z
" transform="scale(0.015625)"/>
      <path id="ArialMT-66" d="M 556 0 
L 556 2881 
L 59 2881 
L 59 3319 
L 556 3319 
L 556 3672 
Q 556 4006 616 4169 
Q 697 4388 901 4523 
Q 1106 4659 1475 4659 
Q 1713 4659 2000 4603 
L 1916 4113 
Q 1741 4144 1584 4144 
Q 1328 4144 1222 4034 
Q 1116 3925 1116 3625 
L 1116 3319 
L 1763 3319 
L 1763 2881 
L 1116 2881 
L 1116 0 
L 556 0 
z
" transform="scale(0.015625)"/>
     </defs>
     <use xlink:href="#ArialMT-4f"/>
     <use xlink:href="#ArialMT-74" x="77.783203"/>
     <use xlink:href="#ArialMT-68" x="105.566406"/>
     <use xlink:href="#ArialMT-4d" x="161.181641"/>
     <use xlink:href="#ArialMT-66" x="244.482422"/>
     <use xlink:href="#ArialMT-67" x="272.265625"/>
    </g>
   </g>
   <g id="text_35">
    <!-- Con -->
    <g transform="translate(402.258629 275.643519) scale(0.1 -0.1)">
     <use xlink:href="#ArialMT-43"/>
     <use xlink:href="#ArialMT-6f" x="72.216797"/>
     <use xlink:href="#ArialMT-6e" x="127.832031"/>
    </g>
   </g>
   <g id="text_36">
    <!-- Whl&amp;Ret -->
    <g transform="translate(181.227174 282.794731) scale(0.1 -0.1)">
     <use xlink:href="#ArialMT-57"/>
     <use xlink:href="#ArialMT-68" x="94.384766"/>
     <use xlink:href="#ArialMT-6c" x="150"/>
     <use xlink:href="#ArialMT-26" x="172.216797"/>
     <use xlink:href="#ArialMT-52" x="238.916016"/>
     <use xlink:href="#ArialMT-65" x="311.132812"/>
     <use xlink:href="#ArialMT-74" x="366.748047"/>
    </g>
   </g>
   <g id="text_37">
    <!-- Trn&amp;Stg -->
    <g transform="translate(221.638953 270.992375) scale(0.1 -0.1)">
     <defs>
      <path id="ArialMT-53" d="M 288 1472 
L 859 1522 
Q 900 1178 1048 958 
Q 1197 738 1509 602 
Q 1822 466 2213 466 
Q 2559 466 2825 569 
Q 3091 672 3220 851 
Q 3350 1031 3350 1244 
Q 3350 1459 3225 1620 
Q 3100 1781 2813 1891 
Q 2628 1963 1997 2114 
Q 1366 2266 1113 2400 
Q 784 2572 623 2826 
Q 463 3081 463 3397 
Q 463 3744 659 4045 
Q 856 4347 1234 4503 
Q 1613 4659 2075 4659 
Q 2584 4659 2973 4495 
Q 3363 4331 3572 4012 
Q 3781 3694 3797 3291 
L 3216 3247 
Q 3169 3681 2898 3903 
Q 2628 4125 2100 4125 
Q 1550 4125 1298 3923 
Q 1047 3722 1047 3438 
Q 1047 3191 1225 3031 
Q 1400 2872 2139 2705 
Q 2878 2538 3153 2413 
Q 3553 2228 3743 1945 
Q 3934 1663 3934 1294 
Q 3934 928 3725 604 
Q 3516 281 3123 101 
Q 2731 -78 2241 -78 
Q 1619 -78 1198 103 
Q 778 284 539 648 
Q 300 1013 288 1472 
z
" transform="scale(0.015625)"/>
     </defs>
     <use xlink:href="#ArialMT-54"/>
     <use xlink:href="#ArialMT-72" x="57.333984"/>
     <use xlink:href="#ArialMT-6e" x="90.634766"/>
     <use xlink:href="#ArialMT-26" x="146.25"/>
     <use xlink:href="#ArialMT-53" x="212.949219"/>
     <use xlink:href="#ArialMT-74" x="279.648438"/>
     <use xlink:href="#ArialMT-67" x="307.431641"/>
    </g>
   </g>
   <g id="text_38">
    <!-- Acc -->
    <g transform="translate(335.116651 262.944972) scale(0.1 -0.1)">
     <use xlink:href="#ArialMT-41"/>
     <use xlink:href="#ArialMT-63" x="66.699219"/>
     <use xlink:href="#ArialMT-63" x="116.699219"/>
    </g>
   </g>
   <g id="text_39">
    <!-- ICT -->
    <g transform="translate(134.884694 302.968198) scale(0.1 -0.1)">
     <defs>
      <path id="ArialMT-49" d="M 597 0 
L 597 4581 
L 1203 4581 
L 1203 0 
L 597 0 
z
" transform="scale(0.015625)"/>
     </defs>
     <use xlink:href="#ArialMT-49"/>
     <use xlink:href="#ArialMT-43" x="27.783203"/>
     <use xlink:href="#ArialMT-54" x="100"/>
    </g>
   </g>
   <g id="text_40">
    <!-- Fin&amp;RE -->
    <g transform="translate(324.987137 289.003335) scale(0.1 -0.1)">
     <use xlink:href="#ArialMT-46"/>
     <use xlink:href="#ArialMT-69" x="61.083984"/>
     <use xlink:href="#ArialMT-6e" x="83.300781"/>
     <use xlink:href="#ArialMT-26" x="138.916016"/>
     <use xlink:href="#ArialMT-52" x="205.615234"/>
     <use xlink:href="#ArialMT-45" x="277.832031"/>
    </g>
   </g>
   <g id="text_41">
    <!-- OthSrv -->
    <g transform="translate(298.811595 295.962784) scale(0.1 -0.1)">
     <defs>
      <path id="ArialMT-76" d="M 1344 0 
L 81 3319 
L 675 3319 
L 1388 1331 
Q 1503 1009 1600 663 
Q 1675 925 1809 1294 
L 2547 3319 
L 3125 3319 
L 1869 0 
L 1344 0 
z
" transform="scale(0.015625)"/>
     </defs>
     <use xlink:href="#ArialMT-4f"/>
     <use xlink:href="#ArialMT-74" x="77.783203"/>
     <use xlink:href="#ArialMT-68" x="105.566406"/>
     <use xlink:href="#ArialMT-53" x="161.181641"/>
     <use xlink:href="#ArialMT-72" x="227.880859"/>
     <use xlink:href="#ArialMT-76" x="261.181641"/>
    </g>
   </g>
   <g id="patch_7">
    <path d="M 404.758915 184.131868 
Q 402.785557 184.167805 400.812199 184.203742 
" style="fill: none; stroke: #808080; stroke-width: 0.5; stroke-linecap: round"/>
   </g>
   <g id="patch_8">
    <path d="M 331.994547 301.636145 
Q 322.039845 301.590893 312.085143 301.545642 
" style="fill: none; stroke: #808080; stroke-width: 0.5; stroke-linecap: round"/>
   </g>
   <g id="patch_9">
    <path d="M 340.888907 249.871537 
Q 334.300106 251.48755 327.711306 253.103562 
" style="fill: none; stroke: #808080; stroke-width: 0.5; stroke-linecap: round"/>
   </g>
   <g id="patch_10">
    <path d="M 341.45197 260.347617 
Q 338.809936 260.331501 336.167902 260.315384 
" style="fill: none; stroke: #808080; stroke-width: 0.5; stroke-linecap: round"/>
   </g>
   <g id="text_42">
    <!-- 1996 -->
    <g style="fill: #262626" transform="translate(262.274844 17.56) scale(0.16 -0.16)">
     <defs>
      <path id="Garamond-Bold-31" d="M 1284 4119 
Q 1300 4119 1497 4125 
L 1597 4122 
L 1794 4119 
Q 1806 4019 1806 3972 
Q 1806 3956 1803 3875 
Q 1800 3831 1797 3541 
L 1791 3069 
L 1794 2772 
L 1772 663 
L 1772 484 
Q 1772 391 1815 350 
Q 1859 309 2050 281 
Q 2125 272 2350 231 
Q 2356 200 2356 172 
Q 2356 138 2350 22 
L 2216 22 
Q 2078 22 1816 34 
Q 1656 44 1597 44 
Q 1522 44 1044 28 
Q 991 25 956 25 
L 900 25 
L 809 31 
L 725 25 
L 569 31 
Q 538 31 441 22 
Q 434 91 434 128 
Q 434 163 441 231 
Q 566 266 731 300 
Q 959 347 1011 392 
Q 1063 438 1063 513 
L 1059 725 
L 1072 956 
L 1069 1431 
L 1066 1553 
Q 1066 1578 1072 1741 
Q 1078 1825 1078 1891 
Q 1078 1931 1069 2144 
L 1081 2322 
Q 1069 2525 1069 2563 
Q 1069 2609 1072 2656 
L 1078 2734 
L 1069 2947 
L 1078 3044 
Q 1081 3109 1081 3219 
Q 1081 3325 1078 3478 
Q 856 3313 572 3147 
Q 541 3128 291 3019 
Q 191 3169 163 3244 
Q 494 3416 613 3497 
Q 809 3634 1038 3841 
Q 1134 3931 1284 4119 
z
" transform="scale(0.015625)"/>
      <path id="Garamond-Bold-39" d="M 566 -88 
Q 516 -28 516 28 
Q 516 81 547 113 
Q 563 134 728 197 
Q 1053 322 1287 498 
Q 1522 675 1681 926 
Q 1841 1178 1908 1470 
Q 1975 1763 1981 1931 
Q 1984 1988 2009 2203 
Q 2028 2363 2028 2588 
Q 2028 3384 1834 3681 
Q 1688 3903 1472 3903 
Q 1272 3903 1131 3713 
Q 941 3453 941 2972 
Q 941 2675 978 2416 
Q 1003 2244 1091 2100 
Q 1147 2006 1197 1978 
Q 1319 1919 1441 1919 
Q 1519 1919 1603 1944 
L 1650 1953 
Q 1688 1953 1719 1917 
Q 1750 1881 1750 1813 
Q 1750 1694 1656 1659 
Q 1456 1584 1222 1584 
Q 1075 1584 1038 1597 
Q 744 1703 672 1756 
Q 491 1888 395 2023 
Q 300 2159 253 2334 
Q 194 2566 194 2800 
Q 194 3172 361 3489 
Q 528 3806 820 3965 
Q 1113 4125 1447 4125 
Q 2041 4125 2436 3672 
Q 2831 3219 2831 2363 
Q 2831 1941 2669 1463 
Q 2628 1344 2440 1017 
Q 2253 691 1934 423 
Q 1616 156 1262 31 
Q 909 -94 684 -94 
Q 644 -94 566 -88 
z
" transform="scale(0.015625)"/>
      <path id="Garamond-Bold-36" d="M 1256 2069 
Q 1253 2138 1253 2172 
Q 1253 2206 1256 2278 
Q 1281 2284 1372 2325 
Q 1588 2422 1803 2422 
Q 2231 2422 2523 2103 
Q 2816 1784 2816 1234 
Q 2816 638 2461 284 
Q 2106 -69 1481 -69 
Q 1200 -69 981 47 
Q 763 163 594 373 
Q 425 584 334 813 
Q 191 1188 191 1622 
Q 191 1994 319 2412 
Q 447 2831 708 3148 
Q 969 3466 1300 3673 
Q 1631 3881 1884 3975 
Q 2372 4153 2622 4153 
Q 2669 4153 2695 4122 
Q 2722 4091 2722 4025 
Q 2722 3956 2706 3916 
Q 2641 3888 2466 3847 
Q 2069 3747 1772 3515 
Q 1475 3284 1331 3038 
Q 1134 2697 1059 2273 
Q 984 1850 984 1434 
Q 984 966 1045 667 
Q 1106 369 1253 241 
Q 1353 159 1538 159 
Q 1644 159 1703 191 
Q 1838 259 1897 341 
Q 2006 494 2042 700 
Q 2078 906 2078 1131 
Q 2078 1697 1920 1909 
Q 1763 2122 1528 2122 
Q 1425 2122 1256 2069 
z
" transform="scale(0.015625)"/>
     </defs>
     <use xlink:href="#Garamond-Bold-31"/>
     <use xlink:href="#Garamond-Bold-39" x="39.599609"/>
     <use xlink:href="#Garamond-Bold-39" x="86.474609"/>
     <use xlink:href="#Garamond-Bold-36" x="133.349609"/>
    </g>
   </g>
   <g id="legend_1">
    <g id="patch_11">
     <path d="M 376.006719 97.217344 
L 490.752344 97.217344 
Q 492.952344 97.217344 492.952344 95.017344 
L 492.952344 31.26 
Q 492.952344 29.06 490.752344 29.06 
L 376.006719 29.06 
Q 373.806719 29.06 373.806719 31.26 
L 373.806719 95.017344 
Q 373.806719 97.217344 376.006719 97.217344 
z
" style="fill: #ffffff; opacity: 0.8; stroke: #cccccc; stroke-linejoin: miter"/>
    </g>
    <g id="text_43">
     <!-- Value added Share -->
     <g style="fill: #262626" transform="translate(378.206719 42.765156) scale(0.13 -0.13)">
      <defs>
       <path id="ArialMT-56" d="M 1803 0 
L 28 4581 
L 684 4581 
L 1875 1253 
Q 2019 853 2116 503 
Q 2222 878 2363 1253 
L 3600 4581 
L 4219 4581 
L 2425 0 
L 1803 0 
z
" transform="scale(0.015625)"/>
       <path id="ArialMT-75" d="M 2597 0 
L 2597 488 
Q 2209 -75 1544 -75 
Q 1250 -75 995 37 
Q 741 150 617 320 
Q 494 491 444 738 
Q 409 903 409 1263 
L 409 3319 
L 972 3319 
L 972 1478 
Q 972 1038 1006 884 
Q 1059 663 1231 536 
Q 1403 409 1656 409 
Q 1909 409 2131 539 
Q 2353 669 2445 892 
Q 2538 1116 2538 1541 
L 2538 3319 
L 3100 3319 
L 3100 0 
L 2597 0 
z
" transform="scale(0.015625)"/>
       <path id="ArialMT-20" transform="scale(0.015625)"/>
      </defs>
      <use xlink:href="#ArialMT-56"/>
      <use xlink:href="#ArialMT-61" x="59.324219"/>
      <use xlink:href="#ArialMT-6c" x="114.939453"/>
      <use xlink:href="#ArialMT-75" x="137.15625"/>
      <use xlink:href="#ArialMT-65" x="192.771484"/>
      <use xlink:href="#ArialMT-20" x="248.386719"/>
      <use xlink:href="#ArialMT-61" x="276.169922"/>
      <use xlink:href="#ArialMT-64" x="331.785156"/>
      <use xlink:href="#ArialMT-64" x="387.400391"/>
      <use xlink:href="#ArialMT-65" x="443.015625"/>
      <use xlink:href="#ArialMT-64" x="498.630859"/>
      <use xlink:href="#ArialMT-20" x="554.246094"/>
      <use xlink:href="#ArialMT-53" x="582.029297"/>
      <use xlink:href="#ArialMT-68" x="648.728516"/>
      <use xlink:href="#ArialMT-61" x="704.34375"/>
      <use xlink:href="#ArialMT-72" x="759.958984"/>
      <use xlink:href="#ArialMT-65" x="793.259766"/>
     </g>
    </g>
    <g id="PathCollection_23">
     <g>
      <use xlink:href="#mea66ef298d" x="404.528594" y="55.969062" style="fill: #abd0e6; fill-opacity: 0.8; stroke: #1a1a1a; stroke-opacity: 0.8; stroke-width: 1.5"/>
     </g>
    </g>
    <g id="text_44">
     <!-- (&lt;5%) -->
     <g style="fill: #262626" transform="translate(424.328594 58.856562) scale(0.11 -0.11)">
      <defs>
       <path id="ArialMT-28" d="M 1497 -1347 
Q 1031 -759 709 28 
Q 388 816 388 1659 
Q 388 2403 628 3084 
Q 909 3875 1497 4659 
L 1900 4659 
Q 1522 4009 1400 3731 
Q 1209 3300 1100 2831 
Q 966 2247 966 1656 
Q 966 153 1900 -1347 
L 1497 -1347 
z
" transform="scale(0.015625)"/>
       <path id="ArialMT-3c" d="M 350 2003 
L 350 2528 
L 3384 3809 
L 3384 3250 
L 978 2263 
L 3384 1266 
L 3384 706 
L 350 2003 
z
" transform="scale(0.015625)"/>
       <path id="ArialMT-25" d="M 372 3481 
Q 372 3972 619 4315 
Q 866 4659 1334 4659 
Q 1766 4659 2048 4351 
Q 2331 4044 2331 3447 
Q 2331 2866 2045 2552 
Q 1759 2238 1341 2238 
Q 925 2238 648 2547 
Q 372 2856 372 3481 
z
M 1350 4272 
Q 1141 4272 1002 4090 
Q 863 3909 863 3425 
Q 863 2984 1003 2804 
Q 1144 2625 1350 2625 
Q 1563 2625 1702 2806 
Q 1841 2988 1841 3469 
Q 1841 3913 1700 4092 
Q 1559 4272 1350 4272 
z
M 1353 -169 
L 3859 4659 
L 4316 4659 
L 1819 -169 
L 1353 -169 
z
M 3334 1075 
Q 3334 1569 3581 1911 
Q 3828 2253 4300 2253 
Q 4731 2253 5014 1945 
Q 5297 1638 5297 1041 
Q 5297 459 5011 145 
Q 4725 -169 4303 -169 
Q 3888 -169 3611 142 
Q 3334 453 3334 1075 
z
M 4316 1866 
Q 4103 1866 3964 1684 
Q 3825 1503 3825 1019 
Q 3825 581 3965 400 
Q 4106 219 4313 219 
Q 4528 219 4667 400 
Q 4806 581 4806 1063 
Q 4806 1506 4665 1686 
Q 4525 1866 4316 1866 
z
" transform="scale(0.015625)"/>
       <path id="ArialMT-29" d="M 791 -1347 
L 388 -1347 
Q 1322 153 1322 1656 
Q 1322 2244 1188 2822 
Q 1081 3291 891 3722 
Q 769 4003 388 4659 
L 791 4659 
Q 1378 3875 1659 3084 
Q 1900 2403 1900 1659 
Q 1900 816 1576 28 
Q 1253 -759 791 -1347 
z
" transform="scale(0.015625)"/>
      </defs>
      <use xlink:href="#ArialMT-28"/>
      <use xlink:href="#ArialMT-3c" x="33.300781"/>
      <use xlink:href="#ArialMT-35" x="91.699219"/>
      <use xlink:href="#ArialMT-25" x="147.314453"/>
      <use xlink:href="#ArialMT-29" x="236.230469"/>
     </g>
    </g>
    <g id="PathCollection_24">
     <g>
      <use xlink:href="#mca6747115f" x="404.528594" y="71.791875" style="fill: #abd0e6; fill-opacity: 0.8; stroke: #1a1a1a; stroke-opacity: 0.8; stroke-width: 1.5"/>
     </g>
    </g>
    <g id="text_45">
     <!-- (5%-10%) -->
     <g style="fill: #262626" transform="translate(424.328594 74.679375) scale(0.11 -0.11)">
      <defs>
       <path id="ArialMT-2d" d="M 203 1375 
L 203 1941 
L 1931 1941 
L 1931 1375 
L 203 1375 
z
" transform="scale(0.015625)"/>
       <path id="ArialMT-31" d="M 2384 0 
L 1822 0 
L 1822 3584 
Q 1619 3391 1289 3197 
Q 959 3003 697 2906 
L 697 3450 
Q 1169 3672 1522 3987 
Q 1875 4303 2022 4600 
L 2384 4600 
L 2384 0 
z
" transform="scale(0.015625)"/>
      </defs>
      <use xlink:href="#ArialMT-28"/>
      <use xlink:href="#ArialMT-35" x="33.300781"/>
      <use xlink:href="#ArialMT-25" x="88.916016"/>
      <use xlink:href="#ArialMT-2d" x="177.832031"/>
      <use xlink:href="#ArialMT-31" x="211.132812"/>
      <use xlink:href="#ArialMT-30" x="266.748047"/>
      <use xlink:href="#ArialMT-25" x="322.363281"/>
      <use xlink:href="#ArialMT-29" x="411.279297"/>
     </g>
    </g>
    <g id="PathCollection_25">
     <defs>
      <path id="md968fbbe17" d="M 0 7.071068 
C 1.875269 7.071068 3.673985 6.326016 5 5 
C 6.326016 3.673985 7.071068 1.875269 7.071068 0 
C 7.071068 -1.875269 6.326016 -3.673985 5 -5 
C 3.673985 -6.326016 1.875269 -7.071068 0 -7.071068 
C -1.875269 -7.071068 -3.673985 -6.326016 -5 -5 
C -6.326016 -3.673985 -7.071068 -1.875269 -7.071068 0 
C -7.071068 1.875269 -6.326016 3.673985 -5 5 
C -3.673985 6.326016 -1.875269 7.071068 0 7.071068 
z
" style="stroke: #1a1a1a; stroke-opacity: 0.8; stroke-width: 1.5"/>
     </defs>
     <g>
      <use xlink:href="#md968fbbe17" x="404.528594" y="87.614687" style="fill: #fb694a; fill-opacity: 0.8; stroke: #1a1a1a; stroke-opacity: 0.8; stroke-width: 1.5"/>
     </g>
    </g>
    <g id="text_46">
     <!-- (&gt;10%) -->
     <g style="fill: #262626" transform="translate(424.328594 90.502187) scale(0.11 -0.11)">
      <defs>
       <path id="ArialMT-3e" d="M 3384 2003 
L 350 706 
L 350 1266 
L 2753 2263 
L 350 3250 
L 350 3809 
L 3384 2528 
L 3384 2003 
z
" transform="scale(0.015625)"/>
      </defs>
      <use xlink:href="#ArialMT-28"/>
      <use xlink:href="#ArialMT-3e" x="33.300781"/>
      <use xlink:href="#ArialMT-31" x="91.699219"/>
      <use xlink:href="#ArialMT-30" x="147.314453"/>
      <use xlink:href="#ArialMT-25" x="202.929688"/>
      <use xlink:href="#ArialMT-29" x="291.845703"/>
     </g>
    </g>
   </g>
  </g>
 </g>
 <defs>
  <clipPath id="pf1c2325306">
   <rect x="54.932344" y="23.56" width="443.52" height="443.52"/>
  </clipPath>
 </defs>
</svg>
