<?xml version="1.0" encoding="utf-8" standalone="no"?>
<!DOCTYPE svg PUBLIC "-//W3C//DTD SVG 1.1//EN"
  "http://www.w3.org/Graphics/SVG/1.1/DTD/svg11.dtd">
<svg xmlns:xlink="http://www.w3.org/1999/xlink" width="684pt" height="457.92pt" viewBox="0 0 684 457.92" xmlns="http://www.w3.org/2000/svg" version="1.1">
 <metadata>
  <rdf:RDF xmlns:dc="http://purl.org/dc/elements/1.1/" xmlns:cc="http://creativecommons.org/ns#" xmlns:rdf="http://www.w3.org/1999/02/22-rdf-syntax-ns#">
   <cc:Work>
    <dc:type rdf:resource="http://purl.org/dc/dcmitype/StillImage"/>
    <dc:date>2024-02-03T15:34:52.394326</dc:date>
    <dc:format>image/svg+xml</dc:format>
    <dc:creator>
     <cc:Agent>
      <dc:title>Matplotlib v3.8.0, https://matplotlib.org/</dc:title>
     </cc:Agent>
    </dc:creator>
   </cc:Work>
  </rdf:RDF>
 </metadata>
 <defs>
  <style type="text/css">*{stroke-linejoin: round; stroke-linecap: butt}</style>
 </defs>
 <g id="figure_1">
  <g id="patch_1">
   <path d="M 0 457.92 
L 684 457.92 
L 684 0 
L 0 0 
z
" style="fill: #ffffff"/>
  </g>
  <g id="axes_1">
   <g id="text_1">
    <g id="patch_2">
     <path d="M 550.034718 369.985484 
L 586.323427 303.541504 
Q 587.761404 300.908593 585.128493 299.470615 
L 576.634612 294.83164 
Q 574.001701 293.393663 572.563724 296.026574 
L 536.275014 362.470554 
Q 534.837037 365.103465 537.469948 366.541442 
L 545.963829 371.180417 
Q 548.59674 372.618395 550.034718 369.985484 
z
" clip-path="url(#pf101bd0f17)" style="fill: #ffffff; stroke: #ffffff; stroke-linejoin: miter"/>
    </g>
    <g clip-path="url(#pf101bd0f17)">
     <!-- St. Marys River -->
     <g style="fill: #808080" transform="translate(545.576596 367.550658) rotate(-61.358621) scale(0.1 -0.1)">
      <defs>
       <path id="DejaVuSans-53" d="M 3425 4513 
L 3425 3897 
Q 3066 4069 2747 4153 
Q 2428 4238 2131 4238 
Q 1616 4238 1336 4038 
Q 1056 3838 1056 3469 
Q 1056 3159 1242 3001 
Q 1428 2844 1947 2747 
L 2328 2669 
Q 3034 2534 3370 2195 
Q 3706 1856 3706 1288 
Q 3706 609 3251 259 
Q 2797 -91 1919 -91 
Q 1588 -91 1214 -16 
Q 841 59 441 206 
L 441 856 
Q 825 641 1194 531 
Q 1563 422 1919 422 
Q 2459 422 2753 634 
Q 3047 847 3047 1241 
Q 3047 1584 2836 1778 
Q 2625 1972 2144 2069 
L 1759 2144 
Q 1053 2284 737 2584 
Q 422 2884 422 3419 
Q 422 4038 858 4394 
Q 1294 4750 2059 4750 
Q 2388 4750 2728 4690 
Q 3069 4631 3425 4513 
z
" transform="scale(0.015625)"/>
       <path id="DejaVuSans-74" d="M 1172 4494 
L 1172 3500 
L 2356 3500 
L 2356 3053 
L 1172 3053 
L 1172 1153 
Q 1172 725 1289 603 
Q 1406 481 1766 481 
L 2356 481 
L 2356 0 
L 1766 0 
Q 1100 0 847 248 
Q 594 497 594 1153 
L 594 3053 
L 172 3053 
L 172 3500 
L 594 3500 
L 594 4494 
L 1172 4494 
z
" transform="scale(0.015625)"/>
       <path id="DejaVuSans-2e" d="M 684 794 
L 1344 794 
L 1344 0 
L 684 0 
L 684 794 
z
" transform="scale(0.015625)"/>
       <path id="DejaVuSans-20" transform="scale(0.015625)"/>
       <path id="DejaVuSans-4d" d="M 628 4666 
L 1569 4666 
L 2759 1491 
L 3956 4666 
L 4897 4666 
L 4897 0 
L 4281 0 
L 4281 4097 
L 3078 897 
L 2444 897 
L 1241 4097 
L 1241 0 
L 628 0 
L 628 4666 
z
" transform="scale(0.015625)"/>
       <path id="DejaVuSans-61" d="M 2194 1759 
Q 1497 1759 1228 1600 
Q 959 1441 959 1056 
Q 959 750 1161 570 
Q 1363 391 1709 391 
Q 2188 391 2477 730 
Q 2766 1069 2766 1631 
L 2766 1759 
L 2194 1759 
z
M 3341 1997 
L 3341 0 
L 2766 0 
L 2766 531 
Q 2569 213 2275 61 
Q 1981 -91 1556 -91 
Q 1019 -91 701 211 
Q 384 513 384 1019 
Q 384 1609 779 1909 
Q 1175 2209 1959 2209 
L 2766 2209 
L 2766 2266 
Q 2766 2663 2505 2880 
Q 2244 3097 1772 3097 
Q 1472 3097 1187 3025 
Q 903 2953 641 2809 
L 641 3341 
Q 956 3463 1253 3523 
Q 1550 3584 1831 3584 
Q 2591 3584 2966 3190 
Q 3341 2797 3341 1997 
z
" transform="scale(0.015625)"/>
       <path id="DejaVuSans-72" d="M 2631 2963 
Q 2534 3019 2420 3045 
Q 2306 3072 2169 3072 
Q 1681 3072 1420 2755 
Q 1159 2438 1159 1844 
L 1159 0 
L 581 0 
L 581 3500 
L 1159 3500 
L 1159 2956 
Q 1341 3275 1631 3429 
Q 1922 3584 2338 3584 
Q 2397 3584 2469 3576 
Q 2541 3569 2628 3553 
L 2631 2963 
z
" transform="scale(0.015625)"/>
       <path id="DejaVuSans-79" d="M 2059 -325 
Q 1816 -950 1584 -1140 
Q 1353 -1331 966 -1331 
L 506 -1331 
L 506 -850 
L 844 -850 
Q 1081 -850 1212 -737 
Q 1344 -625 1503 -206 
L 1606 56 
L 191 3500 
L 800 3500 
L 1894 763 
L 2988 3500 
L 3597 3500 
L 2059 -325 
z
" transform="scale(0.015625)"/>
       <path id="DejaVuSans-73" d="M 2834 3397 
L 2834 2853 
Q 2591 2978 2328 3040 
Q 2066 3103 1784 3103 
Q 1356 3103 1142 2972 
Q 928 2841 928 2578 
Q 928 2378 1081 2264 
Q 1234 2150 1697 2047 
L 1894 2003 
Q 2506 1872 2764 1633 
Q 3022 1394 3022 966 
Q 3022 478 2636 193 
Q 2250 -91 1575 -91 
Q 1294 -91 989 -36 
Q 684 19 347 128 
L 347 722 
Q 666 556 975 473 
Q 1284 391 1588 391 
Q 1994 391 2212 530 
Q 2431 669 2431 922 
Q 2431 1156 2273 1281 
Q 2116 1406 1581 1522 
L 1381 1569 
Q 847 1681 609 1914 
Q 372 2147 372 2553 
Q 372 3047 722 3315 
Q 1072 3584 1716 3584 
Q 2034 3584 2315 3537 
Q 2597 3491 2834 3397 
z
" transform="scale(0.015625)"/>
       <path id="DejaVuSans-52" d="M 2841 2188 
Q 3044 2119 3236 1894 
Q 3428 1669 3622 1275 
L 4263 0 
L 3584 0 
L 2988 1197 
Q 2756 1666 2539 1819 
Q 2322 1972 1947 1972 
L 1259 1972 
L 1259 0 
L 628 0 
L 628 4666 
L 2053 4666 
Q 2853 4666 3247 4331 
Q 3641 3997 3641 3322 
Q 3641 2881 3436 2590 
Q 3231 2300 2841 2188 
z
M 1259 4147 
L 1259 2491 
L 2053 2491 
Q 2509 2491 2742 2702 
Q 2975 2913 2975 3322 
Q 2975 3731 2742 3939 
Q 2509 4147 2053 4147 
L 1259 4147 
z
" transform="scale(0.015625)"/>
       <path id="DejaVuSans-69" d="M 603 3500 
L 1178 3500 
L 1178 0 
L 603 0 
L 603 3500 
z
M 603 4863 
L 1178 4863 
L 1178 4134 
L 603 4134 
L 603 4863 
z
" transform="scale(0.015625)"/>
       <path id="DejaVuSans-76" d="M 191 3500 
L 800 3500 
L 1894 563 
L 2988 3500 
L 3597 3500 
L 2284 0 
L 1503 0 
L 191 3500 
z
" transform="scale(0.015625)"/>
       <path id="DejaVuSans-65" d="M 3597 1894 
L 3597 1613 
L 953 1613 
Q 991 1019 1311 708 
Q 1631 397 2203 397 
Q 2534 397 2845 478 
Q 3156 559 3463 722 
L 3463 178 
Q 3153 47 2828 -22 
Q 2503 -91 2169 -91 
Q 1331 -91 842 396 
Q 353 884 353 1716 
Q 353 2575 817 3079 
Q 1281 3584 2069 3584 
Q 2775 3584 3186 3129 
Q 3597 2675 3597 1894 
z
M 3022 2063 
Q 3016 2534 2758 2815 
Q 2500 3097 2075 3097 
Q 1594 3097 1305 2825 
Q 1016 2553 972 2059 
L 3022 2063 
z
" transform="scale(0.015625)"/>
      </defs>
      <use xlink:href="#DejaVuSans-53"/>
      <use xlink:href="#DejaVuSans-74" x="63.476562"/>
      <use xlink:href="#DejaVuSans-2e" x="102.685547"/>
      <use xlink:href="#DejaVuSans-20" x="134.472656"/>
      <use xlink:href="#DejaVuSans-4d" x="166.259766"/>
      <use xlink:href="#DejaVuSans-61" x="252.539062"/>
      <use xlink:href="#DejaVuSans-72" x="313.818359"/>
      <use xlink:href="#DejaVuSans-79" x="354.931641"/>
      <use xlink:href="#DejaVuSans-73" x="414.111328"/>
      <use xlink:href="#DejaVuSans-20" x="466.210938"/>
      <use xlink:href="#DejaVuSans-52" x="497.998047"/>
      <use xlink:href="#DejaVuSans-69" x="567.480469"/>
      <use xlink:href="#DejaVuSans-76" x="595.263672"/>
      <use xlink:href="#DejaVuSans-65" x="654.443359"/>
      <use xlink:href="#DejaVuSans-72" x="715.966797"/>
     </g>
    </g>
   </g>
   <g id="text_2">
    <g id="patch_3">
     <path d="M 553.942017 218.492404 
L 578.959367 282.250525 
Q 580.055168 285.043233 582.847876 283.947433 
L 591.857271 280.412336 
Q 594.64998 279.316535 593.554179 276.523827 
L 568.536829 212.765706 
Q 567.441029 209.972998 564.64832 211.068798 
L 555.638926 214.603895 
Q 552.846217 215.699696 553.942017 218.492404 
z
" clip-path="url(#pf101bd0f17)" style="fill: #ffffff; stroke: #ffffff; stroke-linejoin: miter"/>
    </g>
    <g clip-path="url(#pf101bd0f17)">
     <!-- St. Clair River -->
     <g style="fill: #808080" transform="translate(558.670713 216.636963) rotate(-291.424002) scale(0.1 -0.1)">
      <defs>
       <path id="DejaVuSans-43" d="M 4122 4306 
L 4122 3641 
Q 3803 3938 3442 4084 
Q 3081 4231 2675 4231 
Q 1875 4231 1450 3742 
Q 1025 3253 1025 2328 
Q 1025 1406 1450 917 
Q 1875 428 2675 428 
Q 3081 428 3442 575 
Q 3803 722 4122 1019 
L 4122 359 
Q 3791 134 3420 21 
Q 3050 -91 2638 -91 
Q 1578 -91 968 557 
Q 359 1206 359 2328 
Q 359 3453 968 4101 
Q 1578 4750 2638 4750 
Q 3056 4750 3426 4639 
Q 3797 4528 4122 4306 
z
" transform="scale(0.015625)"/>
       <path id="DejaVuSans-6c" d="M 603 4863 
L 1178 4863 
L 1178 0 
L 603 0 
L 603 4863 
z
" transform="scale(0.015625)"/>
      </defs>
      <use xlink:href="#DejaVuSans-53"/>
      <use xlink:href="#DejaVuSans-74" x="63.476562"/>
      <use xlink:href="#DejaVuSans-2e" x="102.685547"/>
      <use xlink:href="#DejaVuSans-20" x="134.472656"/>
      <use xlink:href="#DejaVuSans-43" x="166.259766"/>
      <use xlink:href="#DejaVuSans-6c" x="236.083984"/>
      <use xlink:href="#DejaVuSans-61" x="263.867188"/>
      <use xlink:href="#DejaVuSans-69" x="325.146484"/>
      <use xlink:href="#DejaVuSans-72" x="352.929688"/>
      <use xlink:href="#DejaVuSans-20" x="394.042969"/>
      <use xlink:href="#DejaVuSans-52" x="425.830078"/>
      <use xlink:href="#DejaVuSans-69" x="495.3125"/>
      <use xlink:href="#DejaVuSans-76" x="523.095703"/>
      <use xlink:href="#DejaVuSans-65" x="582.275391"/>
      <use xlink:href="#DejaVuSans-72" x="643.798828"/>
     </g>
    </g>
   </g>
   <g id="text_3">
    <g id="patch_4">
     <path d="M 397.860008 136.421663 
L 439.191337 184.713601 
Q 441.14203 186.99281 443.42124 185.042117 
L 450.774065 178.749099 
Q 453.053274 176.798406 451.102581 174.519197 
L 409.771252 126.227258 
Q 407.820559 123.948049 405.541349 125.898742 
L 398.188525 132.19176 
Q 395.909315 134.142453 397.860008 136.421663 
z
" clip-path="url(#pf101bd0f17)" style="fill: #ffffff; stroke: #ffffff; stroke-linejoin: miter"/>
    </g>
    <g clip-path="url(#pf101bd0f17)">
     <!-- Detroit River -->
     <g style="fill: #808080" transform="translate(401.719232 133.118692) rotate(-310.559026) scale(0.1 -0.1)">
      <defs>
       <path id="DejaVuSans-44" d="M 1259 4147 
L 1259 519 
L 2022 519 
Q 2988 519 3436 956 
Q 3884 1394 3884 2338 
Q 3884 3275 3436 3711 
Q 2988 4147 2022 4147 
L 1259 4147 
z
M 628 4666 
L 1925 4666 
Q 3281 4666 3915 4102 
Q 4550 3538 4550 2338 
Q 4550 1131 3912 565 
Q 3275 0 1925 0 
L 628 0 
L 628 4666 
z
" transform="scale(0.015625)"/>
       <path id="DejaVuSans-6f" d="M 1959 3097 
Q 1497 3097 1228 2736 
Q 959 2375 959 1747 
Q 959 1119 1226 758 
Q 1494 397 1959 397 
Q 2419 397 2687 759 
Q 2956 1122 2956 1747 
Q 2956 2369 2687 2733 
Q 2419 3097 1959 3097 
z
M 1959 3584 
Q 2709 3584 3137 3096 
Q 3566 2609 3566 1747 
Q 3566 888 3137 398 
Q 2709 -91 1959 -91 
Q 1206 -91 779 398 
Q 353 888 353 1747 
Q 353 2609 779 3096 
Q 1206 3584 1959 3584 
z
" transform="scale(0.015625)"/>
      </defs>
      <use xlink:href="#DejaVuSans-44"/>
      <use xlink:href="#DejaVuSans-65" x="77.001953"/>
      <use xlink:href="#DejaVuSans-74" x="138.525391"/>
      <use xlink:href="#DejaVuSans-72" x="177.734375"/>
      <use xlink:href="#DejaVuSans-6f" x="216.597656"/>
      <use xlink:href="#DejaVuSans-69" x="277.779297"/>
      <use xlink:href="#DejaVuSans-74" x="305.5625"/>
      <use xlink:href="#DejaVuSans-20" x="344.771484"/>
      <use xlink:href="#DejaVuSans-52" x="376.558594"/>
      <use xlink:href="#DejaVuSans-69" x="446.041016"/>
      <use xlink:href="#DejaVuSans-76" x="473.824219"/>
      <use xlink:href="#DejaVuSans-65" x="533.003906"/>
      <use xlink:href="#DejaVuSans-72" x="594.527344"/>
     </g>
    </g>
   </g>
   <g id="text_4">
    <g id="patch_5">
     <path d="M 159.693186 65.352833 
L 217.432 101.632175 
Q 219.97218 103.22826 221.568265 100.68808 
L 226.717301 92.493355 
Q 228.313386 89.953175 225.773206 88.35709 
L 168.034392 52.077748 
Q 165.494213 50.481663 163.898128 53.021842 
L 158.749091 61.216568 
Q 157.153006 63.756748 159.693186 65.352833 
z
" clip-path="url(#pf101bd0f17)" style="fill: #ffffff; stroke: #ffffff; stroke-linejoin: miter"/>
    </g>
    <g clip-path="url(#pf101bd0f17)">
     <!-- Niagara River -->
     <g style="fill: #808080" transform="translate(162.395724 61.051726) rotate(-327.857398) scale(0.1 -0.1)">
      <defs>
       <path id="DejaVuSans-4e" d="M 628 4666 
L 1478 4666 
L 3547 763 
L 3547 4666 
L 4159 4666 
L 4159 0 
L 3309 0 
L 1241 3903 
L 1241 0 
L 628 0 
L 628 4666 
z
" transform="scale(0.015625)"/>
       <path id="DejaVuSans-67" d="M 2906 1791 
Q 2906 2416 2648 2759 
Q 2391 3103 1925 3103 
Q 1463 3103 1205 2759 
Q 947 2416 947 1791 
Q 947 1169 1205 825 
Q 1463 481 1925 481 
Q 2391 481 2648 825 
Q 2906 1169 2906 1791 
z
M 3481 434 
Q 3481 -459 3084 -895 
Q 2688 -1331 1869 -1331 
Q 1566 -1331 1297 -1286 
Q 1028 -1241 775 -1147 
L 775 -588 
Q 1028 -725 1275 -790 
Q 1522 -856 1778 -856 
Q 2344 -856 2625 -561 
Q 2906 -266 2906 331 
L 2906 616 
Q 2728 306 2450 153 
Q 2172 0 1784 0 
Q 1141 0 747 490 
Q 353 981 353 1791 
Q 353 2603 747 3093 
Q 1141 3584 1784 3584 
Q 2172 3584 2450 3431 
Q 2728 3278 2906 2969 
L 2906 3500 
L 3481 3500 
L 3481 434 
z
" transform="scale(0.015625)"/>
      </defs>
      <use xlink:href="#DejaVuSans-4e"/>
      <use xlink:href="#DejaVuSans-69" x="74.804688"/>
      <use xlink:href="#DejaVuSans-61" x="102.587891"/>
      <use xlink:href="#DejaVuSans-67" x="163.867188"/>
      <use xlink:href="#DejaVuSans-61" x="227.34375"/>
      <use xlink:href="#DejaVuSans-72" x="288.623047"/>
      <use xlink:href="#DejaVuSans-61" x="329.736328"/>
      <use xlink:href="#DejaVuSans-20" x="391.015625"/>
      <use xlink:href="#DejaVuSans-52" x="422.802734"/>
      <use xlink:href="#DejaVuSans-69" x="492.285156"/>
      <use xlink:href="#DejaVuSans-76" x="520.068359"/>
      <use xlink:href="#DejaVuSans-65" x="579.248047"/>
      <use xlink:href="#DejaVuSans-72" x="640.771484"/>
     </g>
    </g>
   </g>
   <g id="text_5">
    <g id="patch_6">
     <path d="M 357.502988 409.427346 
L 403.872472 391.323956 
Q 406.667042 390.232912 405.575997 387.438342 
L 402.056241 378.422943 
Q 400.965196 375.628373 398.170626 376.719417 
L 351.801142 394.822807 
Q 349.006572 395.913852 350.097617 398.708421 
L 353.617373 407.723821 
Q 354.708418 410.51839 357.502988 409.427346 
z
" clip-path="url(#pf101bd0f17)" style="fill: #ffffff; stroke: #ffffff; stroke-linejoin: miter"/>
    </g>
    <g clip-path="url(#pf101bd0f17)">
     <!-- Soo Locks -->
     <g style="fill: #808080" transform="translate(355.655599 404.695498) rotate(-21.32647) scale(0.1 -0.1)">
      <defs>
       <path id="DejaVuSans-4c" d="M 628 4666 
L 1259 4666 
L 1259 531 
L 3531 531 
L 3531 0 
L 628 0 
L 628 4666 
z
" transform="scale(0.015625)"/>
       <path id="DejaVuSans-63" d="M 3122 3366 
L 3122 2828 
Q 2878 2963 2633 3030 
Q 2388 3097 2138 3097 
Q 1578 3097 1268 2742 
Q 959 2388 959 1747 
Q 959 1106 1268 751 
Q 1578 397 2138 397 
Q 2388 397 2633 464 
Q 2878 531 3122 666 
L 3122 134 
Q 2881 22 2623 -34 
Q 2366 -91 2075 -91 
Q 1284 -91 818 406 
Q 353 903 353 1747 
Q 353 2603 823 3093 
Q 1294 3584 2113 3584 
Q 2378 3584 2631 3529 
Q 2884 3475 3122 3366 
z
" transform="scale(0.015625)"/>
       <path id="DejaVuSans-6b" d="M 581 4863 
L 1159 4863 
L 1159 1991 
L 2875 3500 
L 3609 3500 
L 1753 1863 
L 3688 0 
L 2938 0 
L 1159 1709 
L 1159 0 
L 581 0 
L 581 4863 
z
" transform="scale(0.015625)"/>
      </defs>
      <use xlink:href="#DejaVuSans-53"/>
      <use xlink:href="#DejaVuSans-6f" x="63.476562"/>
      <use xlink:href="#DejaVuSans-6f" x="124.658203"/>
      <use xlink:href="#DejaVuSans-20" x="185.839844"/>
      <use xlink:href="#DejaVuSans-4c" x="217.626953"/>
      <use xlink:href="#DejaVuSans-6f" x="271.589844"/>
      <use xlink:href="#DejaVuSans-63" x="332.771484"/>
      <use xlink:href="#DejaVuSans-6b" x="387.751953"/>
      <use xlink:href="#DejaVuSans-73" x="445.662109"/>
     </g>
    </g>
   </g>
   <g id="text_6">
    <g id="patch_7">
     <path d="M 91.485706 55.190315 
L 125.639198 142.356876 
Q 126.733642 145.150116 129.526883 144.055672 
L 138.537993 140.52495 
Q 141.331233 139.430506 140.236789 136.637266 
L 106.083297 49.470705 
Q 104.988853 46.677465 102.195613 47.771909 
L 93.184503 51.30263 
Q 90.391262 52.397074 91.485706 55.190315 
z
" clip-path="url(#pf101bd0f17)" style="fill: #ffffff; stroke: #ffffff; stroke-linejoin: miter"/>
    </g>
    <g clip-path="url(#pf101bd0f17)">
     <!-- St. Lawrence River -->
     <g style="fill: #808080" transform="translate(96.215302 53.33717) rotate(-291.396177) scale(0.1 -0.1)">
      <defs>
       <path id="DejaVuSans-77" d="M 269 3500 
L 844 3500 
L 1563 769 
L 2278 3500 
L 2956 3500 
L 3675 769 
L 4391 3500 
L 4966 3500 
L 4050 0 
L 3372 0 
L 2619 2869 
L 1863 0 
L 1184 0 
L 269 3500 
z
" transform="scale(0.015625)"/>
       <path id="DejaVuSans-6e" d="M 3513 2113 
L 3513 0 
L 2938 0 
L 2938 2094 
Q 2938 2591 2744 2837 
Q 2550 3084 2163 3084 
Q 1697 3084 1428 2787 
Q 1159 2491 1159 1978 
L 1159 0 
L 581 0 
L 581 3500 
L 1159 3500 
L 1159 2956 
Q 1366 3272 1645 3428 
Q 1925 3584 2291 3584 
Q 2894 3584 3203 3211 
Q 3513 2838 3513 2113 
z
" transform="scale(0.015625)"/>
      </defs>
      <use xlink:href="#DejaVuSans-53"/>
      <use xlink:href="#DejaVuSans-74" x="63.476562"/>
      <use xlink:href="#DejaVuSans-2e" x="102.685547"/>
      <use xlink:href="#DejaVuSans-20" x="134.472656"/>
      <use xlink:href="#DejaVuSans-4c" x="166.259766"/>
      <use xlink:href="#DejaVuSans-61" x="221.972656"/>
      <use xlink:href="#DejaVuSans-77" x="283.251953"/>
      <use xlink:href="#DejaVuSans-72" x="365.039062"/>
      <use xlink:href="#DejaVuSans-65" x="403.902344"/>
      <use xlink:href="#DejaVuSans-6e" x="465.425781"/>
      <use xlink:href="#DejaVuSans-63" x="528.804688"/>
      <use xlink:href="#DejaVuSans-65" x="583.785156"/>
      <use xlink:href="#DejaVuSans-20" x="645.308594"/>
      <use xlink:href="#DejaVuSans-52" x="677.095703"/>
      <use xlink:href="#DejaVuSans-69" x="746.578125"/>
      <use xlink:href="#DejaVuSans-76" x="774.361328"/>
      <use xlink:href="#DejaVuSans-65" x="833.541016"/>
      <use xlink:href="#DejaVuSans-72" x="895.064453"/>
     </g>
    </g>
   </g>
   <g id="patch_8">
    <path d="M 526.208543 358.016741 
Q 561.301335 333.004522 594.573237 309.290133 
" clip-path="url(#pf101bd0f17)" style="fill: none; stroke: #808080; stroke-width: 2; stroke-linecap: round"/>
    <path d="M 585.736998 310.676085 
L 594.573237 309.290133 
L 590.380255 317.190696 
" clip-path="url(#pf101bd0f17)" style="fill: none; stroke: #808080; stroke-width: 2; stroke-linecap: round"/>
   </g>
   <g id="patch_9">
    <path d="M 599.252496 272.810383 
Q 573.748369 247.508384 549.831659 223.781221 
" clip-path="url(#pf101bd0f17)" style="fill: none; stroke: #808080; stroke-width: 2; stroke-linecap: round"/>
    <path d="M 552.693821 232.255182 
L 549.831659 223.781221 
L 558.328126 226.575868 
" clip-path="url(#pf101bd0f17)" style="fill: none; stroke: #808080; stroke-width: 2; stroke-linecap: round"/>
   </g>
   <g id="patch_10">
    <path d="M 503.871095 191.578989 
Q 424.480278 155.469967 347.124887 120.28671 
" clip-path="url(#pf101bd0f17)" style="fill: none; stroke: #808080; stroke-width: 2; stroke-linecap: round"/>
    <path d="M 352.75099 127.239909 
L 347.124887 120.28671 
L 356.063108 119.957747 
" clip-path="url(#pf101bd0f17)" style="fill: none; stroke: #808080; stroke-width: 2; stroke-linecap: round"/>
   </g>
   <g id="patch_11">
    <path d="M 293.557491 101.515748 
Q 192.73088 76.854395 94.07631 52.724305 
" clip-path="url(#pf101bd0f17)" style="fill: none; stroke: #808080; stroke-width: 2; stroke-linecap: round"/>
    <path d="M 100.896886 58.510473 
L 94.07631 52.724305 
L 102.79759 50.739545 
" clip-path="url(#pf101bd0f17)" style="fill: none; stroke: #808080; stroke-width: 2; stroke-linecap: round"/>
   </g>
   <g id="patch_12">
    <path d="M 278.842643 408.118216 
Q 377.83423 393.073773 474.615134 378.365304 
" clip-path="url(#pf101bd0f17)" style="fill: none; stroke: #808080; stroke-width: 2; stroke-linecap: round"/>
    <path d="M 466.104945 375.612726 
L 474.615134 378.365304 
L 467.306959 383.521908 
" clip-path="url(#pf101bd0f17)" style="fill: none; stroke: #808080; stroke-width: 2; stroke-linecap: round"/>
   </g>
   <g id="patch_13">
    <path d="M 146.986306 126.83633 
Q 115.858819 95.911377 86.317622 66.562394 
" clip-path="url(#pf101bd0f17)" style="fill: none; stroke: #808080; stroke-width: 2; stroke-linecap: round"/>
    <path d="M 89.17373 75.038399 
L 86.317622 66.562394 
L 94.81209 69.363111 
" clip-path="url(#pf101bd0f17)" style="fill: none; stroke: #808080; stroke-width: 2; stroke-linecap: round"/>
   </g>
   <g id="PathCollection_1">
    <defs>
     <path id="ma00d0425e8" d="M 0 27.386128 
C 7.262886 27.386128 14.229281 24.500553 19.364917 19.364917 
C 24.500553 14.229281 27.386128 7.262886 27.386128 0 
C 27.386128 -7.262886 24.500553 -14.229281 19.364917 -19.364917 
C 14.229281 -24.500553 7.262886 -27.386128 0 -27.386128 
C -7.262886 -27.386128 -14.229281 -24.500553 -19.364917 -19.364917 
C -24.500553 -14.229281 -27.386128 -7.262886 -27.386128 0 
C -27.386128 7.262886 -24.500553 14.229281 -19.364917 19.364917 
C -14.229281 24.500553 -7.262886 27.386128 0 27.386128 
z
" style="stroke: #000000"/>
    </defs>
    <g clip-path="url(#pf101bd0f17)">
     <use xlink:href="#ma00d0425e8" x="503.904226" y="373.914036" style="fill: #87ceeb; stroke: #000000"/>
     <use xlink:href="#ma00d0425e8" x="618.694215" y="292.098022" style="fill: #87ceeb; stroke: #000000"/>
     <use xlink:href="#ma00d0425e8" x="528.801982" y="202.918209" style="fill: #87ceeb; stroke: #000000"/>
     <use xlink:href="#ma00d0425e8" x="320.160607" y="108.02265" style="fill: #87ceeb; stroke: #000000"/>
     <use xlink:href="#ma00d0425e8" x="65.305785" y="45.687273" style="fill: #87ceeb; stroke: #000000"/>
     <use xlink:href="#ma00d0425e8" x="251.769388" y="412.232727" style="fill: #87ceeb; stroke: #000000"/>
     <use xlink:href="#ma00d0425e8" x="166.41671" y="146.140308" style="fill: #87ceeb; stroke: #000000"/>
    </g>
   </g>
   <g id="text_7">
    <g clip-path="url(#pf101bd0f17)">
     <!-- Superior -->
     <g transform="translate(478.520476 377.225286) scale(0.12 -0.12)">
      <defs>
       <path id="DejaVuSans-75" d="M 544 1381 
L 544 3500 
L 1119 3500 
L 1119 1403 
Q 1119 906 1312 657 
Q 1506 409 1894 409 
Q 2359 409 2629 706 
Q 2900 1003 2900 1516 
L 2900 3500 
L 3475 3500 
L 3475 0 
L 2900 0 
L 2900 538 
Q 2691 219 2414 64 
Q 2138 -91 1772 -91 
Q 1169 -91 856 284 
Q 544 659 544 1381 
z
M 1991 3584 
L 1991 3584 
z
" transform="scale(0.015625)"/>
       <path id="DejaVuSans-70" d="M 1159 525 
L 1159 -1331 
L 581 -1331 
L 581 3500 
L 1159 3500 
L 1159 2969 
Q 1341 3281 1617 3432 
Q 1894 3584 2278 3584 
Q 2916 3584 3314 3078 
Q 3713 2572 3713 1747 
Q 3713 922 3314 415 
Q 2916 -91 2278 -91 
Q 1894 -91 1617 61 
Q 1341 213 1159 525 
z
M 3116 1747 
Q 3116 2381 2855 2742 
Q 2594 3103 2138 3103 
Q 1681 3103 1420 2742 
Q 1159 2381 1159 1747 
Q 1159 1113 1420 752 
Q 1681 391 2138 391 
Q 2594 391 2855 752 
Q 3116 1113 3116 1747 
z
" transform="scale(0.015625)"/>
      </defs>
      <use xlink:href="#DejaVuSans-53"/>
      <use xlink:href="#DejaVuSans-75" x="63.476562"/>
      <use xlink:href="#DejaVuSans-70" x="126.855469"/>
      <use xlink:href="#DejaVuSans-65" x="190.332031"/>
      <use xlink:href="#DejaVuSans-72" x="251.855469"/>
      <use xlink:href="#DejaVuSans-69" x="292.96875"/>
      <use xlink:href="#DejaVuSans-6f" x="320.751953"/>
      <use xlink:href="#DejaVuSans-72" x="381.933594"/>
     </g>
    </g>
   </g>
   <g id="text_8">
    <g clip-path="url(#pf101bd0f17)">
     <!-- Michigan&amp;Huron -->
     <g transform="translate(568.994527 295.409272) scale(0.12 -0.12)">
      <defs>
       <path id="DejaVuSans-68" d="M 3513 2113 
L 3513 0 
L 2938 0 
L 2938 2094 
Q 2938 2591 2744 2837 
Q 2550 3084 2163 3084 
Q 1697 3084 1428 2787 
Q 1159 2491 1159 1978 
L 1159 0 
L 581 0 
L 581 4863 
L 1159 4863 
L 1159 2956 
Q 1366 3272 1645 3428 
Q 1925 3584 2291 3584 
Q 2894 3584 3203 3211 
Q 3513 2838 3513 2113 
z
" transform="scale(0.015625)"/>
       <path id="DejaVuSans-26" d="M 1556 2509 
Q 1272 2256 1139 2004 
Q 1006 1753 1006 1478 
Q 1006 1022 1337 719 
Q 1669 416 2169 416 
Q 2466 416 2725 514 
Q 2984 613 3213 813 
L 1556 2509 
z
M 1997 2859 
L 3584 1234 
Q 3769 1513 3872 1830 
Q 3975 2147 3994 2503 
L 4575 2503 
Q 4538 2091 4375 1687 
Q 4213 1284 3922 891 
L 4794 0 
L 4006 0 
L 3559 459 
Q 3234 181 2878 45 
Q 2522 -91 2113 -91 
Q 1359 -91 881 339 
Q 403 769 403 1441 
Q 403 1841 612 2192 
Q 822 2544 1241 2853 
Q 1091 3050 1012 3245 
Q 934 3441 934 3628 
Q 934 4134 1281 4442 
Q 1628 4750 2203 4750 
Q 2463 4750 2720 4694 
Q 2978 4638 3244 4525 
L 3244 3956 
Q 2972 4103 2725 4179 
Q 2478 4256 2266 4256 
Q 1938 4256 1733 4082 
Q 1528 3909 1528 3634 
Q 1528 3475 1620 3314 
Q 1713 3153 1997 2859 
z
" transform="scale(0.015625)"/>
       <path id="DejaVuSans-48" d="M 628 4666 
L 1259 4666 
L 1259 2753 
L 3553 2753 
L 3553 4666 
L 4184 4666 
L 4184 0 
L 3553 0 
L 3553 2222 
L 1259 2222 
L 1259 0 
L 628 0 
L 628 4666 
z
" transform="scale(0.015625)"/>
      </defs>
      <use xlink:href="#DejaVuSans-4d"/>
      <use xlink:href="#DejaVuSans-69" x="86.279297"/>
      <use xlink:href="#DejaVuSans-63" x="114.0625"/>
      <use xlink:href="#DejaVuSans-68" x="169.042969"/>
      <use xlink:href="#DejaVuSans-69" x="232.421875"/>
      <use xlink:href="#DejaVuSans-67" x="260.205078"/>
      <use xlink:href="#DejaVuSans-61" x="323.681641"/>
      <use xlink:href="#DejaVuSans-6e" x="384.960938"/>
      <use xlink:href="#DejaVuSans-26" x="448.339844"/>
      <use xlink:href="#DejaVuSans-48" x="526.318359"/>
      <use xlink:href="#DejaVuSans-75" x="601.513672"/>
      <use xlink:href="#DejaVuSans-72" x="664.892578"/>
      <use xlink:href="#DejaVuSans-6f" x="703.755859"/>
      <use xlink:href="#DejaVuSans-6e" x="764.9375"/>
     </g>
    </g>
   </g>
   <g id="text_9">
    <g clip-path="url(#pf101bd0f17)">
     <!-- St. Clair -->
     <g transform="translate(505.160107 206.229459) scale(0.12 -0.12)">
      <use xlink:href="#DejaVuSans-53"/>
      <use xlink:href="#DejaVuSans-74" x="63.476562"/>
      <use xlink:href="#DejaVuSans-2e" x="102.685547"/>
      <use xlink:href="#DejaVuSans-20" x="134.472656"/>
      <use xlink:href="#DejaVuSans-43" x="166.259766"/>
      <use xlink:href="#DejaVuSans-6c" x="236.083984"/>
      <use xlink:href="#DejaVuSans-61" x="263.867188"/>
      <use xlink:href="#DejaVuSans-69" x="325.146484"/>
      <use xlink:href="#DejaVuSans-72" x="352.929688"/>
     </g>
    </g>
   </g>
   <g id="text_10">
    <g clip-path="url(#pf101bd0f17)">
     <!-- Erie -->
     <g transform="translate(308.544045 111.3339) scale(0.12 -0.12)">
      <defs>
       <path id="DejaVuSans-45" d="M 628 4666 
L 3578 4666 
L 3578 4134 
L 1259 4134 
L 1259 2753 
L 3481 2753 
L 3481 2222 
L 1259 2222 
L 1259 531 
L 3634 531 
L 3634 0 
L 628 0 
L 628 4666 
z
" transform="scale(0.015625)"/>
      </defs>
      <use xlink:href="#DejaVuSans-45"/>
      <use xlink:href="#DejaVuSans-72" x="63.183594"/>
      <use xlink:href="#DejaVuSans-69" x="104.296875"/>
      <use xlink:href="#DejaVuSans-65" x="132.080078"/>
     </g>
    </g>
   </g>
   <g id="text_11">
    <g clip-path="url(#pf101bd0f17)">
     <!-- Ontario -->
     <g transform="translate(42.94641 48.998523) scale(0.12 -0.12)">
      <defs>
       <path id="DejaVuSans-4f" d="M 2522 4238 
Q 1834 4238 1429 3725 
Q 1025 3213 1025 2328 
Q 1025 1447 1429 934 
Q 1834 422 2522 422 
Q 3209 422 3611 934 
Q 4013 1447 4013 2328 
Q 4013 3213 3611 3725 
Q 3209 4238 2522 4238 
z
M 2522 4750 
Q 3503 4750 4090 4092 
Q 4678 3434 4678 2328 
Q 4678 1225 4090 567 
Q 3503 -91 2522 -91 
Q 1538 -91 948 565 
Q 359 1222 359 2328 
Q 359 3434 948 4092 
Q 1538 4750 2522 4750 
z
" transform="scale(0.015625)"/>
      </defs>
      <use xlink:href="#DejaVuSans-4f"/>
      <use xlink:href="#DejaVuSans-6e" x="78.710938"/>
      <use xlink:href="#DejaVuSans-74" x="142.089844"/>
      <use xlink:href="#DejaVuSans-61" x="181.298828"/>
      <use xlink:href="#DejaVuSans-72" x="242.578125"/>
      <use xlink:href="#DejaVuSans-69" x="283.691406"/>
      <use xlink:href="#DejaVuSans-6f" x="311.474609"/>
     </g>
    </g>
   </g>
   <g id="text_12">
    <g clip-path="url(#pf101bd0f17)">
     <!-- Soo Locks -->
     <g transform="translate(221.902513 415.543977) scale(0.12 -0.12)">
      <use xlink:href="#DejaVuSans-53"/>
      <use xlink:href="#DejaVuSans-6f" x="63.476562"/>
      <use xlink:href="#DejaVuSans-6f" x="124.658203"/>
      <use xlink:href="#DejaVuSans-20" x="185.839844"/>
      <use xlink:href="#DejaVuSans-4c" x="217.626953"/>
      <use xlink:href="#DejaVuSans-6f" x="271.589844"/>
      <use xlink:href="#DejaVuSans-63" x="332.771484"/>
      <use xlink:href="#DejaVuSans-6b" x="387.751953"/>
      <use xlink:href="#DejaVuSans-73" x="445.662109"/>
     </g>
    </g>
   </g>
   <g id="text_13">
    <g clip-path="url(#pf101bd0f17)">
     <!-- Moses-Saunders Dam -->
     <g transform="translate(101.228585 149.451558) scale(0.12 -0.12)">
      <defs>
       <path id="DejaVuSans-2d" d="M 313 2009 
L 1997 2009 
L 1997 1497 
L 313 1497 
L 313 2009 
z
" transform="scale(0.015625)"/>
       <path id="DejaVuSans-64" d="M 2906 2969 
L 2906 4863 
L 3481 4863 
L 3481 0 
L 2906 0 
L 2906 525 
Q 2725 213 2448 61 
Q 2172 -91 1784 -91 
Q 1150 -91 751 415 
Q 353 922 353 1747 
Q 353 2572 751 3078 
Q 1150 3584 1784 3584 
Q 2172 3584 2448 3432 
Q 2725 3281 2906 2969 
z
M 947 1747 
Q 947 1113 1208 752 
Q 1469 391 1925 391 
Q 2381 391 2643 752 
Q 2906 1113 2906 1747 
Q 2906 2381 2643 2742 
Q 2381 3103 1925 3103 
Q 1469 3103 1208 2742 
Q 947 2381 947 1747 
z
" transform="scale(0.015625)"/>
       <path id="DejaVuSans-6d" d="M 3328 2828 
Q 3544 3216 3844 3400 
Q 4144 3584 4550 3584 
Q 5097 3584 5394 3201 
Q 5691 2819 5691 2113 
L 5691 0 
L 5113 0 
L 5113 2094 
Q 5113 2597 4934 2840 
Q 4756 3084 4391 3084 
Q 3944 3084 3684 2787 
Q 3425 2491 3425 1978 
L 3425 0 
L 2847 0 
L 2847 2094 
Q 2847 2600 2669 2842 
Q 2491 3084 2119 3084 
Q 1678 3084 1418 2786 
Q 1159 2488 1159 1978 
L 1159 0 
L 581 0 
L 581 3500 
L 1159 3500 
L 1159 2956 
Q 1356 3278 1631 3431 
Q 1906 3584 2284 3584 
Q 2666 3584 2933 3390 
Q 3200 3197 3328 2828 
z
" transform="scale(0.015625)"/>
      </defs>
      <use xlink:href="#DejaVuSans-4d"/>
      <use xlink:href="#DejaVuSans-6f" x="86.279297"/>
      <use xlink:href="#DejaVuSans-73" x="147.460938"/>
      <use xlink:href="#DejaVuSans-65" x="199.560547"/>
      <use xlink:href="#DejaVuSans-73" x="261.083984"/>
      <use xlink:href="#DejaVuSans-2d" x="313.183594"/>
      <use xlink:href="#DejaVuSans-53" x="349.267578"/>
      <use xlink:href="#DejaVuSans-61" x="412.744141"/>
      <use xlink:href="#DejaVuSans-75" x="474.023438"/>
      <use xlink:href="#DejaVuSans-6e" x="537.402344"/>
      <use xlink:href="#DejaVuSans-64" x="600.78125"/>
      <use xlink:href="#DejaVuSans-65" x="664.257812"/>
      <use xlink:href="#DejaVuSans-72" x="725.78125"/>
      <use xlink:href="#DejaVuSans-73" x="766.894531"/>
      <use xlink:href="#DejaVuSans-20" x="818.994141"/>
      <use xlink:href="#DejaVuSans-44" x="850.78125"/>
      <use xlink:href="#DejaVuSans-61" x="927.783203"/>
      <use xlink:href="#DejaVuSans-6d" x="989.0625"/>
     </g>
    </g>
   </g>
  </g>
 </g>
 <defs>
  <clipPath id="pf101bd0f17">
   <rect x="7.2" y="7.2" width="669.6" height="443.52"/>
  </clipPath>
 </defs>
</svg>
