<?xml version="1.0" encoding="utf-8" standalone="no"?>
<!DOCTYPE svg PUBLIC "-//W3C//DTD SVG 1.1//EN"
  "http://www.w3.org/Graphics/SVG/1.1/DTD/svg11.dtd">
<svg xmlns:xlink="http://www.w3.org/1999/xlink" width="926.46125pt" height="394.418125pt" viewBox="0 0 926.46125 394.418125" xmlns="http://www.w3.org/2000/svg" version="1.1">
 <metadata>
  <rdf:RDF xmlns:dc="http://purl.org/dc/elements/1.1/" xmlns:cc="http://creativecommons.org/ns#" xmlns:rdf="http://www.w3.org/1999/02/22-rdf-syntax-ns#">
   <cc:Work>
    <dc:type rdf:resource="http://purl.org/dc/dcmitype/StillImage"/>
    <dc:date>2024-02-04T10:41:39.348208</dc:date>
    <dc:format>image/svg+xml</dc:format>
    <dc:creator>
     <cc:Agent>
      <dc:title>Matplotlib v3.8.0, https://matplotlib.org/</dc:title>
     </cc:Agent>
    </dc:creator>
   </cc:Work>
  </rdf:RDF>
 </metadata>
 <defs>
  <style type="text/css">*{stroke-linejoin: round; stroke-linecap: butt}</style>
 </defs>
 <g id="figure_1">
  <g id="patch_1">
   <path d="M 0 394.418125 
L 926.46125 394.418125 
L 926.46125 0 
L 0 0 
z
" style="fill: #ffffff"/>
  </g>
  <g id="axes_1">
   <g id="patch_2">
    <path d="M 57.4 339.84 
L 727 339.84 
L 727 7.2 
L 57.4 7.2 
z
" style="fill: #ffffff"/>
   </g>
   <g id="patch_3">
    <path d="M 87.836364 339.84 
L 95.60735 339.84 
L 95.60735 38.467244 
L 87.836364 38.467244 
z
" clip-path="url(#pdf90475c54)" style="fill: #1f78b4"/>
   </g>
   <g id="patch_4">
    <path d="M 139.64294 339.84 
L 147.413926 339.84 
L 147.413926 38.47025 
L 139.64294 38.47025 
z
" clip-path="url(#pdf90475c54)" style="fill: #1f78b4"/>
   </g>
   <g id="patch_5">
    <path d="M 191.449516 339.84 
L 199.220503 339.84 
L 199.220503 38.322945 
L 191.449516 38.322945 
z
" clip-path="url(#pdf90475c54)" style="fill: #1f78b4"/>
   </g>
   <g id="patch_6">
    <path d="M 243.256093 339.84 
L 251.027079 339.84 
L 251.027079 38.11326 
L 243.256093 38.11326 
z
" clip-path="url(#pdf90475c54)" style="fill: #1f78b4"/>
   </g>
   <g id="patch_7">
    <path d="M 295.062669 339.84 
L 302.833656 339.84 
L 302.833656 37.968961 
L 295.062669 37.968961 
z
" clip-path="url(#pdf90475c54)" style="fill: #1f78b4"/>
   </g>
   <g id="patch_8">
    <path d="M 346.869246 339.84 
L 354.640232 339.84 
L 354.640232 37.896811 
L 346.869246 37.896811 
z
" clip-path="url(#pdf90475c54)" style="fill: #1f78b4"/>
   </g>
   <g id="patch_9">
    <path d="M 398.675822 339.84 
L 406.446809 339.84 
L 406.446809 37.922364 
L 398.675822 37.922364 
z
" clip-path="url(#pdf90475c54)" style="fill: #1f78b4"/>
   </g>
   <g id="patch_10">
    <path d="M 450.482398 339.84 
L 458.253385 339.84 
L 458.253385 38.051632 
L 450.482398 38.051632 
z
" clip-path="url(#pdf90475c54)" style="fill: #1f78b4"/>
   </g>
   <g id="patch_11">
    <path d="M 502.288975 339.84 
L 510.059961 339.84 
L 510.059961 38.222987 
L 502.288975 38.222987 
z
" clip-path="url(#pdf90475c54)" style="fill: #1f78b4"/>
   </g>
   <g id="patch_12">
    <path d="M 554.095551 339.84 
L 561.866538 339.84 
L 561.866538 38.386076 
L 554.095551 38.386076 
z
" clip-path="url(#pdf90475c54)" style="fill: #1f78b4"/>
   </g>
   <g id="patch_13">
    <path d="M 605.902128 339.84 
L 613.673114 339.84 
L 613.673114 38.498058 
L 605.902128 38.498058 
z
" clip-path="url(#pdf90475c54)" style="fill: #1f78b4"/>
   </g>
   <g id="patch_14">
    <path d="M 657.708704 339.84 
L 665.479691 339.84 
L 665.479691 38.501816 
L 657.708704 38.501816 
z
" clip-path="url(#pdf90475c54)" style="fill: #1f78b4"/>
   </g>
   <g id="patch_15">
    <path d="M 95.60735 339.84 
L 103.378337 339.84 
L 103.378337 34.924396 
L 95.60735 34.924396 
z
" clip-path="url(#pdf90475c54)" style="fill: #33a02c"/>
   </g>
   <g id="patch_16">
    <path d="M 147.413926 339.84 
L 155.184913 339.84 
L 155.184913 34.94995 
L 147.413926 34.94995 
z
" clip-path="url(#pdf90475c54)" style="fill: #33a02c"/>
   </g>
   <g id="patch_17">
    <path d="M 199.220503 339.84 
L 206.991489 339.84 
L 206.991489 34.923645 
L 199.220503 34.923645 
z
" clip-path="url(#pdf90475c54)" style="fill: #33a02c"/>
   </g>
   <g id="patch_18">
    <path d="M 251.027079 339.84 
L 258.798066 339.84 
L 258.798066 34.783855 
L 251.027079 34.783855 
z
" clip-path="url(#pdf90475c54)" style="fill: #33a02c"/>
   </g>
   <g id="patch_19">
    <path d="M 302.833656 339.84 
L 310.604642 339.84 
L 310.604642 34.951453 
L 302.833656 34.951453 
z
" clip-path="url(#pdf90475c54)" style="fill: #33a02c"/>
   </g>
   <g id="patch_20">
    <path d="M 354.640232 339.84 
L 362.411219 339.84 
L 362.411219 34.817675 
L 354.640232 34.817675 
z
" clip-path="url(#pdf90475c54)" style="fill: #33a02c"/>
   </g>
   <g id="patch_21">
    <path d="M 406.446809 339.84 
L 414.217795 339.84 
L 414.217795 34.762811 
L 406.446809 34.762811 
z
" clip-path="url(#pdf90475c54)" style="fill: #33a02c"/>
   </g>
   <g id="patch_22">
    <path d="M 458.253385 339.84 
L 466.024371 339.84 
L 466.024371 34.79588 
L 458.253385 34.79588 
z
" clip-path="url(#pdf90475c54)" style="fill: #33a02c"/>
   </g>
   <g id="patch_23">
    <path d="M 510.059961 339.84 
L 517.830948 339.84 
L 517.830948 34.895837 
L 510.059961 34.895837 
z
" clip-path="url(#pdf90475c54)" style="fill: #33a02c"/>
   </g>
   <g id="patch_24">
    <path d="M 561.866538 339.84 
L 569.637524 339.84 
L 569.637524 35.013832 
L 561.866538 35.013832 
z
" clip-path="url(#pdf90475c54)" style="fill: #33a02c"/>
   </g>
   <g id="patch_25">
    <path d="M 613.673114 339.84 
L 621.444101 339.84 
L 621.444101 34.757551 
L 613.673114 34.757551 
z
" clip-path="url(#pdf90475c54)" style="fill: #33a02c"/>
   </g>
   <g id="patch_26">
    <path d="M 665.479691 339.84 
L 673.250677 339.84 
L 673.250677 34.834961 
L 665.479691 34.834961 
z
" clip-path="url(#pdf90475c54)" style="fill: #33a02c"/>
   </g>
   <g id="patch_27">
    <path d="M 103.378337 339.84 
L 111.149323 339.84 
L 111.149323 210.436635 
L 103.378337 210.436635 
z
" clip-path="url(#pdf90475c54)" style="fill: #e31a1c"/>
   </g>
   <g id="patch_28">
    <path d="M 155.184913 339.84 
L 162.955899 339.84 
L 162.955899 210.33292 
L 155.184913 210.33292 
z
" clip-path="url(#pdf90475c54)" style="fill: #e31a1c"/>
   </g>
   <g id="patch_29">
    <path d="M 206.991489 339.84 
L 214.762476 339.84 
L 214.762476 210.257764 
L 206.991489 210.257764 
z
" clip-path="url(#pdf90475c54)" style="fill: #e31a1c"/>
   </g>
   <g id="patch_30">
    <path d="M 258.798066 339.84 
L 266.569052 339.84 
L 266.569052 209.946619 
L 258.798066 209.946619 
z
" clip-path="url(#pdf90475c54)" style="fill: #e31a1c"/>
   </g>
   <g id="patch_31">
    <path d="M 310.604642 339.84 
L 318.375629 339.84 
L 318.375629 209.661778 
L 310.604642 209.661778 
z
" clip-path="url(#pdf90475c54)" style="fill: #e31a1c"/>
   </g>
   <g id="patch_32">
    <path d="M 362.411219 339.84 
L 370.182205 339.84 
L 370.182205 209.584368 
L 362.411219 209.584368 
z
" clip-path="url(#pdf90475c54)" style="fill: #e31a1c"/>
   </g>
   <g id="patch_33">
    <path d="M 414.217795 339.84 
L 421.988781 339.84 
L 421.988781 209.674555 
L 414.217795 209.674555 
z
" clip-path="url(#pdf90475c54)" style="fill: #e31a1c"/>
   </g>
   <g id="patch_34">
    <path d="M 466.024371 339.84 
L 473.795358 339.84 
L 473.795358 209.907538 
L 466.024371 209.907538 
z
" clip-path="url(#pdf90475c54)" style="fill: #e31a1c"/>
   </g>
   <g id="patch_35">
    <path d="M 517.830948 339.84 
L 525.601934 339.84 
L 525.601934 210.237472 
L 517.830948 210.237472 
z
" clip-path="url(#pdf90475c54)" style="fill: #e31a1c"/>
   </g>
   <g id="patch_36">
    <path d="M 569.637524 339.84 
L 577.408511 339.84 
L 577.408511 210.498263 
L 569.637524 210.498263 
z
" clip-path="url(#pdf90475c54)" style="fill: #e31a1c"/>
   </g>
   <g id="patch_37">
    <path d="M 621.444101 339.84 
L 629.215087 339.84 
L 629.215087 210.603481 
L 621.444101 210.603481 
z
" clip-path="url(#pdf90475c54)" style="fill: #e31a1c"/>
   </g>
   <g id="patch_38">
    <path d="M 673.250677 339.84 
L 681.021663 339.84 
L 681.021663 210.594462 
L 673.250677 210.594462 
z
" clip-path="url(#pdf90475c54)" style="fill: #e31a1c"/>
   </g>
   <g id="patch_39">
    <path d="M 111.149323 339.84 
L 118.920309 339.84 
L 118.920309 37.431596 
L 111.149323 37.431596 
z
" clip-path="url(#pdf90475c54)" style="fill: #ff7f00"/>
   </g>
   <g id="patch_40">
    <path d="M 162.955899 339.84 
L 170.726886 339.84 
L 170.726886 37.495479 
L 162.955899 37.495479 
z
" clip-path="url(#pdf90475c54)" style="fill: #ff7f00"/>
   </g>
   <g id="patch_41">
    <path d="M 214.762476 339.84 
L 222.533462 339.84 
L 222.533462 37.315105 
L 214.762476 37.315105 
z
" clip-path="url(#pdf90475c54)" style="fill: #ff7f00"/>
   </g>
   <g id="patch_42">
    <path d="M 266.569052 339.84 
L 274.340039 339.84 
L 274.340039 37.123457 
L 266.569052 37.123457 
z
" clip-path="url(#pdf90475c54)" style="fill: #ff7f00"/>
   </g>
   <g id="patch_43">
    <path d="M 318.375629 339.84 
L 326.146615 339.84 
L 326.146615 36.980661 
L 318.375629 36.980661 
z
" clip-path="url(#pdf90475c54)" style="fill: #ff7f00"/>
   </g>
   <g id="patch_44">
    <path d="M 370.182205 339.84 
L 377.953191 339.84 
L 377.953191 36.867927 
L 370.182205 36.867927 
z
" clip-path="url(#pdf90475c54)" style="fill: #ff7f00"/>
   </g>
   <g id="patch_45">
    <path d="M 421.988781 339.84 
L 429.759768 339.84 
L 429.759768 36.824337 
L 421.988781 36.824337 
z
" clip-path="url(#pdf90475c54)" style="fill: #ff7f00"/>
   </g>
   <g id="patch_46">
    <path d="M 473.795358 339.84 
L 481.566344 339.84 
L 481.566344 36.90325 
L 473.795358 36.90325 
z
" clip-path="url(#pdf90475c54)" style="fill: #ff7f00"/>
   </g>
   <g id="patch_47">
    <path d="M 525.601934 339.84 
L 533.372921 339.84 
L 533.372921 37.028761 
L 525.601934 37.028761 
z
" clip-path="url(#pdf90475c54)" style="fill: #ff7f00"/>
   </g>
   <g id="patch_48">
    <path d="M 577.408511 339.84 
L 585.179497 339.84 
L 585.179497 37.217402 
L 577.408511 37.217402 
z
" clip-path="url(#pdf90475c54)" style="fill: #ff7f00"/>
   </g>
   <g id="patch_49">
    <path d="M 629.215087 339.84 
L 636.986074 339.84 
L 636.986074 37.36095 
L 629.215087 37.36095 
z
" clip-path="url(#pdf90475c54)" style="fill: #ff7f00"/>
   </g>
   <g id="patch_50">
    <path d="M 681.021663 339.84 
L 688.79265 339.84 
L 688.79265 37.365459 
L 681.021663 37.365459 
z
" clip-path="url(#pdf90475c54)" style="fill: #ff7f00"/>
   </g>
   <g id="patch_51">
    <path d="M 118.920309 339.84 
L 126.691296 339.84 
L 126.691296 23.390978 
L 118.920309 23.390978 
z
" clip-path="url(#pdf90475c54)" style="fill: #6a3d9a"/>
   </g>
   <g id="patch_52">
    <path d="M 170.726886 339.84 
L 178.497872 339.84 
L 178.497872 23.499954 
L 170.726886 23.499954 
z
" clip-path="url(#pdf90475c54)" style="fill: #6a3d9a"/>
   </g>
   <g id="patch_53">
    <path d="M 222.533462 339.84 
L 230.304449 339.84 
L 230.304449 23.559327 
L 222.533462 23.559327 
z
" clip-path="url(#pdf90475c54)" style="fill: #6a3d9a"/>
   </g>
   <g id="patch_54">
    <path d="M 274.340039 339.84 
L 282.111025 339.84 
L 282.111025 23.49319 
L 274.340039 23.49319 
z
" clip-path="url(#pdf90475c54)" style="fill: #6a3d9a"/>
   </g>
   <g id="patch_55">
    <path d="M 326.146615 339.84 
L 333.917602 339.84 
L 333.917602 23.31958 
L 326.146615 23.31958 
z
" clip-path="url(#pdf90475c54)" style="fill: #6a3d9a"/>
   </g>
   <g id="patch_56">
    <path d="M 377.953191 339.84 
L 385.724178 339.84 
L 385.724178 23.167013 
L 377.953191 23.167013 
z
" clip-path="url(#pdf90475c54)" style="fill: #6a3d9a"/>
   </g>
   <g id="patch_57">
    <path d="M 429.759768 339.84 
L 437.530754 339.84 
L 437.530754 23.063298 
L 429.759768 23.063298 
z
" clip-path="url(#pdf90475c54)" style="fill: #6a3d9a"/>
   </g>
   <g id="patch_58">
    <path d="M 481.566344 339.84 
L 489.337331 339.84 
L 489.337331 23.04 
L 481.566344 23.04 
z
" clip-path="url(#pdf90475c54)" style="fill: #6a3d9a"/>
   </g>
   <g id="patch_59">
    <path d="M 533.372921 339.84 
L 541.143907 339.84 
L 541.143907 23.052025 
L 533.372921 23.052025 
z
" clip-path="url(#pdf90475c54)" style="fill: #6a3d9a"/>
   </g>
   <g id="patch_60">
    <path d="M 585.179497 339.84 
L 592.950484 339.84 
L 592.950484 23.080584 
L 585.179497 23.080584 
z
" clip-path="url(#pdf90475c54)" style="fill: #6a3d9a"/>
   </g>
   <g id="patch_61">
    <path d="M 636.986074 339.84 
L 644.75706 339.84 
L 644.75706 23.151231 
L 636.986074 23.151231 
z
" clip-path="url(#pdf90475c54)" style="fill: #6a3d9a"/>
   </g>
   <g id="patch_62">
    <path d="M 688.79265 339.84 
L 696.563636 339.84 
L 696.563636 23.253443 
L 688.79265 23.253443 
z
" clip-path="url(#pdf90475c54)" style="fill: #6a3d9a"/>
   </g>
   <g id="matplotlib.axis_1">
    <g id="xtick_1">
     <g id="line2d_1">
      <defs>
       <path id="m5892b5d6ec" d="M 0 0 
L 0 3.5 
" style="stroke: #000000; stroke-width: 0.8"/>
      </defs>
      <g>
       <use xlink:href="#m5892b5d6ec" x="107.26383" y="339.84" style="stroke: #000000; stroke-width: 0.8"/>
      </g>
     </g>
     <g id="text_1">
      <!-- Jan. -->
      <g transform="translate(92.88883 359.818125) scale(0.2 -0.2)">
       <defs>
        <path id="Garamond-4a" d="M -428 -1138 
Q -369 -1097 -322 -1097 
Q -178 -1097 6 -1263 
Q 38 -1291 53 -1303 
L 69 -1319 
Q 144 -1381 225 -1381 
Q 344 -1381 462 -1300 
Q 581 -1219 653 -1075 
Q 750 -875 795 -625 
Q 841 -375 841 -19 
L 838 469 
L 844 803 
Q 844 1144 819 1853 
L 800 3022 
L 803 3625 
Q 806 3706 775 3766 
Q 756 3797 707 3822 
Q 659 3847 569 3850 
L 338 3866 
Q 228 3866 188 3888 
Q 175 3934 175 3959 
L 178 3997 
Q 247 3997 347 3991 
Q 541 3981 725 3981 
Q 813 3981 956 3984 
Q 1066 3991 1109 3991 
L 1569 3991 
Q 1666 3991 1778 3981 
Q 1778 3909 1772 3869 
Q 1503 3856 1431 3831 
Q 1359 3806 1325 3763 
Q 1303 3734 1303 3653 
L 1291 3328 
L 1294 3250 
Q 1300 3194 1300 3034 
L 1300 2909 
Q 1300 2800 1303 2716 
Q 1309 2591 1309 2566 
Q 1309 2538 1303 2419 
Q 1300 2384 1300 2359 
L 1338 1491 
L 1331 931 
L 1331 569 
Q 1331 256 1213 -303 
Q 1125 -709 897 -1042 
Q 669 -1375 447 -1497 
Q 225 -1619 -144 -1619 
Q -341 -1619 -459 -1525 
Q -541 -1459 -541 -1350 
Q -541 -1219 -428 -1138 
z
" transform="scale(0.015625)"/>
        <path id="Garamond-61" d="M 2541 425 
Q 2559 384 2559 366 
Q 2559 319 2484 200 
Q 2388 44 2269 -28 
Q 2194 -75 2063 -75 
Q 1838 -75 1725 63 
Q 1656 144 1628 353 
L 1278 109 
Q 1094 3 997 -25 
Q 841 -66 622 -66 
Q 463 -66 370 29 
Q 278 125 278 275 
Q 278 491 542 791 
Q 806 1091 1259 1281 
Q 1578 1416 1650 1453 
Q 1656 1556 1656 1678 
Q 1656 2075 1545 2215 
Q 1434 2356 1228 2356 
Q 1013 2356 825 2188 
Q 709 2081 650 1788 
Q 631 1706 578 1613 
Q 444 1525 363 1525 
Q 294 1525 238 1566 
Q 206 1588 206 1616 
Q 206 1697 379 1983 
Q 553 2269 817 2411 
Q 1081 2553 1278 2553 
Q 1547 2553 1678 2504 
Q 1809 2456 1909 2334 
Q 2009 2213 2031 2069 
Q 2044 2000 2044 1578 
L 2034 1081 
L 2038 719 
Q 2038 647 2034 597 
Q 2031 506 2031 463 
Q 2031 359 2091 297 
Q 2150 234 2231 234 
Q 2350 234 2434 353 
L 2472 403 
Q 2488 413 2541 425 
z
M 1622 516 
Q 1644 913 1644 1075 
Q 1644 1159 1634 1303 
Q 1425 1228 1190 1075 
Q 956 922 819 722 
Q 719 578 719 450 
Q 719 328 801 247 
Q 884 166 1009 166 
Q 1106 166 1244 234 
Q 1425 325 1622 516 
z
" transform="scale(0.015625)"/>
        <path id="Garamond-6e" d="M 119 100 
Q 197 122 300 138 
Q 497 166 536 203 
Q 575 241 575 375 
L 581 488 
Q 584 550 584 647 
L 578 1606 
Q 578 1800 528 1856 
Q 444 1944 216 1978 
L 216 2091 
Q 444 2153 566 2253 
Q 744 2394 866 2634 
L 972 2631 
Q 981 2484 981 2422 
L 981 2216 
L 984 2159 
Q 1022 2184 1072 2222 
Q 1259 2363 1456 2452 
Q 1653 2541 1806 2575 
Q 1903 2600 2025 2600 
Q 2281 2600 2465 2462 
Q 2650 2325 2704 2139 
Q 2759 1953 2759 1400 
L 2759 928 
Q 2759 909 2754 803 
Q 2750 697 2750 559 
Q 2750 341 2769 281 
Q 2784 241 2850 200 
Q 3150 159 3200 103 
L 3200 78 
Q 3200 47 3181 0 
L 3122 0 
L 2709 3 
L 2303 -3 
Q 2078 -9 1888 0 
L 1869 66 
Q 1869 84 1891 116 
Q 1975 153 2128 166 
Q 2219 172 2253 184 
Q 2288 197 2338 234 
Q 2375 309 2375 359 
Q 2375 381 2369 447 
Q 2359 591 2356 1163 
L 2356 1325 
L 2363 1575 
Q 2363 1978 2200 2131 
Q 2038 2284 1766 2284 
Q 1556 2284 1356 2192 
Q 1156 2100 969 1916 
Q 963 1766 963 1659 
L 972 969 
Q 972 428 988 306 
Q 994 256 1009 238 
Q 1034 213 1109 197 
Q 1184 181 1282 153 
Q 1381 125 1413 119 
Q 1475 103 1497 56 
L 1494 -6 
L 1166 -6 
L 491 3 
Q 256 -3 194 -3 
L 116 -3 
L 109 38 
Q 109 59 119 100 
z
" transform="scale(0.015625)"/>
        <path id="Garamond-2e" d="M 375 253 
Q 375 391 476 494 
Q 578 597 713 597 
Q 844 597 934 500 
Q 1025 403 1025 256 
Q 1025 109 929 9 
Q 834 -91 700 -91 
Q 569 -91 472 11 
Q 375 113 375 253 
z
" transform="scale(0.015625)"/>
       </defs>
       <use xlink:href="#Garamond-4a"/>
       <use xlink:href="#Garamond-61" x="30.224609"/>
       <use xlink:href="#Garamond-6e" x="70.849609"/>
       <use xlink:href="#Garamond-2e" x="121.875"/>
      </g>
     </g>
    </g>
    <g id="xtick_2">
     <g id="line2d_2">
      <g>
       <use xlink:href="#m5892b5d6ec" x="159.070406" y="339.84" style="stroke: #000000; stroke-width: 0.8"/>
      </g>
     </g>
     <g id="text_2">
      <!-- Feb. -->
      <g transform="translate(142.864156 359.818125) scale(0.2 -0.2)">
       <defs>
        <path id="Garamond-46" d="M 184 -47 
L 188 31 
Q 256 66 417 92 
Q 578 119 639 145 
Q 700 172 741 216 
Q 769 353 769 713 
L 725 3144 
L 734 3547 
Q 734 3672 689 3719 
Q 644 3766 453 3805 
Q 263 3844 228 3869 
Q 194 3894 194 3922 
Q 194 3938 203 3963 
Q 244 3988 288 3988 
Q 334 3988 478 3981 
L 566 3981 
Q 609 3981 813 3988 
L 1247 3988 
L 2144 4003 
L 3094 4041 
L 3178 4041 
L 3313 4044 
Q 3369 4044 3413 4013 
Q 3431 3963 3434 3941 
L 3431 3816 
L 3459 3256 
Q 3459 3222 3453 3169 
Q 3403 3147 3363 3147 
Q 3334 3147 3319 3166 
Q 3294 3200 3288 3297 
Q 3275 3431 3191 3644 
Q 3150 3744 3056 3781 
Q 2869 3853 2425 3853 
Q 2216 3853 2034 3842 
Q 1853 3831 1813 3831 
L 1569 3834 
Q 1419 3834 1322 3791 
Q 1256 3763 1256 3656 
L 1256 3609 
Q 1266 3450 1266 3256 
L 1256 2406 
Q 1256 2281 1275 2169 
L 1366 2163 
L 1541 2172 
L 2138 2172 
Q 2497 2172 2638 2222 
Q 2731 2256 2778 2325 
Q 2794 2347 2856 2572 
L 2897 2831 
Q 2934 2850 2953 2850 
Q 2969 2850 3003 2834 
Q 3016 2763 3019 2616 
L 3056 1466 
Q 3003 1444 2975 1444 
L 2941 1450 
Q 2891 1763 2784 1941 
Q 2747 2003 2700 2013 
Q 2619 2031 1956 2031 
Q 1750 2031 1672 2028 
Q 1484 2019 1447 2019 
L 1416 2019 
Q 1322 2019 1281 1994 
Q 1269 1956 1269 1941 
L 1269 1725 
Q 1269 1688 1272 1413 
L 1266 378 
Q 1266 334 1291 269 
Q 1356 216 1529 198 
Q 1703 181 1856 116 
Q 1944 75 1944 25 
Q 1944 3 1931 -15 
Q 1919 -34 1888 -44 
Q 1631 9 1178 9 
Q 938 9 669 -34 
Q 484 -63 247 -63 
L 184 -47 
z
" transform="scale(0.015625)"/>
        <path id="Garamond-65" d="M 2475 1650 
L 1222 1641 
L 984 1641 
Q 841 1641 691 1628 
Q 663 1534 663 1500 
L 666 1469 
L 666 1438 
L 663 1284 
Q 663 1094 783 817 
Q 903 541 1126 395 
Q 1350 250 1684 241 
Q 1863 250 1969 284 
Q 2075 319 2269 444 
L 2494 628 
L 2513 503 
Q 2513 481 2509 456 
Q 2369 278 2153 143 
Q 1938 9 1716 -53 
Q 1609 -81 1366 -81 
Q 1144 -81 928 9 
Q 609 147 426 451 
Q 244 756 244 1191 
Q 244 1328 295 1543 
Q 347 1759 481 2003 
Q 572 2169 703 2275 
Q 891 2425 1031 2484 
Q 1234 2569 1503 2569 
Q 1794 2569 1978 2463 
Q 2228 2322 2351 2100 
Q 2475 1878 2475 1694 
L 2475 1650 
z
M 731 1763 
L 878 1763 
Q 1038 1763 1828 1813 
Q 1953 1819 1981 1838 
Q 2038 1897 2038 1944 
Q 2038 2041 1975 2164 
Q 1913 2288 1783 2355 
Q 1653 2422 1481 2422 
Q 1119 2422 900 2150 
Q 731 1944 731 1763 
z
" transform="scale(0.015625)"/>
        <path id="Garamond-62" d="M 106 3928 
L 106 3944 
Q 106 3975 131 4031 
Q 472 4091 856 4213 
Q 878 4216 925 4216 
Q 941 4166 941 4150 
L 941 3219 
L 938 2922 
L 941 2591 
L 934 2322 
Q 934 2306 941 2216 
L 1197 2313 
Q 1238 2325 1466 2394 
Q 1756 2441 1803 2441 
Q 2116 2441 2366 2341 
Q 2519 2278 2669 2133 
Q 2819 1988 2891 1825 
Q 3016 1528 3016 1313 
Q 3016 972 2972 841 
Q 2866 528 2712 347 
Q 2559 166 2284 37 
Q 2009 -91 1700 -91 
Q 1416 -91 1162 15 
Q 909 122 878 122 
Q 781 122 631 -134 
L 541 -131 
Q 528 78 528 384 
L 534 850 
L 531 1088 
L 538 1769 
L 531 1900 
L 544 2222 
L 544 2497 
L 547 2609 
Q 547 2644 544 2881 
L 544 3069 
Q 553 3613 497 3697 
Q 406 3831 106 3928 
z
M 1591 81 
Q 2066 81 2314 348 
Q 2563 616 2563 1144 
Q 2563 1628 2281 1928 
Q 2000 2228 1588 2228 
Q 1288 2228 1084 2131 
Q 963 2072 948 2022 
Q 934 1972 934 1353 
Q 934 619 966 494 
Q 1019 300 1159 216 
Q 1381 81 1591 81 
z
" transform="scale(0.015625)"/>
       </defs>
       <use xlink:href="#Garamond-46"/>
       <use xlink:href="#Garamond-65" x="51.875"/>
       <use xlink:href="#Garamond-62" x="93.525391"/>
       <use xlink:href="#Garamond-2e" x="140.175781"/>
      </g>
     </g>
    </g>
    <g id="xtick_3">
     <g id="line2d_3">
      <g>
       <use xlink:href="#m5892b5d6ec" x="210.876983" y="339.84" style="stroke: #000000; stroke-width: 0.8"/>
      </g>
     </g>
     <g id="text_3">
      <!-- Mar. -->
      <g transform="translate(193.333233 359.818125) scale(0.2 -0.2)">
       <defs>
        <path id="Garamond-4d" d="M 44 72 
Q 141 138 394 166 
Q 591 175 628 200 
Q 653 219 666 247 
Q 713 363 734 875 
Q 763 1541 825 2647 
Q 875 3491 875 3700 
L 875 3781 
Q 650 3828 163 3881 
Q 131 3928 131 3953 
Q 131 3969 153 4009 
Q 206 4028 234 4028 
Q 259 4028 344 4016 
Q 497 3994 766 3994 
Q 853 3994 1066 4006 
Q 1216 4016 1234 4016 
Q 1284 4016 1350 4000 
Q 1381 3969 1397 3941 
L 1528 3647 
L 2413 1691 
L 2778 869 
Q 3213 1728 3453 2397 
Q 3469 2447 3491 2488 
Q 3519 2541 3544 2606 
Q 3569 2672 3747 3106 
Q 3819 3281 3863 3406 
Q 4041 3906 4072 3978 
Q 4131 4000 4175 4000 
Q 4225 4000 4303 3994 
Q 4478 3984 4872 3984 
Q 5116 3984 5272 3991 
Q 5278 3956 5278 3941 
Q 5278 3919 5269 3881 
Q 5169 3828 5028 3822 
Q 4750 3806 4675 3778 
Q 4600 3750 4579 3706 
Q 4559 3663 4544 3419 
L 4547 3275 
L 4544 3125 
Q 4544 2656 4569 1550 
L 4566 938 
L 4569 544 
Q 4569 313 4591 270 
Q 4613 228 4716 191 
Q 4884 134 5266 75 
Q 5288 59 5288 34 
Q 5288 6 5284 -28 
L 5141 -28 
Q 4956 -28 4740 -17 
Q 4525 -6 4509 -6 
Q 3869 -6 3659 -19 
Q 3531 -28 3497 -28 
Q 3475 -28 3450 -16 
L 3450 25 
Q 3450 53 3459 84 
Q 3563 128 3741 144 
Q 3938 197 4028 256 
Q 4056 375 4056 741 
L 4047 1372 
Q 4047 1475 4058 1756 
Q 4069 2038 4069 2672 
Q 4069 3175 4044 3434 
Q 3991 3325 3834 2959 
L 3788 2841 
L 3781 2822 
L 3319 1728 
L 3153 1306 
L 2938 794 
Q 2797 441 2697 169 
Q 2653 44 2625 -28 
L 2553 -25 
Q 2200 1006 1711 2090 
Q 1222 3175 1025 3522 
Q 1000 3388 969 2741 
Q 928 1953 928 1006 
Q 928 709 972 338 
Q 984 231 1062 179 
Q 1141 128 1466 122 
Q 1591 122 1703 103 
Q 1725 56 1725 34 
Q 1725 19 1709 -19 
L 738 16 
Q 631 16 406 0 
Q 281 -9 47 -13 
L 44 72 
z
" transform="scale(0.015625)"/>
        <path id="Garamond-72" d="M 128 -9 
L 116 31 
Q 116 53 144 97 
L 328 134 
L 588 181 
Q 619 197 631 225 
Q 650 266 650 466 
Q 650 1528 637 1692 
Q 625 1856 581 1900 
Q 538 1944 356 1969 
Q 250 1984 188 2009 
L 200 2103 
Q 528 2238 641 2334 
Q 797 2475 906 2703 
L 1013 2700 
Q 1031 2544 1031 2006 
L 1028 1953 
Q 1028 1934 1034 1894 
Q 1153 2109 1331 2291 
L 1403 2363 
Q 1447 2413 1488 2441 
Q 1706 2572 1813 2572 
Q 1950 2572 2037 2480 
Q 2125 2388 2125 2253 
Q 2125 2147 2063 2088 
Q 1978 2009 1869 2009 
Q 1819 2009 1672 2062 
Q 1525 2116 1478 2116 
Q 1391 2116 1356 2088 
Q 1269 2019 1144 1806 
Q 1047 1647 1047 1513 
L 1063 997 
L 1069 378 
Q 1078 272 1094 241 
Q 1106 219 1156 188 
Q 1494 159 1556 147 
Q 1600 144 1622 141 
Q 1756 138 1809 103 
Q 1838 88 1838 56 
Q 1838 38 1813 6 
L 1466 9 
L 1334 13 
L 1144 9 
L 825 9 
L 653 0 
L 128 -9 
z
" transform="scale(0.015625)"/>
       </defs>
       <use xlink:href="#Garamond-4d"/>
       <use xlink:href="#Garamond-61" x="83.349609"/>
       <use xlink:href="#Garamond-72" x="123.974609"/>
       <use xlink:href="#Garamond-2e" x="153.574219"/>
      </g>
     </g>
    </g>
    <g id="xtick_4">
     <g id="line2d_4">
      <g>
       <use xlink:href="#m5892b5d6ec" x="262.683559" y="339.84" style="stroke: #000000; stroke-width: 0.8"/>
      </g>
     </g>
     <g id="text_4">
      <!-- Apr. -->
      <g transform="translate(245.661684 359.955625) scale(0.2 -0.2)">
       <defs>
        <path id="Garamond-41" d="M -34 100 
Q 9 125 44 125 
L 116 125 
Q 138 125 191 128 
Q 431 150 475 172 
Q 584 231 663 378 
Q 825 697 1028 1281 
Q 1125 1559 1150 1619 
Q 1228 1806 1300 2013 
L 1594 2834 
Q 1663 3028 1925 3722 
Q 1991 3897 2084 4191 
L 2175 4197 
L 2284 4194 
Q 2419 3928 2522 3622 
Q 2578 3459 2706 3138 
L 3181 1853 
L 3434 1156 
Q 3634 563 3696 427 
Q 3759 291 3813 247 
Q 3828 234 3929 209 
Q 4031 184 4072 172 
Q 4216 131 4272 103 
Q 4284 69 4284 50 
Q 4284 34 4275 3 
Q 4175 0 4134 0 
Q 3975 0 3572 9 
L 3259 19 
L 2881 13 
Q 2844 13 2805 17 
Q 2766 22 2738 22 
L 2669 22 
Q 2634 25 2606 41 
Q 2606 84 2622 125 
Q 2659 144 2691 147 
L 3019 169 
Q 3147 175 3213 203 
Q 3231 259 3231 288 
Q 3231 344 3150 578 
Q 3094 734 3051 875 
Q 3009 1016 2719 1800 
Q 2591 1822 2494 1822 
L 1825 1816 
L 1628 1819 
Q 1522 1819 1394 1803 
Q 1353 1709 1341 1669 
L 1066 809 
Q 891 319 891 269 
Q 891 241 919 175 
Q 984 156 1094 141 
L 1519 103 
Q 1553 75 1553 53 
Q 1553 38 1544 6 
Q 1403 3 1328 3 
Q 1078 3 747 19 
Q 594 25 528 25 
Q 463 25 300 19 
Q 194 13 147 13 
Q 72 13 -47 22 
L -47 41 
Q -47 63 -34 100 
z
M 1456 1975 
Q 1791 1956 2219 1956 
Q 2463 1956 2647 1972 
Q 2616 2094 2575 2200 
Q 2372 2744 2350 2800 
L 2066 3522 
L 2034 3578 
Q 2016 3541 1897 3256 
Q 1697 2769 1609 2497 
Q 1569 2375 1525 2254 
Q 1481 2134 1470 2086 
Q 1459 2038 1438 1988 
L 1456 1975 
z
" transform="scale(0.015625)"/>
        <path id="Garamond-70" d="M 78 -1631 
Q 75 -1597 75 -1569 
Q 75 -1547 81 -1516 
L 394 -1453 
Q 469 -1416 516 -1363 
Q 531 -1306 531 -1250 
Q 531 -769 506 584 
L 497 1728 
Q 491 2000 463 2072 
Q 447 2109 416 2131 
Q 338 2191 103 2231 
L 122 2325 
Q 459 2469 573 2548 
Q 688 2628 791 2772 
L 828 2781 
Q 850 2781 891 2763 
Q 888 2566 888 2503 
L 891 2159 
Q 1122 2334 1372 2420 
Q 1622 2506 1891 2506 
Q 2372 2506 2703 2167 
Q 3034 1828 3034 1294 
Q 3034 897 2848 581 
Q 2663 266 2336 109 
Q 2009 -47 1678 -47 
Q 1397 -47 1034 106 
Q 975 131 928 150 
Q 922 -100 922 -294 
Q 922 -1259 975 -1375 
Q 1003 -1438 1150 -1450 
Q 1400 -1469 1481 -1522 
Q 1528 -1550 1544 -1634 
L 1234 -1641 
L 953 -1634 
L 484 -1638 
L 78 -1631 
z
M 894 1944 
Q 888 1900 888 1863 
Q 888 747 909 613 
Q 953 366 1084 266 
Q 1288 106 1666 106 
Q 2056 106 2325 376 
Q 2594 647 2594 1078 
Q 2594 1597 2309 1900 
Q 2025 2203 1559 2203 
Q 1363 2203 1197 2139 
Q 1031 2075 894 1944 
z
" transform="scale(0.015625)"/>
       </defs>
       <use xlink:href="#Garamond-41"/>
       <use xlink:href="#Garamond-70" x="67.724609"/>
       <use xlink:href="#Garamond-72" x="118.75"/>
       <use xlink:href="#Garamond-2e" x="148.349609"/>
      </g>
     </g>
    </g>
    <g id="xtick_5">
     <g id="line2d_5">
      <g>
       <use xlink:href="#m5892b5d6ec" x="314.490135" y="339.84" style="stroke: #000000; stroke-width: 0.8"/>
      </g>
     </g>
     <g id="text_5">
      <!-- May. -->
      <g transform="translate(296.702635 359.818125) scale(0.2 -0.2)">
       <defs>
        <path id="Garamond-79" d="M 38 2463 
Q 106 2469 153 2469 
L 303 2469 
L 506 2475 
L 772 2466 
L 988 2472 
Q 1159 2472 1297 2450 
Q 1309 2419 1309 2400 
L 1306 2375 
Q 1241 2344 1103 2331 
Q 909 2316 825 2263 
L 819 2228 
Q 819 2197 844 2134 
Q 859 2097 884 2022 
Q 953 1791 1181 1128 
Q 1347 650 1488 306 
Q 1575 494 1688 781 
L 1953 1522 
Q 2041 1766 2088 2009 
Q 2106 2106 2106 2163 
Q 2106 2209 2065 2250 
Q 2025 2291 1903 2319 
Q 1681 2375 1662 2389 
Q 1644 2403 1641 2450 
Q 1659 2466 1684 2475 
L 1878 2475 
L 2088 2472 
L 2400 2475 
L 2600 2472 
L 2650 2475 
Q 2672 2475 2722 2469 
Q 2753 2453 2753 2419 
Q 2753 2388 2725 2363 
L 2663 2353 
Q 2481 2328 2384 2259 
Q 2331 2222 2294 2103 
Q 2281 2059 2253 1991 
Q 2238 1953 2208 1865 
Q 2178 1778 2131 1659 
L 2094 1572 
L 2091 1556 
L 1559 156 
L 1172 -897 
Q 1134 -975 1084 -1091 
Q 966 -1313 944 -1334 
Q 850 -1450 781 -1497 
L 622 -1566 
Q 575 -1578 522 -1578 
Q 381 -1578 315 -1517 
Q 250 -1456 250 -1350 
Q 250 -1250 347 -1169 
Q 378 -1159 409 -1144 
L 450 -1134 
Q 728 -1184 797 -1184 
Q 863 -1150 894 -1103 
Q 1047 -875 1156 -594 
Q 1266 -313 1266 -216 
Q 1266 -109 1184 94 
L 838 1013 
Q 766 1191 409 2175 
Q 388 2238 353 2269 
L 141 2347 
L 75 2359 
Q 22 2381 22 2422 
L 38 2463 
z
" transform="scale(0.015625)"/>
       </defs>
       <use xlink:href="#Garamond-4d"/>
       <use xlink:href="#Garamond-61" x="83.349609"/>
       <use xlink:href="#Garamond-79" x="122.599609"/>
       <use xlink:href="#Garamond-2e" x="156"/>
      </g>
     </g>
    </g>
    <g id="xtick_6">
     <g id="line2d_6">
      <g>
       <use xlink:href="#m5892b5d6ec" x="366.296712" y="339.84" style="stroke: #000000; stroke-width: 0.8"/>
      </g>
     </g>
     <g id="text_6">
      <!-- Jun. -->
      <g transform="translate(351.024837 359.818125) scale(0.2 -0.2)">
       <defs>
        <path id="Garamond-75" d="M 103 2453 
L 338 2453 
L 441 2447 
L 522 2453 
Q 844 2453 922 2447 
L 925 2388 
Q 925 1947 913 1534 
Q 903 1291 903 1256 
Q 903 706 939 568 
Q 975 431 1108 348 
Q 1241 266 1428 266 
Q 1656 266 1864 361 
Q 2072 456 2219 594 
Q 2234 713 2234 856 
Q 2234 1322 2244 1484 
Q 2247 1581 2247 1653 
Q 2247 2159 2197 2225 
Q 2147 2291 1816 2325 
Q 1706 2338 1656 2347 
Q 1631 2388 1631 2409 
L 1641 2444 
Q 1722 2453 1800 2453 
L 2297 2447 
Q 2563 2453 2578 2453 
Q 2613 2453 2644 2450 
L 2650 2222 
Q 2628 1747 2625 1047 
L 2619 794 
L 2631 369 
Q 2659 319 2681 309 
Q 2719 294 2834 294 
L 2863 294 
Q 2903 294 3094 275 
Q 3097 234 3097 216 
L 3097 181 
Q 2678 91 2419 0 
Q 2316 -34 2244 -50 
Q 2228 59 2228 84 
L 2228 338 
Q 2228 353 2225 422 
Q 2184 394 2131 353 
Q 1884 163 1609 31 
Q 1425 -59 1253 -59 
Q 925 -59 719 184 
Q 509 428 509 1016 
Q 509 1047 513 1128 
Q 525 1278 525 1338 
Q 525 1359 522 1475 
Q 519 1525 519 1563 
Q 519 1591 522 1689 
Q 525 1788 525 1828 
Q 525 1881 522 1922 
L 516 2088 
L 519 2175 
Q 519 2225 469 2266 
Q 272 2319 211 2326 
Q 150 2334 103 2353 
L 103 2453 
z
" transform="scale(0.015625)"/>
       </defs>
       <use xlink:href="#Garamond-4a"/>
       <use xlink:href="#Garamond-75" x="30.849609"/>
       <use xlink:href="#Garamond-6e" x="79.824219"/>
       <use xlink:href="#Garamond-2e" x="130.849609"/>
      </g>
     </g>
    </g>
    <g id="xtick_7">
     <g id="line2d_7">
      <g>
       <use xlink:href="#m5892b5d6ec" x="418.103288" y="339.84" style="stroke: #000000; stroke-width: 0.8"/>
      </g>
     </g>
     <g id="text_7">
      <!-- Jul. -->
      <g transform="translate(405.643913 359.818125) scale(0.2 -0.2)">
       <defs>
        <path id="Garamond-6c" d="M 163 3872 
L 163 3941 
Q 250 3969 356 4000 
Q 513 4050 819 4153 
L 966 4153 
Q 969 4003 969 3981 
Q 969 1416 953 922 
Q 944 631 944 613 
Q 944 263 972 222 
Q 1009 166 1201 144 
Q 1394 122 1428 100 
Q 1453 88 1453 56 
Q 1453 22 1439 8 
Q 1425 -6 1388 -6 
Q 1366 -6 1059 3 
L 650 16 
L 125 -6 
Q 75 -9 50 13 
Q 31 28 31 56 
Q 31 88 51 102 
Q 72 116 276 150 
Q 481 184 511 207 
Q 541 231 550 313 
Q 563 425 563 947 
L 559 1666 
L 569 2409 
L 566 3153 
L 575 3519 
Q 575 3628 540 3676 
Q 506 3725 394 3772 
Q 225 3841 163 3872 
z
" transform="scale(0.015625)"/>
       </defs>
       <use xlink:href="#Garamond-4a"/>
       <use xlink:href="#Garamond-75" x="30.849609"/>
       <use xlink:href="#Garamond-6c" x="79.824219"/>
       <use xlink:href="#Garamond-2e" x="102.724609"/>
      </g>
     </g>
    </g>
    <g id="xtick_8">
     <g id="line2d_8">
      <g>
       <use xlink:href="#m5892b5d6ec" x="469.909865" y="339.84" style="stroke: #000000; stroke-width: 0.8"/>
      </g>
     </g>
     <g id="text_8">
      <!-- Aug. -->
      <g transform="translate(452.20049 359.955625) scale(0.2 -0.2)">
       <defs>
        <path id="Garamond-67" d="M 844 -206 
Q 806 -188 603 -103 
Q 366 50 303 125 
Q 241 200 241 291 
Q 241 372 288 422 
Q 356 494 559 559 
Q 763 625 894 688 
Q 853 716 766 769 
Q 300 1056 300 1566 
Q 300 1984 595 2273 
Q 891 2563 1353 2563 
Q 1563 2563 1738 2503 
Q 1838 2472 2034 2347 
Q 2159 2269 2181 2259 
Q 2231 2244 2294 2244 
Q 2347 2244 2551 2270 
Q 2756 2297 2794 2297 
Q 2866 2297 2913 2269 
Q 2950 2206 2950 2059 
Q 2950 2009 2923 1984 
Q 2897 1959 2847 1959 
Q 2759 1959 2557 2014 
Q 2356 2069 2313 2069 
Q 2297 2069 2253 2063 
Q 2388 1794 2388 1572 
Q 2388 1350 2247 1112 
Q 2106 875 1859 750 
Q 1613 625 1359 625 
Q 1341 625 1253 628 
Q 966 628 725 484 
Q 609 413 609 350 
Q 609 284 722 222 
Q 1019 63 1847 38 
Q 2206 25 2406 -65 
Q 2606 -156 2707 -332 
Q 2809 -509 2809 -697 
Q 2809 -950 2637 -1165 
Q 2466 -1381 2116 -1515 
Q 1766 -1650 1313 -1650 
Q 813 -1650 541 -1528 
Q 269 -1406 155 -1262 
Q 41 -1119 41 -978 
Q 41 -856 166 -673 
Q 291 -491 684 -291 
Q 800 -231 844 -206 
z
M 719 1578 
Q 719 1297 803 1108 
Q 888 919 1034 826 
Q 1181 734 1331 734 
Q 1603 734 1783 942 
Q 1963 1150 1963 1575 
Q 1963 2003 1775 2226 
Q 1588 2450 1322 2450 
Q 1025 2450 872 2237 
Q 719 2025 719 1578 
z
M 616 -1316 
Q 900 -1534 1334 -1534 
Q 1644 -1534 1951 -1436 
Q 2259 -1338 2401 -1155 
Q 2544 -972 2544 -809 
Q 2544 -709 2494 -611 
Q 2444 -513 2358 -448 
Q 2272 -384 2131 -347 
Q 2031 -319 1847 -306 
Q 1322 -266 1203 -266 
Q 869 -266 606 -491 
Q 403 -666 403 -909 
Q 403 -1134 616 -1316 
z
" transform="scale(0.015625)"/>
       </defs>
       <use xlink:href="#Garamond-41"/>
       <use xlink:href="#Garamond-75" x="65.849609"/>
       <use xlink:href="#Garamond-67" x="114.824219"/>
       <use xlink:href="#Garamond-2e" x="155.224609"/>
      </g>
     </g>
    </g>
    <g id="xtick_9">
     <g id="line2d_9">
      <g>
       <use xlink:href="#m5892b5d6ec" x="521.716441" y="339.84" style="stroke: #000000; stroke-width: 0.8"/>
      </g>
     </g>
     <g id="text_9">
      <!-- Sep. -->
      <g transform="translate(505.769566 359.818125) scale(0.2 -0.2)">
       <defs>
        <path id="Garamond-53" d="M 2484 3856 
Q 2509 3650 2509 3619 
L 2497 3341 
Q 2491 3163 2481 3113 
Q 2453 3100 2434 3100 
L 2406 3106 
Q 2306 3544 2067 3744 
Q 1828 3944 1484 3944 
Q 1128 3944 900 3744 
Q 672 3544 672 3278 
Q 672 3075 831 2906 
Q 991 2738 1647 2400 
Q 2147 2141 2362 1977 
Q 2578 1813 2687 1597 
Q 2797 1381 2797 1116 
Q 2797 781 2623 487 
Q 2450 194 2156 45 
Q 1863 -103 1378 -103 
Q 956 -103 569 31 
Q 341 113 291 163 
Q 241 213 241 269 
Q 241 303 247 356 
Q 291 725 294 963 
Q 300 1109 316 1134 
Q 328 1156 363 1156 
Q 391 1156 408 1136 
Q 425 1116 431 1059 
Q 466 675 788 372 
Q 1106 69 1509 69 
Q 1756 69 1964 172 
Q 2172 275 2289 470 
Q 2406 666 2406 850 
Q 2406 1103 2228 1313 
Q 2050 1522 1512 1801 
Q 975 2081 813 2209 
Q 550 2419 419 2653 
Q 322 2834 322 3075 
Q 322 3509 665 3811 
Q 1009 4113 1588 4113 
Q 1906 4113 2138 4041 
Q 2306 3984 2484 3856 
z
" transform="scale(0.015625)"/>
       </defs>
       <use xlink:href="#Garamond-53"/>
       <use xlink:href="#Garamond-65" x="47.900391"/>
       <use xlink:href="#Garamond-70" x="90.800781"/>
       <use xlink:href="#Garamond-2e" x="137.576172"/>
      </g>
     </g>
    </g>
    <g id="xtick_10">
     <g id="line2d_10">
      <g>
       <use xlink:href="#m5892b5d6ec" x="573.523017" y="339.84" style="stroke: #000000; stroke-width: 0.8"/>
      </g>
     </g>
     <g id="text_10">
      <!-- Oct. -->
      <g transform="translate(556.441767 359.818125) scale(0.2 -0.2)">
       <defs>
        <path id="Garamond-4f" d="M 294 1997 
Q 294 2316 370 2564 
Q 447 2813 628 3103 
Q 809 3394 1065 3589 
Q 1322 3784 1775 3934 
Q 2094 4038 2581 4038 
Q 2909 4038 3223 3950 
Q 3538 3863 3794 3706 
Q 4050 3550 4306 3225 
Q 4484 3000 4575 2741 
Q 4694 2400 4694 2038 
Q 4694 1625 4614 1353 
Q 4534 1081 4347 816 
Q 4200 609 3844 341 
Q 3606 159 3253 48 
Q 2900 -63 2491 -63 
Q 2075 -63 1750 34 
Q 1425 131 1208 270 
Q 991 409 761 681 
Q 531 953 412 1281 
Q 294 1609 294 1997 
z
M 2463 53 
Q 2725 53 3008 126 
Q 3291 200 3509 370 
Q 3728 541 3851 758 
Q 3975 975 4050 1315 
Q 4125 1656 4125 1997 
Q 4125 2422 4000 2838 
Q 3903 3153 3684 3401 
Q 3466 3650 3156 3786 
Q 2847 3922 2497 3922 
Q 2213 3922 1941 3828 
Q 1669 3734 1494 3589 
Q 1319 3444 1169 3176 
Q 1019 2909 941 2587 
Q 863 2266 863 2019 
Q 863 1759 941 1431 
Q 1019 1103 1155 862 
Q 1291 622 1489 436 
Q 1688 250 1934 151 
Q 2181 53 2463 53 
z
" transform="scale(0.015625)"/>
        <path id="Garamond-63" d="M 2497 572 
L 2500 369 
Q 2256 109 2018 6 
Q 1781 -97 1459 -97 
Q 1109 -97 828 86 
Q 547 269 395 603 
Q 244 938 244 1259 
Q 244 1613 426 1927 
Q 609 2241 911 2395 
Q 1213 2550 1669 2550 
Q 2106 2550 2334 2400 
Q 2463 2313 2463 2175 
Q 2463 2075 2397 2009 
Q 2331 1944 2228 1944 
Q 2072 1944 1884 2138 
Q 1769 2256 1675 2301 
Q 1581 2347 1466 2347 
Q 1188 2347 1003 2119 
Q 747 1794 747 1303 
Q 747 797 1009 497 
Q 1272 197 1622 197 
Q 1866 197 2055 276 
Q 2244 356 2497 572 
z
" transform="scale(0.015625)"/>
        <path id="Garamond-74" d="M 894 3088 
L 991 3084 
L 1003 2788 
L 997 2403 
Q 1056 2400 1072 2400 
Q 1153 2400 1381 2413 
Q 1528 2422 1663 2422 
Q 1725 2422 1850 2419 
Q 1856 2356 1856 2319 
Q 1856 2278 1838 2191 
L 1784 2191 
L 1300 2175 
L 1059 2169 
L 1003 2163 
Q 978 2084 978 1981 
L 988 1513 
L 981 688 
Q 981 363 1066 256 
Q 1147 147 1309 147 
Q 1391 147 1616 197 
Q 1684 213 1800 300 
L 1828 300 
Q 1856 300 1873 283 
Q 1891 266 1891 238 
L 1888 216 
Q 1753 69 1579 1 
Q 1406 -66 1119 -66 
Q 916 -66 783 28 
Q 650 122 612 250 
Q 575 378 575 809 
L 588 1513 
L 584 1850 
L 584 1975 
Q 584 2063 578 2150 
L 525 2153 
L 269 2144 
L 244 2141 
Q 209 2141 192 2156 
Q 175 2172 175 2194 
Q 175 2231 198 2254 
Q 222 2278 341 2328 
Q 422 2363 530 2458 
Q 638 2553 713 2669 
Q 750 2731 819 2906 
Q 869 3034 894 3088 
z
" transform="scale(0.015625)"/>
       </defs>
       <use xlink:href="#Garamond-4f"/>
       <use xlink:href="#Garamond-63" x="78.125"/>
       <use xlink:href="#Garamond-74" x="119.775391"/>
       <use xlink:href="#Garamond-2e" x="148.925781"/>
      </g>
     </g>
    </g>
    <g id="xtick_11">
     <g id="line2d_11">
      <g>
       <use xlink:href="#m5892b5d6ec" x="625.329594" y="339.84" style="stroke: #000000; stroke-width: 0.8"/>
      </g>
     </g>
     <g id="text_11">
      <!-- Nov. -->
      <g transform="translate(606.904594 359.818125) scale(0.2 -0.2)">
       <defs>
        <path id="Garamond-4e" d="M 84 3822 
L 81 3972 
Q 566 3972 791 3997 
Q 878 4006 913 4006 
Q 941 4006 997 4003 
Q 1128 3894 1241 3753 
Q 1266 3725 1297 3691 
L 1956 2963 
L 2050 2850 
Q 2250 2616 2414 2450 
Q 2578 2284 3053 1759 
L 3800 931 
Q 3909 809 4081 628 
L 4084 678 
Q 4066 1113 4066 1138 
L 4078 1325 
L 4072 1619 
L 4072 1753 
Q 4072 1881 4050 2544 
Q 4047 2634 4025 2886 
Q 4003 3138 4003 3328 
Q 4003 3672 3963 3728 
Q 3934 3769 3697 3813 
Q 3641 3816 3522 3831 
Q 3381 3838 3356 3847 
Q 3331 3856 3306 3900 
Q 3313 3950 3334 3994 
Q 3419 4019 3500 4019 
Q 3588 4019 3717 3997 
Q 3847 3975 3950 3975 
Q 4094 3975 4397 3994 
Q 4569 4006 4634 4006 
L 4688 4006 
L 4681 3909 
Q 4631 3888 4543 3883 
Q 4456 3878 4381 3856 
Q 4269 3822 4247 3797 
Q 4172 3716 4172 3631 
L 4206 2644 
L 4231 2191 
L 4228 2059 
L 4247 1431 
Q 4266 788 4266 313 
Q 4266 209 4253 -134 
L 4106 -147 
Q 3997 -22 3353 641 
Q 3203 794 3150 856 
L 2881 1166 
Q 2725 1338 2678 1384 
Q 2631 1431 2609 1453 
Q 2269 1841 1725 2422 
Q 1578 2578 1294 2909 
Q 1116 3119 1069 3166 
Q 1022 3213 941 3272 
L 931 3166 
Q 931 2556 963 1484 
L 984 450 
Q 988 319 1000 197 
L 1109 172 
Q 1406 144 1694 88 
Q 1716 69 1731 59 
L 1728 -59 
Q 1678 -75 1647 -75 
Q 1613 -75 1563 -69 
Q 1253 -44 809 -44 
Q 497 -44 259 -59 
L 216 -63 
Q 188 -63 134 -56 
L 131 38 
L 213 75 
L 359 97 
Q 556 125 647 159 
Q 706 181 744 225 
Q 778 441 778 856 
Q 778 1050 769 1566 
L 769 1991 
L 763 2878 
Q 756 3472 722 3578 
Q 703 3634 644 3678 
Q 525 3763 333 3784 
Q 141 3806 84 3822 
z
" transform="scale(0.015625)"/>
        <path id="Garamond-6f" d="M 228 1256 
Q 228 1469 317 1711 
Q 406 1953 587 2145 
Q 769 2338 972 2431 
Q 1256 2563 1666 2563 
Q 2250 2563 2642 2163 
Q 3034 1763 3034 1200 
Q 3034 700 2623 308 
Q 2213 -84 1584 -84 
Q 1197 -84 853 119 
Q 597 272 412 572 
Q 228 872 228 1256 
z
M 1609 38 
Q 1847 38 2067 166 
Q 2288 294 2419 576 
Q 2550 859 2550 1231 
Q 2550 1475 2448 1797 
Q 2347 2119 2136 2280 
Q 1925 2441 1641 2441 
Q 1434 2441 1220 2344 
Q 1006 2247 857 1972 
Q 709 1697 709 1191 
Q 709 622 967 330 
Q 1225 38 1609 38 
z
" transform="scale(0.015625)"/>
        <path id="Garamond-76" d="M -34 2481 
Q 313 2478 572 2459 
Q 756 2459 841 2466 
Q 900 2469 916 2469 
L 1266 2466 
Q 1338 2453 1381 2450 
Q 1400 2444 1416 2416 
Q 1416 2384 1397 2350 
Q 1344 2334 1288 2331 
Q 1053 2306 894 2259 
Q 872 2244 872 2228 
Q 872 2197 903 2131 
Q 909 2116 931 2056 
L 1244 1306 
Q 1453 791 1631 438 
Q 1753 669 1856 916 
Q 1959 1163 2159 1694 
Q 2216 1844 2266 2066 
Q 2275 2109 2275 2141 
Q 2275 2178 2233 2223 
Q 2191 2269 2091 2297 
Q 2069 2300 1806 2344 
Q 1784 2356 1766 2378 
L 1766 2403 
Q 1766 2419 1769 2444 
Q 1844 2453 1878 2453 
L 2247 2450 
Q 2284 2450 2425 2459 
Q 2922 2459 3022 2450 
Q 3041 2444 3056 2413 
Q 3056 2384 3038 2350 
L 2941 2325 
Q 2903 2322 2881 2319 
Q 2613 2294 2550 2244 
Q 2503 2209 2403 1922 
Q 2356 1781 2266 1566 
L 2103 1172 
Q 2069 1088 2028 988 
L 1544 -131 
L 1450 -131 
Q 1422 -56 1381 25 
L 1144 528 
L 584 1838 
Q 416 2219 381 2250 
Q 347 2281 -19 2381 
Q -38 2431 -38 2453 
L -34 2481 
z
" transform="scale(0.015625)"/>
       </defs>
       <use xlink:href="#Garamond-4e"/>
       <use xlink:href="#Garamond-6f" x="77.099609"/>
       <use xlink:href="#Garamond-76" x="126.75"/>
       <use xlink:href="#Garamond-2e" x="162.375"/>
      </g>
     </g>
    </g>
    <g id="xtick_12">
     <g id="line2d_12">
      <g>
       <use xlink:href="#m5892b5d6ec" x="677.13617" y="339.84" style="stroke: #000000; stroke-width: 0.8"/>
      </g>
     </g>
     <g id="text_12">
      <!-- Dec. -->
      <g transform="translate(659.158045 359.818125) scale(0.2 -0.2)">
       <defs>
        <path id="Garamond-44" d="M 75 63 
Q 191 113 344 128 
Q 566 153 675 234 
Q 759 406 759 1109 
L 759 1603 
L 766 1900 
L 759 2119 
L 766 2522 
L 756 3538 
Q 756 3709 706 3763 
Q 634 3841 325 3906 
Q 197 3934 169 3957 
Q 141 3981 134 4047 
Q 206 4063 234 4063 
L 456 4063 
L 572 4066 
Q 688 4066 828 4041 
Q 1116 4022 1419 4022 
Q 1506 4022 1669 4031 
Q 2100 4056 2288 4056 
Q 2666 4056 3002 3981 
Q 3338 3906 3694 3703 
Q 3916 3575 4148 3298 
Q 4381 3022 4501 2695 
Q 4622 2369 4622 1959 
Q 4622 1594 4489 1234 
Q 4356 875 4118 611 
Q 3881 347 3637 214 
Q 3394 81 2894 -16 
Q 2688 -53 2153 -53 
Q 1800 -53 1578 -31 
Q 1491 -19 1391 -19 
Q 1375 -19 1356 -22 
L 81 -44 
L 75 -19 
Q 69 -3 69 16 
L 75 63 
z
M 1666 184 
Q 1903 103 2147 103 
Q 2463 103 2766 201 
Q 3069 300 3301 479 
Q 3534 659 3684 886 
Q 3834 1113 3897 1294 
Q 3984 1559 3984 1984 
Q 3984 2391 3813 2809 
Q 3694 3100 3395 3365 
Q 3097 3631 2690 3754 
Q 2284 3878 1813 3878 
Q 1488 3878 1331 3806 
Q 1313 3788 1294 3763 
Q 1275 3684 1275 3619 
Q 1275 3578 1278 3522 
Q 1288 3159 1288 2941 
L 1284 2231 
Q 1284 669 1342 492 
Q 1400 316 1666 184 
z
" transform="scale(0.015625)"/>
       </defs>
       <use xlink:href="#Garamond-44"/>
       <use xlink:href="#Garamond-65" x="77.099609"/>
       <use xlink:href="#Garamond-63" x="118.75"/>
       <use xlink:href="#Garamond-2e" x="157.900391"/>
      </g>
     </g>
    </g>
    <g id="text_13">
     <!-- Month -->
     <g transform="translate(365.640625 382.09) scale(0.2 -0.2)">
      <defs>
       <path id="Garamond-68" d="M 119 75 
Q 484 141 541 175 
Q 575 197 575 275 
L 572 481 
L 575 847 
L 569 1778 
L 572 2125 
L 572 2372 
L 581 2675 
Q 581 3388 567 3527 
Q 553 3666 513 3700 
Q 438 3772 100 3850 
L 100 3866 
Q 100 3888 106 3928 
Q 150 3934 190 3943 
Q 231 3953 269 3956 
Q 641 4063 809 4163 
L 963 4163 
Q 969 4075 969 3609 
L 966 3213 
L 969 2700 
L 956 2069 
Q 956 2013 963 1944 
Q 1159 2172 1250 2247 
Q 1413 2378 1597 2454 
Q 1781 2531 1984 2531 
Q 2369 2531 2613 2206 
Q 2753 2016 2753 1666 
L 2744 1347 
L 2747 1169 
L 2734 859 
Q 2722 475 2722 403 
Q 2722 322 2728 184 
L 2906 144 
Q 3084 106 3181 75 
L 3178 -22 
L 2513 -3 
Q 2456 -3 2206 -16 
Q 2053 -22 2028 -22 
L 1959 -22 
Q 1944 6 1944 25 
L 1944 53 
Q 1988 109 2106 128 
L 2294 172 
Q 2331 203 2338 238 
Q 2350 319 2366 1044 
L 2372 1275 
Q 2384 1641 2316 1881 
Q 2272 2047 2117 2145 
Q 1963 2244 1759 2244 
Q 1591 2244 1441 2172 
Q 1338 2119 1194 1987 
Q 1050 1856 994 1763 
Q 956 1700 956 1556 
L 959 1338 
L 953 1109 
Q 953 1081 963 719 
L 959 519 
L 966 300 
Q 969 253 975 231 
L 1416 125 
Q 1450 116 1519 88 
L 1528 53 
Q 1528 38 1513 3 
Q 1422 0 1375 0 
L 1131 3 
L 594 -3 
L 191 -16 
Q 159 -13 97 -9 
L 94 13 
Q 94 38 119 75 
z
" transform="scale(0.015625)"/>
      </defs>
      <use xlink:href="#Garamond-4d"/>
      <use xlink:href="#Garamond-6f" x="83.349609"/>
      <use xlink:href="#Garamond-6e" x="134.375"/>
      <use xlink:href="#Garamond-74" x="185.400391"/>
      <use xlink:href="#Garamond-68" x="214.550781"/>
     </g>
    </g>
   </g>
   <g id="matplotlib.axis_2">
    <g id="ytick_1">
     <g id="line2d_13">
      <defs>
       <path id="m45477f2da5" d="M 0 0 
L -3.5 0 
" style="stroke: #000000; stroke-width: 0.8"/>
      </defs>
      <g>
       <use xlink:href="#m45477f2da5" x="57.4" y="339.84" style="stroke: #000000; stroke-width: 0.8"/>
      </g>
     </g>
     <g id="text_14">
      <!-- 0 -->
      <g transform="translate(43.36875 344.706797) scale(0.15 -0.15)">
       <defs>
        <path id="Garamond-30" d="M 2800 1972 
Q 2800 1650 2753 1400 
Q 2669 969 2519 678 
Q 2369 388 2163 188 
Q 2013 41 1844 -26 
Q 1675 -94 1500 -94 
Q 1191 -94 914 112 
Q 638 319 431 794 
Q 225 1269 225 1913 
Q 225 2416 350 2878 
Q 475 3341 679 3595 
Q 884 3850 1086 3962 
Q 1288 4075 1525 4075 
Q 1859 4075 2173 3812 
Q 2488 3550 2675 2997 
Q 2800 2625 2800 1972 
z
M 2331 2075 
Q 2328 2844 2275 3119 
Q 2188 3572 1989 3753 
Q 1791 3934 1525 3934 
Q 1303 3934 1104 3790 
Q 906 3647 831 3341 
Q 703 2844 703 1834 
Q 703 834 901 436 
Q 1100 38 1497 38 
Q 1769 38 1967 206 
Q 2166 375 2252 833 
Q 2338 1291 2334 1859 
L 2331 2075 
z
" transform="scale(0.015625)"/>
       </defs>
       <use xlink:href="#Garamond-30"/>
      </g>
     </g>
    </g>
    <g id="ytick_2">
     <g id="line2d_14">
      <g>
       <use xlink:href="#m45477f2da5" x="57.4" y="296.625379" style="stroke: #000000; stroke-width: 0.8"/>
      </g>
     </g>
     <g id="text_15">
      <!-- 25 -->
      <g transform="translate(36.3375 301.492176) scale(0.15 -0.15)">
       <defs>
        <path id="Garamond-32" d="M 2728 6 
Q 2259 25 1472 25 
L 794 6 
L 491 16 
L 250 6 
Q 213 9 141 22 
Q 197 153 284 263 
Q 544 581 1044 1084 
Q 1744 1788 1966 2189 
Q 2188 2591 2188 2944 
Q 2188 3275 1963 3500 
Q 1738 3725 1409 3725 
Q 1213 3725 1028 3633 
Q 844 3541 731 3400 
Q 659 3309 541 3038 
Q 475 2888 463 2875 
Q 444 2853 419 2853 
Q 394 2853 370 2879 
Q 347 2906 347 2947 
Q 347 3088 489 3397 
Q 631 3706 907 3881 
Q 1184 4056 1550 4056 
Q 2028 4056 2348 3745 
Q 2669 3434 2669 3003 
Q 2669 2663 2450 2311 
Q 2231 1959 1444 1234 
Q 1184 997 1075 884 
Q 966 772 634 397 
Q 1113 378 1503 378 
Q 1588 378 1688 384 
Q 1872 391 1903 391 
L 2338 381 
Q 2409 381 2484 450 
Q 2559 519 2688 838 
L 2763 841 
Q 2778 841 2809 838 
Q 2825 806 2825 791 
L 2819 766 
Q 2794 675 2775 434 
Q 2763 294 2728 6 
z
" transform="scale(0.015625)"/>
        <path id="Garamond-35" d="M 2369 3606 
Q 2019 3578 1803 3578 
Q 1644 3578 1466 3588 
Q 1369 3594 1350 3594 
Q 969 3594 941 3578 
Q 928 3572 925 3550 
Q 916 3500 844 2434 
Q 984 2506 1115 2536 
Q 1247 2566 1463 2566 
Q 1616 2566 1675 2547 
Q 1972 2450 2103 2372 
Q 2284 2259 2398 2115 
Q 2513 1972 2609 1694 
Q 2678 1494 2678 1275 
Q 2678 1038 2611 833 
Q 2544 628 2444 490 
Q 2344 353 2147 204 
Q 1950 56 1683 -22 
Q 1416 -100 1325 -103 
L 872 -63 
Q 684 -31 543 39 
Q 403 109 356 175 
Q 328 216 328 281 
Q 328 331 398 390 
Q 469 450 572 450 
Q 619 450 675 422 
L 922 263 
Q 1006 188 1131 122 
Q 1150 113 1225 100 
Q 1406 75 1422 75 
Q 1491 75 1656 131 
Q 1822 188 1962 323 
Q 2103 459 2204 667 
Q 2306 875 2306 1128 
Q 2306 1581 2022 1875 
Q 1738 2169 1338 2169 
Q 1159 2169 1007 2109 
Q 856 2050 803 1978 
L 756 1959 
Q 719 1944 703 1944 
L 663 1953 
Q 653 2009 653 2038 
Q 653 2063 663 2125 
Q 684 2278 686 2442 
Q 688 2606 719 2738 
L 709 2888 
Q 731 3003 734 3109 
Q 744 3828 794 3934 
Q 816 3984 869 3984 
Q 891 3984 941 3978 
L 959 3975 
L 1356 3978 
Q 1625 3963 1753 3963 
Q 2047 3963 2225 4003 
Q 2313 4084 2359 4084 
Q 2378 4084 2428 4078 
L 2438 4041 
L 2413 3909 
L 2397 3700 
Q 2394 3678 2369 3606 
z
" transform="scale(0.015625)"/>
       </defs>
       <use xlink:href="#Garamond-32"/>
       <use xlink:href="#Garamond-35" x="46.875"/>
      </g>
     </g>
    </g>
    <g id="ytick_3">
     <g id="line2d_15">
      <g>
       <use xlink:href="#m45477f2da5" x="57.4" y="253.410758" style="stroke: #000000; stroke-width: 0.8"/>
      </g>
     </g>
     <g id="text_16">
      <!-- 50 -->
      <g transform="translate(36.3375 258.277554) scale(0.15 -0.15)">
       <use xlink:href="#Garamond-35"/>
       <use xlink:href="#Garamond-30" x="46.875"/>
      </g>
     </g>
    </g>
    <g id="ytick_4">
     <g id="line2d_16">
      <g>
       <use xlink:href="#m45477f2da5" x="57.4" y="210.196136" style="stroke: #000000; stroke-width: 0.8"/>
      </g>
     </g>
     <g id="text_17">
      <!-- 75 -->
      <g transform="translate(36.3375 215.062933) scale(0.15 -0.15)">
       <defs>
        <path id="Garamond-37" d="M 341 3950 
Q 725 3966 1378 3966 
Q 1675 3966 2056 3956 
Q 2288 3947 2359 3947 
L 2663 3950 
L 2734 3950 
Q 2759 3925 2759 3903 
Q 2759 3866 2688 3722 
Q 2653 3659 2384 3038 
Q 2253 2731 2063 2234 
L 1669 1125 
Q 1528 744 1488 594 
L 1416 303 
Q 1372 175 1372 116 
Q 1372 69 1425 -31 
Q 1388 -81 1256 -81 
Q 1197 -81 1144 -31 
Q 1163 153 1263 456 
Q 1300 566 1390 887 
Q 1481 1209 1569 1456 
L 1925 2425 
Q 2078 2838 2222 3184 
Q 2272 3300 2297 3347 
Q 2363 3463 2363 3538 
L 2322 3534 
L 2288 3534 
L 1875 3547 
Q 1856 3547 1743 3540 
Q 1631 3534 1575 3534 
L 1091 3538 
L 944 3538 
L 738 3544 
Q 556 3547 511 3501 
Q 466 3456 459 3269 
Q 456 3222 434 3178 
Q 400 3169 384 3169 
Q 350 3169 294 3194 
Q 297 3272 297 3309 
L 303 3403 
L 294 3575 
Q 294 3800 306 3878 
Q 313 3909 341 3950 
z
" transform="scale(0.015625)"/>
       </defs>
       <use xlink:href="#Garamond-37"/>
       <use xlink:href="#Garamond-35" x="46.875"/>
      </g>
     </g>
    </g>
    <g id="ytick_5">
     <g id="line2d_17">
      <g>
       <use xlink:href="#m45477f2da5" x="57.4" y="166.981515" style="stroke: #000000; stroke-width: 0.8"/>
      </g>
     </g>
     <g id="text_18">
      <!-- 100 -->
      <g transform="translate(29.30625 171.848312) scale(0.15 -0.15)">
       <defs>
        <path id="Garamond-31" d="M 2269 6 
L 838 6 
Q 834 34 834 53 
Q 834 106 856 126 
Q 878 147 994 169 
Q 1175 206 1288 259 
Q 1319 328 1319 388 
L 1319 581 
Q 1319 616 1328 897 
Q 1331 1003 1334 1816 
L 1341 2550 
L 1334 2978 
Q 1334 3072 1341 3569 
Q 631 3063 563 3063 
Q 538 3063 509 3089 
Q 481 3116 481 3141 
Q 481 3172 503 3191 
Q 547 3231 713 3325 
Q 738 3338 928 3494 
Q 1231 3747 1372 3890 
Q 1513 4034 1544 4053 
Q 1606 4056 1641 4056 
Q 1722 4056 1742 4029 
Q 1763 4003 1763 3838 
L 1741 1053 
L 1741 778 
Q 1741 678 1737 576 
Q 1734 475 1734 428 
Q 1734 316 1763 281 
Q 1781 259 1878 225 
L 2091 181 
Q 2228 147 2241 134 
Q 2272 106 2272 47 
L 2269 6 
z
" transform="scale(0.015625)"/>
       </defs>
       <use xlink:href="#Garamond-31"/>
       <use xlink:href="#Garamond-30" x="46.875"/>
       <use xlink:href="#Garamond-30" x="93.75"/>
      </g>
     </g>
    </g>
    <g id="ytick_6">
     <g id="line2d_18">
      <g>
       <use xlink:href="#m45477f2da5" x="57.4" y="123.766894" style="stroke: #000000; stroke-width: 0.8"/>
      </g>
     </g>
     <g id="text_19">
      <!-- 125 -->
      <g transform="translate(29.30625 128.633691) scale(0.15 -0.15)">
       <use xlink:href="#Garamond-31"/>
       <use xlink:href="#Garamond-32" x="46.875"/>
       <use xlink:href="#Garamond-35" x="93.75"/>
      </g>
     </g>
    </g>
    <g id="ytick_7">
     <g id="line2d_19">
      <g>
       <use xlink:href="#m45477f2da5" x="57.4" y="80.552273" style="stroke: #000000; stroke-width: 0.8"/>
      </g>
     </g>
     <g id="text_20">
      <!-- 150 -->
      <g transform="translate(29.30625 85.419069) scale(0.15 -0.15)">
       <use xlink:href="#Garamond-31"/>
       <use xlink:href="#Garamond-35" x="46.875"/>
       <use xlink:href="#Garamond-30" x="93.75"/>
      </g>
     </g>
    </g>
    <g id="ytick_8">
     <g id="line2d_20">
      <g>
       <use xlink:href="#m45477f2da5" x="57.4" y="37.337651" style="stroke: #000000; stroke-width: 0.8"/>
      </g>
     </g>
     <g id="text_21">
      <!-- 175 -->
      <g transform="translate(29.30625 42.204448) scale(0.15 -0.15)">
       <use xlink:href="#Garamond-31"/>
       <use xlink:href="#Garamond-37" x="46.875"/>
       <use xlink:href="#Garamond-35" x="93.75"/>
      </g>
     </g>
    </g>
    <g id="text_22">
     <!-- Water Level(m) -->
     <g transform="translate(20.178125 232.991875) rotate(-90) scale(0.2 -0.2)">
      <defs>
       <path id="Garamond-57" d="M -59 3875 
L -63 3925 
Q -19 3981 184 3981 
L 475 3978 
L 644 3975 
L 719 3978 
Q 1128 3978 1213 3966 
Q 1216 3928 1216 3909 
Q 1216 3881 1209 3828 
L 906 3816 
Q 884 3813 847 3800 
Q 834 3769 834 3753 
Q 834 3734 853 3694 
Q 878 3641 900 3581 
L 1097 3031 
L 1566 1856 
Q 1647 1641 1675 1578 
Q 1763 1381 1897 1028 
Q 1944 906 2122 500 
Q 2131 475 2159 419 
Q 2300 647 2572 1216 
Q 2784 1653 2838 1819 
L 2813 1881 
L 2275 3100 
Q 2169 3328 2109 3463 
Q 1988 3744 1931 3784 
Q 1875 3825 1600 3841 
L 1534 3856 
Q 1509 3884 1509 3922 
Q 1516 3950 1538 3966 
Q 1638 3969 1678 3969 
L 1875 3963 
L 1975 3966 
L 2147 3966 
L 2300 3969 
L 2463 3969 
L 2756 3984 
Q 2784 3984 2841 3981 
L 2891 3984 
Q 2934 3984 2956 3964 
Q 2978 3944 2978 3919 
Q 2978 3897 2966 3869 
Q 2916 3850 2788 3838 
Q 2603 3816 2573 3797 
Q 2544 3778 2544 3747 
Q 2544 3688 2784 3119 
L 3103 2397 
Q 3250 2684 3503 3303 
Q 3609 3559 3609 3681 
Q 3609 3747 3556 3800 
Q 3516 3838 3375 3850 
L 3309 3859 
L 3253 3884 
L 3250 3909 
Q 3250 3928 3266 3963 
Q 3297 3988 3322 3991 
Q 3369 3997 3756 3975 
L 3969 3975 
L 4100 3972 
L 4319 3975 
Q 4344 3972 4394 3959 
Q 4419 3934 4419 3913 
Q 4419 3878 4392 3856 
Q 4366 3834 4272 3819 
Q 4034 3778 3916 3694 
Q 3838 3634 3775 3525 
L 3547 3019 
Q 3466 2788 3413 2672 
Q 3391 2600 3331 2481 
L 3203 2184 
Q 3238 2103 3319 1922 
L 3641 1175 
Q 3663 1125 3770 897 
Q 3878 669 3950 475 
L 3997 625 
L 4003 641 
L 4194 1138 
Q 4294 1366 4394 1619 
L 4634 2225 
L 4997 3256 
Q 5053 3434 5088 3600 
L 5097 3650 
Q 5106 3684 5106 3700 
Q 5106 3744 5062 3780 
Q 5019 3816 4753 3878 
Q 4728 3888 4703 3906 
Q 4694 3944 4694 3966 
L 4697 3988 
Q 4828 3994 4863 3994 
L 5103 3988 
L 5375 3991 
L 5609 3991 
L 5703 3984 
L 5706 3953 
Q 5706 3931 5700 3888 
Q 5475 3800 5420 3762 
Q 5366 3725 5336 3681 
Q 5306 3638 5225 3444 
Q 5216 3425 5028 2881 
Q 4988 2800 4944 2666 
Q 4931 2628 4891 2531 
L 4841 2406 
L 4806 2316 
Q 4600 1747 4353 1125 
L 4016 188 
L 3881 -169 
Q 3831 -175 3806 -175 
Q 3784 -175 3744 -172 
Q 3703 -56 3566 266 
Q 3209 1084 2925 1625 
L 2888 1563 
Q 2728 1259 2503 759 
L 2259 266 
Q 2109 -50 2016 -172 
L 1881 -175 
L 1375 1063 
L 956 2044 
L 588 2975 
Q 550 3066 522 3147 
Q 500 3206 481 3269 
Q 450 3366 306 3709 
Q 250 3800 125 3825 
Q 0 3850 -59 3875 
z
" transform="scale(0.015625)"/>
       <path id="Garamond-20" transform="scale(0.015625)"/>
       <path id="Garamond-4c" d="M 34 -19 
Q 38 28 59 66 
Q 303 131 534 153 
Q 688 166 731 222 
Q 763 263 769 522 
L 791 1347 
L 788 1906 
L 791 2638 
L 791 2831 
Q 794 3491 784 3653 
Q 781 3684 759 3741 
Q 678 3778 623 3790 
Q 569 3803 134 3881 
Q 131 3916 131 3931 
Q 131 3950 134 3981 
Q 194 3981 328 3975 
L 803 3959 
L 1078 3953 
L 1159 3956 
Q 1175 3956 1250 3950 
Q 1434 3950 1463 3953 
L 1713 3972 
Q 1966 3972 2069 3963 
Q 2066 3906 2047 3841 
Q 2013 3834 1722 3823 
Q 1431 3813 1388 3788 
Q 1316 3747 1316 3538 
Q 1316 3488 1309 3334 
L 1309 3147 
L 1313 2569 
L 1313 2372 
L 1319 1338 
L 1309 456 
L 1313 263 
Q 1313 169 1344 147 
Q 1422 144 1803 141 
L 2016 141 
L 2556 159 
Q 2769 166 2859 202 
Q 2950 238 3163 413 
Q 3291 525 3363 644 
Q 3378 669 3416 719 
Q 3475 800 3575 1044 
L 3678 1044 
Q 3659 931 3638 831 
Q 3547 391 3513 97 
Q 3506 34 3500 -19 
L 2331 16 
Q 825 16 544 -13 
Q 456 -19 359 -19 
L 34 -19 
z
" transform="scale(0.015625)"/>
       <path id="Garamond-28" d="M 1900 4091 
Q 1934 4006 1981 3925 
Q 1947 3891 1809 3766 
Q 1603 3572 1494 3413 
Q 1209 3003 1075 2717 
Q 941 2431 862 2057 
Q 784 1684 784 1178 
Q 784 831 848 506 
Q 913 181 1077 -184 
Q 1241 -550 1509 -934 
Q 1631 -1113 1809 -1269 
Q 1841 -1297 1919 -1375 
L 1963 -1419 
L 1897 -1569 
Q 1625 -1409 1419 -1163 
Q 1063 -741 864 -341 
Q 666 59 597 441 
Q 491 1025 491 1281 
Q 491 1706 600 2162 
Q 709 2619 966 3078 
Q 1138 3388 1466 3747 
Q 1672 3972 1900 4091 
z
" transform="scale(0.015625)"/>
       <path id="Garamond-6d" d="M 125 109 
Q 175 144 263 156 
Q 388 172 456 206 
Q 513 253 531 341 
Q 553 453 553 1131 
Q 553 1797 513 1991 
Q 444 2034 334 2059 
Q 300 2066 191 2094 
L 191 2197 
Q 375 2250 489 2334 
Q 603 2419 806 2672 
L 825 2672 
Q 844 2672 884 2675 
Q 909 2672 925 2659 
L 922 2303 
Q 922 2194 928 2069 
Q 1263 2372 1528 2494 
Q 1709 2575 1938 2575 
Q 2209 2575 2368 2472 
Q 2528 2369 2672 2100 
Q 2950 2375 3176 2484 
Q 3403 2594 3634 2594 
Q 3984 2594 4209 2366 
Q 4431 2134 4438 1688 
L 4438 1428 
L 4441 1144 
L 4438 413 
Q 4434 284 4494 219 
Q 4519 209 4684 163 
Q 4788 134 4806 118 
Q 4825 103 4825 75 
Q 4825 41 4806 -6 
L 4784 -6 
L 4469 13 
Q 4413 16 4291 16 
Q 4141 16 3872 3 
L 3713 3 
Q 3678 3 3578 0 
Q 3575 28 3575 50 
Q 3575 75 3597 113 
Q 3681 150 3828 173 
Q 3975 197 4011 258 
Q 4047 319 4047 744 
Q 4047 1666 4025 1813 
Q 3988 2047 3827 2180 
Q 3666 2313 3422 2313 
Q 3234 2313 3056 2214 
Q 2878 2116 2706 1919 
L 2703 1844 
L 2703 1366 
L 2691 994 
Q 2691 425 2702 347 
Q 2713 269 2755 233 
Q 2797 197 3000 169 
Q 3091 156 3141 144 
Q 3178 113 3178 63 
Q 3178 22 3150 6 
L 3097 6 
L 2941 9 
L 2031 9 
L 1781 6 
Q 1775 53 1775 75 
L 1778 113 
Q 1847 150 2034 184 
Q 2131 200 2234 238 
Q 2253 253 2263 278 
Q 2278 322 2284 528 
L 2300 891 
L 2294 1300 
L 2297 1528 
Q 2297 1913 2140 2089 
Q 1984 2266 1747 2266 
Q 1525 2266 1301 2156 
Q 1078 2047 931 1863 
Q 928 1775 928 1703 
L 941 653 
Q 944 309 980 261 
Q 1016 213 1141 194 
Q 1341 166 1400 125 
Q 1428 106 1428 69 
Q 1428 44 1425 9 
Q 1069 34 947 34 
Q 822 34 722 31 
L 566 22 
L 469 22 
L 119 9 
Q 113 31 113 47 
Q 113 63 125 109 
z
" transform="scale(0.015625)"/>
       <path id="Garamond-29" d="M -138 -1400 
Q -41 -1306 25 -1247 
Q 238 -1063 378 -853 
Q 672 -422 778 -194 
Q 925 122 1001 494 
Q 1078 866 1078 1278 
Q 1078 1759 993 2117 
Q 909 2475 717 2864 
Q 525 3253 319 3525 
Q 281 3578 -84 3944 
L -22 4097 
Q 231 3947 447 3700 
Q 775 3322 987 2897 
Q 1200 2472 1266 2091 
Q 1369 1503 1369 1216 
Q 1369 853 1266 398 
Q 1163 -56 897 -538 
Q 694 -906 325 -1281 
Q 166 -1444 -56 -1563 
Q -88 -1484 -138 -1400 
z
" transform="scale(0.015625)"/>
      </defs>
      <use xlink:href="#Garamond-57"/>
      <use xlink:href="#Garamond-61" x="81.025391"/>
      <use xlink:href="#Garamond-74" x="121.650391"/>
      <use xlink:href="#Garamond-65" x="150.800781"/>
      <use xlink:href="#Garamond-72" x="192.451172"/>
      <use xlink:href="#Garamond-20" x="225.800781"/>
      <use xlink:href="#Garamond-4c" x="250.800781"/>
      <use xlink:href="#Garamond-65" x="308.076172"/>
      <use xlink:href="#Garamond-76" x="349.726562"/>
      <use xlink:href="#Garamond-65" x="394.726562"/>
      <use xlink:href="#Garamond-6c" x="436.376953"/>
      <use xlink:href="#Garamond-28" x="459.277344"/>
      <use xlink:href="#Garamond-6d" x="488.427734"/>
      <use xlink:href="#Garamond-29" x="565.527344"/>
     </g>
    </g>
   </g>
   <g id="patch_63">
    <path d="M 57.4 339.84 
L 57.4 7.2 
" style="fill: none; stroke: #000000; stroke-width: 0.8; stroke-linejoin: miter; stroke-linecap: square"/>
   </g>
   <g id="patch_64">
    <path d="M 727 339.84 
L 727 7.2 
" style="fill: none; stroke: #000000; stroke-width: 0.8; stroke-linejoin: miter; stroke-linecap: square"/>
   </g>
   <g id="patch_65">
    <path d="M 57.4 339.84 
L 727 339.84 
" style="fill: none; stroke: #000000; stroke-width: 0.8; stroke-linejoin: miter; stroke-linecap: square"/>
   </g>
   <g id="patch_66">
    <path d="M 57.4 7.2 
L 727 7.2 
" style="fill: none; stroke: #000000; stroke-width: 0.8; stroke-linejoin: miter; stroke-linecap: square"/>
   </g>
   <g id="legend_1">
    <g id="patch_67">
     <path d="M 774.48 168.86875 
L 915.26125 168.86875 
Q 919.26125 168.86875 919.26125 164.86875 
L 919.26125 21.2 
Q 919.26125 17.2 915.26125 17.2 
L 774.48 17.2 
Q 770.48 17.2 770.48 21.2 
L 770.48 164.86875 
Q 770.48 168.86875 774.48 168.86875 
z
" style="fill: #ffffff; opacity: 0.8; stroke: #cccccc; stroke-linejoin: miter"/>
    </g>
    <g id="patch_68">
     <path d="M 778.48 39.2 
L 818.48 39.2 
L 818.48 25.2 
L 778.48 25.2 
z
" style="fill: #1f78b4"/>
    </g>
    <g id="text_23">
     <!-- Erie  -->
     <g transform="translate(834.48 39.2) scale(0.2 -0.2)">
      <defs>
       <path id="Garamond-45" d="M 156 50 
Q 188 78 209 84 
Q 263 100 391 109 
Q 694 128 766 166 
Q 809 228 809 341 
L 806 559 
L 809 1353 
L 803 1728 
L 806 2513 
L 791 3403 
Q 788 3722 750 3763 
Q 694 3822 416 3831 
Q 297 3834 206 3850 
Q 166 3872 166 3906 
Q 166 3931 181 3966 
Q 209 3981 231 3981 
Q 275 3981 338 3978 
Q 522 3963 719 3963 
L 950 3969 
L 1500 3956 
Q 1913 3956 2144 3965 
Q 2375 3975 2456 3975 
Q 2528 3975 2813 3963 
L 3256 3966 
L 3309 3956 
L 3569 3966 
L 3600 3950 
Q 3616 3925 3622 3897 
Q 3622 3853 3608 3762 
Q 3594 3672 3594 3650 
Q 3594 3325 3616 3100 
Q 3613 3081 3597 3075 
Q 3563 3075 3534 3084 
Q 3500 3144 3442 3294 
Q 3384 3444 3269 3641 
Q 3191 3772 3147 3797 
Q 3103 3822 2966 3822 
Q 2938 3822 2681 3828 
Q 2613 3831 2547 3831 
L 1656 3813 
L 1578 3813 
Q 1406 3813 1372 3769 
Q 1319 3694 1319 3328 
Q 1319 3291 1334 2578 
L 1334 2144 
Q 1369 2134 1409 2134 
L 1463 2134 
Q 1516 2134 1619 2131 
Q 1781 2125 1838 2125 
Q 1875 2125 1903 2128 
Q 2241 2141 2772 2141 
Q 2938 2169 2966 2206 
Q 3013 2263 3036 2500 
Q 3059 2738 3141 2769 
Q 3181 2769 3216 2753 
Q 3222 2728 3222 2706 
Q 3222 2684 3216 2634 
Q 3200 2519 3200 1909 
Q 3200 1747 3217 1547 
Q 3234 1347 3234 1331 
Q 3234 1303 3225 1256 
Q 3200 1244 3184 1244 
L 3163 1244 
Q 3113 1331 3066 1516 
Q 2984 1831 2895 1911 
Q 2806 1991 2606 1991 
Q 2563 1991 2447 1986 
Q 2331 1981 2103 1981 
L 1900 1981 
Q 1466 1981 1331 1963 
L 1328 1859 
L 1331 1284 
L 1328 922 
L 1331 569 
Q 1334 250 1372 200 
Q 1425 131 1603 131 
L 1794 134 
Q 1819 134 1989 129 
Q 2159 125 2409 125 
Q 3013 125 3213 176 
Q 3413 228 3542 359 
Q 3672 491 3869 925 
Q 3928 1053 3988 1053 
Q 4016 1053 4050 1028 
Q 3959 719 3947 622 
Q 3913 403 3906 175 
Q 3906 72 3856 3 
L 3788 3 
L 2909 -6 
L 2516 -3 
L 1578 -16 
L 1197 -16 
Q 1125 -16 1063 -19 
Q 500 -44 234 -44 
Q 188 -44 170 -28 
Q 153 -13 153 19 
L 156 50 
z
" transform="scale(0.015625)"/>
       <path id="Garamond-69" d="M 444 3841 
Q 444 3944 523 4019 
Q 603 4094 716 4094 
Q 831 4094 918 4009 
Q 1006 3925 1006 3828 
Q 1006 3731 918 3645 
Q 831 3559 716 3559 
Q 600 3559 522 3637 
Q 444 3716 444 3841 
z
M 181 2222 
L 184 2313 
Q 388 2372 403 2381 
Q 516 2431 639 2534 
Q 763 2638 847 2766 
Q 884 2772 906 2772 
L 944 2769 
Q 956 2619 956 2550 
Q 956 2534 950 2409 
L 950 2244 
L 953 1344 
L 944 391 
Q 941 275 981 229 
Q 1022 184 1222 128 
Q 1347 94 1409 69 
Q 1419 47 1419 31 
Q 1419 13 1403 -16 
Q 1281 -13 1091 0 
Q 831 22 747 22 
Q 706 22 247 6 
Q 153 3 66 -9 
Q 50 -9 16 0 
Q 0 22 0 38 
Q 0 81 59 106 
Q 72 113 378 178 
Q 478 197 509 241 
Q 563 306 563 450 
Q 569 691 569 1769 
Q 569 1984 550 2038 
Q 534 2075 467 2123 
Q 400 2172 181 2222 
z
" transform="scale(0.015625)"/>
      </defs>
      <use xlink:href="#Garamond-45"/>
      <use xlink:href="#Garamond-72" x="65.625"/>
      <use xlink:href="#Garamond-69" x="98.974609"/>
      <use xlink:href="#Garamond-65" x="121.875"/>
      <use xlink:href="#Garamond-20" x="163.525391"/>
     </g>
    </g>
    <g id="patch_69">
     <path d="M 778.48 68.328125 
L 818.48 68.328125 
L 818.48 54.328125 
L 778.48 54.328125 
z
" style="fill: #33a02c"/>
    </g>
    <g id="text_24">
     <!-- Michigan  -->
     <g transform="translate(834.48 68.328125) scale(0.2 -0.2)">
      <use xlink:href="#Garamond-4d"/>
      <use xlink:href="#Garamond-69" x="83.349609"/>
      <use xlink:href="#Garamond-63" x="106.25"/>
      <use xlink:href="#Garamond-68" x="146.525391"/>
      <use xlink:href="#Garamond-69" x="197.550781"/>
      <use xlink:href="#Garamond-67" x="220.451172"/>
      <use xlink:href="#Garamond-61" x="267.226562"/>
      <use xlink:href="#Garamond-6e" x="307.851562"/>
      <use xlink:href="#Garamond-20" x="358.876953"/>
     </g>
    </g>
    <g id="patch_70">
     <path d="M 778.48 97.484375 
L 818.48 97.484375 
L 818.48 83.484375 
L 778.48 83.484375 
z
" style="fill: #e31a1c"/>
    </g>
    <g id="text_25">
     <!-- Ontario  -->
     <g transform="translate(834.48 97.484375) scale(0.2 -0.2)">
      <use xlink:href="#Garamond-4f"/>
      <use xlink:href="#Garamond-6e" x="78.125"/>
      <use xlink:href="#Garamond-74" x="129.150391"/>
      <use xlink:href="#Garamond-61" x="158.300781"/>
      <use xlink:href="#Garamond-72" x="198.925781"/>
      <use xlink:href="#Garamond-69" x="232.275391"/>
      <use xlink:href="#Garamond-6f" x="255.175781"/>
      <use xlink:href="#Garamond-20" x="306.201172"/>
     </g>
    </g>
    <g id="patch_71">
     <path d="M 778.48 126.6125 
L 818.48 126.6125 
L 818.48 112.6125 
L 778.48 112.6125 
z
" style="fill: #ff7f00"/>
    </g>
    <g id="text_26">
     <!-- Clair  -->
     <g transform="translate(834.48 126.6125) scale(0.2 -0.2)">
      <defs>
       <path id="Garamond-43" d="M 3703 3825 
Q 3741 3584 3741 3331 
Q 3741 3281 3738 3197 
Q 3694 3188 3672 3188 
Q 3653 3188 3619 3194 
Q 3488 3559 3191 3756 
Q 2894 3953 2456 3953 
Q 2225 3953 2066 3900 
Q 1784 3803 1571 3633 
Q 1359 3463 1212 3227 
Q 1066 2991 980 2655 
Q 894 2319 894 1969 
Q 894 1300 1097 864 
Q 1300 428 1653 242 
Q 2006 56 2366 56 
L 2513 59 
Q 2763 91 2853 119 
Q 3081 184 3229 273 
Q 3378 363 3520 525 
Q 3663 688 3763 903 
L 3800 916 
Q 3816 916 3847 897 
Q 3844 822 3841 800 
Q 3709 272 3650 78 
Q 3600 66 3525 41 
Q 3159 -84 2547 -84 
Q 2053 -84 1808 -17 
Q 1563 50 1273 192 
Q 984 334 765 568 
Q 547 803 412 1161 
Q 278 1519 278 1941 
Q 278 2341 384 2639 
Q 491 2938 712 3244 
Q 934 3550 1236 3753 
Q 1538 3956 1906 4041 
Q 2166 4097 2641 4097 
Q 2988 4097 3294 4005 
Q 3600 3913 3703 3825 
z
" transform="scale(0.015625)"/>
      </defs>
      <use xlink:href="#Garamond-43"/>
      <use xlink:href="#Garamond-6c" x="63.525391"/>
      <use xlink:href="#Garamond-61" x="86.425781"/>
      <use xlink:href="#Garamond-69" x="127.050781"/>
      <use xlink:href="#Garamond-72" x="149.951172"/>
      <use xlink:href="#Garamond-20" x="183.300781"/>
     </g>
    </g>
    <g id="patch_72">
     <path d="M 778.48 155.740625 
L 818.48 155.740625 
L 818.48 141.740625 
L 778.48 141.740625 
z
" style="fill: #6a3d9a"/>
    </g>
    <g id="text_27">
     <!-- Superior  -->
     <g transform="translate(834.48 155.740625) scale(0.2 -0.2)">
      <use xlink:href="#Garamond-53"/>
      <use xlink:href="#Garamond-75" x="47.900391"/>
      <use xlink:href="#Garamond-70" x="96.875"/>
      <use xlink:href="#Garamond-65" x="147.900391"/>
      <use xlink:href="#Garamond-72" x="189.550781"/>
      <use xlink:href="#Garamond-69" x="222.900391"/>
      <use xlink:href="#Garamond-6f" x="245.800781"/>
      <use xlink:href="#Garamond-72" x="296.826172"/>
      <use xlink:href="#Garamond-20" x="330.175781"/>
     </g>
    </g>
   </g>
  </g>
 </g>
 <defs>
  <clipPath id="pdf90475c54">
   <rect x="57.4" y="7.2" width="669.6" height="332.64"/>
  </clipPath>
 </defs>
</svg>
